<svg width="366" height="509" viewBox="0 0 366 509" fill="none" xmlns="http://www.w3.org/2000/svg">
<rect width="366" height="509" rx="4" fill="#1B3144"/>
<rect x="40" y="40" width="286" height="44" rx="4" fill="#334A5F"/>
<g clip-path="url(#clip0_277_18143)">
<path d="M71.2 56.25C74.7244 56.25 76.75 58.9435 76.75 63C76.75 67.8301 72.8325 71.7476 68 71.7476C63.1686 71.7476 59.2516 67.8319 59.25 63.0003C59.25 59.033 61.1863 56.3704 64.5673 56.254L64.8 56.25L64.8669 56.253C65.7563 56.3326 66.6404 56.4616 67.5152 56.6391L67.998 56.744L68.3758 56.6616C69.1053 56.5102 69.8465 56.3923 70.6167 56.3074L71.2 56.25ZM71.2669 57.747C70.2242 57.8404 69.1893 58.006 68.1695 58.2426C68.058 58.2685 67.942 58.2685 67.8305 58.2426C67.0147 58.0533 66.1891 57.9094 65.3577 57.8117L64.761 57.75L64.5869 57.7545C62.2018 57.856 60.8298 59.6767 60.7534 62.7277L60.75 63C60.7513 67.0032 63.9969 70.2476 68 70.2476C71.924 70.2476 75.1199 67.1302 75.2461 63.237L75.25 62.9976L75.2466 62.7277C75.168 59.5875 73.718 57.7499 71.2669 57.747Z" fill="#F1F1F1"/>
<path d="M73.2489 51.25H71.4049C69.2469 51.2507 67.4983 53.0006 67.499 55.1583V57C67.499 57.4142 67.8348 57.75 68.249 57.75H70.0909C72.249 57.7493 73.9982 56.0002 73.9989 53.8424V52C73.9989 51.5858 73.6631 51.25 73.2489 51.25ZM72.498 52.749L72.4989 53.8421L72.4938 54.0004C72.4118 55.2562 71.3673 56.2496 70.0907 56.25H68.998L68.999 55.1581C68.9986 53.8285 70.0758 52.7505 71.4052 52.75L72.498 52.749Z" fill="#F1F1F1"/>
<path d="M65.749 53.25C67.4821 53.25 68.8983 54.6065 68.9939 56.3156L68.999 56.5V57C68.999 57.4142 68.6632 57.75 68.249 57.75C67.8693 57.75 67.5555 57.4678 67.5059 57.1018L67.499 57V56.5C67.499 55.5818 66.7919 54.8288 65.8925 54.7558L65.749 54.75H65.249C64.8348 54.75 64.499 54.4142 64.499 54C64.499 53.6203 64.7812 53.3065 65.1473 53.2568L65.249 53.25H65.749Z" fill="#F1F1F1"/>
</g>
<path d="M86.2614 68H84.3977L88.5852 56.3636H90.6136L94.8011 68H92.9375L89.6477 58.4773H89.5568L86.2614 68ZM86.5739 63.4432H92.6193V64.9205H86.5739V63.4432ZM96.3452 71.2727V59.2727H98.0043V60.6875H98.1463C98.2448 60.5057 98.3868 60.2955 98.5724 60.0568C98.758 59.8182 99.0156 59.6098 99.3452 59.4318C99.6747 59.25 100.11 59.1591 100.652 59.1591C101.357 59.1591 101.985 59.3371 102.538 59.6932C103.091 60.0492 103.525 60.5625 103.839 61.233C104.158 61.9034 104.317 62.7102 104.317 63.6534C104.317 64.5966 104.16 65.4053 103.845 66.0795C103.531 66.75 103.099 67.267 102.55 67.6307C102 67.9905 101.374 68.1705 100.669 68.1705C100.139 68.1705 99.705 68.0814 99.3679 67.9034C99.0346 67.7254 98.7732 67.517 98.5838 67.2784C98.3944 67.0398 98.2486 66.8277 98.1463 66.642H98.044V71.2727H96.3452ZM98.0099 63.6364C98.0099 64.25 98.099 64.7879 98.277 65.25C98.455 65.7121 98.7126 66.0739 99.0497 66.3352C99.3868 66.5928 99.7997 66.7216 100.288 66.7216C100.796 66.7216 101.22 66.5871 101.561 66.3182C101.902 66.0455 102.16 65.6761 102.334 65.2102C102.512 64.7443 102.601 64.2197 102.601 63.6364C102.601 63.0606 102.514 62.5436 102.339 62.0852C102.169 61.6269 101.911 61.2652 101.567 61C101.226 60.7348 100.8 60.6023 100.288 60.6023C99.7959 60.6023 99.3793 60.7292 99.0384 60.983C98.7012 61.2367 98.4455 61.5909 98.2713 62.0455C98.0971 62.5 98.0099 63.0303 98.0099 63.6364ZM106.22 71.2727V59.2727H107.879V60.6875H108.021C108.12 60.5057 108.262 60.2955 108.447 60.0568C108.633 59.8182 108.891 59.6098 109.22 59.4318C109.55 59.25 109.985 59.1591 110.527 59.1591C111.232 59.1591 111.86 59.3371 112.413 59.6932C112.966 60.0492 113.4 60.5625 113.714 61.233C114.033 61.9034 114.192 62.7102 114.192 63.6534C114.192 64.5966 114.035 65.4053 113.72 66.0795C113.406 66.75 112.974 67.267 112.425 67.6307C111.875 67.9905 111.249 68.1705 110.544 68.1705C110.014 68.1705 109.58 68.0814 109.243 67.9034C108.91 67.7254 108.648 67.517 108.459 67.2784C108.269 67.0398 108.124 66.8277 108.021 66.642H107.919V71.2727H106.22ZM107.885 63.6364C107.885 64.25 107.974 64.7879 108.152 65.25C108.33 65.7121 108.588 66.0739 108.925 66.3352C109.262 66.5928 109.675 66.7216 110.163 66.7216C110.671 66.7216 111.095 66.5871 111.436 66.3182C111.777 66.0455 112.035 65.6761 112.209 65.2102C112.387 64.7443 112.476 64.2197 112.476 63.6364C112.476 63.0606 112.389 62.5436 112.214 62.0852C112.044 61.6269 111.786 61.2652 111.442 61C111.101 60.7348 110.675 60.6023 110.163 60.6023C109.671 60.6023 109.254 60.7292 108.913 60.983C108.576 61.2367 108.321 61.5909 108.146 62.0455C107.972 62.5 107.885 63.0303 107.885 63.6364ZM117.794 56.3636V68H116.095V56.3636H117.794ZM123.841 68.1761C122.981 68.1761 122.241 67.9924 121.619 67.625C121.002 67.2538 120.525 66.733 120.188 66.0625C119.854 65.3883 119.688 64.5985 119.688 63.6932C119.688 62.7992 119.854 62.0114 120.188 61.3295C120.525 60.6477 120.994 60.1155 121.597 59.733C122.203 59.3504 122.911 59.1591 123.722 59.1591C124.214 59.1591 124.691 59.2405 125.153 59.4034C125.616 59.5663 126.03 59.822 126.398 60.1705C126.765 60.5189 127.055 60.9716 127.267 61.5284C127.479 62.0814 127.585 62.7538 127.585 63.5455V64.1477H120.648V62.875H125.92C125.92 62.428 125.83 62.0322 125.648 61.6875C125.466 61.339 125.21 61.0644 124.881 60.8636C124.555 60.6629 124.172 60.5625 123.733 60.5625C123.256 60.5625 122.839 60.6799 122.483 60.9148C122.131 61.1458 121.858 61.4489 121.665 61.8239C121.475 62.1951 121.381 62.5985 121.381 63.0341V64.0284C121.381 64.6117 121.483 65.108 121.688 65.517C121.896 65.9261 122.186 66.2386 122.557 66.4545C122.928 66.6667 123.362 66.7727 123.858 66.7727C124.18 66.7727 124.473 66.7273 124.739 66.6364C125.004 66.5417 125.233 66.4015 125.426 66.2159C125.619 66.0303 125.767 65.8011 125.869 65.5284L127.477 65.8182C127.348 66.2917 127.117 66.7064 126.784 67.0625C126.455 67.4148 126.04 67.6894 125.54 67.8864C125.044 68.0795 124.477 68.1761 123.841 68.1761Z" fill="#F1F1F1"/>
<path d="M256.167 62H267.833" stroke="#C9D6E2" stroke-width="1.66667" stroke-linecap="round" stroke-linejoin="round"/>
<path d="M281.205 68V66.9773L285.045 62.7727C285.496 62.2803 285.867 61.8523 286.159 61.4886C286.451 61.1212 286.667 60.7765 286.807 60.4545C286.951 60.1288 287.023 59.7879 287.023 59.4318C287.023 59.0227 286.924 58.6686 286.727 58.3693C286.534 58.0701 286.269 57.839 285.932 57.6761C285.595 57.5133 285.216 57.4318 284.795 57.4318C284.348 57.4318 283.958 57.5246 283.625 57.7102C283.295 57.892 283.04 58.1477 282.858 58.4773C282.68 58.8068 282.591 59.1932 282.591 59.6364H281.25C281.25 58.9545 281.407 58.3561 281.722 57.8409C282.036 57.3258 282.464 56.9242 283.006 56.6364C283.551 56.3485 284.163 56.2045 284.841 56.2045C285.523 56.2045 286.127 56.3485 286.653 56.6364C287.18 56.9242 287.593 57.3125 287.892 57.8011C288.191 58.2898 288.341 58.8333 288.341 59.4318C288.341 59.8598 288.263 60.2784 288.108 60.6875C287.956 61.0928 287.691 61.5455 287.312 62.0455C286.938 62.5417 286.417 63.1477 285.75 63.8636L283.136 66.6591V66.75H288.545V68H281.205Z" fill="#F1F1F1"/>
<path d="M308 56.167V67.8337M302.167 62.0003H313.833" stroke="#C9D6E2" stroke-width="1.66667" stroke-linecap="round" stroke-linejoin="round"/>
<rect x="40" y="117" width="286" height="44" rx="4" fill="#334A5F"/>
<g clip-path="url(#clip1_277_18143)">
<path d="M71.2 133.25C74.7244 133.25 76.75 135.943 76.75 140C76.75 144.83 72.8325 148.748 68 148.748C63.1686 148.748 59.2516 144.832 59.25 140C59.25 136.033 61.1863 133.37 64.5673 133.254L64.8 133.25L64.8669 133.253C65.7563 133.333 66.6404 133.462 67.5152 133.639L67.998 133.744L68.3758 133.662C69.1053 133.51 69.8465 133.392 70.6167 133.307L71.2 133.25ZM71.2669 134.747C70.2242 134.84 69.1893 135.006 68.1695 135.243C68.058 135.268 67.942 135.268 67.8305 135.243C67.0147 135.053 66.1891 134.909 65.3577 134.812L64.761 134.75L64.5869 134.754C62.2018 134.856 60.8298 136.677 60.7534 139.728L60.75 140C60.7513 144.003 63.9969 147.248 68 147.248C71.924 147.248 75.1199 144.13 75.2461 140.237L75.25 139.998L75.2466 139.728C75.168 136.588 73.718 134.75 71.2669 134.747Z" fill="#F1F1F1"/>
<path d="M73.2489 128.25H71.4049C69.2469 128.251 67.4983 130.001 67.499 132.158V134C67.499 134.414 67.8348 134.75 68.249 134.75H70.0909C72.249 134.749 73.9982 133 73.9989 130.842V129C73.9989 128.586 73.6631 128.25 73.2489 128.25ZM72.498 129.749L72.4989 130.842L72.4938 131C72.4118 132.256 71.3673 133.25 70.0907 133.25H68.998L68.999 132.158C68.9986 130.828 70.0758 129.75 71.4052 129.75L72.498 129.749Z" fill="#F1F1F1"/>
<path d="M65.749 130.25C67.4821 130.25 68.8983 131.606 68.9939 133.316L68.999 133.5V134C68.999 134.414 68.6632 134.75 68.249 134.75C67.8693 134.75 67.5555 134.468 67.5059 134.102L67.499 134V133.5C67.499 132.582 66.7919 131.829 65.8925 131.756L65.749 131.75H65.249C64.8348 131.75 64.499 131.414 64.499 131C64.499 130.62 64.7812 130.307 65.1473 130.257L65.249 130.25H65.749Z" fill="#F1F1F1"/>
</g>
<path d="M86.2614 145H84.3977L88.5852 133.364H90.6136L94.8011 145H92.9375L89.6477 135.477H89.5568L86.2614 145ZM86.5739 140.443H92.6193V141.92H86.5739V140.443ZM96.3452 148.273V136.273H98.0043V137.688H98.1463C98.2448 137.506 98.3868 137.295 98.5724 137.057C98.758 136.818 99.0156 136.61 99.3452 136.432C99.6747 136.25 100.11 136.159 100.652 136.159C101.357 136.159 101.985 136.337 102.538 136.693C103.091 137.049 103.525 137.562 103.839 138.233C104.158 138.903 104.317 139.71 104.317 140.653C104.317 141.597 104.16 142.405 103.845 143.08C103.531 143.75 103.099 144.267 102.55 144.631C102 144.991 101.374 145.17 100.669 145.17C100.139 145.17 99.705 145.081 99.3679 144.903C99.0346 144.725 98.7732 144.517 98.5838 144.278C98.3944 144.04 98.2486 143.828 98.1463 143.642H98.044V148.273H96.3452ZM98.0099 140.636C98.0099 141.25 98.099 141.788 98.277 142.25C98.455 142.712 98.7126 143.074 99.0497 143.335C99.3868 143.593 99.7997 143.722 100.288 143.722C100.796 143.722 101.22 143.587 101.561 143.318C101.902 143.045 102.16 142.676 102.334 142.21C102.512 141.744 102.601 141.22 102.601 140.636C102.601 140.061 102.514 139.544 102.339 139.085C102.169 138.627 101.911 138.265 101.567 138C101.226 137.735 100.8 137.602 100.288 137.602C99.7959 137.602 99.3793 137.729 99.0384 137.983C98.7012 138.237 98.4455 138.591 98.2713 139.045C98.0971 139.5 98.0099 140.03 98.0099 140.636ZM106.22 148.273V136.273H107.879V137.688H108.021C108.12 137.506 108.262 137.295 108.447 137.057C108.633 136.818 108.891 136.61 109.22 136.432C109.55 136.25 109.985 136.159 110.527 136.159C111.232 136.159 111.86 136.337 112.413 136.693C112.966 137.049 113.4 137.562 113.714 138.233C114.033 138.903 114.192 139.71 114.192 140.653C114.192 141.597 114.035 142.405 113.72 143.08C113.406 143.75 112.974 144.267 112.425 144.631C111.875 144.991 111.249 145.17 110.544 145.17C110.014 145.17 109.58 145.081 109.243 144.903C108.91 144.725 108.648 144.517 108.459 144.278C108.269 144.04 108.124 143.828 108.021 143.642H107.919V148.273H106.22ZM107.885 140.636C107.885 141.25 107.974 141.788 108.152 142.25C108.33 142.712 108.588 143.074 108.925 143.335C109.262 143.593 109.675 143.722 110.163 143.722C110.671 143.722 111.095 143.587 111.436 143.318C111.777 143.045 112.035 142.676 112.209 142.21C112.387 141.744 112.476 141.22 112.476 140.636C112.476 140.061 112.389 139.544 112.214 139.085C112.044 138.627 111.786 138.265 111.442 138C111.101 137.735 110.675 137.602 110.163 137.602C109.671 137.602 109.254 137.729 108.913 137.983C108.576 138.237 108.321 138.591 108.146 139.045C107.972 139.5 107.885 140.03 107.885 140.636ZM117.794 133.364V145H116.095V133.364H117.794ZM123.841 145.176C122.981 145.176 122.241 144.992 121.619 144.625C121.002 144.254 120.525 143.733 120.188 143.062C119.854 142.388 119.688 141.598 119.688 140.693C119.688 139.799 119.854 139.011 120.188 138.33C120.525 137.648 120.994 137.116 121.597 136.733C122.203 136.35 122.911 136.159 123.722 136.159C124.214 136.159 124.691 136.241 125.153 136.403C125.616 136.566 126.03 136.822 126.398 137.17C126.765 137.519 127.055 137.972 127.267 138.528C127.479 139.081 127.585 139.754 127.585 140.545V141.148H120.648V139.875H125.92C125.92 139.428 125.83 139.032 125.648 138.688C125.466 138.339 125.21 138.064 124.881 137.864C124.555 137.663 124.172 137.562 123.733 137.562C123.256 137.562 122.839 137.68 122.483 137.915C122.131 138.146 121.858 138.449 121.665 138.824C121.475 139.195 121.381 139.598 121.381 140.034V141.028C121.381 141.612 121.483 142.108 121.688 142.517C121.896 142.926 122.186 143.239 122.557 143.455C122.928 143.667 123.362 143.773 123.858 143.773C124.18 143.773 124.473 143.727 124.739 143.636C125.004 143.542 125.233 143.402 125.426 143.216C125.619 143.03 125.767 142.801 125.869 142.528L127.477 142.818C127.348 143.292 127.117 143.706 126.784 144.062C126.455 144.415 126.04 144.689 125.54 144.886C125.044 145.08 124.477 145.176 123.841 145.176Z" fill="#F1F1F1"/>
<g clip-path="url(#clip2_277_18143)">
<path d="M302 137L306 141L310 137" stroke="#F1F1F1" stroke-width="1.5" stroke-linecap="round" stroke-linejoin="round"/>
</g>
<g filter="url(#filter0_d_277_18143)">
<g clip-path="url(#clip3_277_18143)">
<rect width="143" height="44" transform="translate(40 194)" fill="#334A5F"/>
<g clip-path="url(#clip4_277_18143)">
<path d="M90.2 210.25C93.7244 210.25 95.75 212.943 95.75 217C95.75 221.83 91.8325 225.748 87 225.748C82.1686 225.748 78.2516 221.832 78.25 217C78.25 213.033 80.1863 210.37 83.5673 210.254L83.8 210.25L83.8669 210.253C84.7563 210.333 85.6404 210.462 86.5152 210.639L86.998 210.744L87.3758 210.662C88.1053 210.51 88.8465 210.392 89.6167 210.307L90.2 210.25ZM90.2669 211.747C89.2242 211.84 88.1893 212.006 87.1695 212.243C87.058 212.268 86.942 212.268 86.8305 212.243C86.0147 212.053 85.1891 211.909 84.3577 211.812L83.761 211.75L83.5869 211.754C81.2018 211.856 79.8298 213.677 79.7534 216.728L79.75 217C79.7513 221.003 82.9969 224.248 87 224.248C90.924 224.248 94.1199 221.13 94.2461 217.237L94.25 216.998L94.2466 216.728C94.168 213.588 92.718 211.75 90.2669 211.747Z" fill="#F1F1F1"/>
<path d="M92.2489 205.25H90.4049C88.2469 205.251 86.4983 207.001 86.499 209.158V211C86.499 211.414 86.8348 211.75 87.249 211.75H89.0909C91.249 211.749 92.9982 210 92.9989 207.842V206C92.9989 205.586 92.6631 205.25 92.2489 205.25ZM91.498 206.749L91.4989 207.842L91.4938 208C91.4118 209.256 90.3673 210.25 89.0907 210.25H87.998L87.999 209.158C87.9986 207.828 89.0758 206.75 90.4052 206.75L91.498 206.749Z" fill="#F1F1F1"/>
<path d="M84.749 207.25C86.4821 207.25 87.8983 208.606 87.9939 210.316L87.999 210.5V211C87.999 211.414 87.6632 211.75 87.249 211.75C86.8693 211.75 86.5555 211.468 86.5059 211.102L86.499 211V210.5C86.499 209.582 85.7919 208.829 84.8925 208.756L84.749 208.75H84.249C83.8348 208.75 83.499 208.414 83.499 208C83.499 207.62 83.7812 207.307 84.1473 207.257L84.249 207.25H84.749Z" fill="#F1F1F1"/>
</g>
<path d="M105.261 222H103.398L107.585 210.364H109.614L113.801 222H111.938L108.648 212.477H108.557L105.261 222ZM105.574 217.443H111.619V218.92H105.574V217.443ZM115.345 225.273V213.273H117.004V214.688H117.146C117.245 214.506 117.387 214.295 117.572 214.057C117.758 213.818 118.016 213.61 118.345 213.432C118.675 213.25 119.11 213.159 119.652 213.159C120.357 213.159 120.985 213.337 121.538 213.693C122.091 214.049 122.525 214.562 122.839 215.233C123.158 215.903 123.317 216.71 123.317 217.653C123.317 218.597 123.16 219.405 122.845 220.08C122.531 220.75 122.099 221.267 121.55 221.631C121 221.991 120.374 222.17 119.669 222.17C119.139 222.17 118.705 222.081 118.368 221.903C118.035 221.725 117.773 221.517 117.584 221.278C117.394 221.04 117.249 220.828 117.146 220.642H117.044V225.273H115.345ZM117.01 217.636C117.01 218.25 117.099 218.788 117.277 219.25C117.455 219.712 117.713 220.074 118.05 220.335C118.387 220.593 118.8 220.722 119.288 220.722C119.796 220.722 120.22 220.587 120.561 220.318C120.902 220.045 121.16 219.676 121.334 219.21C121.512 218.744 121.601 218.22 121.601 217.636C121.601 217.061 121.514 216.544 121.339 216.085C121.169 215.627 120.911 215.265 120.567 215C120.226 214.735 119.8 214.602 119.288 214.602C118.796 214.602 118.379 214.729 118.038 214.983C117.701 215.237 117.446 215.591 117.271 216.045C117.097 216.5 117.01 217.03 117.01 217.636ZM125.22 225.273V213.273H126.879V214.688H127.021C127.12 214.506 127.262 214.295 127.447 214.057C127.633 213.818 127.891 213.61 128.22 213.432C128.55 213.25 128.985 213.159 129.527 213.159C130.232 213.159 130.86 213.337 131.413 213.693C131.966 214.049 132.4 214.562 132.714 215.233C133.033 215.903 133.192 216.71 133.192 217.653C133.192 218.597 133.035 219.405 132.72 220.08C132.406 220.75 131.974 221.267 131.425 221.631C130.875 221.991 130.249 222.17 129.544 222.17C129.014 222.17 128.58 222.081 128.243 221.903C127.91 221.725 127.648 221.517 127.459 221.278C127.269 221.04 127.124 220.828 127.021 220.642H126.919V225.273H125.22ZM126.885 217.636C126.885 218.25 126.974 218.788 127.152 219.25C127.33 219.712 127.588 220.074 127.925 220.335C128.262 220.593 128.675 220.722 129.163 220.722C129.671 220.722 130.095 220.587 130.436 220.318C130.777 220.045 131.035 219.676 131.209 219.21C131.387 218.744 131.476 218.22 131.476 217.636C131.476 217.061 131.389 216.544 131.214 216.085C131.044 215.627 130.786 215.265 130.442 215C130.101 214.735 129.675 214.602 129.163 214.602C128.671 214.602 128.254 214.729 127.913 214.983C127.576 215.237 127.321 215.591 127.146 216.045C126.972 216.5 126.885 217.03 126.885 217.636ZM136.794 210.364V222H135.095V210.364H136.794ZM142.841 222.176C141.981 222.176 141.241 221.992 140.619 221.625C140.002 221.254 139.525 220.733 139.188 220.062C138.854 219.388 138.688 218.598 138.688 217.693C138.688 216.799 138.854 216.011 139.188 215.33C139.525 214.648 139.994 214.116 140.597 213.733C141.203 213.35 141.911 213.159 142.722 213.159C143.214 213.159 143.691 213.241 144.153 213.403C144.616 213.566 145.03 213.822 145.398 214.17C145.765 214.519 146.055 214.972 146.267 215.528C146.479 216.081 146.585 216.754 146.585 217.545V218.148H139.648V216.875H144.92C144.92 216.428 144.83 216.032 144.648 215.688C144.466 215.339 144.21 215.064 143.881 214.864C143.555 214.663 143.172 214.562 142.733 214.562C142.256 214.562 141.839 214.68 141.483 214.915C141.131 215.146 140.858 215.449 140.665 215.824C140.475 216.195 140.381 216.598 140.381 217.034V218.028C140.381 218.612 140.483 219.108 140.688 219.517C140.896 219.926 141.186 220.239 141.557 220.455C141.928 220.667 142.362 220.773 142.858 220.773C143.18 220.773 143.473 220.727 143.739 220.636C144.004 220.542 144.233 220.402 144.426 220.216C144.619 220.03 144.767 219.801 144.869 219.528L146.477 219.818C146.348 220.292 146.117 220.706 145.784 221.062C145.455 221.415 145.04 221.689 144.54 221.886C144.044 222.08 143.477 222.176 142.841 222.176Z" fill="#F1F1F1"/>
<rect width="143" height="44" transform="translate(183 194)" fill="#223B50"/>
<g clip-path="url(#clip5_277_18143)">
<path d="M231.705 206.293H230.759C229.793 206.293 229.009 207.076 229.009 208.043V208.397C229.009 209.718 228.728 211.023 228.184 212.226L228.022 212.564C226.924 214.76 225.221 216.614 223.115 217.902L222.769 218.106C220.787 219.238 218.533 219.837 216.24 219.837H216.06C215.288 219.837 214.598 220.321 214.335 221.047C214.1 221.696 214.25 222.421 214.719 222.923L214.851 223.05C217.337 225.123 220.524 226.057 223.693 225.661C225.801 225.397 227.795 224.556 229.454 223.231L229.75 222.985C232.614 220.53 234.094 216.846 233.728 213.109L233.69 212.771C233.533 211.556 233.455 210.343 233.455 209.13V208.043C233.455 207.076 232.672 206.293 231.705 206.293ZM230.759 207.793H231.705C231.844 207.793 231.955 207.905 231.955 208.043V209.13C231.955 210.152 232.008 211.173 232.112 212.19L232.236 213.267C232.553 216.506 231.267 219.71 228.784 221.838L228.507 222.067C227.074 223.212 225.34 223.943 223.507 224.173C220.75 224.517 217.978 223.705 215.846 221.928L215.782 221.866C215.73 221.808 215.703 221.676 215.746 221.558C215.794 221.425 215.919 221.337 216.06 221.337H216.24C218.794 221.337 221.305 220.67 223.523 219.403L223.888 219.187C226.243 217.747 228.14 215.682 229.37 213.222L229.544 212.857C230.182 211.447 230.509 209.931 230.509 208.397V208.043C230.509 207.905 230.621 207.793 230.759 207.793Z" fill="#F1F1F1"/>
<path d="M228.998 209.235C229.145 208.848 229.577 208.652 229.965 208.799C230.353 208.945 230.548 209.378 230.402 209.765C229.956 210.946 229.251 212.011 228.341 212.88C226.8 214.368 224.876 215.395 222.799 215.848L222.093 215.988C220.312 216.31 218.477 216.161 216.771 215.558L216.71 215.542C216.702 215.541 216.694 215.54 216.688 215.54C216.597 215.541 216.514 215.591 216.469 215.67C216.425 215.749 216.426 215.846 216.474 215.925C217.359 217.405 218.785 218.477 220.446 218.921L220.725 218.989L221.035 219.059C221.439 219.15 221.693 219.551 221.602 219.955C221.518 220.326 221.174 220.57 220.806 220.538L220.705 220.522L220.398 220.453C218.218 219.97 216.333 218.611 215.187 216.696C214.864 216.157 214.853 215.486 215.16 214.938C215.467 214.389 216.044 214.047 216.689 214.04C216.886 214.043 217.082 214.077 217.27 214.143C218.619 214.621 220.061 214.766 221.463 214.571L221.813 214.515L222.126 214.452C224.075 214.099 225.875 213.176 227.302 211.798C228.052 211.081 228.632 210.206 228.998 209.235Z" fill="#F1F1F1"/>
</g>
<path d="M241.278 222V210.364H245.54C246.366 210.364 247.049 210.5 247.591 210.773C248.133 211.042 248.538 211.407 248.807 211.869C249.076 212.328 249.21 212.845 249.21 213.42C249.21 213.905 249.121 214.314 248.943 214.648C248.765 214.977 248.527 215.242 248.227 215.443C247.932 215.64 247.606 215.784 247.25 215.875V215.989C247.636 216.008 248.013 216.133 248.381 216.364C248.752 216.591 249.059 216.915 249.301 217.335C249.544 217.756 249.665 218.267 249.665 218.869C249.665 219.464 249.525 219.998 249.244 220.472C248.968 220.941 248.54 221.314 247.96 221.591C247.381 221.864 246.64 222 245.739 222H241.278ZM243.034 220.494H245.568C246.409 220.494 247.011 220.331 247.375 220.006C247.739 219.68 247.92 219.273 247.92 218.784C247.92 218.417 247.828 218.08 247.642 217.773C247.456 217.466 247.191 217.222 246.847 217.04C246.506 216.858 246.1 216.767 245.631 216.767H243.034V220.494ZM243.034 215.398H245.386C245.78 215.398 246.134 215.322 246.449 215.17C246.767 215.019 247.019 214.807 247.205 214.534C247.394 214.258 247.489 213.932 247.489 213.557C247.489 213.076 247.32 212.672 246.983 212.347C246.646 212.021 246.129 211.858 245.432 211.858H243.034V215.398ZM254.151 222.193C253.598 222.193 253.098 222.091 252.651 221.886C252.204 221.678 251.849 221.377 251.588 220.983C251.33 220.589 251.202 220.106 251.202 219.534C251.202 219.042 251.296 218.636 251.486 218.318C251.675 218 251.931 217.748 252.253 217.562C252.575 217.377 252.935 217.237 253.332 217.142C253.73 217.047 254.135 216.975 254.548 216.926C255.071 216.866 255.495 216.816 255.821 216.778C256.147 216.737 256.384 216.67 256.531 216.58C256.679 216.489 256.753 216.341 256.753 216.136V216.097C256.753 215.6 256.613 215.216 256.332 214.943C256.056 214.67 255.643 214.534 255.094 214.534C254.522 214.534 254.071 214.661 253.741 214.915C253.416 215.165 253.19 215.443 253.065 215.75L251.469 215.386C251.658 214.856 251.935 214.428 252.298 214.102C252.666 213.773 253.088 213.534 253.565 213.386C254.043 213.235 254.545 213.159 255.071 213.159C255.42 213.159 255.789 213.201 256.179 213.284C256.573 213.364 256.94 213.511 257.281 213.727C257.626 213.943 257.908 214.252 258.128 214.653C258.348 215.051 258.457 215.568 258.457 216.205V222H256.798V220.807H256.73C256.62 221.027 256.455 221.242 256.236 221.455C256.016 221.667 255.734 221.843 255.389 221.983C255.045 222.123 254.632 222.193 254.151 222.193ZM254.52 220.83C254.99 220.83 255.391 220.737 255.724 220.551C256.062 220.366 256.317 220.123 256.491 219.824C256.67 219.521 256.759 219.197 256.759 218.852V217.727C256.698 217.788 256.58 217.845 256.406 217.898C256.236 217.947 256.041 217.991 255.821 218.028C255.601 218.062 255.387 218.095 255.179 218.125C254.971 218.152 254.796 218.174 254.656 218.193C254.327 218.235 254.026 218.305 253.753 218.403C253.484 218.502 253.268 218.644 253.105 218.83C252.946 219.011 252.866 219.254 252.866 219.557C252.866 219.977 253.022 220.295 253.332 220.511C253.643 220.723 254.039 220.83 254.52 220.83ZM262.419 216.818V222H260.72V213.273H262.351V214.693H262.459C262.66 214.231 262.974 213.86 263.402 213.58C263.834 213.299 264.377 213.159 265.033 213.159C265.627 213.159 266.148 213.284 266.595 213.534C267.042 213.78 267.389 214.148 267.635 214.636C267.881 215.125 268.004 215.729 268.004 216.449V222H266.305V216.653C266.305 216.021 266.141 215.527 265.811 215.17C265.482 214.811 265.029 214.631 264.453 214.631C264.059 214.631 263.709 214.716 263.402 214.886C263.099 215.057 262.858 215.307 262.68 215.636C262.506 215.962 262.419 216.356 262.419 216.818ZM272.822 222.193C272.269 222.193 271.769 222.091 271.322 221.886C270.875 221.678 270.521 221.377 270.26 220.983C270.002 220.589 269.874 220.106 269.874 219.534C269.874 219.042 269.968 218.636 270.158 218.318C270.347 218 270.603 217.748 270.925 217.562C271.247 217.377 271.607 217.237 272.004 217.142C272.402 217.047 272.807 216.975 273.22 216.926C273.743 216.866 274.167 216.816 274.493 216.778C274.819 216.737 275.055 216.67 275.203 216.58C275.351 216.489 275.425 216.341 275.425 216.136V216.097C275.425 215.6 275.285 215.216 275.004 214.943C274.728 214.67 274.315 214.534 273.766 214.534C273.194 214.534 272.743 214.661 272.413 214.915C272.088 215.165 271.862 215.443 271.737 215.75L270.141 215.386C270.33 214.856 270.607 214.428 270.97 214.102C271.338 213.773 271.76 213.534 272.237 213.386C272.714 213.235 273.216 213.159 273.743 213.159C274.091 213.159 274.461 213.201 274.851 213.284C275.245 213.364 275.612 213.511 275.953 213.727C276.298 213.943 276.58 214.252 276.8 214.653C277.019 215.051 277.129 215.568 277.129 216.205V222H275.47V220.807H275.402C275.292 221.027 275.127 221.242 274.908 221.455C274.688 221.667 274.406 221.843 274.061 221.983C273.716 222.123 273.304 222.193 272.822 222.193ZM273.192 220.83C273.661 220.83 274.063 220.737 274.396 220.551C274.733 220.366 274.989 220.123 275.163 219.824C275.341 219.521 275.43 219.197 275.43 218.852V217.727C275.37 217.788 275.252 217.845 275.078 217.898C274.908 217.947 274.713 217.991 274.493 218.028C274.273 218.062 274.059 218.095 273.851 218.125C273.643 218.152 273.468 218.174 273.328 218.193C272.999 218.235 272.697 218.305 272.425 218.403C272.156 218.502 271.94 218.644 271.777 218.83C271.618 219.011 271.538 219.254 271.538 219.557C271.538 219.977 271.694 220.295 272.004 220.511C272.315 220.723 272.711 220.83 273.192 220.83ZM281.091 216.818V222H279.392V213.273H281.023V214.693H281.131C281.331 214.231 281.646 213.86 282.074 213.58C282.506 213.299 283.049 213.159 283.705 213.159C284.299 213.159 284.82 213.284 285.267 213.534C285.714 213.78 286.061 214.148 286.307 214.636C286.553 215.125 286.676 215.729 286.676 216.449V222H284.977V216.653C284.977 216.021 284.813 215.527 284.483 215.17C284.153 214.811 283.701 214.631 283.125 214.631C282.731 214.631 282.381 214.716 282.074 214.886C281.771 215.057 281.53 215.307 281.352 215.636C281.178 215.962 281.091 216.356 281.091 216.818ZM291.494 222.193C290.941 222.193 290.441 222.091 289.994 221.886C289.547 221.678 289.193 221.377 288.932 220.983C288.674 220.589 288.545 220.106 288.545 219.534C288.545 219.042 288.64 218.636 288.83 218.318C289.019 218 289.275 217.748 289.597 217.562C289.919 217.377 290.278 217.237 290.676 217.142C291.074 217.047 291.479 216.975 291.892 216.926C292.415 216.866 292.839 216.816 293.165 216.778C293.491 216.737 293.727 216.67 293.875 216.58C294.023 216.489 294.097 216.341 294.097 216.136V216.097C294.097 215.6 293.956 215.216 293.676 214.943C293.4 214.67 292.987 214.534 292.438 214.534C291.866 214.534 291.415 214.661 291.085 214.915C290.759 215.165 290.534 215.443 290.409 215.75L288.812 215.386C289.002 214.856 289.278 214.428 289.642 214.102C290.009 213.773 290.432 213.534 290.909 213.386C291.386 213.235 291.888 213.159 292.415 213.159C292.763 213.159 293.133 213.201 293.523 213.284C293.917 213.364 294.284 213.511 294.625 213.727C294.97 213.943 295.252 214.252 295.472 214.653C295.691 215.051 295.801 215.568 295.801 216.205V222H294.142V220.807H294.074C293.964 221.027 293.799 221.242 293.58 221.455C293.36 221.667 293.078 221.843 292.733 221.983C292.388 222.123 291.975 222.193 291.494 222.193ZM291.864 220.83C292.333 220.83 292.735 220.737 293.068 220.551C293.405 220.366 293.661 220.123 293.835 219.824C294.013 219.521 294.102 219.197 294.102 218.852V217.727C294.042 217.788 293.924 217.845 293.75 217.898C293.58 217.947 293.384 217.991 293.165 218.028C292.945 218.062 292.731 218.095 292.523 218.125C292.314 218.152 292.14 218.174 292 218.193C291.67 218.235 291.369 218.305 291.097 218.403C290.828 218.502 290.612 218.644 290.449 218.83C290.29 219.011 290.21 219.254 290.21 219.557C290.21 219.977 290.366 220.295 290.676 220.511C290.987 220.723 291.383 220.83 291.864 220.83Z" fill="#F1F1F1"/>
</g>
<rect x="41.5" y="195.5" width="283" height="41" rx="2.5" stroke="#334A5F" stroke-width="3" shape-rendering="crispEdges"/>
</g>
<g filter="url(#filter1_dd_277_18143)">
<rect x="40" y="271" width="234" height="44" rx="4" fill="url(#paint0_linear_277_18143)"/>
<rect x="40.75" y="271.75" width="232.5" height="42.5" rx="3.25" stroke="url(#paint1_linear_277_18143)" stroke-width="1.5"/>
<g clip-path="url(#clip6_277_18143)">
<path d="M135.7 287.25C139.224 287.25 141.25 289.943 141.25 294C141.25 298.83 137.332 302.748 132.5 302.748C127.669 302.748 123.752 298.832 123.75 294C123.75 290.033 125.686 287.37 129.067 287.254L129.3 287.25L129.367 287.253C130.256 287.333 131.14 287.462 132.015 287.639L132.498 287.744L132.876 287.662C133.605 287.51 134.346 287.392 135.117 287.307L135.7 287.25ZM135.767 288.747C134.724 288.84 133.689 289.006 132.67 289.243C132.558 289.268 132.442 289.268 132.33 289.243C131.515 289.053 130.689 288.909 129.858 288.812L129.261 288.75L129.087 288.754C126.702 288.856 125.33 290.677 125.253 293.728L125.25 294C125.251 298.003 128.497 301.248 132.5 301.248C136.424 301.248 139.62 298.13 139.746 294.237L139.75 293.998L139.747 293.728C139.668 290.588 138.218 288.75 135.767 288.747Z" fill="#F1F1F1"/>
<path d="M137.749 282.25H135.905C133.747 282.251 131.998 284.001 131.999 286.158V288C131.999 288.414 132.335 288.75 132.749 288.75H134.591C136.749 288.749 138.498 287 138.499 284.842V283C138.499 282.586 138.163 282.25 137.749 282.25ZM136.998 283.749L136.999 284.842L136.994 285C136.912 286.256 135.867 287.25 134.591 287.25H133.498L133.499 286.158C133.499 284.828 134.576 283.75 135.905 283.75L136.998 283.749Z" fill="#F1F1F1"/>
<path d="M130.249 284.25C131.982 284.25 133.398 285.606 133.494 287.316L133.499 287.5V288C133.499 288.414 133.163 288.75 132.749 288.75C132.369 288.75 132.056 288.468 132.006 288.102L131.999 288V287.5C131.999 286.582 131.292 285.829 130.393 285.756L130.249 285.75H129.749C129.335 285.75 128.999 285.414 128.999 285C128.999 284.62 129.281 284.307 129.647 284.257L129.749 284.25H130.249Z" fill="#F1F1F1"/>
</g>
<path d="M150.761 298.5H148.898L153.085 286.864H155.114L159.301 298.5H157.438L154.148 288.977H154.057L150.761 298.5ZM151.074 293.943H157.119V295.42H151.074V293.943ZM160.845 301.773V289.773H162.504V291.188H162.646C162.745 291.006 162.887 290.795 163.072 290.557C163.258 290.318 163.516 290.11 163.845 289.932C164.175 289.75 164.61 289.659 165.152 289.659C165.857 289.659 166.485 289.837 167.038 290.193C167.591 290.549 168.025 291.062 168.339 291.733C168.658 292.403 168.817 293.21 168.817 294.153C168.817 295.097 168.66 295.905 168.345 296.58C168.031 297.25 167.599 297.767 167.05 298.131C166.5 298.491 165.874 298.67 165.169 298.67C164.639 298.67 164.205 298.581 163.868 298.403C163.535 298.225 163.273 298.017 163.084 297.778C162.894 297.54 162.749 297.328 162.646 297.142H162.544V301.773H160.845ZM162.51 294.136C162.51 294.75 162.599 295.288 162.777 295.75C162.955 296.212 163.213 296.574 163.55 296.835C163.887 297.093 164.3 297.222 164.788 297.222C165.296 297.222 165.72 297.087 166.061 296.818C166.402 296.545 166.66 296.176 166.834 295.71C167.012 295.244 167.101 294.72 167.101 294.136C167.101 293.561 167.014 293.044 166.839 292.585C166.669 292.127 166.411 291.765 166.067 291.5C165.726 291.235 165.3 291.102 164.788 291.102C164.296 291.102 163.879 291.229 163.538 291.483C163.201 291.737 162.946 292.091 162.771 292.545C162.597 293 162.51 293.53 162.51 294.136ZM170.72 301.773V289.773H172.379V291.188H172.521C172.62 291.006 172.762 290.795 172.947 290.557C173.133 290.318 173.391 290.11 173.72 289.932C174.05 289.75 174.485 289.659 175.027 289.659C175.732 289.659 176.36 289.837 176.913 290.193C177.466 290.549 177.9 291.062 178.214 291.733C178.533 292.403 178.692 293.21 178.692 294.153C178.692 295.097 178.535 295.905 178.22 296.58C177.906 297.25 177.474 297.767 176.925 298.131C176.375 298.491 175.749 298.67 175.044 298.67C174.514 298.67 174.08 298.581 173.743 298.403C173.41 298.225 173.148 298.017 172.959 297.778C172.769 297.54 172.624 297.328 172.521 297.142H172.419V301.773H170.72ZM172.385 294.136C172.385 294.75 172.474 295.288 172.652 295.75C172.83 296.212 173.088 296.574 173.425 296.835C173.762 297.093 174.175 297.222 174.663 297.222C175.171 297.222 175.595 297.087 175.936 296.818C176.277 296.545 176.535 296.176 176.709 295.71C176.887 295.244 176.976 294.72 176.976 294.136C176.976 293.561 176.889 293.044 176.714 292.585C176.544 292.127 176.286 291.765 175.942 291.5C175.601 291.235 175.175 291.102 174.663 291.102C174.171 291.102 173.754 291.229 173.413 291.483C173.076 291.737 172.821 292.091 172.646 292.545C172.472 293 172.385 293.53 172.385 294.136ZM182.294 286.864V298.5H180.595V286.864H182.294ZM188.341 298.676C187.481 298.676 186.741 298.492 186.119 298.125C185.502 297.754 185.025 297.233 184.688 296.562C184.354 295.888 184.188 295.098 184.188 294.193C184.188 293.299 184.354 292.511 184.688 291.83C185.025 291.148 185.494 290.616 186.097 290.233C186.703 289.85 187.411 289.659 188.222 289.659C188.714 289.659 189.191 289.741 189.653 289.903C190.116 290.066 190.53 290.322 190.898 290.67C191.265 291.019 191.555 291.472 191.767 292.028C191.979 292.581 192.085 293.254 192.085 294.045V294.648H185.148V293.375H190.42C190.42 292.928 190.33 292.532 190.148 292.188C189.966 291.839 189.71 291.564 189.381 291.364C189.055 291.163 188.672 291.062 188.233 291.062C187.756 291.062 187.339 291.18 186.983 291.415C186.631 291.646 186.358 291.949 186.165 292.324C185.975 292.695 185.881 293.098 185.881 293.534V294.528C185.881 295.112 185.983 295.608 186.188 296.017C186.396 296.426 186.686 296.739 187.057 296.955C187.428 297.167 187.862 297.273 188.358 297.273C188.68 297.273 188.973 297.227 189.239 297.136C189.504 297.042 189.733 296.902 189.926 296.716C190.119 296.53 190.267 296.301 190.369 296.028L191.977 296.318C191.848 296.792 191.617 297.206 191.284 297.562C190.955 297.915 190.54 298.189 190.04 298.386C189.544 298.58 188.977 298.676 188.341 298.676Z" fill="#F1F1F1"/>
</g>
<g filter="url(#filter2_dd_277_18143)">
<rect x="282" y="271" width="44" height="44" rx="4" fill="url(#paint2_linear_277_18143)"/>
<rect x="282.75" y="271.75" width="42.5" height="42.5" rx="3.25" stroke="url(#paint3_linear_277_18143)" stroke-width="1.5"/>
<g clip-path="url(#clip7_277_18143)">
<path d="M307.2 287.25C310.724 287.25 312.75 289.943 312.75 294C312.75 298.83 308.832 302.748 304 302.748C299.169 302.748 295.252 298.832 295.25 294C295.25 290.033 297.186 287.37 300.567 287.254L300.8 287.25L300.867 287.253C301.756 287.333 302.64 287.462 303.515 287.639L303.998 287.744L304.376 287.662C305.105 287.51 305.846 287.392 306.617 287.307L307.2 287.25ZM307.267 288.747C306.224 288.84 305.189 289.006 304.17 289.243C304.058 289.268 303.942 289.268 303.83 289.243C303.015 289.053 302.189 288.909 301.358 288.812L300.761 288.75L300.587 288.754C298.202 288.856 296.83 290.677 296.753 293.728L296.75 294C296.751 298.003 299.997 301.248 304 301.248C307.924 301.248 311.12 298.13 311.246 294.237L311.25 293.998L311.247 293.728C311.168 290.588 309.718 288.75 307.267 288.747Z" fill="#F1F1F1"/>
<path d="M309.249 282.25H307.405C305.247 282.251 303.498 284.001 303.499 286.158V288C303.499 288.414 303.835 288.75 304.249 288.75H306.091C308.249 288.749 309.998 287 309.999 284.842V283C309.999 282.586 309.663 282.25 309.249 282.25ZM308.498 283.749L308.499 284.842L308.494 285C308.412 286.256 307.367 287.25 306.091 287.25H304.998L304.999 286.158C304.999 284.828 306.076 283.75 307.405 283.75L308.498 283.749Z" fill="#F1F1F1"/>
<path d="M301.749 284.25C303.482 284.25 304.898 285.606 304.994 287.316L304.999 287.5V288C304.999 288.414 304.663 288.75 304.249 288.75C303.869 288.75 303.556 288.468 303.506 288.102L303.499 288V287.5C303.499 286.582 302.792 285.829 301.893 285.756L301.749 285.75H301.249C300.835 285.75 300.499 285.414 300.499 285C300.499 284.62 300.781 284.307 301.147 284.257L301.249 284.25H301.749Z" fill="#F1F1F1"/>
</g>
</g>
<rect x="40" y="348" width="234" height="44" rx="4" fill="#334A5F"/>
<g clip-path="url(#clip8_277_18143)">
<path d="M135.7 364.25C139.224 364.25 141.25 366.943 141.25 371C141.25 375.83 137.332 379.748 132.5 379.748C127.669 379.748 123.752 375.832 123.75 371C123.75 367.033 125.686 364.37 129.067 364.254L129.3 364.25L129.367 364.253C130.256 364.333 131.14 364.462 132.015 364.639L132.498 364.744L132.876 364.662C133.605 364.51 134.346 364.392 135.117 364.307L135.7 364.25ZM135.767 365.747C134.724 365.84 133.689 366.006 132.67 366.243C132.558 366.268 132.442 366.268 132.33 366.243C131.515 366.053 130.689 365.909 129.858 365.812L129.261 365.75L129.087 365.754C126.702 365.856 125.33 367.677 125.253 370.728L125.25 371C125.251 375.003 128.497 378.248 132.5 378.248C136.424 378.248 139.62 375.13 139.746 371.237L139.75 370.998L139.747 370.728C139.668 367.588 138.218 365.75 135.767 365.747Z" fill="#F1F1F1"/>
<path d="M137.749 359.25H135.905C133.747 359.251 131.998 361.001 131.999 363.158V365C131.999 365.414 132.335 365.75 132.749 365.75H134.591C136.749 365.749 138.498 364 138.499 361.842V360C138.499 359.586 138.163 359.25 137.749 359.25ZM136.998 360.749L136.999 361.842L136.994 362C136.912 363.256 135.867 364.25 134.591 364.25H133.498L133.499 363.158C133.499 361.828 134.576 360.75 135.905 360.75L136.998 360.749Z" fill="#F1F1F1"/>
<path d="M130.249 361.25C131.982 361.25 133.398 362.606 133.494 364.316L133.499 364.5V365C133.499 365.414 133.163 365.75 132.749 365.75C132.369 365.75 132.056 365.468 132.006 365.102L131.999 365V364.5C131.999 363.582 131.292 362.829 130.393 362.756L130.249 362.75H129.749C129.335 362.75 128.999 362.414 128.999 362C128.999 361.62 129.281 361.307 129.647 361.257L129.749 361.25H130.249Z" fill="#F1F1F1"/>
</g>
<path d="M150.761 375.5H148.898L153.085 363.864H155.114L159.301 375.5H157.438L154.148 365.977H154.057L150.761 375.5ZM151.074 370.943H157.119V372.42H151.074V370.943ZM160.845 378.773V366.773H162.504V368.188H162.646C162.745 368.006 162.887 367.795 163.072 367.557C163.258 367.318 163.516 367.11 163.845 366.932C164.175 366.75 164.61 366.659 165.152 366.659C165.857 366.659 166.485 366.837 167.038 367.193C167.591 367.549 168.025 368.062 168.339 368.733C168.658 369.403 168.817 370.21 168.817 371.153C168.817 372.097 168.66 372.905 168.345 373.58C168.031 374.25 167.599 374.767 167.05 375.131C166.5 375.491 165.874 375.67 165.169 375.67C164.639 375.67 164.205 375.581 163.868 375.403C163.535 375.225 163.273 375.017 163.084 374.778C162.894 374.54 162.749 374.328 162.646 374.142H162.544V378.773H160.845ZM162.51 371.136C162.51 371.75 162.599 372.288 162.777 372.75C162.955 373.212 163.213 373.574 163.55 373.835C163.887 374.093 164.3 374.222 164.788 374.222C165.296 374.222 165.72 374.087 166.061 373.818C166.402 373.545 166.66 373.176 166.834 372.71C167.012 372.244 167.101 371.72 167.101 371.136C167.101 370.561 167.014 370.044 166.839 369.585C166.669 369.127 166.411 368.765 166.067 368.5C165.726 368.235 165.3 368.102 164.788 368.102C164.296 368.102 163.879 368.229 163.538 368.483C163.201 368.737 162.946 369.091 162.771 369.545C162.597 370 162.51 370.53 162.51 371.136ZM170.72 378.773V366.773H172.379V368.188H172.521C172.62 368.006 172.762 367.795 172.947 367.557C173.133 367.318 173.391 367.11 173.72 366.932C174.05 366.75 174.485 366.659 175.027 366.659C175.732 366.659 176.36 366.837 176.913 367.193C177.466 367.549 177.9 368.062 178.214 368.733C178.533 369.403 178.692 370.21 178.692 371.153C178.692 372.097 178.535 372.905 178.22 373.58C177.906 374.25 177.474 374.767 176.925 375.131C176.375 375.491 175.749 375.67 175.044 375.67C174.514 375.67 174.08 375.581 173.743 375.403C173.41 375.225 173.148 375.017 172.959 374.778C172.769 374.54 172.624 374.328 172.521 374.142H172.419V378.773H170.72ZM172.385 371.136C172.385 371.75 172.474 372.288 172.652 372.75C172.83 373.212 173.088 373.574 173.425 373.835C173.762 374.093 174.175 374.222 174.663 374.222C175.171 374.222 175.595 374.087 175.936 373.818C176.277 373.545 176.535 373.176 176.709 372.71C176.887 372.244 176.976 371.72 176.976 371.136C176.976 370.561 176.889 370.044 176.714 369.585C176.544 369.127 176.286 368.765 175.942 368.5C175.601 368.235 175.175 368.102 174.663 368.102C174.171 368.102 173.754 368.229 173.413 368.483C173.076 368.737 172.821 369.091 172.646 369.545C172.472 370 172.385 370.53 172.385 371.136ZM182.294 363.864V375.5H180.595V363.864H182.294ZM188.341 375.676C187.481 375.676 186.741 375.492 186.119 375.125C185.502 374.754 185.025 374.233 184.688 373.562C184.354 372.888 184.188 372.098 184.188 371.193C184.188 370.299 184.354 369.511 184.688 368.83C185.025 368.148 185.494 367.616 186.097 367.233C186.703 366.85 187.411 366.659 188.222 366.659C188.714 366.659 189.191 366.741 189.653 366.903C190.116 367.066 190.53 367.322 190.898 367.67C191.265 368.019 191.555 368.472 191.767 369.028C191.979 369.581 192.085 370.254 192.085 371.045V371.648H185.148V370.375H190.42C190.42 369.928 190.33 369.532 190.148 369.188C189.966 368.839 189.71 368.564 189.381 368.364C189.055 368.163 188.672 368.062 188.233 368.062C187.756 368.062 187.339 368.18 186.983 368.415C186.631 368.646 186.358 368.949 186.165 369.324C185.975 369.695 185.881 370.098 185.881 370.534V371.528C185.881 372.112 185.983 372.608 186.188 373.017C186.396 373.426 186.686 373.739 187.057 373.955C187.428 374.167 187.862 374.273 188.358 374.273C188.68 374.273 188.973 374.227 189.239 374.136C189.504 374.042 189.733 373.902 189.926 373.716C190.119 373.53 190.267 373.301 190.369 373.028L191.977 373.318C191.848 373.792 191.617 374.206 191.284 374.562C190.955 374.915 190.54 375.189 190.04 375.386C189.544 375.58 188.977 375.676 188.341 375.676Z" fill="#F1F1F1"/>
<rect x="282" y="348" width="44" height="44" rx="4" fill="#334A5F"/>
<g clip-path="url(#clip9_277_18143)">
<path d="M307.2 364.25C310.724 364.25 312.75 366.943 312.75 371C312.75 375.83 308.832 379.748 304 379.748C299.169 379.748 295.252 375.832 295.25 371C295.25 367.033 297.186 364.37 300.567 364.254L300.8 364.25L300.867 364.253C301.756 364.333 302.64 364.462 303.515 364.639L303.998 364.744L304.376 364.662C305.105 364.51 305.846 364.392 306.617 364.307L307.2 364.25ZM307.267 365.747C306.224 365.84 305.189 366.006 304.17 366.243C304.058 366.268 303.942 366.268 303.83 366.243C303.015 366.053 302.189 365.909 301.358 365.812L300.761 365.75L300.587 365.754C298.202 365.856 296.83 367.677 296.753 370.728L296.75 371C296.751 375.003 299.997 378.248 304 378.248C307.924 378.248 311.12 375.13 311.246 371.237L311.25 370.998L311.247 370.728C311.168 367.588 309.718 365.75 307.267 365.747Z" fill="#F1F1F1"/>
<path d="M309.249 359.25H307.405C305.247 359.251 303.498 361.001 303.499 363.158V365C303.499 365.414 303.835 365.75 304.249 365.75H306.091C308.249 365.749 309.998 364 309.999 361.842V360C309.999 359.586 309.663 359.25 309.249 359.25ZM308.498 360.749L308.499 361.842L308.494 362C308.412 363.256 307.367 364.25 306.091 364.25H304.998L304.999 363.158C304.999 361.828 306.076 360.75 307.405 360.75L308.498 360.749Z" fill="#F1F1F1"/>
<path d="M301.749 361.25C303.482 361.25 304.898 362.606 304.994 364.316L304.999 364.5V365C304.999 365.414 304.663 365.75 304.249 365.75C303.869 365.75 303.556 365.468 303.506 365.102L303.499 365V364.5C303.499 363.582 302.792 362.829 301.893 362.756L301.749 362.75H301.249C300.835 362.75 300.499 362.414 300.499 362C300.499 361.62 300.781 361.307 301.147 361.257L301.249 361.25H301.749Z" fill="#F1F1F1"/>
</g>
<rect x="40.5" y="425.5" width="233" height="43" rx="3.5" stroke="#334A5F"/>
<g clip-path="url(#clip10_277_18143)">
<path d="M135.7 441.25C139.224 441.25 141.25 443.943 141.25 448C141.25 452.83 137.332 456.748 132.5 456.748C127.669 456.748 123.752 452.832 123.75 448C123.75 444.033 125.686 441.37 129.067 441.254L129.3 441.25L129.367 441.253C130.256 441.333 131.14 441.462 132.015 441.639L132.498 441.744L132.876 441.662C133.605 441.51 134.346 441.392 135.117 441.307L135.7 441.25ZM135.767 442.747C134.724 442.84 133.689 443.006 132.67 443.243C132.558 443.268 132.442 443.268 132.33 443.243C131.515 443.053 130.689 442.909 129.858 442.812L129.261 442.75L129.087 442.754C126.702 442.856 125.33 444.677 125.253 447.728L125.25 448C125.251 452.003 128.497 455.248 132.5 455.248C136.424 455.248 139.62 452.13 139.746 448.237L139.75 447.998L139.747 447.728C139.668 444.588 138.218 442.75 135.767 442.747Z" fill="#F1F1F1"/>
<path d="M137.749 436.25H135.905C133.747 436.251 131.998 438.001 131.999 440.158V442C131.999 442.414 132.335 442.75 132.749 442.75H134.591C136.749 442.749 138.498 441 138.499 438.842V437C138.499 436.586 138.163 436.25 137.749 436.25ZM136.998 437.749L136.999 438.842L136.994 439C136.912 440.256 135.867 441.25 134.591 441.25H133.498L133.499 440.158C133.499 438.828 134.576 437.75 135.905 437.75L136.998 437.749Z" fill="#F1F1F1"/>
<path d="M130.249 438.25C131.982 438.25 133.398 439.606 133.494 441.316L133.499 441.5V442C133.499 442.414 133.163 442.75 132.749 442.75C132.369 442.75 132.056 442.468 132.006 442.102L131.999 442V441.5C131.999 440.582 131.292 439.829 130.393 439.756L130.249 439.75H129.749C129.335 439.75 128.999 439.414 128.999 439C128.999 438.62 129.281 438.307 129.647 438.257L129.749 438.25H130.249Z" fill="#F1F1F1"/>
</g>
<path d="M150.761 452.5H148.898L153.085 440.864H155.114L159.301 452.5H157.438L154.148 442.977H154.057L150.761 452.5ZM151.074 447.943H157.119V449.42H151.074V447.943ZM160.845 455.773V443.773H162.504V445.188H162.646C162.745 445.006 162.887 444.795 163.072 444.557C163.258 444.318 163.516 444.11 163.845 443.932C164.175 443.75 164.61 443.659 165.152 443.659C165.857 443.659 166.485 443.837 167.038 444.193C167.591 444.549 168.025 445.062 168.339 445.733C168.658 446.403 168.817 447.21 168.817 448.153C168.817 449.097 168.66 449.905 168.345 450.58C168.031 451.25 167.599 451.767 167.05 452.131C166.5 452.491 165.874 452.67 165.169 452.67C164.639 452.67 164.205 452.581 163.868 452.403C163.535 452.225 163.273 452.017 163.084 451.778C162.894 451.54 162.749 451.328 162.646 451.142H162.544V455.773H160.845ZM162.51 448.136C162.51 448.75 162.599 449.288 162.777 449.75C162.955 450.212 163.213 450.574 163.55 450.835C163.887 451.093 164.3 451.222 164.788 451.222C165.296 451.222 165.72 451.087 166.061 450.818C166.402 450.545 166.66 450.176 166.834 449.71C167.012 449.244 167.101 448.72 167.101 448.136C167.101 447.561 167.014 447.044 166.839 446.585C166.669 446.127 166.411 445.765 166.067 445.5C165.726 445.235 165.3 445.102 164.788 445.102C164.296 445.102 163.879 445.229 163.538 445.483C163.201 445.737 162.946 446.091 162.771 446.545C162.597 447 162.51 447.53 162.51 448.136ZM170.72 455.773V443.773H172.379V445.188H172.521C172.62 445.006 172.762 444.795 172.947 444.557C173.133 444.318 173.391 444.11 173.72 443.932C174.05 443.75 174.485 443.659 175.027 443.659C175.732 443.659 176.36 443.837 176.913 444.193C177.466 444.549 177.9 445.062 178.214 445.733C178.533 446.403 178.692 447.21 178.692 448.153C178.692 449.097 178.535 449.905 178.22 450.58C177.906 451.25 177.474 451.767 176.925 452.131C176.375 452.491 175.749 452.67 175.044 452.67C174.514 452.67 174.08 452.581 173.743 452.403C173.41 452.225 173.148 452.017 172.959 451.778C172.769 451.54 172.624 451.328 172.521 451.142H172.419V455.773H170.72ZM172.385 448.136C172.385 448.75 172.474 449.288 172.652 449.75C172.83 450.212 173.088 450.574 173.425 450.835C173.762 451.093 174.175 451.222 174.663 451.222C175.171 451.222 175.595 451.087 175.936 450.818C176.277 450.545 176.535 450.176 176.709 449.71C176.887 449.244 176.976 448.72 176.976 448.136C176.976 447.561 176.889 447.044 176.714 446.585C176.544 446.127 176.286 445.765 175.942 445.5C175.601 445.235 175.175 445.102 174.663 445.102C174.171 445.102 173.754 445.229 173.413 445.483C173.076 445.737 172.821 446.091 172.646 446.545C172.472 447 172.385 447.53 172.385 448.136ZM182.294 440.864V452.5H180.595V440.864H182.294ZM188.341 452.676C187.481 452.676 186.741 452.492 186.119 452.125C185.502 451.754 185.025 451.233 184.688 450.562C184.354 449.888 184.188 449.098 184.188 448.193C184.188 447.299 184.354 446.511 184.688 445.83C185.025 445.148 185.494 444.616 186.097 444.233C186.703 443.85 187.411 443.659 188.222 443.659C188.714 443.659 189.191 443.741 189.653 443.903C190.116 444.066 190.53 444.322 190.898 444.67C191.265 445.019 191.555 445.472 191.767 446.028C191.979 446.581 192.085 447.254 192.085 448.045V448.648H185.148V447.375H190.42C190.42 446.928 190.33 446.532 190.148 446.188C189.966 445.839 189.71 445.564 189.381 445.364C189.055 445.163 188.672 445.062 188.233 445.062C187.756 445.062 187.339 445.18 186.983 445.415C186.631 445.646 186.358 445.949 186.165 446.324C185.975 446.695 185.881 447.098 185.881 447.534V448.528C185.881 449.112 185.983 449.608 186.188 450.017C186.396 450.426 186.686 450.739 187.057 450.955C187.428 451.167 187.862 451.273 188.358 451.273C188.68 451.273 188.973 451.227 189.239 451.136C189.504 451.042 189.733 450.902 189.926 450.716C190.119 450.53 190.267 450.301 190.369 450.028L191.977 450.318C191.848 450.792 191.617 451.206 191.284 451.562C190.955 451.915 190.54 452.189 190.04 452.386C189.544 452.58 188.977 452.676 188.341 452.676Z" fill="#F1F1F1"/>
<rect x="282.5" y="425.5" width="43" height="43" rx="3.5" stroke="#334A5F"/>
<g clip-path="url(#clip11_277_18143)">
<path d="M307.2 441.25C310.724 441.25 312.75 443.943 312.75 448C312.75 452.83 308.832 456.748 304 456.748C299.169 456.748 295.252 452.832 295.25 448C295.25 444.033 297.186 441.37 300.567 441.254L300.8 441.25L300.867 441.253C301.756 441.333 302.64 441.462 303.515 441.639L303.998 441.744L304.376 441.662C305.105 441.51 305.846 441.392 306.617 441.307L307.2 441.25ZM307.267 442.747C306.224 442.84 305.189 443.006 304.17 443.243C304.058 443.268 303.942 443.268 303.83 443.243C303.015 443.053 302.189 442.909 301.358 442.812L300.761 442.75L300.587 442.754C298.202 442.856 296.83 444.677 296.753 447.728L296.75 448C296.751 452.003 299.997 455.248 304 455.248C307.924 455.248 311.12 452.13 311.246 448.237L311.25 447.998L311.247 447.728C311.168 444.588 309.718 442.75 307.267 442.747Z" fill="#F1F1F1"/>
<path d="M309.249 436.25H307.405C305.247 436.251 303.498 438.001 303.499 440.158V442C303.499 442.414 303.835 442.75 304.249 442.75H306.091C308.249 442.749 309.998 441 309.999 438.842V437C309.999 436.586 309.663 436.25 309.249 436.25ZM308.498 437.749L308.499 438.842L308.494 439C308.412 440.256 307.367 441.25 306.091 441.25H304.998L304.999 440.158C304.999 438.828 306.076 437.75 307.405 437.75L308.498 437.749Z" fill="#F1F1F1"/>
<path d="M301.749 438.25C303.482 438.25 304.898 439.606 304.994 441.316L304.999 441.5V442C304.999 442.414 304.663 442.75 304.249 442.75C303.869 442.75 303.556 442.468 303.506 442.102L303.499 442V441.5C303.499 440.582 302.792 439.829 301.893 439.756L301.749 439.75H301.249C300.835 439.75 300.499 439.414 300.499 439C300.499 438.62 300.781 438.307 301.147 438.257L301.249 438.25H301.749Z" fill="#F1F1F1"/>
</g>
<defs>
<filter id="filter0_d_277_18143" x="38" y="193" width="290" height="48" filterUnits="userSpaceOnUse" color-interpolation-filters="sRGB">
<feFlood flood-opacity="0" result="BackgroundImageFix"/>
<feColorMatrix in="SourceAlpha" type="matrix" values="0 0 0 0 0 0 0 0 0 0 0 0 0 0 0 0 0 0 127 0" result="hardAlpha"/>
<feOffset dy="1"/>
<feGaussianBlur stdDeviation="1"/>
<feComposite in2="hardAlpha" operator="out"/>
<feColorMatrix type="matrix" values="0 0 0 0 0.0627451 0 0 0 0 0.0941176 0 0 0 0 0.156863 0 0 0 0.05 0"/>
<feBlend mode="normal" in2="BackgroundImageFix" result="effect1_dropShadow_277_18143"/>
<feBlend mode="normal" in="SourceGraphic" in2="effect1_dropShadow_277_18143" result="shape"/>
</filter>
<filter id="filter1_dd_277_18143" x="36" y="270" width="242" height="53" filterUnits="userSpaceOnUse" color-interpolation-filters="sRGB">
<feFlood flood-opacity="0" result="BackgroundImageFix"/>
<feColorMatrix in="SourceAlpha" type="matrix" values="0 0 0 0 0 0 0 0 0 0 0 0 0 0 0 0 0 0 127 0" result="hardAlpha"/>
<feOffset dy="4"/>
<feGaussianBlur stdDeviation="2"/>
<feComposite in2="hardAlpha" operator="out"/>
<feColorMatrix type="matrix" values="0 0 0 0 0 0 0 0 0 0.0392157 0 0 0 0 0.121569 0 0 0 0.2 0"/>
<feBlend mode="normal" in2="BackgroundImageFix" result="effect1_dropShadow_277_18143"/>
<feColorMatrix in="SourceAlpha" type="matrix" values="0 0 0 0 0 0 0 0 0 0 0 0 0 0 0 0 0 0 127 0" result="hardAlpha"/>
<feMorphology radius="1" operator="dilate" in="SourceAlpha" result="effect2_dropShadow_277_18143"/>
<feOffset/>
<feComposite in2="hardAlpha" operator="out"/>
<feColorMatrix type="matrix" values="0 0 0 0 0.0544985 0 0 0 0 0.263179 0 0 0 0 0.393604 0 0 0 1 0"/>
<feBlend mode="normal" in2="effect1_dropShadow_277_18143" result="effect2_dropShadow_277_18143"/>
<feBlend mode="normal" in="SourceGraphic" in2="effect2_dropShadow_277_18143" result="shape"/>
</filter>
<filter id="filter2_dd_277_18143" x="278" y="270" width="52" height="53" filterUnits="userSpaceOnUse" color-interpolation-filters="sRGB">
<feFlood flood-opacity="0" result="BackgroundImageFix"/>
<feColorMatrix in="SourceAlpha" type="matrix" values="0 0 0 0 0 0 0 0 0 0 0 0 0 0 0 0 0 0 127 0" result="hardAlpha"/>
<feOffset dy="4"/>
<feGaussianBlur stdDeviation="2"/>
<feComposite in2="hardAlpha" operator="out"/>
<feColorMatrix type="matrix" values="0 0 0 0 0 0 0 0 0 0.0392157 0 0 0 0 0.121569 0 0 0 0.2 0"/>
<feBlend mode="normal" in2="BackgroundImageFix" result="effect1_dropShadow_277_18143"/>
<feColorMatrix in="SourceAlpha" type="matrix" values="0 0 0 0 0 0 0 0 0 0 0 0 0 0 0 0 0 0 127 0" result="hardAlpha"/>
<feMorphology radius="1" operator="dilate" in="SourceAlpha" result="effect2_dropShadow_277_18143"/>
<feOffset/>
<feComposite in2="hardAlpha" operator="out"/>
<feColorMatrix type="matrix" values="0 0 0 0 0.0544985 0 0 0 0 0.263179 0 0 0 0 0.393604 0 0 0 1 0"/>
<feBlend mode="normal" in2="effect1_dropShadow_277_18143" result="effect2_dropShadow_277_18143"/>
<feBlend mode="normal" in="SourceGraphic" in2="effect2_dropShadow_277_18143" result="shape"/>
</filter>
<linearGradient id="paint0_linear_277_18143" x1="157" y1="271" x2="157" y2="315" gradientUnits="userSpaceOnUse">
<stop stop-color="#009DFF"/>
<stop offset="1" stop-color="#008AE0"/>
</linearGradient>
<linearGradient id="paint1_linear_277_18143" x1="156.743" y1="275.5" x2="157.715" y2="314.982" gradientUnits="userSpaceOnUse">
<stop stop-color="#7BC0EB"/>
<stop offset="1" stop-color="#2083C1"/>
</linearGradient>
<linearGradient id="paint2_linear_277_18143" x1="304" y1="271" x2="304" y2="315" gradientUnits="userSpaceOnUse">
<stop stop-color="#009DFF"/>
<stop offset="1" stop-color="#008AE0"/>
</linearGradient>
<linearGradient id="paint3_linear_277_18143" x1="303.952" y1="275.5" x2="309.036" y2="314.341" gradientUnits="userSpaceOnUse">
<stop stop-color="#7BC0EB"/>
<stop offset="1" stop-color="#2083C1"/>
</linearGradient>
<clipPath id="clip0_277_18143">
<rect width="24" height="24" fill="white" transform="translate(56 50)"/>
</clipPath>
<clipPath id="clip1_277_18143">
<rect width="24" height="24" fill="white" transform="translate(56 127)"/>
</clipPath>
<clipPath id="clip2_277_18143">
<rect width="24" height="24" fill="white" transform="translate(294 127)"/>
</clipPath>
<clipPath id="clip3_277_18143">
<rect x="40" y="194" width="286" height="44" rx="4" fill="white"/>
</clipPath>
<clipPath id="clip4_277_18143">
<rect width="24" height="24" fill="white" transform="translate(75 204)"/>
</clipPath>
<clipPath id="clip5_277_18143">
<rect width="24" height="24" fill="white" transform="translate(212 204)"/>
</clipPath>
<clipPath id="clip6_277_18143">
<rect width="24" height="24" fill="white" transform="translate(120.5 281)"/>
</clipPath>
<clipPath id="clip7_277_18143">
<rect width="24" height="24" fill="white" transform="translate(292 281)"/>
</clipPath>
<clipPath id="clip8_277_18143">
<rect width="24" height="24" fill="white" transform="translate(120.5 358)"/>
</clipPath>
<clipPath id="clip9_277_18143">
<rect width="24" height="24" fill="white" transform="translate(292 358)"/>
</clipPath>
<clipPath id="clip10_277_18143">
<rect width="24" height="24" fill="white" transform="translate(120.5 435)"/>
</clipPath>
<clipPath id="clip11_277_18143">
<rect width="24" height="24" fill="white" transform="translate(292 435)"/>
</clipPath>
</defs>
</svg>
