<svg width="314" height="148" viewBox="0 0 314 148" fill="none" xmlns="http://www.w3.org/2000/svg">
<rect x="0.5" y="0.5" width="313" height="147" rx="4.5" stroke="#9747FF" stroke-dasharray="10 5"/>
<path d="M35.2784 48V36.3636H39.5398C40.3655 36.3636 41.0492 36.5 41.5909 36.7727C42.1326 37.0417 42.5379 37.4072 42.8068 37.8693C43.0758 38.3277 43.2102 38.8447 43.2102 39.4205C43.2102 39.9053 43.1212 40.3144 42.9432 40.6477C42.7652 40.9773 42.5265 41.2424 42.2273 41.4432C41.9318 41.6402 41.6061 41.7841 41.25 41.875V41.9886C41.6364 42.0076 42.0133 42.1326 42.3807 42.3636C42.7519 42.5909 43.0587 42.9148 43.3011 43.3352C43.5436 43.7557 43.6648 44.267 43.6648 44.8693C43.6648 45.464 43.5246 45.9981 43.2443 46.4716C42.9678 46.9413 42.5398 47.3144 41.9602 47.5909C41.3807 47.8636 40.6402 48 39.7386 48H35.2784ZM37.0341 46.4943H39.5682C40.4091 46.4943 41.0114 46.3314 41.375 46.0057C41.7386 45.6799 41.9205 45.2727 41.9205 44.7841C41.9205 44.4167 41.8277 44.0795 41.642 43.7727C41.4564 43.4659 41.1913 43.2216 40.8466 43.0398C40.5057 42.858 40.1004 42.767 39.6307 42.767H37.0341V46.4943ZM37.0341 41.3977H39.3864C39.7803 41.3977 40.1345 41.322 40.4489 41.1705C40.767 41.0189 41.0189 40.8068 41.2045 40.5341C41.3939 40.2576 41.4886 39.9318 41.4886 39.5568C41.4886 39.0758 41.3201 38.6723 40.983 38.3466C40.6458 38.0208 40.1288 37.858 39.4318 37.858H37.0341V41.3977ZM48.1506 48.1932C47.5975 48.1932 47.0975 48.0909 46.6506 47.8864C46.2036 47.678 45.8494 47.3769 45.5881 46.983C45.3305 46.589 45.2017 46.1061 45.2017 45.5341C45.2017 45.0417 45.2964 44.6364 45.4858 44.3182C45.6752 44 45.9309 43.7481 46.2528 43.5625C46.5748 43.3769 46.9347 43.2367 47.3324 43.142C47.7301 43.0473 48.1354 42.9754 48.5483 42.9261C49.071 42.8655 49.4953 42.8163 49.821 42.7784C50.1468 42.7367 50.3835 42.6705 50.5312 42.5795C50.679 42.4886 50.7528 42.3409 50.7528 42.1364V42.0966C50.7528 41.6004 50.6127 41.2159 50.3324 40.9432C50.0559 40.6705 49.643 40.5341 49.0938 40.5341C48.5218 40.5341 48.071 40.661 47.7415 40.9148C47.4157 41.1648 47.1903 41.4432 47.0653 41.75L45.4688 41.3864C45.6581 40.8561 45.9347 40.428 46.2983 40.1023C46.6657 39.7727 47.0881 39.5341 47.5653 39.3864C48.0426 39.2348 48.5445 39.1591 49.071 39.1591C49.4195 39.1591 49.7888 39.2008 50.179 39.2841C50.5729 39.3636 50.9403 39.5114 51.2812 39.7273C51.6259 39.9432 51.9081 40.2519 52.1278 40.6534C52.3475 41.0511 52.4574 41.5682 52.4574 42.2045V48H50.7983V46.8068H50.7301C50.6203 47.0265 50.4555 47.2424 50.2358 47.4545C50.0161 47.6667 49.7339 47.8428 49.3892 47.983C49.0445 48.1231 48.6316 48.1932 48.1506 48.1932ZM48.5199 46.8295C48.9896 46.8295 49.3911 46.7367 49.7244 46.5511C50.0616 46.3655 50.3172 46.1231 50.4915 45.8239C50.6695 45.5208 50.7585 45.197 50.7585 44.8523V43.7273C50.6979 43.7879 50.5805 43.8447 50.4062 43.8977C50.2358 43.947 50.0407 43.9905 49.821 44.0284C49.6013 44.0625 49.3873 44.0947 49.179 44.125C48.9706 44.1515 48.7964 44.1742 48.6562 44.1932C48.3267 44.2348 48.0256 44.3049 47.7528 44.4034C47.4839 44.5019 47.268 44.6439 47.1051 44.8295C46.946 45.0114 46.8665 45.2538 46.8665 45.5568C46.8665 45.9773 47.0218 46.2955 47.3324 46.5114C47.643 46.7235 48.0388 46.8295 48.5199 46.8295ZM56.419 42.8182V48H54.7202V39.2727H56.3509V40.6932H56.4588C56.6596 40.2311 56.974 39.8598 57.402 39.5795C57.8338 39.2992 58.3774 39.1591 59.0327 39.1591C59.6274 39.1591 60.1482 39.2841 60.5952 39.5341C61.0421 39.7803 61.3887 40.1477 61.6349 40.6364C61.8812 41.125 62.0043 41.7292 62.0043 42.4489V48H60.3054V42.6534C60.3054 42.0208 60.1406 41.5265 59.8111 41.1705C59.4815 40.8106 59.0289 40.6307 58.4531 40.6307C58.0592 40.6307 57.7088 40.7159 57.402 40.8864C57.099 41.0568 56.8584 41.3068 56.6804 41.6364C56.5062 41.9621 56.419 42.3561 56.419 42.8182ZM66.8224 48.1932C66.2694 48.1932 65.7694 48.0909 65.3224 47.8864C64.8755 47.678 64.5213 47.3769 64.2599 46.983C64.0024 46.589 63.8736 46.1061 63.8736 45.5341C63.8736 45.0417 63.9683 44.6364 64.1577 44.3182C64.3471 44 64.6027 43.7481 64.9247 43.5625C65.2467 43.3769 65.6065 43.2367 66.0043 43.142C66.402 43.0473 66.8073 42.9754 67.2202 42.9261C67.7429 42.8655 68.1671 42.8163 68.4929 42.7784C68.8187 42.7367 69.0554 42.6705 69.2031 42.5795C69.3509 42.4886 69.4247 42.3409 69.4247 42.1364V42.0966C69.4247 41.6004 69.2846 41.2159 69.0043 40.9432C68.7277 40.6705 68.3149 40.5341 67.7656 40.5341C67.1937 40.5341 66.7429 40.661 66.4134 40.9148C66.0876 41.1648 65.8622 41.4432 65.7372 41.75L64.1406 41.3864C64.33 40.8561 64.6065 40.428 64.9702 40.1023C65.3376 39.7727 65.7599 39.5341 66.2372 39.3864C66.7145 39.2348 67.2164 39.1591 67.7429 39.1591C68.0914 39.1591 68.4607 39.2008 68.8509 39.2841C69.2448 39.3636 69.6122 39.5114 69.9531 39.7273C70.2978 39.9432 70.58 40.2519 70.7997 40.6534C71.0194 41.0511 71.1293 41.5682 71.1293 42.2045V48H69.4702V46.8068H69.402C69.2921 47.0265 69.1274 47.2424 68.9077 47.4545C68.688 47.6667 68.4058 47.8428 68.0611 47.983C67.7164 48.1231 67.3035 48.1932 66.8224 48.1932ZM67.1918 46.8295C67.6615 46.8295 68.063 46.7367 68.3963 46.5511C68.7334 46.3655 68.9891 46.1231 69.1634 45.8239C69.3414 45.5208 69.4304 45.197 69.4304 44.8523V43.7273C69.3698 43.7879 69.2524 43.8447 69.0781 43.8977C68.9077 43.947 68.7126 43.9905 68.4929 44.0284C68.2732 44.0625 68.0592 44.0947 67.8509 44.125C67.6425 44.1515 67.4683 44.1742 67.3281 44.1932C66.9986 44.2348 66.6974 44.3049 66.4247 44.4034C66.1558 44.5019 65.9399 44.6439 65.777 44.8295C65.6179 45.0114 65.5384 45.2538 65.5384 45.5568C65.5384 45.9773 65.6937 46.2955 66.0043 46.5114C66.3149 46.7235 66.7107 46.8295 67.1918 46.8295ZM75.0909 42.8182V48H73.392V39.2727H75.0227V40.6932H75.1307C75.3314 40.2311 75.6458 39.8598 76.0739 39.5795C76.5057 39.2992 77.0492 39.1591 77.7045 39.1591C78.2992 39.1591 78.8201 39.2841 79.267 39.5341C79.714 39.7803 80.0606 40.1477 80.3068 40.6364C80.553 41.125 80.6761 41.7292 80.6761 42.4489V48H78.9773V42.6534C78.9773 42.0208 78.8125 41.5265 78.483 41.1705C78.1534 40.8106 77.7008 40.6307 77.125 40.6307C76.7311 40.6307 76.3807 40.7159 76.0739 40.8864C75.7708 41.0568 75.5303 41.3068 75.3523 41.6364C75.178 41.9621 75.0909 42.3561 75.0909 42.8182ZM85.4943 48.1932C84.9413 48.1932 84.4413 48.0909 83.9943 47.8864C83.5473 47.678 83.1932 47.3769 82.9318 46.983C82.6742 46.589 82.5455 46.1061 82.5455 45.5341C82.5455 45.0417 82.6402 44.6364 82.8295 44.3182C83.0189 44 83.2746 43.7481 83.5966 43.5625C83.9186 43.3769 84.2784 43.2367 84.6761 43.142C85.0739 43.0473 85.4792 42.9754 85.892 42.9261C86.4148 42.8655 86.839 42.8163 87.1648 42.7784C87.4905 42.7367 87.7273 42.6705 87.875 42.5795C88.0227 42.4886 88.0966 42.3409 88.0966 42.1364V42.0966C88.0966 41.6004 87.9564 41.2159 87.6761 40.9432C87.3996 40.6705 86.9867 40.5341 86.4375 40.5341C85.8655 40.5341 85.4148 40.661 85.0852 40.9148C84.7595 41.1648 84.5341 41.4432 84.4091 41.75L82.8125 41.3864C83.0019 40.8561 83.2784 40.428 83.642 40.1023C84.0095 39.7727 84.4318 39.5341 84.9091 39.3864C85.3864 39.2348 85.8883 39.1591 86.4148 39.1591C86.7633 39.1591 87.1326 39.2008 87.5227 39.2841C87.9167 39.3636 88.2841 39.5114 88.625 39.7273C88.9697 39.9432 89.2519 40.2519 89.4716 40.6534C89.6913 41.0511 89.8011 41.5682 89.8011 42.2045V48H88.142V46.8068H88.0739C87.964 47.0265 87.7992 47.2424 87.5795 47.4545C87.3598 47.6667 87.0777 47.8428 86.733 47.983C86.3883 48.1231 85.9754 48.1932 85.4943 48.1932ZM85.8636 46.8295C86.3333 46.8295 86.7348 46.7367 87.0682 46.5511C87.4053 46.3655 87.661 46.1231 87.8352 45.8239C88.0133 45.5208 88.1023 45.197 88.1023 44.8523V43.7273C88.0417 43.7879 87.9242 43.8447 87.75 43.8977C87.5795 43.947 87.3845 43.9905 87.1648 44.0284C86.9451 44.0625 86.7311 44.0947 86.5227 44.125C86.3144 44.1515 86.1402 44.1742 86 44.1932C85.6705 44.2348 85.3693 44.3049 85.0966 44.4034C84.8277 44.5019 84.6117 44.6439 84.4489 44.8295C84.2898 45.0114 84.2102 45.2538 84.2102 45.5568C84.2102 45.9773 84.3655 46.2955 84.6761 46.5114C84.9867 46.7235 85.3826 46.8295 85.8636 46.8295Z" fill="#F1F1F1"/>
<rect x="20" y="84" width="274" height="44" rx="4" fill="url(#paint0_linear_281_23579)"/>
<path d="M35.2784 112V100.364H39.5398C40.3655 100.364 41.0492 100.5 41.5909 100.773C42.1326 101.042 42.5379 101.407 42.8068 101.869C43.0758 102.328 43.2102 102.845 43.2102 103.42C43.2102 103.905 43.1212 104.314 42.9432 104.648C42.7652 104.977 42.5265 105.242 42.2273 105.443C41.9318 105.64 41.6061 105.784 41.25 105.875V105.989C41.6364 106.008 42.0133 106.133 42.3807 106.364C42.7519 106.591 43.0587 106.915 43.3011 107.335C43.5436 107.756 43.6648 108.267 43.6648 108.869C43.6648 109.464 43.5246 109.998 43.2443 110.472C42.9678 110.941 42.5398 111.314 41.9602 111.591C41.3807 111.864 40.6402 112 39.7386 112H35.2784ZM37.0341 110.494H39.5682C40.4091 110.494 41.0114 110.331 41.375 110.006C41.7386 109.68 41.9205 109.273 41.9205 108.784C41.9205 108.417 41.8277 108.08 41.642 107.773C41.4564 107.466 41.1913 107.222 40.8466 107.04C40.5057 106.858 40.1004 106.767 39.6307 106.767H37.0341V110.494ZM37.0341 105.398H39.3864C39.7803 105.398 40.1345 105.322 40.4489 105.17C40.767 105.019 41.0189 104.807 41.2045 104.534C41.3939 104.258 41.4886 103.932 41.4886 103.557C41.4886 103.076 41.3201 102.672 40.983 102.347C40.6458 102.021 40.1288 101.858 39.4318 101.858H37.0341V105.398ZM48.1506 112.193C47.5975 112.193 47.0975 112.091 46.6506 111.886C46.2036 111.678 45.8494 111.377 45.5881 110.983C45.3305 110.589 45.2017 110.106 45.2017 109.534C45.2017 109.042 45.2964 108.636 45.4858 108.318C45.6752 108 45.9309 107.748 46.2528 107.562C46.5748 107.377 46.9347 107.237 47.3324 107.142C47.7301 107.047 48.1354 106.975 48.5483 106.926C49.071 106.866 49.4953 106.816 49.821 106.778C50.1468 106.737 50.3835 106.67 50.5312 106.58C50.679 106.489 50.7528 106.341 50.7528 106.136V106.097C50.7528 105.6 50.6127 105.216 50.3324 104.943C50.0559 104.67 49.643 104.534 49.0938 104.534C48.5218 104.534 48.071 104.661 47.7415 104.915C47.4157 105.165 47.1903 105.443 47.0653 105.75L45.4688 105.386C45.6581 104.856 45.9347 104.428 46.2983 104.102C46.6657 103.773 47.0881 103.534 47.5653 103.386C48.0426 103.235 48.5445 103.159 49.071 103.159C49.4195 103.159 49.7888 103.201 50.179 103.284C50.5729 103.364 50.9403 103.511 51.2812 103.727C51.6259 103.943 51.9081 104.252 52.1278 104.653C52.3475 105.051 52.4574 105.568 52.4574 106.205V112H50.7983V110.807H50.7301C50.6203 111.027 50.4555 111.242 50.2358 111.455C50.0161 111.667 49.7339 111.843 49.3892 111.983C49.0445 112.123 48.6316 112.193 48.1506 112.193ZM48.5199 110.83C48.9896 110.83 49.3911 110.737 49.7244 110.551C50.0616 110.366 50.3172 110.123 50.4915 109.824C50.6695 109.521 50.7585 109.197 50.7585 108.852V107.727C50.6979 107.788 50.5805 107.845 50.4062 107.898C50.2358 107.947 50.0407 107.991 49.821 108.028C49.6013 108.062 49.3873 108.095 49.179 108.125C48.9706 108.152 48.7964 108.174 48.6562 108.193C48.3267 108.235 48.0256 108.305 47.7528 108.403C47.4839 108.502 47.268 108.644 47.1051 108.83C46.946 109.011 46.8665 109.254 46.8665 109.557C46.8665 109.977 47.0218 110.295 47.3324 110.511C47.643 110.723 48.0388 110.83 48.5199 110.83ZM56.419 106.818V112H54.7202V103.273H56.3509V104.693H56.4588C56.6596 104.231 56.974 103.86 57.402 103.58C57.8338 103.299 58.3774 103.159 59.0327 103.159C59.6274 103.159 60.1482 103.284 60.5952 103.534C61.0421 103.78 61.3887 104.148 61.6349 104.636C61.8812 105.125 62.0043 105.729 62.0043 106.449V112H60.3054V106.653C60.3054 106.021 60.1406 105.527 59.8111 105.17C59.4815 104.811 59.0289 104.631 58.4531 104.631C58.0592 104.631 57.7088 104.716 57.402 104.886C57.099 105.057 56.8584 105.307 56.6804 105.636C56.5062 105.962 56.419 106.356 56.419 106.818ZM66.8224 112.193C66.2694 112.193 65.7694 112.091 65.3224 111.886C64.8755 111.678 64.5213 111.377 64.2599 110.983C64.0024 110.589 63.8736 110.106 63.8736 109.534C63.8736 109.042 63.9683 108.636 64.1577 108.318C64.3471 108 64.6027 107.748 64.9247 107.562C65.2467 107.377 65.6065 107.237 66.0043 107.142C66.402 107.047 66.8073 106.975 67.2202 106.926C67.7429 106.866 68.1671 106.816 68.4929 106.778C68.8187 106.737 69.0554 106.67 69.2031 106.58C69.3509 106.489 69.4247 106.341 69.4247 106.136V106.097C69.4247 105.6 69.2846 105.216 69.0043 104.943C68.7277 104.67 68.3149 104.534 67.7656 104.534C67.1937 104.534 66.7429 104.661 66.4134 104.915C66.0876 105.165 65.8622 105.443 65.7372 105.75L64.1406 105.386C64.33 104.856 64.6065 104.428 64.9702 104.102C65.3376 103.773 65.7599 103.534 66.2372 103.386C66.7145 103.235 67.2164 103.159 67.7429 103.159C68.0914 103.159 68.4607 103.201 68.8509 103.284C69.2448 103.364 69.6122 103.511 69.9531 103.727C70.2978 103.943 70.58 104.252 70.7997 104.653C71.0194 105.051 71.1293 105.568 71.1293 106.205V112H69.4702V110.807H69.402C69.2921 111.027 69.1274 111.242 68.9077 111.455C68.688 111.667 68.4058 111.843 68.0611 111.983C67.7164 112.123 67.3035 112.193 66.8224 112.193ZM67.1918 110.83C67.6615 110.83 68.063 110.737 68.3963 110.551C68.7334 110.366 68.9891 110.123 69.1634 109.824C69.3414 109.521 69.4304 109.197 69.4304 108.852V107.727C69.3698 107.788 69.2524 107.845 69.0781 107.898C68.9077 107.947 68.7126 107.991 68.4929 108.028C68.2732 108.062 68.0592 108.095 67.8509 108.125C67.6425 108.152 67.4683 108.174 67.3281 108.193C66.9986 108.235 66.6974 108.305 66.4247 108.403C66.1558 108.502 65.9399 108.644 65.777 108.83C65.6179 109.011 65.5384 109.254 65.5384 109.557C65.5384 109.977 65.6937 110.295 66.0043 110.511C66.3149 110.723 66.7107 110.83 67.1918 110.83ZM75.0909 106.818V112H73.392V103.273H75.0227V104.693H75.1307C75.3314 104.231 75.6458 103.86 76.0739 103.58C76.5057 103.299 77.0492 103.159 77.7045 103.159C78.2992 103.159 78.8201 103.284 79.267 103.534C79.714 103.78 80.0606 104.148 80.3068 104.636C80.553 105.125 80.6761 105.729 80.6761 106.449V112H78.9773V106.653C78.9773 106.021 78.8125 105.527 78.483 105.17C78.1534 104.811 77.7008 104.631 77.125 104.631C76.7311 104.631 76.3807 104.716 76.0739 104.886C75.7708 105.057 75.5303 105.307 75.3523 105.636C75.178 105.962 75.0909 106.356 75.0909 106.818ZM85.4943 112.193C84.9413 112.193 84.4413 112.091 83.9943 111.886C83.5473 111.678 83.1932 111.377 82.9318 110.983C82.6742 110.589 82.5455 110.106 82.5455 109.534C82.5455 109.042 82.6402 108.636 82.8295 108.318C83.0189 108 83.2746 107.748 83.5966 107.562C83.9186 107.377 84.2784 107.237 84.6761 107.142C85.0739 107.047 85.4792 106.975 85.892 106.926C86.4148 106.866 86.839 106.816 87.1648 106.778C87.4905 106.737 87.7273 106.67 87.875 106.58C88.0227 106.489 88.0966 106.341 88.0966 106.136V106.097C88.0966 105.6 87.9564 105.216 87.6761 104.943C87.3996 104.67 86.9867 104.534 86.4375 104.534C85.8655 104.534 85.4148 104.661 85.0852 104.915C84.7595 105.165 84.5341 105.443 84.4091 105.75L82.8125 105.386C83.0019 104.856 83.2784 104.428 83.642 104.102C84.0095 103.773 84.4318 103.534 84.9091 103.386C85.3864 103.235 85.8883 103.159 86.4148 103.159C86.7633 103.159 87.1326 103.201 87.5227 103.284C87.9167 103.364 88.2841 103.511 88.625 103.727C88.9697 103.943 89.2519 104.252 89.4716 104.653C89.6913 105.051 89.8011 105.568 89.8011 106.205V112H88.142V110.807H88.0739C87.964 111.027 87.7992 111.242 87.5795 111.455C87.3598 111.667 87.0777 111.843 86.733 111.983C86.3883 112.123 85.9754 112.193 85.4943 112.193ZM85.8636 110.83C86.3333 110.83 86.7348 110.737 87.0682 110.551C87.4053 110.366 87.661 110.123 87.8352 109.824C88.0133 109.521 88.1023 109.197 88.1023 108.852V107.727C88.0417 107.788 87.9242 107.845 87.75 107.898C87.5795 107.947 87.3845 107.991 87.1648 108.028C86.9451 108.062 86.7311 108.095 86.5227 108.125C86.3144 108.152 86.1402 108.174 86 108.193C85.6705 108.235 85.3693 108.305 85.0966 108.403C84.8277 108.502 84.6117 108.644 84.4489 108.83C84.2898 109.011 84.2102 109.254 84.2102 109.557C84.2102 109.977 84.3655 110.295 84.6761 110.511C84.9867 110.723 85.3826 110.83 85.8636 110.83Z" fill="#F1F1F1"/>
<defs>
<linearGradient id="paint0_linear_281_23579" x1="157" y1="84" x2="157" y2="128" gradientUnits="userSpaceOnUse">
<stop stop-color="#009DFF"/>
<stop offset="1" stop-color="#008AE0"/>
</linearGradient>
</defs>
</svg>
