<svg width="1457" height="42" viewBox="0 0 1457 42" fill="none" xmlns="http://www.w3.org/2000/svg">
<g clip-path="url(#clip0_579_16268)">
<path d="M36.75 21C36.75 29.6985 29.6985 36.75 21 36.75C12.3015 36.75 5.25 29.6985 5.25 21C5.25 12.3015 12.3015 5.25 21 5.25" stroke="#F1F1F1" stroke-width="2.17241" stroke-linecap="round" stroke-linejoin="round"/>
<path d="M19.4583 14.9143C19.9156 14.0628 20.9765 13.7432 21.828 14.2005C22.1309 14.3632 22.3792 14.6114 22.5418 14.9143L23.9016 17.4028C24.0627 17.6987 24.3057 17.9417 24.6016 18.1028L27.0901 19.4626C27.9416 19.9198 28.2611 20.9808 27.8039 21.8323C27.6412 22.1351 27.393 22.3834 27.0901 22.5461L24.6016 23.9058C24.3057 24.0669 24.0627 24.31 23.9016 24.6058L22.5418 27.0943C22.0846 27.9458 21.0236 28.2654 20.1721 27.8081C19.8692 27.6455 19.621 27.3972 19.4583 27.0943L18.0986 24.6058C17.9375 24.31 17.6944 24.0669 17.3986 23.9058L14.9101 22.5461C14.0586 22.0888 13.739 21.0278 14.1963 20.1764C14.3589 19.8735 14.6072 19.6252 14.9101 19.4626L17.3986 18.1028C17.6944 17.9417 17.9375 17.6987 18.0986 17.4028L19.4583 14.9143ZM32.0933 4.18681C32.4419 3.54796 33.2424 3.31266 33.8813 3.66125C34.1032 3.78238 34.2857 3.96482 34.4068 4.18681L35.4271 6.05231C35.5479 6.2742 35.7302 6.45649 35.9521 6.57731L37.8176 7.59756C38.4564 7.94616 38.6917 8.74664 38.3431 9.3855C38.222 9.60749 38.0396 9.78994 37.8176 9.91107L35.9521 10.9313C35.7302 11.0521 35.5479 11.2344 35.4271 11.4563L34.4068 13.3218C34.0582 13.9607 33.2577 14.196 32.6189 13.8474C32.3969 13.7263 32.2144 13.5438 32.0933 13.3218L31.0731 11.4563C30.9522 11.2344 30.7699 11.0521 30.5481 10.9313L28.6826 9.91107C28.0437 9.56247 27.8084 8.76199 28.157 8.12313C28.2781 7.90114 28.4606 7.71869 28.6826 7.59756L30.5481 6.57731C30.7699 6.45649 30.9522 6.2742 31.0731 6.05231L32.0933 4.18681Z" stroke="#F1F1F1" stroke-width="2.17241"/>
</g>
<path d="M50.8542 34V8.721H53.9153V19.9781H67.3942V8.721H70.4553V34H67.3942V22.6936H53.9153V34H50.8542ZM83.891 34.395C82.1794 34.395 80.6776 33.9877 79.3857 33.173C78.102 32.3583 77.098 31.2187 76.3739 29.7539C75.658 28.2892 75.3 26.5776 75.3 24.6191C75.3 22.6442 75.658 20.9203 76.3739 19.4473C77.098 17.9743 78.102 16.8305 79.3857 16.0159C80.6776 15.2012 82.1794 14.7939 83.891 14.7939C85.6026 14.7939 87.1002 15.2012 88.3839 16.0159C89.6758 16.8305 90.6798 17.9743 91.3957 19.4473C92.1198 20.9203 92.4819 22.6442 92.4819 24.6191C92.4819 26.5776 92.1198 28.2892 91.3957 29.7539C90.6798 31.2187 89.6758 32.3583 88.3839 33.173C87.1002 33.9877 85.6026 34.395 83.891 34.395ZM83.891 31.7782C85.1911 31.7782 86.2609 31.4449 87.1002 30.7784C87.9395 30.1119 88.5608 29.2355 88.964 28.1493C89.3673 27.0631 89.5689 25.8864 89.5689 24.6191C89.5689 23.3519 89.3673 22.171 88.964 21.0766C88.5608 19.9822 87.9395 19.0976 87.1002 18.4228C86.2609 17.748 85.1911 17.4107 83.891 17.4107C82.5908 17.4107 81.5211 17.748 80.6817 18.4228C79.8424 19.0976 79.2211 19.9822 78.8179 21.0766C78.4147 22.171 78.2131 23.3519 78.2131 24.6191C78.2131 25.8864 78.4147 27.0631 78.8179 28.1493C79.2211 29.2355 79.8424 30.1119 80.6817 30.7784C81.5211 31.4449 82.5908 31.7782 83.891 31.7782ZM100.579 34L94.8024 15.0408H97.8635L101.961 29.5564H102.159L106.208 15.0408H109.318L113.317 29.5071H113.515L117.613 15.0408H120.674L114.897 34H112.034L107.886 19.435H107.59L103.443 34H100.579ZM141.46 34.395C139.88 34.395 138.485 33.9959 137.276 33.1977C136.066 32.3913 135.12 31.2557 134.437 29.7909C133.754 28.318 133.412 26.5776 133.412 24.5697C133.412 22.5784 133.754 20.8503 134.437 19.3856C135.12 17.9208 136.07 16.7894 137.288 15.9912C138.506 15.193 139.913 14.7939 141.509 14.7939C142.744 14.7939 143.719 14.9996 144.435 15.4111C145.159 15.8143 145.71 16.2751 146.089 16.7935C146.475 17.3037 146.776 17.7234 146.99 18.0525H147.237V8.721H150.15V34H147.335V31.087H146.99C146.776 31.4326 146.471 31.8687 146.076 32.3954C145.681 32.9138 145.118 33.3787 144.385 33.7902C143.653 34.1934 142.678 34.395 141.46 34.395ZM141.855 31.7782C143.023 31.7782 144.011 31.4737 144.817 30.8648C145.624 30.2476 146.237 29.396 146.656 28.3098C147.076 27.2153 147.286 25.9522 147.286 24.5204C147.286 23.105 147.08 21.8666 146.669 20.8051C146.257 19.7353 145.648 18.9042 144.842 18.3117C144.036 17.711 143.04 17.4107 141.855 17.4107C140.621 17.4107 139.592 17.7275 138.769 18.3611C137.954 18.9865 137.341 19.8382 136.93 20.9161C136.527 21.9859 136.325 23.1873 136.325 24.5204C136.325 25.8699 136.531 27.096 136.942 28.1987C137.362 29.2931 137.979 30.1654 138.794 30.8154C139.617 31.4573 140.637 31.7782 141.855 31.7782ZM163.591 34.395C161.88 34.395 160.378 33.9877 159.086 33.173C157.802 32.3583 156.798 31.2187 156.074 29.7539C155.358 28.2892 155 26.5776 155 24.6191C155 22.6442 155.358 20.9203 156.074 19.4473C156.798 17.9743 157.802 16.8305 159.086 16.0159C160.378 15.2012 161.88 14.7939 163.591 14.7939C165.303 14.7939 166.801 15.2012 168.084 16.0159C169.376 16.8305 170.38 17.9743 171.096 19.4473C171.82 20.9203 172.182 22.6442 172.182 24.6191C172.182 26.5776 171.82 28.2892 171.096 29.7539C170.38 31.2187 169.376 32.3583 168.084 33.173C166.801 33.9877 165.303 34.395 163.591 34.395ZM163.591 31.7782C164.892 31.7782 165.961 31.4449 166.801 30.7784C167.64 30.1119 168.261 29.2355 168.664 28.1493C169.068 27.0631 169.269 25.8864 169.269 24.6191C169.269 23.3519 169.068 22.171 168.664 21.0766C168.261 19.9822 167.64 19.0976 166.801 18.4228C165.961 17.748 164.892 17.4107 163.591 17.4107C162.291 17.4107 161.221 17.748 160.382 18.4228C159.543 19.0976 158.922 19.9822 158.518 21.0766C158.115 22.171 157.913 23.3519 157.913 24.6191C157.913 25.8864 158.115 27.0631 158.518 28.1493C158.922 29.2355 159.543 30.1119 160.382 30.7784C161.221 31.4449 162.291 31.7782 163.591 31.7782ZM184.578 34.395C182.751 34.395 181.175 33.9918 179.851 33.1853C178.534 32.3707 177.518 31.2351 176.802 29.7786C176.094 28.3139 175.74 26.6105 175.74 24.6685C175.74 22.7265 176.094 21.0149 176.802 19.5337C177.518 18.0443 178.513 16.884 179.789 16.0529C181.073 15.2136 182.57 14.7939 184.282 14.7939C185.269 14.7939 186.244 14.9585 187.207 15.2876C188.17 15.6168 189.046 16.1516 189.836 16.8922C190.626 17.6246 191.256 18.5956 191.725 19.8053C192.194 21.0149 192.428 22.5043 192.428 24.2735V25.5078H177.814V22.9898H189.466C189.466 21.9201 189.252 20.9655 188.824 20.1262C188.404 19.2868 187.804 18.6244 187.022 18.1389C186.248 17.6534 185.335 17.4107 184.282 17.4107C183.122 17.4107 182.118 17.6987 181.27 18.2747C180.431 18.8425 179.785 19.5831 179.332 20.4965C178.88 21.4099 178.653 22.3891 178.653 23.4342V25.1129C178.653 26.5447 178.9 27.7584 179.394 28.7541C179.896 29.7416 180.591 30.4945 181.48 31.0129C182.369 31.5231 183.401 31.7782 184.578 31.7782C185.343 31.7782 186.035 31.6712 186.652 31.4573C187.277 31.2351 187.816 30.906 188.269 30.4698C188.721 30.0255 189.071 29.4741 189.318 28.8158L192.132 29.6058C191.836 30.5603 191.338 31.3997 190.639 32.1238C189.939 32.8397 189.075 33.3993 188.046 33.8025C187.018 34.1975 185.862 34.395 184.578 34.395ZM210.289 19.2868L207.672 20.0274C207.508 19.5913 207.265 19.1675 206.944 18.7561C206.631 18.3364 206.203 17.9908 205.66 17.7192C205.117 17.4477 204.422 17.3119 203.574 17.3119C202.414 17.3119 201.447 17.5793 200.674 18.1142C199.908 18.6409 199.526 19.3115 199.526 20.1262C199.526 20.8503 199.789 21.4222 200.316 21.8419C200.842 22.2616 201.665 22.6113 202.784 22.8911L205.599 23.5823C207.294 23.9937 208.557 24.6232 209.388 25.4708C210.219 26.3101 210.635 27.3922 210.635 28.7171C210.635 29.8033 210.322 30.7743 209.697 31.6301C209.079 32.4859 208.215 33.1607 207.104 33.6544C205.994 34.1481 204.702 34.395 203.229 34.395C201.295 34.395 199.694 33.9753 198.427 33.136C197.16 32.2966 196.358 31.0705 196.02 29.4577L198.785 28.7665C199.048 29.7868 199.546 30.5521 200.279 31.0623C201.019 31.5725 201.986 31.8276 203.179 31.8276C204.537 31.8276 205.615 31.5396 206.413 30.9636C207.22 30.3793 207.623 29.6799 207.623 28.8652C207.623 28.2069 207.392 27.6556 206.932 27.2112C206.471 26.7586 205.763 26.4212 204.809 26.1991L201.649 25.4585C199.912 25.047 198.637 24.4093 197.822 23.5453C197.016 22.673 196.613 21.5827 196.613 20.2743C196.613 19.2045 196.913 18.2582 197.514 17.4353C198.123 16.6125 198.95 15.9665 199.995 15.4975C201.048 15.0284 202.241 14.7939 203.574 14.7939C205.45 14.7939 206.923 15.2053 207.993 16.0282C209.071 16.8511 209.836 17.9373 210.289 19.2868ZM233.041 15.0408V17.5094H223.216V15.0408H233.041ZM226.079 10.4984H228.992V28.569C228.992 29.3918 229.111 30.009 229.35 30.4205C229.597 30.8237 229.91 31.0952 230.288 31.2351C230.675 31.3668 231.082 31.4326 231.51 31.4326C231.831 31.4326 232.094 31.4161 232.3 31.3832C232.506 31.3421 232.67 31.3092 232.794 31.2845L233.386 33.9013C233.189 33.9753 232.913 34.0494 232.559 34.1234C232.206 34.2057 231.757 34.2469 231.214 34.2469C230.391 34.2469 229.585 34.0699 228.795 33.7161C228.013 33.3623 227.363 32.8233 226.844 32.0991C226.334 31.375 226.079 30.4616 226.079 29.3589V10.4984ZM240.743 22.5948V34H237.83V8.721H240.743V18.0031H240.99C241.434 17.0239 242.101 16.2463 242.989 15.6703C243.886 15.086 245.08 14.7939 246.569 14.7939C247.861 14.7939 248.992 15.0531 249.963 15.5715C250.934 16.0817 251.687 16.8676 252.222 17.9291C252.765 18.9824 253.037 20.3237 253.037 21.953V34H250.124V22.1505C250.124 20.6446 249.733 19.4802 248.951 18.6573C248.178 17.8262 247.104 17.4107 245.73 17.4107C244.775 17.4107 243.919 17.6123 243.162 18.0155C242.413 18.4187 241.821 19.0071 241.385 19.7806C240.957 20.5541 240.743 21.4922 240.743 22.5948ZM266.315 34.395C264.488 34.395 262.912 33.9918 261.588 33.1853C260.271 32.3707 259.255 31.2351 258.539 29.7786C257.831 28.3139 257.477 26.6105 257.477 24.6685C257.477 22.7265 257.831 21.0149 258.539 19.5337C259.255 18.0443 260.25 16.884 261.526 16.0529C262.81 15.2136 264.307 14.7939 266.019 14.7939C267.006 14.7939 267.981 14.9585 268.944 15.2876C269.907 15.6168 270.783 16.1516 271.573 16.8922C272.363 17.6246 272.993 18.5956 273.462 19.8053C273.931 21.0149 274.165 22.5043 274.165 24.2735V25.5078H259.551V22.9898H271.203C271.203 21.9201 270.989 20.9655 270.561 20.1262C270.142 19.2868 269.541 18.6244 268.759 18.1389C267.986 17.6534 267.072 17.4107 266.019 17.4107C264.859 17.4107 263.855 17.6987 263.007 18.2747C262.168 18.8425 261.522 19.5831 261.069 20.4965C260.617 21.4099 260.39 22.3891 260.39 23.4342V25.1129C260.39 26.5447 260.637 27.7584 261.131 28.7541C261.633 29.7416 262.328 30.4945 263.217 31.0129C264.106 31.5231 265.138 31.7782 266.315 31.7782C267.08 31.7782 267.772 31.6712 268.389 31.4573C269.014 31.2351 269.553 30.906 270.006 30.4698C270.458 30.0255 270.808 29.4741 271.055 28.8158L273.869 29.6058C273.573 30.5603 273.075 31.3997 272.376 32.1238C271.676 32.8397 270.812 33.3993 269.784 33.8025C268.755 34.1975 267.599 34.395 266.315 34.395ZM287.903 34V8.721H293.248V19.1511H304.098V8.721H309.43V34H304.098V23.5576H293.248V34H287.903ZM325.896 25.9275V15.0408H331.154V34H326.106V30.5562H325.908C325.48 31.6671 324.769 32.56 323.773 33.2347C322.785 33.9095 321.58 34.2469 320.156 34.2469C318.889 34.2469 317.774 33.9589 316.811 33.3828C315.849 32.8068 315.096 31.988 314.553 30.9265C314.018 29.865 313.746 28.5937 313.738 27.1125V15.0408H318.996V26.1744C319.004 27.2935 319.305 28.1781 319.897 28.8282C320.49 29.4783 321.284 29.8033 322.279 29.8033C322.913 29.8033 323.506 29.6593 324.057 29.3713C324.608 29.075 325.053 28.6389 325.39 28.0629C325.736 27.4869 325.904 26.7751 325.896 25.9275ZM335.36 34V15.0408H340.372V18.3858H340.594C340.989 17.2749 341.647 16.3985 342.569 15.7567C343.49 15.1148 344.593 14.7939 345.877 14.7939C347.177 14.7939 348.284 15.1189 349.197 15.769C350.11 16.4109 350.719 17.2831 351.024 18.3858H351.221C351.608 17.2996 352.307 16.4314 353.32 15.7813C354.34 15.123 355.546 14.7939 356.936 14.7939C358.705 14.7939 360.141 15.3576 361.244 16.4849C362.355 17.604 362.91 19.1922 362.91 21.2494V34H357.664V22.2862C357.664 21.233 357.385 20.443 356.825 19.9163C356.266 19.3897 355.566 19.1264 354.727 19.1264C353.772 19.1264 353.028 19.4308 352.493 20.0398C351.958 20.6405 351.69 21.4346 351.69 22.422V34H346.593V22.1752C346.593 21.2453 346.325 20.5047 345.79 19.9534C345.264 19.402 344.568 19.1264 343.704 19.1264C343.12 19.1264 342.593 19.2745 342.124 19.5707C341.663 19.8587 341.297 20.2661 341.026 20.7927C340.754 21.3111 340.618 21.9201 340.618 22.6195V34H335.36ZM372.47 34.358C371.261 34.358 370.183 34.1481 369.236 33.7284C368.29 33.3005 367.541 32.671 366.99 31.8399C366.447 31.0006 366.175 29.9555 366.175 28.7047C366.175 27.6514 366.369 26.7668 366.755 26.0509C367.142 25.335 367.669 24.759 368.335 24.3229C369.002 23.8868 369.759 23.5576 370.606 23.3354C371.462 23.1132 372.359 22.9569 373.297 22.8664C374.4 22.7512 375.289 22.6442 375.963 22.5455C376.638 22.4385 377.128 22.2821 377.432 22.0764C377.737 21.8707 377.889 21.5662 377.889 21.163V21.0889C377.889 20.3072 377.642 19.7024 377.148 19.2745C376.663 18.8466 375.972 18.6326 375.075 18.6326C374.128 18.6326 373.375 18.8425 372.816 19.2621C372.256 19.6736 371.886 20.192 371.705 20.8174L366.842 20.4224C367.089 19.2704 367.574 18.2747 368.298 17.4353C369.022 16.5878 369.956 15.9377 371.1 15.4851C372.252 15.0243 373.585 14.7939 375.099 14.7939C376.153 14.7939 377.161 14.9173 378.123 15.1642C379.094 15.411 379.954 15.7937 380.703 16.3121C381.46 16.8305 382.057 17.4971 382.493 18.3117C382.929 19.1181 383.147 20.085 383.147 21.2124V34H378.16V31.3709H378.012C377.708 31.9634 377.301 32.4859 376.79 32.9385C376.28 33.3828 375.667 33.7326 374.951 33.9877C374.235 34.2345 373.408 34.358 372.47 34.358ZM373.976 30.729C374.75 30.729 375.433 30.5768 376.025 30.2723C376.618 29.9596 377.082 29.54 377.42 29.0133C377.757 28.4867 377.926 27.8901 377.926 27.2235V25.2116C377.761 25.3186 377.535 25.4173 377.247 25.5078C376.967 25.5901 376.65 25.6683 376.297 25.7424C375.943 25.8082 375.589 25.8699 375.235 25.9275C374.881 25.9769 374.56 26.0221 374.272 26.0633C373.655 26.1538 373.116 26.2978 372.655 26.4953C372.195 26.6928 371.837 26.9602 371.582 27.2976C371.326 27.6268 371.199 28.0382 371.199 28.5319C371.199 29.2478 371.458 29.7951 371.976 30.1736C372.503 30.5439 373.17 30.729 373.976 30.729ZM392.485 23.0392V34H387.227V15.0408H392.238V18.3858H392.46C392.88 17.2831 393.583 16.4109 394.571 15.769C395.558 15.1189 396.756 14.7939 398.163 14.7939C399.479 14.7939 400.627 15.0819 401.606 15.6579C402.586 16.2339 403.347 17.0568 403.89 18.1266C404.433 19.1881 404.705 20.4553 404.705 21.9283V34H399.446V22.8664C399.455 21.7061 399.158 20.8009 398.558 20.1509C397.957 19.4926 397.13 19.1634 396.077 19.1634C395.369 19.1634 394.744 19.3156 394.201 19.6201C393.666 19.9246 393.246 20.3689 392.942 20.9532C392.645 21.5292 392.493 22.2245 392.485 23.0392ZM421.559 8.721L427.669 27.9271H427.904L434.026 8.721H439.951L431.236 34H424.349L415.622 8.721H421.559ZM446.197 34.358C444.987 34.358 443.909 34.1481 442.963 33.7284C442.016 33.3005 441.267 32.671 440.716 31.8399C440.173 31.0006 439.901 29.9555 439.901 28.7047C439.901 27.6514 440.095 26.7668 440.482 26.0509C440.868 25.335 441.395 24.759 442.062 24.3229C442.728 23.8868 443.485 23.5576 444.333 23.3354C445.188 23.1132 446.085 22.9569 447.024 22.8664C448.126 22.7512 449.015 22.6442 449.69 22.5455C450.364 22.4385 450.854 22.2821 451.158 22.0764C451.463 21.8707 451.615 21.5662 451.615 21.163V21.0889C451.615 20.3072 451.368 19.7024 450.875 19.2745C450.389 18.8466 449.698 18.6326 448.801 18.6326C447.855 18.6326 447.102 18.8425 446.542 19.2621C445.983 19.6736 445.612 20.192 445.431 20.8174L440.568 20.4224C440.815 19.2704 441.3 18.2747 442.024 17.4353C442.749 16.5878 443.683 15.9377 444.826 15.4851C445.978 15.0243 447.312 14.7939 448.826 14.7939C449.879 14.7939 450.887 14.9173 451.85 15.1642C452.821 15.411 453.681 15.7937 454.429 16.3121C455.187 16.8305 455.783 17.4971 456.219 18.3117C456.655 19.1181 456.873 20.085 456.873 21.2124V34H451.887V31.3709H451.739C451.434 31.9634 451.027 32.4859 450.517 32.9385C450.006 33.3828 449.393 33.7326 448.678 33.9877C447.962 34.2345 447.135 34.358 446.197 34.358ZM447.702 30.729C448.476 30.729 449.159 30.5768 449.751 30.2723C450.344 29.9596 450.809 29.54 451.146 29.0133C451.484 28.4867 451.652 27.8901 451.652 27.2235V25.2116C451.488 25.3186 451.261 25.4173 450.973 25.5078C450.694 25.5901 450.377 25.6683 450.023 25.7424C449.669 25.8082 449.315 25.8699 448.961 25.9275C448.608 25.9769 448.287 26.0221 447.999 26.0633C447.381 26.1538 446.842 26.2978 446.382 26.4953C445.921 26.6928 445.563 26.9602 445.308 27.2976C445.053 27.6268 444.925 28.0382 444.925 28.5319C444.925 29.2478 445.184 29.7951 445.703 30.1736C446.229 30.5439 446.896 30.729 447.702 30.729ZM466.211 8.721V34H460.953V8.721H466.211ZM470.423 34V15.0408H475.681V34H470.423ZM473.065 12.5968C472.283 12.5968 471.612 12.3376 471.053 11.8192C470.501 11.2925 470.226 10.663 470.226 9.93064C470.226 9.2065 470.501 8.58523 471.053 8.06681C471.612 7.54016 472.283 7.27684 473.065 7.27684C473.846 7.27684 474.513 7.54016 475.064 8.06681C475.624 8.58523 475.904 9.2065 475.904 9.93064C475.904 10.663 475.624 11.2925 475.064 11.8192C474.513 12.3376 473.846 12.5968 473.065 12.5968ZM486.88 34.3086C485.44 34.3086 484.136 33.9383 482.967 33.1977C481.807 32.4489 480.885 31.3503 480.202 29.902C479.527 28.4455 479.19 26.6599 479.19 24.5451C479.19 22.3726 479.54 20.5664 480.239 19.1264C480.939 17.6781 481.869 16.596 483.029 15.8801C484.197 15.156 485.477 14.7939 486.868 14.7939C487.929 14.7939 488.814 14.9749 489.521 15.337C490.237 15.6908 490.813 16.1352 491.249 16.6701C491.694 17.1967 492.031 17.7151 492.262 18.2253H492.422V8.721H497.668V34H492.484V30.9636H492.262C492.015 31.4902 491.665 32.0127 491.212 32.5312C490.768 33.0413 490.188 33.4651 489.472 33.8025C488.764 34.1399 487.9 34.3086 486.88 34.3086ZM488.546 30.1242C489.394 30.1242 490.11 29.8938 490.694 29.433C491.286 28.9639 491.739 28.3098 492.052 27.4704C492.373 26.6311 492.533 25.6477 492.533 24.5204C492.533 23.393 492.377 22.4138 492.064 21.5827C491.751 20.7516 491.299 20.1097 490.706 19.6571C490.114 19.2045 489.394 18.9783 488.546 18.9783C487.682 18.9783 486.954 19.2128 486.361 19.6818C485.769 20.1509 485.321 20.8009 485.016 21.6321C484.712 22.4632 484.559 23.4259 484.559 24.5204C484.559 25.623 484.712 26.5982 485.016 27.4457C485.329 28.2851 485.777 28.9434 486.361 29.4207C486.954 29.8897 487.682 30.1242 488.546 30.1242ZM507.397 34.358C506.188 34.358 505.11 34.1481 504.164 33.7284C503.217 33.3005 502.468 32.671 501.917 31.8399C501.374 31.0006 501.102 29.9555 501.102 28.7047C501.102 27.6514 501.296 26.7668 501.683 26.0509C502.069 25.335 502.596 24.759 503.262 24.3229C503.929 23.8868 504.686 23.5576 505.534 23.3354C506.389 23.1132 507.286 22.9569 508.224 22.8664C509.327 22.7512 510.216 22.6442 510.891 22.5455C511.565 22.4385 512.055 22.2821 512.359 22.0764C512.664 21.8707 512.816 21.5662 512.816 21.163V21.0889C512.816 20.3072 512.569 19.7024 512.076 19.2745C511.59 18.8466 510.899 18.6326 510.002 18.6326C509.056 18.6326 508.303 18.8425 507.743 19.2621C507.184 19.6736 506.813 20.192 506.632 20.8174L501.769 20.4224C502.016 19.2704 502.501 18.2747 503.225 17.4353C503.95 16.5878 504.884 15.9377 506.027 15.4851C507.179 15.0243 508.512 14.7939 510.027 14.7939C511.08 14.7939 512.088 14.9173 513.051 15.1642C514.022 15.411 514.882 15.7937 515.63 16.3121C516.387 16.8305 516.984 17.4971 517.42 18.3117C517.856 19.1181 518.074 20.085 518.074 21.2124V34H513.088V31.3709H512.94C512.635 31.9634 512.228 32.4859 511.718 32.9385C511.207 33.3828 510.594 33.7326 509.878 33.9877C509.163 34.2345 508.336 34.358 507.397 34.358ZM508.903 30.729C509.677 30.729 510.36 30.5768 510.952 30.2723C511.545 29.9596 512.01 29.54 512.347 29.0133C512.684 28.4867 512.853 27.8901 512.853 27.2235V25.2116C512.689 25.3186 512.462 25.4173 512.174 25.5078C511.895 25.5901 511.578 25.6683 511.224 25.7424C510.87 25.8082 510.516 25.8699 510.162 25.9275C509.809 25.9769 509.488 26.0221 509.2 26.0633C508.582 26.1538 508.043 26.2978 507.583 26.4953C507.122 26.6928 506.764 26.9602 506.509 27.2976C506.254 27.6268 506.126 28.0382 506.126 28.5319C506.126 29.2478 506.385 29.7951 506.904 30.1736C507.43 30.5439 508.097 30.729 508.903 30.729ZM532.238 15.0408V18.9906H520.821V15.0408H532.238ZM523.413 10.4984H528.671V28.174C528.671 28.6595 528.745 29.038 528.893 29.3096C529.041 29.5729 529.247 29.758 529.51 29.865C529.782 29.972 530.095 30.0255 530.449 30.0255C530.695 30.0255 530.942 30.0049 531.189 29.9638C531.436 29.9144 531.625 29.8774 531.757 29.8527L532.584 33.7655C532.321 33.8478 531.95 33.9424 531.473 34.0494C530.996 34.1646 530.416 34.2345 529.733 34.2592C528.465 34.3086 527.354 34.1399 526.4 33.7531C525.454 33.3664 524.717 32.7657 524.19 31.951C523.664 31.1364 523.405 30.1078 523.413 28.8652V10.4984ZM535.664 34V15.0408H540.922V34H535.664ZM538.305 12.5968C537.523 12.5968 536.853 12.3376 536.293 11.8192C535.742 11.2925 535.466 10.663 535.466 9.93064C535.466 9.2065 535.742 8.58523 536.293 8.06681C536.853 7.54016 537.523 7.27684 538.305 7.27684C539.087 7.27684 539.753 7.54016 540.305 8.06681C540.864 8.58523 541.144 9.2065 541.144 9.93064C541.144 10.663 540.864 11.2925 540.305 11.8192C539.753 12.3376 539.087 12.5968 538.305 12.5968ZM553.7 34.3703C551.783 34.3703 550.125 33.963 548.726 33.1483C547.335 32.3254 546.261 31.1816 545.504 29.7169C544.747 28.2439 544.369 26.5364 544.369 24.5944C544.369 22.636 544.747 20.9244 545.504 19.4596C546.261 17.9867 547.335 16.8429 548.726 16.0282C550.125 15.2053 551.783 14.7939 553.7 14.7939C555.617 14.7939 557.271 15.2053 558.662 16.0282C560.061 16.8429 561.139 17.9867 561.896 19.4596C562.653 20.9244 563.032 22.636 563.032 24.5944C563.032 26.5364 562.653 28.2439 561.896 29.7169C561.139 31.1816 560.061 32.3254 558.662 33.1483C557.271 33.963 555.617 34.3703 553.7 34.3703ZM553.725 30.297C554.597 30.297 555.325 30.0502 555.91 29.5564C556.494 29.0545 556.934 28.3715 557.23 27.5074C557.535 26.6434 557.687 25.6601 557.687 24.5574C557.687 23.4547 557.535 22.4714 557.23 21.6074C556.934 20.7433 556.494 20.0603 555.91 19.5584C555.325 19.0564 554.597 18.8054 553.725 18.8054C552.844 18.8054 552.104 19.0564 551.503 19.5584C550.911 20.0603 550.462 20.7433 550.158 21.6074C549.861 22.4714 549.713 23.4547 549.713 24.5574C549.713 25.6601 549.861 26.6434 550.158 27.5074C550.462 28.3715 550.911 29.0545 551.503 29.5564C552.104 30.0502 552.844 30.297 553.725 30.297ZM571.709 23.0392V34H566.451V15.0408H571.462V18.3858H571.684C572.104 17.2831 572.807 16.4109 573.795 15.769C574.782 15.1189 575.98 14.7939 577.387 14.7939C578.703 14.7939 579.851 15.0819 580.831 15.6579C581.81 16.2339 582.571 17.0568 583.114 18.1266C583.657 19.1881 583.929 20.4553 583.929 21.9283V34H578.671V22.8664C578.679 21.7061 578.383 20.8009 577.782 20.1509C577.181 19.4926 576.354 19.1634 575.301 19.1634C574.593 19.1634 573.968 19.3156 573.425 19.6201C572.89 19.9246 572.47 20.3689 572.166 20.9532C571.869 21.5292 571.717 22.2245 571.709 23.0392ZM598.417 34V15.0408H601.231V18.0031H601.478C601.873 16.991 602.511 16.2051 603.391 15.6456C604.272 15.0778 605.329 14.7939 606.563 14.7939C607.814 14.7939 608.855 15.0778 609.686 15.6456C610.525 16.2051 611.18 16.991 611.649 18.0031H611.846C612.332 17.0239 613.06 16.2463 614.031 15.6703C615.002 15.086 616.166 14.7939 617.524 14.7939C619.219 14.7939 620.606 15.3246 621.684 16.3862C622.762 17.4395 623.301 19.0811 623.301 21.3111V34H620.388V21.3111C620.388 19.9122 620.005 18.9124 619.24 18.3117C618.474 17.711 617.573 17.4107 616.537 17.4107C615.204 17.4107 614.171 17.8139 613.438 18.6203C612.706 19.4185 612.34 20.4306 612.34 21.6567V34H609.378V21.0149C609.378 19.9369 609.028 19.0688 608.328 18.4105C607.629 17.7439 606.728 17.4107 605.625 17.4107C604.868 17.4107 604.16 17.6123 603.502 18.0155C602.852 18.4187 602.325 18.9783 601.922 19.6942C601.527 20.4018 601.33 21.2206 601.33 22.1505V34H598.417ZM636.576 34.395C634.749 34.395 633.173 33.9918 631.848 33.1853C630.532 32.3707 629.516 31.2351 628.8 29.7786C628.092 28.3139 627.738 26.6105 627.738 24.6685C627.738 22.7265 628.092 21.0149 628.8 19.5337C629.516 18.0443 630.511 16.884 631.787 16.0529C633.07 15.2136 634.568 14.7939 636.28 14.7939C637.267 14.7939 638.242 14.9585 639.205 15.2876C640.168 15.6168 641.044 16.1516 641.834 16.8922C642.624 17.6246 643.254 18.5956 643.723 19.8053C644.192 21.0149 644.426 22.5043 644.426 24.2735V25.5078H629.812V22.9898H641.464C641.464 21.9201 641.25 20.9655 640.822 20.1262C640.402 19.2868 639.802 18.6244 639.02 18.1389C638.246 17.6534 637.333 17.4107 636.28 17.4107C635.119 17.4107 634.115 17.6987 633.268 18.2747C632.429 18.8425 631.783 19.5831 631.33 20.4965C630.877 21.4099 630.651 22.3891 630.651 23.4342V25.1129C630.651 26.5447 630.898 27.7584 631.392 28.7541C631.894 29.7416 632.589 30.4945 633.478 31.0129C634.366 31.5231 635.399 31.7782 636.576 31.7782C637.341 31.7782 638.032 31.6712 638.65 31.4573C639.275 31.2351 639.814 30.906 640.267 30.4698C640.719 30.0255 641.069 29.4741 641.316 28.8158L644.13 29.6058C643.834 30.5603 643.336 31.3997 642.636 32.1238C641.937 32.8397 641.073 33.3993 640.044 33.8025C639.016 34.1975 637.86 34.395 636.576 34.395ZM656.56 34.395C654.782 34.395 653.252 33.9753 651.968 33.136C650.684 32.2966 649.697 31.1405 649.006 29.6675C648.314 28.1946 647.969 26.5118 647.969 24.6191C647.969 22.6936 648.323 20.9943 649.03 19.5214C649.746 18.0402 650.742 16.884 652.017 16.0529C653.301 15.2136 654.799 14.7939 656.51 14.7939C657.843 14.7939 659.045 15.0408 660.114 15.5345C661.184 16.0282 662.061 16.7194 662.744 17.6081C663.427 18.4969 663.85 19.5337 664.015 20.7187H661.102C660.88 19.8546 660.386 19.0893 659.621 18.4228C658.864 17.748 657.843 17.4107 656.56 17.4107C655.424 17.4107 654.428 17.7069 653.573 18.2994C652.725 18.8836 652.063 19.7106 651.585 20.7804C651.116 21.8419 650.882 23.0886 650.882 24.5204C650.882 25.9851 651.112 27.2606 651.573 28.3468C652.042 29.433 652.7 30.2764 653.548 30.8772C654.404 31.4779 655.408 31.7782 656.56 31.7782C657.317 31.7782 658.004 31.6466 658.621 31.3832C659.238 31.1199 659.761 30.7414 660.189 30.2476C660.616 29.7539 660.921 29.1614 661.102 28.4702H664.015C663.85 29.5893 663.443 30.5974 662.793 31.4943C662.151 32.383 661.299 33.0907 660.238 33.6174C659.185 34.1358 657.959 34.395 656.56 34.395ZM671.186 22.5948V34H668.273V8.721H671.186V18.0031H671.433C671.878 17.0239 672.544 16.2463 673.433 15.6703C674.33 15.086 675.523 14.7939 677.012 14.7939C678.304 14.7939 679.436 15.0531 680.407 15.5715C681.378 16.0817 682.131 16.8676 682.666 17.9291C683.209 18.9824 683.48 20.3237 683.48 21.953V34H680.567V22.1505C680.567 20.6446 680.176 19.4802 679.395 18.6573C678.621 17.8262 677.547 17.4107 676.173 17.4107C675.219 17.4107 674.363 17.6123 673.606 18.0155C672.857 18.4187 672.264 19.0071 671.828 19.7806C671.4 20.5541 671.186 21.4922 671.186 22.5948ZM694.389 34.4444C693.187 34.4444 692.097 34.2181 691.118 33.7655C690.138 33.3047 689.361 32.6422 688.785 31.7782C688.209 30.906 687.921 29.8527 687.921 28.6183C687.921 27.5321 688.135 26.6516 688.563 25.9769C688.99 25.2939 689.562 24.759 690.278 24.3723C690.994 23.9855 691.784 23.6975 692.648 23.5082C693.52 23.3107 694.397 23.1544 695.277 23.0392C696.429 22.8911 697.363 22.78 698.079 22.7059C698.803 22.6236 699.33 22.4879 699.659 22.2986C699.997 22.1093 700.165 21.7802 700.165 21.3111V21.2124C700.165 19.9945 699.832 19.0482 699.165 18.3734C698.507 17.6987 697.507 17.3613 696.166 17.3613C694.775 17.3613 693.685 17.6658 692.895 18.2747C692.105 18.8836 691.55 19.5337 691.229 20.2249L688.464 19.2375C688.958 18.0854 689.616 17.1885 690.439 16.5466C691.27 15.8966 692.175 15.444 693.154 15.1889C694.142 14.9255 695.113 14.7939 696.067 14.7939C696.676 14.7939 697.376 14.8679 698.166 15.0161C698.964 15.156 699.733 15.4481 700.474 15.8924C701.223 16.3368 701.844 17.0074 702.338 17.9044C702.831 18.8013 703.078 20.0027 703.078 21.5086V34H700.165V31.4326H700.017C699.82 31.844 699.49 32.2843 699.03 32.7533C698.569 33.2224 697.956 33.6215 697.191 33.9506C696.425 34.2798 695.491 34.4444 694.389 34.4444ZM694.833 31.8276C695.985 31.8276 696.956 31.6013 697.746 31.1487C698.544 30.6961 699.145 30.1119 699.548 29.396C699.96 28.6801 700.165 27.9271 700.165 27.1371V24.471C700.042 24.6191 699.77 24.7549 699.351 24.8783C698.939 24.9935 698.462 25.0964 697.919 25.1869C697.384 25.2692 696.861 25.3433 696.351 25.4091C695.849 25.4667 695.442 25.5161 695.129 25.5572C694.372 25.656 693.664 25.8164 693.006 26.0386C692.356 26.2525 691.829 26.5776 691.426 27.0137C691.031 27.4416 690.834 28.0259 690.834 28.7665C690.834 29.7786 691.208 30.5439 691.957 31.0623C692.714 31.5725 693.673 31.8276 694.833 31.8276ZM711.308 22.5948V34H708.395V15.0408H711.209V18.0031H711.456C711.901 17.0404 712.575 16.2668 713.481 15.6826C714.386 15.0901 715.554 14.7939 716.986 14.7939C718.27 14.7939 719.393 15.0572 720.356 15.5839C721.319 16.1023 722.067 16.8922 722.602 17.9538C723.137 19.0071 723.405 20.3401 723.405 21.953V34H720.492V22.1505C720.492 20.661 720.105 19.5008 719.331 18.6697C718.558 17.8303 717.496 17.4107 716.147 17.4107C715.217 17.4107 714.386 17.6123 713.653 18.0155C712.929 18.4187 712.357 19.0071 711.938 19.7806C711.518 20.5541 711.308 21.4922 711.308 22.5948ZM728.728 34V15.0408H731.641V34H728.728ZM730.209 11.8809C729.641 11.8809 729.151 11.6875 728.74 11.3007C728.337 10.914 728.135 10.4491 728.135 9.90596C728.135 9.36285 728.337 8.89792 728.74 8.51117C729.151 8.12441 729.641 7.93103 730.209 7.93103C730.777 7.93103 731.262 8.12441 731.665 8.51117C732.077 8.89792 732.282 9.36285 732.282 9.90596C732.282 10.4491 732.077 10.914 731.665 11.3007C731.262 11.6875 730.777 11.8809 730.209 11.8809ZM750.405 19.2868L747.789 20.0274C747.624 19.5913 747.381 19.1675 747.06 18.7561C746.748 18.3364 746.32 17.9908 745.777 17.7192C745.234 17.4477 744.538 17.3119 743.691 17.3119C742.53 17.3119 741.564 17.5793 740.79 18.1142C740.025 18.6409 739.642 19.3115 739.642 20.1262C739.642 20.8503 739.905 21.4222 740.432 21.8419C740.959 22.2616 741.782 22.6113 742.901 22.8911L745.715 23.5823C747.41 23.9937 748.673 24.6232 749.504 25.4708C750.335 26.3101 750.751 27.3922 750.751 28.7171C750.751 29.8033 750.438 30.7743 749.813 31.6301C749.196 32.4859 748.332 33.1607 747.221 33.6544C746.11 34.1481 744.818 34.395 743.345 34.395C741.411 34.395 739.811 33.9753 738.544 33.136C737.276 32.2966 736.474 31.0705 736.137 29.4577L738.902 28.7665C739.165 29.7868 739.663 30.5521 740.395 31.0623C741.136 31.5725 742.103 31.8276 743.296 31.8276C744.653 31.8276 745.731 31.5396 746.53 30.9636C747.336 30.3793 747.739 29.6799 747.739 28.8652C747.739 28.2069 747.509 27.6556 747.048 27.2112C746.587 26.7586 745.88 26.4212 744.925 26.1991L741.765 25.4585C740.029 25.047 738.753 24.4093 737.939 23.5453C737.132 22.673 736.729 21.5827 736.729 20.2743C736.729 19.2045 737.029 18.2582 737.63 17.4353C738.239 16.6125 739.066 15.9665 740.111 15.4975C741.164 15.0284 742.358 14.7939 743.691 14.7939C745.567 14.7939 747.04 15.2053 748.11 16.0282C749.188 16.8511 749.953 17.9373 750.405 19.2868ZM755.136 34V15.0408H757.95V18.0031H758.197C758.592 16.991 759.23 16.2051 760.11 15.6456C760.991 15.0778 762.048 14.7939 763.283 14.7939C764.533 14.7939 765.574 15.0778 766.405 15.6456C767.245 16.2051 767.899 16.991 768.368 18.0031H768.565C769.051 17.0239 769.779 16.2463 770.75 15.6703C771.721 15.086 772.886 14.7939 774.243 14.7939C775.939 14.7939 777.325 15.3246 778.403 16.3862C779.481 17.4395 780.02 19.0811 780.02 21.3111V34H777.107V21.3111C777.107 19.9122 776.724 18.9124 775.959 18.3117C775.194 17.711 774.293 17.4107 773.256 17.4107C771.923 17.4107 770.89 17.8139 770.158 18.6203C769.425 19.4185 769.059 20.4306 769.059 21.6567V34H766.097V21.0149C766.097 19.9369 765.747 19.0688 765.048 18.4105C764.348 17.7439 763.447 17.4107 762.344 17.4107C761.587 17.4107 760.88 17.6123 760.221 18.0155C759.571 18.4187 759.045 18.9783 758.641 19.6942C758.246 20.4018 758.049 21.2206 758.049 22.1505V34H755.136ZM799.417 34L793.641 15.0408H796.702L800.8 29.5564H800.997L805.046 15.0408H808.156L812.156 29.5071H812.353L816.451 15.0408H819.512L813.736 34H810.872L806.725 19.435H806.428L802.281 34H799.417ZM830.421 34.395C828.709 34.395 827.207 33.9877 825.915 33.173C824.632 32.3583 823.628 31.2187 822.904 29.7539C822.188 28.2892 821.83 26.5776 821.83 24.6191C821.83 22.6442 822.188 20.9203 822.904 19.4473C823.628 17.9743 824.632 16.8305 825.915 16.0159C827.207 15.2012 828.709 14.7939 830.421 14.7939C832.132 14.7939 833.63 15.2012 834.914 16.0159C836.205 16.8305 837.209 17.9743 837.925 19.4473C838.649 20.9203 839.011 22.6442 839.011 24.6191C839.011 26.5776 838.649 28.2892 837.925 29.7539C837.209 31.2187 836.205 32.3583 834.914 33.173C833.63 33.9877 832.132 34.395 830.421 34.395ZM830.421 31.7782C831.721 31.7782 832.79 31.4449 833.63 30.7784C834.469 30.1119 835.09 29.2355 835.494 28.1493C835.897 27.0631 836.098 25.8864 836.098 24.6191C836.098 23.3519 835.897 22.171 835.494 21.0766C835.09 19.9822 834.469 19.0976 833.63 18.4228C832.79 17.748 831.721 17.4107 830.421 17.4107C829.12 17.4107 828.051 17.748 827.211 18.4228C826.372 19.0976 825.751 19.9822 825.348 21.0766C824.944 22.171 824.743 23.3519 824.743 24.6191C824.743 25.8864 824.944 27.0631 825.348 28.1493C825.751 29.2355 826.372 30.1119 827.211 30.7784C828.051 31.4449 829.12 31.7782 830.421 31.7782ZM843.458 34V15.0408H846.272V17.9044H846.47C846.816 16.9663 847.441 16.2051 848.346 15.6209C849.251 15.0366 850.272 14.7445 851.407 14.7445C851.621 14.7445 851.889 14.7486 852.21 14.7569C852.53 14.7651 852.773 14.7774 852.938 14.7939V17.7563C852.839 17.7316 852.613 17.6946 852.259 17.6452C851.913 17.5876 851.547 17.5588 851.16 17.5588C850.239 17.5588 849.416 17.7522 848.692 18.1389C847.976 18.5174 847.408 19.0441 846.988 19.7188C846.577 20.3854 846.371 21.1466 846.371 22.0024V34H843.458ZM859.106 27.0878L859.057 23.4835H859.649L867.944 15.0408H871.548L862.711 23.9773H862.464L859.106 27.0878ZM856.391 34V8.721H859.304V34H856.391ZM868.438 34L861.032 24.6191L863.106 22.5948L872.141 34H868.438ZM885.073 34V15.0408H887.987V34H885.073ZM886.555 11.8809C885.987 11.8809 885.497 11.6875 885.086 11.3007C884.683 10.914 884.481 10.4491 884.481 9.90596C884.481 9.36285 884.683 8.89792 885.086 8.51117C885.497 8.12441 885.987 7.93103 886.555 7.93103C887.122 7.93103 887.608 8.12441 888.011 8.51117C888.423 8.89792 888.628 9.36285 888.628 9.90596C888.628 10.4491 888.423 10.914 888.011 11.3007C887.608 11.6875 887.122 11.8809 886.555 11.8809ZM896.235 22.5948V34H893.322V15.0408H896.136V18.0031H896.383C896.827 17.0404 897.502 16.2668 898.407 15.6826C899.312 15.0901 900.481 14.7939 901.913 14.7939C903.196 14.7939 904.32 15.0572 905.282 15.5839C906.245 16.1023 906.994 16.8922 907.529 17.9538C908.064 19.0071 908.331 20.3401 908.331 21.953V34H905.418V22.1505C905.418 20.661 905.031 19.5008 904.258 18.6697C903.484 17.8303 902.423 17.4107 901.073 17.4107C900.144 17.4107 899.312 17.6123 898.58 18.0155C897.856 18.4187 897.284 19.0071 896.864 19.7806C896.445 20.5541 896.235 21.4922 896.235 22.5948ZM931.675 15.0408V17.5094H921.85V15.0408H931.675ZM924.714 10.4984H927.627V28.569C927.627 29.3918 927.746 30.009 927.985 30.4205C928.232 30.8237 928.544 31.0952 928.923 31.2351C929.31 31.3668 929.717 31.4326 930.145 31.4326C930.466 31.4326 930.729 31.4161 930.935 31.3832C931.141 31.3421 931.305 31.3092 931.429 31.2845L932.021 33.9013C931.824 33.9753 931.548 34.0494 931.194 34.1234C930.84 34.2057 930.392 34.2469 929.849 34.2469C929.026 34.2469 928.219 34.0699 927.429 33.7161C926.648 33.3623 925.998 32.8233 925.479 32.0991C924.969 31.375 924.714 30.4616 924.714 29.3589V10.4984ZM939.378 22.5948V34H936.465V8.721H939.378V18.0031H939.625C940.069 17.0239 940.735 16.2463 941.624 15.6703C942.521 15.086 943.714 14.7939 945.204 14.7939C946.496 14.7939 947.627 15.0531 948.598 15.5715C949.569 16.0817 950.322 16.8676 950.857 17.9291C951.4 18.9824 951.672 20.3237 951.672 21.953V34H948.759V22.1505C948.759 20.6446 948.368 19.4802 947.586 18.6573C946.812 17.8262 945.739 17.4107 944.364 17.4107C943.41 17.4107 942.554 17.6123 941.797 18.0155C941.048 18.4187 940.456 19.0071 940.02 19.7806C939.592 20.5541 939.378 21.4922 939.378 22.5948ZM964.95 34.395C963.123 34.395 961.547 33.9918 960.222 33.1853C958.906 32.3707 957.889 31.2351 957.174 29.7786C956.466 28.3139 956.112 26.6105 956.112 24.6685C956.112 22.7265 956.466 21.0149 957.174 19.5337C957.889 18.0443 958.885 16.884 960.161 16.0529C961.444 15.2136 962.942 14.7939 964.654 14.7939C965.641 14.7939 966.616 14.9585 967.579 15.2876C968.542 15.6168 969.418 16.1516 970.208 16.8922C970.998 17.6246 971.628 18.5956 972.097 19.8053C972.566 21.0149 972.8 22.5043 972.8 24.2735V25.5078H958.186V22.9898H969.838C969.838 21.9201 969.624 20.9655 969.196 20.1262C968.776 19.2868 968.176 18.6244 967.394 18.1389C966.62 17.6534 965.707 17.4107 964.654 17.4107C963.493 17.4107 962.489 17.6987 961.642 18.2747C960.802 18.8425 960.156 19.5831 959.704 20.4965C959.251 21.4099 959.025 22.3891 959.025 23.4342V25.1129C959.025 26.5447 959.272 27.7584 959.766 28.7541C960.268 29.7416 960.963 30.4945 961.852 31.0129C962.74 31.5231 963.773 31.7782 964.95 31.7782C965.715 31.7782 966.406 31.6712 967.023 31.4573C967.649 31.2351 968.188 30.906 968.64 30.4698C969.093 30.0255 969.443 29.4741 969.69 28.8158L972.504 29.6058C972.208 30.5603 971.71 31.3997 971.01 32.1238C970.311 32.8397 969.447 33.3993 968.418 33.8025C967.39 34.1975 966.233 34.395 964.95 34.395ZM991.883 8.721V34H986.538V8.721H991.883ZM996.181 34V15.0408H1001.19V18.3858H1001.41C1001.81 17.2749 1002.47 16.3985 1003.39 15.7567C1004.31 15.1148 1005.41 14.7939 1006.7 14.7939C1008 14.7939 1009.1 15.1189 1010.02 15.769C1010.93 16.4109 1011.54 17.2831 1011.84 18.3858H1012.04C1012.43 17.2996 1013.13 16.4314 1014.14 15.7813C1015.16 15.123 1016.37 14.7939 1017.76 14.7939C1019.53 14.7939 1020.96 15.3576 1022.07 16.4849C1023.18 17.604 1023.73 19.1922 1023.73 21.2494V34H1018.49V22.2862C1018.49 21.233 1018.21 20.443 1017.65 19.9163C1017.09 19.3897 1016.39 19.1264 1015.55 19.1264C1014.59 19.1264 1013.85 19.4308 1013.31 20.0398C1012.78 20.6405 1012.51 21.4346 1012.51 22.422V34H1007.41V22.1752C1007.41 21.2453 1007.15 20.5047 1006.61 19.9534C1006.08 19.402 1005.39 19.1264 1004.53 19.1264C1003.94 19.1264 1003.41 19.2745 1002.95 19.5707C1002.48 19.8587 1002.12 20.2661 1001.85 20.7927C1001.58 21.3111 1001.44 21.9201 1001.44 22.6195V34H996.181ZM1033.29 34.358C1032.08 34.358 1031 34.1481 1030.06 33.7284C1029.11 33.3005 1028.36 32.671 1027.81 31.8399C1027.27 31.0006 1027 29.9555 1027 28.7047C1027 27.6514 1027.19 26.7668 1027.58 26.0509C1027.96 25.335 1028.49 24.759 1029.16 24.3229C1029.82 23.8868 1030.58 23.5576 1031.43 23.3354C1032.28 23.1132 1033.18 22.9569 1034.12 22.8664C1035.22 22.7512 1036.11 22.6442 1036.78 22.5455C1037.46 22.4385 1037.95 22.2821 1038.25 22.0764C1038.56 21.8707 1038.71 21.5662 1038.71 21.163V21.0889C1038.71 20.3072 1038.46 19.7024 1037.97 19.2745C1037.48 18.8466 1036.79 18.6326 1035.9 18.6326C1034.95 18.6326 1034.2 18.8425 1033.64 19.2621C1033.08 19.6736 1032.71 20.192 1032.53 20.8174L1027.66 20.4224C1027.91 19.2704 1028.4 18.2747 1029.12 17.4353C1029.84 16.5878 1030.78 15.9377 1031.92 15.4851C1033.07 15.0243 1034.41 14.7939 1035.92 14.7939C1036.97 14.7939 1037.98 14.9173 1038.94 15.1642C1039.92 15.411 1040.78 15.7937 1041.52 16.3121C1042.28 16.8305 1042.88 17.4971 1043.31 18.3117C1043.75 19.1181 1043.97 20.085 1043.97 21.2124V34H1038.98V31.3709H1038.83C1038.53 31.9634 1038.12 32.4859 1037.61 32.9385C1037.1 33.3828 1036.49 33.7326 1035.77 33.9877C1035.06 34.2345 1034.23 34.358 1033.29 34.358ZM1034.8 30.729C1035.57 30.729 1036.25 30.5768 1036.85 30.2723C1037.44 29.9596 1037.9 29.54 1038.24 29.0133C1038.58 28.4867 1038.75 27.8901 1038.75 27.2235V25.2116C1038.58 25.3186 1038.36 25.4173 1038.07 25.5078C1037.79 25.5901 1037.47 25.6683 1037.12 25.7424C1036.76 25.8082 1036.41 25.8699 1036.06 25.9275C1035.7 25.9769 1035.38 26.0221 1035.09 26.0633C1034.48 26.1538 1033.94 26.2978 1033.48 26.4953C1033.02 26.6928 1032.66 26.9602 1032.4 27.2976C1032.15 27.6268 1032.02 28.0382 1032.02 28.5319C1032.02 29.2478 1032.28 29.7951 1032.8 30.1736C1033.32 30.5439 1033.99 30.729 1034.8 30.729ZM1056.59 41.5047C1054.89 41.5047 1053.43 41.2702 1052.21 40.8011C1051 40.3403 1050.03 39.7108 1049.32 38.9126C1048.6 38.1144 1048.14 37.2175 1047.92 36.2218L1052.79 35.5676C1052.94 35.9461 1053.17 36.3 1053.49 36.6291C1053.81 36.9583 1054.24 37.2216 1054.76 37.4191C1055.3 37.6248 1055.95 37.7277 1056.71 37.7277C1057.86 37.7277 1058.8 37.4479 1059.54 36.8883C1060.29 36.337 1060.66 35.4112 1060.66 34.1111V30.6426H1060.44C1060.21 31.1693 1059.86 31.6671 1059.4 32.1362C1058.94 32.6052 1058.35 32.9879 1057.63 33.2841C1056.9 33.5803 1056.04 33.7284 1055.03 33.7284C1053.61 33.7284 1052.31 33.3993 1051.15 32.741C1049.99 32.0745 1049.06 31.0582 1048.37 29.6922C1047.69 28.318 1047.34 26.5817 1047.34 24.4833C1047.34 22.3356 1047.69 20.5417 1048.39 19.1017C1049.09 17.6616 1050.02 16.5837 1051.18 15.8678C1052.35 15.1518 1053.63 14.7939 1055.02 14.7939C1056.08 14.7939 1056.97 14.9749 1057.69 15.337C1058.4 15.6908 1058.98 16.1352 1059.42 16.6701C1059.86 17.1967 1060.2 17.7151 1060.44 18.2253H1060.64V15.0408H1065.86V34.1851C1065.86 35.798 1065.46 37.1475 1064.67 38.2337C1063.88 39.3199 1062.79 40.1346 1061.39 40.6777C1060 41.229 1058.4 41.5047 1056.59 41.5047ZM1056.7 29.7786C1057.55 29.7786 1058.26 29.5688 1058.85 29.1491C1059.44 28.7212 1059.89 28.1123 1060.21 27.3223C1060.53 26.5241 1060.69 25.5696 1060.69 24.4587C1060.69 23.3478 1060.53 22.385 1060.22 21.5703C1059.91 20.7475 1059.45 20.1097 1058.86 19.6571C1058.27 19.2045 1057.55 18.9783 1056.7 18.9783C1055.84 18.9783 1055.11 19.2128 1054.52 19.6818C1053.92 20.1426 1053.47 20.7845 1053.17 21.6074C1052.87 22.4303 1052.71 23.3807 1052.71 24.4587C1052.71 25.5531 1052.87 26.4994 1053.17 27.2976C1053.48 28.0876 1053.93 28.7006 1054.52 29.1368C1055.11 29.5647 1055.84 29.7786 1056.7 29.7786ZM1078.68 34.3703C1076.73 34.3703 1075.05 33.9753 1073.65 33.1853C1072.25 32.3871 1071.17 31.2598 1070.41 29.8033C1069.66 28.3386 1069.28 26.6064 1069.28 24.6068C1069.28 22.6565 1069.66 20.9449 1070.41 19.472C1071.17 17.999 1072.24 16.8511 1073.61 16.0282C1074.99 15.2053 1076.61 14.7939 1078.47 14.7939C1079.72 14.7939 1080.89 14.9955 1081.97 15.3987C1083.05 15.7937 1084 16.3903 1084.81 17.1885C1085.62 17.9867 1086.25 18.9906 1086.71 20.2002C1087.16 21.4016 1087.39 22.8088 1087.39 24.4216V25.8658H1071.38V22.6072H1082.44C1082.44 21.8501 1082.27 21.1795 1081.94 20.5952C1081.61 20.011 1081.16 19.5543 1080.57 19.2251C1080 18.8877 1079.33 18.719 1078.56 18.719C1077.76 18.719 1077.05 18.9042 1076.44 19.2745C1075.83 19.6366 1075.35 20.1262 1075.01 20.7433C1074.66 21.3523 1074.48 22.0312 1074.47 22.78V25.8781C1074.47 26.8162 1074.65 27.6268 1074.99 28.3098C1075.35 28.9928 1075.84 29.5194 1076.49 29.8897C1077.13 30.26 1077.89 30.4451 1078.77 30.4451C1079.35 30.4451 1079.89 30.3629 1080.37 30.1983C1080.86 30.0337 1081.28 29.7868 1081.62 29.4577C1081.97 29.1285 1082.23 28.7253 1082.41 28.248L1087.27 28.569C1087.03 29.7375 1086.52 30.7578 1085.76 31.6301C1085 32.4941 1084.02 33.1689 1082.82 33.6544C1081.63 34.1317 1080.25 34.3703 1078.68 34.3703ZM1095.27 34H1089.55L1098.27 8.721H1105.16L1113.87 34H1108.15L1101.81 14.4976H1101.62L1095.27 34ZM1094.92 24.0637H1108.44V28.2357H1094.92V24.0637ZM1122.08 8.721V34H1116.82V8.721H1122.08ZM1134.85 34.3703C1132.91 34.3703 1131.24 33.9589 1129.84 33.136C1128.45 32.3049 1127.38 31.1528 1126.63 29.6799C1125.89 28.2069 1125.52 26.5118 1125.52 24.5944C1125.52 22.6524 1125.9 20.9491 1126.65 19.4843C1127.4 18.0114 1128.48 16.8634 1129.87 16.0406C1131.26 15.2094 1132.91 14.7939 1134.83 14.7939C1136.48 14.7939 1137.93 15.0942 1139.17 15.6949C1140.42 16.2956 1141.4 17.1391 1142.12 18.2253C1142.85 19.3115 1143.25 20.587 1143.32 22.0517H1138.36C1138.22 21.1054 1137.85 20.3442 1137.25 19.7682C1136.66 19.184 1135.88 18.8918 1134.92 18.8918C1134.1 18.8918 1133.39 19.114 1132.78 19.5584C1132.18 19.9945 1131.71 20.6322 1131.37 21.4716C1131.04 22.3109 1130.87 23.3272 1130.87 24.5204C1130.87 25.73 1131.03 26.7586 1131.36 27.6062C1131.7 28.4538 1132.17 29.0997 1132.78 29.5441C1133.39 29.9884 1134.1 30.2106 1134.92 30.2106C1135.52 30.2106 1136.06 30.0872 1136.53 29.8403C1137.02 29.5935 1137.42 29.2355 1137.73 28.7665C1138.05 28.2892 1138.26 27.7173 1138.36 27.0507H1143.32C1143.24 28.499 1142.84 29.7745 1142.14 30.8772C1141.44 31.9716 1140.47 32.8274 1139.24 33.4446C1138 34.0617 1136.54 34.3703 1134.85 34.3703ZM1151.95 23.0392V34H1146.69V8.721H1151.8V18.3858H1152.02C1152.45 17.2667 1153.14 16.3903 1154.09 15.7567C1155.05 15.1148 1156.25 14.7939 1157.69 14.7939C1159 14.7939 1160.15 15.0819 1161.13 15.6579C1162.12 16.2257 1162.88 17.0445 1163.43 18.1142C1163.98 19.1757 1164.25 20.4471 1164.24 21.9283V34H1158.98V22.8664C1158.99 21.6979 1158.69 20.7886 1158.09 20.1385C1157.5 19.4884 1156.67 19.1634 1155.6 19.1634C1154.88 19.1634 1154.25 19.3156 1153.7 19.6201C1153.16 19.9246 1152.73 20.3689 1152.42 20.9532C1152.11 21.5292 1151.96 22.2245 1151.95 23.0392ZM1177.02 34.3703C1175.07 34.3703 1173.39 33.9753 1171.98 33.1853C1170.58 32.3871 1169.51 31.2598 1168.75 29.8033C1167.99 28.3386 1167.61 26.6064 1167.61 24.6068C1167.61 22.6565 1167.99 20.9449 1168.75 19.472C1169.51 17.999 1170.57 16.8511 1171.95 16.0282C1173.33 15.2053 1174.95 14.7939 1176.81 14.7939C1178.06 14.7939 1179.22 14.9955 1180.3 15.3987C1181.39 15.7937 1182.34 16.3903 1183.14 17.1885C1183.96 17.9867 1184.59 18.9906 1185.04 20.2002C1185.5 21.4016 1185.72 22.8088 1185.72 24.4216V25.8658H1169.71V22.6072H1180.77C1180.77 21.8501 1180.61 21.1795 1180.28 20.5952C1179.95 20.011 1179.49 19.5543 1178.91 19.2251C1178.33 18.8877 1177.66 18.719 1176.9 18.719C1176.1 18.719 1175.39 18.9042 1174.77 19.2745C1174.16 19.6366 1173.69 20.1262 1173.34 20.7433C1173 21.3523 1172.82 22.0312 1172.81 22.78V25.8781C1172.81 26.8162 1172.98 27.6268 1173.33 28.3098C1173.68 28.9928 1174.18 29.5194 1174.82 29.8897C1175.46 30.26 1176.23 30.4451 1177.11 30.4451C1177.69 30.4451 1178.22 30.3629 1178.71 30.1983C1179.2 30.0337 1179.61 29.7868 1179.96 29.4577C1180.3 29.1285 1180.57 28.7253 1180.75 28.248L1185.61 28.569C1185.36 29.7375 1184.86 30.7578 1184.09 31.6301C1183.34 32.4941 1182.36 33.1689 1181.15 33.6544C1179.96 34.1317 1178.58 34.3703 1177.02 34.3703ZM1189.15 34V15.0408H1194.16V18.3858H1194.39C1194.78 17.2749 1195.44 16.3985 1196.36 15.7567C1197.28 15.1148 1198.39 14.7939 1199.67 14.7939C1200.97 14.7939 1202.08 15.1189 1202.99 15.769C1203.9 16.4109 1204.51 17.2831 1204.82 18.3858H1205.01C1205.4 17.2996 1206.1 16.4314 1207.11 15.7813C1208.13 15.123 1209.34 14.7939 1210.73 14.7939C1212.5 14.7939 1213.93 15.3576 1215.04 16.4849C1216.15 17.604 1216.7 19.1922 1216.7 21.2494V34H1211.46V22.2862C1211.46 21.233 1211.18 20.443 1210.62 19.9163C1210.06 19.3897 1209.36 19.1264 1208.52 19.1264C1207.56 19.1264 1206.82 19.4308 1206.29 20.0398C1205.75 20.6405 1205.48 21.4346 1205.48 22.422V34H1200.39V22.1752C1200.39 21.2453 1200.12 20.5047 1199.58 19.9534C1199.06 19.402 1198.36 19.1264 1197.5 19.1264C1196.91 19.1264 1196.39 19.2745 1195.92 19.5707C1195.46 19.8587 1195.09 20.2661 1194.82 20.7927C1194.55 21.3111 1194.41 21.9201 1194.41 22.6195V34H1189.15ZM1223.42 41.1097C1222.76 41.1097 1222.13 41.0562 1221.55 40.9493C1220.97 40.8505 1220.49 40.723 1220.12 40.5666L1221.3 36.6415C1221.92 36.8307 1222.47 36.9336 1222.97 36.95C1223.47 36.9665 1223.9 36.8513 1224.26 36.6044C1224.63 36.3576 1224.93 35.9379 1225.16 35.3454L1225.47 34.5431L1218.67 15.0408H1224.2L1228.13 28.9639H1228.32L1232.29 15.0408H1237.85L1230.48 36.049C1230.13 37.0694 1229.65 37.9581 1229.04 38.7151C1228.44 39.4804 1227.68 40.0688 1226.76 40.4802C1225.83 40.8999 1224.72 41.1097 1223.42 41.1097ZM1251.92 21.3605C1251.92 18.25 1252.33 15.3905 1253.13 12.7819C1253.95 10.1652 1255.11 7.75823 1256.61 5.56113H1259.18C1258.59 6.37578 1258.03 7.3797 1257.52 8.57288C1257.01 9.75784 1256.56 11.0621 1256.17 12.4857C1255.78 13.9011 1255.48 15.3658 1255.26 16.8799C1255.04 18.394 1254.94 19.8875 1254.94 21.3605C1254.94 23.319 1255.13 25.3062 1255.5 27.3223C1255.88 29.3384 1256.39 31.2104 1257.03 32.9385C1257.68 34.6665 1258.39 36.0737 1259.18 37.1599H1256.61C1255.11 34.9628 1253.95 32.56 1253.13 29.9514C1252.33 27.3346 1251.92 24.471 1251.92 21.3605ZM1263.43 34V31.7782L1271.78 22.6442C1272.75 21.5745 1273.56 20.6446 1274.19 19.8546C1274.83 19.0564 1275.3 18.3076 1275.6 17.6081C1275.91 16.9005 1276.07 16.1599 1276.07 15.3864C1276.07 14.4976 1275.86 13.7283 1275.43 13.0782C1275.01 12.4281 1274.43 11.9261 1273.7 11.5723C1272.97 11.2185 1272.15 11.0415 1271.23 11.0415C1270.26 11.0415 1269.41 11.2431 1268.69 11.6464C1267.97 12.0413 1267.42 12.5968 1267.02 13.3127C1266.64 14.0286 1266.44 14.8679 1266.44 15.8307H1263.53C1263.53 14.3495 1263.87 13.0494 1264.55 11.9303C1265.24 10.8111 1266.17 9.93887 1267.34 9.31348C1268.53 8.68809 1269.86 8.37539 1271.33 8.37539C1272.81 8.37539 1274.12 8.68809 1275.27 9.31348C1276.41 9.93887 1277.31 10.7823 1277.96 11.8438C1278.61 12.9054 1278.93 14.0862 1278.93 15.3864C1278.93 16.3162 1278.77 17.2255 1278.43 18.1142C1278.1 18.9947 1277.52 19.9781 1276.7 21.0643C1275.89 22.1422 1274.75 23.4589 1273.31 25.0141L1267.63 31.087V31.2845H1279.38V34H1263.43ZM1292.87 34.3456C1291.83 34.3292 1290.8 34.1317 1289.76 33.7531C1288.72 33.3746 1287.78 32.7369 1286.92 31.8399C1286.06 30.9348 1285.38 29.7128 1284.86 28.174C1284.34 26.627 1284.08 24.685 1284.08 22.348C1284.08 20.1097 1284.29 18.1266 1284.71 16.3985C1285.13 14.6622 1285.74 13.2016 1286.54 12.0167C1287.34 10.8235 1288.3 9.9183 1289.43 9.30113C1290.56 8.68397 1291.84 8.37539 1293.27 8.37539C1294.68 8.37539 1295.94 8.65929 1297.04 9.22708C1298.15 9.78664 1299.06 10.5684 1299.76 11.5723C1300.46 12.5762 1300.91 13.7324 1301.12 15.0408H1298.1C1297.82 13.9052 1297.28 12.963 1296.47 12.2141C1295.67 11.4653 1294.6 11.0909 1293.27 11.0909C1291.31 11.0909 1289.76 11.9426 1288.64 13.646C1287.52 15.3493 1286.95 17.7398 1286.95 20.8174H1287.14C1287.6 20.1179 1288.15 19.5214 1288.78 19.0276C1289.43 18.5257 1290.13 18.1389 1290.91 17.8674C1291.68 17.5958 1292.5 17.46 1293.36 17.46C1294.81 17.46 1296.14 17.8221 1297.34 18.5462C1298.54 19.2621 1299.5 20.2537 1300.23 21.521C1300.95 22.78 1301.31 24.2241 1301.31 25.8534C1301.31 27.4169 1300.96 28.8487 1300.26 30.1489C1299.56 31.4408 1298.58 32.4694 1297.31 33.2347C1296.05 33.9918 1294.57 34.3621 1292.87 34.3456ZM1292.87 31.6301C1293.91 31.6301 1294.84 31.3709 1295.66 30.8525C1296.49 30.3341 1297.15 29.6387 1297.62 28.7665C1298.11 27.8942 1298.35 26.9232 1298.35 25.8534C1298.35 24.8084 1298.12 23.858 1297.65 23.0022C1297.19 22.1381 1296.55 21.451 1295.73 20.9408C1294.93 20.4306 1294.01 20.1755 1292.97 20.1755C1292.19 20.1755 1291.46 20.3319 1290.78 20.6446C1290.11 20.9491 1289.52 21.3687 1289.01 21.9036C1288.5 22.4385 1288.11 23.0515 1287.82 23.7428C1287.53 24.4257 1287.39 25.1458 1287.39 25.9028C1287.39 26.9067 1287.62 27.8448 1288.09 28.7171C1288.57 29.5893 1289.22 30.2929 1290.04 30.8278C1290.87 31.3627 1291.82 31.6301 1292.87 31.6301ZM1312.44 21.3605C1312.44 24.471 1312.03 27.3346 1311.22 29.9514C1310.41 32.56 1309.25 34.9628 1307.75 37.1599H1305.18C1305.77 36.3452 1306.32 35.3413 1306.83 34.1481C1307.35 32.9632 1307.8 31.663 1308.19 30.2476C1308.58 28.8241 1308.88 27.3552 1309.09 25.8411C1309.31 24.3188 1309.43 22.8252 1309.43 21.3605C1309.43 19.402 1309.24 17.4148 1308.86 15.3987C1308.48 13.3826 1307.97 11.5106 1307.33 9.78252C1306.69 8.05447 1305.97 6.64733 1305.18 5.56113H1307.75C1309.25 7.75823 1310.41 10.1652 1311.22 12.7819C1312.03 15.3905 1312.44 18.25 1312.44 21.3605ZM1342.01 19.2868L1339.4 20.0274C1339.23 19.5913 1338.99 19.1675 1338.67 18.7561C1338.36 18.3364 1337.93 17.9908 1337.39 17.7192C1336.84 17.4477 1336.15 17.3119 1335.3 17.3119C1334.14 17.3119 1333.17 17.5793 1332.4 18.1142C1331.63 18.6409 1331.25 19.3115 1331.25 20.1262C1331.25 20.8503 1331.51 21.4222 1332.04 21.8419C1332.57 22.2616 1333.39 22.6113 1334.51 22.8911L1337.32 23.5823C1339.02 23.9937 1340.28 24.6232 1341.11 25.4708C1341.94 26.3101 1342.36 27.3922 1342.36 28.7171C1342.36 29.8033 1342.05 30.7743 1341.42 31.6301C1340.81 32.4859 1339.94 33.1607 1338.83 33.6544C1337.72 34.1481 1336.43 34.395 1334.95 34.395C1333.02 34.395 1331.42 33.9753 1330.15 33.136C1328.89 32.2966 1328.08 31.0705 1327.75 29.4577L1330.51 28.7665C1330.77 29.7868 1331.27 30.5521 1332 31.0623C1332.75 31.5725 1333.71 31.8276 1334.91 31.8276C1336.26 31.8276 1337.34 31.5396 1338.14 30.9636C1338.95 30.3793 1339.35 29.6799 1339.35 28.8652C1339.35 28.2069 1339.12 27.6556 1338.66 27.2112C1338.2 26.7586 1337.49 26.4212 1336.53 26.1991L1333.37 25.4585C1331.64 25.047 1330.36 24.4093 1329.55 23.5453C1328.74 22.673 1328.34 21.5827 1328.34 20.2743C1328.34 19.2045 1328.64 18.2582 1329.24 17.4353C1329.85 16.6125 1330.68 15.9665 1331.72 15.4975C1332.77 15.0284 1333.97 14.7939 1335.3 14.7939C1337.18 14.7939 1338.65 15.2053 1339.72 16.0282C1340.8 16.8511 1341.56 17.9373 1342.01 19.2868ZM1358.69 26.2484V15.0408H1361.61V34H1358.69V30.7908H1358.5C1358.05 31.7535 1357.36 32.5723 1356.42 33.2471C1355.48 33.9136 1354.3 34.2469 1352.87 34.2469C1351.68 34.2469 1350.63 33.9877 1349.71 33.4692C1348.79 32.9426 1348.06 32.1526 1347.54 31.0993C1347.01 30.0378 1346.75 28.7006 1346.75 27.0878V15.0408H1349.66V26.8903C1349.66 28.2727 1350.05 29.3754 1350.82 30.1983C1351.6 31.0212 1352.6 31.4326 1353.81 31.4326C1354.53 31.4326 1355.27 31.2475 1356.02 30.8772C1356.77 30.5069 1357.41 29.9391 1357.92 29.1738C1358.43 28.4085 1358.69 27.4334 1358.69 26.2484ZM1367.34 34V8.721H1370.25V18.0525H1370.5C1370.71 17.7234 1371.01 17.3037 1371.39 16.7935C1371.77 16.2751 1372.32 15.8143 1373.04 15.4111C1373.76 14.9996 1374.74 14.7939 1375.98 14.7939C1377.57 14.7939 1378.98 15.193 1380.2 15.9912C1381.42 16.7894 1382.37 17.9208 1383.05 19.3856C1383.73 20.8503 1384.07 22.5784 1384.07 24.5697C1384.07 26.5776 1383.73 28.318 1383.05 29.7909C1382.37 31.2557 1381.42 32.3913 1380.21 33.1977C1379 33.9959 1377.61 34.395 1376.03 34.395C1374.81 34.395 1373.83 34.1934 1373.1 33.7902C1372.37 33.3787 1371.81 32.9138 1371.41 32.3954C1371.02 31.8687 1370.71 31.4326 1370.5 31.087H1370.15V34H1367.34ZM1370.2 24.5204C1370.2 25.9522 1370.41 27.2153 1370.83 28.3098C1371.25 29.396 1371.86 30.2476 1372.67 30.8648C1373.48 31.4737 1374.46 31.7782 1375.63 31.7782C1376.85 31.7782 1377.87 31.4573 1378.68 30.8154C1379.5 30.1654 1380.12 29.2931 1380.53 28.1987C1380.95 27.096 1381.16 25.8699 1381.16 24.5204C1381.16 23.1873 1380.96 21.9859 1380.54 20.9161C1380.14 19.8382 1379.53 18.9865 1378.71 18.3611C1377.89 17.7275 1376.87 17.4107 1375.63 17.4107C1374.45 17.4107 1373.45 17.711 1372.64 18.3117C1371.84 18.9042 1371.23 19.7353 1370.82 20.8051C1370.41 21.8666 1370.2 23.105 1370.2 24.5204ZM1391.44 22.5948V34H1388.53V15.0408H1391.34V18.0031H1391.59C1392.04 17.0404 1392.71 16.2668 1393.62 15.6826C1394.52 15.0901 1395.69 14.7939 1397.12 14.7939C1398.41 14.7939 1399.53 15.0572 1400.49 15.5839C1401.45 16.1023 1402.2 16.8922 1402.74 17.9538C1403.27 19.0071 1403.54 20.3401 1403.54 21.953V34H1400.63V22.1505C1400.63 20.661 1400.24 19.5008 1399.47 18.6697C1398.69 17.8303 1397.63 17.4107 1396.28 17.4107C1395.35 17.4107 1394.52 17.6123 1393.79 18.0155C1393.06 18.4187 1392.49 19.0071 1392.07 19.7806C1391.65 20.5541 1391.44 21.4922 1391.44 22.5948ZM1416.81 34.395C1414.99 34.395 1413.41 33.9918 1412.08 33.1853C1410.77 32.3707 1409.75 31.2351 1409.04 29.7786C1408.33 28.3139 1407.97 26.6105 1407.97 24.6685C1407.97 22.7265 1408.33 21.0149 1409.04 19.5337C1409.75 18.0443 1410.75 16.884 1412.02 16.0529C1413.31 15.2136 1414.8 14.7939 1416.52 14.7939C1417.5 14.7939 1418.48 14.9585 1419.44 15.2876C1420.4 15.6168 1421.28 16.1516 1422.07 16.8922C1422.86 17.6246 1423.49 18.5956 1423.96 19.8053C1424.43 21.0149 1424.66 22.5043 1424.66 24.2735V25.5078H1410.05V22.9898H1421.7C1421.7 21.9201 1421.49 20.9655 1421.06 20.1262C1420.64 19.2868 1420.04 18.6244 1419.26 18.1389C1418.48 17.6534 1417.57 17.4107 1416.52 17.4107C1415.36 17.4107 1414.35 17.6987 1413.5 18.2747C1412.66 18.8425 1412.02 19.5831 1411.57 20.4965C1411.11 21.4099 1410.89 22.3891 1410.89 23.4342V25.1129C1410.89 26.5447 1411.13 27.7584 1411.63 28.7541C1412.13 29.7416 1412.82 30.4945 1413.71 31.0129C1414.6 31.5231 1415.64 31.7782 1416.81 31.7782C1417.58 31.7782 1418.27 31.6712 1418.89 31.4573C1419.51 31.2351 1420.05 30.906 1420.5 30.4698C1420.96 30.0255 1421.3 29.4741 1421.55 28.8158L1424.37 29.6058C1424.07 30.5603 1423.57 31.3997 1422.87 32.1238C1422.17 32.8397 1421.31 33.3993 1420.28 33.8025C1419.25 34.1975 1418.1 34.395 1416.81 34.395ZM1437.34 15.0408V17.5094H1427.51V15.0408H1437.34ZM1430.38 10.4984H1433.29V28.569C1433.29 29.3918 1433.41 30.009 1433.65 30.4205C1433.89 30.8237 1434.21 31.0952 1434.59 31.2351C1434.97 31.3668 1435.38 31.4326 1435.81 31.4326C1436.13 31.4326 1436.39 31.4161 1436.6 31.3832C1436.8 31.3421 1436.97 31.3092 1437.09 31.2845L1437.68 33.9013C1437.49 33.9753 1437.21 34.0494 1436.86 34.1234C1436.5 34.2057 1436.05 34.2469 1435.51 34.2469C1434.69 34.2469 1433.88 34.0699 1433.09 33.7161C1432.31 33.3623 1431.66 32.8233 1431.14 32.0991C1430.63 31.375 1430.38 30.4616 1430.38 29.3589V10.4984ZM1445.52 26.8903V26.7422C1445.54 25.1705 1445.7 23.9197 1446.02 22.9898C1446.33 22.06 1446.77 21.307 1447.35 20.731C1447.93 20.155 1448.62 19.6242 1449.42 19.1387C1449.91 18.8425 1450.34 18.4927 1450.73 18.0895C1451.12 17.6781 1451.42 17.2049 1451.64 16.6701C1451.87 16.1352 1451.99 15.5427 1451.99 14.8926C1451.99 14.0862 1451.8 13.3868 1451.42 12.7943C1451.04 12.2018 1450.54 11.7451 1449.9 11.4242C1449.27 11.1033 1448.57 10.9428 1447.79 10.9428C1447.12 10.9428 1446.47 11.0827 1445.84 11.3625C1445.22 11.6422 1444.7 12.0825 1444.28 12.6832C1443.86 13.2839 1443.61 14.0697 1443.55 15.0408H1440.44C1440.5 13.6418 1440.86 12.4446 1441.52 11.4489C1442.19 10.4532 1443.07 9.69201 1444.15 9.16536C1445.25 8.63871 1446.46 8.37539 1447.79 8.37539C1449.24 8.37539 1450.5 8.6634 1451.57 9.23942C1452.65 9.81544 1453.48 10.6054 1454.06 11.6093C1454.66 12.6132 1454.95 13.7571 1454.95 15.0408C1454.95 15.9459 1454.81 16.7647 1454.53 17.4971C1454.26 18.2294 1453.87 18.8836 1453.35 19.4596C1452.84 20.0357 1452.22 20.5458 1451.5 20.9902C1450.77 21.4428 1450.19 21.9201 1449.76 22.422C1449.32 22.9158 1449 23.5041 1448.81 24.1871C1448.61 24.8701 1448.5 25.7218 1448.48 26.7422V26.8903H1445.52ZM1447.1 34.1975C1446.49 34.1975 1445.97 33.9794 1445.53 33.5433C1445.1 33.1072 1444.88 32.5846 1444.88 31.9757C1444.88 31.3668 1445.1 30.8442 1445.53 30.4081C1445.97 29.972 1446.49 29.7539 1447.1 29.7539C1447.71 29.7539 1448.23 29.972 1448.67 30.4081C1449.11 30.8442 1449.32 31.3668 1449.32 31.9757C1449.32 32.3789 1449.22 32.7492 1449.02 33.0866C1448.82 33.424 1448.55 33.6955 1448.21 33.9013C1447.88 34.0987 1447.51 34.1975 1447.1 34.1975Z" fill="#F1F1F1"/>
<defs>
<clipPath id="clip0_579_16268">
<rect width="42" height="42" fill="white"/>
</clipPath>
</defs>
</svg>
