<svg width="52" height="23" viewBox="0 0 52 23" fill="none" xmlns="http://www.w3.org/2000/svg">
<path d="M13.0455 6C12.858 5.42614 12.6108 4.91193 12.304 4.45739C12.0028 3.99716 11.642 3.60511 11.2216 3.28125C10.8068 2.95739 10.3352 2.71023 9.80682 2.53977C9.27841 2.36932 8.69886 2.28409 8.06818 2.28409C7.03409 2.28409 6.09375 2.55114 5.24716 3.08523C4.40057 3.61932 3.72727 4.40625 3.22727 5.44602C2.72727 6.4858 2.47727 7.76136 2.47727 9.27273C2.47727 10.7841 2.73011 12.0597 3.2358 13.0994C3.74148 14.1392 4.42614 14.9261 5.28977 15.4602C6.15341 15.9943 7.125 16.2614 8.20455 16.2614C9.20455 16.2614 10.0852 16.0483 10.8466 15.6222C11.6136 15.1903 12.2102 14.5824 12.6364 13.7983C13.0682 13.0085 13.2841 12.0795 13.2841 11.0114L13.9318 11.1477H8.68182V9.27273H15.3295V11.1477C15.3295 12.5852 15.0227 13.8352 14.4091 14.8977C13.8011 15.9602 12.9602 16.7841 11.8864 17.3693C10.8182 17.9489 9.59091 18.2386 8.20455 18.2386C6.65909 18.2386 5.30114 17.875 4.13068 17.1477C2.96591 16.4205 2.05682 15.3864 1.40341 14.0455C0.755682 12.7045 0.431818 11.1136 0.431818 9.27273C0.431818 7.89205 0.616477 6.65057 0.985795 5.54829C1.3608 4.44034 1.8892 3.49716 2.57102 2.71875C3.25284 1.94034 4.05966 1.34375 4.99148 0.928977C5.9233 0.514204 6.94886 0.306818 8.06818 0.306818C8.98864 0.306818 9.84659 0.446022 10.642 0.724431C11.4432 0.997158 12.1562 1.38636 12.7812 1.89204C13.4119 2.39204 13.9375 2.99148 14.358 3.69034C14.7784 4.38352 15.0682 5.15341 15.2273 6H13.0455ZM18.6768 18V4.90909H20.62V6.88636H20.7564C20.995 6.23864 21.4268 5.71307 22.0518 5.30966C22.6768 4.90625 23.3814 4.70454 24.1655 4.70454C24.3132 4.70454 24.4979 4.70739 24.7195 4.71307C24.9411 4.71875 25.1087 4.72727 25.2223 4.73864V6.78409C25.1541 6.76705 24.9979 6.74148 24.7536 6.70739C24.5149 6.66761 24.2621 6.64773 23.995 6.64773C23.3587 6.64773 22.7905 6.78125 22.2905 7.0483C21.7962 7.30966 21.4041 7.6733 21.1143 8.1392C20.8303 8.59943 20.6882 9.125 20.6882 9.71591V18H18.6768ZM32.6967 18.2727C31.4354 18.2727 30.3473 17.9943 29.4325 17.4375C28.5234 16.875 27.8217 16.0909 27.3274 15.0852C26.8388 14.0739 26.5945 12.8977 26.5945 11.5568C26.5945 10.2159 26.8388 9.03409 27.3274 8.01136C27.8217 6.98295 28.5092 6.18182 29.3899 5.60795C30.2763 5.02841 31.3104 4.73864 32.4922 4.73864C33.174 4.73864 33.8473 4.85227 34.5121 5.07954C35.1768 5.30682 35.782 5.67614 36.3274 6.1875C36.8729 6.69318 37.3075 7.36364 37.6314 8.19886C37.9553 9.03409 38.1172 10.0625 38.1172 11.2841V12.1364H28.0263V10.3977H36.0717C36.0717 9.65909 35.924 9 35.6286 8.42045C35.3388 7.84091 34.924 7.38352 34.3842 7.0483C33.8501 6.71307 33.2195 6.54545 32.4922 6.54545C31.6911 6.54545 30.9979 6.74432 30.4126 7.14205C29.8331 7.53409 29.3871 8.04545 29.0746 8.67614C28.7621 9.30682 28.6058 9.98295 28.6058 10.7045V11.8636C28.6058 12.8523 28.7763 13.6903 29.1172 14.3778C29.4638 15.0597 29.9439 15.5795 30.5575 15.9375C31.1712 16.2898 31.8842 16.4659 32.6967 16.4659C33.2251 16.4659 33.7024 16.392 34.1286 16.2443C34.5604 16.0909 34.9325 15.8636 35.245 15.5625C35.5575 15.2557 35.799 14.875 35.9695 14.4205L37.9126 14.9659C37.7081 15.625 37.3643 16.2045 36.8814 16.7045C36.3984 17.1989 35.8018 17.5852 35.0916 17.8636C34.3814 18.1364 33.5831 18.2727 32.6967 18.2727ZM42.0739 22.9091C41.733 22.9091 41.429 22.8807 41.1619 22.8239C40.8949 22.7727 40.7102 22.7216 40.608 22.6705L41.1193 20.8977C41.608 21.0227 42.0398 21.0682 42.4148 21.0341C42.7898 21 43.1222 20.8324 43.4119 20.5312C43.7074 20.2358 43.9773 19.7557 44.2216 19.0909L44.5966 18.0682L39.7557 4.90909H41.9375L45.5511 15.3409H45.6875L49.3011 4.90909H51.483L45.9261 19.9091C45.6761 20.5852 45.3665 21.1449 44.9972 21.5881C44.6278 22.0369 44.1989 22.3693 43.7102 22.5852C43.2273 22.8011 42.6818 22.9091 42.0739 22.9091Z" fill="#F1F1F1"/>
</svg>
