<svg width="1441" height="129" viewBox="0 0 1441 129" fill="none" xmlns="http://www.w3.org/2000/svg">
<path d="M5.11364 71V24.4545H34.2955V30.5H12.1364V44.6818H32.7727V50.7045H12.1364V64.9545H34.5682V71H5.11364ZM67.8818 44.6136L61.7227 45.7045C61.4651 44.9167 61.056 44.1667 60.4954 43.4545C59.95 42.7424 59.2075 42.1591 58.2681 41.7045C57.3287 41.25 56.1545 41.0227 54.7454 41.0227C52.8212 41.0227 51.2151 41.4545 49.9272 42.3182C48.6393 43.1667 47.9954 44.2652 47.9954 45.6136C47.9954 46.7803 48.4272 47.7197 49.2909 48.4318C50.1545 49.1439 51.5484 49.7273 53.4727 50.1818L59.0181 51.4545C62.2303 52.197 64.6242 53.3409 66.2 54.8864C67.7757 56.4318 68.5636 58.4394 68.5636 60.9091C68.5636 63 67.9575 64.8636 66.7454 66.5C65.5484 68.1212 63.8742 69.3939 61.7227 70.3182C59.5863 71.2424 57.109 71.7045 54.2909 71.7045C50.3818 71.7045 47.1924 70.8712 44.7227 69.2045C42.253 67.5227 40.7378 65.1364 40.1772 62.0455L46.7454 61.0455C47.1545 62.7576 47.9954 64.053 49.2681 64.9318C50.5409 65.7955 52.2 66.2273 54.2454 66.2273C56.4727 66.2273 58.253 65.7652 59.5863 64.8409C60.9197 63.9015 61.5863 62.7576 61.5863 61.4091C61.5863 60.3182 61.1772 59.4015 60.359 58.6591C59.556 57.9167 58.3212 57.3561 56.6545 56.9773L50.7454 55.6818C47.4878 54.9394 45.0787 53.7576 43.5181 52.1364C41.9727 50.5152 41.2 48.4621 41.2 45.9773C41.2 43.9167 41.7757 42.1136 42.9272 40.5682C44.0787 39.0227 45.6697 37.8182 47.7 36.9545C49.7303 36.0758 52.056 35.6364 54.6772 35.6364C58.45 35.6364 61.4197 36.4545 63.5863 38.0909C65.753 39.7121 67.1848 41.8864 67.8818 44.6136ZM100.786 44.6136L94.6272 45.7045C94.3696 44.9167 93.9605 44.1667 93.3999 43.4545C92.8545 42.7424 92.112 42.1591 91.1726 41.7045C90.2332 41.25 89.059 41.0227 87.6499 41.0227C85.7257 41.0227 84.1196 41.4545 82.8317 42.3182C81.5438 43.1667 80.8999 44.2652 80.8999 45.6136C80.8999 46.7803 81.3317 47.7197 82.1954 48.4318C83.059 49.1439 84.4529 49.7273 86.3772 50.1818L91.9226 51.4545C95.1348 52.197 97.5287 53.3409 99.1045 54.8864C100.68 56.4318 101.468 58.4394 101.468 60.9091C101.468 63 100.862 64.8636 99.6499 66.5C98.4529 68.1212 96.7787 69.3939 94.6272 70.3182C92.4908 71.2424 90.0135 71.7045 87.1954 71.7045C83.2863 71.7045 80.0969 70.8712 77.6272 69.2045C75.1575 67.5227 73.6423 65.1364 73.0817 62.0455L79.6499 61.0455C80.059 62.7576 80.8999 64.053 82.1726 64.9318C83.4454 65.7955 85.1045 66.2273 87.1499 66.2273C89.3772 66.2273 91.1575 65.7652 92.4908 64.8409C93.8241 63.9015 94.4908 62.7576 94.4908 61.4091C94.4908 60.3182 94.0817 59.4015 93.2635 58.6591C92.4605 57.9167 91.2257 57.3561 89.559 56.9773L83.6499 55.6818C80.3923 54.9394 77.9832 53.7576 76.4226 52.1364C74.8772 50.5152 74.1045 48.4621 74.1045 45.9773C74.1045 43.9167 74.6802 42.1136 75.8317 40.5682C76.9832 39.0227 78.5741 37.8182 80.6045 36.9545C82.6348 36.0758 84.9605 35.6364 87.5817 35.6364C91.3545 35.6364 94.3242 36.4545 96.4908 38.0909C98.6575 39.7121 100.089 41.8864 100.786 44.6136ZM122.577 71.7045C119.138 71.7045 116.176 70.9697 113.691 69.5C111.221 68.0152 109.312 65.9318 107.964 63.25C106.63 60.553 105.964 57.3939 105.964 53.7727C105.964 50.197 106.63 47.0455 107.964 44.3182C109.312 41.5909 111.191 39.4621 113.6 37.9318C116.024 36.4015 118.857 35.6364 122.1 35.6364C124.07 35.6364 125.979 35.9621 127.827 36.6136C129.676 37.2652 131.335 38.2879 132.804 39.6818C134.274 41.0758 135.433 42.8864 136.282 45.1136C137.13 47.3258 137.554 50.0152 137.554 53.1818V55.5909H109.804V50.5H130.895C130.895 48.7121 130.532 47.1288 129.804 45.75C129.077 44.3561 128.054 43.2576 126.736 42.4545C125.433 41.6515 123.903 41.25 122.145 41.25C120.236 41.25 118.57 41.7197 117.145 42.6591C115.736 43.5833 114.645 44.7955 113.873 46.2955C113.115 47.7803 112.736 49.3939 112.736 51.1364V55.1136C112.736 57.447 113.145 59.4318 113.964 61.0682C114.797 62.7045 115.956 63.9545 117.441 64.8182C118.926 65.6667 120.66 66.0909 122.645 66.0909C123.933 66.0909 125.107 65.9091 126.168 65.5455C127.229 65.1667 128.145 64.6061 128.918 63.8636C129.691 63.1212 130.282 62.2045 130.691 61.1136L137.123 62.2727C136.607 64.1667 135.683 65.8258 134.35 67.25C133.032 68.6591 131.373 69.7576 129.373 70.5455C127.388 71.3182 125.123 71.7045 122.577 71.7045ZM150.482 50.2727V71H143.686V36.0909H150.209V41.7727H150.641C151.444 39.9242 152.701 38.4394 154.413 37.3182C156.141 36.197 158.315 35.6364 160.936 35.6364C163.315 35.6364 165.398 36.1364 167.186 37.1364C168.974 38.1212 170.36 39.5909 171.345 41.5455C172.33 43.5 172.823 45.9167 172.823 48.7955V71H166.027V49.6136C166.027 47.0833 165.368 45.1061 164.05 43.6818C162.732 42.2424 160.921 41.5227 158.618 41.5227C157.042 41.5227 155.641 41.8636 154.413 42.5455C153.201 43.2273 152.239 44.2273 151.527 45.5455C150.83 46.8485 150.482 48.4242 150.482 50.2727ZM196.824 36.0909V41.5455H177.755V36.0909H196.824ZM182.869 27.7273H189.665V60.75C189.665 62.0682 189.862 63.0606 190.255 63.7273C190.649 64.3788 191.157 64.8258 191.778 65.0682C192.415 65.2955 193.104 65.4091 193.846 65.4091C194.392 65.4091 194.869 65.3712 195.278 65.2955C195.687 65.2197 196.005 65.1591 196.233 65.1136L197.46 70.7273C197.066 70.8788 196.505 71.0303 195.778 71.1818C195.051 71.3485 194.142 71.4394 193.051 71.4545C191.263 71.4848 189.596 71.1667 188.051 70.5C186.505 69.8333 185.255 68.803 184.301 67.4091C183.346 66.0152 182.869 64.2652 182.869 62.1591V27.7273ZM202.933 71V36.0909H209.728V71H202.933ZM206.365 30.7045C205.183 30.7045 204.168 30.3106 203.319 29.5227C202.486 28.7197 202.069 27.7651 202.069 26.6591C202.069 25.5379 202.486 24.5833 203.319 23.7955C204.168 22.9924 205.183 22.5909 206.365 22.5909C207.546 22.5909 208.554 22.9924 209.387 23.7955C210.236 24.5833 210.66 25.5379 210.66 26.6591C210.66 27.7651 210.236 28.7197 209.387 29.5227C208.554 30.3106 207.546 30.7045 206.365 30.7045ZM227.621 71.7727C225.409 71.7727 223.409 71.3636 221.621 70.5455C219.833 69.7121 218.417 68.5076 217.371 66.9318C216.341 65.3561 215.826 63.4242 215.826 61.1364C215.826 59.1667 216.205 57.5455 216.962 56.2727C217.72 55 218.742 53.9924 220.03 53.25C221.318 52.5076 222.758 51.947 224.349 51.5682C225.939 51.1894 227.561 50.9015 229.212 50.7045C231.303 50.4621 233 50.2652 234.303 50.1136C235.606 49.947 236.553 49.6818 237.144 49.3182C237.735 48.9545 238.03 48.3636 238.03 47.5455V47.3864C238.03 45.4015 237.47 43.8636 236.349 42.7727C235.242 41.6818 233.591 41.1364 231.394 41.1364C229.106 41.1364 227.303 41.6439 225.985 42.6591C224.682 43.6591 223.78 44.7727 223.28 46L216.894 44.5455C217.652 42.4242 218.758 40.7121 220.212 39.4091C221.682 38.0909 223.371 37.1364 225.28 36.5455C227.189 35.9394 229.197 35.6364 231.303 35.6364C232.697 35.6364 234.174 35.803 235.735 36.1364C237.311 36.4545 238.78 37.0455 240.144 37.9091C241.523 38.7727 242.652 40.0076 243.53 41.6136C244.409 43.2045 244.849 45.2727 244.849 47.8182V71H238.212V66.2273H237.939C237.5 67.1061 236.841 67.9697 235.962 68.8182C235.083 69.6667 233.955 70.3712 232.576 70.9318C231.197 71.4924 229.546 71.7727 227.621 71.7727ZM229.099 66.3182C230.977 66.3182 232.583 65.947 233.917 65.2045C235.265 64.4621 236.288 63.4924 236.985 62.2955C237.697 61.0833 238.053 59.7879 238.053 58.4091V53.9091C237.811 54.1515 237.341 54.3788 236.644 54.5909C235.962 54.7879 235.182 54.9621 234.303 55.1136C233.424 55.25 232.568 55.3788 231.735 55.5C230.902 55.6061 230.205 55.697 229.644 55.7727C228.326 55.9394 227.121 56.2197 226.03 56.6136C224.955 57.0076 224.091 57.5758 223.439 58.3182C222.803 59.0455 222.485 60.0152 222.485 61.2273C222.485 62.9091 223.106 64.1818 224.349 65.0455C225.591 65.8939 227.174 66.3182 229.099 66.3182ZM259.287 24.4545V71H252.492V24.4545H259.287Z" fill="white"/>
<rect y="112.273" width="1441" height="16" rx="3" fill="#0D99FF"/>
</svg>
