<svg width="250" height="29" viewBox="0 0 250 29" fill="none" xmlns="http://www.w3.org/2000/svg">
<path d="M117.233 26V15.8182H123.338V16.9119H118.466V20.3523H122.881V21.446H118.466V26H117.233ZM125.291 26V18.3636H126.464V26H125.291ZM125.887 17.0909C125.659 17.0909 125.461 17.013 125.296 16.8572C125.133 16.7015 125.052 16.5142 125.052 16.2955C125.052 16.0767 125.133 15.8894 125.296 15.7337C125.461 15.5779 125.659 15.5 125.887 15.5C126.116 15.5 126.311 15.5779 126.474 15.7337C126.64 15.8894 126.722 16.0767 126.722 16.2955C126.722 16.5142 126.64 16.7015 126.474 16.8572C126.311 17.013 126.116 17.0909 125.887 17.0909ZM129.786 15.8182V26H128.613V15.8182H129.786ZM133.108 15.8182V26H131.935V15.8182H133.108Z" fill="#F1F1F1"/>
<line x1="0.5" y1="-2.18557e-08" x2="0.500001" y2="12" stroke="#334A5F"/>
<line x1="249.5" y1="-2.03635e-08" x2="249.5" y2="12" stroke="#334A5F"/>
<path d="M1.07324 5.5C0.7971 5.5 0.573242 5.72386 0.573242 6C0.573242 6.27614 0.7971 6.5 1.07324 6.5L1.07324 5.5ZM1.07324 6.5L249 6.50002L249 5.50002L1.07324 5.5L1.07324 6.5Z" fill="#334A5F"/>
</svg>
