<svg width="250" height="29" viewBox="0 0 250 29" fill="none" xmlns="http://www.w3.org/2000/svg">
<path d="M116.233 26V15.8182H122.338V16.9119H117.466V20.3523H121.881V21.446H117.466V26H116.233ZM124.291 26V18.3636H125.464V26H124.291ZM124.887 17.0909C124.659 17.0909 124.461 17.013 124.296 16.8572C124.133 16.7015 124.052 16.5142 124.052 16.2955C124.052 16.0767 124.133 15.8894 124.296 15.7337C124.461 15.5779 124.659 15.5 124.887 15.5C125.116 15.5 125.311 15.5779 125.474 15.7337C125.64 15.8894 125.722 16.0767 125.722 16.2955C125.722 16.5142 125.64 16.7015 125.474 16.8572C125.311 17.013 125.116 17.0909 124.887 17.0909ZM128.786 15.8182V26H127.613V15.8182H128.786ZM132.108 15.8182V26H130.935V15.8182H132.108Z" fill="#F1F1F1"/>
<line x1="0.5" y1="-2.18557e-08" x2="0.500001" y2="12" stroke="#334A5F"/>
<line x1="249.5" y1="-2.03635e-08" x2="249.5" y2="12" stroke="#334A5F"/>
<path d="M1.07324 5.5C0.7971 5.5 0.573242 5.72386 0.573242 6C0.573242 6.27614 0.7971 6.5 1.07324 6.5L1.07324 5.5ZM1.07324 6.5L249 6.50002L249 5.50002L1.07324 5.5L1.07324 6.5Z" fill="#334A5F"/>
</svg>
