<svg width="767" height="53" viewBox="0 0 767 53" fill="none" xmlns="http://www.w3.org/2000/svg">
<rect y="1" width="249" height="44" rx="4" fill="#334A5F"/>
<g clip-path="url(#clip0_294_35906)">
<path d="M82.278 18H76.722C75.4948 18 74.5 18.9948 74.5 20.222V25.778C74.5 27.0052 75.4948 28 76.722 28H82.278C83.5052 28 84.5 27.0052 84.5 25.778V20.221C84.4996 18.9942 83.5048 18.0001 82.278 18Z" stroke="#F1F1F1" stroke-width="1.5" stroke-linecap="round" stroke-linejoin="round"/>
<path d="M78.0302 21.1376C78.1388 21.2461 78.1388 21.4221 78.0303 21.5307C77.9218 21.6393 77.7458 21.6394 77.6372 21.5309C77.5286 21.4224 77.5285 21.2463 77.637 21.1377C77.7458 21.0298 77.9214 21.0297 78.0302 21.1376Z" stroke="#F1F1F1" stroke-width="1.5" stroke-linecap="round" stroke-linejoin="round"/>
<path d="M77.5 32H81.5" stroke="#F1F1F1" stroke-width="1.5" stroke-linecap="round" stroke-linejoin="round"/>
<path d="M77.5 14H81.5" stroke="#F1F1F1" stroke-width="1.5" stroke-linecap="round" stroke-linejoin="round"/>
<path d="M70.5 21V25" stroke="#F1F1F1" stroke-width="1.5" stroke-linecap="round" stroke-linejoin="round"/>
<path d="M88.5 21V25" stroke="#F1F1F1" stroke-width="1.5" stroke-linecap="round" stroke-linejoin="round"/>
<path d="M74.5 32V32C72.2909 32 70.5 30.2091 70.5 28V28" stroke="#F1F1F1" stroke-width="1.5" stroke-linecap="round" stroke-linejoin="round"/>
<path d="M74.5 32V32C72.2909 32 70.5 30.2091 70.5 28V28" stroke="#F1F1F1" stroke-width="1.5" stroke-linecap="round" stroke-linejoin="round"/>
<path d="M84.5 14C86.7091 14 88.5 15.7909 88.5 18M70.5 18C70.5 15.7909 72.2909 14 74.5 14M88.5 28C88.5 30.2091 86.7091 32 84.5 32M84.5 22.5C84.2683 22.4648 84.0344 22.4461 83.8 22.444C81.137 22.4251 78.9628 24.5686 78.9439 27.2317C78.9421 27.4889 78.9608 27.7458 79 28" stroke="#F1F1F1" stroke-width="1.5" stroke-linecap="round" stroke-linejoin="round"/>
</g>
<path d="M99.7614 29H97.8977L102.085 17.3636H104.114L108.301 29H106.438L103.148 19.4773H103.057L99.7614 29ZM100.074 24.4432H106.119V25.9205H100.074V24.4432ZM112.972 29.1705C112.267 29.1705 111.638 28.9905 111.085 28.6307C110.536 28.267 110.104 27.75 109.79 27.0795C109.479 26.4053 109.324 25.5966 109.324 24.6534C109.324 23.7102 109.481 22.9034 109.795 22.233C110.114 21.5625 110.549 21.0492 111.102 20.6932C111.655 20.3371 112.282 20.1591 112.983 20.1591C113.525 20.1591 113.96 20.25 114.29 20.4318C114.623 20.6098 114.881 20.8182 115.062 21.0568C115.248 21.2955 115.392 21.5057 115.494 21.6875H115.597V17.3636H117.295V29H115.636V27.642H115.494C115.392 27.8277 115.244 28.0398 115.051 28.2784C114.862 28.517 114.6 28.7254 114.267 28.9034C113.934 29.0814 113.502 29.1705 112.972 29.1705ZM113.347 27.7216C113.835 27.7216 114.248 27.5928 114.585 27.3352C114.926 27.0739 115.184 26.7121 115.358 26.25C115.536 25.7879 115.625 25.25 115.625 24.6364C115.625 24.0303 115.538 23.5 115.364 23.0455C115.189 22.5909 114.934 22.2367 114.597 21.983C114.259 21.7292 113.843 21.6023 113.347 21.6023C112.835 21.6023 112.409 21.7348 112.068 22C111.727 22.2652 111.47 22.6269 111.295 23.0852C111.125 23.5436 111.04 24.0606 111.04 24.6364C111.04 25.2197 111.127 25.7443 111.301 26.2102C111.475 26.6761 111.733 27.0455 112.074 27.3182C112.419 27.5871 112.843 27.7216 113.347 27.7216ZM122.987 29.1705C122.283 29.1705 121.654 28.9905 121.101 28.6307C120.552 28.267 120.12 27.75 119.805 27.0795C119.495 26.4053 119.339 25.5966 119.339 24.6534C119.339 23.7102 119.497 22.9034 119.811 22.233C120.129 21.5625 120.565 21.0492 121.118 20.6932C121.671 20.3371 122.298 20.1591 122.999 20.1591C123.54 20.1591 123.976 20.25 124.305 20.4318C124.639 20.6098 124.896 20.8182 125.078 21.0568C125.264 21.2955 125.408 21.5057 125.51 21.6875H125.612V17.3636H127.311V29H125.652V27.642H125.51C125.408 27.8277 125.26 28.0398 125.067 28.2784C124.877 28.517 124.616 28.7254 124.283 28.9034C123.949 29.0814 123.518 29.1705 122.987 29.1705ZM123.362 27.7216C123.851 27.7216 124.264 27.5928 124.601 27.3352C124.942 27.0739 125.199 26.7121 125.374 26.25C125.552 25.7879 125.641 25.25 125.641 24.6364C125.641 24.0303 125.554 23.5 125.379 23.0455C125.205 22.5909 124.949 22.2367 124.612 21.983C124.275 21.7292 123.858 21.6023 123.362 21.6023C122.851 21.6023 122.425 21.7348 122.084 22C121.743 22.2652 121.485 22.6269 121.311 23.0852C121.141 23.5436 121.055 24.0606 121.055 24.6364C121.055 25.2197 121.143 25.7443 121.317 26.2102C121.491 26.6761 121.749 27.0455 122.089 27.3182C122.434 27.5871 122.858 27.7216 123.362 27.7216ZM133.97 29V20.2727H135.669V29H133.97ZM134.828 18.9261C134.533 18.9261 134.279 18.8277 134.067 18.6307C133.858 18.4299 133.754 18.1913 133.754 17.9148C133.754 17.6345 133.858 17.3958 134.067 17.1989C134.279 16.9981 134.533 16.8977 134.828 16.8977C135.124 16.8977 135.375 16.9981 135.584 17.1989C135.796 17.3958 135.902 17.6345 135.902 17.9148C135.902 18.1913 135.796 18.4299 135.584 18.6307C135.375 18.8277 135.124 18.9261 134.828 18.9261ZM137.955 29V20.2727H139.585V21.6932H139.693C139.875 21.2121 140.172 20.8371 140.585 20.5682C140.998 20.2955 141.492 20.1591 142.068 20.1591C142.652 20.1591 143.14 20.2955 143.534 20.5682C143.932 20.8409 144.225 21.2159 144.415 21.6932H144.506C144.714 21.2273 145.045 20.8561 145.5 20.5795C145.955 20.2992 146.496 20.1591 147.125 20.1591C147.917 20.1591 148.562 20.4072 149.062 20.9034C149.566 21.3996 149.818 22.1477 149.818 23.1477V29H148.119V23.3068C148.119 22.7159 147.958 22.2879 147.636 22.0227C147.314 21.7576 146.93 21.625 146.483 21.625C145.93 21.625 145.5 21.7955 145.193 22.1364C144.886 22.4735 144.733 22.9072 144.733 23.4375V29H143.04V23.1989C143.04 22.7254 142.892 22.3447 142.597 22.0568C142.301 21.7689 141.917 21.625 141.443 21.625C141.121 21.625 140.824 21.7102 140.551 21.8807C140.282 22.0473 140.064 22.2803 139.898 22.5795C139.735 22.8788 139.653 23.2254 139.653 23.6193V29H137.955ZM154.635 29.1932C154.082 29.1932 153.582 29.0909 153.135 28.8864C152.688 28.678 152.334 28.3769 152.072 27.983C151.815 27.589 151.686 27.1061 151.686 26.5341C151.686 26.0417 151.781 25.6364 151.97 25.3182C152.16 25 152.415 24.7481 152.737 24.5625C153.059 24.3769 153.419 24.2367 153.817 24.142C154.214 24.0473 154.62 23.9754 155.033 23.9261C155.555 23.8655 155.98 23.8163 156.305 23.7784C156.631 23.7367 156.868 23.6705 157.016 23.5795C157.163 23.4886 157.237 23.3409 157.237 23.1364V23.0966C157.237 22.6004 157.097 22.2159 156.817 21.9432C156.54 21.6705 156.127 21.5341 155.578 21.5341C155.006 21.5341 154.555 21.661 154.226 21.9148C153.9 22.1648 153.675 22.4432 153.55 22.75L151.953 22.3864C152.143 21.8561 152.419 21.428 152.783 21.1023C153.15 20.7727 153.572 20.5341 154.05 20.3864C154.527 20.2348 155.029 20.1591 155.555 20.1591C155.904 20.1591 156.273 20.2008 156.663 20.2841C157.057 20.3636 157.425 20.5114 157.766 20.7273C158.11 20.9432 158.393 21.2519 158.612 21.6534C158.832 22.0511 158.942 22.5682 158.942 23.2045V29H157.283V27.8068H157.214C157.105 28.0265 156.94 28.2424 156.72 28.4545C156.5 28.6667 156.218 28.8428 155.874 28.983C155.529 29.1231 155.116 29.1932 154.635 29.1932ZM155.004 27.8295C155.474 27.8295 155.875 27.7367 156.209 27.5511C156.546 27.3655 156.802 27.1231 156.976 26.8239C157.154 26.5208 157.243 26.197 157.243 25.8523V24.7273C157.182 24.7879 157.065 24.8447 156.891 24.8977C156.72 24.947 156.525 24.9905 156.305 25.0284C156.086 25.0625 155.872 25.0947 155.663 25.125C155.455 25.1515 155.281 25.1742 155.141 25.1932C154.811 25.2348 154.51 25.3049 154.237 25.4034C153.968 25.5019 153.752 25.6439 153.589 25.8295C153.43 26.0114 153.351 26.2538 153.351 26.5568C153.351 26.9773 153.506 27.2955 153.817 27.5114C154.127 27.7235 154.523 27.8295 155.004 27.8295ZM164.864 32.4545C164.17 32.4545 163.574 32.3636 163.074 32.1818C162.578 32 162.172 31.7595 161.858 31.4602C161.544 31.161 161.309 30.8333 161.153 30.4773L162.614 29.875C162.716 30.0417 162.852 30.2178 163.023 30.4034C163.197 30.5928 163.432 30.7538 163.727 30.8864C164.027 31.0189 164.411 31.0852 164.881 31.0852C165.525 31.0852 166.057 30.928 166.477 30.6136C166.898 30.303 167.108 29.8068 167.108 29.125V27.4091H167C166.898 27.5947 166.75 27.8011 166.557 28.0284C166.367 28.2557 166.106 28.4527 165.773 28.6193C165.439 28.786 165.006 28.8693 164.472 28.8693C163.782 28.8693 163.161 28.7083 162.608 28.3864C162.059 28.0606 161.623 27.5814 161.301 26.9489C160.983 26.3125 160.824 25.5303 160.824 24.6023C160.824 23.6742 160.981 22.8788 161.295 22.2159C161.614 21.553 162.049 21.0455 162.602 20.6932C163.155 20.3371 163.782 20.1591 164.483 20.1591C165.025 20.1591 165.462 20.25 165.795 20.4318C166.129 20.6098 166.388 20.8182 166.574 21.0568C166.763 21.2955 166.909 21.5057 167.011 21.6875H167.136V20.2727H168.801V29.1932C168.801 29.9432 168.627 30.5587 168.278 31.0398C167.93 31.5208 167.458 31.8769 166.864 32.108C166.273 32.339 165.606 32.4545 164.864 32.4545ZM164.847 27.4602C165.335 27.4602 165.748 27.3466 166.085 27.1193C166.426 26.8883 166.684 26.5587 166.858 26.1307C167.036 25.6989 167.125 25.1818 167.125 24.5795C167.125 23.9924 167.038 23.4754 166.864 23.0284C166.689 22.5814 166.434 22.233 166.097 21.983C165.759 21.7292 165.343 21.6023 164.847 21.6023C164.335 21.6023 163.909 21.7348 163.568 22C163.227 22.2614 162.97 22.6174 162.795 23.0682C162.625 23.5189 162.54 24.0227 162.54 24.5795C162.54 25.1515 162.627 25.6534 162.801 26.0852C162.975 26.517 163.233 26.8542 163.574 27.0966C163.919 27.339 164.343 27.4602 164.847 27.4602ZM174.841 29.1761C173.981 29.1761 173.241 28.9924 172.619 28.625C172.002 28.2538 171.525 27.733 171.188 27.0625C170.854 26.3883 170.688 25.5985 170.688 24.6932C170.688 23.7992 170.854 23.0114 171.188 22.3295C171.525 21.6477 171.994 21.1155 172.597 20.733C173.203 20.3504 173.911 20.1591 174.722 20.1591C175.214 20.1591 175.691 20.2405 176.153 20.4034C176.616 20.5663 177.03 20.822 177.398 21.1705C177.765 21.5189 178.055 21.9716 178.267 22.5284C178.479 23.0814 178.585 23.7538 178.585 24.5455V25.1477H171.648V23.875H176.92C176.92 23.428 176.83 23.0322 176.648 22.6875C176.466 22.339 176.21 22.0644 175.881 21.8636C175.555 21.6629 175.172 21.5625 174.733 21.5625C174.256 21.5625 173.839 21.6799 173.483 21.9148C173.131 22.1458 172.858 22.4489 172.665 22.8239C172.475 23.1951 172.381 23.5985 172.381 24.0341V25.0284C172.381 25.6117 172.483 26.108 172.688 26.517C172.896 26.9261 173.186 27.2386 173.557 27.4545C173.928 27.6667 174.362 27.7727 174.858 27.7727C175.18 27.7727 175.473 27.7273 175.739 27.6364C176.004 27.5417 176.233 27.4015 176.426 27.2159C176.619 27.0303 176.767 26.8011 176.869 26.5284L178.477 26.8182C178.348 27.2917 178.117 27.7064 177.784 28.0625C177.455 28.4148 177.04 28.6894 176.54 28.8864C176.044 29.0795 175.477 29.1761 174.841 29.1761Z" fill="#F1F1F1"/>
<rect x="257" y="1" width="249" height="44" rx="4" fill="#334A5F"/>
<g clip-path="url(#clip1_294_35906)">
<path d="M317 18.25H310C307.929 18.25 306.25 19.9289 306.25 22V29C306.25 31.0711 307.929 32.75 310 32.75H317C319.071 32.75 320.75 31.0711 320.75 29V22C320.75 19.9289 319.071 18.25 317 18.25ZM310 19.75H317C318.243 19.75 319.25 20.7574 319.25 22V29C319.25 30.2426 318.243 31.25 317 31.25H310C308.757 31.25 307.75 30.2426 307.75 29V22C307.75 20.7574 308.757 19.75 310 19.75Z" fill="#F1F1F1"/>
<path d="M322 13.25C324.004 13.25 325.641 14.8224 325.745 16.8008L325.75 17V24C325.75 26.0043 324.178 27.6413 322.199 27.7448L322 27.75H320C319.586 27.75 319.25 27.4142 319.25 27C319.25 26.6203 319.532 26.3065 319.898 26.2568L320 26.25H322C323.191 26.25 324.166 25.3248 324.245 24.154L324.25 24V17C324.25 15.8091 323.325 14.8344 322.154 14.7552L322 14.75H315C313.809 14.75 312.834 15.6752 312.755 16.846L312.75 17V19C312.75 19.4142 312.414 19.75 312 19.75C311.62 19.75 311.307 19.4678 311.257 19.1018L311.25 19V17C311.25 14.9957 312.822 13.3587 314.801 13.2552L315 13.25H322Z" fill="#F1F1F1"/>
<path d="M316.878 21.25L316.988 21.2572C317.383 21.3082 317.695 21.6223 317.743 22.0176L317.75 22.1272C317.749 22.61 317.357 23.0006 316.874 23C316.391 22.9994 316 22.6078 316 22.1291C315.999 21.895 316.091 21.6701 316.257 21.5049C316.395 21.3672 316.575 21.2805 316.766 21.2567L316.878 21.25ZM313.503 24.625L313.613 24.6322C314.008 24.6832 314.32 24.9973 314.368 25.3926L314.375 25.5022C314.374 25.985 313.982 26.3756 313.499 26.375C313.016 26.3744 312.625 25.9828 312.625 25.504C312.624 25.2699 312.716 25.0451 312.882 24.8799C313.02 24.7422 313.2 24.6555 313.391 24.6317L313.503 24.625ZM310.129 28L310.238 28.0072C310.633 28.0582 310.945 28.3724 310.993 28.7677L311 28.8773C310.999 29.3601 310.607 29.7506 310.124 29.75C309.641 29.7494 309.25 29.3578 309.25 28.879C309.249 28.6449 309.341 28.4201 309.507 28.2549C309.645 28.1172 309.825 28.0305 310.016 28.0067L310.129 28ZM316.877 28C317.36 28.0012 317.751 28.3933 317.75 28.8761C317.749 29.3589 317.358 29.75 316.879 29.75C316.645 29.7513 316.42 29.6586 316.255 29.4927C316.117 29.3545 316.031 29.1751 316.007 28.9836L316 28.8716C316.002 28.426 316.336 28.0593 316.768 28.0065L316.877 28ZM310.118 21.25L310.234 21.2567C310.387 21.2758 310.532 21.3351 310.655 21.4285L310.743 21.5049C310.909 21.6701 311.001 21.8949 311 22.125C311 22.6078 310.609 22.9994 310.126 23C309.643 23.0006 309.251 22.61 309.25 22.1272C309.249 21.6816 309.581 21.3128 310.012 21.2572L310.118 21.25ZM321.876 16.25C322.359 16.2506 322.75 16.6422 322.75 17.121C322.751 17.3551 322.659 17.5799 322.493 17.7451C322.355 17.8828 322.175 17.9695 321.984 17.9933L321.868 18L321.762 17.9928C321.367 17.9418 321.055 17.6276 321.007 17.2323L321 17.1227C321.001 16.6399 321.393 16.2494 321.876 16.25Z" fill="#F1F1F1"/>
</g>
<path d="M335.278 29V17.3636H339.426C340.328 17.3636 341.076 17.5189 341.67 17.8295C342.269 18.1402 342.716 18.5701 343.011 19.1193C343.307 19.6648 343.455 20.2955 343.455 21.0114C343.455 21.7235 343.305 22.3504 343.006 22.892C342.71 23.4299 342.263 23.8485 341.665 24.1477C341.07 24.447 340.322 24.5966 339.42 24.5966H336.278V23.0852H339.261C339.83 23.0852 340.292 23.0038 340.648 22.8409C341.008 22.678 341.271 22.4413 341.438 22.1307C341.604 21.8201 341.688 21.447 341.688 21.0114C341.688 20.572 341.602 20.1913 341.432 19.8693C341.265 19.5473 341.002 19.3011 340.642 19.1307C340.286 18.9564 339.818 18.8693 339.239 18.8693H337.034V29H335.278ZM341.023 23.75L343.898 29H341.898L339.08 23.75H341.023ZM347.994 29.1932C347.441 29.1932 346.941 29.0909 346.494 28.8864C346.047 28.678 345.693 28.3769 345.432 27.983C345.174 27.589 345.045 27.1061 345.045 26.5341C345.045 26.0417 345.14 25.6364 345.33 25.3182C345.519 25 345.775 24.7481 346.097 24.5625C346.419 24.3769 346.778 24.2367 347.176 24.142C347.574 24.0473 347.979 23.9754 348.392 23.9261C348.915 23.8655 349.339 23.8163 349.665 23.7784C349.991 23.7367 350.227 23.6705 350.375 23.5795C350.523 23.4886 350.597 23.3409 350.597 23.1364V23.0966C350.597 22.6004 350.456 22.2159 350.176 21.9432C349.9 21.6705 349.487 21.5341 348.938 21.5341C348.366 21.5341 347.915 21.661 347.585 21.9148C347.259 22.1648 347.034 22.4432 346.909 22.75L345.312 22.3864C345.502 21.8561 345.778 21.428 346.142 21.1023C346.509 20.7727 346.932 20.5341 347.409 20.3864C347.886 20.2348 348.388 20.1591 348.915 20.1591C349.263 20.1591 349.633 20.2008 350.023 20.2841C350.417 20.3636 350.784 20.5114 351.125 20.7273C351.47 20.9432 351.752 21.2519 351.972 21.6534C352.191 22.0511 352.301 22.5682 352.301 23.2045V29H350.642V27.8068H350.574C350.464 28.0265 350.299 28.2424 350.08 28.4545C349.86 28.6667 349.578 28.8428 349.233 28.983C348.888 29.1231 348.475 29.1932 347.994 29.1932ZM348.364 27.8295C348.833 27.8295 349.235 27.7367 349.568 27.5511C349.905 27.3655 350.161 27.1231 350.335 26.8239C350.513 26.5208 350.602 26.197 350.602 25.8523V24.7273C350.542 24.7879 350.424 24.8447 350.25 24.8977C350.08 24.947 349.884 24.9905 349.665 25.0284C349.445 25.0625 349.231 25.0947 349.023 25.125C348.814 25.1515 348.64 25.1742 348.5 25.1932C348.17 25.2348 347.869 25.3049 347.597 25.4034C347.328 25.5019 347.112 25.6439 346.949 25.8295C346.79 26.0114 346.71 26.2538 346.71 26.5568C346.71 26.9773 346.866 27.2955 347.176 27.5114C347.487 27.7235 347.883 27.8295 348.364 27.8295ZM356.263 23.8182V29H354.564V20.2727H356.195V21.6932H356.303C356.503 21.2311 356.818 20.8598 357.246 20.5795C357.678 20.2992 358.221 20.1591 358.876 20.1591C359.471 20.1591 359.992 20.2841 360.439 20.5341C360.886 20.7803 361.232 21.1477 361.479 21.6364C361.725 22.125 361.848 22.7292 361.848 23.4489V29H360.149V23.6534C360.149 23.0208 359.984 22.5265 359.655 22.1705C359.325 21.8106 358.873 21.6307 358.297 21.6307C357.903 21.6307 357.553 21.7159 357.246 21.8864C356.943 22.0568 356.702 22.3068 356.524 22.6364C356.35 22.9621 356.263 23.3561 356.263 23.8182ZM367.393 29.1705C366.689 29.1705 366.06 28.9905 365.507 28.6307C364.958 28.267 364.526 27.75 364.212 27.0795C363.901 26.4053 363.746 25.5966 363.746 24.6534C363.746 23.7102 363.903 22.9034 364.217 22.233C364.536 21.5625 364.971 21.0492 365.524 20.6932C366.077 20.3371 366.704 20.1591 367.405 20.1591C367.946 20.1591 368.382 20.25 368.712 20.4318C369.045 20.6098 369.303 20.8182 369.484 21.0568C369.67 21.2955 369.814 21.5057 369.916 21.6875H370.018V17.3636H371.717V29H370.058V27.642H369.916C369.814 27.8277 369.666 28.0398 369.473 28.2784C369.284 28.517 369.022 28.7254 368.689 28.9034C368.356 29.0814 367.924 29.1705 367.393 29.1705ZM367.768 27.7216C368.257 27.7216 368.67 27.5928 369.007 27.3352C369.348 27.0739 369.606 26.7121 369.78 26.25C369.958 25.7879 370.047 25.25 370.047 24.6364C370.047 24.0303 369.96 23.5 369.786 23.0455C369.611 22.5909 369.356 22.2367 369.018 21.983C368.681 21.7292 368.265 21.6023 367.768 21.6023C367.257 21.6023 366.831 21.7348 366.49 22C366.149 22.2652 365.892 22.6269 365.717 23.0852C365.547 23.5436 365.462 24.0606 365.462 24.6364C365.462 25.2197 365.549 25.7443 365.723 26.2102C365.897 26.6761 366.155 27.0455 366.496 27.3182C366.84 27.5871 367.265 27.7216 367.768 27.7216ZM377.818 29.1761C377 29.1761 376.286 28.9886 375.676 28.6136C375.066 28.2386 374.593 27.714 374.256 27.0398C373.919 26.3655 373.75 25.5777 373.75 24.6761C373.75 23.7708 373.919 22.9792 374.256 22.3011C374.593 21.6231 375.066 21.0966 375.676 20.7216C376.286 20.3466 377 20.1591 377.818 20.1591C378.636 20.1591 379.35 20.3466 379.96 20.7216C380.57 21.0966 381.044 21.6231 381.381 22.3011C381.718 22.9792 381.886 23.7708 381.886 24.6761C381.886 25.5777 381.718 26.3655 381.381 27.0398C381.044 27.714 380.57 28.2386 379.96 28.6136C379.35 28.9886 378.636 29.1761 377.818 29.1761ZM377.824 27.75C378.354 27.75 378.794 27.6098 379.142 27.3295C379.491 27.0492 379.748 26.6761 379.915 26.2102C380.085 25.7443 380.17 25.2311 380.17 24.6705C380.17 24.1136 380.085 23.6023 379.915 23.1364C379.748 22.6667 379.491 22.2898 379.142 22.0057C378.794 21.7216 378.354 21.5795 377.824 21.5795C377.29 21.5795 376.847 21.7216 376.494 22.0057C376.146 22.2898 375.886 22.6667 375.716 23.1364C375.549 23.6023 375.466 24.1136 375.466 24.6705C375.466 25.2311 375.549 25.7443 375.716 26.2102C375.886 26.6761 376.146 27.0492 376.494 27.3295C376.847 27.6098 377.29 27.75 377.824 27.75ZM383.783 29V20.2727H385.413V21.6932H385.521C385.703 21.2121 386 20.8371 386.413 20.5682C386.826 20.2955 387.321 20.1591 387.896 20.1591C388.48 20.1591 388.968 20.2955 389.362 20.5682C389.76 20.8409 390.054 21.2159 390.243 21.6932H390.334C390.542 21.2273 390.874 20.8561 391.328 20.5795C391.783 20.2992 392.324 20.1591 392.953 20.1591C393.745 20.1591 394.391 20.4072 394.891 20.9034C395.394 21.3996 395.646 22.1477 395.646 23.1477V29H393.947V23.3068C393.947 22.7159 393.786 22.2879 393.464 22.0227C393.143 21.7576 392.758 21.625 392.311 21.625C391.758 21.625 391.328 21.7955 391.021 22.1364C390.714 22.4735 390.561 22.9072 390.561 23.4375V29H388.868V23.1989C388.868 22.7254 388.72 22.3447 388.425 22.0568C388.129 21.7689 387.745 21.625 387.271 21.625C386.949 21.625 386.652 21.7102 386.379 21.8807C386.11 22.0473 385.893 22.2803 385.726 22.5795C385.563 22.8788 385.482 23.2254 385.482 23.6193V29H383.783ZM402.158 32.2727V20.2727H403.817V21.6875H403.959C404.057 21.5057 404.199 21.2955 404.385 21.0568C404.571 20.8182 404.828 20.6098 405.158 20.4318C405.487 20.25 405.923 20.1591 406.464 20.1591C407.169 20.1591 407.798 20.3371 408.351 20.6932C408.904 21.0492 409.338 21.5625 409.652 22.233C409.97 22.9034 410.129 23.7102 410.129 24.6534C410.129 25.5966 409.972 26.4053 409.658 27.0795C409.343 27.75 408.911 28.267 408.362 28.6307C407.813 28.9905 407.186 29.1705 406.482 29.1705C405.951 29.1705 405.518 29.0814 405.18 28.9034C404.847 28.7254 404.586 28.517 404.396 28.2784C404.207 28.0398 404.061 27.8277 403.959 27.642H403.857V32.2727H402.158ZM403.822 24.6364C403.822 25.25 403.911 25.7879 404.089 26.25C404.268 26.7121 404.525 27.0739 404.862 27.3352C405.199 27.5928 405.612 27.7216 406.101 27.7216C406.608 27.7216 407.033 27.5871 407.374 27.3182C407.714 27.0455 407.972 26.6761 408.146 26.2102C408.324 25.7443 408.413 25.2197 408.413 24.6364C408.413 24.0606 408.326 23.5436 408.152 23.0852C407.982 22.6269 407.724 22.2652 407.379 22C407.038 21.7348 406.612 21.6023 406.101 21.6023C405.608 21.6023 405.192 21.7292 404.851 21.983C404.514 22.2367 404.258 22.5909 404.084 23.0455C403.91 23.5 403.822 24.0303 403.822 24.6364ZM412.033 29V20.2727H413.675V21.6591H413.766C413.925 21.1894 414.205 20.8201 414.607 20.5511C415.012 20.2784 415.47 20.142 415.982 20.142C416.088 20.142 416.213 20.1458 416.357 20.1534C416.504 20.161 416.62 20.1705 416.703 20.1818V21.8068C416.635 21.7879 416.514 21.767 416.339 21.7443C416.165 21.7178 415.991 21.7045 415.817 21.7045C415.415 21.7045 415.057 21.7898 414.743 21.9602C414.432 22.1269 414.186 22.3598 414.004 22.6591C413.822 22.9545 413.732 23.2917 413.732 23.6705V29H412.033ZM421.537 29.1761C420.719 29.1761 420.005 28.9886 419.395 28.6136C418.785 28.2386 418.312 27.714 417.974 27.0398C417.637 26.3655 417.469 25.5777 417.469 24.6761C417.469 23.7708 417.637 22.9792 417.974 22.3011C418.312 21.6231 418.785 21.0966 419.395 20.7216C420.005 20.3466 420.719 20.1591 421.537 20.1591C422.355 20.1591 423.069 20.3466 423.679 20.7216C424.289 21.0966 424.762 21.6231 425.099 22.3011C425.437 22.9792 425.605 23.7708 425.605 24.6761C425.605 25.5777 425.437 26.3655 425.099 27.0398C424.762 27.714 424.289 28.2386 423.679 28.6136C423.069 28.9886 422.355 29.1761 421.537 29.1761ZM421.543 27.75C422.073 27.75 422.512 27.6098 422.861 27.3295C423.209 27.0492 423.467 26.6761 423.634 26.2102C423.804 25.7443 423.889 25.2311 423.889 24.6705C423.889 24.1136 423.804 23.6023 423.634 23.1364C423.467 22.6667 423.209 22.2898 422.861 22.0057C422.512 21.7216 422.073 21.5795 421.543 21.5795C421.009 21.5795 420.565 21.7216 420.213 22.0057C419.865 22.2898 419.605 22.6667 419.435 23.1364C419.268 23.6023 419.185 24.1136 419.185 24.6705C419.185 25.2311 419.268 25.7443 419.435 26.2102C419.605 26.6761 419.865 27.0492 420.213 27.3295C420.565 27.6098 421.009 27.75 421.543 27.75ZM427.501 29V20.2727H429.132V21.6932H429.24C429.422 21.2121 429.719 20.8371 430.132 20.5682C430.545 20.2955 431.039 20.1591 431.615 20.1591C432.198 20.1591 432.687 20.2955 433.081 20.5682C433.479 20.8409 433.772 21.2159 433.962 21.6932H434.053C434.261 21.2273 434.592 20.8561 435.047 20.5795C435.501 20.2992 436.043 20.1591 436.672 20.1591C437.464 20.1591 438.109 20.4072 438.609 20.9034C439.113 21.3996 439.365 22.1477 439.365 23.1477V29H437.666V23.3068C437.666 22.7159 437.505 22.2879 437.183 22.0227C436.861 21.7576 436.477 21.625 436.03 21.625C435.477 21.625 435.047 21.7955 434.74 22.1364C434.433 22.4735 434.28 22.9072 434.28 23.4375V29H432.587V23.1989C432.587 22.7254 432.439 22.3447 432.143 22.0568C431.848 21.7689 431.464 21.625 430.99 21.625C430.668 21.625 430.371 21.7102 430.098 21.8807C429.829 22.0473 429.611 22.2803 429.445 22.5795C429.282 22.8788 429.2 23.2254 429.2 23.6193V29H427.501ZM441.642 32.2727V20.2727H443.301V21.6875H443.443C443.542 21.5057 443.684 21.2955 443.869 21.0568C444.055 20.8182 444.313 20.6098 444.642 20.4318C444.972 20.25 445.407 20.1591 445.949 20.1591C446.653 20.1591 447.282 20.3371 447.835 20.6932C448.388 21.0492 448.822 21.5625 449.136 22.233C449.455 22.9034 449.614 23.7102 449.614 24.6534C449.614 25.5966 449.456 26.4053 449.142 27.0795C448.828 27.75 448.396 28.267 447.847 28.6307C447.297 28.9905 446.67 29.1705 445.966 29.1705C445.436 29.1705 445.002 29.0814 444.665 28.9034C444.331 28.7254 444.07 28.517 443.881 28.2784C443.691 28.0398 443.545 27.8277 443.443 27.642H443.341V32.2727H441.642ZM443.307 24.6364C443.307 25.25 443.396 25.7879 443.574 26.25C443.752 26.7121 444.009 27.0739 444.347 27.3352C444.684 27.5928 445.097 27.7216 445.585 27.7216C446.093 27.7216 446.517 27.5871 446.858 27.3182C447.199 27.0455 447.456 26.6761 447.631 26.2102C447.809 25.7443 447.898 25.2197 447.898 24.6364C447.898 24.0606 447.811 23.5436 447.636 23.0852C447.466 22.6269 447.208 22.2652 446.864 22C446.523 21.7348 446.097 21.6023 445.585 21.6023C445.093 21.6023 444.676 21.7292 444.335 21.983C443.998 22.2367 443.742 22.5909 443.568 23.0455C443.394 23.5 443.307 24.0303 443.307 24.6364ZM455.591 20.2727V21.6364H450.824V20.2727H455.591ZM452.102 18.1818H453.801V26.4375C453.801 26.767 453.85 27.0152 453.949 27.1818C454.047 27.3447 454.174 27.4564 454.33 27.517C454.489 27.5739 454.661 27.6023 454.847 27.6023C454.983 27.6023 455.102 27.5928 455.205 27.5739C455.307 27.5549 455.386 27.5398 455.443 27.5284L455.75 28.9318C455.652 28.9697 455.511 29.0076 455.33 29.0455C455.148 29.0871 454.92 29.1098 454.648 29.1136C454.201 29.1212 453.784 29.0417 453.398 28.875C453.011 28.7083 452.699 28.4508 452.46 28.1023C452.222 27.7538 452.102 27.3163 452.102 26.7898V18.1818Z" fill="#F1F1F1"/>
<g filter="url(#filter0_dd_294_35906)">
<rect x="514" y="1" width="249" height="44" rx="4" fill="url(#paint0_linear_294_35906)"/>
<rect x="514.75" y="1.75" width="247.5" height="42.5" rx="3.25" stroke="url(#paint1_linear_294_35906)" stroke-width="1.5"/>
<g clip-path="url(#clip2_294_35906)">
<path d="M606.5 23C606.5 27.9706 602.471 32 597.5 32C592.529 32 588.5 27.9706 588.5 23C588.5 18.0294 592.529 14 597.5 14" stroke="#F1F1F1" stroke-width="1.5" stroke-linecap="round" stroke-linejoin="round"/>
<path d="M596.619 19.5225C596.881 19.0359 597.487 18.8533 597.973 19.1146C598.146 19.2075 598.288 19.3494 598.381 19.5225L599.158 20.9445C599.25 21.1135 599.389 21.2524 599.558 21.3445L600.98 22.1215C601.467 22.3828 601.649 22.989 601.388 23.4756C601.295 23.6487 601.153 23.7905 600.98 23.8835L599.558 24.6605C599.389 24.7525 599.25 24.8914 599.158 25.0605L598.381 26.4825C598.12 26.969 597.514 27.1516 597.027 26.8904C596.854 26.7974 596.712 26.6555 596.619 26.4825L595.842 25.0605C595.75 24.8914 595.611 24.7525 595.442 24.6605L594.02 23.8835C593.534 23.6222 593.351 23.0159 593.612 22.5293C593.705 22.3563 593.847 22.2144 594.02 22.1215L595.442 21.3445C595.611 21.2524 595.75 21.1135 595.842 20.9445L596.619 19.5225ZM603.839 13.3925C604.038 13.0274 604.496 12.8929 604.861 13.0921C604.988 13.1614 605.092 13.2656 605.161 13.3925L605.744 14.4585C605.813 14.5853 605.917 14.6894 606.044 14.7585L607.11 15.3415C607.475 15.5407 607.61 15.9981 607.411 16.3631C607.341 16.49 607.237 16.5943 607.11 16.6635L606.044 17.2465C605.917 17.3155 605.813 17.4197 605.744 17.5465L605.161 18.6125C604.962 18.9775 604.505 19.112 604.14 18.9128C604.013 18.8436 603.908 18.7393 603.839 18.6125L603.256 17.5465C603.187 17.4197 603.083 17.3155 602.956 17.2465L601.89 16.6635C601.525 16.4643 601.391 16.0069 601.59 15.6418C601.659 15.5149 601.763 15.4107 601.89 15.3415L602.956 14.7585C603.083 14.6894 603.187 14.5853 603.256 14.4585L603.839 13.3925Z" stroke="#F1F1F1" stroke-width="1.5"/>
</g>
<path d="M613.761 29H611.898L616.085 17.3636H618.114L622.301 29H620.438L617.148 19.4773H617.057L613.761 29ZM614.074 24.4432H620.119V25.9205H614.074V24.4432ZM625.544 17.3636V29H623.845V17.3636H625.544ZM631.506 29.1761C630.661 29.1761 629.934 28.9848 629.324 28.6023C628.718 28.2159 628.252 27.6837 627.926 27.0057C627.6 26.3277 627.438 25.5511 627.438 24.6761C627.438 23.7898 627.604 23.0076 627.938 22.3295C628.271 21.6477 628.741 21.1155 629.347 20.733C629.953 20.3504 630.667 20.1591 631.489 20.1591C632.152 20.1591 632.742 20.2822 633.261 20.5284C633.78 20.7708 634.199 21.1117 634.517 21.5511C634.839 21.9905 635.03 22.5038 635.091 23.0909H633.438C633.347 22.6818 633.138 22.3295 632.812 22.0341C632.491 21.7386 632.059 21.5909 631.517 21.5909C631.044 21.5909 630.629 21.7159 630.273 21.9659C629.92 22.2121 629.646 22.5644 629.449 23.0227C629.252 23.4773 629.153 24.0152 629.153 24.6364C629.153 25.2727 629.25 25.822 629.443 26.2841C629.636 26.7462 629.909 27.1042 630.261 27.358C630.617 27.6117 631.036 27.7386 631.517 27.7386C631.839 27.7386 632.131 27.6799 632.392 27.5625C632.657 27.4413 632.879 27.2689 633.057 27.0455C633.239 26.822 633.366 26.553 633.438 26.2386H635.091C635.03 26.803 634.847 27.3068 634.54 27.75C634.233 28.1932 633.822 28.5417 633.307 28.7955C632.795 29.0492 632.195 29.1761 631.506 29.1761ZM638.607 23.8182V29H636.908V17.3636H638.584V21.6932H638.692C638.896 21.2235 639.209 20.8504 639.629 20.5739C640.05 20.2973 640.599 20.1591 641.277 20.1591C641.875 20.1591 642.398 20.2822 642.845 20.5284C643.296 20.7746 643.644 21.142 643.891 21.6307C644.141 22.1155 644.266 22.7216 644.266 23.4489V29H642.567V23.6534C642.567 23.0133 642.402 22.517 642.072 22.1648C641.743 21.8087 641.285 21.6307 640.697 21.6307C640.296 21.6307 639.936 21.7159 639.618 21.8864C639.304 22.0568 639.055 22.3068 638.874 22.6364C638.696 22.9621 638.607 23.3561 638.607 23.8182ZM650.294 29.1761C649.434 29.1761 648.694 28.9924 648.072 28.625C647.455 28.2538 646.978 27.733 646.641 27.0625C646.307 26.3883 646.141 25.5985 646.141 24.6932C646.141 23.7992 646.307 23.0114 646.641 22.3295C646.978 21.6477 647.447 21.1155 648.05 20.733C648.656 20.3504 649.364 20.1591 650.175 20.1591C650.667 20.1591 651.144 20.2405 651.607 20.4034C652.069 20.5663 652.483 20.822 652.851 21.1705C653.218 21.5189 653.508 21.9716 653.72 22.5284C653.932 23.0814 654.038 23.7538 654.038 24.5455V25.1477H647.101V23.875H652.374C652.374 23.428 652.283 23.0322 652.101 22.6875C651.919 22.339 651.663 22.0644 651.334 21.8636C651.008 21.6629 650.625 21.5625 650.186 21.5625C649.709 21.5625 649.292 21.6799 648.936 21.9148C648.584 22.1458 648.311 22.4489 648.118 22.8239C647.929 23.1951 647.834 23.5985 647.834 24.0341V25.0284C647.834 25.6117 647.936 26.108 648.141 26.517C648.349 26.9261 648.639 27.2386 649.01 27.4545C649.381 27.6667 649.815 27.7727 650.311 27.7727C650.633 27.7727 650.927 27.7273 651.192 27.6364C651.457 27.5417 651.686 27.4015 651.879 27.2159C652.072 27.0303 652.22 26.8011 652.322 26.5284L653.93 26.8182C653.802 27.2917 653.571 27.7064 653.237 28.0625C652.908 28.4148 652.493 28.6894 651.993 28.8864C651.497 29.0795 650.93 29.1761 650.294 29.1761ZM655.923 29V20.2727H657.554V21.6932H657.662C657.844 21.2121 658.141 20.8371 658.554 20.5682C658.967 20.2955 659.461 20.1591 660.037 20.1591C660.62 20.1591 661.109 20.2955 661.503 20.5682C661.901 20.8409 662.194 21.2159 662.384 21.6932H662.474C662.683 21.2273 663.014 20.8561 663.469 20.5795C663.923 20.2992 664.465 20.1591 665.094 20.1591C665.885 20.1591 666.531 20.4072 667.031 20.9034C667.535 21.3996 667.787 22.1477 667.787 23.1477V29H666.088V23.3068C666.088 22.7159 665.927 22.2879 665.605 22.0227C665.283 21.7576 664.899 21.625 664.452 21.625C663.899 21.625 663.469 21.7955 663.162 22.1364C662.855 22.4735 662.702 22.9072 662.702 23.4375V29H661.009V23.1989C661.009 22.7254 660.861 22.3447 660.565 22.0568C660.27 21.7689 659.885 21.625 659.412 21.625C659.09 21.625 658.793 21.7102 658.52 21.8807C658.251 22.0473 658.033 22.2803 657.866 22.5795C657.704 22.8788 657.622 23.2254 657.622 23.6193V29H655.923ZM670.064 29V20.2727H671.763V29H670.064ZM670.922 18.9261C670.626 18.9261 670.373 18.8277 670.161 18.6307C669.952 18.4299 669.848 18.1913 669.848 17.9148C669.848 17.6345 669.952 17.3958 670.161 17.1989C670.373 16.9981 670.626 16.8977 670.922 16.8977C671.217 16.8977 671.469 16.9981 671.678 17.1989C671.89 17.3958 671.996 17.6345 671.996 17.9148C671.996 18.1913 671.89 18.4299 671.678 18.6307C671.469 18.8277 671.217 18.9261 670.922 18.9261ZM673.866 29V27.8352L678.594 21.8295V21.75H674.02V20.2727H680.713V21.5114L676.168 27.4432V27.5227H680.872V29H673.866ZM686.388 29.1761C685.528 29.1761 684.787 28.9924 684.166 28.625C683.549 28.2538 683.071 27.733 682.734 27.0625C682.401 26.3883 682.234 25.5985 682.234 24.6932C682.234 23.7992 682.401 23.0114 682.734 22.3295C683.071 21.6477 683.541 21.1155 684.143 20.733C684.75 20.3504 685.458 20.1591 686.268 20.1591C686.761 20.1591 687.238 20.2405 687.7 20.4034C688.162 20.5663 688.577 20.822 688.945 21.1705C689.312 21.5189 689.602 21.9716 689.814 22.5284C690.026 23.0814 690.132 23.7538 690.132 24.5455V25.1477H683.195V23.875H688.467C688.467 23.428 688.376 23.0322 688.195 22.6875C688.013 22.339 687.757 22.0644 687.428 21.8636C687.102 21.6629 686.719 21.5625 686.28 21.5625C685.803 21.5625 685.386 21.6799 685.03 21.9148C684.678 22.1458 684.405 22.4489 684.212 22.8239C684.022 23.1951 683.928 23.5985 683.928 24.0341V25.0284C683.928 25.6117 684.03 26.108 684.234 26.517C684.443 26.9261 684.732 27.2386 685.104 27.4545C685.475 27.6667 685.909 27.7727 686.405 27.7727C686.727 27.7727 687.02 27.7273 687.286 27.6364C687.551 27.5417 687.78 27.4015 687.973 27.2159C688.166 27.0303 688.314 26.8011 688.416 26.5284L690.024 26.8182C689.895 27.2917 689.664 27.7064 689.331 28.0625C689.001 28.4148 688.587 28.6894 688.087 28.8864C687.59 29.0795 687.024 29.1761 686.388 29.1761Z" fill="#F1F1F1"/>
</g>
<defs>
<filter id="filter0_dd_294_35906" x="510" y="0" width="257" height="53" filterUnits="userSpaceOnUse" color-interpolation-filters="sRGB">
<feFlood flood-opacity="0" result="BackgroundImageFix"/>
<feColorMatrix in="SourceAlpha" type="matrix" values="0 0 0 0 0 0 0 0 0 0 0 0 0 0 0 0 0 0 127 0" result="hardAlpha"/>
<feOffset dy="4"/>
<feGaussianBlur stdDeviation="2"/>
<feComposite in2="hardAlpha" operator="out"/>
<feColorMatrix type="matrix" values="0 0 0 0 0 0 0 0 0 0.0392157 0 0 0 0 0.121569 0 0 0 0.2 0"/>
<feBlend mode="normal" in2="BackgroundImageFix" result="effect1_dropShadow_294_35906"/>
<feColorMatrix in="SourceAlpha" type="matrix" values="0 0 0 0 0 0 0 0 0 0 0 0 0 0 0 0 0 0 127 0" result="hardAlpha"/>
<feMorphology radius="1" operator="dilate" in="SourceAlpha" result="effect2_dropShadow_294_35906"/>
<feOffset/>
<feComposite in2="hardAlpha" operator="out"/>
<feColorMatrix type="matrix" values="0 0 0 0 0.0544985 0 0 0 0 0.263179 0 0 0 0 0.393604 0 0 0 1 0"/>
<feBlend mode="normal" in2="effect1_dropShadow_294_35906" result="effect2_dropShadow_294_35906"/>
<feBlend mode="normal" in="SourceGraphic" in2="effect2_dropShadow_294_35906" result="shape"/>
</filter>
<linearGradient id="paint0_linear_294_35906" x1="638.5" y1="1" x2="638.5" y2="45" gradientUnits="userSpaceOnUse">
<stop stop-color="#009DFF"/>
<stop offset="1" stop-color="#008AE0"/>
</linearGradient>
<linearGradient id="paint1_linear_294_35906" x1="638.226" y1="5.5" x2="639.14" y2="44.9852" gradientUnits="userSpaceOnUse">
<stop stop-color="#7BC0EB"/>
<stop offset="1" stop-color="#2083C1"/>
</linearGradient>
<clipPath id="clip0_294_35906">
<rect width="24" height="24" fill="white" transform="translate(67.5 11)"/>
</clipPath>
<clipPath id="clip1_294_35906">
<rect width="24" height="24" fill="white" transform="translate(304 11)"/>
</clipPath>
<clipPath id="clip2_294_35906">
<rect width="24" height="24" fill="white" transform="translate(585.5 11)"/>
</clipPath>
</defs>
</svg>
