<svg width="1441" height="129" viewBox="0 0 1441 129" fill="none" xmlns="http://www.w3.org/2000/svg">
<path d="M9.04545 71H1.59091L18.3409 24.4545H26.4545L43.2045 71H35.75L22.5909 32.9091H22.2273L9.04545 71ZM10.2955 52.7727H34.4773V58.6818H10.2955V52.7727ZM60.4784 71.6818C57.6602 71.6818 55.145 70.9621 52.9329 69.5227C50.7359 68.0682 49.0087 66 47.7511 63.3182C46.5087 60.6212 45.8875 57.3864 45.8875 53.6136C45.8875 49.8409 46.5162 46.6136 47.7738 43.9318C49.0465 41.25 50.789 39.197 53.0011 37.7727C55.2132 36.3485 57.7208 35.6364 60.5238 35.6364C62.6905 35.6364 64.4329 36 65.7511 36.7273C67.0844 37.4394 68.1147 38.2727 68.842 39.2273C69.5844 40.1818 70.1602 41.0227 70.5693 41.75H70.9784V24.4545H77.7738V71H71.1375V65.5682H70.5693C70.1602 66.3106 69.5693 67.1591 68.7965 68.1136C68.039 69.0682 66.9935 69.9015 65.6602 70.6136C64.3268 71.3258 62.5996 71.6818 60.4784 71.6818ZM61.9784 65.8864C63.9329 65.8864 65.5844 65.3712 66.9329 64.3409C68.2965 63.2955 69.3268 61.8485 70.0238 60C70.7359 58.1515 71.092 56 71.092 53.5455C71.092 51.1212 70.7435 49 70.0465 47.1818C69.3496 45.3636 68.3268 43.947 66.9784 42.9318C65.6299 41.9167 63.9632 41.4091 61.9784 41.4091C59.9329 41.4091 58.2284 41.9394 56.8647 43C55.5011 44.0606 54.4708 45.5076 53.7738 47.3409C53.092 49.1742 52.7511 51.2424 52.7511 53.5455C52.7511 55.8788 53.0996 57.9773 53.7965 59.8409C54.4935 61.7045 55.5238 63.1818 56.8875 64.2727C58.2662 65.3485 59.9632 65.8864 61.9784 65.8864ZM115.928 36.0909L103.269 71H95.9965L83.3147 36.0909H90.6101L99.451 62.9545H99.8147L108.633 36.0909H115.928ZM130.066 71.7727C127.854 71.7727 125.854 71.3636 124.066 70.5455C122.278 69.7121 120.861 68.5076 119.816 66.9318C118.785 65.3561 118.27 63.4242 118.27 61.1364C118.27 59.1667 118.649 57.5455 119.407 56.2727C120.164 55 121.187 53.9924 122.475 53.25C123.763 52.5076 125.202 51.947 126.793 51.5682C128.384 51.1894 130.005 50.9015 131.657 50.7045C133.748 50.4621 135.445 50.2652 136.748 50.1136C138.051 49.947 138.998 49.6818 139.589 49.3182C140.179 48.9545 140.475 48.3636 140.475 47.5455V47.3864C140.475 45.4015 139.914 43.8636 138.793 42.7727C137.687 41.6818 136.035 41.1364 133.839 41.1364C131.551 41.1364 129.748 41.6439 128.429 42.6591C127.126 43.6591 126.225 44.7727 125.725 46L119.339 44.5455C120.096 42.4242 121.202 40.7121 122.657 39.4091C124.126 38.0909 125.816 37.1364 127.725 36.5455C129.634 35.9394 131.642 35.6364 133.748 35.6364C135.142 35.6364 136.619 35.803 138.179 36.1364C139.755 36.4545 141.225 37.0455 142.589 37.9091C143.967 38.7727 145.096 40.0076 145.975 41.6136C146.854 43.2045 147.293 45.2727 147.293 47.8182V71H140.657V66.2273H140.384C139.945 67.1061 139.285 67.9697 138.407 68.8182C137.528 69.6667 136.399 70.3712 135.02 70.9318C133.642 71.4924 131.99 71.7727 130.066 71.7727ZM131.543 66.3182C133.422 66.3182 135.028 65.947 136.361 65.2045C137.71 64.4621 138.732 63.4924 139.429 62.2955C140.142 61.0833 140.498 59.7879 140.498 58.4091V53.9091C140.255 54.1515 139.785 54.3788 139.089 54.5909C138.407 54.7879 137.626 54.9621 136.748 55.1136C135.869 55.25 135.013 55.3788 134.179 55.5C133.346 55.6061 132.649 55.697 132.089 55.7727C130.77 55.9394 129.566 56.2197 128.475 56.6136C127.399 57.0076 126.535 57.5758 125.884 58.3182C125.248 59.0455 124.929 60.0152 124.929 61.2273C124.929 62.9091 125.551 64.1818 126.793 65.0455C128.035 65.8939 129.619 66.3182 131.543 66.3182ZM161.732 50.2727V71H154.936V36.0909H161.459V41.7727H161.891C162.694 39.9242 163.951 38.4394 165.663 37.3182C167.391 36.197 169.565 35.6364 172.186 35.6364C174.565 35.6364 176.648 36.1364 178.436 37.1364C180.224 38.1212 181.61 39.5909 182.595 41.5455C183.58 43.5 184.073 45.9167 184.073 48.7955V71H177.277V49.6136C177.277 47.0833 176.618 45.1061 175.3 43.6818C173.982 42.2424 172.171 41.5227 169.868 41.5227C168.292 41.5227 166.891 41.8636 165.663 42.5455C164.451 43.2273 163.489 44.2273 162.777 45.5455C162.08 46.8485 161.732 48.4242 161.732 50.2727ZM206.483 71.7045C203.104 71.7045 200.195 70.9394 197.755 69.4091C195.331 67.8636 193.468 65.7348 192.165 63.0227C190.862 60.3106 190.21 57.2045 190.21 53.7045C190.21 50.1591 190.877 47.0303 192.21 44.3182C193.543 41.5909 195.422 39.4621 197.846 37.9318C200.271 36.4015 203.127 35.6364 206.415 35.6364C209.066 35.6364 211.43 36.1288 213.505 37.1136C215.581 38.0833 217.255 39.447 218.528 41.2045C219.816 42.9621 220.581 45.0152 220.824 47.3636H214.21C213.846 45.7273 213.013 44.3182 211.71 43.1364C210.422 41.9545 208.695 41.3636 206.528 41.3636C204.634 41.3636 202.975 41.8636 201.551 42.8636C200.142 43.8485 199.043 45.2576 198.255 47.0909C197.468 48.9091 197.074 51.0606 197.074 53.5455C197.074 56.0909 197.46 58.2879 198.233 60.1364C199.005 61.9848 200.096 63.4167 201.505 64.4318C202.93 65.447 204.604 65.9545 206.528 65.9545C207.816 65.9545 208.983 65.7197 210.028 65.25C211.089 64.7652 211.975 64.0758 212.687 63.1818C213.415 62.2879 213.922 61.2121 214.21 59.9545H220.824C220.581 62.2121 219.846 64.2273 218.619 66C217.392 67.7727 215.748 69.1667 213.687 70.1818C211.642 71.197 209.24 71.7045 206.483 71.7045ZM241.728 71.7045C238.289 71.7045 235.327 70.9697 232.842 69.5C230.372 68.0152 228.463 65.9318 227.115 63.25C225.781 60.553 225.115 57.3939 225.115 53.7727C225.115 50.197 225.781 47.0455 227.115 44.3182C228.463 41.5909 230.342 39.4621 232.751 37.9318C235.175 36.4015 238.008 35.6364 241.251 35.6364C243.221 35.6364 245.13 35.9621 246.978 36.6136C248.827 37.2652 250.486 38.2879 251.955 39.6818C253.425 41.0758 254.584 42.8864 255.433 45.1136C256.281 47.3258 256.705 50.0152 256.705 53.1818V55.5909H228.955V50.5H250.046C250.046 48.7121 249.683 47.1288 248.955 45.75C248.228 44.3561 247.205 43.2576 245.887 42.4545C244.584 41.6515 243.054 41.25 241.296 41.25C239.387 41.25 237.721 41.7197 236.296 42.6591C234.887 43.5833 233.796 44.7955 233.024 46.2955C232.266 47.7803 231.887 49.3939 231.887 51.1364V55.1136C231.887 57.447 232.296 59.4318 233.115 61.0682C233.948 62.7045 235.107 63.9545 236.592 64.8182C238.077 65.6667 239.811 66.0909 241.796 66.0909C243.084 66.0909 244.258 65.9091 245.319 65.5455C246.38 65.1667 247.296 64.6061 248.069 63.8636C248.842 63.1212 249.433 62.2045 249.842 61.1136L256.274 62.2727C255.758 64.1667 254.834 65.8258 253.501 67.25C252.183 68.6591 250.524 69.7576 248.524 70.5455C246.539 71.3182 244.274 71.7045 241.728 71.7045ZM275.905 71.6818C273.087 71.6818 270.572 70.9621 268.36 69.5227C266.163 68.0682 264.436 66 263.178 63.3182C261.936 60.6212 261.314 57.3864 261.314 53.6136C261.314 49.8409 261.943 46.6136 263.201 43.9318C264.474 41.25 266.216 39.197 268.428 37.7727C270.64 36.3485 273.148 35.6364 275.951 35.6364C278.117 35.6364 279.86 36 281.178 36.7273C282.511 37.4394 283.542 38.2727 284.269 39.2273C285.011 40.1818 285.587 41.0227 285.996 41.75H286.405V24.4545H293.201V71H286.564V65.5682H285.996C285.587 66.3106 284.996 67.1591 284.224 68.1136C283.466 69.0682 282.421 69.9015 281.087 70.6136C279.754 71.3258 278.027 71.6818 275.905 71.6818ZM277.405 65.8864C279.36 65.8864 281.011 65.3712 282.36 64.3409C283.724 63.2955 284.754 61.8485 285.451 60C286.163 58.1515 286.519 56 286.519 53.5455C286.519 51.1212 286.171 49 285.474 47.1818C284.777 45.3636 283.754 43.947 282.405 42.9318C281.057 41.9167 279.39 41.4091 277.405 41.4091C275.36 41.4091 273.655 41.9394 272.292 43C270.928 44.0606 269.898 45.5076 269.201 47.3409C268.519 49.1742 268.178 51.2424 268.178 53.5455C268.178 55.8788 268.527 57.9773 269.224 59.8409C269.921 61.7045 270.951 63.1818 272.314 64.2727C273.693 65.3485 275.39 65.8864 277.405 65.8864Z" fill="white"/>
<rect y="112.273" width="1441" height="16" rx="3" fill="#0D99FF"/>
</svg>
