<svg width="494" height="25" viewBox="0 0 494 25" fill="none" xmlns="http://www.w3.org/2000/svg">
<path d="M0.113636 19V1.54545H2.22727V9.31818H11.5341V1.54545H13.6477V19H11.5341V11.1932H2.22727V19H0.113636ZM23.7088 1.54545V19H21.5952V3.76136H21.4929L17.2315 6.59091V4.44318L21.5952 1.54545H23.7088ZM43.0128 9.33523V11.2102H35.3764V9.33523H43.0128ZM52.62 3.42045V1.54545H65.7109V3.42045H60.2223V19H58.1087V3.42045H52.62ZM70.7116 11.125V19H68.7003V1.54545H70.7116V7.95455H70.8821C71.1889 7.27841 71.6491 6.74148 72.2628 6.34375C72.8821 5.94034 73.706 5.73864 74.7344 5.73864C75.6264 5.73864 76.4077 5.91761 77.0781 6.27557C77.7486 6.62784 78.2685 7.17045 78.6378 7.90341C79.0128 8.63068 79.2003 9.55682 79.2003 10.6818V19H77.1889V10.8182C77.1889 9.77841 76.919 8.97443 76.3793 8.40625C75.8452 7.83239 75.1037 7.54545 74.1548 7.54545C73.4957 7.54545 72.9048 7.68466 72.3821 7.96307C71.8651 8.24148 71.456 8.64773 71.1548 9.18182C70.8594 9.71591 70.7116 10.3636 70.7116 11.125ZM88.3686 19.2727C87.1072 19.2727 86.0192 18.9943 85.1044 18.4375C84.1953 17.875 83.4936 17.0909 82.9993 16.0852C82.5107 15.0739 82.2663 13.8977 82.2663 12.5568C82.2663 11.2159 82.5107 10.0341 82.9993 9.01136C83.4936 7.98295 84.1811 7.18182 85.0618 6.60795C85.9482 6.02841 86.9822 5.73864 88.1641 5.73864C88.8459 5.73864 89.5192 5.85227 90.1839 6.07954C90.8487 6.30682 91.4538 6.67614 91.9993 7.1875C92.5447 7.69318 92.9794 8.36364 93.3033 9.19886C93.6271 10.0341 93.7891 11.0625 93.7891 12.2841V13.1364H83.6982V11.3977H91.7436C91.7436 10.6591 91.5959 10 91.3004 9.42045C91.0107 8.84091 90.5959 8.38352 90.0561 8.0483C89.522 7.71307 88.8913 7.54545 88.1641 7.54545C87.3629 7.54545 86.6697 7.74432 86.0845 8.14205C85.505 8.53409 85.0589 9.04545 84.7464 9.67614C84.4339 10.3068 84.2777 10.983 84.2777 11.7045V12.8636C84.2777 13.8523 84.4482 14.6903 84.7891 15.3778C85.1357 16.0597 85.6158 16.5795 86.2294 16.9375C86.843 17.2898 87.5561 17.4659 88.3686 17.4659C88.897 17.4659 89.3743 17.392 89.8004 17.2443C90.2322 17.0909 90.6044 16.8636 90.9169 16.5625C91.2294 16.2557 91.4709 15.875 91.6413 15.4205L93.5845 15.9659C93.38 16.625 93.0362 17.2045 92.5533 17.7045C92.0703 18.1989 91.4737 18.5852 90.7635 18.8636C90.0533 19.1364 89.255 19.2727 88.3686 19.2727ZM112.531 23.9091V16.9886H112.36C112.212 17.2273 112.002 17.5284 111.729 17.892C111.457 18.25 111.067 18.571 110.562 18.8551C110.056 19.1335 109.383 19.2727 108.542 19.2727C107.451 19.2727 106.488 18.9972 105.653 18.446C104.817 17.8892 104.164 17.1051 103.692 16.0938C103.221 15.0767 102.985 13.875 102.985 12.4886C102.985 11.1136 103.221 9.92045 103.692 8.90909C104.164 7.89773 104.82 7.11648 105.661 6.56534C106.502 6.0142 107.474 5.73864 108.576 5.73864C109.428 5.73864 110.102 5.88068 110.596 6.16477C111.096 6.44318 111.477 6.76136 111.738 7.11932C112.005 7.47159 112.212 7.76136 112.36 7.98864H112.599V5.90909H114.542V23.9091H112.531ZM108.815 17.4659C109.621 17.4659 110.303 17.2557 110.86 16.8352C111.417 16.4091 111.84 15.821 112.13 15.071C112.42 14.3153 112.565 13.4432 112.565 12.4545C112.565 11.4773 112.423 10.6222 112.138 9.8892C111.854 9.15057 111.434 8.5767 110.877 8.16761C110.32 7.75284 109.633 7.54545 108.815 7.54545C107.962 7.54545 107.252 7.7642 106.684 8.2017C106.121 8.63352 105.698 9.22159 105.414 9.96591C105.136 10.7045 104.996 11.5341 104.996 12.4545C104.996 13.3864 105.138 14.233 105.423 14.9943C105.712 15.75 106.138 16.3523 106.701 16.8011C107.269 17.2443 107.974 17.4659 108.815 17.4659ZM126.474 13.6477V5.90909H128.485V19H126.474V16.7841H126.337C126.031 17.4489 125.553 18.0142 124.906 18.4801C124.258 18.9403 123.44 19.1705 122.451 19.1705C121.633 19.1705 120.906 18.9915 120.269 18.6335C119.633 18.2699 119.133 17.7244 118.769 16.9972C118.406 16.2642 118.224 15.3409 118.224 14.2273V5.90909H120.235V14.0909C120.235 15.0455 120.502 15.8068 121.036 16.375C121.576 16.9432 122.263 17.2273 123.099 17.2273C123.599 17.2273 124.107 17.0994 124.624 16.8438C125.147 16.5881 125.585 16.196 125.937 15.6676C126.295 15.1392 126.474 14.4659 126.474 13.6477ZM132.169 19V5.90909H134.18V19H132.169ZM133.192 3.72727C132.8 3.72727 132.462 3.59375 132.178 3.3267C131.899 3.05966 131.76 2.73864 131.76 2.36364C131.76 1.98864 131.899 1.66761 132.178 1.40057C132.462 1.13352 132.8 1 133.192 1C133.584 1 133.919 1.13352 134.197 1.40057C134.482 1.66761 134.624 1.98864 134.624 2.36364C134.624 2.73864 134.482 3.05966 134.197 3.3267C133.919 3.59375 133.584 3.72727 133.192 3.72727ZM143.183 19.2727C141.955 19.2727 140.898 18.983 140.012 18.4034C139.126 17.8239 138.444 17.0256 137.967 16.0085C137.489 14.9915 137.251 13.8295 137.251 12.5227C137.251 11.1932 137.495 10.0199 137.984 9.00284C138.478 7.98011 139.165 7.18182 140.046 6.60795C140.933 6.02841 141.967 5.73864 143.148 5.73864C144.069 5.73864 144.898 5.90909 145.637 6.25C146.376 6.59091 146.981 7.06818 147.452 7.68182C147.924 8.29545 148.217 9.01136 148.33 9.82955H146.319C146.165 9.23295 145.825 8.70455 145.296 8.24432C144.773 7.77841 144.069 7.54545 143.183 7.54545C142.398 7.54545 141.711 7.75 141.12 8.15909C140.535 8.5625 140.077 9.13352 139.748 9.87216C139.424 10.6051 139.262 11.4659 139.262 12.4545C139.262 13.4659 139.421 14.3466 139.739 15.0966C140.063 15.8466 140.518 16.429 141.103 16.8438C141.694 17.2585 142.387 17.4659 143.183 17.4659C143.705 17.4659 144.18 17.375 144.606 17.1932C145.032 17.0114 145.393 16.75 145.688 16.4091C145.984 16.0682 146.194 15.6591 146.319 15.1818H148.33C148.217 15.9545 147.935 16.6506 147.487 17.2699C147.043 17.8835 146.455 18.3722 145.722 18.7358C144.995 19.0938 144.148 19.2727 143.183 19.2727ZM153.146 14.2273L153.112 11.7386H153.521L159.248 5.90909H161.737L155.634 12.0795H155.464L153.146 14.2273ZM151.271 19V1.54545H153.282V19H151.271ZM159.589 19L154.475 12.5227L155.907 11.125L162.146 19H159.589ZM176.905 5.90909V7.61364H169.848V5.90909H176.905ZM171.962 19V4.10227C171.962 3.35227 172.138 2.72727 172.49 2.22727C172.842 1.72727 173.3 1.35227 173.862 1.10227C174.425 0.852272 175.018 0.727272 175.643 0.727272C176.138 0.727272 176.541 0.767045 176.854 0.846591C177.166 0.926136 177.399 0.999999 177.553 1.06818L176.973 2.80682C176.871 2.77273 176.729 2.73011 176.547 2.67898C176.371 2.62784 176.138 2.60227 175.848 2.60227C175.183 2.60227 174.703 2.76989 174.408 3.10511C174.118 3.44034 173.973 3.93182 173.973 4.57954V19H171.962ZM184.503 19.2727C183.321 19.2727 182.284 18.9915 181.392 18.429C180.506 17.8665 179.812 17.0795 179.312 16.0682C178.818 15.0568 178.571 13.875 178.571 12.5227C178.571 11.1591 178.818 9.96875 179.312 8.9517C179.812 7.93466 180.506 7.14489 181.392 6.58239C182.284 6.01989 183.321 5.73864 184.503 5.73864C185.685 5.73864 186.719 6.01989 187.605 6.58239C188.497 7.14489 189.19 7.93466 189.685 8.9517C190.185 9.96875 190.435 11.1591 190.435 12.5227C190.435 13.875 190.185 15.0568 189.685 16.0682C189.19 17.0795 188.497 17.8665 187.605 18.429C186.719 18.9915 185.685 19.2727 184.503 19.2727ZM184.503 17.4659C185.401 17.4659 186.139 17.2358 186.719 16.7756C187.298 16.3153 187.727 15.7102 188.006 14.9602C188.284 14.2102 188.423 13.3977 188.423 12.5227C188.423 11.6477 188.284 10.8324 188.006 10.0767C187.727 9.32102 187.298 8.71023 186.719 8.24432C186.139 7.77841 185.401 7.54545 184.503 7.54545C183.605 7.54545 182.866 7.77841 182.287 8.24432C181.707 8.71023 181.278 9.32102 181 10.0767C180.722 10.8324 180.582 11.6477 180.582 12.5227C180.582 13.3977 180.722 14.2102 181 14.9602C181.278 15.7102 181.707 16.3153 182.287 16.7756C182.866 17.2358 183.605 17.4659 184.503 17.4659ZM194.466 5.90909L197.602 11.2614L200.739 5.90909H203.057L198.83 12.4545L203.057 19H200.739L197.602 13.9205L194.466 19H192.148L196.307 12.4545L192.148 5.90909H194.466ZM212.677 5.90909H214.688V19.9545C214.688 20.7614 214.549 21.4602 214.271 22.0511C213.998 22.642 213.583 23.0994 213.026 23.4233C212.475 23.7472 211.779 23.9091 210.938 23.9091C210.87 23.9091 210.802 23.9091 210.734 23.9091C210.665 23.9091 210.597 23.9091 210.529 23.9091V22.0341C210.597 22.0341 210.66 22.0341 210.717 22.0341C210.773 22.0341 210.836 22.0341 210.904 22.0341C211.518 22.0341 211.967 21.8523 212.251 21.4886C212.535 21.1307 212.677 20.6193 212.677 19.9545V5.90909ZM213.665 3.72727C213.273 3.72727 212.935 3.59375 212.651 3.3267C212.373 3.05966 212.234 2.73864 212.234 2.36364C212.234 1.98864 212.373 1.66761 212.651 1.40057C212.935 1.13352 213.273 1 213.665 1C214.058 1 214.393 1.13352 214.671 1.40057C214.955 1.66761 215.097 1.98864 215.097 2.36364C215.097 2.73864 214.955 3.05966 214.671 3.3267C214.393 3.59375 214.058 3.72727 213.665 3.72727ZM226.622 13.6477V5.90909H228.634V19H226.622V16.7841H226.486C226.179 17.4489 225.702 18.0142 225.054 18.4801C224.406 18.9403 223.588 19.1705 222.599 19.1705C221.781 19.1705 221.054 18.9915 220.418 18.6335C219.781 18.2699 219.281 17.7244 218.918 16.9972C218.554 16.2642 218.372 15.3409 218.372 14.2273V5.90909H220.384V14.0909C220.384 15.0455 220.651 15.8068 221.185 16.375C221.724 16.9432 222.412 17.2273 223.247 17.2273C223.747 17.2273 224.256 17.0994 224.773 16.8438C225.295 16.5881 225.733 16.196 226.085 15.6676C226.443 15.1392 226.622 14.4659 226.622 13.6477ZM232.317 19V5.90909H234.261V7.95455H234.431C234.704 7.25568 235.144 6.71307 235.752 6.3267C236.36 5.93466 237.09 5.73864 237.942 5.73864C238.806 5.73864 239.525 5.93466 240.099 6.3267C240.678 6.71307 241.13 7.25568 241.454 7.95455H241.59C241.925 7.27841 242.428 6.74148 243.099 6.34375C243.769 5.94034 244.573 5.73864 245.511 5.73864C246.681 5.73864 247.638 6.10511 248.383 6.83807C249.127 7.56534 249.499 8.69886 249.499 10.2386V19H247.488V10.2386C247.488 9.27273 247.224 8.58239 246.695 8.16761C246.167 7.75284 245.545 7.54545 244.829 7.54545C243.908 7.54545 243.195 7.82386 242.69 8.38068C242.184 8.93182 241.931 9.63068 241.931 10.4773V19H239.886V10.0341C239.886 9.28977 239.644 8.69034 239.161 8.2358C238.678 7.77557 238.056 7.54545 237.295 7.54545C236.772 7.54545 236.283 7.68466 235.829 7.96307C235.38 8.24148 235.016 8.62784 234.738 9.12216C234.465 9.6108 234.329 10.1761 234.329 10.8182V19H232.317ZM253.177 23.9091V5.90909H255.12V7.98864H255.359C255.506 7.76136 255.711 7.47159 255.972 7.11932C256.239 6.76136 256.62 6.44318 257.114 6.16477C257.614 5.88068 258.29 5.73864 259.143 5.73864C260.245 5.73864 261.217 6.0142 262.058 6.56534C262.898 7.11648 263.555 7.89773 264.026 8.90909C264.498 9.92045 264.734 11.1136 264.734 12.4886C264.734 13.875 264.498 15.0767 264.026 16.0938C263.555 17.1051 262.901 17.8892 262.066 18.446C261.231 18.9972 260.268 19.2727 259.177 19.2727C258.336 19.2727 257.663 19.1335 257.157 18.8551C256.651 18.571 256.262 18.25 255.989 17.892C255.717 17.5284 255.506 17.2273 255.359 16.9886H255.188V23.9091H253.177ZM255.154 12.4545C255.154 13.4432 255.299 14.3153 255.589 15.071C255.879 15.821 256.302 16.4091 256.859 16.8352C257.415 17.2557 258.097 17.4659 258.904 17.4659C259.745 17.4659 260.447 17.2443 261.009 16.8011C261.577 16.3523 262.004 15.75 262.288 14.9943C262.577 14.233 262.722 13.3864 262.722 12.4545C262.722 11.5341 262.58 10.7045 262.296 9.96591C262.018 9.22159 261.594 8.63352 261.026 8.2017C260.464 7.7642 259.756 7.54545 258.904 7.54545C258.086 7.54545 257.398 7.75284 256.842 8.16761C256.285 8.5767 255.864 9.15057 255.58 9.8892C255.296 10.6222 255.154 11.4773 255.154 12.4545ZM277.075 8.84091L275.268 9.35227C275.154 9.05114 274.987 8.75852 274.765 8.47443C274.549 8.18466 274.254 7.94602 273.879 7.75852C273.504 7.57102 273.023 7.47727 272.438 7.47727C271.637 7.47727 270.969 7.66193 270.435 8.03125C269.907 8.39489 269.643 8.85795 269.643 9.42045C269.643 9.92045 269.825 10.3153 270.188 10.6051C270.552 10.8949 271.12 11.1364 271.893 11.3295L273.836 11.8068C275.006 12.0909 275.879 12.5256 276.452 13.1108C277.026 13.6903 277.313 14.4375 277.313 15.3523C277.313 16.1023 277.097 16.7727 276.665 17.3636C276.239 17.9545 275.643 18.4205 274.876 18.7614C274.109 19.1023 273.217 19.2727 272.2 19.2727C270.864 19.2727 269.759 18.983 268.884 18.4034C268.009 17.8239 267.455 16.9773 267.222 15.8636L269.131 15.3864C269.313 16.0909 269.657 16.6193 270.163 16.9716C270.674 17.3239 271.342 17.5 272.165 17.5C273.103 17.5 273.847 17.3011 274.398 16.9034C274.955 16.5 275.234 16.017 275.234 15.4545C275.234 15 275.075 14.6193 274.756 14.3125C274.438 14 273.95 13.767 273.29 13.6136L271.109 13.1023C269.91 12.8182 269.029 12.3778 268.467 11.7812C267.91 11.179 267.631 10.4261 267.631 9.52273C267.631 8.78409 267.839 8.13068 268.254 7.5625C268.674 6.99432 269.245 6.5483 269.967 6.22443C270.694 5.90057 271.518 5.73864 272.438 5.73864C273.734 5.73864 274.751 6.02273 275.489 6.59091C276.234 7.15909 276.762 7.90909 277.075 8.84091ZM292.409 19.2727C291.227 19.2727 290.19 18.9915 289.298 18.429C288.412 17.8665 287.719 17.0795 287.219 16.0682C286.724 15.0568 286.477 13.875 286.477 12.5227C286.477 11.1591 286.724 9.96875 287.219 8.9517C287.719 7.93466 288.412 7.14489 289.298 6.58239C290.19 6.01989 291.227 5.73864 292.409 5.73864C293.591 5.73864 294.625 6.01989 295.511 6.58239C296.403 7.14489 297.097 7.93466 297.591 8.9517C298.091 9.96875 298.341 11.1591 298.341 12.5227C298.341 13.875 298.091 15.0568 297.591 16.0682C297.097 17.0795 296.403 17.8665 295.511 18.429C294.625 18.9915 293.591 19.2727 292.409 19.2727ZM292.409 17.4659C293.307 17.4659 294.045 17.2358 294.625 16.7756C295.205 16.3153 295.634 15.7102 295.912 14.9602C296.19 14.2102 296.33 13.3977 296.33 12.5227C296.33 11.6477 296.19 10.8324 295.912 10.0767C295.634 9.32102 295.205 8.71023 294.625 8.24432C294.045 7.77841 293.307 7.54545 292.409 7.54545C291.511 7.54545 290.773 7.77841 290.193 8.24432C289.614 8.71023 289.185 9.32102 288.906 10.0767C288.628 10.8324 288.489 11.6477 288.489 12.5227C288.489 13.3977 288.628 14.2102 288.906 14.9602C289.185 15.7102 289.614 16.3153 290.193 16.7756C290.773 17.2358 291.511 17.4659 292.409 17.4659ZM311.647 5.90909L306.806 19H304.761L299.92 5.90909H302.102L305.715 16.3409H305.852L309.465 5.90909H311.647ZM319.322 19.2727C318.06 19.2727 316.972 18.9943 316.058 18.4375C315.148 17.875 314.447 17.0909 313.952 16.0852C313.464 15.0739 313.219 13.8977 313.219 12.5568C313.219 11.2159 313.464 10.0341 313.952 9.01136C314.447 7.98295 315.134 7.18182 316.015 6.60795C316.901 6.02841 317.935 5.73864 319.117 5.73864C319.799 5.73864 320.472 5.85227 321.137 6.07954C321.802 6.30682 322.407 6.67614 322.952 7.1875C323.498 7.69318 323.933 8.36364 324.256 9.19886C324.58 10.0341 324.742 11.0625 324.742 12.2841V13.1364H314.651V11.3977H322.697C322.697 10.6591 322.549 10 322.254 9.42045C321.964 8.84091 321.549 8.38352 321.009 8.0483C320.475 7.71307 319.844 7.54545 319.117 7.54545C318.316 7.54545 317.623 7.74432 317.038 8.14205C316.458 8.53409 316.012 9.04545 315.7 9.67614C315.387 10.3068 315.231 10.983 315.231 11.7045V12.8636C315.231 13.8523 315.401 14.6903 315.742 15.3778C316.089 16.0597 316.569 16.5795 317.183 16.9375C317.796 17.2898 318.509 17.4659 319.322 17.4659C319.85 17.4659 320.327 17.392 320.754 17.2443C321.185 17.0909 321.558 16.8636 321.87 16.5625C322.183 16.2557 322.424 15.875 322.594 15.4205L324.538 15.9659C324.333 16.625 323.989 17.2045 323.506 17.7045C323.023 18.1989 322.427 18.5852 321.717 18.8636C321.006 19.1364 320.208 19.2727 319.322 19.2727ZM327.802 19V5.90909H329.745V7.88636H329.881C330.12 7.23864 330.552 6.71307 331.177 6.30966C331.802 5.90625 332.506 5.70454 333.29 5.70454C333.438 5.70454 333.623 5.70739 333.844 5.71307C334.066 5.71875 334.234 5.72727 334.347 5.73864V7.78409C334.279 7.76705 334.123 7.74148 333.879 7.70739C333.64 7.66761 333.387 7.64773 333.12 7.64773C332.484 7.64773 331.915 7.78125 331.415 8.0483C330.921 8.30966 330.529 8.6733 330.239 9.1392C329.955 9.59943 329.813 10.125 329.813 10.7159V19H327.802ZM349.175 5.90909V7.61364H342.391V5.90909H349.175ZM344.368 2.77273H346.379V15.25C346.379 15.8182 346.462 16.2443 346.626 16.5284C346.797 16.8068 347.013 16.9943 347.274 17.0909C347.541 17.1818 347.822 17.2273 348.118 17.2273C348.339 17.2273 348.521 17.2159 348.663 17.1932C348.805 17.1648 348.919 17.142 349.004 17.125L349.413 18.9318C349.277 18.983 349.087 19.0341 348.842 19.0852C348.598 19.142 348.288 19.1705 347.913 19.1705C347.345 19.1705 346.788 19.0483 346.243 18.804C345.703 18.5597 345.254 18.1875 344.896 17.6875C344.544 17.1875 344.368 16.5568 344.368 15.7955V2.77273ZM354.493 11.125V19H352.482V1.54545H354.493V7.95455H354.663C354.97 7.27841 355.43 6.74148 356.044 6.34375C356.663 5.94034 357.487 5.73864 358.516 5.73864C359.408 5.73864 360.189 5.91761 360.859 6.27557C361.53 6.62784 362.05 7.17045 362.419 7.90341C362.794 8.63068 362.982 9.55682 362.982 10.6818V19H360.97V10.8182C360.97 9.77841 360.7 8.97443 360.161 8.40625C359.626 7.83239 358.885 7.54545 357.936 7.54545C357.277 7.54545 356.686 7.68466 356.163 7.96307C355.646 8.24148 355.237 8.64773 354.936 9.18182C354.641 9.71591 354.493 10.3636 354.493 11.125ZM372.15 19.2727C370.888 19.2727 369.8 18.9943 368.886 18.4375C367.977 17.875 367.275 17.0909 366.781 16.0852C366.292 15.0739 366.048 13.8977 366.048 12.5568C366.048 11.2159 366.292 10.0341 366.781 9.01136C367.275 7.98295 367.962 7.18182 368.843 6.60795C369.729 6.02841 370.763 5.73864 371.945 5.73864C372.627 5.73864 373.3 5.85227 373.965 6.07954C374.63 6.30682 375.235 6.67614 375.781 7.1875C376.326 7.69318 376.761 8.36364 377.085 9.19886C377.408 10.0341 377.57 11.0625 377.57 12.2841V13.1364H367.479V11.3977H375.525C375.525 10.6591 375.377 10 375.082 9.42045C374.792 8.84091 374.377 8.38352 373.837 8.0483C373.303 7.71307 372.673 7.54545 371.945 7.54545C371.144 7.54545 370.451 7.74432 369.866 8.14205C369.286 8.53409 368.84 9.04545 368.528 9.67614C368.215 10.3068 368.059 10.983 368.059 11.7045V12.8636C368.059 13.8523 368.229 14.6903 368.57 15.3778C368.917 16.0597 369.397 16.5795 370.011 16.9375C370.624 17.2898 371.337 17.4659 372.15 17.4659C372.678 17.4659 373.156 17.392 373.582 17.2443C374.013 17.0909 374.386 16.8636 374.698 16.5625C375.011 16.2557 375.252 15.875 375.423 15.4205L377.366 15.9659C377.161 16.625 376.817 17.2045 376.335 17.7045C375.852 18.1989 375.255 18.5852 374.545 18.8636C373.835 19.1364 373.036 19.2727 372.15 19.2727ZM389.391 1.54545V19H387.38V1.54545H389.391ZM396.928 19.3068C396.098 19.3068 395.345 19.1506 394.669 18.8381C393.993 18.5199 393.456 18.0625 393.058 17.4659C392.661 16.8636 392.462 16.1364 392.462 15.2841C392.462 14.5341 392.609 13.9261 392.905 13.4602C393.2 12.9886 393.595 12.6193 394.089 12.3523C394.584 12.0852 395.129 11.8864 395.726 11.7557C396.328 11.6193 396.933 11.5114 397.541 11.4318C398.337 11.3295 398.982 11.2528 399.476 11.2017C399.976 11.1449 400.339 11.0511 400.567 10.9205C400.8 10.7898 400.916 10.5625 400.916 10.2386V10.1705C400.916 9.32955 400.686 8.67614 400.226 8.21023C399.771 7.74432 399.081 7.51136 398.155 7.51136C397.195 7.51136 396.442 7.72159 395.896 8.14205C395.351 8.5625 394.967 9.01136 394.746 9.48864L392.837 8.80682C393.178 8.01136 393.632 7.39205 394.2 6.94886C394.774 6.5 395.399 6.1875 396.075 6.01136C396.757 5.82955 397.428 5.73864 398.087 5.73864C398.507 5.73864 398.99 5.78977 399.536 5.89204C400.087 5.98864 400.618 6.19034 401.129 6.49716C401.646 6.80398 402.075 7.26705 402.416 7.88636C402.757 8.50568 402.928 9.33523 402.928 10.375V19H400.916V17.2273H400.814C400.678 17.5114 400.45 17.8153 400.132 18.1392C399.814 18.4631 399.391 18.7386 398.862 18.9659C398.334 19.1932 397.689 19.3068 396.928 19.3068ZM397.234 17.5C398.03 17.5 398.7 17.3438 399.246 17.0312C399.797 16.7188 400.212 16.3153 400.49 15.821C400.774 15.3267 400.916 14.8068 400.916 14.2614V12.4205C400.831 12.5227 400.643 12.6165 400.354 12.7017C400.07 12.7812 399.74 12.8523 399.365 12.9148C398.996 12.9716 398.635 13.0227 398.283 13.0682C397.936 13.108 397.655 13.142 397.439 13.1705C396.916 13.2386 396.428 13.3494 395.973 13.5028C395.524 13.6506 395.161 13.875 394.882 14.1761C394.609 14.4716 394.473 14.875 394.473 15.3864C394.473 16.0852 394.732 16.6136 395.249 16.9716C395.771 17.3239 396.433 17.5 397.234 17.5ZM406.224 19V17.4659L413.656 7.92045V7.78409H406.462V5.90909H416.246V7.51136L409.019 16.9886V17.125H416.485V19H406.224ZM420.879 23.9091C420.538 23.9091 420.234 23.8807 419.967 23.8239C419.7 23.7727 419.515 23.7216 419.413 23.6705L419.924 21.8977C420.413 22.0227 420.844 22.0682 421.219 22.0341C421.594 22 421.927 21.8324 422.217 21.5312C422.512 21.2358 422.782 20.7557 423.026 20.0909L423.401 19.0682L418.56 5.90909H420.742L424.356 16.3409H424.492L428.106 5.90909H430.288L424.731 20.9091C424.481 21.5852 424.171 22.1449 423.802 22.5881C423.433 23.0369 423.004 23.3693 422.515 23.5852C422.032 23.8011 421.487 23.9091 420.879 23.9091ZM444.636 19.2727C443.545 19.2727 442.582 18.9972 441.746 18.446C440.911 17.8892 440.258 17.1051 439.786 16.0938C439.315 15.0767 439.079 13.875 439.079 12.4886C439.079 11.1136 439.315 9.92045 439.786 8.90909C440.258 7.89773 440.914 7.11648 441.755 6.56534C442.596 6.0142 443.567 5.73864 444.67 5.73864C445.522 5.73864 446.195 5.88068 446.69 6.16477C447.19 6.44318 447.57 6.76136 447.832 7.11932C448.099 7.47159 448.306 7.76136 448.454 7.98864H448.624V1.54545H450.636V19H448.692V16.9886H448.454C448.306 17.2273 448.096 17.5284 447.823 17.892C447.55 18.25 447.161 18.571 446.656 18.8551C446.15 19.1335 445.477 19.2727 444.636 19.2727ZM444.908 17.4659C445.715 17.4659 446.397 17.2557 446.954 16.8352C447.511 16.4091 447.934 15.821 448.224 15.071C448.513 14.3153 448.658 13.4432 448.658 12.4545C448.658 11.4773 448.516 10.6222 448.232 9.8892C447.948 9.15057 447.528 8.5767 446.971 8.16761C446.414 7.75284 445.727 7.54545 444.908 7.54545C444.056 7.54545 443.346 7.7642 442.778 8.2017C442.215 8.63352 441.792 9.22159 441.508 9.96591C441.229 10.7045 441.09 11.5341 441.09 12.4545C441.09 13.3864 441.232 14.233 441.516 14.9943C441.806 15.75 442.232 16.3523 442.795 16.8011C443.363 17.2443 444.067 17.4659 444.908 17.4659ZM459.917 19.2727C458.735 19.2727 457.698 18.9915 456.806 18.429C455.92 17.8665 455.227 17.0795 454.727 16.0682C454.232 15.0568 453.985 13.875 453.985 12.5227C453.985 11.1591 454.232 9.96875 454.727 8.9517C455.227 7.93466 455.92 7.14489 456.806 6.58239C457.698 6.01989 458.735 5.73864 459.917 5.73864C461.099 5.73864 462.133 6.01989 463.019 6.58239C463.911 7.14489 464.604 7.93466 465.099 8.9517C465.599 9.96875 465.849 11.1591 465.849 12.5227C465.849 13.875 465.599 15.0568 465.099 16.0682C464.604 17.0795 463.911 17.8665 463.019 18.429C462.133 18.9915 461.099 19.2727 459.917 19.2727ZM459.917 17.4659C460.815 17.4659 461.553 17.2358 462.133 16.7756C462.712 16.3153 463.141 15.7102 463.42 14.9602C463.698 14.2102 463.837 13.3977 463.837 12.5227C463.837 11.6477 463.698 10.8324 463.42 10.0767C463.141 9.32102 462.712 8.71023 462.133 8.24432C461.553 7.77841 460.815 7.54545 459.917 7.54545C459.019 7.54545 458.281 7.77841 457.701 8.24432C457.121 8.71023 456.692 9.32102 456.414 10.0767C456.136 10.8324 455.996 11.6477 455.996 12.5227C455.996 13.3977 456.136 14.2102 456.414 14.9602C456.692 15.7102 457.121 16.3153 457.701 16.7756C458.281 17.2358 459.019 17.4659 459.917 17.4659ZM474.203 24.1818C473.232 24.1818 472.396 24.0568 471.697 23.8068C470.999 23.5625 470.416 23.2386 469.95 22.8352C469.49 22.4375 469.124 22.0114 468.851 21.5568L470.453 20.4318C470.635 20.6705 470.865 20.9432 471.143 21.25C471.422 21.5625 471.803 21.8324 472.286 22.0597C472.774 22.2926 473.413 22.4091 474.203 22.4091C475.26 22.4091 476.132 22.1534 476.82 21.642C477.507 21.1307 477.851 20.3295 477.851 19.2386V16.5795H477.68C477.533 16.8182 477.322 17.1136 477.05 17.4659C476.783 17.8125 476.396 18.1222 475.891 18.3949C475.391 18.6619 474.714 18.7955 473.862 18.7955C472.805 18.7955 471.857 18.5455 471.016 18.0455C470.18 17.5455 469.518 16.8182 469.03 15.8636C468.547 14.9091 468.305 13.75 468.305 12.3864C468.305 11.0455 468.541 9.87784 469.013 8.88352C469.484 7.88352 470.141 7.1108 470.982 6.56534C471.822 6.0142 472.794 5.73864 473.896 5.73864C474.749 5.73864 475.425 5.88068 475.925 6.16477C476.43 6.44318 476.817 6.76136 477.084 7.11932C477.357 7.47159 477.567 7.76136 477.714 7.98864H477.919V5.90909H479.862V19.375C479.862 20.5 479.607 21.4148 479.095 22.1193C478.589 22.8295 477.908 23.3494 477.05 23.679C476.197 24.0142 475.249 24.1818 474.203 24.1818ZM474.135 16.9886C474.942 16.9886 475.624 16.804 476.18 16.4347C476.737 16.0653 477.161 15.5341 477.45 14.8409C477.74 14.1477 477.885 13.3182 477.885 12.3523C477.885 11.4091 477.743 10.5767 477.459 9.85511C477.175 9.13352 476.754 8.56818 476.197 8.15909C475.641 7.75 474.953 7.54545 474.135 7.54545C473.283 7.54545 472.572 7.76136 472.004 8.19318C471.442 8.625 471.018 9.20455 470.734 9.93182C470.456 10.6591 470.317 11.4659 470.317 12.3523C470.317 13.2614 470.459 14.0653 470.743 14.7642C471.033 15.4574 471.459 16.0028 472.021 16.4006C472.589 16.7926 473.294 16.9886 474.135 16.9886ZM492.817 8.84091L491.01 9.35227C490.896 9.05114 490.729 8.75852 490.507 8.47443C490.291 8.18466 489.996 7.94602 489.621 7.75852C489.246 7.57102 488.766 7.47727 488.18 7.47727C487.379 7.47727 486.712 7.66193 486.178 8.03125C485.649 8.39489 485.385 8.85795 485.385 9.42045C485.385 9.92045 485.567 10.3153 485.93 10.6051C486.294 10.8949 486.862 11.1364 487.635 11.3295L489.578 11.8068C490.749 12.0909 491.621 12.5256 492.195 13.1108C492.768 13.6903 493.055 14.4375 493.055 15.3523C493.055 16.1023 492.839 16.7727 492.408 17.3636C491.982 17.9545 491.385 18.4205 490.618 18.7614C489.851 19.1023 488.959 19.2727 487.942 19.2727C486.607 19.2727 485.501 18.983 484.626 18.4034C483.751 17.8239 483.197 16.9773 482.964 15.8636L484.874 15.3864C485.055 16.0909 485.399 16.6193 485.905 16.9716C486.416 17.3239 487.084 17.5 487.908 17.5C488.845 17.5 489.589 17.3011 490.141 16.9034C490.697 16.5 490.976 16.017 490.976 15.4545C490.976 15 490.817 14.6193 490.499 14.3125C490.18 14 489.692 13.767 489.033 13.6136L486.851 13.1023C485.652 12.8182 484.771 12.3778 484.209 11.7812C483.652 11.179 483.374 10.4261 483.374 9.52273C483.374 8.78409 483.581 8.13068 483.996 7.5625C484.416 6.99432 484.987 6.5483 485.709 6.22443C486.436 5.90057 487.26 5.73864 488.18 5.73864C489.476 5.73864 490.493 6.02273 491.232 6.59091C491.976 7.15909 492.504 7.90909 492.817 8.84091Z" fill="#F1F1F1"/>
</svg>
