<svg width="195" height="24" viewBox="0 0 195 24" fill="none" xmlns="http://www.w3.org/2000/svg">
<path d="M0.113636 18V0.545454H2.22727V16.125H10.3409V18H0.113636ZM13.3409 18V4.90909H15.3523V18H13.3409ZM14.3636 2.72727C13.9716 2.72727 13.6335 2.59375 13.3494 2.3267C13.071 2.05966 12.9318 1.73864 12.9318 1.36364C12.9318 0.988636 13.071 0.667614 13.3494 0.400568C13.6335 0.133523 13.9716 0 14.3636 0C14.7557 0 15.0909 0.133523 15.3693 0.400568C15.6534 0.667614 15.7955 0.988636 15.7955 1.36364C15.7955 1.73864 15.6534 2.05966 15.3693 2.3267C15.0909 2.59375 14.7557 2.72727 14.3636 2.72727ZM24.3203 23.1818C23.3487 23.1818 22.5135 23.0568 21.8146 22.8068C21.1158 22.5625 20.5334 22.2386 20.0675 21.8352C19.6072 21.4375 19.2408 21.0114 18.968 20.5568L20.5703 19.4318C20.7521 19.6705 20.9822 19.9432 21.2607 20.25C21.5391 20.5625 21.9197 20.8324 22.4027 21.0597C22.8913 21.2926 23.5305 21.4091 24.3203 21.4091C25.3771 21.4091 26.2493 21.1534 26.9368 20.642C27.6243 20.1307 27.968 19.3295 27.968 18.2386V15.5795H27.7976C27.6499 15.8182 27.4396 16.1136 27.1669 16.4659C26.8999 16.8125 26.5135 17.1222 26.0078 17.3949C25.5078 17.6619 24.8317 17.7955 23.9794 17.7955C22.9226 17.7955 21.9737 17.5455 21.1328 17.0455C20.2976 16.5455 19.6357 15.8182 19.147 14.8636C18.6641 13.9091 18.4226 12.75 18.4226 11.3864C18.4226 10.0455 18.6584 8.87784 19.13 7.88352C19.6016 6.88352 20.2578 6.1108 21.0987 5.56534C21.9396 5.0142 22.9112 4.73864 24.0135 4.73864C24.8658 4.73864 25.5419 4.88068 26.0419 5.16477C26.5476 5.44318 26.9339 5.76136 27.201 6.11932C27.4737 6.47159 27.6839 6.76136 27.8317 6.98864H28.0362V4.90909H29.9794V18.375C29.9794 19.5 29.7237 20.4148 29.2124 21.1193C28.7067 21.8295 28.0249 22.3494 27.1669 22.679C26.3146 23.0142 25.3658 23.1818 24.3203 23.1818ZM24.2521 15.9886C25.0589 15.9886 25.7408 15.804 26.2976 15.4347C26.8544 15.0653 27.2777 14.5341 27.5675 13.8409C27.8572 13.1477 28.0021 12.3182 28.0021 11.3523C28.0021 10.4091 27.8601 9.5767 27.576 8.85511C27.2919 8.13352 26.8714 7.56818 26.3146 7.15909C25.7578 6.75 25.0703 6.54545 24.2521 6.54545C23.3999 6.54545 22.6896 6.76136 22.1214 7.19318C21.5589 7.625 21.1357 8.20455 20.8516 8.93182C20.5732 9.65909 20.4339 10.4659 20.4339 11.3523C20.4339 12.2614 20.576 13.0653 20.8601 13.7642C21.1499 14.4574 21.576 15.0028 22.1385 15.4006C22.7067 15.7926 23.4112 15.9886 24.2521 15.9886ZM35.6726 10.125V18H33.6612V0.545454H35.6726V6.95455H35.843C36.1499 6.27841 36.6101 5.74148 37.2237 5.34375C37.843 4.94034 38.6669 4.73864 39.6953 4.73864C40.5874 4.73864 41.3686 4.91761 42.0391 5.27557C42.7095 5.62784 43.2294 6.17045 43.5987 6.90341C43.9737 7.63068 44.1612 8.55682 44.1612 9.68182V18H42.1499V9.81818C42.1499 8.77841 41.88 7.97443 41.3402 7.40625C40.8061 6.83239 40.0646 6.54545 39.1158 6.54545C38.4567 6.54545 37.8658 6.68466 37.343 6.96307C36.826 7.24148 36.4169 7.64773 36.1158 8.18182C35.8203 8.71591 35.6726 9.36364 35.6726 10.125ZM53.5341 4.90909V6.61364H46.75V4.90909H53.5341ZM48.7273 1.77273H50.7386V14.25C50.7386 14.8182 50.821 15.2443 50.9858 15.5284C51.1563 15.8068 51.3722 15.9943 51.6335 16.0909C51.9006 16.1818 52.1818 16.2273 52.4773 16.2273C52.6989 16.2273 52.8807 16.2159 53.0227 16.1932C53.1648 16.1648 53.2784 16.142 53.3636 16.125L53.7727 17.9318C53.6364 17.983 53.446 18.0341 53.2017 18.0852C52.9574 18.142 52.6477 18.1705 52.2727 18.1705C51.7045 18.1705 51.1477 18.0483 50.6023 17.804C50.0625 17.5597 49.6136 17.1875 49.2557 16.6875C48.9034 16.1875 48.7273 15.5568 48.7273 14.7955V1.77273ZM63.5824 18V0.545454H65.5938V6.98864H65.7642C65.9119 6.76136 66.1165 6.47159 66.3778 6.11932C66.6449 5.76136 67.0256 5.44318 67.5199 5.16477C68.0199 4.88068 68.696 4.73864 69.5483 4.73864C70.6506 4.73864 71.6222 5.0142 72.4631 5.56534C73.304 6.11648 73.9602 6.89773 74.4318 7.90909C74.9034 8.92045 75.1392 10.1136 75.1392 11.4886C75.1392 12.875 74.9034 14.0767 74.4318 15.0938C73.9602 16.1051 73.3068 16.8892 72.4716 17.446C71.6364 17.9972 70.6733 18.2727 69.5824 18.2727C68.7415 18.2727 68.0682 18.1335 67.5625 17.8551C67.0568 17.571 66.6676 17.25 66.3949 16.892C66.1222 16.5284 65.9119 16.2273 65.7642 15.9886H65.5256V18H63.5824ZM65.5597 11.4545C65.5597 12.4432 65.7045 13.3153 65.9943 14.071C66.2841 14.821 66.7074 15.4091 67.2642 15.8352C67.821 16.2557 68.5028 16.4659 69.3097 16.4659C70.1506 16.4659 70.8523 16.2443 71.4148 15.8011C71.983 15.3523 72.4091 14.75 72.6932 13.9943C72.983 13.233 73.1278 12.3864 73.1278 11.4545C73.1278 10.5341 72.9858 9.70455 72.7017 8.96591C72.4233 8.22159 72 7.63352 71.4318 7.2017C70.8693 6.7642 70.1619 6.54545 69.3097 6.54545C68.4915 6.54545 67.804 6.75284 67.2472 7.16761C66.6903 7.5767 66.2699 8.15057 65.9858 8.8892C65.7017 9.62216 65.5597 10.4773 65.5597 11.4545ZM82.0682 18.3068C81.2386 18.3068 80.4858 18.1506 79.8097 17.8381C79.1335 17.5199 78.5966 17.0625 78.1989 16.4659C77.8011 15.8636 77.6023 15.1364 77.6023 14.2841C77.6023 13.5341 77.75 12.9261 78.0455 12.4602C78.3409 11.9886 78.7358 11.6193 79.2301 11.3523C79.7244 11.0852 80.2699 10.8864 80.8665 10.7557C81.4688 10.6193 82.0739 10.5114 82.6818 10.4318C83.4773 10.3295 84.1222 10.2528 84.6165 10.2017C85.1165 10.1449 85.4801 10.0511 85.7074 9.92045C85.9403 9.78977 86.0568 9.5625 86.0568 9.23864V9.17045C86.0568 8.32955 85.8267 7.67614 85.3665 7.21023C84.9119 6.74432 84.2216 6.51136 83.2955 6.51136C82.3352 6.51136 81.5824 6.72159 81.0369 7.14205C80.4915 7.5625 80.108 8.01136 79.8864 8.48864L77.9773 7.80682C78.3182 7.01136 78.7727 6.39205 79.3409 5.94886C79.9148 5.5 80.5398 5.1875 81.2159 5.01136C81.8977 4.82955 82.5682 4.73864 83.2273 4.73864C83.6477 4.73864 84.1307 4.78977 84.6761 4.89204C85.2273 4.98864 85.7585 5.19034 86.2699 5.49716C86.7869 5.80398 87.2159 6.26705 87.5568 6.88636C87.8977 7.50568 88.0682 8.33523 88.0682 9.375V18H86.0568V16.2273H85.9545C85.8182 16.5114 85.5909 16.8153 85.2727 17.1392C84.9545 17.4631 84.5313 17.7386 84.0028 17.9659C83.4744 18.1932 82.8295 18.3068 82.0682 18.3068ZM82.375 16.5C83.1705 16.5 83.8409 16.3438 84.3864 16.0312C84.9375 15.7188 85.3523 15.3153 85.6307 14.821C85.9148 14.3267 86.0568 13.8068 86.0568 13.2614V11.4205C85.9716 11.5227 85.7841 11.6165 85.4943 11.7017C85.2102 11.7812 84.8807 11.8523 84.5057 11.9148C84.1364 11.9716 83.7756 12.0227 83.4233 12.0682C83.0767 12.108 82.7955 12.142 82.5795 12.1705C82.0568 12.2386 81.5682 12.3494 81.1136 12.5028C80.6648 12.6506 80.3011 12.875 80.0227 13.1761C79.75 13.4716 79.6136 13.875 79.6136 14.3864C79.6136 15.0852 79.8722 15.6136 80.3892 15.9716C80.9119 16.3239 81.5739 16.5 82.375 16.5ZM97.0575 18.2727C95.8303 18.2727 94.7734 17.983 93.8871 17.4034C93.0007 16.8239 92.3189 16.0256 91.8416 15.0085C91.3643 13.9915 91.1257 12.8295 91.1257 11.5227C91.1257 10.1932 91.37 9.01989 91.8587 8.00284C92.353 6.98011 93.0405 6.18182 93.9212 5.60795C94.8075 5.02841 95.8416 4.73864 97.0234 4.73864C97.9439 4.73864 98.7734 4.90909 99.5121 5.25C100.251 5.59091 100.856 6.06818 101.327 6.68182C101.799 7.29545 102.092 8.01136 102.205 8.82955H100.194C100.04 8.23295 99.6996 7.70455 99.1712 7.24432C98.6484 6.77841 97.9439 6.54545 97.0575 6.54545C96.2734 6.54545 95.5859 6.75 94.995 7.15909C94.4098 7.5625 93.9524 8.13352 93.6229 8.87216C93.299 9.60511 93.1371 10.4659 93.1371 11.4545C93.1371 12.4659 93.2962 13.3466 93.6143 14.0966C93.9382 14.8466 94.3928 15.429 94.978 15.8438C95.5689 16.2585 96.2621 16.4659 97.0575 16.4659C97.5803 16.4659 98.0547 16.375 98.4808 16.1932C98.907 16.0114 99.2678 15.75 99.5632 15.4091C99.8587 15.0682 100.069 14.6591 100.194 14.1818H102.205C102.092 14.9545 101.81 15.6506 101.362 16.2699C100.918 16.8835 100.33 17.3722 99.5973 17.7358C98.87 18.0938 98.0234 18.2727 97.0575 18.2727ZM107.021 13.2273L106.987 10.7386H107.396L113.123 4.90909H115.612L109.509 11.0795H109.339L107.021 13.2273ZM105.146 18V0.545454H107.157V18H105.146ZM113.464 18L108.35 11.5227L109.782 10.125L116.021 18H113.464ZM122.945 23.1818C121.974 23.1818 121.138 23.0568 120.44 22.8068C119.741 22.5625 119.158 22.2386 118.692 21.8352C118.232 21.4375 117.866 21.0114 117.593 20.5568L119.195 19.4318C119.377 19.6705 119.607 19.9432 119.886 20.25C120.164 20.5625 120.545 20.8324 121.028 21.0597C121.516 21.2926 122.156 21.4091 122.945 21.4091C124.002 21.4091 124.874 21.1534 125.562 20.642C126.249 20.1307 126.593 19.3295 126.593 18.2386V15.5795H126.423C126.275 15.8182 126.065 16.1136 125.792 16.4659C125.525 16.8125 125.138 17.1222 124.633 17.3949C124.133 17.6619 123.457 17.7955 122.604 17.7955C121.548 17.7955 120.599 17.5455 119.758 17.0455C118.923 16.5455 118.261 15.8182 117.772 14.8636C117.289 13.9091 117.048 12.75 117.048 11.3864C117.048 10.0455 117.283 8.87784 117.755 7.88352C118.227 6.88352 118.883 6.1108 119.724 5.56534C120.565 5.0142 121.536 4.73864 122.638 4.73864C123.491 4.73864 124.167 4.88068 124.667 5.16477C125.173 5.44318 125.559 5.76136 125.826 6.11932C126.099 6.47159 126.309 6.76136 126.457 6.98864H126.661V4.90909H128.604V18.375C128.604 19.5 128.349 20.4148 127.837 21.1193C127.332 21.8295 126.65 22.3494 125.792 22.679C124.94 23.0142 123.991 23.1818 122.945 23.1818ZM122.877 15.9886C123.684 15.9886 124.366 15.804 124.923 15.4347C125.479 15.0653 125.903 14.5341 126.192 13.8409C126.482 13.1477 126.627 12.3182 126.627 11.3523C126.627 10.4091 126.485 9.5767 126.201 8.85511C125.917 8.13352 125.496 7.56818 124.94 7.15909C124.383 6.75 123.695 6.54545 122.877 6.54545C122.025 6.54545 121.315 6.76136 120.746 7.19318C120.184 7.625 119.761 8.20455 119.477 8.93182C119.198 9.65909 119.059 10.4659 119.059 11.3523C119.059 12.2614 119.201 13.0653 119.485 13.7642C119.775 14.4574 120.201 15.0028 120.763 15.4006C121.332 15.7926 122.036 15.9886 122.877 15.9886ZM132.286 18V4.90909H134.229V6.88636H134.366C134.604 6.23864 135.036 5.71307 135.661 5.30966C136.286 4.90625 136.991 4.70454 137.775 4.70454C137.923 4.70454 138.107 4.70739 138.329 4.71307C138.55 4.71875 138.718 4.72727 138.832 4.73864V6.78409C138.763 6.76705 138.607 6.74148 138.363 6.70739C138.124 6.66761 137.871 6.64773 137.604 6.64773C136.968 6.64773 136.4 6.78125 135.9 7.0483C135.406 7.30966 135.013 7.6733 134.724 8.1392C134.44 8.59943 134.298 9.125 134.298 9.71591V18H132.286ZM146.136 18.2727C144.954 18.2727 143.917 17.9915 143.025 17.429C142.138 16.8665 141.445 16.0795 140.945 15.0682C140.451 14.0568 140.204 12.875 140.204 11.5227C140.204 10.1591 140.451 8.96875 140.945 7.9517C141.445 6.93466 142.138 6.14489 143.025 5.58239C143.917 5.01989 144.954 4.73864 146.136 4.73864C147.317 4.73864 148.352 5.01989 149.238 5.58239C150.13 6.14489 150.823 6.93466 151.317 7.9517C151.817 8.96875 152.067 10.1591 152.067 11.5227C152.067 12.875 151.817 14.0568 151.317 15.0682C150.823 16.0795 150.13 16.8665 149.238 17.429C148.352 17.9915 147.317 18.2727 146.136 18.2727ZM146.136 16.4659C147.033 16.4659 147.772 16.2358 148.352 15.7756C148.931 15.3153 149.36 14.7102 149.638 13.9602C149.917 13.2102 150.056 12.3977 150.056 11.5227C150.056 10.6477 149.917 9.83239 149.638 9.0767C149.36 8.32102 148.931 7.71023 148.352 7.24432C147.772 6.77841 147.033 6.54545 146.136 6.54545C145.238 6.54545 144.499 6.77841 143.92 7.24432C143.34 7.71023 142.911 8.32102 142.633 9.0767C142.354 9.83239 142.215 10.6477 142.215 11.5227C142.215 12.3977 142.354 13.2102 142.633 13.9602C142.911 14.7102 143.34 15.3153 143.92 15.7756C144.499 16.2358 145.238 16.4659 146.136 16.4659ZM163.388 12.6477V4.90909H165.399V18H163.388V15.7841H163.251C162.945 16.4489 162.467 17.0142 161.82 17.4801C161.172 17.9403 160.354 18.1705 159.365 18.1705C158.547 18.1705 157.82 17.9915 157.183 17.6335C156.547 17.2699 156.047 16.7244 155.683 15.9972C155.32 15.2642 155.138 14.3409 155.138 13.2273V4.90909H157.149V13.0909C157.149 14.0455 157.416 14.8068 157.95 15.375C158.49 15.9432 159.178 16.2273 160.013 16.2273C160.513 16.2273 161.021 16.0994 161.538 15.8438C162.061 15.5881 162.499 15.196 162.851 14.6676C163.209 14.1392 163.388 13.4659 163.388 12.6477ZM171.094 10.125V18H169.083V4.90909H171.026V6.95455H171.197C171.504 6.28977 171.969 5.75568 172.594 5.35227C173.219 4.94318 174.026 4.73864 175.015 4.73864C175.901 4.73864 176.677 4.92045 177.342 5.28409C178.006 5.64205 178.523 6.1875 178.893 6.92045C179.262 7.64773 179.447 8.56818 179.447 9.68182V18H177.435V9.81818C177.435 8.78977 177.168 7.98864 176.634 7.41477C176.1 6.83523 175.367 6.54545 174.435 6.54545C173.793 6.54545 173.219 6.68466 172.714 6.96307C172.214 7.24148 171.819 7.64773 171.529 8.18182C171.239 8.71591 171.094 9.36364 171.094 10.125ZM188.065 18.2727C186.974 18.2727 186.011 17.9972 185.176 17.446C184.341 16.8892 183.688 16.1051 183.216 15.0938C182.744 14.0767 182.509 12.875 182.509 11.4886C182.509 10.1136 182.744 8.92045 183.216 7.90909C183.688 6.89773 184.344 6.11648 185.185 5.56534C186.026 5.0142 186.997 4.73864 188.099 4.73864C188.952 4.73864 189.625 4.88068 190.119 5.16477C190.619 5.44318 191 5.76136 191.261 6.11932C191.528 6.47159 191.736 6.76136 191.884 6.98864H192.054V0.545454H194.065V18H192.122V15.9886H191.884C191.736 16.2273 191.526 16.5284 191.253 16.892C190.98 17.25 190.591 17.571 190.085 17.8551C189.58 18.1335 188.906 18.2727 188.065 18.2727ZM188.338 16.4659C189.145 16.4659 189.827 16.2557 190.384 15.8352C190.94 15.4091 191.364 14.821 191.653 14.071C191.943 13.3153 192.088 12.4432 192.088 11.4545C192.088 10.4773 191.946 9.62216 191.662 8.8892C191.378 8.15057 190.957 7.5767 190.401 7.16761C189.844 6.75284 189.156 6.54545 188.338 6.54545C187.486 6.54545 186.776 6.7642 186.207 7.2017C185.645 7.63352 185.222 8.22159 184.938 8.96591C184.659 9.70455 184.52 10.5341 184.52 11.4545C184.52 12.3864 184.662 13.233 184.946 13.9943C185.236 14.75 185.662 15.3523 186.224 15.8011C186.793 16.2443 187.497 16.4659 188.338 16.4659Z" fill="#F1F1F1"/>
</svg>
