<svg width="180" height="24" viewBox="0 0 180 24" fill="none" xmlns="http://www.w3.org/2000/svg">
<path d="M0.113636 0.545454H2.63636L8.56818 15.0341H8.77273L14.7045 0.545454H17.2273V18H15.25V4.73864H15.0795L9.625 18H7.71591L2.26136 4.73864H2.09091V18H0.113636V0.545454ZM21.1925 18V4.90909H23.2038V18H21.1925ZM22.2152 2.72727C21.8232 2.72727 21.4851 2.59375 21.201 2.3267C20.9226 2.05966 20.7834 1.73864 20.7834 1.36364C20.7834 0.988636 20.9226 0.667614 21.201 0.400568C21.4851 0.133523 21.8232 0 22.2152 0C22.6072 0 22.9425 0.133523 23.2209 0.400568C23.505 0.667614 23.647 0.988636 23.647 1.36364C23.647 1.73864 23.505 2.05966 23.2209 2.3267C22.9425 2.59375 22.6072 2.72727 22.2152 2.72727ZM31.831 18.2727C30.7401 18.2727 29.777 17.9972 28.9418 17.446C28.1065 16.8892 27.4531 16.1051 26.9815 15.0938C26.5099 14.0767 26.2741 12.875 26.2741 11.4886C26.2741 10.1136 26.5099 8.92045 26.9815 7.90909C27.4531 6.89773 28.1094 6.11648 28.9503 5.56534C29.7912 5.0142 30.7628 4.73864 31.8651 4.73864C32.7173 4.73864 33.3906 4.88068 33.8849 5.16477C34.3849 5.44318 34.7656 5.76136 35.027 6.11932C35.294 6.47159 35.5014 6.76136 35.6491 6.98864H35.8196V0.545454H37.831V18H35.8878V15.9886H35.6491C35.5014 16.2273 35.2912 16.5284 35.0185 16.892C34.7457 17.25 34.3565 17.571 33.8509 17.8551C33.3452 18.1335 32.6719 18.2727 31.831 18.2727ZM32.1037 16.4659C32.9105 16.4659 33.5923 16.2557 34.1491 15.8352C34.706 15.4091 35.1293 14.821 35.419 14.071C35.7088 13.3153 35.8537 12.4432 35.8537 11.4545C35.8537 10.4773 35.7116 9.62216 35.4276 8.8892C35.1435 8.15057 34.723 7.5767 34.1662 7.16761C33.6094 6.75284 32.9219 6.54545 32.1037 6.54545C31.2514 6.54545 30.5412 6.7642 29.973 7.2017C29.4105 7.63352 28.9872 8.22159 28.7031 8.96591C28.4247 9.70455 28.2855 10.5341 28.2855 11.4545C28.2855 12.3864 28.4276 13.233 28.7116 13.9943C29.0014 14.75 29.4276 15.3523 29.9901 15.8011C30.5582 16.2443 31.2628 16.4659 32.1037 16.4659ZM48.8168 18V0.545454H54.919C56.1349 0.545454 57.1378 0.755682 57.9276 1.17614C58.7173 1.59091 59.3054 2.15057 59.6918 2.85511C60.0781 3.55398 60.2713 4.32954 60.2713 5.18182C60.2713 5.93182 60.1378 6.55114 59.8707 7.03977C59.6094 7.52841 59.2628 7.91477 58.831 8.19886C58.4048 8.48295 57.9418 8.69318 57.4418 8.82955V9C57.9759 9.03409 58.5128 9.22159 59.0526 9.5625C59.5923 9.90341 60.044 10.392 60.4077 11.0284C60.7713 11.6648 60.9531 12.4432 60.9531 13.3636C60.9531 14.2386 60.7543 15.0256 60.3565 15.7244C59.9588 16.4233 59.331 16.9773 58.473 17.3864C57.6151 17.7955 56.4986 18 55.1236 18H48.8168ZM50.9304 16.125H55.1236C56.5043 16.125 57.4844 15.858 58.0639 15.3239C58.6491 14.7841 58.9418 14.1307 58.9418 13.3636C58.9418 12.7727 58.7912 12.2273 58.4901 11.7273C58.1889 11.2216 57.7599 10.8182 57.2031 10.517C56.6463 10.2102 55.9872 10.0568 55.2259 10.0568H50.9304V16.125ZM50.9304 8.21591H54.8509C55.4872 8.21591 56.0611 8.09091 56.5724 7.84091C57.0895 7.59091 57.4986 7.23864 57.7997 6.78409C58.1065 6.32955 58.2599 5.79545 58.2599 5.18182C58.2599 4.41477 57.9929 3.7642 57.4588 3.23011C56.9247 2.69034 56.0781 2.42045 54.919 2.42045H50.9304V8.21591ZM68.0057 18.3068C67.1761 18.3068 66.4233 18.1506 65.7472 17.8381C65.071 17.5199 64.5341 17.0625 64.1364 16.4659C63.7386 15.8636 63.5398 15.1364 63.5398 14.2841C63.5398 13.5341 63.6875 12.9261 63.983 12.4602C64.2784 11.9886 64.6733 11.6193 65.1676 11.3523C65.6619 11.0852 66.2074 10.8864 66.804 10.7557C67.4063 10.6193 68.0114 10.5114 68.6193 10.4318C69.4148 10.3295 70.0597 10.2528 70.554 10.2017C71.054 10.1449 71.4176 10.0511 71.6449 9.92045C71.8778 9.78977 71.9943 9.5625 71.9943 9.23864V9.17045C71.9943 8.32955 71.7642 7.67614 71.304 7.21023C70.8494 6.74432 70.1591 6.51136 69.233 6.51136C68.2727 6.51136 67.5199 6.72159 66.9744 7.14205C66.429 7.5625 66.0455 8.01136 65.8239 8.48864L63.9148 7.80682C64.2557 7.01136 64.7102 6.39205 65.2784 5.94886C65.8523 5.5 66.4773 5.1875 67.1534 5.01136C67.8352 4.82955 68.5057 4.73864 69.1648 4.73864C69.5852 4.73864 70.0682 4.78977 70.6136 4.89204C71.1648 4.98864 71.696 5.19034 72.2074 5.49716C72.7244 5.80398 73.1534 6.26705 73.4943 6.88636C73.8352 7.50568 74.0057 8.33523 74.0057 9.375V18H71.9943V16.2273H71.892C71.7557 16.5114 71.5284 16.8153 71.2102 17.1392C70.892 17.4631 70.4688 17.7386 69.9403 17.9659C69.4119 18.1932 68.767 18.3068 68.0057 18.3068ZM68.3125 16.5C69.108 16.5 69.7784 16.3438 70.3239 16.0312C70.875 15.7188 71.2898 15.3153 71.5682 14.821C71.8523 14.3267 71.9943 13.8068 71.9943 13.2614V11.4205C71.9091 11.5227 71.7216 11.6165 71.4318 11.7017C71.1477 11.7812 70.8182 11.8523 70.4432 11.9148C70.0739 11.9716 69.7131 12.0227 69.3608 12.0682C69.0142 12.108 68.733 12.142 68.517 12.1705C67.9943 12.2386 67.5057 12.3494 67.0511 12.5028C66.6023 12.6506 66.2386 12.875 65.9602 13.1761C65.6875 13.4716 65.5511 13.875 65.5511 14.3864C65.5511 15.0852 65.8097 15.6136 66.3267 15.9716C66.8494 16.3239 67.5114 16.5 68.3125 16.5ZM82.995 18.2727C81.7678 18.2727 80.7109 17.983 79.8246 17.4034C78.9382 16.8239 78.2564 16.0256 77.7791 15.0085C77.3018 13.9915 77.0632 12.8295 77.0632 11.5227C77.0632 10.1932 77.3075 9.01989 77.7962 8.00284C78.2905 6.98011 78.978 6.18182 79.8587 5.60795C80.745 5.02841 81.7791 4.73864 82.9609 4.73864C83.8814 4.73864 84.7109 4.90909 85.4496 5.25C86.1882 5.59091 86.7933 6.06818 87.2649 6.68182C87.7365 7.29545 88.0291 8.01136 88.1428 8.82955H86.1314C85.978 8.23295 85.6371 7.70455 85.1087 7.24432C84.5859 6.77841 83.8814 6.54545 82.995 6.54545C82.2109 6.54545 81.5234 6.75 80.9325 7.15909C80.3473 7.5625 79.8899 8.13352 79.5604 8.87216C79.2365 9.60511 79.0746 10.4659 79.0746 11.4545C79.0746 12.4659 79.2337 13.3466 79.5518 14.0966C79.8757 14.8466 80.3303 15.429 80.9155 15.8438C81.5064 16.2585 82.1996 16.4659 82.995 16.4659C83.5178 16.4659 83.9922 16.375 84.4183 16.1932C84.8445 16.0114 85.2053 15.75 85.5007 15.4091C85.7962 15.0682 86.0064 14.6591 86.1314 14.1818H88.1428C88.0291 14.9545 87.7479 15.6506 87.299 16.2699C86.8558 16.8835 86.2678 17.3722 85.5348 17.7358C84.8075 18.0938 83.9609 18.2727 82.995 18.2727ZM92.9581 13.2273L92.924 10.7386H93.3331L99.0604 4.90909H101.549L95.4467 11.0795H95.2763L92.9581 13.2273ZM91.0831 18V0.545454H93.0945V18H91.0831ZM99.4013 18L94.2876 11.5227L95.7195 10.125L101.958 18H99.4013ZM108.883 23.1818C107.911 23.1818 107.076 23.0568 106.377 22.8068C105.678 22.5625 105.096 22.2386 104.63 21.8352C104.17 21.4375 103.803 21.0114 103.531 20.5568L105.133 19.4318C105.315 19.6705 105.545 19.9432 105.823 20.25C106.102 20.5625 106.482 20.8324 106.965 21.0597C107.454 21.2926 108.093 21.4091 108.883 21.4091C109.94 21.4091 110.812 21.1534 111.499 20.642C112.187 20.1307 112.531 19.3295 112.531 18.2386V15.5795H112.36C112.212 15.8182 112.002 16.1136 111.729 16.4659C111.462 16.8125 111.076 17.1222 110.57 17.3949C110.07 17.6619 109.394 17.7955 108.542 17.7955C107.485 17.7955 106.536 17.5455 105.695 17.0455C104.86 16.5455 104.198 15.8182 103.71 14.8636C103.227 13.9091 102.985 12.75 102.985 11.3864C102.985 10.0455 103.221 8.87784 103.692 7.88352C104.164 6.88352 104.82 6.1108 105.661 5.56534C106.502 5.0142 107.474 4.73864 108.576 4.73864C109.428 4.73864 110.104 4.88068 110.604 5.16477C111.11 5.44318 111.496 5.76136 111.763 6.11932C112.036 6.47159 112.246 6.76136 112.394 6.98864H112.599V4.90909H114.542V18.375C114.542 19.5 114.286 20.4148 113.775 21.1193C113.269 21.8295 112.587 22.3494 111.729 22.679C110.877 23.0142 109.928 23.1818 108.883 23.1818ZM108.815 15.9886C109.621 15.9886 110.303 15.804 110.86 15.4347C111.417 15.0653 111.84 14.5341 112.13 13.8409C112.42 13.1477 112.565 12.3182 112.565 11.3523C112.565 10.4091 112.423 9.5767 112.138 8.85511C111.854 8.13352 111.434 7.56818 110.877 7.15909C110.32 6.75 109.633 6.54545 108.815 6.54545C107.962 6.54545 107.252 6.76136 106.684 7.19318C106.121 7.625 105.698 8.20455 105.414 8.93182C105.136 9.65909 104.996 10.4659 104.996 11.3523C104.996 12.2614 105.138 13.0653 105.423 13.7642C105.712 14.4574 106.138 15.0028 106.701 15.4006C107.269 15.7926 107.974 15.9886 108.815 15.9886ZM118.224 18V4.90909H120.167V6.88636H120.303C120.542 6.23864 120.974 5.71307 121.599 5.30966C122.224 4.90625 122.928 4.70454 123.712 4.70454C123.86 4.70454 124.045 4.70739 124.266 4.71307C124.488 4.71875 124.656 4.72727 124.769 4.73864V6.78409C124.701 6.76705 124.545 6.74148 124.3 6.70739C124.062 6.66761 123.809 6.64773 123.542 6.64773C122.906 6.64773 122.337 6.78125 121.837 7.0483C121.343 7.30966 120.951 7.6733 120.661 8.1392C120.377 8.59943 120.235 9.125 120.235 9.71591V18H118.224ZM132.073 18.2727C130.891 18.2727 129.854 17.9915 128.962 17.429C128.076 16.8665 127.383 16.0795 126.883 15.0682C126.388 14.0568 126.141 12.875 126.141 11.5227C126.141 10.1591 126.388 8.96875 126.883 7.9517C127.383 6.93466 128.076 6.14489 128.962 5.58239C129.854 5.01989 130.891 4.73864 132.073 4.73864C133.255 4.73864 134.289 5.01989 135.175 5.58239C136.067 6.14489 136.761 6.93466 137.255 7.9517C137.755 8.96875 138.005 10.1591 138.005 11.5227C138.005 12.875 137.755 14.0568 137.255 15.0682C136.761 16.0795 136.067 16.8665 135.175 17.429C134.289 17.9915 133.255 18.2727 132.073 18.2727ZM132.073 16.4659C132.971 16.4659 133.71 16.2358 134.289 15.7756C134.869 15.3153 135.298 14.7102 135.576 13.9602C135.854 13.2102 135.994 12.3977 135.994 11.5227C135.994 10.6477 135.854 9.83239 135.576 9.0767C135.298 8.32102 134.869 7.71023 134.289 7.24432C133.71 6.77841 132.971 6.54545 132.073 6.54545C131.175 6.54545 130.437 6.77841 129.857 7.24432C129.278 7.71023 128.849 8.32102 128.57 9.0767C128.292 9.83239 128.153 10.6477 128.153 11.5227C128.153 12.3977 128.292 13.2102 128.57 13.9602C128.849 14.7102 129.278 15.3153 129.857 15.7756C130.437 16.2358 131.175 16.4659 132.073 16.4659ZM149.325 12.6477V4.90909H151.337V18H149.325V15.7841H149.189C148.882 16.4489 148.405 17.0142 147.757 17.4801C147.109 17.9403 146.291 18.1705 145.303 18.1705C144.484 18.1705 143.757 17.9915 143.121 17.6335C142.484 17.2699 141.984 16.7244 141.621 15.9972C141.257 15.2642 141.075 14.3409 141.075 13.2273V4.90909H143.087V13.0909C143.087 14.0455 143.354 14.8068 143.888 15.375C144.428 15.9432 145.115 16.2273 145.95 16.2273C146.45 16.2273 146.959 16.0994 147.476 15.8438C147.999 15.5881 148.436 15.196 148.788 14.6676C149.146 14.1392 149.325 13.4659 149.325 12.6477ZM157.032 10.125V18H155.021V4.90909H156.964V6.95455H157.134C157.441 6.28977 157.907 5.75568 158.532 5.35227C159.157 4.94318 159.964 4.73864 160.952 4.73864C161.839 4.73864 162.614 4.92045 163.279 5.28409C163.944 5.64205 164.461 6.1875 164.83 6.92045C165.2 7.64773 165.384 8.56818 165.384 9.68182V18H163.373V9.81818C163.373 8.78977 163.106 7.98864 162.572 7.41477C162.038 6.83523 161.305 6.54545 160.373 6.54545C159.731 6.54545 159.157 6.68466 158.651 6.96307C158.151 7.24148 157.756 7.64773 157.467 8.18182C157.177 8.71591 157.032 9.36364 157.032 10.125ZM174.003 18.2727C172.912 18.2727 171.949 17.9972 171.114 17.446C170.278 16.8892 169.625 16.1051 169.153 15.0938C168.682 14.0767 168.446 12.875 168.446 11.4886C168.446 10.1136 168.682 8.92045 169.153 7.90909C169.625 6.89773 170.281 6.11648 171.122 5.56534C171.963 5.0142 172.935 4.73864 174.037 4.73864C174.889 4.73864 175.563 4.88068 176.057 5.16477C176.557 5.44318 176.938 5.76136 177.199 6.11932C177.466 6.47159 177.673 6.76136 177.821 6.98864H177.991V0.545454H180.003V18H178.06V15.9886H177.821C177.673 16.2273 177.463 16.5284 177.19 16.892C176.918 17.25 176.528 17.571 176.023 17.8551C175.517 18.1335 174.844 18.2727 174.003 18.2727ZM174.276 16.4659C175.082 16.4659 175.764 16.2557 176.321 15.8352C176.878 15.4091 177.301 14.821 177.591 14.071C177.881 13.3153 178.026 12.4432 178.026 11.4545C178.026 10.4773 177.884 9.62216 177.599 8.8892C177.315 8.15057 176.895 7.5767 176.338 7.16761C175.781 6.75284 175.094 6.54545 174.276 6.54545C173.423 6.54545 172.713 6.7642 172.145 7.2017C171.582 7.63352 171.159 8.22159 170.875 8.96591C170.597 9.70455 170.457 10.5341 170.457 11.4545C170.457 12.3864 170.599 13.233 170.884 13.9943C171.173 14.75 171.599 15.3523 172.162 15.8011C172.73 16.2443 173.435 16.4659 174.276 16.4659Z" fill="#F1F1F1"/>
</svg>
