<svg width="85" height="23" viewBox="0 0 85 23" fill="none" xmlns="http://www.w3.org/2000/svg">
<path d="M0.113636 18V0.545454H6.01136C7.38068 0.545454 8.5 0.792613 9.36932 1.28693C10.2443 1.77557 10.892 2.4375 11.3125 3.27273C11.733 4.10795 11.9432 5.03977 11.9432 6.06818C11.9432 7.09659 11.733 8.03125 11.3125 8.87216C10.8977 9.71307 10.2557 10.3835 9.38636 10.8835C8.51705 11.3778 7.40341 11.625 6.04545 11.625H1.81818V9.75H5.97727C6.91477 9.75 7.66761 9.58807 8.2358 9.2642C8.80398 8.94034 9.21591 8.50284 9.47159 7.9517C9.73295 7.39489 9.86364 6.76705 9.86364 6.06818C9.86364 5.36932 9.73295 4.74432 9.47159 4.19318C9.21591 3.64205 8.80114 3.21023 8.22727 2.89773C7.65341 2.57955 6.89205 2.42045 5.94318 2.42045H2.22727V18H0.113636ZM15.0753 18V4.90909H17.0185V6.88636H17.1548C17.3935 6.23864 17.8253 5.71307 18.4503 5.30966C19.0753 4.90625 19.7798 4.70454 20.5639 4.70454C20.7116 4.70454 20.8963 4.70739 21.1179 4.71307C21.3395 4.71875 21.5071 4.72727 21.6207 4.73864V6.78409C21.5526 6.76705 21.3963 6.74148 21.152 6.70739C20.9134 6.66761 20.6605 6.64773 20.3935 6.64773C19.7571 6.64773 19.1889 6.78125 18.6889 7.0483C18.1946 7.30966 17.8026 7.6733 17.5128 8.1392C17.2287 8.59943 17.0866 9.125 17.0866 9.71591V18H15.0753ZM24.005 18V4.90909H26.0163V18H24.005ZM25.0277 2.72727C24.6357 2.72727 24.2976 2.59375 24.0135 2.3267C23.7351 2.05966 23.5959 1.73864 23.5959 1.36364C23.5959 0.988636 23.7351 0.667614 24.0135 0.400568C24.2976 0.133523 24.6357 0 25.0277 0C25.4197 0 25.755 0.133523 26.0334 0.400568C26.3175 0.667614 26.4595 0.988636 26.4595 1.36364C26.4595 1.73864 26.3175 2.05966 26.0334 2.3267C25.755 2.59375 25.4197 2.72727 25.0277 2.72727ZM29.7003 18V4.90909H31.6435V6.95455H31.8139C32.0866 6.25568 32.527 5.71307 33.1349 5.3267C33.7429 4.93466 34.473 4.73864 35.3253 4.73864C36.1889 4.73864 36.9077 4.93466 37.4815 5.3267C38.0611 5.71307 38.5128 6.25568 38.8366 6.95455H38.973C39.3082 6.27841 39.8111 5.74148 40.4815 5.34375C41.152 4.94034 41.956 4.73864 42.8935 4.73864C44.0639 4.73864 45.0213 5.10511 45.7656 5.83807C46.5099 6.56534 46.8821 7.69886 46.8821 9.23864V18H44.8707V9.23864C44.8707 8.27273 44.6065 7.58239 44.0781 7.16761C43.5497 6.75284 42.9276 6.54545 42.2116 6.54545C41.2912 6.54545 40.5781 6.82386 40.0724 7.38068C39.5668 7.93182 39.3139 8.63068 39.3139 9.47727V18H37.2685V9.03409C37.2685 8.28977 37.027 7.69034 36.544 7.2358C36.0611 6.77557 35.4389 6.54545 34.6776 6.54545C34.1548 6.54545 33.6662 6.68466 33.2116 6.96307C32.7628 7.24148 32.3991 7.62784 32.1207 8.12216C31.848 8.6108 31.7116 9.17614 31.7116 9.81818V18H29.7003ZM54.4119 18.3068C53.5824 18.3068 52.8295 18.1506 52.1534 17.8381C51.4773 17.5199 50.9403 17.0625 50.5426 16.4659C50.1449 15.8636 49.946 15.1364 49.946 14.2841C49.946 13.5341 50.0938 12.9261 50.3892 12.4602C50.6847 11.9886 51.0795 11.6193 51.5739 11.3523C52.0682 11.0852 52.6136 10.8864 53.2102 10.7557C53.8125 10.6193 54.4176 10.5114 55.0256 10.4318C55.821 10.3295 56.4659 10.2528 56.9602 10.2017C57.4602 10.1449 57.8239 10.0511 58.0511 9.92045C58.2841 9.78977 58.4006 9.5625 58.4006 9.23864V9.17045C58.4006 8.32955 58.1705 7.67614 57.7102 7.21023C57.2557 6.74432 56.5653 6.51136 55.6392 6.51136C54.679 6.51136 53.9261 6.72159 53.3807 7.14205C52.8352 7.5625 52.4517 8.01136 52.2301 8.48864L50.321 7.80682C50.6619 7.01136 51.1165 6.39205 51.6847 5.94886C52.2585 5.5 52.8835 5.1875 53.5597 5.01136C54.2415 4.82955 54.9119 4.73864 55.571 4.73864C55.9915 4.73864 56.4744 4.78977 57.0199 4.89204C57.571 4.98864 58.1023 5.19034 58.6136 5.49716C59.1307 5.80398 59.5597 6.26705 59.9006 6.88636C60.2415 7.50568 60.4119 8.33523 60.4119 9.375V18H58.4006V16.2273H58.2983C58.1619 16.5114 57.9347 16.8153 57.6165 17.1392C57.2983 17.4631 56.875 17.7386 56.3466 17.9659C55.8182 18.1932 55.1733 18.3068 54.4119 18.3068ZM54.7188 16.5C55.5142 16.5 56.1847 16.3438 56.7301 16.0312C57.2813 15.7188 57.696 15.3153 57.9744 14.821C58.2585 14.3267 58.4006 13.8068 58.4006 13.2614V11.4205C58.3153 11.5227 58.1278 11.6165 57.8381 11.7017C57.554 11.7812 57.2244 11.8523 56.8494 11.9148C56.4801 11.9716 56.1193 12.0227 55.767 12.0682C55.4205 12.108 55.1392 12.142 54.9233 12.1705C54.4006 12.2386 53.9119 12.3494 53.4574 12.5028C53.0085 12.6506 52.6449 12.875 52.3665 13.1761C52.0938 13.4716 51.9574 13.875 51.9574 14.3864C51.9574 15.0852 52.2159 15.6136 52.733 15.9716C53.2557 16.3239 53.9176 16.5 54.7188 16.5ZM64.0831 18V4.90909H66.0263V6.88636H66.1626C66.4013 6.23864 66.8331 5.71307 67.4581 5.30966C68.0831 4.90625 68.7876 4.70454 69.5717 4.70454C69.7195 4.70454 69.9041 4.70739 70.1257 4.71307C70.3473 4.71875 70.5149 4.72727 70.6286 4.73864V6.78409C70.5604 6.76705 70.4041 6.74148 70.1598 6.70739C69.9212 6.66761 69.6683 6.64773 69.4013 6.64773C68.7649 6.64773 68.1967 6.78125 67.6967 7.0483C67.2024 7.30966 66.8104 7.6733 66.5206 8.1392C66.2365 8.59943 66.0945 9.125 66.0945 9.71591V18H64.0831ZM74.7067 22.9091C74.3658 22.9091 74.0618 22.8807 73.7947 22.8239C73.5277 22.7727 73.343 22.7216 73.2408 22.6705L73.7521 20.8977C74.2408 21.0227 74.6726 21.0682 75.0476 21.0341C75.4226 21 75.755 20.8324 76.0447 20.5312C76.3402 20.2358 76.6101 19.7557 76.8544 19.0909L77.2294 18.0682L72.3885 4.90909H74.5703L78.1839 15.3409H78.3203L81.9339 4.90909H84.1158L78.5589 19.9091C78.3089 20.5852 77.9993 21.1449 77.63 21.5881C77.2607 22.0369 76.8317 22.3693 76.343 22.5852C75.8601 22.8011 75.3146 22.9091 74.7067 22.9091Z" fill="#F1F1F1"/>
</svg>
