<svg width="242" height="53" viewBox="0 0 242 53" fill="none" xmlns="http://www.w3.org/2000/svg">
<g filter="url(#filter0_dd_281_18302)">
<rect x="4" y="1" width="234" height="44" rx="4" fill="url(#paint0_linear_281_18302)"/>
<rect x="4.75" y="1.75" width="232.5" height="42.5" rx="3.25" stroke="url(#paint1_linear_281_18302)" stroke-width="1.5"/>
<g clip-path="url(#clip0_281_18302)">
<path d="M102.7 17.25C106.224 17.25 108.25 19.9435 108.25 24C108.25 28.8301 104.332 32.7476 99.5 32.7476C94.6686 32.7476 90.7516 28.8319 90.75 24.0003C90.75 20.033 92.6863 17.3704 96.0673 17.254L96.3 17.25L96.3669 17.253C97.2563 17.3326 98.1404 17.4616 99.0152 17.6391L99.498 17.744L99.8758 17.6616C100.605 17.5102 101.346 17.3923 102.117 17.3074L102.7 17.25ZM102.767 18.747C101.724 18.8404 100.689 19.006 99.6695 19.2426C99.558 19.2685 99.442 19.2685 99.3305 19.2426C98.5147 19.0533 97.6891 18.9094 96.8577 18.8117L96.261 18.75L96.0869 18.7545C93.7018 18.856 92.3298 20.6767 92.2534 23.7277L92.25 24C92.2513 28.0032 95.4969 31.2476 99.5 31.2476C103.424 31.2476 106.62 28.1302 106.746 24.237L106.75 23.9976L106.747 23.7277C106.668 20.5875 105.218 18.7499 102.767 18.747Z" fill="#F1F1F1"/>
<path d="M104.749 12.25H102.905C100.747 12.2507 98.9983 14.0006 98.999 16.1583V18C98.999 18.4142 99.3348 18.75 99.749 18.75H101.591C103.749 18.7493 105.498 17.0002 105.499 14.8424V13C105.499 12.5858 105.163 12.25 104.749 12.25ZM103.998 13.749L103.999 14.8421L103.994 15.0004C103.912 16.2562 102.867 17.2496 101.591 17.25H100.498L100.499 16.1581C100.499 14.8285 101.576 13.7505 102.905 13.75L103.998 13.749Z" fill="#F1F1F1"/>
<path d="M97.249 14.25C98.9821 14.25 100.398 15.6065 100.494 17.3156L100.499 17.5V18C100.499 18.4142 100.163 18.75 99.749 18.75C99.3693 18.75 99.0555 18.4678 99.0059 18.1018L98.999 18V17.5C98.999 16.5818 98.2919 15.8288 97.3925 15.7558L97.249 15.75H96.749C96.3348 15.75 95.999 15.4142 95.999 15C95.999 14.6203 96.2812 14.3065 96.6473 14.2568L96.749 14.25H97.249Z" fill="#F1F1F1"/>
</g>
<path d="M117.479 28.5H115.848L119.512 18.3182H121.287L124.951 28.5H123.32L120.442 20.1676H120.362L117.479 28.5ZM117.752 24.5128H123.042V25.8054H117.752V24.5128ZM126.302 31.3636V20.8636H127.754V22.1016H127.878C127.964 21.9425 128.088 21.7585 128.251 21.5497C128.413 21.3409 128.639 21.1586 128.927 21.0028C129.215 20.8438 129.597 20.7642 130.07 20.7642C130.687 20.7642 131.237 20.92 131.721 21.2315C132.205 21.5431 132.584 21.9922 132.86 22.5788C133.138 23.1655 133.277 23.8714 133.277 24.6967C133.277 25.522 133.14 26.2296 132.865 26.8196C132.589 27.4062 132.212 27.8587 131.731 28.1768C131.25 28.4917 130.702 28.6491 130.085 28.6491C129.621 28.6491 129.242 28.5713 128.947 28.4155C128.655 28.2597 128.427 28.0774 128.261 27.8686C128.095 27.6598 127.968 27.4742 127.878 27.3118H127.789V31.3636H126.302ZM127.759 24.6818C127.759 25.2187 127.837 25.6894 127.992 26.0938C128.148 26.4981 128.374 26.8146 128.669 27.0433C128.963 27.2687 129.325 27.3814 129.752 27.3814C130.196 27.3814 130.568 27.2637 130.866 27.0284C131.164 26.7898 131.39 26.4666 131.542 26.0589C131.698 25.6513 131.776 25.1922 131.776 24.6818C131.776 24.178 131.7 23.7256 131.547 23.3246C131.398 22.9235 131.173 22.607 130.871 22.375C130.573 22.143 130.2 22.027 129.752 22.027C129.321 22.027 128.957 22.138 128.659 22.3601C128.364 22.5821 128.14 22.892 127.987 23.2898C127.835 23.6875 127.759 24.1515 127.759 24.6818ZM134.943 31.3636V20.8636H136.394V22.1016H136.519C136.605 21.9425 136.729 21.7585 136.892 21.5497C137.054 21.3409 137.279 21.1586 137.568 21.0028C137.856 20.8438 138.237 20.7642 138.711 20.7642C139.328 20.7642 139.878 20.92 140.362 21.2315C140.846 21.5431 141.225 21.9922 141.5 22.5788C141.779 23.1655 141.918 23.8714 141.918 24.6967C141.918 25.522 141.78 26.2296 141.505 26.8196C141.23 27.4062 140.852 27.8587 140.372 28.1768C139.891 28.4917 139.343 28.6491 138.726 28.6491C138.262 28.6491 137.883 28.5713 137.588 28.4155C137.296 28.2597 137.067 28.0774 136.901 27.8686C136.736 27.6598 136.608 27.4742 136.519 27.3118H136.429V31.3636H134.943ZM136.399 24.6818C136.399 25.2187 136.477 25.6894 136.633 26.0938C136.789 26.4981 137.014 26.8146 137.309 27.0433C137.604 27.2687 137.965 27.3814 138.393 27.3814C138.837 27.3814 139.208 27.2637 139.507 27.0284C139.805 26.7898 140.03 26.4666 140.183 26.0589C140.338 25.6513 140.416 25.1922 140.416 24.6818C140.416 24.178 140.34 23.7256 140.188 23.3246C140.039 22.9235 139.813 22.607 139.512 22.375C139.213 22.143 138.84 22.027 138.393 22.027C137.962 22.027 137.597 22.138 137.299 22.3601C137.004 22.5821 136.78 22.892 136.628 23.2898C136.476 23.6875 136.399 24.1515 136.399 24.6818ZM145.07 18.3182V28.5H143.583V18.3182H145.07ZM150.361 28.6541C149.608 28.6541 148.96 28.4934 148.417 28.1719C147.877 27.8471 147.459 27.3913 147.164 26.8047C146.872 26.2147 146.727 25.5237 146.727 24.7315C146.727 23.9493 146.872 23.2599 147.164 22.6634C147.459 22.0668 147.87 21.6011 148.397 21.2663C148.927 20.9316 149.547 20.7642 150.256 20.7642C150.687 20.7642 151.105 20.8355 151.509 20.978C151.914 21.1205 152.277 21.3442 152.598 21.6491C152.92 21.9541 153.173 22.3501 153.359 22.8374C153.544 23.3213 153.637 23.9096 153.637 24.6023V25.1293H147.567V24.0156H152.18C152.18 23.6245 152.101 23.2782 151.942 22.9766C151.783 22.6716 151.559 22.4313 151.271 22.2557C150.986 22.08 150.651 21.9922 150.266 21.9922C149.849 21.9922 149.484 22.0949 149.173 22.3004C148.864 22.5026 148.626 22.7678 148.457 23.0959C148.291 23.4207 148.208 23.7737 148.208 24.1548V25.0249C148.208 25.5353 148.298 25.9695 148.477 26.3274C148.659 26.6854 148.912 26.9588 149.237 27.1477C149.562 27.3333 149.942 27.4261 150.376 27.4261C150.657 27.4261 150.914 27.3864 151.146 27.3068C151.378 27.224 151.579 27.1013 151.748 26.9389C151.917 26.7765 152.046 26.576 152.136 26.3374L153.543 26.5909C153.43 27.0052 153.228 27.3681 152.936 27.6797C152.648 27.9879 152.285 28.2282 151.847 28.4006C151.413 28.5696 150.918 28.6541 150.361 28.6541Z" fill="#F1F1F1"/>
</g>
<defs>
<filter id="filter0_dd_281_18302" x="0" y="0" width="242" height="53" filterUnits="userSpaceOnUse" color-interpolation-filters="sRGB">
<feFlood flood-opacity="0" result="BackgroundImageFix"/>
<feColorMatrix in="SourceAlpha" type="matrix" values="0 0 0 0 0 0 0 0 0 0 0 0 0 0 0 0 0 0 127 0" result="hardAlpha"/>
<feOffset dy="4"/>
<feGaussianBlur stdDeviation="2"/>
<feComposite in2="hardAlpha" operator="out"/>
<feColorMatrix type="matrix" values="0 0 0 0 0 0 0 0 0 0.0392157 0 0 0 0 0.121569 0 0 0 0.2 0"/>
<feBlend mode="normal" in2="BackgroundImageFix" result="effect1_dropShadow_281_18302"/>
<feColorMatrix in="SourceAlpha" type="matrix" values="0 0 0 0 0 0 0 0 0 0 0 0 0 0 0 0 0 0 127 0" result="hardAlpha"/>
<feMorphology radius="1" operator="dilate" in="SourceAlpha" result="effect2_dropShadow_281_18302"/>
<feOffset/>
<feComposite in2="hardAlpha" operator="out"/>
<feColorMatrix type="matrix" values="0 0 0 0 0.0544985 0 0 0 0 0.263179 0 0 0 0 0.393604 0 0 0 1 0"/>
<feBlend mode="normal" in2="effect1_dropShadow_281_18302" result="effect2_dropShadow_281_18302"/>
<feBlend mode="normal" in="SourceGraphic" in2="effect2_dropShadow_281_18302" result="shape"/>
</filter>
<linearGradient id="paint0_linear_281_18302" x1="121" y1="1" x2="121" y2="45" gradientUnits="userSpaceOnUse">
<stop stop-color="#009DFF"/>
<stop offset="1" stop-color="#008AE0"/>
</linearGradient>
<linearGradient id="paint1_linear_281_18302" x1="120.743" y1="5.5" x2="121.715" y2="44.9824" gradientUnits="userSpaceOnUse">
<stop stop-color="#7BC0EB"/>
<stop offset="1" stop-color="#2083C1"/>
</linearGradient>
<clipPath id="clip0_281_18302">
<rect width="24" height="24" fill="white" transform="translate(87.5 11)"/>
</clipPath>
</defs>
</svg>
