<svg width="388" height="17" viewBox="0 0 388 17" fill="none" xmlns="http://www.w3.org/2000/svg">
<path d="M0.409091 13V1.36364H4.34091C5.25379 1.36364 6 1.52841 6.57955 1.85795C7.16288 2.18371 7.5947 2.625 7.875 3.18182C8.1553 3.73864 8.29545 4.35985 8.29545 5.04545C8.29545 5.73106 8.1553 6.35417 7.875 6.91477C7.59849 7.47538 7.17046 7.92235 6.59091 8.25568C6.01136 8.58523 5.26894 8.75 4.36364 8.75H1.54545V7.5H4.31818C4.94318 7.5 5.44508 7.39205 5.82386 7.17614C6.20265 6.96023 6.47727 6.66856 6.64773 6.30114C6.82197 5.92992 6.90909 5.51136 6.90909 5.04545C6.90909 4.57955 6.82197 4.16288 6.64773 3.79545C6.47727 3.42803 6.20076 3.14015 5.81818 2.93182C5.43561 2.7197 4.92803 2.61364 4.29545 2.61364H1.81818V13H0.409091ZM12.9517 13.2045C12.3987 13.2045 11.8968 13.1004 11.446 12.892C10.9953 12.6799 10.6373 12.375 10.3722 11.9773C10.107 11.5758 9.97443 11.0909 9.97443 10.5227C9.97443 10.0227 10.0729 9.61742 10.2699 9.30682C10.4669 8.99242 10.7301 8.74621 11.0597 8.56818C11.3892 8.39015 11.7528 8.25758 12.1506 8.17045C12.5521 8.07955 12.9555 8.00758 13.3608 7.95455C13.8911 7.88636 14.321 7.83523 14.6506 7.80114C14.9839 7.76326 15.2263 7.70076 15.3778 7.61364C15.5331 7.52652 15.6108 7.375 15.6108 7.15909V7.11364C15.6108 6.55303 15.4574 6.11742 15.1506 5.80682C14.8475 5.49621 14.3873 5.34091 13.7699 5.34091C13.1297 5.34091 12.6278 5.48106 12.2642 5.76136C11.9006 6.04167 11.6449 6.34091 11.4972 6.65909L10.2244 6.20455C10.4517 5.67424 10.7547 5.26136 11.1335 4.96591C11.5161 4.66667 11.9328 4.45833 12.3835 4.34091C12.8381 4.2197 13.285 4.15909 13.7244 4.15909C14.0047 4.15909 14.3267 4.19318 14.6903 4.26136C15.0578 4.32576 15.4119 4.46023 15.7528 4.66477C16.0975 4.86932 16.3835 5.17803 16.6108 5.59091C16.8381 6.00379 16.9517 6.55682 16.9517 7.25V13H15.6108V11.8182H15.5426C15.4517 12.0076 15.3002 12.2102 15.0881 12.4261C14.8759 12.642 14.5938 12.8258 14.2415 12.9773C13.8892 13.1288 13.4593 13.2045 12.9517 13.2045ZM13.1562 12C13.6866 12 14.1335 11.8958 14.4972 11.6875C14.8646 11.4792 15.1411 11.2102 15.3267 10.8807C15.5161 10.5511 15.6108 10.2045 15.6108 9.84091V8.61364C15.554 8.68182 15.429 8.74432 15.2358 8.80114C15.0464 8.85417 14.8267 8.90151 14.5767 8.94318C14.3305 8.98106 14.09 9.01515 13.8551 9.04545C13.6241 9.07197 13.4366 9.0947 13.2926 9.11364C12.9441 9.15909 12.6184 9.23295 12.3153 9.33523C12.0161 9.43371 11.7737 9.58333 11.5881 9.78409C11.4063 9.98106 11.3153 10.25 11.3153 10.5909C11.3153 11.0568 11.4877 11.4091 11.8324 11.6477C12.1809 11.8826 12.6222 12 13.1562 12ZM19.3991 13V4.27273H20.6946V5.59091H20.7855C20.9446 5.15909 21.2325 4.80871 21.6491 4.53977C22.0658 4.27083 22.5355 4.13636 23.0582 4.13636C23.1567 4.13636 23.2798 4.13826 23.4276 4.14205C23.5753 4.14583 23.687 4.15152 23.7628 4.15909V5.52273C23.7173 5.51136 23.6132 5.49432 23.4503 5.47159C23.2912 5.44508 23.1226 5.43182 22.9446 5.43182C22.5204 5.43182 22.1416 5.52083 21.8082 5.69886C21.4787 5.87311 21.2173 6.11553 21.0241 6.42614C20.8348 6.73295 20.7401 7.08333 20.7401 7.47727V13H19.3991ZM27.9205 13.2045C27.3674 13.2045 26.8655 13.1004 26.4148 12.892C25.964 12.6799 25.6061 12.375 25.3409 11.9773C25.0758 11.5758 24.9432 11.0909 24.9432 10.5227C24.9432 10.0227 25.0417 9.61742 25.2386 9.30682C25.4356 8.99242 25.6989 8.74621 26.0284 8.56818C26.358 8.39015 26.7216 8.25758 27.1193 8.17045C27.5208 8.07955 27.9242 8.00758 28.3295 7.95455C28.8598 7.88636 29.2898 7.83523 29.6193 7.80114C29.9527 7.76326 30.1951 7.70076 30.3466 7.61364C30.5019 7.52652 30.5795 7.375 30.5795 7.15909V7.11364C30.5795 6.55303 30.4261 6.11742 30.1193 5.80682C29.8163 5.49621 29.3561 5.34091 28.7386 5.34091C28.0985 5.34091 27.5966 5.48106 27.233 5.76136C26.8693 6.04167 26.6136 6.34091 26.4659 6.65909L25.1932 6.20455C25.4205 5.67424 25.7235 5.26136 26.1023 4.96591C26.4848 4.66667 26.9015 4.45833 27.3523 4.34091C27.8068 4.2197 28.2538 4.15909 28.6932 4.15909C28.9735 4.15909 29.2955 4.19318 29.6591 4.26136C30.0265 4.32576 30.3807 4.46023 30.7216 4.66477C31.0663 4.86932 31.3523 5.17803 31.5795 5.59091C31.8068 6.00379 31.9205 6.55682 31.9205 7.25V13H30.5795V11.8182H30.5114C30.4205 12.0076 30.2689 12.2102 30.0568 12.4261C29.8447 12.642 29.5625 12.8258 29.2102 12.9773C28.858 13.1288 28.428 13.2045 27.9205 13.2045ZM28.125 12C28.6553 12 29.1023 11.8958 29.4659 11.6875C29.8333 11.4792 30.1098 11.2102 30.2955 10.8807C30.4848 10.5511 30.5795 10.2045 30.5795 9.84091V8.61364C30.5227 8.68182 30.3977 8.74432 30.2045 8.80114C30.0152 8.85417 29.7955 8.90151 29.5455 8.94318C29.2992 8.98106 29.0587 9.01515 28.8239 9.04545C28.5928 9.07197 28.4053 9.0947 28.2614 9.11364C27.9129 9.15909 27.5871 9.23295 27.2841 9.33523C26.9848 9.43371 26.7424 9.58333 26.5568 9.78409C26.375 9.98106 26.2841 10.25 26.2841 10.5909C26.2841 11.0568 26.4564 11.4091 26.8011 11.6477C27.1496 11.8826 27.5909 12 28.125 12ZM37.8906 16.4545C37.2429 16.4545 36.6861 16.3712 36.2202 16.2045C35.7543 16.0417 35.366 15.8258 35.0554 15.5568C34.7486 15.2917 34.5043 15.0076 34.3224 14.7045L35.3906 13.9545C35.5118 14.1136 35.6652 14.2955 35.8509 14.5C36.0365 14.7083 36.2902 14.8883 36.6122 15.0398C36.938 15.1951 37.3641 15.2727 37.8906 15.2727C38.5952 15.2727 39.1766 15.1023 39.6349 14.7614C40.0933 14.4205 40.3224 13.8864 40.3224 13.1591V11.3864H40.2088C40.1103 11.5455 39.9702 11.7424 39.7884 11.9773C39.6103 12.2083 39.3527 12.4148 39.0156 12.5966C38.6823 12.7746 38.2315 12.8636 37.6634 12.8636C36.9588 12.8636 36.3262 12.697 35.7656 12.3636C35.2088 12.0303 34.7675 11.5455 34.4418 10.9091C34.1198 10.2727 33.9588 9.5 33.9588 8.59091C33.9588 7.69697 34.116 6.91856 34.4304 6.25568C34.7448 5.58901 35.1823 5.07386 35.7429 4.71023C36.3035 4.3428 36.9512 4.15909 37.6861 4.15909C38.2543 4.15909 38.705 4.25379 39.0384 4.44318C39.3755 4.62879 39.633 4.84091 39.8111 5.07955C39.9929 5.31439 40.133 5.50758 40.2315 5.65909H40.3679V4.27273H41.6634V13.25C41.6634 14 41.4929 14.6098 41.152 15.0795C40.8149 15.553 40.3603 15.8996 39.7884 16.1193C39.2202 16.3428 38.5876 16.4545 37.8906 16.4545ZM37.8452 11.6591C38.383 11.6591 38.8376 11.536 39.2088 11.2898C39.58 11.0436 39.8622 10.6894 40.0554 10.2273C40.2486 9.76515 40.3452 9.21212 40.3452 8.56818C40.3452 7.93939 40.2505 7.38447 40.0611 6.90341C39.8717 6.42235 39.5914 6.04545 39.2202 5.77273C38.849 5.5 38.3906 5.36364 37.8452 5.36364C37.277 5.36364 36.8035 5.50758 36.4247 5.79545C36.0497 6.08333 35.7675 6.4697 35.5781 6.95455C35.3925 7.43939 35.2997 7.97727 35.2997 8.56818C35.2997 9.17424 35.3944 9.71023 35.5838 10.1761C35.777 10.6383 36.0611 11.0019 36.4361 11.267C36.8149 11.5284 37.2846 11.6591 37.8452 11.6591ZM44.1179 13V4.27273H45.4134V5.59091H45.5043C45.6634 5.15909 45.9512 4.80871 46.3679 4.53977C46.7846 4.27083 47.2543 4.13636 47.777 4.13636C47.8755 4.13636 47.9986 4.13826 48.1463 4.14205C48.294 4.14583 48.4058 4.15152 48.4815 4.15909V5.52273C48.4361 5.51136 48.3319 5.49432 48.169 5.47159C48.0099 5.44508 47.8414 5.43182 47.6634 5.43182C47.2391 5.43182 46.8603 5.52083 46.527 5.69886C46.1974 5.87311 45.9361 6.11553 45.7429 6.42614C45.5535 6.73295 45.4588 7.08333 45.4588 7.47727V13H44.1179ZM52.6392 13.2045C52.0862 13.2045 51.5843 13.1004 51.1335 12.892C50.6828 12.6799 50.3248 12.375 50.0597 11.9773C49.7945 11.5758 49.6619 11.0909 49.6619 10.5227C49.6619 10.0227 49.7604 9.61742 49.9574 9.30682C50.1544 8.99242 50.4176 8.74621 50.7472 8.56818C51.0767 8.39015 51.4403 8.25758 51.8381 8.17045C52.2396 8.07955 52.643 8.00758 53.0483 7.95455C53.5786 7.88636 54.0085 7.83523 54.3381 7.80114C54.6714 7.76326 54.9138 7.70076 55.0653 7.61364C55.2206 7.52652 55.2983 7.375 55.2983 7.15909V7.11364C55.2983 6.55303 55.1449 6.11742 54.8381 5.80682C54.535 5.49621 54.0748 5.34091 53.4574 5.34091C52.8172 5.34091 52.3153 5.48106 51.9517 5.76136C51.5881 6.04167 51.3324 6.34091 51.1847 6.65909L49.9119 6.20455C50.1392 5.67424 50.4422 5.26136 50.821 4.96591C51.2036 4.66667 51.6203 4.45833 52.071 4.34091C52.5256 4.2197 52.9725 4.15909 53.4119 4.15909C53.6922 4.15909 54.0142 4.19318 54.3778 4.26136C54.7453 4.32576 55.0994 4.46023 55.4403 4.66477C55.785 4.86932 56.071 5.17803 56.2983 5.59091C56.5256 6.00379 56.6392 6.55682 56.6392 7.25V13H55.2983V11.8182H55.2301C55.1392 12.0076 54.9877 12.2102 54.7756 12.4261C54.5634 12.642 54.2813 12.8258 53.929 12.9773C53.5767 13.1288 53.1468 13.2045 52.6392 13.2045ZM52.8438 12C53.3741 12 53.821 11.8958 54.1847 11.6875C54.5521 11.4792 54.8286 11.2102 55.0142 10.8807C55.2036 10.5511 55.2983 10.2045 55.2983 9.84091V8.61364C55.2415 8.68182 55.1165 8.74432 54.9233 8.80114C54.7339 8.85417 54.5142 8.90151 54.2642 8.94318C54.018 8.98106 53.7775 9.01515 53.5426 9.04545C53.3116 9.07197 53.1241 9.0947 52.9801 9.11364C52.6316 9.15909 52.3059 9.23295 52.0028 9.33523C51.7036 9.43371 51.4612 9.58333 51.2756 9.78409C51.0938 9.98106 51.0028 10.25 51.0028 10.5909C51.0028 11.0568 51.1752 11.4091 51.5199 11.6477C51.8684 11.8826 52.3097 12 52.8438 12ZM59.0866 16.2727V4.27273H60.3821V5.65909H60.5412C60.6397 5.50758 60.776 5.31439 60.9503 5.07955C61.1283 4.84091 61.3821 4.62879 61.7116 4.44318C62.045 4.25379 62.4957 4.15909 63.0639 4.15909C63.7988 4.15909 64.4465 4.3428 65.0071 4.71023C65.5677 5.07765 66.0052 5.59848 66.3196 6.27273C66.634 6.94697 66.7912 7.74242 66.7912 8.65909C66.7912 9.58333 66.634 10.3845 66.3196 11.0625C66.0052 11.7367 65.5696 12.2595 65.0128 12.6307C64.456 12.9981 63.8139 13.1818 63.0866 13.1818C62.526 13.1818 62.0772 13.089 61.7401 12.9034C61.4029 12.714 61.1435 12.5 60.9616 12.2614C60.7798 12.0189 60.6397 11.8182 60.5412 11.6591H60.4276V16.2727H59.0866ZM60.4048 8.63636C60.4048 9.29545 60.5014 9.87689 60.6946 10.3807C60.8878 10.8807 61.17 11.2727 61.5412 11.5568C61.9124 11.8371 62.367 11.9773 62.9048 11.9773C63.4654 11.9773 63.9332 11.8295 64.3082 11.5341C64.687 11.2348 64.9711 10.8333 65.1605 10.3295C65.3537 9.82197 65.4503 9.25758 65.4503 8.63636C65.4503 8.02273 65.3556 7.4697 65.1662 6.97727C64.9806 6.48106 64.6984 6.08902 64.3196 5.80114C63.9446 5.50947 63.473 5.36364 62.9048 5.36364C62.3594 5.36364 61.901 5.50189 61.5298 5.77841C61.1586 6.05114 60.8783 6.43371 60.6889 6.92614C60.4995 7.41477 60.4048 7.98485 60.4048 8.63636ZM70.1776 7.75V13H68.8366V1.36364H70.1776V5.63636H70.2912C70.4957 5.18561 70.8026 4.82765 71.2116 4.5625C71.6245 4.29356 72.1738 4.15909 72.8594 4.15909C73.4541 4.15909 73.9749 4.27841 74.4219 4.51705C74.8688 4.75189 75.2154 5.11364 75.4616 5.60227C75.7116 6.08712 75.8366 6.70455 75.8366 7.45455V13H74.4957V7.54545C74.4957 6.85227 74.3158 6.31629 73.956 5.9375C73.5999 5.55492 73.1056 5.36364 72.473 5.36364C72.0336 5.36364 71.6397 5.45644 71.2912 5.64205C70.9465 5.82765 70.6738 6.09848 70.473 6.45455C70.276 6.81061 70.1776 7.24242 70.1776 7.75ZM87.7898 6.55682V7.80682H82.6989V6.55682H87.7898ZM94.1946 2.61364V1.36364H102.922V2.61364H99.2628V13H97.8537V2.61364H94.1946ZM106.256 7.75V13H104.915V1.36364H106.256V5.63636H106.369C106.574 5.18561 106.881 4.82765 107.29 4.5625C107.703 4.29356 108.252 4.15909 108.938 4.15909C109.532 4.15909 110.053 4.27841 110.5 4.51705C110.947 4.75189 111.294 5.11364 111.54 5.60227C111.79 6.08712 111.915 6.70455 111.915 7.45455V13H110.574V7.54545C110.574 6.85227 110.394 6.31629 110.034 5.9375C109.678 5.55492 109.184 5.36364 108.551 5.36364C108.112 5.36364 107.718 5.45644 107.369 5.64205C107.025 5.82765 106.752 6.09848 106.551 6.45455C106.354 6.81061 106.256 7.24242 106.256 7.75ZM118.027 13.1818C117.186 13.1818 116.461 12.9962 115.851 12.625C115.245 12.25 114.777 11.7273 114.447 11.0568C114.122 10.3826 113.959 9.59848 113.959 8.70455C113.959 7.81061 114.122 7.02273 114.447 6.34091C114.777 5.6553 115.235 5.12121 115.822 4.73864C116.413 4.35227 117.103 4.15909 117.891 4.15909C118.345 4.15909 118.794 4.23485 119.237 4.38636C119.68 4.53788 120.084 4.78409 120.447 5.125C120.811 5.46212 121.101 5.90909 121.317 6.46591C121.533 7.02273 121.641 7.70833 121.641 8.52273V9.09091H114.913V7.93182H120.277C120.277 7.43939 120.179 7 119.982 6.61364C119.788 6.22727 119.512 5.92235 119.152 5.69886C118.796 5.47538 118.375 5.36364 117.891 5.36364C117.357 5.36364 116.894 5.49621 116.504 5.76136C116.118 6.02273 115.821 6.36364 115.612 6.78409C115.404 7.20455 115.3 7.6553 115.3 8.13636V8.90909C115.3 9.56818 115.413 10.1269 115.641 10.5852C115.872 11.0398 116.192 11.3864 116.601 11.625C117.01 11.8598 117.485 11.9773 118.027 11.9773C118.379 11.9773 118.697 11.928 118.982 11.8295C119.269 11.7273 119.518 11.5758 119.726 11.375C119.934 11.1705 120.095 10.9167 120.209 10.6136L121.504 10.9773C121.368 11.4167 121.139 11.803 120.817 12.1364C120.495 12.4659 120.097 12.7235 119.624 12.9091C119.15 13.0909 118.618 13.1818 118.027 13.1818ZM134.135 16.2727V11.6591H134.021C133.923 11.8182 133.783 12.0189 133.601 12.2614C133.419 12.5 133.16 12.714 132.822 12.9034C132.485 13.089 132.036 13.1818 131.476 13.1818C130.749 13.1818 130.107 12.9981 129.55 12.6307C128.993 12.2595 128.557 11.7367 128.243 11.0625C127.929 10.3845 127.771 9.58333 127.771 8.65909C127.771 7.74242 127.929 6.94697 128.243 6.27273C128.557 5.59848 128.995 5.07765 129.555 4.71023C130.116 4.3428 130.764 4.15909 131.499 4.15909C132.067 4.15909 132.516 4.25379 132.845 4.44318C133.179 4.62879 133.432 4.84091 133.607 5.07955C133.785 5.31439 133.923 5.50758 134.021 5.65909H134.18V4.27273H135.476V16.2727H134.135ZM131.658 11.9773C132.196 11.9773 132.65 11.8371 133.021 11.5568C133.393 11.2727 133.675 10.8807 133.868 10.3807C134.061 9.87689 134.158 9.29545 134.158 8.63636C134.158 7.98485 134.063 7.41477 133.874 6.92614C133.684 6.43371 133.404 6.05114 133.033 5.77841C132.661 5.50189 132.203 5.36364 131.658 5.36364C131.089 5.36364 130.616 5.50947 130.237 5.80114C129.862 6.08902 129.58 6.48106 129.391 6.97727C129.205 7.4697 129.112 8.02273 129.112 8.63636C129.112 9.25758 129.207 9.82197 129.396 10.3295C129.589 10.8333 129.874 11.2348 130.249 11.5341C130.627 11.8295 131.097 11.9773 131.658 11.9773ZM143.43 9.43182V4.27273H144.771V13H143.43V11.5227H143.339C143.135 11.9659 142.817 12.3428 142.385 12.6534C141.953 12.9602 141.408 13.1136 140.749 13.1136C140.203 13.1136 139.718 12.9943 139.294 12.7557C138.87 12.5133 138.536 12.1496 138.294 11.6648C138.052 11.1761 137.93 10.5606 137.93 9.81818V4.27273H139.271V9.72727C139.271 10.3636 139.449 10.8712 139.805 11.25C140.165 11.6288 140.624 11.8182 141.18 11.8182C141.514 11.8182 141.853 11.733 142.197 11.5625C142.546 11.392 142.838 11.1307 143.072 10.7784C143.311 10.4261 143.43 9.97727 143.43 9.43182ZM147.227 13V4.27273H148.568V13H147.227ZM147.909 2.81818C147.648 2.81818 147.422 2.72917 147.233 2.55114C147.047 2.37311 146.955 2.15909 146.955 1.90909C146.955 1.65909 147.047 1.44508 147.233 1.26705C147.422 1.08902 147.648 1 147.909 1C148.17 1 148.394 1.08902 148.58 1.26705C148.769 1.44508 148.864 1.65909 148.864 1.90909C148.864 2.15909 148.769 2.37311 148.58 2.55114C148.394 2.72917 148.17 2.81818 147.909 2.81818ZM154.57 13.1818C153.751 13.1818 153.047 12.9886 152.456 12.6023C151.865 12.2159 151.411 11.6837 151.092 11.0057C150.774 10.3277 150.615 9.55303 150.615 8.68182C150.615 7.79545 150.778 7.01326 151.104 6.33523C151.433 5.65341 151.892 5.12121 152.479 4.73864C153.07 4.35227 153.759 4.15909 154.547 4.15909C155.161 4.15909 155.714 4.27273 156.206 4.5C156.698 4.72727 157.102 5.04545 157.416 5.45455C157.731 5.86364 157.926 6.34091 158.001 6.88636H156.661C156.558 6.48864 156.331 6.13636 155.979 5.82955C155.63 5.51894 155.161 5.36364 154.57 5.36364C154.047 5.36364 153.589 5.5 153.195 5.77273C152.804 6.04167 152.5 6.42235 152.28 6.91477C152.064 7.40341 151.956 7.97727 151.956 8.63636C151.956 9.31061 152.062 9.89773 152.274 10.3977C152.49 10.8977 152.793 11.286 153.183 11.5625C153.577 11.839 154.039 11.9773 154.57 11.9773C154.918 11.9773 155.234 11.9167 155.518 11.7955C155.803 11.6742 156.043 11.5 156.24 11.2727C156.437 11.0455 156.577 10.7727 156.661 10.4545H158.001C157.926 10.9697 157.738 11.4337 157.439 11.8466C157.143 12.2557 156.751 12.5814 156.263 12.8239C155.778 13.0625 155.214 13.1818 154.57 13.1818ZM161.212 9.81818L161.189 8.15909H161.462L165.28 4.27273H166.939L162.871 8.38636H162.757L161.212 9.81818ZM159.962 13V1.36364H161.303V13H159.962ZM165.507 13L162.098 8.68182L163.053 7.75L167.212 13H165.507ZM177.051 4.27273V5.40909H172.347V4.27273H177.051ZM173.756 13V3.06818C173.756 2.56818 173.873 2.15151 174.108 1.81818C174.343 1.48485 174.648 1.23485 175.023 1.06818C175.398 0.901514 175.794 0.818181 176.21 0.818181C176.54 0.818181 176.809 0.844696 177.017 0.897727C177.225 0.950757 177.381 0.999999 177.483 1.04545L177.097 2.20455C177.028 2.18182 176.934 2.15341 176.812 2.11932C176.695 2.08523 176.54 2.06818 176.347 2.06818C175.903 2.06818 175.583 2.17992 175.386 2.40341C175.193 2.62689 175.097 2.95455 175.097 3.38636V13H173.756ZM182.116 13.1818C181.329 13.1818 180.637 12.9943 180.043 12.6193C179.452 12.2443 178.99 11.7197 178.656 11.0455C178.327 10.3712 178.162 9.58333 178.162 8.68182C178.162 7.77273 178.327 6.97917 178.656 6.30114C178.99 5.62311 179.452 5.09659 180.043 4.72159C180.637 4.34659 181.329 4.15909 182.116 4.15909C182.904 4.15909 183.594 4.34659 184.185 4.72159C184.779 5.09659 185.241 5.62311 185.571 6.30114C185.904 6.97917 186.071 7.77273 186.071 8.68182C186.071 9.58333 185.904 10.3712 185.571 11.0455C185.241 11.7197 184.779 12.2443 184.185 12.6193C183.594 12.9943 182.904 13.1818 182.116 13.1818ZM182.116 11.9773C182.715 11.9773 183.207 11.8239 183.594 11.517C183.98 11.2102 184.266 10.8068 184.452 10.3068C184.637 9.80682 184.73 9.26515 184.73 8.68182C184.73 8.09848 184.637 7.55492 184.452 7.05114C184.266 6.54735 183.98 6.14015 183.594 5.82955C183.207 5.51894 182.715 5.36364 182.116 5.36364C181.518 5.36364 181.026 5.51894 180.639 5.82955C180.253 6.14015 179.967 6.54735 179.781 7.05114C179.596 7.55492 179.503 8.09848 179.503 8.68182C179.503 9.26515 179.596 9.80682 179.781 10.3068C179.967 10.8068 180.253 11.2102 180.639 11.517C181.026 11.8239 181.518 11.9773 182.116 11.9773ZM188.759 4.27273L190.849 7.84091L192.94 4.27273H194.486L191.668 8.63636L194.486 13H192.94L190.849 9.61364L188.759 13H187.213L189.986 8.63636L187.213 4.27273H188.759ZM200.899 4.27273H202.24V13.6364C202.24 14.1742 202.147 14.6402 201.962 15.0341C201.78 15.428 201.503 15.733 201.132 15.9489C200.765 16.1648 200.301 16.2727 199.74 16.2727C199.695 16.2727 199.649 16.2727 199.604 16.2727C199.558 16.2727 199.513 16.2727 199.467 16.2727V15.0227C199.513 15.0227 199.554 15.0227 199.592 15.0227C199.63 15.0227 199.672 15.0227 199.717 15.0227C200.126 15.0227 200.426 14.9015 200.615 14.6591C200.804 14.4205 200.899 14.0795 200.899 13.6364V4.27273ZM201.558 2.81818C201.297 2.81818 201.071 2.72917 200.882 2.55114C200.696 2.37311 200.604 2.15909 200.604 1.90909C200.604 1.65909 200.696 1.44508 200.882 1.26705C201.071 1.08902 201.297 1 201.558 1C201.82 1 202.043 1.08902 202.229 1.26705C202.418 1.44508 202.513 1.65909 202.513 1.90909C202.513 2.15909 202.418 2.37311 202.229 2.55114C202.043 2.72917 201.82 2.81818 201.558 2.81818ZM210.196 9.43182V4.27273H211.537V13H210.196V11.5227H210.105C209.901 11.9659 209.582 12.3428 209.151 12.6534C208.719 12.9602 208.173 13.1136 207.514 13.1136C206.969 13.1136 206.484 12.9943 206.06 12.7557C205.635 12.5133 205.302 12.1496 205.06 11.6648C204.817 11.1761 204.696 10.5606 204.696 9.81818V4.27273H206.037V9.72727C206.037 10.3636 206.215 10.8712 206.571 11.25C206.931 11.6288 207.389 11.8182 207.946 11.8182C208.279 11.8182 208.618 11.733 208.963 11.5625C209.312 11.392 209.603 11.1307 209.838 10.7784C210.077 10.4261 210.196 9.97727 210.196 9.43182ZM213.993 13V4.27273H215.288V5.63636H215.402C215.584 5.17045 215.877 4.80871 216.283 4.55114C216.688 4.28977 217.175 4.15909 217.743 4.15909C218.319 4.15909 218.798 4.28977 219.18 4.55114C219.567 4.80871 219.868 5.17045 220.084 5.63636H220.175C220.398 5.18561 220.733 4.82765 221.18 4.5625C221.627 4.29356 222.163 4.15909 222.788 4.15909C223.569 4.15909 224.207 4.40341 224.703 4.89205C225.199 5.37689 225.447 6.13258 225.447 7.15909V13H224.107V7.15909C224.107 6.51515 223.93 6.05492 223.578 5.77841C223.226 5.50189 222.811 5.36364 222.334 5.36364C221.72 5.36364 221.245 5.54924 220.908 5.92045C220.571 6.28788 220.402 6.75379 220.402 7.31818V13H219.038V7.02273C219.038 6.52652 218.877 6.12689 218.555 5.82386C218.233 5.51705 217.819 5.36364 217.311 5.36364C216.963 5.36364 216.637 5.45644 216.334 5.64205C216.035 5.82765 215.792 6.08523 215.607 6.41477C215.425 6.74053 215.334 7.11742 215.334 7.54545V13H213.993ZM227.899 16.2727V4.27273H229.195V5.65909H229.354C229.452 5.50758 229.589 5.31439 229.763 5.07955C229.941 4.84091 230.195 4.62879 230.524 4.44318C230.857 4.25379 231.308 4.15909 231.876 4.15909C232.611 4.15909 233.259 4.3428 233.82 4.71023C234.38 5.07765 234.818 5.59848 235.132 6.27273C235.446 6.94697 235.604 7.74242 235.604 8.65909C235.604 9.58333 235.446 10.3845 235.132 11.0625C234.818 11.7367 234.382 12.2595 233.825 12.6307C233.268 12.9981 232.626 13.1818 231.899 13.1818C231.339 13.1818 230.89 13.089 230.553 12.9034C230.215 12.714 229.956 12.5 229.774 12.2614C229.592 12.0189 229.452 11.8182 229.354 11.6591H229.24V16.2727H227.899ZM229.217 8.63636C229.217 9.29545 229.314 9.87689 229.507 10.3807C229.7 10.8807 229.982 11.2727 230.354 11.5568C230.725 11.8371 231.179 11.9773 231.717 11.9773C232.278 11.9773 232.746 11.8295 233.121 11.5341C233.5 11.2348 233.784 10.8333 233.973 10.3295C234.166 9.82197 234.263 9.25758 234.263 8.63636C234.263 8.02273 234.168 7.4697 233.979 6.97727C233.793 6.48106 233.511 6.08902 233.132 5.80114C232.757 5.50947 232.286 5.36364 231.717 5.36364C231.172 5.36364 230.714 5.50189 230.342 5.77841C229.971 6.05114 229.691 6.43371 229.501 6.92614C229.312 7.41477 229.217 7.98485 229.217 8.63636ZM243.831 6.22727L242.626 6.56818C242.551 6.36742 242.439 6.17235 242.291 5.98295C242.147 5.78977 241.95 5.63068 241.7 5.50568C241.45 5.38068 241.13 5.31818 240.74 5.31818C240.206 5.31818 239.761 5.44129 239.405 5.6875C239.053 5.92992 238.876 6.23864 238.876 6.61364C238.876 6.94697 238.998 7.21023 239.24 7.40341C239.482 7.59659 239.861 7.75758 240.376 7.88636L241.672 8.20455C242.452 8.39394 243.034 8.68371 243.416 9.07386C243.799 9.46023 243.99 9.95833 243.99 10.5682C243.99 11.0682 243.846 11.5152 243.558 11.9091C243.274 12.303 242.876 12.6136 242.365 12.8409C241.854 13.0682 241.259 13.1818 240.581 13.1818C239.691 13.1818 238.954 12.9886 238.371 12.6023C237.787 12.2159 237.418 11.6515 237.263 10.9091L238.536 10.5909C238.657 11.0606 238.886 11.4129 239.223 11.6477C239.564 11.8826 240.009 12 240.558 12C241.183 12 241.679 11.8674 242.047 11.6023C242.418 11.3333 242.604 11.0114 242.604 10.6364C242.604 10.3333 242.498 10.0795 242.286 9.875C242.073 9.66667 241.748 9.51136 241.308 9.40909L239.854 9.06818C239.054 8.87879 238.467 8.58523 238.092 8.1875C237.721 7.78598 237.536 7.28409 237.536 6.68182C237.536 6.18939 237.674 5.75379 237.95 5.375C238.231 4.99621 238.611 4.69886 239.092 4.48295C239.577 4.26705 240.126 4.15909 240.74 4.15909C241.604 4.15909 242.282 4.34848 242.774 4.72727C243.27 5.10606 243.623 5.60606 243.831 6.22727ZM254.054 13.1818C253.266 13.1818 252.575 12.9943 251.98 12.6193C251.389 12.2443 250.927 11.7197 250.594 11.0455C250.264 10.3712 250.099 9.58333 250.099 8.68182C250.099 7.77273 250.264 6.97917 250.594 6.30114C250.927 5.62311 251.389 5.09659 251.98 4.72159C252.575 4.34659 253.266 4.15909 254.054 4.15909C254.842 4.15909 255.531 4.34659 256.122 4.72159C256.717 5.09659 257.179 5.62311 257.509 6.30114C257.842 6.97917 258.009 7.77273 258.009 8.68182C258.009 9.58333 257.842 10.3712 257.509 11.0455C257.179 11.7197 256.717 12.2443 256.122 12.6193C255.531 12.9943 254.842 13.1818 254.054 13.1818ZM254.054 11.9773C254.652 11.9773 255.145 11.8239 255.531 11.517C255.918 11.2102 256.204 10.8068 256.389 10.3068C256.575 9.80682 256.668 9.26515 256.668 8.68182C256.668 8.09848 256.575 7.55492 256.389 7.05114C256.204 6.54735 255.918 6.14015 255.531 5.82955C255.145 5.51894 254.652 5.36364 254.054 5.36364C253.455 5.36364 252.963 5.51894 252.577 5.82955C252.19 6.14015 251.904 6.54735 251.719 7.05114C251.533 7.55492 251.44 8.09848 251.44 8.68182C251.44 9.26515 251.533 9.80682 251.719 10.3068C251.904 10.8068 252.19 11.2102 252.577 11.517C252.963 11.8239 253.455 11.9773 254.054 11.9773ZM266.879 4.27273L263.652 13H262.288L259.061 4.27273H260.516L262.925 11.2273H263.016L265.425 4.27273H266.879ZM271.996 13.1818C271.155 13.1818 270.429 12.9962 269.82 12.625C269.214 12.25 268.746 11.7273 268.416 11.0568C268.09 10.3826 267.928 9.59848 267.928 8.70455C267.928 7.81061 268.09 7.02273 268.416 6.34091C268.746 5.6553 269.204 5.12121 269.791 4.73864C270.382 4.35227 271.071 4.15909 271.859 4.15909C272.314 4.15909 272.763 4.23485 273.206 4.38636C273.649 4.53788 274.053 4.78409 274.416 5.125C274.78 5.46212 275.07 5.90909 275.286 6.46591C275.501 7.02273 275.609 7.70833 275.609 8.52273V9.09091H268.882V7.93182H274.246C274.246 7.43939 274.147 7 273.95 6.61364C273.757 6.22727 273.481 5.92235 273.121 5.69886C272.765 5.47538 272.344 5.36364 271.859 5.36364C271.325 5.36364 270.863 5.49621 270.473 5.76136C270.087 6.02273 269.789 6.36364 269.581 6.78409C269.373 7.20455 269.268 7.6553 269.268 8.13636V8.90909C269.268 9.56818 269.382 10.1269 269.609 10.5852C269.84 11.0398 270.161 11.3864 270.57 11.625C270.979 11.8598 271.454 11.9773 271.996 11.9773C272.348 11.9773 272.666 11.928 272.95 11.8295C273.238 11.7273 273.486 11.5758 273.695 11.375C273.903 11.1705 274.064 10.9167 274.178 10.6136L275.473 10.9773C275.337 11.4167 275.107 11.803 274.786 12.1364C274.464 12.4659 274.066 12.7235 273.592 12.9091C273.119 13.0909 272.587 13.1818 271.996 13.1818ZM277.649 13V4.27273H278.945V5.59091H279.036C279.195 5.15909 279.482 4.80871 279.899 4.53977C280.316 4.27083 280.786 4.13636 281.308 4.13636C281.407 4.13636 281.53 4.13826 281.678 4.14205C281.825 4.14583 281.937 4.15152 282.013 4.15909V5.52273C281.967 5.51136 281.863 5.49432 281.7 5.47159C281.541 5.44508 281.373 5.43182 281.195 5.43182C280.77 5.43182 280.392 5.52083 280.058 5.69886C279.729 5.87311 279.467 6.11553 279.274 6.42614C279.085 6.73295 278.99 7.08333 278.99 7.47727V13H277.649ZM291.898 4.27273V5.40909H287.375V4.27273H291.898ZM288.693 2.18182H290.034V10.5C290.034 10.8788 290.089 11.1629 290.199 11.3523C290.313 11.5379 290.456 11.6629 290.631 11.7273C290.809 11.7879 290.996 11.8182 291.193 11.8182C291.341 11.8182 291.462 11.8106 291.557 11.7955C291.652 11.7765 291.727 11.7614 291.784 11.75L292.057 12.9545C291.966 12.9886 291.839 13.0227 291.676 13.0568C291.513 13.0947 291.307 13.1136 291.057 13.1136C290.678 13.1136 290.307 13.0322 289.943 12.8693C289.583 12.7064 289.284 12.4583 289.045 12.125C288.811 11.7917 288.693 11.3712 288.693 10.8636V2.18182ZM295.443 7.75V13H294.102V1.36364H295.443V5.63636H295.557C295.761 5.18561 296.068 4.82765 296.477 4.5625C296.89 4.29356 297.439 4.15909 298.125 4.15909C298.72 4.15909 299.241 4.27841 299.688 4.51705C300.134 4.75189 300.481 5.11364 300.727 5.60227C300.977 6.08712 301.102 6.70455 301.102 7.45455V13H299.761V7.54545C299.761 6.85227 299.581 6.31629 299.222 5.9375C298.866 5.55492 298.371 5.36364 297.739 5.36364C297.299 5.36364 296.905 5.45644 296.557 5.64205C296.212 5.82765 295.939 6.09848 295.739 6.45455C295.542 6.81061 295.443 7.24242 295.443 7.75ZM307.214 13.1818C306.374 13.1818 305.648 12.9962 305.038 12.625C304.432 12.25 303.964 11.7273 303.635 11.0568C303.309 10.3826 303.146 9.59848 303.146 8.70455C303.146 7.81061 303.309 7.02273 303.635 6.34091C303.964 5.6553 304.423 5.12121 305.01 4.73864C305.601 4.35227 306.29 4.15909 307.078 4.15909C307.533 4.15909 307.982 4.23485 308.425 4.38636C308.868 4.53788 309.271 4.78409 309.635 5.125C309.999 5.46212 310.288 5.90909 310.504 6.46591C310.72 7.02273 310.828 7.70833 310.828 8.52273V9.09091H304.101V7.93182H309.464C309.464 7.43939 309.366 7 309.169 6.61364C308.976 6.22727 308.699 5.92235 308.339 5.69886C307.983 5.47538 307.563 5.36364 307.078 5.36364C306.544 5.36364 306.082 5.49621 305.692 5.76136C305.305 6.02273 305.008 6.36364 304.8 6.78409C304.591 7.20455 304.487 7.6553 304.487 8.13636V8.90909C304.487 9.56818 304.601 10.1269 304.828 10.5852C305.059 11.0398 305.379 11.3864 305.788 11.625C306.197 11.8598 306.673 11.9773 307.214 11.9773C307.567 11.9773 307.885 11.928 308.169 11.8295C308.457 11.7273 308.705 11.5758 308.913 11.375C309.122 11.1705 309.283 10.9167 309.396 10.6136L310.692 10.9773C310.555 11.4167 310.326 11.803 310.004 12.1364C309.682 12.4659 309.285 12.7235 308.811 12.9091C308.338 13.0909 307.805 13.1818 307.214 13.1818ZM318.709 1.36364V13H317.368V1.36364H318.709ZM323.733 13.2045C323.18 13.2045 322.678 13.1004 322.227 12.892C321.777 12.6799 321.419 12.375 321.153 11.9773C320.888 11.5758 320.756 11.0909 320.756 10.5227C320.756 10.0227 320.854 9.61742 321.051 9.30682C321.248 8.99242 321.511 8.74621 321.841 8.56818C322.17 8.39015 322.534 8.25758 322.932 8.17045C323.333 8.07955 323.737 8.00758 324.142 7.95455C324.672 7.88636 325.102 7.83523 325.432 7.80114C325.765 7.76326 326.008 7.70076 326.159 7.61364C326.314 7.52652 326.392 7.375 326.392 7.15909V7.11364C326.392 6.55303 326.239 6.11742 325.932 5.80682C325.629 5.49621 325.169 5.34091 324.551 5.34091C323.911 5.34091 323.409 5.48106 323.045 5.76136C322.682 6.04167 322.426 6.34091 322.278 6.65909L321.006 6.20455C321.233 5.67424 321.536 5.26136 321.915 4.96591C322.297 4.66667 322.714 4.45833 323.165 4.34091C323.619 4.2197 324.066 4.15909 324.506 4.15909C324.786 4.15909 325.108 4.19318 325.472 4.26136C325.839 4.32576 326.193 4.46023 326.534 4.66477C326.879 4.86932 327.165 5.17803 327.392 5.59091C327.619 6.00379 327.733 6.55682 327.733 7.25V13H326.392V11.8182H326.324C326.233 12.0076 326.081 12.2102 325.869 12.4261C325.657 12.642 325.375 12.8258 325.023 12.9773C324.67 13.1288 324.241 13.2045 323.733 13.2045ZM323.938 12C324.468 12 324.915 11.8958 325.278 11.6875C325.646 11.4792 325.922 11.2102 326.108 10.8807C326.297 10.5511 326.392 10.2045 326.392 9.84091V8.61364C326.335 8.68182 326.21 8.74432 326.017 8.80114C325.828 8.85417 325.608 8.90151 325.358 8.94318C325.112 8.98106 324.871 9.01515 324.636 9.04545C324.405 9.07197 324.218 9.0947 324.074 9.11364C323.725 9.15909 323.4 9.23295 323.097 9.33523C322.797 9.43371 322.555 9.58333 322.369 9.78409C322.188 9.98106 322.097 10.25 322.097 10.5909C322.097 11.0568 322.269 11.4091 322.614 11.6477C322.962 11.8826 323.403 12 323.938 12ZM329.93 13V11.9773L334.885 5.61364V5.52273H330.089V4.27273H336.612V5.34091L331.794 11.6591V11.75H336.771V13H329.93ZM339.7 16.2727C339.473 16.2727 339.27 16.2538 339.092 16.2159C338.914 16.1818 338.791 16.1477 338.723 16.1136L339.064 14.9318C339.39 15.0152 339.678 15.0455 339.928 15.0227C340.178 15 340.399 14.8883 340.592 14.6875C340.789 14.4905 340.969 14.1705 341.132 13.7273L341.382 13.0455L338.155 4.27273H339.609L342.018 11.2273H342.109L344.518 4.27273H345.973L342.268 14.2727C342.102 14.7235 341.895 15.0966 341.649 15.392C341.403 15.6913 341.117 15.9129 340.791 16.0568C340.469 16.2008 340.106 16.2727 339.7 16.2727ZM355.538 13.1818C354.811 13.1818 354.169 12.9981 353.612 12.6307C353.055 12.2595 352.62 11.7367 352.305 11.0625C351.991 10.3845 351.834 9.58333 351.834 8.65909C351.834 7.74242 351.991 6.94697 352.305 6.27273C352.62 5.59848 353.057 5.07765 353.618 4.71023C354.179 4.3428 354.826 4.15909 355.561 4.15909C356.129 4.15909 356.578 4.25379 356.908 4.44318C357.241 4.62879 357.495 4.84091 357.669 5.07955C357.847 5.31439 357.985 5.50758 358.084 5.65909H358.197V1.36364H359.538V13H358.243V11.6591H358.084C357.985 11.8182 357.845 12.0189 357.663 12.2614C357.482 12.5 357.222 12.714 356.885 12.9034C356.548 13.089 356.099 13.1818 355.538 13.1818ZM355.72 11.9773C356.258 11.9773 356.713 11.8371 357.084 11.5568C357.455 11.2727 357.737 10.8807 357.93 10.3807C358.124 9.87689 358.22 9.29545 358.22 8.63636C358.22 7.98485 358.125 7.41477 357.936 6.92614C357.747 6.43371 357.466 6.05114 357.095 5.77841C356.724 5.50189 356.266 5.36364 355.72 5.36364C355.152 5.36364 354.679 5.50947 354.3 5.80114C353.925 6.08902 353.643 6.48106 353.453 6.97727C353.268 7.4697 353.175 8.02273 353.175 8.63636C353.175 9.25758 353.269 9.82197 353.459 10.3295C353.652 10.8333 353.936 11.2348 354.311 11.5341C354.69 11.8295 355.16 11.9773 355.72 11.9773ZM365.726 13.1818C364.938 13.1818 364.247 12.9943 363.652 12.6193C363.061 12.2443 362.599 11.7197 362.266 11.0455C361.936 10.3712 361.771 9.58333 361.771 8.68182C361.771 7.77273 361.936 6.97917 362.266 6.30114C362.599 5.62311 363.061 5.09659 363.652 4.72159C364.247 4.34659 364.938 4.15909 365.726 4.15909C366.514 4.15909 367.203 4.34659 367.794 4.72159C368.389 5.09659 368.851 5.62311 369.18 6.30114C369.514 6.97917 369.68 7.77273 369.68 8.68182C369.68 9.58333 369.514 10.3712 369.18 11.0455C368.851 11.7197 368.389 12.2443 367.794 12.6193C367.203 12.9943 366.514 13.1818 365.726 13.1818ZM365.726 11.9773C366.324 11.9773 366.817 11.8239 367.203 11.517C367.589 11.2102 367.875 10.8068 368.061 10.3068C368.247 9.80682 368.339 9.26515 368.339 8.68182C368.339 8.09848 368.247 7.55492 368.061 7.05114C367.875 6.54735 367.589 6.14015 367.203 5.82955C366.817 5.51894 366.324 5.36364 365.726 5.36364C365.127 5.36364 364.635 5.51894 364.249 5.82955C363.862 6.14015 363.576 6.54735 363.391 7.05114C363.205 7.55492 363.112 8.09848 363.112 8.68182C363.112 9.26515 363.205 9.80682 363.391 10.3068C363.576 10.8068 363.862 11.2102 364.249 11.517C364.635 11.8239 365.127 11.9773 365.726 11.9773ZM375.25 16.4545C374.602 16.4545 374.045 16.3712 373.58 16.2045C373.114 16.0417 372.725 15.8258 372.415 15.5568C372.108 15.2917 371.864 15.0076 371.682 14.7045L372.75 13.9545C372.871 14.1136 373.025 14.2955 373.21 14.5C373.396 14.7083 373.65 14.8883 373.972 15.0398C374.297 15.1951 374.723 15.2727 375.25 15.2727C375.955 15.2727 376.536 15.1023 376.994 14.7614C377.453 14.4205 377.682 13.8864 377.682 13.1591V11.3864H377.568C377.47 11.5455 377.33 11.7424 377.148 11.9773C376.97 12.2083 376.712 12.4148 376.375 12.5966C376.042 12.7746 375.591 12.8636 375.023 12.8636C374.318 12.8636 373.686 12.697 373.125 12.3636C372.568 12.0303 372.127 11.5455 371.801 10.9091C371.479 10.2727 371.318 9.5 371.318 8.59091C371.318 7.69697 371.475 6.91856 371.79 6.25568C372.104 5.58901 372.542 5.07386 373.102 4.71023C373.663 4.3428 374.311 4.15909 375.045 4.15909C375.614 4.15909 376.064 4.25379 376.398 4.44318C376.735 4.62879 376.992 4.84091 377.17 5.07955C377.352 5.31439 377.492 5.50758 377.591 5.65909H377.727V4.27273H379.023V13.25C379.023 14 378.852 14.6098 378.511 15.0795C378.174 15.553 377.72 15.8996 377.148 16.1193C376.58 16.3428 375.947 16.4545 375.25 16.4545ZM375.205 11.6591C375.742 11.6591 376.197 11.536 376.568 11.2898C376.939 11.0436 377.222 10.6894 377.415 10.2273C377.608 9.76515 377.705 9.21212 377.705 8.56818C377.705 7.93939 377.61 7.38447 377.42 6.90341C377.231 6.42235 376.951 6.04545 376.58 5.77273C376.208 5.5 375.75 5.36364 375.205 5.36364C374.636 5.36364 374.163 5.50758 373.784 5.79545C373.409 6.08333 373.127 6.4697 372.938 6.95455C372.752 7.43939 372.659 7.97727 372.659 8.56818C372.659 9.17424 372.754 9.71023 372.943 10.1761C373.136 10.6383 373.42 11.0019 373.795 11.267C374.174 11.5284 374.644 11.6591 375.205 11.6591ZM387.659 6.22727L386.455 6.56818C386.379 6.36742 386.267 6.17235 386.119 5.98295C385.975 5.78977 385.778 5.63068 385.528 5.50568C385.278 5.38068 384.958 5.31818 384.568 5.31818C384.034 5.31818 383.589 5.44129 383.233 5.6875C382.881 5.92992 382.705 6.23864 382.705 6.61364C382.705 6.94697 382.826 7.21023 383.068 7.40341C383.311 7.59659 383.689 7.75758 384.205 7.88636L385.5 8.20455C386.28 8.39394 386.862 8.68371 387.244 9.07386C387.627 9.46023 387.818 9.95833 387.818 10.5682C387.818 11.0682 387.674 11.5152 387.386 11.9091C387.102 12.303 386.705 12.6136 386.193 12.8409C385.682 13.0682 385.087 13.1818 384.409 13.1818C383.519 13.1818 382.782 12.9886 382.199 12.6023C381.616 12.2159 381.246 11.6515 381.091 10.9091L382.364 10.5909C382.485 11.0606 382.714 11.4129 383.051 11.6477C383.392 11.8826 383.837 12 384.386 12C385.011 12 385.508 11.8674 385.875 11.6023C386.246 11.3333 386.432 11.0114 386.432 10.6364C386.432 10.3333 386.326 10.0795 386.114 9.875C385.902 9.66667 385.576 9.51136 385.136 9.40909L383.682 9.06818C382.883 8.87879 382.295 8.58523 381.92 8.1875C381.549 7.78598 381.364 7.28409 381.364 6.68182C381.364 6.18939 381.502 5.75379 381.778 5.375C382.059 4.99621 382.439 4.69886 382.92 4.48295C383.405 4.26705 383.955 4.15909 384.568 4.15909C385.432 4.15909 386.11 4.34848 386.602 4.72727C387.098 5.10606 387.451 5.60606 387.659 6.22727Z" fill="#F1F1F1"/>
</svg>
