<svg width="174" height="23" viewBox="0 0 174 23" fill="none" xmlns="http://www.w3.org/2000/svg">
<path d="M0.159091 2.42045V0.545454H13.25V2.42045H7.76136V18H5.64773V2.42045H0.159091ZM19.8295 18.2727C18.5682 18.2727 17.4801 17.9943 16.5653 17.4375C15.6562 16.875 14.9545 16.0909 14.4602 15.0852C13.9716 14.0739 13.7273 12.8977 13.7273 11.5568C13.7273 10.2159 13.9716 9.03409 14.4602 8.01136C14.9545 6.98295 15.642 6.18182 16.5227 5.60795C17.4091 5.02841 18.4432 4.73864 19.625 4.73864C20.3068 4.73864 20.9801 4.85227 21.6449 5.07954C22.3097 5.30682 22.9148 5.67614 23.4602 6.1875C24.0057 6.69318 24.4403 7.36364 24.7642 8.19886C25.0881 9.03409 25.25 10.0625 25.25 11.2841V12.1364H15.1591V10.3977H23.2045C23.2045 9.65909 23.0568 9 22.7614 8.42045C22.4716 7.84091 22.0568 7.38352 21.517 7.0483C20.983 6.71307 20.3523 6.54545 19.625 6.54545C18.8239 6.54545 18.1307 6.74432 17.5455 7.14205C16.9659 7.53409 16.5199 8.04545 16.2074 8.67614C15.8949 9.30682 15.7386 9.98295 15.7386 10.7045V11.8636C15.7386 12.8523 15.9091 13.6903 16.25 14.3778C16.5966 15.0597 17.0767 15.5795 17.6903 15.9375C18.304 16.2898 19.017 16.4659 19.8295 16.4659C20.358 16.4659 20.8352 16.392 21.2614 16.2443C21.6932 16.0909 22.0653 15.8636 22.3778 15.5625C22.6903 15.2557 22.9318 14.875 23.1023 14.4205L25.0455 14.9659C24.8409 15.625 24.4972 16.2045 24.0142 16.7045C23.5313 17.1989 22.9347 17.5852 22.2244 17.8636C21.5142 18.1364 20.7159 18.2727 19.8295 18.2727ZM29.4581 4.90909L32.5945 10.2614L35.7308 4.90909H38.049L33.8217 11.4545L38.049 18H35.7308L32.5945 12.9205L29.4581 18H27.1399L31.299 11.4545L27.1399 4.90909H29.4581ZM46.6122 4.90909V6.61364H39.8281V4.90909H46.6122ZM41.8054 1.77273H43.8168V14.25C43.8168 14.8182 43.8991 15.2443 44.0639 15.5284C44.2344 15.8068 44.4503 15.9943 44.7116 16.0909C44.9787 16.1818 45.2599 16.2273 45.5554 16.2273C45.777 16.2273 45.9588 16.2159 46.1009 16.1932C46.2429 16.1648 46.3565 16.142 46.4418 16.125L46.8509 17.9318C46.7145 17.983 46.5241 18.0341 46.2798 18.0852C46.0355 18.142 45.7259 18.1705 45.3509 18.1705C44.7827 18.1705 44.2259 18.0483 43.6804 17.804C43.1406 17.5597 42.6918 17.1875 42.3338 16.6875C41.9815 16.1875 41.8054 15.5568 41.8054 14.7955V1.77273ZM65.6605 7.84091L63.8537 8.35227C63.7401 8.05114 63.5724 7.75852 63.3509 7.47443C63.1349 7.18466 62.8395 6.94602 62.4645 6.75852C62.0895 6.57102 61.6094 6.47727 61.0241 6.47727C60.223 6.47727 59.5554 6.66193 59.0213 7.03125C58.4929 7.39489 58.2287 7.85795 58.2287 8.42045C58.2287 8.92045 58.4105 9.31534 58.7741 9.60511C59.1378 9.89489 59.706 10.1364 60.4787 10.3295L62.4219 10.8068C63.5923 11.0909 64.4645 11.5256 65.0384 12.1108C65.6122 12.6903 65.8991 13.4375 65.8991 14.3523C65.8991 15.1023 65.6832 15.7727 65.2514 16.3636C64.8253 16.9545 64.2287 17.4205 63.4616 17.7614C62.6946 18.1023 61.8026 18.2727 60.7855 18.2727C59.4503 18.2727 58.3452 17.983 57.4702 17.4034C56.5952 16.8239 56.0412 15.9773 55.8082 14.8636L57.7173 14.3864C57.8991 15.0909 58.2429 15.6193 58.7486 15.9716C59.2599 16.3239 59.9276 16.5 60.7514 16.5C61.6889 16.5 62.4332 16.3011 62.9844 15.9034C63.5412 15.5 63.8196 15.017 63.8196 14.4545C63.8196 14 63.6605 13.6193 63.3423 13.3125C63.0241 13 62.5355 12.767 61.8764 12.6136L59.6946 12.1023C58.4957 11.8182 57.6151 11.3778 57.0526 10.7812C56.4957 10.179 56.2173 9.42614 56.2173 8.52273C56.2173 7.78409 56.4247 7.13068 56.8395 6.5625C57.2599 5.99432 57.831 5.5483 58.5526 5.22443C59.2798 4.90057 60.1037 4.73864 61.0241 4.73864C62.3196 4.73864 63.3366 5.02273 64.0753 5.59091C64.8196 6.15909 65.348 6.90909 65.6605 7.84091ZM74.4155 18.2727C73.1541 18.2727 72.0661 17.9943 71.1513 17.4375C70.2422 16.875 69.5405 16.0909 69.0462 15.0852C68.5575 14.0739 68.3132 12.8977 68.3132 11.5568C68.3132 10.2159 68.5575 9.03409 69.0462 8.01136C69.5405 6.98295 70.228 6.18182 71.1087 5.60795C71.995 5.02841 73.0291 4.73864 74.2109 4.73864C74.8928 4.73864 75.5661 4.85227 76.2308 5.07954C76.8956 5.30682 77.5007 5.67614 78.0462 6.1875C78.5916 6.69318 79.0263 7.36364 79.3501 8.19886C79.674 9.03409 79.8359 10.0625 79.8359 11.2841V12.1364H69.745V10.3977H77.7905C77.7905 9.65909 77.6428 9 77.3473 8.42045C77.0575 7.84091 76.6428 7.38352 76.103 7.0483C75.5689 6.71307 74.9382 6.54545 74.2109 6.54545C73.4098 6.54545 72.7166 6.74432 72.1314 7.14205C71.5518 7.53409 71.1058 8.04545 70.7933 8.67614C70.4808 9.30682 70.3246 9.98295 70.3246 10.7045V11.8636C70.3246 12.8523 70.495 13.6903 70.8359 14.3778C71.1825 15.0597 71.6626 15.5795 72.2763 15.9375C72.8899 16.2898 73.603 16.4659 74.4155 16.4659C74.9439 16.4659 75.4212 16.392 75.8473 16.2443C76.2791 16.0909 76.6513 15.8636 76.9638 15.5625C77.2763 15.2557 77.5178 14.875 77.6882 14.4205L79.6314 14.9659C79.4268 15.625 79.0831 16.2045 78.6001 16.7045C78.1172 17.1989 77.5206 17.5852 76.8104 17.8636C76.1001 18.1364 75.3018 18.2727 74.4155 18.2727ZM88.2138 18.2727C86.9865 18.2727 85.9297 17.983 85.0433 17.4034C84.157 16.8239 83.4751 16.0256 82.9979 15.0085C82.5206 13.9915 82.282 12.8295 82.282 11.5227C82.282 10.1932 82.5263 9.01989 83.0149 8.00284C83.5092 6.98011 84.1967 6.18182 85.0774 5.60795C85.9638 5.02841 86.9979 4.73864 88.1797 4.73864C89.1001 4.73864 89.9297 4.90909 90.6683 5.25C91.407 5.59091 92.0121 6.06818 92.4837 6.68182C92.9553 7.29545 93.2479 8.01136 93.3615 8.82955H91.3501C91.1967 8.23295 90.8558 7.70455 90.3274 7.24432C89.8047 6.77841 89.1001 6.54545 88.2138 6.54545C87.4297 6.54545 86.7422 6.75 86.1513 7.15909C85.5661 7.5625 85.1087 8.13352 84.7791 8.87216C84.4553 9.60511 84.2933 10.4659 84.2933 11.4545C84.2933 12.4659 84.4524 13.3466 84.7706 14.0966C85.0945 14.8466 85.549 15.429 86.1342 15.8438C86.7251 16.2585 87.4183 16.4659 88.2138 16.4659C88.7365 16.4659 89.2109 16.375 89.6371 16.1932C90.0632 16.0114 90.424 15.75 90.7195 15.4091C91.0149 15.0682 91.2251 14.6591 91.3501 14.1818H93.3615C93.2479 14.9545 92.9666 15.6506 92.5178 16.2699C92.0746 16.8835 91.4865 17.3722 90.7536 17.7358C90.0263 18.0938 89.1797 18.2727 88.2138 18.2727ZM101.62 18.2727C100.438 18.2727 99.4013 17.9915 98.5092 17.429C97.6229 16.8665 96.9297 16.0795 96.4297 15.0682C95.9354 14.0568 95.6882 12.875 95.6882 11.5227C95.6882 10.1591 95.9354 8.96875 96.4297 7.9517C96.9297 6.93466 97.6229 6.14489 98.5092 5.58239C99.4013 5.01989 100.438 4.73864 101.62 4.73864C102.802 4.73864 103.836 5.01989 104.722 5.58239C105.614 6.14489 106.308 6.93466 106.802 7.9517C107.302 8.96875 107.552 10.1591 107.552 11.5227C107.552 12.875 107.302 14.0568 106.802 15.0682C106.308 16.0795 105.614 16.8665 104.722 17.429C103.836 17.9915 102.802 18.2727 101.62 18.2727ZM101.62 16.4659C102.518 16.4659 103.256 16.2358 103.836 15.7756C104.415 15.3153 104.844 14.7102 105.123 13.9602C105.401 13.2102 105.54 12.3977 105.54 11.5227C105.54 10.6477 105.401 9.83239 105.123 9.0767C104.844 8.32102 104.415 7.71023 103.836 7.24432C103.256 6.77841 102.518 6.54545 101.62 6.54545C100.722 6.54545 99.9837 6.77841 99.4041 7.24432C98.8246 7.71023 98.3956 8.32102 98.1172 9.0767C97.8388 9.83239 97.6996 10.6477 97.6996 11.5227C97.6996 12.3977 97.8388 13.2102 98.1172 13.9602C98.3956 14.7102 98.8246 15.3153 99.4041 15.7756C99.9837 16.2358 100.722 16.4659 101.62 16.4659ZM112.634 10.125V18H110.622V4.90909H112.565V6.95455H112.736C113.043 6.28977 113.509 5.75568 114.134 5.35227C114.759 4.94318 115.565 4.73864 116.554 4.73864C117.44 4.73864 118.216 4.92045 118.881 5.28409C119.545 5.64205 120.063 6.1875 120.432 6.92045C120.801 7.64773 120.986 8.56818 120.986 9.68182V18H118.974V9.81818C118.974 8.78977 118.707 7.98864 118.173 7.41477C117.639 6.83523 116.906 6.54545 115.974 6.54545C115.332 6.54545 114.759 6.68466 114.253 6.96307C113.753 7.24148 113.358 7.64773 113.068 8.18182C112.778 8.71591 112.634 9.36364 112.634 10.125ZM129.604 18.2727C128.513 18.2727 127.55 17.9972 126.715 17.446C125.88 16.8892 125.227 16.1051 124.755 15.0938C124.283 14.0767 124.048 12.875 124.048 11.4886C124.048 10.1136 124.283 8.92045 124.755 7.90909C125.227 6.89773 125.883 6.11648 126.724 5.56534C127.565 5.0142 128.536 4.73864 129.638 4.73864C130.491 4.73864 131.164 4.88068 131.658 5.16477C132.158 5.44318 132.539 5.76136 132.8 6.11932C133.067 6.47159 133.275 6.76136 133.423 6.98864H133.593V0.545454H135.604V18H133.661V15.9886H133.423C133.275 16.2273 133.065 16.5284 132.792 16.892C132.519 17.25 132.13 17.571 131.624 17.8551C131.119 18.1335 130.445 18.2727 129.604 18.2727ZM129.877 16.4659C130.684 16.4659 131.366 16.2557 131.923 15.8352C132.479 15.4091 132.903 14.821 133.192 14.071C133.482 13.3153 133.627 12.4432 133.627 11.4545C133.627 10.4773 133.485 9.62216 133.201 8.8892C132.917 8.15057 132.496 7.5767 131.94 7.16761C131.383 6.75284 130.695 6.54545 129.877 6.54545C129.025 6.54545 128.315 6.7642 127.746 7.2017C127.184 7.63352 126.761 8.22159 126.477 8.96591C126.198 9.70455 126.059 10.5341 126.059 11.4545C126.059 12.3864 126.201 13.233 126.485 13.9943C126.775 14.75 127.201 15.3523 127.763 15.8011C128.332 16.2443 129.036 16.4659 129.877 16.4659ZM143.42 18.3068C142.59 18.3068 141.837 18.1506 141.161 17.8381C140.485 17.5199 139.948 17.0625 139.55 16.4659C139.153 15.8636 138.954 15.1364 138.954 14.2841C138.954 13.5341 139.102 12.9261 139.397 12.4602C139.692 11.9886 140.087 11.6193 140.582 11.3523C141.076 11.0852 141.621 10.8864 142.218 10.7557C142.82 10.6193 143.425 10.5114 144.033 10.4318C144.829 10.3295 145.474 10.2528 145.968 10.2017C146.468 10.1449 146.832 10.0511 147.059 9.92045C147.292 9.78977 147.408 9.5625 147.408 9.23864V9.17045C147.408 8.32955 147.178 7.67614 146.718 7.21023C146.263 6.74432 145.573 6.51136 144.647 6.51136C143.687 6.51136 142.934 6.72159 142.388 7.14205C141.843 7.5625 141.46 8.01136 141.238 8.48864L139.329 7.80682C139.67 7.01136 140.124 6.39205 140.692 5.94886C141.266 5.5 141.891 5.1875 142.567 5.01136C143.249 4.82955 143.92 4.73864 144.579 4.73864C144.999 4.73864 145.482 4.78977 146.028 4.89204C146.579 4.98864 147.11 5.19034 147.621 5.49716C148.138 5.80398 148.567 6.26705 148.908 6.88636C149.249 7.50568 149.42 8.33523 149.42 9.375V18H147.408V16.2273H147.306C147.17 16.5114 146.942 16.8153 146.624 17.1392C146.306 17.4631 145.883 17.7386 145.354 17.9659C144.826 18.1932 144.181 18.3068 143.42 18.3068ZM143.727 16.5C144.522 16.5 145.192 16.3438 145.738 16.0312C146.289 15.7188 146.704 15.3153 146.982 14.821C147.266 14.3267 147.408 13.8068 147.408 13.2614V11.4205C147.323 11.5227 147.136 11.6165 146.846 11.7017C146.562 11.7812 146.232 11.8523 145.857 11.9148C145.488 11.9716 145.127 12.0227 144.775 12.0682C144.428 12.108 144.147 12.142 143.931 12.1705C143.408 12.2386 142.92 12.3494 142.465 12.5028C142.016 12.6506 141.653 12.875 141.374 13.1761C141.102 13.4716 140.965 13.875 140.965 14.3864C140.965 15.0852 141.224 15.6136 141.741 15.9716C142.263 16.3239 142.925 16.5 143.727 16.5ZM153.091 18V4.90909H155.034V6.88636H155.17C155.409 6.23864 155.841 5.71307 156.466 5.30966C157.091 4.90625 157.795 4.70454 158.58 4.70454C158.727 4.70454 158.912 4.70739 159.134 4.71307C159.355 4.71875 159.523 4.72727 159.636 4.73864V6.78409C159.568 6.76705 159.412 6.74148 159.168 6.70739C158.929 6.66761 158.676 6.64773 158.409 6.64773C157.773 6.64773 157.205 6.78125 156.705 7.0483C156.21 7.30966 155.818 7.6733 155.528 8.1392C155.244 8.59943 155.102 9.125 155.102 9.71591V18H153.091ZM163.714 22.9091C163.374 22.9091 163.07 22.8807 162.803 22.8239C162.536 22.7727 162.351 22.7216 162.249 22.6705L162.76 20.8977C163.249 21.0227 163.68 21.0682 164.055 21.0341C164.43 21 164.763 20.8324 165.053 20.5312C165.348 20.2358 165.618 19.7557 165.862 19.0909L166.237 18.0682L161.396 4.90909H163.578L167.192 15.3409H167.328L170.942 4.90909H173.124L167.567 19.9091C167.317 20.5852 167.007 21.1449 166.638 21.5881C166.268 22.0369 165.839 22.3693 165.351 22.5852C164.868 22.8011 164.322 22.9091 163.714 22.9091Z" fill="#F1F1F1"/>
</svg>
