<svg width="290" height="48" viewBox="0 0 290 48" fill="none" xmlns="http://www.w3.org/2000/svg">
<g filter="url(#filter0_d_281_18448)">
<g clip-path="url(#clip0_281_18448)">
<rect width="143" height="44" transform="translate(2 1)" fill="#334A5F"/>
<g clip-path="url(#clip1_281_18448)">
<path d="M76.7 17.25C80.2244 17.25 82.25 19.9435 82.25 24C82.25 28.8301 78.3325 32.7476 73.5 32.7476C68.6686 32.7476 64.7516 28.8319 64.75 24.0003C64.75 20.033 66.6863 17.3704 70.0673 17.254L70.3 17.25L70.3669 17.253C71.2563 17.3326 72.1404 17.4616 73.0152 17.6391L73.498 17.744L73.8758 17.6616C74.6053 17.5102 75.3465 17.3923 76.1167 17.3074L76.7 17.25ZM76.7669 18.747C75.7242 18.8404 74.6893 19.006 73.6695 19.2426C73.558 19.2685 73.442 19.2685 73.3305 19.2426C72.5147 19.0533 71.6891 18.9094 70.8577 18.8117L70.261 18.75L70.0869 18.7545C67.7018 18.856 66.3298 20.6767 66.2534 23.7277L66.25 24C66.2513 28.0032 69.4969 31.2476 73.5 31.2476C77.424 31.2476 80.6199 28.1302 80.7461 24.237L80.75 23.9976L80.7466 23.7277C80.668 20.5875 79.218 18.7499 76.7669 18.747Z" fill="#F1F1F1"/>
<path d="M78.7489 12.25H76.9049C74.7469 12.2507 72.9983 14.0006 72.999 16.1583V18C72.999 18.4142 73.3348 18.75 73.749 18.75H75.5909C77.749 18.7493 79.4982 17.0002 79.4989 14.8424V13C79.4989 12.5858 79.1631 12.25 78.7489 12.25ZM77.998 13.749L77.9989 14.8421L77.9938 15.0004C77.9118 16.2562 76.8673 17.2496 75.5907 17.25H74.498L74.499 16.1581C74.4986 14.8285 75.5758 13.7505 76.9052 13.75L77.998 13.749Z" fill="#F1F1F1"/>
<path d="M71.249 14.25C72.9821 14.25 74.3983 15.6065 74.4939 17.3156L74.499 17.5V18C74.499 18.4142 74.1632 18.75 73.749 18.75C73.3693 18.75 73.0555 18.4678 73.0059 18.1018L72.999 18V17.5C72.999 16.5818 72.2919 15.8288 71.3925 15.7558L71.249 15.75H70.749C70.3348 15.75 69.999 15.4142 69.999 15C69.999 14.6203 70.2812 14.3065 70.6473 14.2568L70.749 14.25H71.249Z" fill="#F1F1F1"/>
</g>
<rect width="143" height="44" transform="translate(145 1)" fill="#223B50"/>
<g clip-path="url(#clip2_281_18448)">
<path d="M224.205 13.293H223.259C222.293 13.293 221.509 14.0765 221.509 15.043V15.3968C221.509 16.7176 221.228 18.0229 220.684 19.2257L220.522 19.5639C219.424 21.7602 217.721 23.6141 215.615 24.9018L215.269 25.1058C213.287 26.2383 211.033 26.8369 208.74 26.8369H208.56C207.788 26.8369 207.098 27.3207 206.835 28.0469C206.6 28.6964 206.75 29.4211 207.219 29.9233L207.351 30.0496C209.837 32.123 213.024 33.057 216.193 32.6609C218.301 32.3974 220.295 31.556 221.954 30.2307L222.25 29.9852C225.114 27.5304 226.594 23.8462 226.228 20.1093L226.19 19.7707C226.033 18.5558 225.955 17.3434 225.955 16.1299V15.043C225.955 14.0765 225.172 13.293 224.205 13.293ZM223.259 14.793H224.205C224.344 14.793 224.455 14.9049 224.455 15.043V16.1299C224.455 17.152 224.508 18.1733 224.612 19.1897L224.736 20.2669C225.053 23.5056 223.767 26.7101 221.284 28.8379L221.007 29.067C219.574 30.2115 217.84 30.9433 216.007 31.1725C213.25 31.5171 210.478 30.7047 208.346 28.9283L208.282 28.8662C208.23 28.8081 208.203 28.6759 208.246 28.5575C208.294 28.4251 208.419 28.3369 208.56 28.3369H208.74C211.294 28.3369 213.805 27.6702 216.023 26.4026L216.388 26.1873C218.743 24.7474 220.64 22.6824 221.87 20.2216L222.044 19.8572C222.682 18.447 223.009 16.9309 223.009 15.3968V15.043C223.009 14.9049 223.121 14.793 223.259 14.793Z" fill="#F1F1F1"/>
<path d="M221.498 16.2353C221.645 15.8478 222.077 15.6522 222.465 15.7985C222.853 15.9448 223.048 16.3775 222.902 16.7651C222.456 17.9458 221.751 19.0112 220.841 19.8797C219.3 21.368 217.376 22.3952 215.299 22.8476L214.593 22.9883C212.812 23.31 210.977 23.1614 209.271 22.5577L209.21 22.5424C209.202 22.541 209.194 22.5403 209.188 22.5402C209.097 22.5411 209.014 22.5906 208.969 22.6699C208.925 22.7493 208.926 22.8463 208.974 22.9251C209.859 24.4048 211.285 25.477 212.946 25.9205L213.225 25.9886L213.535 26.0586C213.939 26.1499 214.193 26.5514 214.102 26.9554C214.018 27.3258 213.674 27.5697 213.306 27.5375L213.205 27.5218L212.898 27.4525C210.718 26.9703 208.833 25.6113 207.687 23.6962C207.364 23.1573 207.353 22.4864 207.66 21.9378C207.967 21.3892 208.544 21.0467 209.189 21.0402C209.386 21.0425 209.582 21.0771 209.77 21.1432C211.119 21.6206 212.561 21.7656 213.963 21.5706L214.313 21.5148L214.626 21.4522C216.575 21.0988 218.375 20.1761 219.802 18.7977C220.552 18.0815 221.132 17.2058 221.498 16.2353Z" fill="#F1F1F1"/>
</g>
</g>
<rect x="3.5" y="2.5" width="283" height="41" rx="2.5" stroke="#334A5F" stroke-width="3" shape-rendering="crispEdges"/>
</g>
<defs>
<filter id="filter0_d_281_18448" x="0" y="0" width="290" height="48" filterUnits="userSpaceOnUse" color-interpolation-filters="sRGB">
<feFlood flood-opacity="0" result="BackgroundImageFix"/>
<feColorMatrix in="SourceAlpha" type="matrix" values="0 0 0 0 0 0 0 0 0 0 0 0 0 0 0 0 0 0 127 0" result="hardAlpha"/>
<feOffset dy="1"/>
<feGaussianBlur stdDeviation="1"/>
<feComposite in2="hardAlpha" operator="out"/>
<feColorMatrix type="matrix" values="0 0 0 0 0.0627451 0 0 0 0 0.0941176 0 0 0 0 0.156863 0 0 0 0.05 0"/>
<feBlend mode="normal" in2="BackgroundImageFix" result="effect1_dropShadow_281_18448"/>
<feBlend mode="normal" in="SourceGraphic" in2="effect1_dropShadow_281_18448" result="shape"/>
</filter>
<clipPath id="clip0_281_18448">
<rect x="2" y="1" width="286" height="44" rx="4" fill="white"/>
</clipPath>
<clipPath id="clip1_281_18448">
<rect width="24" height="24" fill="white" transform="translate(61.5 11)"/>
</clipPath>
<clipPath id="clip2_281_18448">
<rect width="24" height="24" fill="white" transform="translate(204.5 11)"/>
</clipPath>
</defs>
</svg>
