<svg width="290" height="48" viewBox="0 0 290 48" fill="none" xmlns="http://www.w3.org/2000/svg">
<g filter="url(#filter0_d_281_18500)">
<g clip-path="url(#clip0_281_18500)">
<rect width="143" height="44" transform="translate(2 1)" fill="#334A5F"/>
<path d="M53.2614 29H51.3977L55.5852 17.3636H57.6136L61.8011 29H59.9375L56.6477 19.4773H56.5568L53.2614 29ZM53.5739 24.4432H59.6193V25.9205H53.5739V24.4432ZM63.3452 32.2727V20.2727H65.0043V21.6875H65.1463C65.2448 21.5057 65.3868 21.2955 65.5724 21.0568C65.758 20.8182 66.0156 20.6098 66.3452 20.4318C66.6747 20.25 67.1103 20.1591 67.652 20.1591C68.3565 20.1591 68.9853 20.3371 69.5384 20.6932C70.0914 21.0492 70.5251 21.5625 70.8395 22.233C71.1577 22.9034 71.3168 23.7102 71.3168 24.6534C71.3168 25.5966 71.1596 26.4053 70.8452 27.0795C70.5308 27.75 70.099 28.267 69.5497 28.6307C69.0005 28.9905 68.3736 29.1705 67.669 29.1705C67.1387 29.1705 66.705 29.0814 66.3679 28.9034C66.0346 28.7254 65.7732 28.517 65.5838 28.2784C65.3944 28.0398 65.2486 27.8277 65.1463 27.642H65.044V32.2727H63.3452ZM65.0099 24.6364C65.0099 25.25 65.099 25.7879 65.277 26.25C65.455 26.7121 65.7126 27.0739 66.0497 27.3352C66.3868 27.5928 66.7997 27.7216 67.2884 27.7216C67.7959 27.7216 68.2202 27.5871 68.5611 27.3182C68.902 27.0455 69.1596 26.6761 69.3338 26.2102C69.5118 25.7443 69.6009 25.2197 69.6009 24.6364C69.6009 24.0606 69.5137 23.5436 69.3395 23.0852C69.169 22.6269 68.9115 22.2652 68.5668 22C68.2259 21.7348 67.7997 21.6023 67.2884 21.6023C66.7959 21.6023 66.3793 21.7292 66.0384 21.983C65.7012 22.2367 65.4455 22.5909 65.2713 23.0455C65.0971 23.5 65.0099 24.0303 65.0099 24.6364ZM73.2202 32.2727V20.2727H74.8793V21.6875H75.0213C75.1198 21.5057 75.2618 21.2955 75.4474 21.0568C75.633 20.8182 75.8906 20.6098 76.2202 20.4318C76.5497 20.25 76.9853 20.1591 77.527 20.1591C78.2315 20.1591 78.8603 20.3371 79.4134 20.6932C79.9664 21.0492 80.4001 21.5625 80.7145 22.233C81.0327 22.9034 81.1918 23.7102 81.1918 24.6534C81.1918 25.5966 81.0346 26.4053 80.7202 27.0795C80.4058 27.75 79.974 28.267 79.4247 28.6307C78.8755 28.9905 78.2486 29.1705 77.544 29.1705C77.0137 29.1705 76.58 29.0814 76.2429 28.9034C75.9096 28.7254 75.6482 28.517 75.4588 28.2784C75.2694 28.0398 75.1236 27.8277 75.0213 27.642H74.919V32.2727H73.2202ZM74.8849 24.6364C74.8849 25.25 74.974 25.7879 75.152 26.25C75.33 26.7121 75.5876 27.0739 75.9247 27.3352C76.2618 27.5928 76.6747 27.7216 77.1634 27.7216C77.6709 27.7216 78.0952 27.5871 78.4361 27.3182C78.777 27.0455 79.0346 26.6761 79.2088 26.2102C79.3868 25.7443 79.4759 25.2197 79.4759 24.6364C79.4759 24.0606 79.3887 23.5436 79.2145 23.0852C79.044 22.6269 78.7865 22.2652 78.4418 22C78.1009 21.7348 77.6747 21.6023 77.1634 21.6023C76.6709 21.6023 76.2543 21.7292 75.9134 21.983C75.5762 22.2367 75.3205 22.5909 75.1463 23.0455C74.9721 23.5 74.8849 24.0303 74.8849 24.6364ZM84.794 17.3636V29H83.0952V17.3636H84.794ZM90.8409 29.1761C89.9811 29.1761 89.2405 28.9924 88.6193 28.625C88.0019 28.2538 87.5246 27.733 87.1875 27.0625C86.8542 26.3883 86.6875 25.5985 86.6875 24.6932C86.6875 23.7992 86.8542 23.0114 87.1875 22.3295C87.5246 21.6477 87.9943 21.1155 88.5966 20.733C89.2027 20.3504 89.911 20.1591 90.7216 20.1591C91.214 20.1591 91.6913 20.2405 92.1534 20.4034C92.6155 20.5663 93.0303 20.822 93.3977 21.1705C93.7652 21.5189 94.0549 21.9716 94.267 22.5284C94.4792 23.0814 94.5852 23.7538 94.5852 24.5455V25.1477H87.6477V23.875H92.9205C92.9205 23.428 92.8295 23.0322 92.6477 22.6875C92.4659 22.339 92.2102 22.0644 91.8807 21.8636C91.5549 21.6629 91.1723 21.5625 90.733 21.5625C90.2557 21.5625 89.839 21.6799 89.483 21.9148C89.1307 22.1458 88.858 22.4489 88.6648 22.8239C88.4754 23.1951 88.3807 23.5985 88.3807 24.0341V25.0284C88.3807 25.6117 88.483 26.108 88.6875 26.517C88.8958 26.9261 89.1856 27.2386 89.5568 27.4545C89.928 27.6667 90.3617 27.7727 90.858 27.7727C91.1799 27.7727 91.4735 27.7273 91.7386 27.6364C92.0038 27.5417 92.233 27.4015 92.4261 27.2159C92.6193 27.0303 92.767 26.8011 92.8693 26.5284L94.4773 26.8182C94.3485 27.2917 94.1174 27.7064 93.7841 28.0625C93.4545 28.4148 93.0398 28.6894 92.5398 28.8864C92.0436 29.0795 91.4773 29.1761 90.8409 29.1761Z" fill="#F1F1F1"/>
<rect width="143" height="44" transform="translate(145 1)" fill="#223B50"/>
<path d="M189.278 29V17.3636H193.54C194.366 17.3636 195.049 17.5 195.591 17.7727C196.133 18.0417 196.538 18.4072 196.807 18.8693C197.076 19.3277 197.21 19.8447 197.21 20.4205C197.21 20.9053 197.121 21.3144 196.943 21.6477C196.765 21.9773 196.527 22.2424 196.227 22.4432C195.932 22.6402 195.606 22.7841 195.25 22.875V22.9886C195.636 23.0076 196.013 23.1326 196.381 23.3636C196.752 23.5909 197.059 23.9148 197.301 24.3352C197.544 24.7557 197.665 25.267 197.665 25.8693C197.665 26.464 197.525 26.9981 197.244 27.4716C196.968 27.9413 196.54 28.3144 195.96 28.5909C195.381 28.8636 194.64 29 193.739 29H189.278ZM191.034 27.4943H193.568C194.409 27.4943 195.011 27.3314 195.375 27.0057C195.739 26.6799 195.92 26.2727 195.92 25.7841C195.92 25.4167 195.828 25.0795 195.642 24.7727C195.456 24.4659 195.191 24.2216 194.847 24.0398C194.506 23.858 194.1 23.767 193.631 23.767H191.034V27.4943ZM191.034 22.3977H193.386C193.78 22.3977 194.134 22.322 194.449 22.1705C194.767 22.0189 195.019 21.8068 195.205 21.5341C195.394 21.2576 195.489 20.9318 195.489 20.5568C195.489 20.0758 195.32 19.6723 194.983 19.3466C194.646 19.0208 194.129 18.858 193.432 18.858H191.034V22.3977ZM202.151 29.1932C201.598 29.1932 201.098 29.0909 200.651 28.8864C200.204 28.678 199.849 28.3769 199.588 27.983C199.33 27.589 199.202 27.1061 199.202 26.5341C199.202 26.0417 199.296 25.6364 199.486 25.3182C199.675 25 199.931 24.7481 200.253 24.5625C200.575 24.3769 200.935 24.2367 201.332 24.142C201.73 24.0473 202.135 23.9754 202.548 23.9261C203.071 23.8655 203.495 23.8163 203.821 23.7784C204.147 23.7367 204.384 23.6705 204.531 23.5795C204.679 23.4886 204.753 23.3409 204.753 23.1364V23.0966C204.753 22.6004 204.613 22.2159 204.332 21.9432C204.056 21.6705 203.643 21.5341 203.094 21.5341C202.522 21.5341 202.071 21.661 201.741 21.9148C201.416 22.1648 201.19 22.4432 201.065 22.75L199.469 22.3864C199.658 21.8561 199.935 21.428 200.298 21.1023C200.666 20.7727 201.088 20.5341 201.565 20.3864C202.043 20.2348 202.545 20.1591 203.071 20.1591C203.42 20.1591 203.789 20.2008 204.179 20.2841C204.573 20.3636 204.94 20.5114 205.281 20.7273C205.626 20.9432 205.908 21.2519 206.128 21.6534C206.348 22.0511 206.457 22.5682 206.457 23.2045V29H204.798V27.8068H204.73C204.62 28.0265 204.455 28.2424 204.236 28.4545C204.016 28.6667 203.734 28.8428 203.389 28.983C203.045 29.1231 202.632 29.1932 202.151 29.1932ZM202.52 27.8295C202.99 27.8295 203.391 27.7367 203.724 27.5511C204.062 27.3655 204.317 27.1231 204.491 26.8239C204.67 26.5208 204.759 26.197 204.759 25.8523V24.7273C204.698 24.7879 204.58 24.8447 204.406 24.8977C204.236 24.947 204.041 24.9905 203.821 25.0284C203.601 25.0625 203.387 25.0947 203.179 25.125C202.971 25.1515 202.796 25.1742 202.656 25.1932C202.327 25.2348 202.026 25.3049 201.753 25.4034C201.484 25.5019 201.268 25.6439 201.105 25.8295C200.946 26.0114 200.866 26.2538 200.866 26.5568C200.866 26.9773 201.022 27.2955 201.332 27.5114C201.643 27.7235 202.039 27.8295 202.52 27.8295ZM210.419 23.8182V29H208.72V20.2727H210.351V21.6932H210.459C210.66 21.2311 210.974 20.8598 211.402 20.5795C211.834 20.2992 212.377 20.1591 213.033 20.1591C213.627 20.1591 214.148 20.2841 214.595 20.5341C215.042 20.7803 215.389 21.1477 215.635 21.6364C215.881 22.125 216.004 22.7292 216.004 23.4489V29H214.305V23.6534C214.305 23.0208 214.141 22.5265 213.811 22.1705C213.482 21.8106 213.029 21.6307 212.453 21.6307C212.059 21.6307 211.709 21.7159 211.402 21.8864C211.099 22.0568 210.858 22.3068 210.68 22.6364C210.506 22.9621 210.419 23.3561 210.419 23.8182ZM220.822 29.1932C220.269 29.1932 219.769 29.0909 219.322 28.8864C218.875 28.678 218.521 28.3769 218.26 27.983C218.002 27.589 217.874 27.1061 217.874 26.5341C217.874 26.0417 217.968 25.6364 218.158 25.3182C218.347 25 218.603 24.7481 218.925 24.5625C219.247 24.3769 219.607 24.2367 220.004 24.142C220.402 24.0473 220.807 23.9754 221.22 23.9261C221.743 23.8655 222.167 23.8163 222.493 23.7784C222.819 23.7367 223.055 23.6705 223.203 23.5795C223.351 23.4886 223.425 23.3409 223.425 23.1364V23.0966C223.425 22.6004 223.285 22.2159 223.004 21.9432C222.728 21.6705 222.315 21.5341 221.766 21.5341C221.194 21.5341 220.743 21.661 220.413 21.9148C220.088 22.1648 219.862 22.4432 219.737 22.75L218.141 22.3864C218.33 21.8561 218.607 21.428 218.97 21.1023C219.338 20.7727 219.76 20.5341 220.237 20.3864C220.714 20.2348 221.216 20.1591 221.743 20.1591C222.091 20.1591 222.461 20.2008 222.851 20.2841C223.245 20.3636 223.612 20.5114 223.953 20.7273C224.298 20.9432 224.58 21.2519 224.8 21.6534C225.019 22.0511 225.129 22.5682 225.129 23.2045V29H223.47V27.8068H223.402C223.292 28.0265 223.127 28.2424 222.908 28.4545C222.688 28.6667 222.406 28.8428 222.061 28.983C221.716 29.1231 221.304 29.1932 220.822 29.1932ZM221.192 27.8295C221.661 27.8295 222.063 27.7367 222.396 27.5511C222.733 27.3655 222.989 27.1231 223.163 26.8239C223.341 26.5208 223.43 26.197 223.43 25.8523V24.7273C223.37 24.7879 223.252 24.8447 223.078 24.8977C222.908 24.947 222.713 24.9905 222.493 25.0284C222.273 25.0625 222.059 25.0947 221.851 25.125C221.643 25.1515 221.468 25.1742 221.328 25.1932C220.999 25.2348 220.697 25.3049 220.425 25.4034C220.156 25.5019 219.94 25.6439 219.777 25.8295C219.618 26.0114 219.538 26.2538 219.538 26.5568C219.538 26.9773 219.694 27.2955 220.004 27.5114C220.315 27.7235 220.711 27.8295 221.192 27.8295ZM229.091 23.8182V29H227.392V20.2727H229.023V21.6932H229.131C229.331 21.2311 229.646 20.8598 230.074 20.5795C230.506 20.2992 231.049 20.1591 231.705 20.1591C232.299 20.1591 232.82 20.2841 233.267 20.5341C233.714 20.7803 234.061 21.1477 234.307 21.6364C234.553 22.125 234.676 22.7292 234.676 23.4489V29H232.977V23.6534C232.977 23.0208 232.813 22.5265 232.483 22.1705C232.153 21.8106 231.701 21.6307 231.125 21.6307C230.731 21.6307 230.381 21.7159 230.074 21.8864C229.771 22.0568 229.53 22.3068 229.352 22.6364C229.178 22.9621 229.091 23.3561 229.091 23.8182ZM239.494 29.1932C238.941 29.1932 238.441 29.0909 237.994 28.8864C237.547 28.678 237.193 28.3769 236.932 27.983C236.674 27.589 236.545 27.1061 236.545 26.5341C236.545 26.0417 236.64 25.6364 236.83 25.3182C237.019 25 237.275 24.7481 237.597 24.5625C237.919 24.3769 238.278 24.2367 238.676 24.142C239.074 24.0473 239.479 23.9754 239.892 23.9261C240.415 23.8655 240.839 23.8163 241.165 23.7784C241.491 23.7367 241.727 23.6705 241.875 23.5795C242.023 23.4886 242.097 23.3409 242.097 23.1364V23.0966C242.097 22.6004 241.956 22.2159 241.676 21.9432C241.4 21.6705 240.987 21.5341 240.438 21.5341C239.866 21.5341 239.415 21.661 239.085 21.9148C238.759 22.1648 238.534 22.4432 238.409 22.75L236.812 22.3864C237.002 21.8561 237.278 21.428 237.642 21.1023C238.009 20.7727 238.432 20.5341 238.909 20.3864C239.386 20.2348 239.888 20.1591 240.415 20.1591C240.763 20.1591 241.133 20.2008 241.523 20.2841C241.917 20.3636 242.284 20.5114 242.625 20.7273C242.97 20.9432 243.252 21.2519 243.472 21.6534C243.691 22.0511 243.801 22.5682 243.801 23.2045V29H242.142V27.8068H242.074C241.964 28.0265 241.799 28.2424 241.58 28.4545C241.36 28.6667 241.078 28.8428 240.733 28.983C240.388 29.1231 239.975 29.1932 239.494 29.1932ZM239.864 27.8295C240.333 27.8295 240.735 27.7367 241.068 27.5511C241.405 27.3655 241.661 27.1231 241.835 26.8239C242.013 26.5208 242.102 26.197 242.102 25.8523V24.7273C242.042 24.7879 241.924 24.8447 241.75 24.8977C241.58 24.947 241.384 24.9905 241.165 25.0284C240.945 25.0625 240.731 25.0947 240.523 25.125C240.314 25.1515 240.14 25.1742 240 25.1932C239.67 25.2348 239.369 25.3049 239.097 25.4034C238.828 25.5019 238.612 25.6439 238.449 25.8295C238.29 26.0114 238.21 26.2538 238.21 26.5568C238.21 26.9773 238.366 27.2955 238.676 27.5114C238.987 27.7235 239.383 27.8295 239.864 27.8295Z" fill="#F1F1F1"/>
</g>
<rect x="3.5" y="2.5" width="283" height="41" rx="2.5" stroke="#334A5F" stroke-width="3" shape-rendering="crispEdges"/>
</g>
<defs>
<filter id="filter0_d_281_18500" x="0" y="0" width="290" height="48" filterUnits="userSpaceOnUse" color-interpolation-filters="sRGB">
<feFlood flood-opacity="0" result="BackgroundImageFix"/>
<feColorMatrix in="SourceAlpha" type="matrix" values="0 0 0 0 0 0 0 0 0 0 0 0 0 0 0 0 0 0 127 0" result="hardAlpha"/>
<feOffset dy="1"/>
<feGaussianBlur stdDeviation="1"/>
<feComposite in2="hardAlpha" operator="out"/>
<feColorMatrix type="matrix" values="0 0 0 0 0.0627451 0 0 0 0 0.0941176 0 0 0 0 0.156863 0 0 0 0.05 0"/>
<feBlend mode="normal" in2="BackgroundImageFix" result="effect1_dropShadow_281_18500"/>
<feBlend mode="normal" in="SourceGraphic" in2="effect1_dropShadow_281_18500" result="shape"/>
</filter>
<clipPath id="clip0_281_18500">
<rect x="2" y="1" width="286" height="44" rx="4" fill="white"/>
</clipPath>
</defs>
</svg>
