<svg width="290" height="48" viewBox="0 0 290 48" fill="none" xmlns="http://www.w3.org/2000/svg">
<g filter="url(#filter0_d_281_18421)">
<g clip-path="url(#clip0_281_18421)">
<rect width="143" height="44" transform="translate(2 1)" fill="#334A5F"/>
<g clip-path="url(#clip1_281_18421)">
<path d="M52.2 17.25C55.7244 17.25 57.75 19.9435 57.75 24C57.75 28.8301 53.8325 32.7476 49 32.7476C44.1686 32.7476 40.2516 28.8319 40.25 24.0003C40.25 20.033 42.1863 17.3704 45.5673 17.254L45.8 17.25L45.8669 17.253C46.7563 17.3326 47.6404 17.4616 48.5152 17.6391L48.998 17.744L49.3758 17.6616C50.1053 17.5102 50.8465 17.3923 51.6167 17.3074L52.2 17.25ZM52.2669 18.747C51.2242 18.8404 50.1893 19.006 49.1695 19.2426C49.058 19.2685 48.942 19.2685 48.8305 19.2426C48.0147 19.0533 47.1891 18.9094 46.3577 18.8117L45.761 18.75L45.5869 18.7545C43.2018 18.856 41.8298 20.6767 41.7534 23.7277L41.75 24C41.7513 28.0032 44.9969 31.2476 49 31.2476C52.924 31.2476 56.1199 28.1302 56.2461 24.237L56.25 23.9976L56.2466 23.7277C56.168 20.5875 54.718 18.7499 52.2669 18.747Z" fill="#F1F1F1"/>
<path d="M54.2489 12.25H52.4049C50.2469 12.2507 48.4983 14.0006 48.499 16.1583V18C48.499 18.4142 48.8348 18.75 49.249 18.75H51.0909C53.249 18.7493 54.9982 17.0002 54.9989 14.8424V13C54.9989 12.5858 54.6631 12.25 54.2489 12.25ZM53.498 13.749L53.4989 14.8421L53.4938 15.0004C53.4118 16.2562 52.3673 17.2496 51.0907 17.25H49.998L49.999 16.1581C49.9986 14.8285 51.0758 13.7505 52.4052 13.75L53.498 13.749Z" fill="#F1F1F1"/>
<path d="M46.749 14.25C48.4821 14.25 49.8983 15.6065 49.9939 17.3156L49.999 17.5V18C49.999 18.4142 49.6632 18.75 49.249 18.75C48.8693 18.75 48.5555 18.4678 48.5059 18.1018L48.499 18V17.5C48.499 16.5818 47.7919 15.8288 46.8925 15.7558L46.749 15.75H46.249C45.8348 15.75 45.499 15.4142 45.499 15C45.499 14.6203 45.7812 14.3065 46.1473 14.2568L46.249 14.25H46.749Z" fill="#F1F1F1"/>
</g>
<path d="M67.2614 29H65.3977L69.5852 17.3636H71.6136L75.8011 29H73.9375L70.6477 19.4773H70.5568L67.2614 29ZM67.5739 24.4432H73.6193V25.9205H67.5739V24.4432ZM77.3452 32.2727V20.2727H79.0043V21.6875H79.1463C79.2448 21.5057 79.3868 21.2955 79.5724 21.0568C79.758 20.8182 80.0156 20.6098 80.3452 20.4318C80.6747 20.25 81.1103 20.1591 81.652 20.1591C82.3565 20.1591 82.9853 20.3371 83.5384 20.6932C84.0914 21.0492 84.5251 21.5625 84.8395 22.233C85.1577 22.9034 85.3168 23.7102 85.3168 24.6534C85.3168 25.5966 85.1596 26.4053 84.8452 27.0795C84.5308 27.75 84.099 28.267 83.5497 28.6307C83.0005 28.9905 82.3736 29.1705 81.669 29.1705C81.1387 29.1705 80.705 29.0814 80.3679 28.9034C80.0346 28.7254 79.7732 28.517 79.5838 28.2784C79.3944 28.0398 79.2486 27.8277 79.1463 27.642H79.044V32.2727H77.3452ZM79.0099 24.6364C79.0099 25.25 79.099 25.7879 79.277 26.25C79.455 26.7121 79.7126 27.0739 80.0497 27.3352C80.3868 27.5928 80.7997 27.7216 81.2884 27.7216C81.7959 27.7216 82.2202 27.5871 82.5611 27.3182C82.902 27.0455 83.1596 26.6761 83.3338 26.2102C83.5118 25.7443 83.6009 25.2197 83.6009 24.6364C83.6009 24.0606 83.5137 23.5436 83.3395 23.0852C83.169 22.6269 82.9115 22.2652 82.5668 22C82.2259 21.7348 81.7997 21.6023 81.2884 21.6023C80.7959 21.6023 80.3793 21.7292 80.0384 21.983C79.7012 22.2367 79.4455 22.5909 79.2713 23.0455C79.0971 23.5 79.0099 24.0303 79.0099 24.6364ZM87.2202 32.2727V20.2727H88.8793V21.6875H89.0213C89.1198 21.5057 89.2618 21.2955 89.4474 21.0568C89.633 20.8182 89.8906 20.6098 90.2202 20.4318C90.5497 20.25 90.9853 20.1591 91.527 20.1591C92.2315 20.1591 92.8603 20.3371 93.4134 20.6932C93.9664 21.0492 94.4001 21.5625 94.7145 22.233C95.0327 22.9034 95.1918 23.7102 95.1918 24.6534C95.1918 25.5966 95.0346 26.4053 94.7202 27.0795C94.4058 27.75 93.974 28.267 93.4247 28.6307C92.8755 28.9905 92.2486 29.1705 91.544 29.1705C91.0137 29.1705 90.58 29.0814 90.2429 28.9034C89.9096 28.7254 89.6482 28.517 89.4588 28.2784C89.2694 28.0398 89.1236 27.8277 89.0213 27.642H88.919V32.2727H87.2202ZM88.8849 24.6364C88.8849 25.25 88.974 25.7879 89.152 26.25C89.33 26.7121 89.5876 27.0739 89.9247 27.3352C90.2618 27.5928 90.6747 27.7216 91.1634 27.7216C91.6709 27.7216 92.0952 27.5871 92.4361 27.3182C92.777 27.0455 93.0346 26.6761 93.2088 26.2102C93.3868 25.7443 93.4759 25.2197 93.4759 24.6364C93.4759 24.0606 93.3887 23.5436 93.2145 23.0852C93.044 22.6269 92.7865 22.2652 92.4418 22C92.1009 21.7348 91.6747 21.6023 91.1634 21.6023C90.6709 21.6023 90.2543 21.7292 89.9134 21.983C89.5762 22.2367 89.3205 22.5909 89.1463 23.0455C88.9721 23.5 88.8849 24.0303 88.8849 24.6364ZM98.794 17.3636V29H97.0952V17.3636H98.794ZM104.841 29.1761C103.981 29.1761 103.241 28.9924 102.619 28.625C102.002 28.2538 101.525 27.733 101.188 27.0625C100.854 26.3883 100.688 25.5985 100.688 24.6932C100.688 23.7992 100.854 23.0114 101.188 22.3295C101.525 21.6477 101.994 21.1155 102.597 20.733C103.203 20.3504 103.911 20.1591 104.722 20.1591C105.214 20.1591 105.691 20.2405 106.153 20.4034C106.616 20.5663 107.03 20.822 107.398 21.1705C107.765 21.5189 108.055 21.9716 108.267 22.5284C108.479 23.0814 108.585 23.7538 108.585 24.5455V25.1477H101.648V23.875H106.92C106.92 23.428 106.83 23.0322 106.648 22.6875C106.466 22.339 106.21 22.0644 105.881 21.8636C105.555 21.6629 105.172 21.5625 104.733 21.5625C104.256 21.5625 103.839 21.6799 103.483 21.9148C103.131 22.1458 102.858 22.4489 102.665 22.8239C102.475 23.1951 102.381 23.5985 102.381 24.0341V25.0284C102.381 25.6117 102.483 26.108 102.688 26.517C102.896 26.9261 103.186 27.2386 103.557 27.4545C103.928 27.6667 104.362 27.7727 104.858 27.7727C105.18 27.7727 105.473 27.7273 105.739 27.6364C106.004 27.5417 106.233 27.4015 106.426 27.2159C106.619 27.0303 106.767 26.8011 106.869 26.5284L108.477 26.8182C108.348 27.2917 108.117 27.7064 107.784 28.0625C107.455 28.4148 107.04 28.6894 106.54 28.8864C106.044 29.0795 105.477 29.1761 104.841 29.1761Z" fill="#F1F1F1"/>
<rect width="143" height="44" transform="translate(145 1)" fill="#223B50"/>
<g clip-path="url(#clip2_281_18421)">
<path d="M193.705 13.293H192.759C191.793 13.293 191.009 14.0765 191.009 15.043V15.3968C191.009 16.7176 190.728 18.0229 190.184 19.2257L190.022 19.5639C188.924 21.7602 187.221 23.6141 185.115 24.9018L184.769 25.1058C182.787 26.2383 180.533 26.8369 178.24 26.8369H178.06C177.288 26.8369 176.598 27.3207 176.335 28.0469C176.1 28.6964 176.25 29.4211 176.719 29.9233L176.851 30.0496C179.337 32.123 182.524 33.057 185.693 32.6609C187.801 32.3974 189.795 31.556 191.454 30.2307L191.75 29.9852C194.614 27.5304 196.094 23.8462 195.728 20.1093L195.69 19.7707C195.533 18.5558 195.455 17.3434 195.455 16.1299V15.043C195.455 14.0765 194.672 13.293 193.705 13.293ZM192.759 14.793H193.705C193.844 14.793 193.955 14.9049 193.955 15.043V16.1299C193.955 17.152 194.008 18.1733 194.112 19.1897L194.236 20.2669C194.553 23.5056 193.267 26.7101 190.784 28.8379L190.507 29.067C189.074 30.2115 187.34 30.9433 185.507 31.1725C182.75 31.5171 179.978 30.7047 177.846 28.9283L177.782 28.8662C177.73 28.8081 177.703 28.6759 177.746 28.5575C177.794 28.4251 177.919 28.3369 178.06 28.3369H178.24C180.794 28.3369 183.305 27.6702 185.523 26.4026L185.888 26.1873C188.243 24.7474 190.14 22.6824 191.37 20.2216L191.544 19.8572C192.182 18.447 192.509 16.9309 192.509 15.3968V15.043C192.509 14.9049 192.621 14.793 192.759 14.793Z" fill="#F1F1F1"/>
<path d="M190.998 16.2353C191.145 15.8478 191.577 15.6522 191.965 15.7985C192.353 15.9448 192.548 16.3775 192.402 16.7651C191.956 17.9458 191.251 19.0112 190.341 19.8797C188.8 21.368 186.876 22.3952 184.799 22.8476L184.093 22.9883C182.312 23.31 180.477 23.1614 178.771 22.5577L178.71 22.5424C178.702 22.541 178.694 22.5403 178.688 22.5402C178.597 22.5411 178.514 22.5906 178.469 22.6699C178.425 22.7493 178.426 22.8463 178.474 22.9251C179.359 24.4048 180.785 25.477 182.446 25.9205L182.725 25.9886L183.035 26.0586C183.439 26.1499 183.693 26.5514 183.602 26.9554C183.518 27.3258 183.174 27.5697 182.806 27.5375L182.705 27.5218L182.398 27.4525C180.218 26.9703 178.333 25.6113 177.187 23.6962C176.864 23.1573 176.853 22.4864 177.16 21.9378C177.467 21.3892 178.044 21.0467 178.689 21.0402C178.886 21.0425 179.082 21.0771 179.27 21.1432C180.619 21.6206 182.061 21.7656 183.463 21.5706L183.813 21.5148L184.126 21.4522C186.075 21.0988 187.875 20.1761 189.302 18.7977C190.052 18.0815 190.632 17.2058 190.998 16.2353Z" fill="#F1F1F1"/>
</g>
<path d="M203.278 29V17.3636H207.54C208.366 17.3636 209.049 17.5 209.591 17.7727C210.133 18.0417 210.538 18.4072 210.807 18.8693C211.076 19.3277 211.21 19.8447 211.21 20.4205C211.21 20.9053 211.121 21.3144 210.943 21.6477C210.765 21.9773 210.527 22.2424 210.227 22.4432C209.932 22.6402 209.606 22.7841 209.25 22.875V22.9886C209.636 23.0076 210.013 23.1326 210.381 23.3636C210.752 23.5909 211.059 23.9148 211.301 24.3352C211.544 24.7557 211.665 25.267 211.665 25.8693C211.665 26.464 211.525 26.9981 211.244 27.4716C210.968 27.9413 210.54 28.3144 209.96 28.5909C209.381 28.8636 208.64 29 207.739 29H203.278ZM205.034 27.4943H207.568C208.409 27.4943 209.011 27.3314 209.375 27.0057C209.739 26.6799 209.92 26.2727 209.92 25.7841C209.92 25.4167 209.828 25.0795 209.642 24.7727C209.456 24.4659 209.191 24.2216 208.847 24.0398C208.506 23.858 208.1 23.767 207.631 23.767H205.034V27.4943ZM205.034 22.3977H207.386C207.78 22.3977 208.134 22.322 208.449 22.1705C208.767 22.0189 209.019 21.8068 209.205 21.5341C209.394 21.2576 209.489 20.9318 209.489 20.5568C209.489 20.0758 209.32 19.6723 208.983 19.3466C208.646 19.0208 208.129 18.858 207.432 18.858H205.034V22.3977ZM216.151 29.1932C215.598 29.1932 215.098 29.0909 214.651 28.8864C214.204 28.678 213.849 28.3769 213.588 27.983C213.33 27.589 213.202 27.1061 213.202 26.5341C213.202 26.0417 213.296 25.6364 213.486 25.3182C213.675 25 213.931 24.7481 214.253 24.5625C214.575 24.3769 214.935 24.2367 215.332 24.142C215.73 24.0473 216.135 23.9754 216.548 23.9261C217.071 23.8655 217.495 23.8163 217.821 23.7784C218.147 23.7367 218.384 23.6705 218.531 23.5795C218.679 23.4886 218.753 23.3409 218.753 23.1364V23.0966C218.753 22.6004 218.613 22.2159 218.332 21.9432C218.056 21.6705 217.643 21.5341 217.094 21.5341C216.522 21.5341 216.071 21.661 215.741 21.9148C215.416 22.1648 215.19 22.4432 215.065 22.75L213.469 22.3864C213.658 21.8561 213.935 21.428 214.298 21.1023C214.666 20.7727 215.088 20.5341 215.565 20.3864C216.043 20.2348 216.545 20.1591 217.071 20.1591C217.42 20.1591 217.789 20.2008 218.179 20.2841C218.573 20.3636 218.94 20.5114 219.281 20.7273C219.626 20.9432 219.908 21.2519 220.128 21.6534C220.348 22.0511 220.457 22.5682 220.457 23.2045V29H218.798V27.8068H218.73C218.62 28.0265 218.455 28.2424 218.236 28.4545C218.016 28.6667 217.734 28.8428 217.389 28.983C217.045 29.1231 216.632 29.1932 216.151 29.1932ZM216.52 27.8295C216.99 27.8295 217.391 27.7367 217.724 27.5511C218.062 27.3655 218.317 27.1231 218.491 26.8239C218.67 26.5208 218.759 26.197 218.759 25.8523V24.7273C218.698 24.7879 218.58 24.8447 218.406 24.8977C218.236 24.947 218.041 24.9905 217.821 25.0284C217.601 25.0625 217.387 25.0947 217.179 25.125C216.971 25.1515 216.796 25.1742 216.656 25.1932C216.327 25.2348 216.026 25.3049 215.753 25.4034C215.484 25.5019 215.268 25.6439 215.105 25.8295C214.946 26.0114 214.866 26.2538 214.866 26.5568C214.866 26.9773 215.022 27.2955 215.332 27.5114C215.643 27.7235 216.039 27.8295 216.52 27.8295ZM224.419 23.8182V29H222.72V20.2727H224.351V21.6932H224.459C224.66 21.2311 224.974 20.8598 225.402 20.5795C225.834 20.2992 226.377 20.1591 227.033 20.1591C227.627 20.1591 228.148 20.2841 228.595 20.5341C229.042 20.7803 229.389 21.1477 229.635 21.6364C229.881 22.125 230.004 22.7292 230.004 23.4489V29H228.305V23.6534C228.305 23.0208 228.141 22.5265 227.811 22.1705C227.482 21.8106 227.029 21.6307 226.453 21.6307C226.059 21.6307 225.709 21.7159 225.402 21.8864C225.099 22.0568 224.858 22.3068 224.68 22.6364C224.506 22.9621 224.419 23.3561 224.419 23.8182ZM234.822 29.1932C234.269 29.1932 233.769 29.0909 233.322 28.8864C232.875 28.678 232.521 28.3769 232.26 27.983C232.002 27.589 231.874 27.1061 231.874 26.5341C231.874 26.0417 231.968 25.6364 232.158 25.3182C232.347 25 232.603 24.7481 232.925 24.5625C233.247 24.3769 233.607 24.2367 234.004 24.142C234.402 24.0473 234.807 23.9754 235.22 23.9261C235.743 23.8655 236.167 23.8163 236.493 23.7784C236.819 23.7367 237.055 23.6705 237.203 23.5795C237.351 23.4886 237.425 23.3409 237.425 23.1364V23.0966C237.425 22.6004 237.285 22.2159 237.004 21.9432C236.728 21.6705 236.315 21.5341 235.766 21.5341C235.194 21.5341 234.743 21.661 234.413 21.9148C234.088 22.1648 233.862 22.4432 233.737 22.75L232.141 22.3864C232.33 21.8561 232.607 21.428 232.97 21.1023C233.338 20.7727 233.76 20.5341 234.237 20.3864C234.714 20.2348 235.216 20.1591 235.743 20.1591C236.091 20.1591 236.461 20.2008 236.851 20.2841C237.245 20.3636 237.612 20.5114 237.953 20.7273C238.298 20.9432 238.58 21.2519 238.8 21.6534C239.019 22.0511 239.129 22.5682 239.129 23.2045V29H237.47V27.8068H237.402C237.292 28.0265 237.127 28.2424 236.908 28.4545C236.688 28.6667 236.406 28.8428 236.061 28.983C235.716 29.1231 235.304 29.1932 234.822 29.1932ZM235.192 27.8295C235.661 27.8295 236.063 27.7367 236.396 27.5511C236.733 27.3655 236.989 27.1231 237.163 26.8239C237.341 26.5208 237.43 26.197 237.43 25.8523V24.7273C237.37 24.7879 237.252 24.8447 237.078 24.8977C236.908 24.947 236.713 24.9905 236.493 25.0284C236.273 25.0625 236.059 25.0947 235.851 25.125C235.643 25.1515 235.468 25.1742 235.328 25.1932C234.999 25.2348 234.697 25.3049 234.425 25.4034C234.156 25.5019 233.94 25.6439 233.777 25.8295C233.618 26.0114 233.538 26.2538 233.538 26.5568C233.538 26.9773 233.694 27.2955 234.004 27.5114C234.315 27.7235 234.711 27.8295 235.192 27.8295ZM243.091 23.8182V29H241.392V20.2727H243.023V21.6932H243.131C243.331 21.2311 243.646 20.8598 244.074 20.5795C244.506 20.2992 245.049 20.1591 245.705 20.1591C246.299 20.1591 246.82 20.2841 247.267 20.5341C247.714 20.7803 248.061 21.1477 248.307 21.6364C248.553 22.125 248.676 22.7292 248.676 23.4489V29H246.977V23.6534C246.977 23.0208 246.813 22.5265 246.483 22.1705C246.153 21.8106 245.701 21.6307 245.125 21.6307C244.731 21.6307 244.381 21.7159 244.074 21.8864C243.771 22.0568 243.53 22.3068 243.352 22.6364C243.178 22.9621 243.091 23.3561 243.091 23.8182ZM253.494 29.1932C252.941 29.1932 252.441 29.0909 251.994 28.8864C251.547 28.678 251.193 28.3769 250.932 27.983C250.674 27.589 250.545 27.1061 250.545 26.5341C250.545 26.0417 250.64 25.6364 250.83 25.3182C251.019 25 251.275 24.7481 251.597 24.5625C251.919 24.3769 252.278 24.2367 252.676 24.142C253.074 24.0473 253.479 23.9754 253.892 23.9261C254.415 23.8655 254.839 23.8163 255.165 23.7784C255.491 23.7367 255.727 23.6705 255.875 23.5795C256.023 23.4886 256.097 23.3409 256.097 23.1364V23.0966C256.097 22.6004 255.956 22.2159 255.676 21.9432C255.4 21.6705 254.987 21.5341 254.438 21.5341C253.866 21.5341 253.415 21.661 253.085 21.9148C252.759 22.1648 252.534 22.4432 252.409 22.75L250.812 22.3864C251.002 21.8561 251.278 21.428 251.642 21.1023C252.009 20.7727 252.432 20.5341 252.909 20.3864C253.386 20.2348 253.888 20.1591 254.415 20.1591C254.763 20.1591 255.133 20.2008 255.523 20.2841C255.917 20.3636 256.284 20.5114 256.625 20.7273C256.97 20.9432 257.252 21.2519 257.472 21.6534C257.691 22.0511 257.801 22.5682 257.801 23.2045V29H256.142V27.8068H256.074C255.964 28.0265 255.799 28.2424 255.58 28.4545C255.36 28.6667 255.078 28.8428 254.733 28.983C254.388 29.1231 253.975 29.1932 253.494 29.1932ZM253.864 27.8295C254.333 27.8295 254.735 27.7367 255.068 27.5511C255.405 27.3655 255.661 27.1231 255.835 26.8239C256.013 26.5208 256.102 26.197 256.102 25.8523V24.7273C256.042 24.7879 255.924 24.8447 255.75 24.8977C255.58 24.947 255.384 24.9905 255.165 25.0284C254.945 25.0625 254.731 25.0947 254.523 25.125C254.314 25.1515 254.14 25.1742 254 25.1932C253.67 25.2348 253.369 25.3049 253.097 25.4034C252.828 25.5019 252.612 25.6439 252.449 25.8295C252.29 26.0114 252.21 26.2538 252.21 26.5568C252.21 26.9773 252.366 27.2955 252.676 27.5114C252.987 27.7235 253.383 27.8295 253.864 27.8295Z" fill="#F1F1F1"/>
</g>
<rect x="3.5" y="2.5" width="283" height="41" rx="2.5" stroke="#334A5F" stroke-width="3" shape-rendering="crispEdges"/>
</g>
<defs>
<filter id="filter0_d_281_18421" x="0" y="0" width="290" height="48" filterUnits="userSpaceOnUse" color-interpolation-filters="sRGB">
<feFlood flood-opacity="0" result="BackgroundImageFix"/>
<feColorMatrix in="SourceAlpha" type="matrix" values="0 0 0 0 0 0 0 0 0 0 0 0 0 0 0 0 0 0 127 0" result="hardAlpha"/>
<feOffset dy="1"/>
<feGaussianBlur stdDeviation="1"/>
<feComposite in2="hardAlpha" operator="out"/>
<feColorMatrix type="matrix" values="0 0 0 0 0.0627451 0 0 0 0 0.0941176 0 0 0 0 0.156863 0 0 0 0.05 0"/>
<feBlend mode="normal" in2="BackgroundImageFix" result="effect1_dropShadow_281_18421"/>
<feBlend mode="normal" in="SourceGraphic" in2="effect1_dropShadow_281_18421" result="shape"/>
</filter>
<clipPath id="clip0_281_18421">
<rect x="2" y="1" width="286" height="44" rx="4" fill="white"/>
</clipPath>
<clipPath id="clip1_281_18421">
<rect width="24" height="24" fill="white" transform="translate(37 11)"/>
</clipPath>
<clipPath id="clip2_281_18421">
<rect width="24" height="24" fill="white" transform="translate(174 11)"/>
</clipPath>
</defs>
</svg>
