<svg width="51" height="19" viewBox="0 0 51 19" fill="none" xmlns="http://www.w3.org/2000/svg">
<path d="M5.5 18H0.113636V0.545454H5.73864C7.43182 0.545454 8.88068 0.894886 10.0852 1.59375C11.2898 2.28693 12.2131 3.28409 12.8551 4.58523C13.4972 5.88068 13.8182 7.43182 13.8182 9.23864C13.8182 11.0568 13.4943 12.6222 12.8466 13.9347C12.1989 15.2415 11.2557 16.2472 10.017 16.9517C8.77841 17.6506 7.27273 18 5.5 18ZM2.22727 16.125H5.36364C6.80682 16.125 8.00284 15.8466 8.9517 15.2898C9.90057 14.733 10.608 13.9403 11.0739 12.9119C11.5398 11.8835 11.7727 10.6591 11.7727 9.23864C11.7727 7.82955 11.5426 6.61648 11.0824 5.59943C10.6222 4.5767 9.93466 3.79261 9.01989 3.24716C8.10511 2.69602 6.96591 2.42045 5.60227 2.42045H2.22727V16.125ZM20.9432 18.3068C20.1136 18.3068 19.3608 18.1506 18.6847 17.8381C18.0085 17.5199 17.4716 17.0625 17.0739 16.4659C16.6761 15.8636 16.4773 15.1364 16.4773 14.2841C16.4773 13.5341 16.625 12.9261 16.9205 12.4602C17.2159 11.9886 17.6108 11.6193 18.1051 11.3523C18.5994 11.0852 19.1449 10.8864 19.7415 10.7557C20.3438 10.6193 20.9489 10.5114 21.5568 10.4318C22.3523 10.3295 22.9972 10.2528 23.4915 10.2017C23.9915 10.1449 24.3551 10.0511 24.5824 9.92045C24.8153 9.78977 24.9318 9.5625 24.9318 9.23864V9.17045C24.9318 8.32955 24.7017 7.67614 24.2415 7.21023C23.7869 6.74432 23.0966 6.51136 22.1705 6.51136C21.2102 6.51136 20.4574 6.72159 19.9119 7.14205C19.3665 7.5625 18.983 8.01136 18.7614 8.48864L16.8523 7.80682C17.1932 7.01136 17.6477 6.39205 18.2159 5.94886C18.7898 5.5 19.4148 5.1875 20.0909 5.01136C20.7727 4.82955 21.4432 4.73864 22.1023 4.73864C22.5227 4.73864 23.0057 4.78977 23.5511 4.89204C24.1023 4.98864 24.6335 5.19034 25.1449 5.49716C25.6619 5.80398 26.0909 6.26705 26.4318 6.88636C26.7727 7.50568 26.9432 8.33523 26.9432 9.375V18H24.9318V16.2273H24.8295C24.6932 16.5114 24.4659 16.8153 24.1477 17.1392C23.8295 17.4631 23.4063 17.7386 22.8778 17.9659C22.3494 18.1932 21.7045 18.3068 20.9432 18.3068ZM21.25 16.5C22.0455 16.5 22.7159 16.3438 23.2614 16.0312C23.8125 15.7188 24.2273 15.3153 24.5057 14.821C24.7898 14.3267 24.9318 13.8068 24.9318 13.2614V11.4205C24.8466 11.5227 24.6591 11.6165 24.3693 11.7017C24.0852 11.7812 23.7557 11.8523 23.3807 11.9148C23.0114 11.9716 22.6506 12.0227 22.2983 12.0682C21.9517 12.108 21.6705 12.142 21.4545 12.1705C20.9318 12.2386 20.4432 12.3494 19.9886 12.5028C19.5398 12.6506 19.1761 12.875 18.8977 13.1761C18.625 13.4716 18.4886 13.875 18.4886 14.3864C18.4886 15.0852 18.7472 15.6136 19.2642 15.9716C19.7869 16.3239 20.4489 16.5 21.25 16.5ZM30.6143 18V4.90909H32.5575V6.88636H32.6939C32.9325 6.23864 33.3643 5.71307 33.9893 5.30966C34.6143 4.90625 35.3189 4.70454 36.103 4.70454C36.2507 4.70454 36.4354 4.70739 36.657 4.71307C36.8786 4.71875 37.0462 4.72727 37.1598 4.73864V6.78409C37.0916 6.76705 36.9354 6.74148 36.6911 6.70739C36.4524 6.66761 36.1996 6.64773 35.9325 6.64773C35.2962 6.64773 34.728 6.78125 34.228 7.0483C33.7337 7.30966 33.3416 7.6733 33.0518 8.1392C32.7678 8.59943 32.6257 9.125 32.6257 9.71591V18H30.6143ZM41.419 13.2273L41.3849 10.7386H41.794L47.5213 4.90909H50.0099L43.9077 11.0795H43.7372L41.419 13.2273ZM39.544 18V0.545454H41.5554V18H39.544ZM47.8622 18L42.7486 11.5227L44.1804 10.125L50.419 18H47.8622Z" fill="#F1F1F1"/>
</svg>
