<svg width="191" height="24" viewBox="0 0 191 24" fill="none" xmlns="http://www.w3.org/2000/svg">
<path d="M5.5 18H0.113636V0.545454H5.73864C7.43182 0.545454 8.88068 0.894886 10.0852 1.59375C11.2898 2.28693 12.2131 3.28409 12.8551 4.58523C13.4972 5.88068 13.8182 7.43182 13.8182 9.23864C13.8182 11.0568 13.4943 12.6222 12.8466 13.9347C12.1989 15.2415 11.2557 16.2472 10.017 16.9517C8.77841 17.6506 7.27273 18 5.5 18ZM2.22727 16.125H5.36364C6.80682 16.125 8.00284 15.8466 8.9517 15.2898C9.90057 14.733 10.608 13.9403 11.0739 12.9119C11.5398 11.8835 11.7727 10.6591 11.7727 9.23864C11.7727 7.82955 11.5426 6.61648 11.0824 5.59943C10.6222 4.5767 9.93466 3.79261 9.01989 3.24716C8.10511 2.69602 6.96591 2.42045 5.60227 2.42045H2.22727V16.125ZM20.9432 18.3068C20.1136 18.3068 19.3608 18.1506 18.6847 17.8381C18.0085 17.5199 17.4716 17.0625 17.0739 16.4659C16.6761 15.8636 16.4773 15.1364 16.4773 14.2841C16.4773 13.5341 16.625 12.9261 16.9205 12.4602C17.2159 11.9886 17.6108 11.6193 18.1051 11.3523C18.5994 11.0852 19.1449 10.8864 19.7415 10.7557C20.3438 10.6193 20.9489 10.5114 21.5568 10.4318C22.3523 10.3295 22.9972 10.2528 23.4915 10.2017C23.9915 10.1449 24.3551 10.0511 24.5824 9.92045C24.8153 9.78977 24.9318 9.5625 24.9318 9.23864V9.17045C24.9318 8.32955 24.7017 7.67614 24.2415 7.21023C23.7869 6.74432 23.0966 6.51136 22.1705 6.51136C21.2102 6.51136 20.4574 6.72159 19.9119 7.14205C19.3665 7.5625 18.983 8.01136 18.7614 8.48864L16.8523 7.80682C17.1932 7.01136 17.6477 6.39205 18.2159 5.94886C18.7898 5.5 19.4148 5.1875 20.0909 5.01136C20.7727 4.82955 21.4432 4.73864 22.1023 4.73864C22.5227 4.73864 23.0057 4.78977 23.5511 4.89204C24.1023 4.98864 24.6335 5.19034 25.1449 5.49716C25.6619 5.80398 26.0909 6.26705 26.4318 6.88636C26.7727 7.50568 26.9432 8.33523 26.9432 9.375V18H24.9318V16.2273H24.8295C24.6932 16.5114 24.4659 16.8153 24.1477 17.1392C23.8295 17.4631 23.4063 17.7386 22.8778 17.9659C22.3494 18.1932 21.7045 18.3068 20.9432 18.3068ZM21.25 16.5C22.0455 16.5 22.7159 16.3438 23.2614 16.0312C23.8125 15.7188 24.2273 15.3153 24.5057 14.821C24.7898 14.3267 24.9318 13.8068 24.9318 13.2614V11.4205C24.8466 11.5227 24.6591 11.6165 24.3693 11.7017C24.0852 11.7812 23.7557 11.8523 23.3807 11.9148C23.0114 11.9716 22.6506 12.0227 22.2983 12.0682C21.9517 12.108 21.6705 12.142 21.4545 12.1705C20.9318 12.2386 20.4432 12.3494 19.9886 12.5028C19.5398 12.6506 19.1761 12.875 18.8977 13.1761C18.625 13.4716 18.4886 13.875 18.4886 14.3864C18.4886 15.0852 18.7472 15.6136 19.2642 15.9716C19.7869 16.3239 20.4489 16.5 21.25 16.5ZM30.6143 18V4.90909H32.5575V6.88636H32.6939C32.9325 6.23864 33.3643 5.71307 33.9893 5.30966C34.6143 4.90625 35.3189 4.70454 36.103 4.70454C36.2507 4.70454 36.4354 4.70739 36.657 4.71307C36.8786 4.71875 37.0462 4.72727 37.1598 4.73864V6.78409C37.0916 6.76705 36.9354 6.74148 36.6911 6.70739C36.4524 6.66761 36.1996 6.64773 35.9325 6.64773C35.2962 6.64773 34.728 6.78125 34.228 7.0483C33.7337 7.30966 33.3416 7.6733 33.0518 8.1392C32.7678 8.59943 32.6257 9.125 32.6257 9.71591V18H30.6143ZM41.419 13.2273L41.3849 10.7386H41.794L47.5213 4.90909H50.0099L43.9077 11.0795H43.7372L41.419 13.2273ZM39.544 18V0.545454H41.5554V18H39.544ZM47.8622 18L42.7486 11.5227L44.1804 10.125L50.419 18H47.8622ZM59.6214 18V0.545454H65.7237C66.9396 0.545454 67.9425 0.755682 68.7322 1.17614C69.522 1.59091 70.1101 2.15057 70.4964 2.85511C70.8828 3.55398 71.076 4.32954 71.076 5.18182C71.076 5.93182 70.9425 6.55114 70.6754 7.03977C70.4141 7.52841 70.0675 7.91477 69.6357 8.19886C69.2095 8.48295 68.7464 8.69318 68.2464 8.82955V9C68.7805 9.03409 69.3175 9.22159 69.8572 9.5625C70.397 9.90341 70.8487 10.392 71.2124 11.0284C71.576 11.6648 71.7578 12.4432 71.7578 13.3636C71.7578 14.2386 71.5589 15.0256 71.1612 15.7244C70.7635 16.4233 70.1357 16.9773 69.2777 17.3864C68.4197 17.7955 67.3033 18 65.9283 18H59.6214ZM61.7351 16.125H65.9283C67.3089 16.125 68.2891 15.858 68.8686 15.3239C69.4538 14.7841 69.7464 14.1307 69.7464 13.3636C69.7464 12.7727 69.5959 12.2273 69.2947 11.7273C68.9936 11.2216 68.5646 10.8182 68.0078 10.517C67.451 10.2102 66.7919 10.0568 66.0305 10.0568H61.7351V16.125ZM61.7351 8.21591H65.6555C66.2919 8.21591 66.8658 8.09091 67.3771 7.84091C67.8942 7.59091 68.3033 7.23864 68.6044 6.78409C68.9112 6.32955 69.0646 5.79545 69.0646 5.18182C69.0646 4.41477 68.7976 3.7642 68.2635 3.23011C67.7294 2.69034 66.8828 2.42045 65.7237 2.42045H61.7351V8.21591ZM78.8104 18.3068C77.9808 18.3068 77.228 18.1506 76.5518 17.8381C75.8757 17.5199 75.3388 17.0625 74.9411 16.4659C74.5433 15.8636 74.3445 15.1364 74.3445 14.2841C74.3445 13.5341 74.4922 12.9261 74.7876 12.4602C75.0831 11.9886 75.478 11.6193 75.9723 11.3523C76.4666 11.0852 77.0121 10.8864 77.6087 10.7557C78.2109 10.6193 78.8161 10.5114 79.424 10.4318C80.2195 10.3295 80.8643 10.2528 81.3587 10.2017C81.8587 10.1449 82.2223 10.0511 82.4496 9.92045C82.6825 9.78977 82.799 9.5625 82.799 9.23864V9.17045C82.799 8.32955 82.5689 7.67614 82.1087 7.21023C81.6541 6.74432 80.9638 6.51136 80.0376 6.51136C79.0774 6.51136 78.3246 6.72159 77.7791 7.14205C77.2337 7.5625 76.8501 8.01136 76.6286 8.48864L74.7195 7.80682C75.0604 7.01136 75.5149 6.39205 76.0831 5.94886C76.657 5.5 77.282 5.1875 77.9581 5.01136C78.6399 4.82955 79.3104 4.73864 79.9695 4.73864C80.3899 4.73864 80.8729 4.78977 81.4183 4.89204C81.9695 4.98864 82.5007 5.19034 83.0121 5.49716C83.5291 5.80398 83.9581 6.26705 84.299 6.88636C84.6399 7.50568 84.8104 8.33523 84.8104 9.375V18H82.799V16.2273H82.6967C82.5604 16.5114 82.3331 16.8153 82.0149 17.1392C81.6967 17.4631 81.2734 17.7386 80.745 17.9659C80.2166 18.1932 79.5717 18.3068 78.8104 18.3068ZM79.1172 16.5C79.9126 16.5 80.5831 16.3438 81.1286 16.0312C81.6797 15.7188 82.0945 15.3153 82.3729 14.821C82.657 14.3267 82.799 13.8068 82.799 13.2614V11.4205C82.7138 11.5227 82.5263 11.6165 82.2365 11.7017C81.9524 11.7812 81.6229 11.8523 81.2479 11.9148C80.8786 11.9716 80.5178 12.0227 80.1655 12.0682C79.8189 12.108 79.5376 12.142 79.3217 12.1705C78.799 12.2386 78.3104 12.3494 77.8558 12.5028C77.407 12.6506 77.0433 12.875 76.7649 13.1761C76.4922 13.4716 76.3558 13.875 76.3558 14.3864C76.3558 15.0852 76.6143 15.6136 77.1314 15.9716C77.6541 16.3239 78.3161 16.5 79.1172 16.5ZM93.7997 18.2727C92.5724 18.2727 91.5156 17.983 90.6293 17.4034C89.7429 16.8239 89.0611 16.0256 88.5838 15.0085C88.1065 13.9915 87.8679 12.8295 87.8679 11.5227C87.8679 10.1932 88.1122 9.01989 88.6009 8.00284C89.0952 6.98011 89.7827 6.18182 90.6634 5.60795C91.5497 5.02841 92.5838 4.73864 93.7656 4.73864C94.6861 4.73864 95.5156 4.90909 96.2543 5.25C96.9929 5.59091 97.598 6.06818 98.0696 6.68182C98.5412 7.29545 98.8338 8.01136 98.9474 8.82955H96.9361C96.7827 8.23295 96.4418 7.70455 95.9134 7.24432C95.3906 6.77841 94.6861 6.54545 93.7997 6.54545C93.0156 6.54545 92.3281 6.75 91.7372 7.15909C91.152 7.5625 90.6946 8.13352 90.3651 8.87216C90.0412 9.60511 89.8793 10.4659 89.8793 11.4545C89.8793 12.4659 90.0384 13.3466 90.3565 14.0966C90.6804 14.8466 91.1349 15.429 91.7202 15.8438C92.3111 16.2585 93.0043 16.4659 93.7997 16.4659C94.3224 16.4659 94.7969 16.375 95.223 16.1932C95.6491 16.0114 96.0099 15.75 96.3054 15.4091C96.6009 15.0682 96.8111 14.6591 96.9361 14.1818H98.9474C98.8338 14.9545 98.5526 15.6506 98.1037 16.2699C97.6605 16.8835 97.0724 17.3722 96.3395 17.7358C95.6122 18.0938 94.7656 18.2727 93.7997 18.2727ZM103.763 13.2273L103.729 10.7386H104.138L109.865 4.90909H112.354L106.251 11.0795H106.081L103.763 13.2273ZM101.888 18V0.545454H103.899V18H101.888ZM110.206 18L105.092 11.5227L106.524 10.125L112.763 18H110.206ZM119.688 23.1818C118.716 23.1818 117.881 23.0568 117.182 22.8068C116.483 22.5625 115.901 22.2386 115.435 21.8352C114.974 21.4375 114.608 21.0114 114.335 20.5568L115.938 19.4318C116.119 19.6705 116.349 19.9432 116.628 20.25C116.906 20.5625 117.287 20.8324 117.77 21.0597C118.259 21.2926 118.898 21.4091 119.688 21.4091C120.744 21.4091 121.616 21.1534 122.304 20.642C122.991 20.1307 123.335 19.3295 123.335 18.2386V15.5795H123.165C123.017 15.8182 122.807 16.1136 122.534 16.4659C122.267 16.8125 121.881 17.1222 121.375 17.3949C120.875 17.6619 120.199 17.7955 119.347 17.7955C118.29 17.7955 117.341 17.5455 116.5 17.0455C115.665 16.5455 115.003 15.8182 114.514 14.8636C114.031 13.9091 113.79 12.75 113.79 11.3864C113.79 10.0455 114.026 8.87784 114.497 7.88352C114.969 6.88352 115.625 6.1108 116.466 5.56534C117.307 5.0142 118.278 4.73864 119.381 4.73864C120.233 4.73864 120.909 4.88068 121.409 5.16477C121.915 5.44318 122.301 5.76136 122.568 6.11932C122.841 6.47159 123.051 6.76136 123.199 6.98864H123.403V4.90909H125.347V18.375C125.347 19.5 125.091 20.4148 124.58 21.1193C124.074 21.8295 123.392 22.3494 122.534 22.679C121.682 23.0142 120.733 23.1818 119.688 23.1818ZM119.619 15.9886C120.426 15.9886 121.108 15.804 121.665 15.4347C122.222 15.0653 122.645 14.5341 122.935 13.8409C123.224 13.1477 123.369 12.3182 123.369 11.3523C123.369 10.4091 123.227 9.5767 122.943 8.85511C122.659 8.13352 122.239 7.56818 121.682 7.15909C121.125 6.75 120.438 6.54545 119.619 6.54545C118.767 6.54545 118.057 6.76136 117.489 7.19318C116.926 7.625 116.503 8.20455 116.219 8.93182C115.94 9.65909 115.801 10.4659 115.801 11.3523C115.801 12.2614 115.943 13.0653 116.227 13.7642C116.517 14.4574 116.943 15.0028 117.506 15.4006C118.074 15.7926 118.778 15.9886 119.619 15.9886ZM129.028 18V4.90909H130.972V6.88636H131.108C131.347 6.23864 131.778 5.71307 132.403 5.30966C133.028 4.90625 133.733 4.70454 134.517 4.70454C134.665 4.70454 134.849 4.70739 135.071 4.71307C135.293 4.71875 135.46 4.72727 135.574 4.73864V6.78409C135.506 6.76705 135.349 6.74148 135.105 6.70739C134.866 6.66761 134.614 6.64773 134.347 6.64773C133.71 6.64773 133.142 6.78125 132.642 7.0483C132.148 7.30966 131.756 7.6733 131.466 8.1392C131.182 8.59943 131.04 9.125 131.04 9.71591V18H129.028ZM142.878 18.2727C141.696 18.2727 140.659 17.9915 139.767 17.429C138.881 16.8665 138.188 16.0795 137.688 15.0682C137.193 14.0568 136.946 12.875 136.946 11.5227C136.946 10.1591 137.193 8.96875 137.688 7.9517C138.188 6.93466 138.881 6.14489 139.767 5.58239C140.659 5.01989 141.696 4.73864 142.878 4.73864C144.06 4.73864 145.094 5.01989 145.98 5.58239C146.872 6.14489 147.565 6.93466 148.06 7.9517C148.56 8.96875 148.81 10.1591 148.81 11.5227C148.81 12.875 148.56 14.0568 148.06 15.0682C147.565 16.0795 146.872 16.8665 145.98 17.429C145.094 17.9915 144.06 18.2727 142.878 18.2727ZM142.878 16.4659C143.776 16.4659 144.514 16.2358 145.094 15.7756C145.673 15.3153 146.102 14.7102 146.381 13.9602C146.659 13.2102 146.798 12.3977 146.798 11.5227C146.798 10.6477 146.659 9.83239 146.381 9.0767C146.102 8.32102 145.673 7.71023 145.094 7.24432C144.514 6.77841 143.776 6.54545 142.878 6.54545C141.98 6.54545 141.241 6.77841 140.662 7.24432C140.082 7.71023 139.653 8.32102 139.375 9.0767C139.097 9.83239 138.957 10.6477 138.957 11.5227C138.957 12.3977 139.097 13.2102 139.375 13.9602C139.653 14.7102 140.082 15.3153 140.662 15.7756C141.241 16.2358 141.98 16.4659 142.878 16.4659ZM160.13 12.6477V4.90909H162.141V18H160.13V15.7841H159.994C159.687 16.4489 159.21 17.0142 158.562 17.4801C157.914 17.9403 157.096 18.1705 156.107 18.1705C155.289 18.1705 154.562 17.9915 153.925 17.6335C153.289 17.2699 152.789 16.7244 152.425 15.9972C152.062 15.2642 151.88 14.3409 151.88 13.2273V4.90909H153.891V13.0909C153.891 14.0455 154.158 14.8068 154.692 15.375C155.232 15.9432 155.92 16.2273 156.755 16.2273C157.255 16.2273 157.763 16.0994 158.281 15.8438C158.803 15.5881 159.241 15.196 159.593 14.6676C159.951 14.1392 160.13 13.4659 160.13 12.6477ZM167.837 10.125V18H165.825V4.90909H167.768V6.95455H167.939C168.246 6.28977 168.712 5.75568 169.337 5.35227C169.962 4.94318 170.768 4.73864 171.757 4.73864C172.643 4.73864 173.419 4.92045 174.084 5.28409C174.749 5.64205 175.266 6.1875 175.635 6.92045C176.004 7.64773 176.189 8.56818 176.189 9.68182V18H174.178V9.81818C174.178 8.78977 173.911 7.98864 173.376 7.41477C172.842 6.83523 172.109 6.54545 171.178 6.54545C170.536 6.54545 169.962 6.68466 169.456 6.96307C168.956 7.24148 168.561 7.64773 168.271 8.18182C167.982 8.71591 167.837 9.36364 167.837 10.125ZM184.808 18.2727C183.717 18.2727 182.754 17.9972 181.918 17.446C181.083 16.8892 180.43 16.1051 179.958 15.0938C179.487 14.0767 179.251 12.875 179.251 11.4886C179.251 10.1136 179.487 8.92045 179.958 7.90909C180.43 6.89773 181.086 6.11648 181.927 5.56534C182.768 5.0142 183.739 4.73864 184.842 4.73864C185.694 4.73864 186.367 4.88068 186.862 5.16477C187.362 5.44318 187.742 5.76136 188.004 6.11932C188.271 6.47159 188.478 6.76136 188.626 6.98864H188.796V0.545454H190.808V18H188.864V15.9886H188.626C188.478 16.2273 188.268 16.5284 187.995 16.892C187.722 17.25 187.333 17.571 186.827 17.8551C186.322 18.1335 185.648 18.2727 184.808 18.2727ZM185.08 16.4659C185.887 16.4659 186.569 16.2557 187.126 15.8352C187.683 15.4091 188.106 14.821 188.396 14.071C188.685 13.3153 188.83 12.4432 188.83 11.4545C188.83 10.4773 188.688 9.62216 188.404 8.8892C188.12 8.15057 187.7 7.5767 187.143 7.16761C186.586 6.75284 185.898 6.54545 185.08 6.54545C184.228 6.54545 183.518 6.7642 182.95 7.2017C182.387 7.63352 181.964 8.22159 181.68 8.96591C181.401 9.70455 181.262 10.5341 181.262 11.4545C181.262 12.3864 181.404 13.233 181.688 13.9943C181.978 14.75 182.404 15.3523 182.967 15.8011C183.535 16.2443 184.239 16.4659 185.08 16.4659Z" fill="#F1F1F1"/>
</svg>
