<svg width="286" height="349" viewBox="0 0 286 349" fill="none" xmlns="http://www.w3.org/2000/svg">
<path d="M1.11861 14V3.81818H7.43253V5.14062H2.65483V8.2429H6.98011V9.56037H2.65483V14H1.11861ZM9.10671 14V6.36364H10.5435V7.5767H10.623C10.7623 7.16572 11.0075 6.84257 11.3588 6.60724C11.7135 6.36861 12.1145 6.24929 12.562 6.24929C12.6548 6.24929 12.7641 6.2526 12.8901 6.25923C13.0194 6.26586 13.1204 6.27415 13.1934 6.28409V7.70597C13.1337 7.68939 13.0276 7.67116 12.8752 7.65128C12.7227 7.62808 12.5703 7.61648 12.4178 7.61648C12.0665 7.61648 11.7533 7.69105 11.4782 7.8402C11.2064 7.98603 10.9909 8.18987 10.8319 8.4517C10.6728 8.71023 10.5932 9.00521 10.5932 9.33665V14H9.10671ZM19.3171 10.8331V6.36364H20.8086V14H19.3469V12.6776H19.2674C19.0917 13.0852 18.81 13.425 18.4222 13.6967C18.0378 13.9652 17.5588 14.0994 16.9854 14.0994C16.4949 14.0994 16.0607 13.9917 15.6829 13.7763C15.3084 13.5575 15.0134 13.2344 14.7979 12.8068C14.5858 12.3793 14.4798 11.8506 14.4798 11.2209V6.36364H15.9663V11.0419C15.9663 11.5623 16.1104 11.9766 16.3988 12.2848C16.6871 12.593 17.0617 12.7472 17.5224 12.7472C17.8008 12.7472 18.0775 12.6776 18.3526 12.5384C18.631 12.3991 18.8614 12.1887 19.0437 11.907C19.2293 11.6252 19.3204 11.2673 19.3171 10.8331ZM22.8059 14V6.36364H24.2924V14H22.8059ZM23.5566 5.18537C23.2981 5.18537 23.0761 5.09919 22.8904 4.92685C22.7082 4.75118 22.617 4.54238 22.617 4.30043C22.617 4.05516 22.7082 3.84635 22.8904 3.67401C23.0761 3.49834 23.2981 3.41051 23.5566 3.41051C23.8152 3.41051 24.0356 3.49834 24.2179 3.67401C24.4035 3.84635 24.4963 4.05516 24.4963 4.30043C24.4963 4.54238 24.4035 4.75118 24.2179 4.92685C24.0356 5.09919 23.8152 5.18537 23.5566 5.18537ZM29.8569 6.36364V7.55682H25.6857V6.36364H29.8569ZM26.8043 4.53409H28.2908V11.7578C28.2908 12.0462 28.3339 12.2633 28.4201 12.4091C28.5063 12.5516 28.6173 12.6494 28.7532 12.7024C28.8924 12.7521 29.0432 12.777 29.2056 12.777C29.3249 12.777 29.4293 12.7687 29.5188 12.7521C29.6083 12.7356 29.6779 12.7223 29.7276 12.7124L29.9961 13.9403C29.9099 13.9735 29.7873 14.0066 29.6282 14.0398C29.4691 14.0762 29.2702 14.0961 29.0316 14.0994C28.6405 14.1061 28.2759 14.0365 27.9379 13.8906C27.5998 13.7448 27.3263 13.5194 27.1175 13.2145C26.9087 12.9096 26.8043 12.5268 26.8043 12.0661V4.53409ZM37.1005 8.22798L35.7532 8.46662C35.6969 8.29427 35.6074 8.13021 35.4847 7.97443C35.3654 7.81865 35.203 7.69105 34.9975 7.59162C34.792 7.49219 34.5352 7.44247 34.2269 7.44247C33.806 7.44247 33.4547 7.53693 33.1729 7.72585C32.8912 7.91146 32.7504 8.15175 32.7504 8.44673C32.7504 8.70194 32.8448 8.90743 33.0337 9.06321C33.2227 9.21899 33.5276 9.34659 33.9485 9.44602L35.1616 9.72443C35.8642 9.88684 36.3879 10.1371 36.7326 10.4751C37.0773 10.8132 37.2496 11.2524 37.2496 11.7926C37.2496 12.25 37.1171 12.6577 36.8519 13.0156C36.5901 13.3703 36.2238 13.6487 35.7532 13.8509C35.2859 14.053 34.744 14.1541 34.1275 14.1541C33.2724 14.1541 32.5747 13.9718 32.0344 13.6072C31.4942 13.2393 31.1628 12.7173 31.0401 12.0412L32.4769 11.8224C32.5664 12.197 32.7504 12.4804 33.0288 12.6726C33.3072 12.8615 33.6701 12.956 34.1175 12.956C34.6048 12.956 34.9942 12.8549 35.2859 12.6527C35.5775 12.4472 35.7234 12.197 35.7234 11.902C35.7234 11.6634 35.6339 11.4628 35.4549 11.3004C35.2792 11.138 35.0091 11.0154 34.6445 10.9325L33.3519 10.6491C32.6393 10.4867 32.1123 10.2282 31.771 9.87358C31.4329 9.51894 31.2638 9.06984 31.2638 8.52628C31.2638 8.07552 31.3898 7.68111 31.6417 7.34304C31.8936 7.00497 32.2416 6.74148 32.6857 6.55256C33.1299 6.36032 33.6386 6.2642 34.212 6.2642C35.0373 6.2642 35.6869 6.44318 36.1609 6.80114C36.6348 7.15578 36.948 7.63139 37.1005 8.22798Z" fill="#F1F1F1"/>
<rect y="25" width="286" height="44" rx="4" fill="#F2F2F2"/>
<g clip-path="url(#clip0_281_18784)">
<path d="M29.2 41.25C32.7244 41.25 34.75 43.9435 34.75 48C34.75 52.8301 30.8325 56.7476 26 56.7476C21.1686 56.7476 17.2516 52.8319 17.25 48.0003C17.25 44.033 19.1863 41.3704 22.5673 41.254L22.8 41.25L22.8669 41.253C23.7563 41.3326 24.6404 41.4616 25.5152 41.6391L25.998 41.744L26.3758 41.6616C27.1053 41.5102 27.8465 41.3923 28.6167 41.3074L29.2 41.25ZM29.2669 42.747C28.2242 42.8404 27.1893 43.006 26.1695 43.2426C26.058 43.2685 25.942 43.2685 25.8305 43.2426C25.0147 43.0533 24.1891 42.9094 23.3577 42.8117L22.761 42.75L22.5869 42.7545C20.2018 42.856 18.8298 44.6767 18.7534 47.7277L18.75 48C18.7513 52.0032 21.9969 55.2476 26 55.2476C29.924 55.2476 33.1199 52.1302 33.2461 48.237L33.25 47.9976L33.2466 47.7277C33.168 44.5875 31.718 42.7499 29.2669 42.747Z" fill="#2C4357"/>
<path d="M31.2489 36.25H29.4049C27.2469 36.2507 25.4983 38.0006 25.499 40.1583V42C25.499 42.4142 25.8348 42.75 26.249 42.75H28.0909C30.249 42.7493 31.9982 41.0002 31.9989 38.8424V37C31.9989 36.5858 31.6631 36.25 31.2489 36.25ZM30.498 37.749L30.4989 38.8421L30.4938 39.0004C30.4118 40.2562 29.3673 41.2496 28.0907 41.25H26.998L26.999 40.1581C26.9986 38.8285 28.0758 37.7505 29.4052 37.75L30.498 37.749Z" fill="#2C4357"/>
<path d="M23.749 38.25C25.4821 38.25 26.8983 39.6065 26.9939 41.3156L26.999 41.5V42C26.999 42.4142 26.6632 42.75 26.249 42.75C25.8693 42.75 25.5555 42.4678 25.5059 42.1018L25.499 42V41.5C25.499 40.5818 24.7919 39.8288 23.8925 39.7558L23.749 39.75H23.249C22.8348 39.75 22.499 39.4142 22.499 39C22.499 38.6203 22.7812 38.3065 23.1473 38.2568L23.249 38.25H23.749Z" fill="#2C4357"/>
</g>
<path d="M44.2614 53H42.3977L46.5852 41.3636H48.6136L52.8011 53H50.9375L47.6477 43.4773H47.5568L44.2614 53ZM44.5739 48.4432H50.6193V49.9205H44.5739V48.4432ZM54.3452 56.2727V44.2727H56.0043V45.6875H56.1463C56.2448 45.5057 56.3868 45.2955 56.5724 45.0568C56.758 44.8182 57.0156 44.6098 57.3452 44.4318C57.6747 44.25 58.1103 44.1591 58.652 44.1591C59.3565 44.1591 59.9853 44.3371 60.5384 44.6932C61.0914 45.0492 61.5251 45.5625 61.8395 46.233C62.1577 46.9034 62.3168 47.7102 62.3168 48.6534C62.3168 49.5966 62.1596 50.4053 61.8452 51.0795C61.5308 51.75 61.099 52.267 60.5497 52.6307C60.0005 52.9905 59.3736 53.1705 58.669 53.1705C58.1387 53.1705 57.705 53.0814 57.3679 52.9034C57.0346 52.7254 56.7732 52.517 56.5838 52.2784C56.3944 52.0398 56.2486 51.8277 56.1463 51.642H56.044V56.2727H54.3452ZM56.0099 48.6364C56.0099 49.25 56.099 49.7879 56.277 50.25C56.455 50.7121 56.7126 51.0739 57.0497 51.3352C57.3868 51.5928 57.7997 51.7216 58.2884 51.7216C58.7959 51.7216 59.2202 51.5871 59.5611 51.3182C59.902 51.0455 60.1596 50.6761 60.3338 50.2102C60.5118 49.7443 60.6009 49.2197 60.6009 48.6364C60.6009 48.0606 60.5137 47.5436 60.3395 47.0852C60.169 46.6269 59.9115 46.2652 59.5668 46C59.2259 45.7348 58.7997 45.6023 58.2884 45.6023C57.7959 45.6023 57.3793 45.7292 57.0384 45.983C56.7012 46.2367 56.4455 46.5909 56.2713 47.0455C56.0971 47.5 56.0099 48.0303 56.0099 48.6364ZM64.2202 56.2727V44.2727H65.8793V45.6875H66.0213C66.1198 45.5057 66.2618 45.2955 66.4474 45.0568C66.633 44.8182 66.8906 44.6098 67.2202 44.4318C67.5497 44.25 67.9853 44.1591 68.527 44.1591C69.2315 44.1591 69.8603 44.3371 70.4134 44.6932C70.9664 45.0492 71.4001 45.5625 71.7145 46.233C72.0327 46.9034 72.1918 47.7102 72.1918 48.6534C72.1918 49.5966 72.0346 50.4053 71.7202 51.0795C71.4058 51.75 70.974 52.267 70.4247 52.6307C69.8755 52.9905 69.2486 53.1705 68.544 53.1705C68.0137 53.1705 67.58 53.0814 67.2429 52.9034C66.9096 52.7254 66.6482 52.517 66.4588 52.2784C66.2694 52.0398 66.1236 51.8277 66.0213 51.642H65.919V56.2727H64.2202ZM65.8849 48.6364C65.8849 49.25 65.974 49.7879 66.152 50.25C66.33 50.7121 66.5876 51.0739 66.9247 51.3352C67.2618 51.5928 67.6747 51.7216 68.1634 51.7216C68.6709 51.7216 69.0952 51.5871 69.4361 51.3182C69.777 51.0455 70.0346 50.6761 70.2088 50.2102C70.3868 49.7443 70.4759 49.2197 70.4759 48.6364C70.4759 48.0606 70.3887 47.5436 70.2145 47.0852C70.044 46.6269 69.7865 46.2652 69.4418 46C69.1009 45.7348 68.6747 45.6023 68.1634 45.6023C67.6709 45.6023 67.2543 45.7292 66.9134 45.983C66.5762 46.2367 66.3205 46.5909 66.1463 47.0455C65.9721 47.5 65.8849 48.0303 65.8849 48.6364ZM75.794 41.3636V53H74.0952V41.3636H75.794ZM81.8409 53.1761C80.9811 53.1761 80.2405 52.9924 79.6193 52.625C79.0019 52.2538 78.5246 51.733 78.1875 51.0625C77.8542 50.3883 77.6875 49.5985 77.6875 48.6932C77.6875 47.7992 77.8542 47.0114 78.1875 46.3295C78.5246 45.6477 78.9943 45.1155 79.5966 44.733C80.2027 44.3504 80.911 44.1591 81.7216 44.1591C82.214 44.1591 82.6913 44.2405 83.1534 44.4034C83.6155 44.5663 84.0303 44.822 84.3977 45.1705C84.7652 45.5189 85.0549 45.9716 85.267 46.5284C85.4792 47.0814 85.5852 47.7538 85.5852 48.5455V49.1477H78.6477V47.875H83.9205C83.9205 47.428 83.8295 47.0322 83.6477 46.6875C83.4659 46.339 83.2102 46.0644 82.8807 45.8636C82.5549 45.6629 82.1723 45.5625 81.733 45.5625C81.2557 45.5625 80.839 45.6799 80.483 45.9148C80.1307 46.1458 79.858 46.4489 79.6648 46.8239C79.4754 47.1951 79.3807 47.5985 79.3807 48.0341V49.0284C79.3807 49.6117 79.483 50.108 79.6875 50.517C79.8958 50.9261 80.1856 51.2386 80.5568 51.4545C80.928 51.6667 81.3617 51.7727 81.858 51.7727C82.1799 51.7727 82.4735 51.7273 82.7386 51.6364C83.0038 51.5417 83.233 51.4015 83.4261 51.2159C83.6193 51.0303 83.767 50.8011 83.8693 50.5284L85.4773 50.8182C85.3485 51.2917 85.1174 51.7064 84.7841 52.0625C84.4545 52.4148 84.0398 52.6894 83.5398 52.8864C83.0436 53.0795 82.4773 53.1761 81.8409 53.1761Z" fill="#2C4357"/>
<g clip-path="url(#clip1_281_18784)">
<path d="M256 45L260 49L264 45" stroke="#2C4357" stroke-width="1.5" stroke-linecap="round" stroke-linejoin="round"/>
</g>
<rect y="77" width="286" height="272" rx="4" fill="#F2F2F2"/>
<g clip-path="url(#clip2_281_18784)">
<path d="M35.2 97.25C38.7244 97.25 40.75 99.9435 40.75 104C40.75 108.83 36.8325 112.748 32 112.748C27.1686 112.748 23.2516 108.832 23.25 104C23.25 100.033 25.1863 97.3704 28.5673 97.254L28.8 97.25L28.8669 97.253C29.7563 97.3326 30.6404 97.4616 31.5152 97.6391L31.998 97.744L32.3758 97.6616C33.1053 97.5102 33.8465 97.3923 34.6167 97.3074L35.2 97.25ZM35.2669 98.747C34.2242 98.8404 33.1893 99.006 32.1695 99.2426C32.058 99.2685 31.942 99.2685 31.8305 99.2426C31.0147 99.0533 30.1891 98.9094 29.3577 98.8117L28.761 98.75L28.5869 98.7545C26.2018 98.856 24.8298 100.677 24.7534 103.728L24.75 104C24.7513 108.003 27.9969 111.248 32 111.248C35.924 111.248 39.1199 108.13 39.2461 104.237L39.25 103.998L39.2466 103.728C39.168 100.588 37.718 98.7499 35.2669 98.747Z" fill="#2C4357"/>
<path d="M37.2489 92.25H35.4049C33.2469 92.2507 31.4983 94.0006 31.499 96.1583V98C31.499 98.4142 31.8348 98.75 32.249 98.75H34.0909C36.249 98.7493 37.9982 97.0002 37.9989 94.8424V93C37.9989 92.5858 37.6631 92.25 37.2489 92.25ZM36.498 93.749L36.4989 94.8421L36.4938 95.0004C36.4118 96.2562 35.3673 97.2496 34.0907 97.25H32.998L32.999 96.1581C32.9986 94.8285 34.0758 93.7505 35.4052 93.75L36.498 93.749Z" fill="#2C4357"/>
<path d="M29.749 94.25C31.4821 94.25 32.8983 95.6065 32.9939 97.3156L32.999 97.5V98C32.999 98.4142 32.6632 98.75 32.249 98.75C31.8693 98.75 31.5555 98.4678 31.5059 98.1018L31.499 98V97.5C31.499 96.5818 30.7919 95.8288 29.8925 95.7558L29.749 95.75H29.249C28.8348 95.75 28.499 95.4142 28.499 95C28.499 94.6203 28.7812 94.3065 29.1473 94.2568L29.249 94.25H29.749Z" fill="#2C4357"/>
</g>
<path d="M49.2784 109V97.3636H53.5398C54.3655 97.3636 55.0492 97.5 55.5909 97.7727C56.1326 98.0417 56.5379 98.4072 56.8068 98.8693C57.0758 99.3277 57.2102 99.8447 57.2102 100.42C57.2102 100.905 57.1212 101.314 56.9432 101.648C56.7652 101.977 56.5265 102.242 56.2273 102.443C55.9318 102.64 55.6061 102.784 55.25 102.875V102.989C55.6364 103.008 56.0133 103.133 56.3807 103.364C56.7519 103.591 57.0587 103.915 57.3011 104.335C57.5436 104.756 57.6648 105.267 57.6648 105.869C57.6648 106.464 57.5246 106.998 57.2443 107.472C56.9678 107.941 56.5398 108.314 55.9602 108.591C55.3807 108.864 54.6402 109 53.7386 109H49.2784ZM51.0341 107.494H53.5682C54.4091 107.494 55.0114 107.331 55.375 107.006C55.7386 106.68 55.9205 106.273 55.9205 105.784C55.9205 105.417 55.8277 105.08 55.642 104.773C55.4564 104.466 55.1913 104.222 54.8466 104.04C54.5057 103.858 54.1004 103.767 53.6307 103.767H51.0341V107.494ZM51.0341 102.398H53.3864C53.7803 102.398 54.1345 102.322 54.4489 102.17C54.767 102.019 55.0189 101.807 55.2045 101.534C55.3939 101.258 55.4886 100.932 55.4886 100.557C55.4886 100.076 55.3201 99.6723 54.983 99.3466C54.6458 99.0208 54.1288 98.858 53.4318 98.858H51.0341V102.398ZM62.1506 109.193C61.5975 109.193 61.0975 109.091 60.6506 108.886C60.2036 108.678 59.8494 108.377 59.5881 107.983C59.3305 107.589 59.2017 107.106 59.2017 106.534C59.2017 106.042 59.2964 105.636 59.4858 105.318C59.6752 105 59.9309 104.748 60.2528 104.562C60.5748 104.377 60.9347 104.237 61.3324 104.142C61.7301 104.047 62.1354 103.975 62.5483 103.926C63.071 103.866 63.4953 103.816 63.821 103.778C64.1468 103.737 64.3835 103.67 64.5312 103.58C64.679 103.489 64.7528 103.341 64.7528 103.136V103.097C64.7528 102.6 64.6127 102.216 64.3324 101.943C64.0559 101.67 63.643 101.534 63.0938 101.534C62.5218 101.534 62.071 101.661 61.7415 101.915C61.4157 102.165 61.1903 102.443 61.0653 102.75L59.4688 102.386C59.6581 101.856 59.9347 101.428 60.2983 101.102C60.6657 100.773 61.0881 100.534 61.5653 100.386C62.0426 100.235 62.5445 100.159 63.071 100.159C63.4195 100.159 63.7888 100.201 64.179 100.284C64.5729 100.364 64.9403 100.511 65.2812 100.727C65.6259 100.943 65.9081 101.252 66.1278 101.653C66.3475 102.051 66.4574 102.568 66.4574 103.205V109H64.7983V107.807H64.7301C64.6203 108.027 64.4555 108.242 64.2358 108.455C64.0161 108.667 63.7339 108.843 63.3892 108.983C63.0445 109.123 62.6316 109.193 62.1506 109.193ZM62.5199 107.83C62.9896 107.83 63.3911 107.737 63.7244 107.551C64.0616 107.366 64.3172 107.123 64.4915 106.824C64.6695 106.521 64.7585 106.197 64.7585 105.852V104.727C64.6979 104.788 64.5805 104.845 64.4062 104.898C64.2358 104.947 64.0407 104.991 63.821 105.028C63.6013 105.062 63.3873 105.095 63.179 105.125C62.9706 105.152 62.7964 105.174 62.6562 105.193C62.3267 105.235 62.0256 105.305 61.7528 105.403C61.4839 105.502 61.268 105.644 61.1051 105.83C60.946 106.011 60.8665 106.254 60.8665 106.557C60.8665 106.977 61.0218 107.295 61.3324 107.511C61.643 107.723 62.0388 107.83 62.5199 107.83ZM70.419 103.818V109H68.7202V100.273H70.3509V101.693H70.4588C70.6596 101.231 70.974 100.86 71.402 100.58C71.8338 100.299 72.3774 100.159 73.0327 100.159C73.6274 100.159 74.1482 100.284 74.5952 100.534C75.0421 100.78 75.3887 101.148 75.6349 101.636C75.8812 102.125 76.0043 102.729 76.0043 103.449V109H74.3054V103.653C74.3054 103.021 74.1406 102.527 73.8111 102.17C73.4815 101.811 73.0289 101.631 72.4531 101.631C72.0592 101.631 71.7088 101.716 71.402 101.886C71.099 102.057 70.8584 102.307 70.6804 102.636C70.5062 102.962 70.419 103.356 70.419 103.818ZM80.8224 109.193C80.2694 109.193 79.7694 109.091 79.3224 108.886C78.8755 108.678 78.5213 108.377 78.2599 107.983C78.0024 107.589 77.8736 107.106 77.8736 106.534C77.8736 106.042 77.9683 105.636 78.1577 105.318C78.3471 105 78.6027 104.748 78.9247 104.562C79.2467 104.377 79.6065 104.237 80.0043 104.142C80.402 104.047 80.8073 103.975 81.2202 103.926C81.7429 103.866 82.1671 103.816 82.4929 103.778C82.8187 103.737 83.0554 103.67 83.2031 103.58C83.3509 103.489 83.4247 103.341 83.4247 103.136V103.097C83.4247 102.6 83.2846 102.216 83.0043 101.943C82.7277 101.67 82.3149 101.534 81.7656 101.534C81.1937 101.534 80.7429 101.661 80.4134 101.915C80.0876 102.165 79.8622 102.443 79.7372 102.75L78.1406 102.386C78.33 101.856 78.6065 101.428 78.9702 101.102C79.3376 100.773 79.7599 100.534 80.2372 100.386C80.7145 100.235 81.2164 100.159 81.7429 100.159C82.0914 100.159 82.4607 100.201 82.8509 100.284C83.2448 100.364 83.6122 100.511 83.9531 100.727C84.2978 100.943 84.58 101.252 84.7997 101.653C85.0194 102.051 85.1293 102.568 85.1293 103.205V109H83.4702V107.807H83.402C83.2921 108.027 83.1274 108.242 82.9077 108.455C82.688 108.667 82.4058 108.843 82.0611 108.983C81.7164 109.123 81.3035 109.193 80.8224 109.193ZM81.1918 107.83C81.6615 107.83 82.063 107.737 82.3963 107.551C82.7334 107.366 82.9891 107.123 83.1634 106.824C83.3414 106.521 83.4304 106.197 83.4304 105.852V104.727C83.3698 104.788 83.2524 104.845 83.0781 104.898C82.9077 104.947 82.7126 104.991 82.4929 105.028C82.2732 105.062 82.0592 105.095 81.8509 105.125C81.6425 105.152 81.4683 105.174 81.3281 105.193C80.9986 105.235 80.6974 105.305 80.4247 105.403C80.1558 105.502 79.9399 105.644 79.777 105.83C79.6179 106.011 79.5384 106.254 79.5384 106.557C79.5384 106.977 79.6937 107.295 80.0043 107.511C80.3149 107.723 80.7107 107.83 81.1918 107.83ZM89.0909 103.818V109H87.392V100.273H89.0227V101.693H89.1307C89.3314 101.231 89.6458 100.86 90.0739 100.58C90.5057 100.299 91.0492 100.159 91.7045 100.159C92.2992 100.159 92.8201 100.284 93.267 100.534C93.714 100.78 94.0606 101.148 94.3068 101.636C94.553 102.125 94.6761 102.729 94.6761 103.449V109H92.9773V103.653C92.9773 103.021 92.8125 102.527 92.483 102.17C92.1534 101.811 91.7008 101.631 91.125 101.631C90.7311 101.631 90.3807 101.716 90.0739 101.886C89.7708 102.057 89.5303 102.307 89.3523 102.636C89.178 102.962 89.0909 103.356 89.0909 103.818ZM99.4943 109.193C98.9413 109.193 98.4413 109.091 97.9943 108.886C97.5473 108.678 97.1932 108.377 96.9318 107.983C96.6742 107.589 96.5455 107.106 96.5455 106.534C96.5455 106.042 96.6402 105.636 96.8295 105.318C97.0189 105 97.2746 104.748 97.5966 104.562C97.9186 104.377 98.2784 104.237 98.6761 104.142C99.0739 104.047 99.4792 103.975 99.892 103.926C100.415 103.866 100.839 103.816 101.165 103.778C101.491 103.737 101.727 103.67 101.875 103.58C102.023 103.489 102.097 103.341 102.097 103.136V103.097C102.097 102.6 101.956 102.216 101.676 101.943C101.4 101.67 100.987 101.534 100.438 101.534C99.8655 101.534 99.4148 101.661 99.0852 101.915C98.7595 102.165 98.5341 102.443 98.4091 102.75L96.8125 102.386C97.0019 101.856 97.2784 101.428 97.642 101.102C98.0095 100.773 98.4318 100.534 98.9091 100.386C99.3864 100.235 99.8883 100.159 100.415 100.159C100.763 100.159 101.133 100.201 101.523 100.284C101.917 100.364 102.284 100.511 102.625 100.727C102.97 100.943 103.252 101.252 103.472 101.653C103.691 102.051 103.801 102.568 103.801 103.205V109H102.142V107.807H102.074C101.964 108.027 101.799 108.242 101.58 108.455C101.36 108.667 101.078 108.843 100.733 108.983C100.388 109.123 99.9754 109.193 99.4943 109.193ZM99.8636 107.83C100.333 107.83 100.735 107.737 101.068 107.551C101.405 107.366 101.661 107.123 101.835 106.824C102.013 106.521 102.102 106.197 102.102 105.852V104.727C102.042 104.788 101.924 104.845 101.75 104.898C101.58 104.947 101.384 104.991 101.165 105.028C100.945 105.062 100.731 105.095 100.523 105.125C100.314 105.152 100.14 105.174 100 105.193C99.6705 105.235 99.3693 105.305 99.0966 105.403C98.8277 105.502 98.6117 105.644 98.4489 105.83C98.2898 106.011 98.2102 106.254 98.2102 106.557C98.2102 106.977 98.3655 107.295 98.6761 107.511C98.9867 107.723 99.3826 107.83 99.8636 107.83Z" fill="#2C4357"/>
<g clip-path="url(#clip3_281_18784)">
<path d="M32.2496 147.25C32.5159 146.984 32.9326 146.959 33.2262 147.177L33.3103 147.25L34.0903 148.03C34.3832 148.323 34.3832 148.798 34.0903 149.091C33.8241 149.357 33.4074 149.381 33.1138 149.163L33.0297 149.091L32.2496 148.311C31.9567 148.018 31.9567 147.543 32.2496 147.25ZM30.21 148.68C30.5897 148.68 30.9035 148.962 30.9531 149.329L30.96 149.43V150.54C30.96 150.955 30.6242 151.29 30.21 151.29C29.8303 151.29 29.5165 151.008 29.4668 150.642L29.46 150.54V149.43C29.46 149.016 29.7958 148.68 30.21 148.68Z" fill="#2C4357"/>
<path d="M36.8413 137.274L36.3906 137.724C35.7442 138.359 35.6782 139.386 36.2423 140.103L36.4193 140.33C38.594 143.216 38.5305 147.232 36.2483 150.06C33.5009 153.463 28.5146 153.996 25.1109 151.248L24.9581 151.14C24.2118 150.69 23.3013 150.803 22.7196 151.395L22.2772 151.837C22.2289 151.886 22.1873 151.932 22.1482 151.981C21.5203 152.766 21.6469 153.91 22.4311 154.538L22.689 154.742C27.1565 158.165 33.3864 158.082 37.7563 154.535C42.8875 150.371 43.7411 142.89 39.736 137.682L39.4904 137.375L39.4137 137.292C38.7083 136.577 37.5566 136.568 36.8413 137.274ZM38.3456 138.345L38.3798 138.385C42.0813 142.946 41.3831 149.66 36.811 153.371C32.9802 156.48 27.5185 156.553 23.6097 153.558L23.3644 153.364C23.2312 153.257 23.209 153.056 23.3191 152.919L23.3409 152.894L23.7846 152.452C23.8842 152.35 24.032 152.332 24.1457 152.4L24.2139 152.449C28.2171 155.683 34.1479 155.05 37.4155 151.002C40.1301 147.639 40.2057 142.862 37.6096 139.418L37.4232 139.179C37.3301 139.06 37.3407 138.894 37.4462 138.79L37.8982 138.338C38.0199 138.218 38.2219 138.22 38.3456 138.345Z" fill="#2C4357"/>
<path d="M36.3895 137.729C36.6824 137.437 37.1572 137.437 37.4501 137.729C37.7164 137.996 37.7406 138.412 37.5227 138.706L37.4501 138.79L23.7901 152.45C23.4972 152.743 23.0223 152.743 22.7294 152.45C22.4632 152.184 22.439 151.767 22.6568 151.474L22.7294 151.389L36.3895 137.729ZM35.5398 144.46C35.954 144.46 36.2898 144.796 36.2898 145.21C36.2898 145.589 36.0076 145.903 35.6416 145.953L35.5398 145.96H34.4298C34.0156 145.96 33.6798 145.624 33.6798 145.21C33.6798 144.83 33.9619 144.516 34.328 144.467L34.4298 144.46H35.5398Z" fill="#2C4357"/>
</g>
<path d="M51.5568 153L48.3295 141.364H50.1761L52.4432 150.375H52.5511L54.9091 141.364H56.7386L59.0966 150.381H59.2045L61.4659 141.364H63.3182L60.0852 153H58.3182L55.8693 144.284H55.7784L53.3295 153H51.5568ZM66.4631 153.193C65.91 153.193 65.41 153.091 64.9631 152.886C64.5161 152.678 64.1619 152.377 63.9006 151.983C63.643 151.589 63.5142 151.106 63.5142 150.534C63.5142 150.042 63.6089 149.636 63.7983 149.318C63.9877 149 64.2434 148.748 64.5653 148.562C64.8873 148.377 65.2472 148.237 65.6449 148.142C66.0426 148.047 66.4479 147.975 66.8608 147.926C67.3835 147.866 67.8078 147.816 68.1335 147.778C68.4593 147.737 68.696 147.67 68.8438 147.58C68.9915 147.489 69.0653 147.341 69.0653 147.136V147.097C69.0653 146.6 68.9252 146.216 68.6449 145.943C68.3684 145.67 67.9555 145.534 67.4062 145.534C66.8343 145.534 66.3835 145.661 66.054 145.915C65.7282 146.165 65.5028 146.443 65.3778 146.75L63.7812 146.386C63.9706 145.856 64.2472 145.428 64.6108 145.102C64.9782 144.773 65.4006 144.534 65.8778 144.386C66.3551 144.235 66.857 144.159 67.3835 144.159C67.732 144.159 68.1013 144.201 68.4915 144.284C68.8854 144.364 69.2528 144.511 69.5938 144.727C69.9384 144.943 70.2206 145.252 70.4403 145.653C70.66 146.051 70.7699 146.568 70.7699 147.205V153H69.1108V151.807H69.0426C68.9328 152.027 68.768 152.242 68.5483 152.455C68.3286 152.667 68.0464 152.843 67.7017 152.983C67.357 153.123 66.9441 153.193 66.4631 153.193ZM66.8324 151.83C67.3021 151.83 67.7036 151.737 68.0369 151.551C68.3741 151.366 68.6297 151.123 68.804 150.824C68.982 150.521 69.071 150.197 69.071 149.852V148.727C69.0104 148.788 68.893 148.845 68.7188 148.898C68.5483 148.947 68.3532 148.991 68.1335 149.028C67.9138 149.062 67.6998 149.095 67.4915 149.125C67.2831 149.152 67.1089 149.174 66.9688 149.193C66.6392 149.235 66.3381 149.305 66.0653 149.403C65.7964 149.502 65.5805 149.644 65.4176 149.83C65.2585 150.011 65.179 150.254 65.179 150.557C65.179 150.977 65.3343 151.295 65.6449 151.511C65.9555 151.723 66.3513 151.83 66.8324 151.83ZM77.1065 144.273V145.636H72.3395V144.273H77.1065ZM73.6179 142.182H75.3168V150.438C75.3168 150.767 75.366 151.015 75.4645 151.182C75.563 151.345 75.6899 151.456 75.8452 151.517C76.0043 151.574 76.1766 151.602 76.3622 151.602C76.4986 151.602 76.6179 151.593 76.7202 151.574C76.8224 151.555 76.902 151.54 76.9588 151.528L77.2656 152.932C77.1671 152.97 77.027 153.008 76.8452 153.045C76.6634 153.087 76.4361 153.11 76.1634 153.114C75.7164 153.121 75.2997 153.042 74.9134 152.875C74.527 152.708 74.2145 152.451 73.9759 152.102C73.7372 151.754 73.6179 151.316 73.6179 150.79V142.182ZM82.6534 153.176C81.7936 153.176 81.053 152.992 80.4318 152.625C79.8144 152.254 79.3371 151.733 79 151.062C78.6667 150.388 78.5 149.598 78.5 148.693C78.5 147.799 78.6667 147.011 79 146.33C79.3371 145.648 79.8068 145.116 80.4091 144.733C81.0152 144.35 81.7235 144.159 82.5341 144.159C83.0265 144.159 83.5038 144.241 83.9659 144.403C84.428 144.566 84.8428 144.822 85.2102 145.17C85.5777 145.519 85.8674 145.972 86.0795 146.528C86.2917 147.081 86.3977 147.754 86.3977 148.545V149.148H79.4602V147.875H84.733C84.733 147.428 84.642 147.032 84.4602 146.688C84.2784 146.339 84.0227 146.064 83.6932 145.864C83.3674 145.663 82.9848 145.562 82.5455 145.562C82.0682 145.562 81.6515 145.68 81.2955 145.915C80.9432 146.146 80.6705 146.449 80.4773 146.824C80.2879 147.195 80.1932 147.598 80.1932 148.034V149.028C80.1932 149.612 80.2955 150.108 80.5 150.517C80.7083 150.926 80.9981 151.239 81.3693 151.455C81.7405 151.667 82.1742 151.773 82.6705 151.773C82.9924 151.773 83.286 151.727 83.5511 151.636C83.8163 151.542 84.0455 151.402 84.2386 151.216C84.4318 151.03 84.5795 150.801 84.6818 150.528L86.2898 150.818C86.161 151.292 85.9299 151.706 85.5966 152.062C85.267 152.415 84.8523 152.689 84.3523 152.886C83.8561 153.08 83.2898 153.176 82.6534 153.176ZM88.2827 153V144.273H89.9247V145.659H90.0156C90.1747 145.189 90.455 144.82 90.8565 144.551C91.2618 144.278 91.7202 144.142 92.2315 144.142C92.3376 144.142 92.4626 144.146 92.6065 144.153C92.7543 144.161 92.8698 144.17 92.9531 144.182V145.807C92.8849 145.788 92.7637 145.767 92.5895 145.744C92.4152 145.718 92.241 145.705 92.0668 145.705C91.6652 145.705 91.3073 145.79 90.9929 145.96C90.6823 146.127 90.4361 146.36 90.2543 146.659C90.0724 146.955 89.9815 147.292 89.9815 147.67V153H88.2827ZM94.4233 153V144.273H96.054V145.693H96.1619C96.3438 145.212 96.6411 144.837 97.054 144.568C97.4669 144.295 97.9612 144.159 98.5369 144.159C99.1203 144.159 99.6089 144.295 100.003 144.568C100.401 144.841 100.694 145.216 100.884 145.693H100.974C101.183 145.227 101.514 144.856 101.969 144.58C102.423 144.299 102.965 144.159 103.594 144.159C104.385 144.159 105.031 144.407 105.531 144.903C106.035 145.4 106.287 146.148 106.287 147.148V153H104.588V147.307C104.588 146.716 104.427 146.288 104.105 146.023C103.783 145.758 103.399 145.625 102.952 145.625C102.399 145.625 101.969 145.795 101.662 146.136C101.355 146.473 101.202 146.907 101.202 147.438V153H99.5085V147.199C99.5085 146.725 99.3608 146.345 99.0653 146.057C98.7699 145.769 98.3854 145.625 97.9119 145.625C97.59 145.625 97.2926 145.71 97.0199 145.881C96.7509 146.047 96.5331 146.28 96.3665 146.58C96.2036 146.879 96.1222 147.225 96.1222 147.619V153H94.4233ZM112.325 153.176C111.465 153.176 110.725 152.992 110.104 152.625C109.486 152.254 109.009 151.733 108.672 151.062C108.339 150.388 108.172 149.598 108.172 148.693C108.172 147.799 108.339 147.011 108.672 146.33C109.009 145.648 109.479 145.116 110.081 144.733C110.687 144.35 111.395 144.159 112.206 144.159C112.698 144.159 113.176 144.241 113.638 144.403C114.1 144.566 114.515 144.822 114.882 145.17C115.25 145.519 115.539 145.972 115.751 146.528C115.964 147.081 116.07 147.754 116.07 148.545V149.148H109.132V147.875H114.405C114.405 147.428 114.314 147.032 114.132 146.688C113.95 146.339 113.695 146.064 113.365 145.864C113.039 145.663 112.657 145.562 112.217 145.562C111.74 145.562 111.323 145.68 110.967 145.915C110.615 146.146 110.342 146.449 110.149 146.824C109.96 147.195 109.865 147.598 109.865 148.034V149.028C109.865 149.612 109.967 150.108 110.172 150.517C110.38 150.926 110.67 151.239 111.041 151.455C111.412 151.667 111.846 151.773 112.342 151.773C112.664 151.773 112.958 151.727 113.223 151.636C113.488 151.542 113.717 151.402 113.911 151.216C114.104 151.03 114.251 150.801 114.354 150.528L115.962 150.818C115.833 151.292 115.602 151.706 115.268 152.062C114.939 152.415 114.524 152.689 114.024 152.886C113.528 153.08 112.962 153.176 112.325 153.176ZM119.653 141.364V153H117.955V141.364H119.653ZM125.615 153.176C124.797 153.176 124.083 152.989 123.473 152.614C122.863 152.239 122.39 151.714 122.053 151.04C121.715 150.366 121.547 149.578 121.547 148.676C121.547 147.771 121.715 146.979 122.053 146.301C122.39 145.623 122.863 145.097 123.473 144.722C124.083 144.347 124.797 144.159 125.615 144.159C126.433 144.159 127.147 144.347 127.757 144.722C128.367 145.097 128.84 145.623 129.178 146.301C129.515 146.979 129.683 147.771 129.683 148.676C129.683 149.578 129.515 150.366 129.178 151.04C128.84 151.714 128.367 152.239 127.757 152.614C127.147 152.989 126.433 153.176 125.615 153.176ZM125.621 151.75C126.151 151.75 126.59 151.61 126.939 151.33C127.287 151.049 127.545 150.676 127.712 150.21C127.882 149.744 127.967 149.231 127.967 148.67C127.967 148.114 127.882 147.602 127.712 147.136C127.545 146.667 127.287 146.29 126.939 146.006C126.59 145.722 126.151 145.58 125.621 145.58C125.087 145.58 124.643 145.722 124.291 146.006C123.943 146.29 123.683 146.667 123.513 147.136C123.346 147.602 123.263 148.114 123.263 148.67C123.263 149.231 123.346 149.744 123.513 150.21C123.683 150.676 123.943 151.049 124.291 151.33C124.643 151.61 125.087 151.75 125.621 151.75ZM135.256 153.176C134.438 153.176 133.723 152.989 133.114 152.614C132.504 152.239 132.03 151.714 131.693 151.04C131.356 150.366 131.188 149.578 131.188 148.676C131.188 147.771 131.356 146.979 131.693 146.301C132.03 145.623 132.504 145.097 133.114 144.722C133.723 144.347 134.438 144.159 135.256 144.159C136.074 144.159 136.788 144.347 137.398 144.722C138.008 145.097 138.481 145.623 138.818 146.301C139.155 146.979 139.324 147.771 139.324 148.676C139.324 149.578 139.155 150.366 138.818 151.04C138.481 151.714 138.008 152.239 137.398 152.614C136.788 152.989 136.074 153.176 135.256 153.176ZM135.261 151.75C135.792 151.75 136.231 151.61 136.58 151.33C136.928 151.049 137.186 150.676 137.352 150.21C137.523 149.744 137.608 149.231 137.608 148.67C137.608 148.114 137.523 147.602 137.352 147.136C137.186 146.667 136.928 146.29 136.58 146.006C136.231 145.722 135.792 145.58 135.261 145.58C134.727 145.58 134.284 145.722 133.932 146.006C133.583 146.29 133.324 146.667 133.153 147.136C132.987 147.602 132.903 148.114 132.903 148.67C132.903 149.231 132.987 149.744 133.153 150.21C133.324 150.676 133.583 151.049 133.932 151.33C134.284 151.61 134.727 151.75 135.261 151.75ZM142.919 147.818V153H141.22V144.273H142.851V145.693H142.959C143.16 145.231 143.474 144.86 143.902 144.58C144.334 144.299 144.877 144.159 145.533 144.159C146.127 144.159 146.648 144.284 147.095 144.534C147.542 144.78 147.889 145.148 148.135 145.636C148.381 146.125 148.504 146.729 148.504 147.449V153H146.805V147.653C146.805 147.021 146.641 146.527 146.311 146.17C145.982 145.811 145.529 145.631 144.953 145.631C144.559 145.631 144.209 145.716 143.902 145.886C143.599 146.057 143.358 146.307 143.18 146.636C143.006 146.962 142.919 147.356 142.919 147.818Z" fill="#2C4357"/>
<rect x="6" y="169" width="274" height="44" rx="4" fill="url(#paint0_linear_281_18784)"/>
<g clip-path="url(#clip4_281_18784)">
<path d="M39.7054 181.293H38.7593C37.7928 181.293 37.0093 182.076 37.0093 183.043V183.397C37.0093 184.718 36.7276 186.023 36.1835 187.226L36.0223 187.564C34.924 189.76 33.2209 191.614 31.1146 192.902L30.7694 193.106C28.7874 194.238 26.5333 194.837 24.2395 194.837H24.0601C23.2877 194.837 22.5981 195.321 22.3352 196.047C22.1001 196.696 22.2501 197.421 22.7192 197.923L22.8508 198.05C25.3365 200.123 28.5241 201.057 31.6927 200.661C33.8009 200.397 35.7946 199.556 37.4535 198.231L37.7503 197.985C40.6144 195.53 42.0939 191.846 41.7279 188.109L41.6896 187.771C41.5332 186.556 41.4554 185.343 41.4554 184.13V183.043C41.4554 182.076 40.6719 181.293 39.7054 181.293ZM38.7593 182.793H39.7054C39.8435 182.793 39.9554 182.905 39.9554 183.043V184.13C39.9554 185.152 40.0078 186.173 40.1124 187.19L40.2363 188.267C40.5534 191.506 39.2666 194.71 36.784 196.838L36.5072 197.067C35.0744 198.212 33.3403 198.943 31.5066 199.173C28.7501 199.517 25.9777 198.705 23.846 196.928L23.7824 196.866C23.7301 196.808 23.7028 196.676 23.7456 196.558C23.7935 196.425 23.9193 196.337 24.0601 196.337H24.2395C26.7944 196.337 29.305 195.67 31.5232 194.403L31.8875 194.187C34.2431 192.747 36.1399 190.682 37.3703 188.222L37.544 187.857C38.1821 186.447 38.5093 184.931 38.5093 183.397V183.043C38.5093 182.905 38.6212 182.793 38.7593 182.793Z" fill="#F2F2F2"/>
<path d="M36.9984 184.235C37.1447 183.848 37.5774 183.652 37.965 183.799C38.3525 183.945 38.5481 184.378 38.4018 184.765C37.9561 185.946 37.2508 187.011 36.3411 187.88C34.7997 189.368 32.8759 190.395 30.7985 190.848L30.0934 190.988C28.3116 191.31 26.4767 191.161 24.7714 190.558L24.7103 190.542C24.7015 190.541 24.6938 190.54 24.6879 190.54C24.597 190.541 24.5136 190.591 24.4693 190.67C24.4249 190.749 24.4264 190.846 24.4737 190.925C25.3591 192.405 26.7849 193.477 28.4463 193.921L28.7253 193.989L29.0353 194.059C29.4394 194.15 29.693 194.551 29.6017 194.955C29.5181 195.326 29.1738 195.57 28.8057 195.538L28.7049 195.522L28.3982 195.453C26.2181 194.97 24.333 193.611 23.1871 191.696C22.8636 191.157 22.8533 190.486 23.1601 189.938C23.4669 189.389 24.0438 189.047 24.6886 189.04C24.8863 189.043 25.0824 189.077 25.2704 189.143C26.6189 189.621 28.0609 189.766 29.4633 189.571L29.8131 189.515L30.1262 189.452C32.0746 189.099 33.8746 188.176 35.3022 186.798C36.0524 186.081 36.6321 185.206 36.9984 184.235Z" fill="#F2F2F2"/>
</g>
<path d="M49.2784 197V185.364H53.5398C54.3655 185.364 55.0492 185.5 55.5909 185.773C56.1326 186.042 56.5379 186.407 56.8068 186.869C57.0758 187.328 57.2102 187.845 57.2102 188.42C57.2102 188.905 57.1212 189.314 56.9432 189.648C56.7652 189.977 56.5265 190.242 56.2273 190.443C55.9318 190.64 55.6061 190.784 55.25 190.875V190.989C55.6364 191.008 56.0133 191.133 56.3807 191.364C56.7519 191.591 57.0587 191.915 57.3011 192.335C57.5436 192.756 57.6648 193.267 57.6648 193.869C57.6648 194.464 57.5246 194.998 57.2443 195.472C56.9678 195.941 56.5398 196.314 55.9602 196.591C55.3807 196.864 54.6402 197 53.7386 197H49.2784ZM51.0341 195.494H53.5682C54.4091 195.494 55.0114 195.331 55.375 195.006C55.7386 194.68 55.9205 194.273 55.9205 193.784C55.9205 193.417 55.8277 193.08 55.642 192.773C55.4564 192.466 55.1913 192.222 54.8466 192.04C54.5057 191.858 54.1004 191.767 53.6307 191.767H51.0341V195.494ZM51.0341 190.398H53.3864C53.7803 190.398 54.1345 190.322 54.4489 190.17C54.767 190.019 55.0189 189.807 55.2045 189.534C55.3939 189.258 55.4886 188.932 55.4886 188.557C55.4886 188.076 55.3201 187.672 54.983 187.347C54.6458 187.021 54.1288 186.858 53.4318 186.858H51.0341V190.398ZM62.1506 197.193C61.5975 197.193 61.0975 197.091 60.6506 196.886C60.2036 196.678 59.8494 196.377 59.5881 195.983C59.3305 195.589 59.2017 195.106 59.2017 194.534C59.2017 194.042 59.2964 193.636 59.4858 193.318C59.6752 193 59.9309 192.748 60.2528 192.562C60.5748 192.377 60.9347 192.237 61.3324 192.142C61.7301 192.047 62.1354 191.975 62.5483 191.926C63.071 191.866 63.4953 191.816 63.821 191.778C64.1468 191.737 64.3835 191.67 64.5312 191.58C64.679 191.489 64.7528 191.341 64.7528 191.136V191.097C64.7528 190.6 64.6127 190.216 64.3324 189.943C64.0559 189.67 63.643 189.534 63.0938 189.534C62.5218 189.534 62.071 189.661 61.7415 189.915C61.4157 190.165 61.1903 190.443 61.0653 190.75L59.4688 190.386C59.6581 189.856 59.9347 189.428 60.2983 189.102C60.6657 188.773 61.0881 188.534 61.5653 188.386C62.0426 188.235 62.5445 188.159 63.071 188.159C63.4195 188.159 63.7888 188.201 64.179 188.284C64.5729 188.364 64.9403 188.511 65.2812 188.727C65.6259 188.943 65.9081 189.252 66.1278 189.653C66.3475 190.051 66.4574 190.568 66.4574 191.205V197H64.7983V195.807H64.7301C64.6203 196.027 64.4555 196.242 64.2358 196.455C64.0161 196.667 63.7339 196.843 63.3892 196.983C63.0445 197.123 62.6316 197.193 62.1506 197.193ZM62.5199 195.83C62.9896 195.83 63.3911 195.737 63.7244 195.551C64.0616 195.366 64.3172 195.123 64.4915 194.824C64.6695 194.521 64.7585 194.197 64.7585 193.852V192.727C64.6979 192.788 64.5805 192.845 64.4062 192.898C64.2358 192.947 64.0407 192.991 63.821 193.028C63.6013 193.062 63.3873 193.095 63.179 193.125C62.9706 193.152 62.7964 193.174 62.6562 193.193C62.3267 193.235 62.0256 193.305 61.7528 193.403C61.4839 193.502 61.268 193.644 61.1051 193.83C60.946 194.011 60.8665 194.254 60.8665 194.557C60.8665 194.977 61.0218 195.295 61.3324 195.511C61.643 195.723 62.0388 195.83 62.5199 195.83ZM70.419 191.818V197H68.7202V188.273H70.3509V189.693H70.4588C70.6596 189.231 70.974 188.86 71.402 188.58C71.8338 188.299 72.3774 188.159 73.0327 188.159C73.6274 188.159 74.1482 188.284 74.5952 188.534C75.0421 188.78 75.3887 189.148 75.6349 189.636C75.8812 190.125 76.0043 190.729 76.0043 191.449V197H74.3054V191.653C74.3054 191.021 74.1406 190.527 73.8111 190.17C73.4815 189.811 73.0289 189.631 72.4531 189.631C72.0592 189.631 71.7088 189.716 71.402 189.886C71.099 190.057 70.8584 190.307 70.6804 190.636C70.5062 190.962 70.419 191.356 70.419 191.818ZM80.8224 197.193C80.2694 197.193 79.7694 197.091 79.3224 196.886C78.8755 196.678 78.5213 196.377 78.2599 195.983C78.0024 195.589 77.8736 195.106 77.8736 194.534C77.8736 194.042 77.9683 193.636 78.1577 193.318C78.3471 193 78.6027 192.748 78.9247 192.562C79.2467 192.377 79.6065 192.237 80.0043 192.142C80.402 192.047 80.8073 191.975 81.2202 191.926C81.7429 191.866 82.1671 191.816 82.4929 191.778C82.8187 191.737 83.0554 191.67 83.2031 191.58C83.3509 191.489 83.4247 191.341 83.4247 191.136V191.097C83.4247 190.6 83.2846 190.216 83.0043 189.943C82.7277 189.67 82.3149 189.534 81.7656 189.534C81.1937 189.534 80.7429 189.661 80.4134 189.915C80.0876 190.165 79.8622 190.443 79.7372 190.75L78.1406 190.386C78.33 189.856 78.6065 189.428 78.9702 189.102C79.3376 188.773 79.7599 188.534 80.2372 188.386C80.7145 188.235 81.2164 188.159 81.7429 188.159C82.0914 188.159 82.4607 188.201 82.8509 188.284C83.2448 188.364 83.6122 188.511 83.9531 188.727C84.2978 188.943 84.58 189.252 84.7997 189.653C85.0194 190.051 85.1293 190.568 85.1293 191.205V197H83.4702V195.807H83.402C83.2921 196.027 83.1274 196.242 82.9077 196.455C82.688 196.667 82.4058 196.843 82.0611 196.983C81.7164 197.123 81.3035 197.193 80.8224 197.193ZM81.1918 195.83C81.6615 195.83 82.063 195.737 82.3963 195.551C82.7334 195.366 82.9891 195.123 83.1634 194.824C83.3414 194.521 83.4304 194.197 83.4304 193.852V192.727C83.3698 192.788 83.2524 192.845 83.0781 192.898C82.9077 192.947 82.7126 192.991 82.4929 193.028C82.2732 193.062 82.0592 193.095 81.8509 193.125C81.6425 193.152 81.4683 193.174 81.3281 193.193C80.9986 193.235 80.6974 193.305 80.4247 193.403C80.1558 193.502 79.9399 193.644 79.777 193.83C79.6179 194.011 79.5384 194.254 79.5384 194.557C79.5384 194.977 79.6937 195.295 80.0043 195.511C80.3149 195.723 80.7107 195.83 81.1918 195.83ZM89.0909 191.818V197H87.392V188.273H89.0227V189.693H89.1307C89.3314 189.231 89.6458 188.86 90.0739 188.58C90.5057 188.299 91.0492 188.159 91.7045 188.159C92.2992 188.159 92.8201 188.284 93.267 188.534C93.714 188.78 94.0606 189.148 94.3068 189.636C94.553 190.125 94.6761 190.729 94.6761 191.449V197H92.9773V191.653C92.9773 191.021 92.8125 190.527 92.483 190.17C92.1534 189.811 91.7008 189.631 91.125 189.631C90.7311 189.631 90.3807 189.716 90.0739 189.886C89.7708 190.057 89.5303 190.307 89.3523 190.636C89.178 190.962 89.0909 191.356 89.0909 191.818ZM99.4943 197.193C98.9413 197.193 98.4413 197.091 97.9943 196.886C97.5473 196.678 97.1932 196.377 96.9318 195.983C96.6742 195.589 96.5455 195.106 96.5455 194.534C96.5455 194.042 96.6402 193.636 96.8295 193.318C97.0189 193 97.2746 192.748 97.5966 192.562C97.9186 192.377 98.2784 192.237 98.6761 192.142C99.0739 192.047 99.4792 191.975 99.892 191.926C100.415 191.866 100.839 191.816 101.165 191.778C101.491 191.737 101.727 191.67 101.875 191.58C102.023 191.489 102.097 191.341 102.097 191.136V191.097C102.097 190.6 101.956 190.216 101.676 189.943C101.4 189.67 100.987 189.534 100.438 189.534C99.8655 189.534 99.4148 189.661 99.0852 189.915C98.7595 190.165 98.5341 190.443 98.4091 190.75L96.8125 190.386C97.0019 189.856 97.2784 189.428 97.642 189.102C98.0095 188.773 98.4318 188.534 98.9091 188.386C99.3864 188.235 99.8883 188.159 100.415 188.159C100.763 188.159 101.133 188.201 101.523 188.284C101.917 188.364 102.284 188.511 102.625 188.727C102.97 188.943 103.252 189.252 103.472 189.653C103.691 190.051 103.801 190.568 103.801 191.205V197H102.142V195.807H102.074C101.964 196.027 101.799 196.242 101.58 196.455C101.36 196.667 101.078 196.843 100.733 196.983C100.388 197.123 99.9754 197.193 99.4943 197.193ZM99.8636 195.83C100.333 195.83 100.735 195.737 101.068 195.551C101.405 195.366 101.661 195.123 101.835 194.824C102.013 194.521 102.102 194.197 102.102 193.852V192.727C102.042 192.788 101.924 192.845 101.75 192.898C101.58 192.947 101.384 192.991 101.165 193.028C100.945 193.062 100.731 193.095 100.523 193.125C100.314 193.152 100.14 193.174 100 193.193C99.6705 193.235 99.3693 193.305 99.0966 193.403C98.8277 193.502 98.6117 193.644 98.4489 193.83C98.2898 194.011 98.2102 194.254 98.2102 194.557C98.2102 194.977 98.3655 195.295 98.6761 195.511C98.9867 195.723 99.3826 195.83 99.8636 195.83Z" fill="#F2F2F2"/>
<g clip-path="url(#clip5_281_18784)">
<path d="M32 236C33.6569 236 35 234.657 35 233C35 231.343 33.6569 230 32 230C30.3431 230 29 231.343 29 233C29 234.657 30.3431 236 32 236Z" stroke="#2C4357" stroke-width="1.5" stroke-linecap="round" stroke-linejoin="round"/>
<path d="M29.4999 234.66C29.1433 235.197 28.6235 235.604 28.0173 235.823C27.4111 236.041 26.7508 236.058 26.134 235.872C25.5172 235.686 24.9767 235.306 24.5926 234.789C24.2084 234.271 24.001 233.644 24.001 233C24.001 232.356 24.2084 231.729 24.5926 231.211C24.9767 230.694 25.5172 230.314 26.134 230.128C26.7508 229.942 27.4111 229.959 28.0173 230.177C28.6235 230.396 29.1433 230.803 29.4999 231.34" stroke="#2C4357" stroke-width="1.5" stroke-linecap="round" stroke-linejoin="round"/>
<path d="M31.82 235.99C31.942 236.313 32.003 236.655 32 237C32 237.796 31.6839 238.559 31.1213 239.121C30.5587 239.684 29.7956 240 29 240C28.2044 240 27.4413 239.684 26.8787 239.121C26.3161 238.559 26 237.796 26 237C26.0005 236.619 26.0752 236.242 26.22 235.89M34.5 234.66C34.8565 235.197 35.3763 235.604 35.9825 235.823C36.5887 236.041 37.2491 236.058 37.8659 235.872C38.4827 235.686 39.0231 235.306 39.4073 234.789C39.7915 234.271 39.9989 233.644 39.9989 233C39.9989 232.356 39.7915 231.729 39.4073 231.211C39.0231 230.694 38.4827 230.314 37.8659 230.128C37.2491 229.942 36.5887 229.959 35.9825 230.177C35.3763 230.396 34.8565 230.803 34.5 231.34" stroke="#2C4357" stroke-width="1.5" stroke-linecap="round" stroke-linejoin="round"/>
<path d="M32.1801 235.99C32.0581 236.312 31.9971 236.655 32.0001 237C32.0001 237.795 32.3162 238.558 32.8788 239.121C33.4414 239.684 34.2045 240 35.0001 240C35.7958 240 36.5588 239.684 37.1214 239.121C37.684 238.558 38.0001 237.795 38.0001 237C37.9996 236.619 37.9249 236.242 37.7801 235.89" stroke="#2C4357" stroke-width="1.5" stroke-linecap="round" stroke-linejoin="round"/>
<path d="M34.8201 239.99C34.9421 240.313 35.0031 240.655 35.0001 241C35.0001 241.796 34.684 242.559 34.1214 243.121C33.5588 243.684 32.7958 244 32.0001 244C31.2045 244 30.4414 243.684 29.8788 243.121C29.3162 242.559 29.0001 241.796 29.0001 241C28.9971 240.655 29.0581 240.313 29.1801 239.99M31.9475 230V228.723C31.9475 228.071 31.6887 227.447 31.2281 226.986C30.7675 226.525 30.1427 226.267 29.4913 226.267H29.0001M32.8687 230C32.7477 230 32.6279 229.976 32.5162 229.93C32.4044 229.884 32.3028 229.816 32.2173 229.73C32.1318 229.645 32.0639 229.543 32.0176 229.431C31.9713 229.32 31.9475 229.2 31.9475 229.079C31.9475 227.997 32.3772 226.96 33.1421 226.195C33.907 225.43 34.9445 225 36.0263 225C36.1472 225 36.267 225.024 36.3788 225.07C36.4906 225.116 36.5921 225.184 36.6777 225.27C36.7632 225.355 36.8311 225.457 36.8774 225.569C36.9237 225.68 36.9475 225.8 36.9475 225.921C36.9475 226.457 36.842 226.987 36.637 227.482C36.432 227.977 36.1316 228.427 35.7528 228.805C35.3741 229.184 34.9244 229.485 34.4296 229.69C33.9347 229.894 33.4043 230 32.8687 230Z" stroke="#2C4357" stroke-width="1.5" stroke-linecap="round" stroke-linejoin="round"/>
</g>
<path d="M57.1534 233.04C57.0436 232.695 56.8958 232.386 56.7102 232.114C56.5284 231.837 56.3106 231.602 56.0568 231.409C55.803 231.212 55.5133 231.062 55.1875 230.96C54.8655 230.858 54.5114 230.807 54.125 230.807C53.4697 230.807 52.8788 230.975 52.3523 231.312C51.8258 231.65 51.4091 232.144 51.1023 232.795C50.7992 233.443 50.6477 234.237 50.6477 235.176C50.6477 236.119 50.8011 236.917 51.108 237.568C51.4148 238.22 51.8352 238.714 52.3693 239.051C52.9034 239.388 53.5114 239.557 54.1932 239.557C54.8258 239.557 55.3769 239.428 55.8466 239.17C56.3201 238.913 56.6856 238.549 56.9432 238.08C57.2045 237.606 57.3352 237.049 57.3352 236.409L57.7898 236.494H54.4602V235.045H59.0341V236.369C59.0341 237.347 58.8258 238.195 58.4091 238.915C57.9962 239.631 57.4242 240.184 56.6932 240.574C55.9659 240.964 55.1326 241.159 54.1932 241.159C53.1402 241.159 52.2159 240.917 51.4205 240.432C50.6288 239.947 50.0114 239.259 49.5682 238.369C49.125 237.475 48.9034 236.415 48.9034 235.188C48.9034 234.259 49.0322 233.426 49.2898 232.688C49.5473 231.949 49.9091 231.322 50.375 230.807C50.8447 230.288 51.3958 229.892 52.0284 229.619C52.6648 229.343 53.3598 229.205 54.1136 229.205C54.7424 229.205 55.3277 229.297 55.8693 229.483C56.4148 229.669 56.8996 229.932 57.3239 230.273C57.7519 230.614 58.1061 231.019 58.3864 231.489C58.6667 231.955 58.8561 232.472 58.9545 233.04H57.1534ZM61.1264 241V232.273H62.7685V233.659H62.8594C63.0185 233.189 63.2988 232.82 63.7003 232.551C64.1056 232.278 64.5639 232.142 65.0753 232.142C65.1813 232.142 65.3063 232.146 65.4503 232.153C65.598 232.161 65.7135 232.17 65.7969 232.182V233.807C65.7287 233.788 65.6075 233.767 65.4332 233.744C65.259 233.718 65.0848 233.705 64.9105 233.705C64.509 233.705 64.151 233.79 63.8366 233.96C63.526 234.127 63.2798 234.36 63.098 234.659C62.9162 234.955 62.8253 235.292 62.8253 235.67V241H61.1264ZM69.7287 241.193C69.1757 241.193 68.6757 241.091 68.2287 240.886C67.7817 240.678 67.4276 240.377 67.1662 239.983C66.9086 239.589 66.7798 239.106 66.7798 238.534C66.7798 238.042 66.8745 237.636 67.0639 237.318C67.2533 237 67.509 236.748 67.831 236.562C68.1529 236.377 68.5128 236.237 68.9105 236.142C69.3082 236.047 69.7135 235.975 70.1264 235.926C70.6491 235.866 71.0734 235.816 71.3991 235.778C71.7249 235.737 71.9616 235.67 72.1094 235.58C72.2571 235.489 72.331 235.341 72.331 235.136V235.097C72.331 234.6 72.1908 234.216 71.9105 233.943C71.634 233.67 71.2211 233.534 70.6719 233.534C70.0999 233.534 69.6491 233.661 69.3196 233.915C68.9938 234.165 68.7685 234.443 68.6435 234.75L67.0469 234.386C67.2363 233.856 67.5128 233.428 67.8764 233.102C68.2438 232.773 68.6662 232.534 69.1435 232.386C69.6207 232.235 70.1226 232.159 70.6491 232.159C70.9976 232.159 71.367 232.201 71.7571 232.284C72.151 232.364 72.5185 232.511 72.8594 232.727C73.2041 232.943 73.4863 233.252 73.706 233.653C73.9257 234.051 74.0355 234.568 74.0355 235.205V241H72.3764V239.807H72.3082C72.1984 240.027 72.0336 240.242 71.8139 240.455C71.5942 240.667 71.312 240.843 70.9673 240.983C70.6226 241.123 70.2098 241.193 69.7287 241.193ZM70.098 239.83C70.5677 239.83 70.9692 239.737 71.3026 239.551C71.6397 239.366 71.8954 239.123 72.0696 238.824C72.2476 238.521 72.3366 238.197 72.3366 237.852V236.727C72.276 236.788 72.1586 236.845 71.9844 236.898C71.8139 236.947 71.6188 236.991 71.3991 237.028C71.1795 237.062 70.9654 237.095 70.7571 237.125C70.5488 237.152 70.3745 237.174 70.2344 237.193C69.9048 237.235 69.6037 237.305 69.331 237.403C69.062 237.502 68.8461 237.644 68.6832 237.83C68.5241 238.011 68.4446 238.254 68.4446 238.557C68.4446 238.977 68.5999 239.295 68.9105 239.511C69.2211 239.723 69.617 239.83 70.098 239.83ZM76.2983 244.273V232.273H77.9574V233.688H78.0994C78.1979 233.506 78.34 233.295 78.5256 233.057C78.7112 232.818 78.9688 232.61 79.2983 232.432C79.6278 232.25 80.0634 232.159 80.6051 232.159C81.3097 232.159 81.9384 232.337 82.4915 232.693C83.0445 233.049 83.4782 233.562 83.7926 234.233C84.1108 234.903 84.2699 235.71 84.2699 236.653C84.2699 237.597 84.1127 238.405 83.7983 239.08C83.4839 239.75 83.0521 240.267 82.5028 240.631C81.9536 240.991 81.3267 241.17 80.6222 241.17C80.0919 241.17 79.6581 241.081 79.321 240.903C78.9877 240.725 78.7263 240.517 78.5369 240.278C78.3475 240.04 78.2017 239.828 78.0994 239.642H77.9972V244.273H76.2983ZM77.9631 236.636C77.9631 237.25 78.0521 237.788 78.2301 238.25C78.4081 238.712 78.6657 239.074 79.0028 239.335C79.34 239.593 79.7528 239.722 80.2415 239.722C80.7491 239.722 81.1733 239.587 81.5142 239.318C81.8551 239.045 82.1127 238.676 82.2869 238.21C82.465 237.744 82.554 237.22 82.554 236.636C82.554 236.061 82.4669 235.544 82.2926 235.085C82.1222 234.627 81.8646 234.265 81.5199 234C81.179 233.735 80.7528 233.602 80.2415 233.602C79.7491 233.602 79.3324 233.729 78.9915 233.983C78.6544 234.237 78.3987 234.591 78.2244 235.045C78.0502 235.5 77.9631 236.03 77.9631 236.636ZM89.9347 241.176C89.0748 241.176 88.3343 240.992 87.7131 240.625C87.0956 240.254 86.6184 239.733 86.2812 239.062C85.9479 238.388 85.7812 237.598 85.7812 236.693C85.7812 235.799 85.9479 235.011 86.2812 234.33C86.6184 233.648 87.0881 233.116 87.6903 232.733C88.2964 232.35 89.0047 232.159 89.8153 232.159C90.3078 232.159 90.785 232.241 91.2472 232.403C91.7093 232.566 92.1241 232.822 92.4915 233.17C92.8589 233.519 93.1487 233.972 93.3608 234.528C93.5729 235.081 93.679 235.754 93.679 236.545V237.148H86.7415V235.875H92.0142C92.0142 235.428 91.9233 235.032 91.7415 234.688C91.5597 234.339 91.304 234.064 90.9744 233.864C90.6487 233.663 90.2661 233.562 89.8267 233.562C89.3494 233.562 88.9328 233.68 88.5767 233.915C88.2244 234.146 87.9517 234.449 87.7585 234.824C87.5691 235.195 87.4744 235.598 87.4744 236.034V237.028C87.4744 237.612 87.5767 238.108 87.7812 238.517C87.9896 238.926 88.2794 239.239 88.6506 239.455C89.0218 239.667 89.4555 239.773 89.9517 239.773C90.2737 239.773 90.5672 239.727 90.8324 239.636C91.0975 239.542 91.3267 239.402 91.5199 239.216C91.7131 239.03 91.8608 238.801 91.9631 238.528L93.571 238.818C93.4422 239.292 93.2112 239.706 92.8778 240.062C92.5483 240.415 92.1335 240.689 91.6335 240.886C91.1373 241.08 90.571 241.176 89.9347 241.176ZM102.104 234.403L100.564 234.676C100.5 234.479 100.397 234.292 100.257 234.114C100.121 233.936 99.9351 233.79 99.7003 233.676C99.4654 233.562 99.1719 233.506 98.8196 233.506C98.3385 233.506 97.937 233.614 97.6151 233.83C97.2931 234.042 97.1321 234.316 97.1321 234.653C97.1321 234.945 97.2401 235.18 97.456 235.358C97.6719 235.536 98.0204 235.682 98.5014 235.795L99.8878 236.114C100.691 236.299 101.289 236.585 101.683 236.972C102.077 237.358 102.274 237.86 102.274 238.477C102.274 239 102.123 239.466 101.82 239.875C101.52 240.28 101.102 240.598 100.564 240.83C100.03 241.061 99.4105 241.176 98.706 241.176C97.7287 241.176 96.9313 240.968 96.3139 240.551C95.6965 240.131 95.3177 239.534 95.1776 238.761L96.8196 238.511C96.9219 238.939 97.1321 239.263 97.4503 239.483C97.7685 239.699 98.1832 239.807 98.6946 239.807C99.2514 239.807 99.6965 239.691 100.03 239.46C100.363 239.225 100.53 238.939 100.53 238.602C100.53 238.33 100.428 238.1 100.223 237.915C100.022 237.729 99.7135 237.589 99.2969 237.494L97.8196 237.17C97.0052 236.985 96.4029 236.689 96.0128 236.284C95.6264 235.879 95.4332 235.366 95.4332 234.744C95.4332 234.229 95.5772 233.778 95.8651 233.392C96.1529 233.006 96.5507 232.705 97.0582 232.489C97.5658 232.269 98.1473 232.159 98.8026 232.159C99.7457 232.159 100.488 232.364 101.03 232.773C101.571 233.178 101.929 233.722 102.104 234.403Z" fill="#2C4357"/>
<g clip-path="url(#clip6_281_18784)">
<path d="M35.414 286.586L35.679 286.321C36.7322 285.268 37.5675 284.017 38.1374 282.641C38.7072 281.265 39.0003 279.79 39 278.3C39.0001 277.45 38.7485 276.62 38.277 275.913C37.8842 275.324 37.3522 274.842 36.7283 274.508C36.1043 274.174 35.4076 274 34.7 274H29.3C28.5916 274 27.8942 274.175 27.2696 274.509C26.645 274.843 26.1127 275.326 25.72 275.916C25.2501 276.622 24.9996 277.452 25 278.3C25.0002 281.307 26.1947 284.191 28.321 286.318L28.586 286.583C29.0341 287.032 29.5662 287.388 30.152 287.631C30.7378 287.874 31.3658 288 32 288C32.634 288 33.2619 287.875 33.8476 287.633C34.4334 287.39 34.9657 287.034 35.414 286.586Z" stroke="#2C4357" stroke-width="1.5" stroke-linecap="round" stroke-linejoin="round"/>
<path d="M35.166 273.166C36.0634 272.269 36.2688 271.019 35.6249 270.375C34.9809 269.731 33.7313 269.937 32.8339 270.834C31.9365 271.731 31.731 272.981 32.375 273.625C33.019 274.269 34.2685 274.064 35.166 273.166Z" stroke="#2C4357" stroke-width="1.5" stroke-linecap="round" stroke-linejoin="round"/>
<path d="M31.6244 273.626C32.2684 272.982 32.0629 271.732 31.1655 270.835C30.268 269.937 29.0185 269.732 28.3745 270.376C27.7305 271.02 27.936 272.269 28.8334 273.167C29.7309 274.064 30.9804 274.27 31.6244 273.626Z" stroke="#2C4357" stroke-width="1.5" stroke-linecap="round" stroke-linejoin="round"/>
<path d="M33.875 280.821V281.679" stroke="#2C4357" stroke-width="1.5" stroke-linecap="round" stroke-linejoin="round"/>
<path d="M35.75 278.25V279.107" stroke="#2C4357" stroke-width="1.5" stroke-linecap="round" stroke-linejoin="round"/>
<path d="M32 278.25V279.107" stroke="#2C4357" stroke-width="1.5" stroke-linecap="round" stroke-linejoin="round"/>
<path d="M28.25 278.25V279.107" stroke="#2C4357" stroke-width="1.5" stroke-linecap="round" stroke-linejoin="round"/>
<path d="M30.125 280.821V281.679" stroke="#2C4357" stroke-width="1.5" stroke-linecap="round" stroke-linejoin="round"/>
<path d="M32 283.3V284.157" stroke="#2C4357" stroke-width="1.5" stroke-linecap="round" stroke-linejoin="round"/>
</g>
<path d="M55.625 276.42C55.5644 275.883 55.3144 275.466 54.875 275.17C54.4356 274.871 53.8826 274.722 53.2159 274.722C52.7386 274.722 52.3258 274.797 51.9773 274.949C51.6288 275.097 51.358 275.301 51.1648 275.562C50.9754 275.82 50.8807 276.114 50.8807 276.443C50.8807 276.72 50.9451 276.958 51.0739 277.159C51.2064 277.36 51.3788 277.528 51.5909 277.665C51.8068 277.797 52.0379 277.909 52.2841 278C52.5303 278.087 52.767 278.159 52.9943 278.216L54.1307 278.511C54.5019 278.602 54.8826 278.725 55.2727 278.881C55.6629 279.036 56.0246 279.241 56.358 279.494C56.6913 279.748 56.9602 280.062 57.1648 280.438C57.3731 280.812 57.4773 281.261 57.4773 281.784C57.4773 282.443 57.3068 283.028 56.9659 283.54C56.6288 284.051 56.1383 284.455 55.4943 284.75C54.8542 285.045 54.0795 285.193 53.1705 285.193C52.2992 285.193 51.5455 285.055 50.9091 284.778C50.2727 284.502 49.7746 284.11 49.4148 283.602C49.0549 283.091 48.8561 282.485 48.8182 281.784H50.5795C50.6136 282.205 50.75 282.555 50.9886 282.835C51.2311 283.112 51.5398 283.318 51.9148 283.455C52.2936 283.587 52.7083 283.653 53.1591 283.653C53.6553 283.653 54.0966 283.576 54.483 283.42C54.8731 283.261 55.1799 283.042 55.4034 282.761C55.6269 282.477 55.7386 282.146 55.7386 281.767C55.7386 281.422 55.6402 281.14 55.4432 280.92C55.25 280.701 54.9867 280.519 54.6534 280.375C54.3239 280.231 53.9508 280.104 53.5341 279.994L52.1591 279.619C51.2273 279.366 50.4886 278.992 49.9432 278.5C49.4015 278.008 49.1307 277.356 49.1307 276.545C49.1307 275.875 49.3125 275.29 49.6761 274.79C50.0398 274.29 50.5322 273.902 51.1534 273.625C51.7746 273.345 52.4754 273.205 53.2557 273.205C54.0436 273.205 54.7386 273.343 55.3409 273.619C55.947 273.896 56.4242 274.277 56.7727 274.761C57.1212 275.242 57.303 275.795 57.3182 276.42H55.625ZM63.5128 276.273V277.636H58.7457V276.273H63.5128ZM60.0241 274.182H61.723V282.438C61.723 282.767 61.7723 283.015 61.8707 283.182C61.9692 283.345 62.0961 283.456 62.2514 283.517C62.4105 283.574 62.5829 283.602 62.7685 283.602C62.9048 283.602 63.0241 283.593 63.1264 283.574C63.2287 283.555 63.3082 283.54 63.3651 283.528L63.6719 284.932C63.5734 284.97 63.4332 285.008 63.2514 285.045C63.0696 285.087 62.8423 285.11 62.5696 285.114C62.1226 285.121 61.706 285.042 61.3196 284.875C60.9332 284.708 60.6207 284.451 60.3821 284.102C60.1435 283.754 60.0241 283.316 60.0241 282.79V274.182ZM65.392 285V276.273H67.0341V277.659H67.125C67.2841 277.189 67.5644 276.82 67.9659 276.551C68.3712 276.278 68.8295 276.142 69.3409 276.142C69.447 276.142 69.572 276.146 69.7159 276.153C69.8636 276.161 69.9792 276.17 70.0625 276.182V277.807C69.9943 277.788 69.8731 277.767 69.6989 277.744C69.5246 277.718 69.3504 277.705 69.1761 277.705C68.7746 277.705 68.4167 277.79 68.1023 277.96C67.7917 278.127 67.5455 278.36 67.3636 278.659C67.1818 278.955 67.0909 279.292 67.0909 279.67V285H65.392ZM73.9943 285.193C73.4413 285.193 72.9413 285.091 72.4943 284.886C72.0473 284.678 71.6932 284.377 71.4318 283.983C71.1742 283.589 71.0455 283.106 71.0455 282.534C71.0455 282.042 71.1402 281.636 71.3295 281.318C71.5189 281 71.7746 280.748 72.0966 280.562C72.4186 280.377 72.7784 280.237 73.1761 280.142C73.5739 280.047 73.9792 279.975 74.392 279.926C74.9148 279.866 75.339 279.816 75.6648 279.778C75.9905 279.737 76.2273 279.67 76.375 279.58C76.5227 279.489 76.5966 279.341 76.5966 279.136V279.097C76.5966 278.6 76.4564 278.216 76.1761 277.943C75.8996 277.67 75.4867 277.534 74.9375 277.534C74.3655 277.534 73.9148 277.661 73.5852 277.915C73.2595 278.165 73.0341 278.443 72.9091 278.75L71.3125 278.386C71.5019 277.856 71.7784 277.428 72.142 277.102C72.5095 276.773 72.9318 276.534 73.4091 276.386C73.8864 276.235 74.3883 276.159 74.9148 276.159C75.2633 276.159 75.6326 276.201 76.0227 276.284C76.4167 276.364 76.7841 276.511 77.125 276.727C77.4697 276.943 77.7519 277.252 77.9716 277.653C78.1913 278.051 78.3011 278.568 78.3011 279.205V285H76.642V283.807H76.5739C76.464 284.027 76.2992 284.242 76.0795 284.455C75.8598 284.667 75.5777 284.843 75.233 284.983C74.8883 285.123 74.4754 285.193 73.9943 285.193ZM74.3636 283.83C74.8333 283.83 75.2348 283.737 75.5682 283.551C75.9053 283.366 76.161 283.123 76.3352 282.824C76.5133 282.521 76.6023 282.197 76.6023 281.852V280.727C76.5417 280.788 76.4242 280.845 76.25 280.898C76.0795 280.947 75.8845 280.991 75.6648 281.028C75.4451 281.062 75.2311 281.095 75.0227 281.125C74.8144 281.152 74.6402 281.174 74.5 281.193C74.1705 281.235 73.8693 281.305 73.5966 281.403C73.3277 281.502 73.1117 281.644 72.9489 281.83C72.7898 282.011 72.7102 282.254 72.7102 282.557C72.7102 282.977 72.8655 283.295 73.1761 283.511C73.4867 283.723 73.8826 283.83 74.3636 283.83ZM82.456 285L79.8878 276.273H81.6435L83.3537 282.682H83.4389L85.1548 276.273H86.9105L88.6151 282.653H88.7003L90.3991 276.273H92.1548L89.5923 285H87.8594L86.0866 278.699H85.956L84.1832 285H82.456ZM93.9034 285V273.364H95.6023V277.688H95.7045C95.803 277.506 95.9451 277.295 96.1307 277.057C96.3163 276.818 96.5739 276.61 96.9034 276.432C97.233 276.25 97.6686 276.159 98.2102 276.159C98.9148 276.159 99.5436 276.337 100.097 276.693C100.65 277.049 101.083 277.562 101.398 278.233C101.716 278.903 101.875 279.71 101.875 280.653C101.875 281.597 101.718 282.405 101.403 283.08C101.089 283.75 100.657 284.267 100.108 284.631C99.5587 284.991 98.9318 285.17 98.2273 285.17C97.697 285.17 97.2633 285.081 96.9261 284.903C96.5928 284.725 96.3314 284.517 96.142 284.278C95.9527 284.04 95.8068 283.828 95.7045 283.642H95.5625V285H93.9034ZM95.5682 280.636C95.5682 281.25 95.6572 281.788 95.8352 282.25C96.0133 282.712 96.2708 283.074 96.608 283.335C96.9451 283.593 97.358 283.722 97.8466 283.722C98.3542 283.722 98.7784 283.587 99.1193 283.318C99.4602 283.045 99.7178 282.676 99.892 282.21C100.07 281.744 100.159 281.22 100.159 280.636C100.159 280.061 100.072 279.544 99.8977 279.085C99.7273 278.627 99.4697 278.265 99.125 278C98.7841 277.735 98.358 277.602 97.8466 277.602C97.3542 277.602 96.9375 277.729 96.5966 277.983C96.2595 278.237 96.0038 278.591 95.8295 279.045C95.6553 279.5 95.5682 280.03 95.5682 280.636ZM107.544 285.176C106.684 285.176 105.944 284.992 105.322 284.625C104.705 284.254 104.228 283.733 103.891 283.062C103.557 282.388 103.391 281.598 103.391 280.693C103.391 279.799 103.557 279.011 103.891 278.33C104.228 277.648 104.697 277.116 105.3 276.733C105.906 276.35 106.614 276.159 107.425 276.159C107.917 276.159 108.394 276.241 108.857 276.403C109.319 276.566 109.733 276.822 110.101 277.17C110.468 277.519 110.758 277.972 110.97 278.528C111.182 279.081 111.288 279.754 111.288 280.545V281.148H104.351V279.875H109.624C109.624 279.428 109.533 279.032 109.351 278.688C109.169 278.339 108.913 278.064 108.584 277.864C108.258 277.663 107.875 277.562 107.436 277.562C106.959 277.562 106.542 277.68 106.186 277.915C105.834 278.146 105.561 278.449 105.368 278.824C105.179 279.195 105.084 279.598 105.084 280.034V281.028C105.084 281.612 105.186 282.108 105.391 282.517C105.599 282.926 105.889 283.239 106.26 283.455C106.631 283.667 107.065 283.773 107.561 283.773C107.883 283.773 108.177 283.727 108.442 283.636C108.707 283.542 108.936 283.402 109.129 283.216C109.322 283.03 109.47 282.801 109.572 282.528L111.18 282.818C111.052 283.292 110.821 283.706 110.487 284.062C110.158 284.415 109.743 284.689 109.243 284.886C108.747 285.08 108.18 285.176 107.544 285.176ZM113.173 285V276.273H114.815V277.659H114.906C115.065 277.189 115.346 276.82 115.747 276.551C116.152 276.278 116.611 276.142 117.122 276.142C117.228 276.142 117.353 276.146 117.497 276.153C117.645 276.161 117.76 276.17 117.844 276.182V277.807C117.776 277.788 117.654 277.767 117.48 277.744C117.306 277.718 117.132 277.705 116.957 277.705C116.556 277.705 116.198 277.79 115.884 277.96C115.573 278.127 115.327 278.36 115.145 278.659C114.963 278.955 114.872 279.292 114.872 279.67V285H113.173ZM119.314 285V276.273H120.956V277.659H121.047C121.206 277.189 121.486 276.82 121.888 276.551C122.293 276.278 122.751 276.142 123.263 276.142C123.369 276.142 123.494 276.146 123.638 276.153C123.786 276.161 123.901 276.17 123.984 276.182V277.807C123.916 277.788 123.795 277.767 123.621 277.744C123.446 277.718 123.272 277.705 123.098 277.705C122.696 277.705 122.339 277.79 122.024 277.96C121.714 278.127 121.467 278.36 121.286 278.659C121.104 278.955 121.013 279.292 121.013 279.67V285H119.314ZM126.794 288.273C126.54 288.273 126.309 288.252 126.101 288.21C125.893 288.172 125.737 288.131 125.635 288.085L126.044 286.693C126.355 286.777 126.631 286.813 126.874 286.801C127.116 286.79 127.33 286.699 127.516 286.528C127.705 286.358 127.872 286.08 128.016 285.693L128.226 285.114L125.033 276.273H126.851L129.061 283.045H129.152L131.362 276.273H133.186L129.589 286.165C129.423 286.619 129.211 287.004 128.953 287.318C128.696 287.636 128.389 287.875 128.033 288.034C127.677 288.193 127.264 288.273 126.794 288.273Z" fill="#2C4357"/>
<g clip-path="url(#clip7_281_18784)">
<path d="M32.21 323.21L36 327" stroke="#2C4357" stroke-width="1.5" stroke-linecap="round" stroke-linejoin="round"/>
<path d="M30.5 324.04V328.68" stroke="#2C4357" stroke-width="1.5" stroke-linecap="round" stroke-linejoin="round"/>
<path d="M23.7161 327.662C24.0675 327.303 24.6328 327.267 25.0271 327.578C28.5566 330.428 33.7282 329.877 36.5781 326.347C39.0092 323.337 39.0092 319.037 36.5781 316.027C36.2671 315.632 36.3034 315.067 36.6621 314.716L37.0851 314.292C37.4841 313.899 38.1254 313.905 38.5177 314.304C38.5414 314.328 38.5639 314.353 38.5851 314.38C42.3412 319.022 41.6231 325.83 36.9811 329.586C33.0153 332.795 27.3463 332.795 23.3802 329.587C22.944 329.236 22.8744 328.599 23.2247 328.162C23.2459 328.136 23.2684 328.111 23.2922 328.087L23.7161 327.662Z" stroke="#2C4357" stroke-width="1.5" stroke-linecap="round" stroke-linejoin="round"/>
<path d="M28.1719 323.206C29.2858 324.32 31.0919 324.32 32.2059 323.206C33.3198 322.092 33.3198 320.286 32.2059 319.172" stroke="#2C4357" stroke-width="1.5" stroke-linecap="round" stroke-linejoin="round"/>
<path d="M36.6602 314.72L23.7202 327.66" stroke="#2C4357" stroke-width="1.5" stroke-linecap="round" stroke-linejoin="round"/>
<path d="M33.04 321.5H37.68" stroke="#2C4357" stroke-width="1.5" stroke-linecap="round" stroke-linejoin="round"/>
</g>
<path d="M59.3864 323.182C59.3864 324.424 59.1591 325.492 58.7045 326.386C58.25 327.277 57.6269 327.962 56.8352 328.443C56.0473 328.92 55.1515 329.159 54.1477 329.159C53.1402 329.159 52.2405 328.92 51.4489 328.443C50.661 327.962 50.0398 327.275 49.5852 326.381C49.1307 325.487 48.9034 324.42 48.9034 323.182C48.9034 321.939 49.1307 320.873 49.5852 319.983C50.0398 319.089 50.661 318.403 51.4489 317.926C52.2405 317.445 53.1402 317.205 54.1477 317.205C55.1515 317.205 56.0473 317.445 56.8352 317.926C57.6269 318.403 58.25 319.089 58.7045 319.983C59.1591 320.873 59.3864 321.939 59.3864 323.182ZM57.6477 323.182C57.6477 322.235 57.4943 321.437 57.1875 320.79C56.8845 320.138 56.4678 319.646 55.9375 319.312C55.411 318.975 54.8144 318.807 54.1477 318.807C53.4773 318.807 52.8788 318.975 52.3523 319.312C51.8258 319.646 51.4091 320.138 51.1023 320.79C50.7992 321.437 50.6477 322.235 50.6477 323.182C50.6477 324.129 50.7992 324.928 51.1023 325.58C51.4091 326.227 51.8258 326.72 52.3523 327.057C52.8788 327.39 53.4773 327.557 54.1477 327.557C54.8144 327.557 55.411 327.39 55.9375 327.057C56.4678 326.72 56.8845 326.227 57.1875 325.58C57.4943 324.928 57.6477 324.129 57.6477 323.182ZM61.4389 329V320.273H63.081V321.659H63.1719C63.331 321.189 63.6113 320.82 64.0128 320.551C64.4181 320.278 64.8764 320.142 65.3878 320.142C65.4938 320.142 65.6188 320.146 65.7628 320.153C65.9105 320.161 66.026 320.17 66.1094 320.182V321.807C66.0412 321.788 65.92 321.767 65.7457 321.744C65.5715 321.718 65.3973 321.705 65.223 321.705C64.8215 321.705 64.4635 321.79 64.1491 321.96C63.8385 322.127 63.5923 322.36 63.4105 322.659C63.2287 322.955 63.1378 323.292 63.1378 323.67V329H61.4389ZM70.0412 329.193C69.4882 329.193 68.9882 329.091 68.5412 328.886C68.0942 328.678 67.7401 328.377 67.4787 327.983C67.2211 327.589 67.0923 327.106 67.0923 326.534C67.0923 326.042 67.187 325.636 67.3764 325.318C67.5658 325 67.8215 324.748 68.1435 324.562C68.4654 324.377 68.8253 324.237 69.223 324.142C69.6207 324.047 70.026 323.975 70.4389 323.926C70.9616 323.866 71.3859 323.816 71.7116 323.778C72.0374 323.737 72.2741 323.67 72.4219 323.58C72.5696 323.489 72.6435 323.341 72.6435 323.136V323.097C72.6435 322.6 72.5033 322.216 72.223 321.943C71.9465 321.67 71.5336 321.534 70.9844 321.534C70.4124 321.534 69.9616 321.661 69.6321 321.915C69.3063 322.165 69.081 322.443 68.956 322.75L67.3594 322.386C67.5488 321.856 67.8253 321.428 68.1889 321.102C68.5563 320.773 68.9787 320.534 69.456 320.386C69.9332 320.235 70.4351 320.159 70.9616 320.159C71.3101 320.159 71.6795 320.201 72.0696 320.284C72.4635 320.364 72.831 320.511 73.1719 320.727C73.5166 320.943 73.7988 321.252 74.0185 321.653C74.2382 322.051 74.348 322.568 74.348 323.205V329H72.6889V327.807H72.6207C72.5109 328.027 72.3461 328.242 72.1264 328.455C71.9067 328.667 71.6245 328.843 71.2798 328.983C70.9351 329.123 70.5223 329.193 70.0412 329.193ZM70.4105 327.83C70.8802 327.83 71.2817 327.737 71.6151 327.551C71.9522 327.366 72.2079 327.123 72.3821 326.824C72.5601 326.521 72.6491 326.197 72.6491 325.852V324.727C72.5885 324.788 72.4711 324.845 72.2969 324.898C72.1264 324.947 71.9313 324.991 71.7116 325.028C71.492 325.062 71.2779 325.095 71.0696 325.125C70.8613 325.152 70.687 325.174 70.5469 325.193C70.2173 325.235 69.9162 325.305 69.6435 325.403C69.3745 325.502 69.1586 325.644 68.9957 325.83C68.8366 326.011 68.7571 326.254 68.7571 326.557C68.7571 326.977 68.9124 327.295 69.223 327.511C69.5336 327.723 69.9295 327.83 70.4105 327.83ZM78.3097 323.818V329H76.6108V320.273H78.2415V321.693H78.3494C78.5502 321.231 78.8646 320.86 79.2926 320.58C79.7244 320.299 80.268 320.159 80.9233 320.159C81.518 320.159 82.0388 320.284 82.4858 320.534C82.9328 320.78 83.2794 321.148 83.5256 321.636C83.7718 322.125 83.8949 322.729 83.8949 323.449V329H82.196V323.653C82.196 323.021 82.0313 322.527 81.7017 322.17C81.3722 321.811 80.9195 321.631 80.3438 321.631C79.9498 321.631 79.5994 321.716 79.2926 321.886C78.9896 322.057 78.7491 322.307 78.571 322.636C78.3968 322.962 78.3097 323.356 78.3097 323.818ZM89.8324 332.455C89.1392 332.455 88.5426 332.364 88.0426 332.182C87.5464 332 87.1411 331.759 86.8267 331.46C86.5123 331.161 86.2775 330.833 86.1222 330.477L87.5824 329.875C87.6847 330.042 87.821 330.218 87.9915 330.403C88.1657 330.593 88.4006 330.754 88.696 330.886C88.9953 331.019 89.3797 331.085 89.8494 331.085C90.4934 331.085 91.0256 330.928 91.446 330.614C91.8665 330.303 92.0767 329.807 92.0767 329.125V327.409H91.9688C91.8665 327.595 91.7188 327.801 91.5256 328.028C91.3362 328.256 91.0748 328.453 90.7415 328.619C90.4081 328.786 89.9744 328.869 89.4403 328.869C88.7509 328.869 88.1297 328.708 87.5767 328.386C87.0275 328.061 86.5919 327.581 86.2699 326.949C85.9517 326.312 85.7926 325.53 85.7926 324.602C85.7926 323.674 85.9498 322.879 86.2642 322.216C86.5824 321.553 87.018 321.045 87.571 320.693C88.1241 320.337 88.7509 320.159 89.4517 320.159C89.9934 320.159 90.4309 320.25 90.7642 320.432C91.0975 320.61 91.357 320.818 91.5426 321.057C91.732 321.295 91.8778 321.506 91.9801 321.688H92.1051V320.273H93.7699V329.193C93.7699 329.943 93.5956 330.559 93.2472 331.04C92.8987 331.521 92.4271 331.877 91.8324 332.108C91.2415 332.339 90.5748 332.455 89.8324 332.455ZM89.8153 327.46C90.304 327.46 90.7169 327.347 91.054 327.119C91.3949 326.888 91.6525 326.559 91.8267 326.131C92.0047 325.699 92.0938 325.182 92.0938 324.58C92.0938 323.992 92.0066 323.475 91.8324 323.028C91.6581 322.581 91.4025 322.233 91.0653 321.983C90.7282 321.729 90.3116 321.602 89.8153 321.602C89.304 321.602 88.8778 321.735 88.5369 322C88.196 322.261 87.9384 322.617 87.7642 323.068C87.5938 323.519 87.5085 324.023 87.5085 324.58C87.5085 325.152 87.5956 325.653 87.7699 326.085C87.9441 326.517 88.2017 326.854 88.5426 327.097C88.8873 327.339 89.3116 327.46 89.8153 327.46ZM99.8097 329.176C98.9498 329.176 98.2093 328.992 97.5881 328.625C96.9706 328.254 96.4934 327.733 96.1562 327.062C95.8229 326.388 95.6562 325.598 95.6562 324.693C95.6562 323.799 95.8229 323.011 96.1562 322.33C96.4934 321.648 96.9631 321.116 97.5653 320.733C98.1714 320.35 98.8797 320.159 99.6903 320.159C100.183 320.159 100.66 320.241 101.122 320.403C101.584 320.566 101.999 320.822 102.366 321.17C102.734 321.519 103.024 321.972 103.236 322.528C103.448 323.081 103.554 323.754 103.554 324.545V325.148H96.6165V323.875H101.889C101.889 323.428 101.798 323.032 101.616 322.688C101.435 322.339 101.179 322.064 100.849 321.864C100.524 321.663 100.141 321.562 99.7017 321.562C99.2244 321.562 98.8078 321.68 98.4517 321.915C98.0994 322.146 97.8267 322.449 97.6335 322.824C97.4441 323.195 97.3494 323.598 97.3494 324.034V325.028C97.3494 325.612 97.4517 326.108 97.6562 326.517C97.8646 326.926 98.1544 327.239 98.5256 327.455C98.8968 327.667 99.3305 327.773 99.8267 327.773C100.149 327.773 100.442 327.727 100.707 327.636C100.973 327.542 101.202 327.402 101.395 327.216C101.588 327.03 101.736 326.801 101.838 326.528L103.446 326.818C103.317 327.292 103.086 327.706 102.753 328.062C102.423 328.415 102.009 328.689 101.509 328.886C101.012 329.08 100.446 329.176 99.8097 329.176Z" fill="#2C4357"/>
<defs>
<linearGradient id="paint0_linear_281_18784" x1="143" y1="169" x2="143" y2="213" gradientUnits="userSpaceOnUse">
<stop stop-color="#009DFF"/>
<stop offset="1" stop-color="#008AE0"/>
</linearGradient>
<clipPath id="clip0_281_18784">
<rect width="24" height="24" fill="white" transform="translate(14 35)"/>
</clipPath>
<clipPath id="clip1_281_18784">
<rect width="24" height="24" fill="white" transform="translate(248 35)"/>
</clipPath>
<clipPath id="clip2_281_18784">
<rect width="24" height="24" fill="white" transform="translate(20 91)"/>
</clipPath>
<clipPath id="clip3_281_18784">
<rect width="24" height="24" fill="white" transform="translate(20 135)"/>
</clipPath>
<clipPath id="clip4_281_18784">
<rect width="24" height="24" fill="white" transform="translate(20 179)"/>
</clipPath>
<clipPath id="clip5_281_18784">
<rect width="24" height="24" fill="white" transform="translate(20 223)"/>
</clipPath>
<clipPath id="clip6_281_18784">
<rect width="24" height="24" fill="white" transform="translate(20 267)"/>
</clipPath>
<clipPath id="clip7_281_18784">
<rect width="24" height="24" fill="white" transform="translate(20 311)"/>
</clipPath>
</defs>
</svg>
