<svg width="326" height="322" viewBox="0 0 326 322" fill="none" xmlns="http://www.w3.org/2000/svg">
<rect x="0.5" y="0.5" width="325" height="321" rx="4.5" stroke="#9747FF" stroke-dasharray="10 5"/>
<rect x="20" y="103" width="286" height="44" rx="4" fill="#334A5F"/>
<g clip-path="url(#clip0_281_18880)">
<path d="M52 115.25H40C37.9289 115.25 36.25 116.929 36.25 119V131C36.25 133.071 37.9289 134.75 40 134.75H52C54.0711 134.75 55.75 133.071 55.75 131V119C55.75 116.929 54.0711 115.25 52 115.25ZM40 116.75H52C53.2426 116.75 54.25 117.757 54.25 119V131C54.25 132.243 53.2426 133.25 52 133.25H40C38.7574 133.25 37.75 132.243 37.75 131V119C37.75 117.757 38.7574 116.75 40 116.75Z" fill="#F1F1F1"/>
<path d="M46.6647 120.757C46.6646 120.38 46.9422 120.069 47.3038 120.015L47.4146 120.007L50.2431 120.007C50.6196 120.007 50.9314 120.284 50.9849 120.646L50.993 120.757L50.993 123.585C50.993 123.999 50.6573 124.335 50.2431 124.335C49.8665 124.335 49.5548 124.058 49.5013 123.696L49.4931 123.585L49.4928 121.507L47.4147 121.507C47.0381 121.507 46.7264 121.229 46.6728 120.868L46.6647 120.757Z" fill="#F1F1F1"/>
<path d="M49.7124 120.227C50.0053 119.934 50.4802 119.934 50.773 120.227C51.0415 120.495 51.0639 120.916 50.8402 121.21L50.773 121.287L42.2878 129.773C41.9949 130.065 41.52 130.065 41.2271 129.773C40.9586 129.504 40.9362 129.083 41.16 128.789L41.2271 128.712L49.7124 120.227Z" fill="#F1F1F1"/>
<path d="M41.0076 126.414C41.0076 126 41.3434 125.664 41.7576 125.664C42.1341 125.664 42.4459 125.941 42.4994 126.303L42.5076 126.414L42.5078 128.492L44.586 128.492C44.9625 128.492 45.2743 128.77 45.3279 129.131L45.336 129.242C45.336 129.619 45.0585 129.931 44.6968 129.984L44.586 129.992L41.7576 129.992C41.3811 129.992 41.0693 129.715 41.0157 129.353L41.0076 129.242L41.0076 126.414Z" fill="#F1F1F1"/>
</g>
<path d="M66.9602 131.159C66.2481 131.159 65.608 131.023 65.0398 130.75C64.4754 130.473 64.0246 130.095 63.6875 129.614C63.3504 129.133 63.1705 128.583 63.1477 127.966H64.8523C64.8939 128.466 65.1155 128.877 65.517 129.199C65.9186 129.521 66.3996 129.682 66.9602 129.682C67.4072 129.682 67.803 129.58 68.1477 129.375C68.4962 129.167 68.7689 128.881 68.9659 128.517C69.1667 128.153 69.267 127.739 69.267 127.273C69.267 126.799 69.1648 126.377 68.9602 126.006C68.7557 125.634 68.4735 125.343 68.1136 125.131C67.7576 124.919 67.3485 124.811 66.8864 124.807C66.5341 124.807 66.1799 124.867 65.8239 124.989C65.4678 125.11 65.1799 125.269 64.9602 125.466L63.3523 125.227L64.0057 119.364H70.4034V120.869H65.4659L65.0966 124.125H65.1648C65.392 123.905 65.6932 123.722 66.0682 123.574C66.447 123.426 66.8523 123.352 67.2841 123.352C67.9924 123.352 68.6231 123.521 69.1761 123.858C69.733 124.195 70.1705 124.655 70.4886 125.239C70.8106 125.818 70.9697 126.485 70.9659 127.239C70.9697 127.992 70.7992 128.665 70.4545 129.256C70.1136 129.847 69.6402 130.312 69.0341 130.653C68.4318 130.991 67.7405 131.159 66.9602 131.159ZM77.456 119.364V131H75.6946V121.125H75.6264L72.8423 122.943V121.261L75.7457 119.364H77.456ZM80.6037 131V129.727L84.5412 125.648C84.9616 125.205 85.3082 124.816 85.581 124.483C85.8575 124.146 86.0639 123.826 86.2003 123.523C86.3366 123.22 86.4048 122.898 86.4048 122.557C86.4048 122.17 86.3139 121.837 86.1321 121.557C85.9503 121.273 85.7022 121.055 85.3878 120.903C85.0734 120.748 84.7192 120.67 84.3253 120.67C83.9086 120.67 83.545 120.756 83.2344 120.926C82.9238 121.097 82.6851 121.337 82.5185 121.648C82.3518 121.958 82.2685 122.322 82.2685 122.739H80.5923C80.5923 122.03 80.7552 121.411 81.081 120.881C81.4067 120.35 81.8537 119.939 82.4219 119.648C82.9901 119.352 83.6359 119.205 84.3594 119.205C85.0904 119.205 85.7344 119.35 86.2912 119.642C86.8518 119.93 87.2893 120.324 87.6037 120.824C87.9181 121.32 88.0753 121.881 88.0753 122.506C88.0753 122.938 87.9938 123.36 87.831 123.773C87.6719 124.186 87.3935 124.646 86.9957 125.153C86.598 125.657 86.045 126.269 85.3366 126.989L83.0241 129.409V129.494H88.2628V131H80.6037ZM101.588 129.068L95.054 122.534L96.1278 121.46L102.662 127.994L101.588 129.068ZM96.1278 129.068L95.054 127.994L101.588 121.46L102.662 122.534L96.1278 129.068ZM113.382 131.159C112.67 131.159 112.03 131.023 111.462 130.75C110.897 130.473 110.446 130.095 110.109 129.614C109.772 129.133 109.592 128.583 109.57 127.966H111.274C111.316 128.466 111.537 128.877 111.939 129.199C112.34 129.521 112.821 129.682 113.382 129.682C113.829 129.682 114.225 129.58 114.57 129.375C114.918 129.167 115.191 128.881 115.388 128.517C115.589 128.153 115.689 127.739 115.689 127.273C115.689 126.799 115.587 126.377 115.382 126.006C115.178 125.634 114.895 125.343 114.536 125.131C114.179 124.919 113.77 124.811 113.308 124.807C112.956 124.807 112.602 124.867 112.246 124.989C111.89 125.11 111.602 125.269 111.382 125.466L109.774 125.227L110.428 119.364H116.825V120.869H111.888L111.518 124.125H111.587C111.814 123.905 112.115 123.722 112.49 123.574C112.869 123.426 113.274 123.352 113.706 123.352C114.414 123.352 115.045 123.521 115.598 123.858C116.155 124.195 116.592 124.655 116.911 125.239C117.232 125.818 117.392 126.485 117.388 127.239C117.392 127.992 117.221 128.665 116.876 129.256C116.536 129.847 116.062 130.312 115.456 130.653C114.854 130.991 114.162 131.159 113.382 131.159ZM123.878 119.364V131H122.116V121.125H122.048L119.264 122.943V121.261L122.168 119.364H123.878ZM127.026 131V129.727L130.963 125.648C131.384 125.205 131.73 124.816 132.003 124.483C132.279 124.146 132.486 123.826 132.622 123.523C132.759 123.22 132.827 122.898 132.827 122.557C132.827 122.17 132.736 121.837 132.554 121.557C132.372 121.273 132.124 121.055 131.81 120.903C131.495 120.748 131.141 120.67 130.747 120.67C130.33 120.67 129.967 120.756 129.656 120.926C129.346 121.097 129.107 121.337 128.94 121.648C128.774 121.958 128.69 122.322 128.69 122.739H127.014C127.014 122.03 127.177 121.411 127.503 120.881C127.829 120.35 128.276 119.939 128.844 119.648C129.412 119.352 130.058 119.205 130.781 119.205C131.512 119.205 132.156 119.35 132.713 119.642C133.274 119.93 133.711 120.324 134.026 120.824C134.34 121.32 134.497 121.881 134.497 122.506C134.497 122.938 134.416 123.36 134.253 123.773C134.094 124.186 133.815 124.646 133.418 125.153C133.02 125.657 132.467 126.269 131.759 126.989L129.446 129.409V129.494H134.685V131H127.026Z" fill="#F1F1F1"/>
<g clip-path="url(#clip1_281_18880)">
<path d="M276 123L280 127L284 123" stroke="#F1F1F1" stroke-width="1.5" stroke-linecap="round" stroke-linejoin="round"/>
</g>
<g filter="url(#filter0_d_281_18880)">
<rect x="20" y="155" width="286" height="150" rx="4" fill="#2C4357"/>
<path d="M44.9602 191.159C44.2481 191.159 43.608 191.023 43.0398 190.75C42.4754 190.473 42.0246 190.095 41.6875 189.614C41.3504 189.133 41.1705 188.583 41.1477 187.966H42.8523C42.8939 188.466 43.1155 188.877 43.517 189.199C43.9186 189.521 44.3996 189.682 44.9602 189.682C45.4072 189.682 45.803 189.58 46.1477 189.375C46.4962 189.167 46.7689 188.881 46.9659 188.517C47.1667 188.153 47.267 187.739 47.267 187.273C47.267 186.799 47.1648 186.377 46.9602 186.006C46.7557 185.634 46.4735 185.343 46.1136 185.131C45.7576 184.919 45.3485 184.811 44.8864 184.807C44.5341 184.807 44.1799 184.867 43.8239 184.989C43.4678 185.11 43.1799 185.269 42.9602 185.466L41.3523 185.227L42.0057 179.364H48.4034V180.869H43.4659L43.0966 184.125H43.1648C43.392 183.905 43.6932 183.722 44.0682 183.574C44.447 183.426 44.8523 183.352 45.2841 183.352C45.9924 183.352 46.6231 183.521 47.1761 183.858C47.733 184.195 48.1705 184.655 48.4886 185.239C48.8106 185.818 48.9697 186.485 48.9659 187.239C48.9697 187.992 48.7992 188.665 48.4545 189.256C48.1136 189.847 47.6402 190.312 47.0341 190.653C46.4318 190.991 45.7405 191.159 44.9602 191.159ZM55.456 179.364V191H53.6946V181.125H53.6264L50.8423 182.943V181.261L53.7457 179.364H55.456ZM58.6037 191V189.727L62.5412 185.648C62.9616 185.205 63.3082 184.816 63.581 184.483C63.8575 184.146 64.0639 183.826 64.2003 183.523C64.3366 183.22 64.4048 182.898 64.4048 182.557C64.4048 182.17 64.3139 181.837 64.1321 181.557C63.9503 181.273 63.7022 181.055 63.3878 180.903C63.0734 180.748 62.7192 180.67 62.3253 180.67C61.9086 180.67 61.545 180.756 61.2344 180.926C60.9238 181.097 60.6851 181.337 60.5185 181.648C60.3518 181.958 60.2685 182.322 60.2685 182.739H58.5923C58.5923 182.03 58.7552 181.411 59.081 180.881C59.4067 180.35 59.8537 179.939 60.4219 179.648C60.9901 179.352 61.6359 179.205 62.3594 179.205C63.0904 179.205 63.7344 179.35 64.2912 179.642C64.8518 179.93 65.2893 180.324 65.6037 180.824C65.9181 181.32 66.0753 181.881 66.0753 182.506C66.0753 182.938 65.9938 183.36 65.831 183.773C65.6719 184.186 65.3935 184.646 64.9957 185.153C64.598 185.657 64.045 186.269 63.3366 186.989L61.0241 189.409V189.494H66.2628V191H58.6037ZM79.5881 189.068L73.054 182.534L74.1278 181.46L80.6619 187.994L79.5881 189.068ZM74.1278 189.068L73.054 187.994L79.5881 181.46L80.6619 182.534L74.1278 189.068ZM91.3821 191.159C90.67 191.159 90.0298 191.023 89.4616 190.75C88.8973 190.473 88.4465 190.095 88.1094 189.614C87.7723 189.133 87.5923 188.583 87.5696 187.966H89.2741C89.3158 188.466 89.5374 188.877 89.9389 189.199C90.3404 189.521 90.8215 189.682 91.3821 189.682C91.8291 189.682 92.2249 189.58 92.5696 189.375C92.9181 189.167 93.1908 188.881 93.3878 188.517C93.5885 188.153 93.6889 187.739 93.6889 187.273C93.6889 186.799 93.5866 186.377 93.3821 186.006C93.1776 185.634 92.8954 185.343 92.5355 185.131C92.1795 184.919 91.7704 184.811 91.3082 184.807C90.956 184.807 90.6018 184.867 90.2457 184.989C89.8897 185.11 89.6018 185.269 89.3821 185.466L87.7741 185.227L88.4276 179.364H94.8253V180.869H89.8878L89.5185 184.125H89.5866C89.8139 183.905 90.1151 183.722 90.4901 183.574C90.8688 183.426 91.2741 183.352 91.706 183.352C92.4143 183.352 93.045 183.521 93.598 183.858C94.1548 184.195 94.5923 184.655 94.9105 185.239C95.2325 185.818 95.3916 186.485 95.3878 187.239C95.3916 187.992 95.2211 188.665 94.8764 189.256C94.5355 189.847 94.062 190.312 93.456 190.653C92.8537 190.991 92.1624 191.159 91.3821 191.159ZM101.878 179.364V191H100.116V181.125H100.048L97.2642 182.943V181.261L100.168 179.364H101.878ZM105.026 191V189.727L108.963 185.648C109.384 185.205 109.73 184.816 110.003 184.483C110.279 184.146 110.486 183.826 110.622 183.523C110.759 183.22 110.827 182.898 110.827 182.557C110.827 182.17 110.736 181.837 110.554 181.557C110.372 181.273 110.124 181.055 109.81 180.903C109.495 180.748 109.141 180.67 108.747 180.67C108.33 180.67 107.967 180.756 107.656 180.926C107.346 181.097 107.107 181.337 106.94 181.648C106.774 181.958 106.69 182.322 106.69 182.739H105.014C105.014 182.03 105.177 181.411 105.503 180.881C105.829 180.35 106.276 179.939 106.844 179.648C107.412 179.352 108.058 179.205 108.781 179.205C109.512 179.205 110.156 179.35 110.713 179.642C111.274 179.93 111.711 180.324 112.026 180.824C112.34 181.32 112.497 181.881 112.497 182.506C112.497 182.938 112.416 183.36 112.253 183.773C112.094 184.186 111.815 184.646 111.418 185.153C111.02 185.657 110.467 186.269 109.759 186.989L107.446 189.409V189.494H112.685V191H105.026Z" fill="#F1F1F1"/>
<path d="M45.5341 224.364V236H43.7727V226.125H43.7045L40.9205 227.943V226.261L43.8239 224.364H45.5341ZM52.733 236.193C51.8352 236.189 51.0682 235.953 50.4318 235.483C49.7955 235.013 49.3087 234.33 48.9716 233.432C48.6345 232.534 48.4659 231.453 48.4659 230.188C48.4659 228.926 48.6345 227.848 48.9716 226.955C49.3125 226.061 49.8011 225.379 50.4375 224.909C51.0777 224.439 51.8428 224.205 52.733 224.205C53.6231 224.205 54.3864 224.441 55.0227 224.915C55.6591 225.384 56.1458 226.066 56.483 226.96C56.8239 227.85 56.9943 228.926 56.9943 230.188C56.9943 231.456 56.8258 232.54 56.4886 233.438C56.1515 234.331 55.6648 235.015 55.0284 235.489C54.392 235.958 53.6269 236.193 52.733 236.193ZM52.733 234.676C53.5208 234.676 54.1364 234.292 54.5795 233.523C55.0265 232.754 55.25 231.642 55.25 230.188C55.25 229.222 55.1477 228.405 54.9432 227.739C54.7424 227.068 54.4527 226.561 54.0739 226.216C53.6989 225.867 53.2519 225.693 52.733 225.693C51.9489 225.693 51.3333 226.08 50.8864 226.852C50.4394 227.625 50.214 228.737 50.2102 230.188C50.2102 231.157 50.3106 231.977 50.5114 232.648C50.7159 233.314 51.0057 233.82 51.3807 234.165C51.7557 234.506 52.2064 234.676 52.733 234.676ZM59.0099 236V234.727L62.9474 230.648C63.3679 230.205 63.7145 229.816 63.9872 229.483C64.2637 229.146 64.4702 228.826 64.6065 228.523C64.7429 228.22 64.8111 227.898 64.8111 227.557C64.8111 227.17 64.7202 226.837 64.5384 226.557C64.3565 226.273 64.1084 226.055 63.794 225.903C63.4796 225.748 63.1255 225.67 62.7315 225.67C62.3149 225.67 61.9512 225.756 61.6406 225.926C61.33 226.097 61.0914 226.337 60.9247 226.648C60.758 226.958 60.6747 227.322 60.6747 227.739H58.9986C58.9986 227.03 59.1615 226.411 59.4872 225.881C59.813 225.35 60.2599 224.939 60.8281 224.648C61.3963 224.352 62.0421 224.205 62.7656 224.205C63.4967 224.205 64.1406 224.35 64.6974 224.642C65.258 224.93 65.6955 225.324 66.0099 225.824C66.3243 226.32 66.4815 226.881 66.4815 227.506C66.4815 227.938 66.4001 228.36 66.2372 228.773C66.0781 229.186 65.7997 229.646 65.402 230.153C65.0043 230.657 64.4512 231.269 63.7429 231.989L61.4304 234.409V234.494H66.669V236H59.0099ZM68.3281 233.727V232.307L73.3565 224.364H74.4759V226.455H73.7656L70.169 232.148V232.239H77.0611V233.727H68.3281ZM73.8452 236V233.295L73.8565 232.648V224.364H75.5213V236H73.8452ZM90.2131 234.068L83.679 227.534L84.7528 226.46L91.2869 232.994L90.2131 234.068ZM84.7528 234.068L83.679 232.994L90.2131 226.46L91.2869 227.534L84.7528 234.068ZM102.581 224.364V236H100.82V226.125H100.751L97.9673 227.943V226.261L100.871 224.364H102.581ZM109.78 236.193C108.882 236.189 108.115 235.953 107.479 235.483C106.842 235.013 106.356 234.33 106.018 233.432C105.681 232.534 105.513 231.453 105.513 230.188C105.513 228.926 105.681 227.848 106.018 226.955C106.359 226.061 106.848 225.379 107.484 224.909C108.125 224.439 108.89 224.205 109.78 224.205C110.67 224.205 111.433 224.441 112.07 224.915C112.706 225.384 113.193 226.066 113.53 226.96C113.871 227.85 114.041 228.926 114.041 230.188C114.041 231.456 113.873 232.54 113.536 233.438C113.198 234.331 112.712 235.015 112.075 235.489C111.439 235.958 110.674 236.193 109.78 236.193ZM109.78 234.676C110.568 234.676 111.183 234.292 111.626 233.523C112.073 232.754 112.297 231.642 112.297 230.188C112.297 229.222 112.195 228.405 111.99 227.739C111.789 227.068 111.5 226.561 111.121 226.216C110.746 225.867 110.299 225.693 109.78 225.693C108.996 225.693 108.38 226.08 107.933 226.852C107.486 227.625 107.261 228.737 107.257 230.188C107.257 231.157 107.357 231.977 107.558 232.648C107.763 233.314 108.053 233.82 108.428 234.165C108.803 234.506 109.253 234.676 109.78 234.676ZM116.057 236V234.727L119.994 230.648C120.415 230.205 120.761 229.816 121.034 229.483C121.311 229.146 121.517 228.826 121.653 228.523C121.79 228.22 121.858 227.898 121.858 227.557C121.858 227.17 121.767 226.837 121.585 226.557C121.403 226.273 121.155 226.055 120.841 225.903C120.527 225.748 120.172 225.67 119.778 225.67C119.362 225.67 118.998 225.756 118.688 225.926C118.377 226.097 118.138 226.337 117.972 226.648C117.805 226.958 117.722 227.322 117.722 227.739H116.045C116.045 227.03 116.208 226.411 116.534 225.881C116.86 225.35 117.307 224.939 117.875 224.648C118.443 224.352 119.089 224.205 119.812 224.205C120.544 224.205 121.188 224.35 121.744 224.642C122.305 224.93 122.742 225.324 123.057 225.824C123.371 226.32 123.528 226.881 123.528 227.506C123.528 227.938 123.447 228.36 123.284 228.773C123.125 229.186 122.847 229.646 122.449 230.153C122.051 230.657 121.498 231.269 120.79 231.989L118.477 234.409V234.494H123.716V236H116.057ZM125.375 233.727V232.307L130.403 224.364H131.523V226.455H130.812L127.216 232.148V232.239H134.108V233.727H125.375ZM130.892 236V233.295L130.903 232.648V224.364H132.568V236H130.892Z" fill="#F1F1F1"/>
<path d="M41.1193 281V279.727L45.0568 275.648C45.4773 275.205 45.8239 274.816 46.0966 274.483C46.3731 274.146 46.5795 273.826 46.7159 273.523C46.8523 273.22 46.9205 272.898 46.9205 272.557C46.9205 272.17 46.8295 271.837 46.6477 271.557C46.4659 271.273 46.2178 271.055 45.9034 270.903C45.589 270.748 45.2348 270.67 44.8409 270.67C44.4242 270.67 44.0606 270.756 43.75 270.926C43.4394 271.097 43.2008 271.337 43.0341 271.648C42.8674 271.958 42.7841 272.322 42.7841 272.739H41.108C41.108 272.03 41.2708 271.411 41.5966 270.881C41.9223 270.35 42.3693 269.939 42.9375 269.648C43.5057 269.352 44.1515 269.205 44.875 269.205C45.6061 269.205 46.25 269.35 46.8068 269.642C47.3674 269.93 47.8049 270.324 48.1193 270.824C48.4337 271.32 48.5909 271.881 48.5909 272.506C48.5909 272.938 48.5095 273.36 48.3466 273.773C48.1875 274.186 47.9091 274.646 47.5114 275.153C47.1136 275.657 46.5606 276.269 45.8523 276.989L43.5398 279.409V279.494H48.7784V281H41.1193ZM54.983 281.193C54.0852 281.189 53.3182 280.953 52.6818 280.483C52.0455 280.013 51.5587 279.33 51.2216 278.432C50.8845 277.534 50.7159 276.453 50.7159 275.188C50.7159 273.926 50.8845 272.848 51.2216 271.955C51.5625 271.061 52.0511 270.379 52.6875 269.909C53.3277 269.439 54.0928 269.205 54.983 269.205C55.8731 269.205 56.6364 269.441 57.2727 269.915C57.9091 270.384 58.3958 271.066 58.733 271.96C59.0739 272.85 59.2443 273.926 59.2443 275.188C59.2443 276.456 59.0758 277.54 58.7386 278.438C58.4015 279.331 57.9148 280.015 57.2784 280.489C56.642 280.958 55.8769 281.193 54.983 281.193ZM54.983 279.676C55.7708 279.676 56.3864 279.292 56.8295 278.523C57.2765 277.754 57.5 276.642 57.5 275.188C57.5 274.222 57.3977 273.405 57.1932 272.739C56.9924 272.068 56.7027 271.561 56.3239 271.216C55.9489 270.867 55.5019 270.693 54.983 270.693C54.1989 270.693 53.5833 271.08 53.1364 271.852C52.6894 272.625 52.464 273.737 52.4602 275.188C52.4602 276.157 52.5606 276.977 52.7614 277.648C52.9659 278.314 53.2557 278.82 53.6307 279.165C54.0057 279.506 54.4564 279.676 54.983 279.676ZM61.2599 281V279.727L65.1974 275.648C65.6179 275.205 65.9645 274.816 66.2372 274.483C66.5137 274.146 66.7202 273.826 66.8565 273.523C66.9929 273.22 67.0611 272.898 67.0611 272.557C67.0611 272.17 66.9702 271.837 66.7884 271.557C66.6065 271.273 66.3584 271.055 66.044 270.903C65.7296 270.748 65.3755 270.67 64.9815 270.67C64.5649 270.67 64.2012 270.756 63.8906 270.926C63.58 271.097 63.3414 271.337 63.1747 271.648C63.008 271.958 62.9247 272.322 62.9247 272.739H61.2486C61.2486 272.03 61.4115 271.411 61.7372 270.881C62.063 270.35 62.5099 269.939 63.0781 269.648C63.6463 269.352 64.2921 269.205 65.0156 269.205C65.7467 269.205 66.3906 269.35 66.9474 269.642C67.508 269.93 67.9455 270.324 68.2599 270.824C68.5743 271.32 68.7315 271.881 68.7315 272.506C68.7315 272.938 68.6501 273.36 68.4872 273.773C68.3281 274.186 68.0497 274.646 67.652 275.153C67.2543 275.657 66.7012 276.269 65.9929 276.989L63.6804 279.409V279.494H68.919V281H61.2599ZM75.0043 281.159C74.1899 281.159 73.4702 281.019 72.8452 280.739C72.224 280.458 71.7372 280.072 71.3849 279.58C71.0327 279.087 70.8584 278.527 70.8622 277.898C70.8584 277.405 70.9588 276.953 71.1634 276.54C71.3717 276.123 71.6539 275.777 72.0099 275.5C72.366 275.22 72.7637 275.042 73.2031 274.966V274.898C72.6236 274.758 72.1596 274.447 71.8111 273.966C71.4626 273.485 71.2902 272.932 71.294 272.307C71.2902 271.712 71.4474 271.182 71.7656 270.716C72.0876 270.246 72.5289 269.877 73.0895 269.608C73.6501 269.339 74.2884 269.205 75.0043 269.205C75.7126 269.205 76.3452 269.341 76.902 269.614C77.4626 269.883 77.9039 270.252 78.2259 270.722C78.5478 271.187 78.7107 271.716 78.7145 272.307C78.7107 272.932 78.5327 273.485 78.1804 273.966C77.8281 274.447 77.3698 274.758 76.8054 274.898V274.966C77.241 275.042 77.633 275.22 77.9815 275.5C78.3338 275.777 78.6141 276.123 78.8224 276.54C79.0346 276.953 79.1425 277.405 79.1463 277.898C79.1425 278.527 78.9645 279.087 78.6122 279.58C78.2599 280.072 77.7713 280.458 77.1463 280.739C76.5251 281.019 75.8111 281.159 75.0043 281.159ZM75.0043 279.722C75.4853 279.722 75.902 279.642 76.2543 279.483C76.6065 279.32 76.8793 279.095 77.0724 278.807C77.2656 278.515 77.3641 278.174 77.3679 277.784C77.3641 277.379 77.258 277.021 77.0497 276.71C76.8452 276.4 76.5668 276.155 76.2145 275.977C75.8622 275.799 75.4588 275.71 75.0043 275.71C74.5459 275.71 74.1387 275.799 73.7827 275.977C73.4266 276.155 73.1463 276.4 72.9418 276.71C72.7372 277.021 72.6368 277.379 72.6406 277.784C72.6368 278.174 72.7296 278.515 72.919 278.807C73.1122 279.095 73.3868 279.32 73.7429 279.483C74.099 279.642 74.5194 279.722 75.0043 279.722ZM75.0043 274.307C75.3906 274.307 75.7334 274.229 76.0327 274.074C76.3319 273.919 76.5668 273.703 76.7372 273.426C76.9115 273.15 77.0005 272.826 77.0043 272.455C77.0005 272.091 76.9134 271.773 76.7429 271.5C76.5762 271.227 76.3433 271.017 76.044 270.869C75.7448 270.718 75.3982 270.642 75.0043 270.642C74.6027 270.642 74.2505 270.718 73.9474 270.869C73.6482 271.017 73.4152 271.227 73.2486 271.5C73.0819 271.773 73.0005 272.091 73.0043 272.455C73.0005 272.826 73.0838 273.15 73.2543 273.426C73.4247 273.703 73.6596 273.919 73.9588 274.074C74.2618 274.229 74.6103 274.307 75.0043 274.307ZM92.3537 279.068L85.8196 272.534L86.8935 271.46L93.4276 277.994L92.3537 279.068ZM86.8935 279.068L85.8196 277.994L92.3537 271.46L93.4276 272.534L86.8935 279.068ZM100.307 281V279.727L104.244 275.648C104.665 275.205 105.011 274.816 105.284 274.483C105.561 274.146 105.767 273.826 105.903 273.523C106.04 273.22 106.108 272.898 106.108 272.557C106.108 272.17 106.017 271.837 105.835 271.557C105.653 271.273 105.405 271.055 105.091 270.903C104.777 270.748 104.422 270.67 104.028 270.67C103.612 270.67 103.248 270.756 102.938 270.926C102.627 271.097 102.388 271.337 102.222 271.648C102.055 271.958 101.972 272.322 101.972 272.739H100.295C100.295 272.03 100.458 271.411 100.784 270.881C101.11 270.35 101.557 269.939 102.125 269.648C102.693 269.352 103.339 269.205 104.062 269.205C104.794 269.205 105.438 269.35 105.994 269.642C106.555 269.93 106.992 270.324 107.307 270.824C107.621 271.32 107.778 271.881 107.778 272.506C107.778 272.938 107.697 273.36 107.534 273.773C107.375 274.186 107.097 274.646 106.699 275.153C106.301 275.657 105.748 276.269 105.04 276.989L102.727 279.409V279.494H107.966V281H100.307ZM114.17 281.193C113.273 281.189 112.506 280.953 111.869 280.483C111.233 280.013 110.746 279.33 110.409 278.432C110.072 277.534 109.903 276.453 109.903 275.188C109.903 273.926 110.072 272.848 110.409 271.955C110.75 271.061 111.239 270.379 111.875 269.909C112.515 269.439 113.28 269.205 114.17 269.205C115.061 269.205 115.824 269.441 116.46 269.915C117.097 270.384 117.583 271.066 117.92 271.96C118.261 272.85 118.432 273.926 118.432 275.188C118.432 276.456 118.263 277.54 117.926 278.438C117.589 279.331 117.102 280.015 116.466 280.489C115.83 280.958 115.064 281.193 114.17 281.193ZM114.17 279.676C114.958 279.676 115.574 279.292 116.017 278.523C116.464 277.754 116.688 276.642 116.688 275.188C116.688 274.222 116.585 273.405 116.381 272.739C116.18 272.068 115.89 271.561 115.511 271.216C115.136 270.867 114.689 270.693 114.17 270.693C113.386 270.693 112.771 271.08 112.324 271.852C111.877 272.625 111.652 273.737 111.648 275.188C111.648 276.157 111.748 276.977 111.949 277.648C112.153 278.314 112.443 278.82 112.818 279.165C113.193 279.506 113.644 279.676 114.17 279.676ZM120.203 278.727V277.307L125.232 269.364H126.351V271.455H125.641L122.044 277.148V277.239H128.936V278.727H120.203ZM125.72 281V278.295L125.732 277.648V269.364H127.396V281H125.72ZM134.848 281.159C134.034 281.159 133.314 281.019 132.689 280.739C132.068 280.458 131.581 280.072 131.229 279.58C130.876 279.087 130.702 278.527 130.706 277.898C130.702 277.405 130.803 276.953 131.007 276.54C131.215 276.123 131.498 275.777 131.854 275.5C132.21 275.22 132.607 275.042 133.047 274.966V274.898C132.467 274.758 132.003 274.447 131.655 273.966C131.306 273.485 131.134 272.932 131.138 272.307C131.134 271.712 131.291 271.182 131.609 270.716C131.931 270.246 132.373 269.877 132.933 269.608C133.494 269.339 134.132 269.205 134.848 269.205C135.556 269.205 136.189 269.341 136.746 269.614C137.306 269.883 137.748 270.252 138.07 270.722C138.392 271.187 138.554 271.716 138.558 272.307C138.554 272.932 138.376 273.485 138.024 273.966C137.672 274.447 137.214 274.758 136.649 274.898V274.966C137.085 275.042 137.477 275.22 137.825 275.5C138.178 275.777 138.458 276.123 138.666 276.54C138.878 276.953 138.986 277.405 138.99 277.898C138.986 278.527 138.808 279.087 138.456 279.58C138.104 280.072 137.615 280.458 136.99 280.739C136.369 281.019 135.655 281.159 134.848 281.159ZM134.848 279.722C135.329 279.722 135.746 279.642 136.098 279.483C136.45 279.32 136.723 279.095 136.916 278.807C137.109 278.515 137.208 278.174 137.212 277.784C137.208 277.379 137.102 277.021 136.893 276.71C136.689 276.4 136.411 276.155 136.058 275.977C135.706 275.799 135.303 275.71 134.848 275.71C134.39 275.71 133.982 275.799 133.626 275.977C133.27 276.155 132.99 276.4 132.786 276.71C132.581 277.021 132.481 277.379 132.484 277.784C132.481 278.174 132.573 278.515 132.763 278.807C132.956 279.095 133.231 279.32 133.587 279.483C133.943 279.642 134.363 279.722 134.848 279.722ZM134.848 274.307C135.234 274.307 135.577 274.229 135.876 274.074C136.176 273.919 136.411 273.703 136.581 273.426C136.755 273.15 136.844 272.826 136.848 272.455C136.844 272.091 136.757 271.773 136.587 271.5C136.42 271.227 136.187 271.017 135.888 270.869C135.589 270.718 135.242 270.642 134.848 270.642C134.446 270.642 134.094 270.718 133.791 270.869C133.492 271.017 133.259 271.227 133.092 271.5C132.926 271.773 132.844 272.091 132.848 272.455C132.844 272.826 132.928 273.15 133.098 273.426C133.268 273.703 133.503 273.919 133.803 274.074C134.106 274.229 134.454 274.307 134.848 274.307Z" fill="#F1F1F1"/>
</g>
<rect x="20" y="16" width="286" height="44" rx="4" fill="#334A5F"/>
<g clip-path="url(#clip2_281_18880)">
<path d="M52 28.25H40C37.9289 28.25 36.25 29.9289 36.25 32V44C36.25 46.0711 37.9289 47.75 40 47.75H52C54.0711 47.75 55.75 46.0711 55.75 44V32C55.75 29.9289 54.0711 28.25 52 28.25ZM40 29.75H52C53.2426 29.75 54.25 30.7574 54.25 32V44C54.25 45.2426 53.2426 46.25 52 46.25H40C38.7574 46.25 37.75 45.2426 37.75 44V32C37.75 30.7574 38.7574 29.75 40 29.75Z" fill="#F1F1F1"/>
<path d="M46.6647 33.7568C46.6646 33.3803 46.9422 33.0685 47.3038 33.015L47.4146 33.0069L50.2431 33.0069C50.6196 33.0068 50.9314 33.2844 50.9849 33.646L50.993 33.7568L50.993 36.5853C50.993 36.9995 50.6573 37.3352 50.2431 37.3352C49.8665 37.3353 49.5548 37.0578 49.5013 36.6961L49.4931 36.5853L49.4928 34.5071L47.4147 34.5068C47.0381 34.5069 46.7264 34.2293 46.6728 33.8676L46.6647 33.7568Z" fill="#F1F1F1"/>
<path d="M49.7124 33.2266C50.0053 32.9337 50.4802 32.9337 50.773 33.2266C51.0415 33.4951 51.0639 33.9165 50.8402 34.2104L50.773 34.2872L42.2878 42.7725C41.9949 43.0654 41.52 43.0654 41.2271 42.7725C40.9586 42.504 40.9362 42.0826 41.16 41.7886L41.2271 41.7119L49.7124 33.2266Z" fill="#F1F1F1"/>
<path d="M41.0076 39.4139C41.0076 38.9997 41.3434 38.6639 41.7576 38.6639C42.1341 38.6639 42.4459 38.9414 42.4994 39.3031L42.5076 39.4139L42.5078 41.4921L44.586 41.4924C44.9625 41.4923 45.2743 41.7698 45.3279 42.1315L45.336 42.2423C45.336 42.6189 45.0585 42.9306 44.6968 42.9842L44.586 42.9923L41.7576 42.9923C41.3811 42.9924 41.0693 42.7148 41.0157 42.3532L41.0076 42.2424L41.0076 39.4139Z" fill="#F1F1F1"/>
</g>
<path d="M66.9602 44.1591C66.2481 44.1591 65.608 44.0227 65.0398 43.75C64.4754 43.4735 64.0246 43.0947 63.6875 42.6136C63.3504 42.1326 63.1705 41.5833 63.1477 40.9659H64.8523C64.8939 41.4659 65.1155 41.8769 65.517 42.1989C65.9186 42.5208 66.3996 42.6818 66.9602 42.6818C67.4072 42.6818 67.803 42.5795 68.1477 42.375C68.4962 42.1667 68.7689 41.8807 68.9659 41.517C69.1667 41.1534 69.267 40.7386 69.267 40.2727C69.267 39.7992 69.1648 39.3769 68.9602 39.0057C68.7557 38.6345 68.4735 38.3428 68.1136 38.1307C67.7576 37.9186 67.3485 37.8106 66.8864 37.8068C66.5341 37.8068 66.1799 37.8674 65.8239 37.9886C65.4678 38.1098 65.1799 38.2689 64.9602 38.4659L63.3523 38.2273L64.0057 32.3636H70.4034V33.8693H65.4659L65.0966 37.125H65.1648C65.392 36.9053 65.6932 36.7216 66.0682 36.5739C66.447 36.4261 66.8523 36.3523 67.2841 36.3523C67.9924 36.3523 68.6231 36.5208 69.1761 36.858C69.733 37.1951 70.1705 37.6553 70.4886 38.2386C70.8106 38.8182 70.9697 39.4848 70.9659 40.2386C70.9697 40.9924 70.7992 41.6648 70.4545 42.2557C70.1136 42.8466 69.6402 43.3125 69.0341 43.6534C68.4318 43.9905 67.7405 44.1591 66.9602 44.1591ZM77.456 32.3636V44H75.6946V34.125H75.6264L72.8423 35.9432V34.2614L75.7457 32.3636H77.456ZM80.6037 44V42.7273L84.5412 38.6477C84.9616 38.2045 85.3082 37.8163 85.581 37.483C85.8575 37.1458 86.0639 36.8258 86.2003 36.5227C86.3366 36.2197 86.4048 35.8977 86.4048 35.5568C86.4048 35.1705 86.3139 34.8371 86.1321 34.5568C85.9503 34.2727 85.7022 34.0549 85.3878 33.9034C85.0734 33.7481 84.7192 33.6705 84.3253 33.6705C83.9086 33.6705 83.545 33.7557 83.2344 33.9261C82.9238 34.0966 82.6851 34.3371 82.5185 34.6477C82.3518 34.9583 82.2685 35.322 82.2685 35.7386H80.5923C80.5923 35.0303 80.7552 34.411 81.081 33.8807C81.4067 33.3504 81.8537 32.9394 82.4219 32.6477C82.9901 32.3523 83.6359 32.2045 84.3594 32.2045C85.0904 32.2045 85.7344 32.3504 86.2912 32.642C86.8518 32.9299 87.2893 33.3239 87.6037 33.8239C87.9181 34.3201 88.0753 34.8807 88.0753 35.5057C88.0753 35.9375 87.9938 36.3598 87.831 36.7727C87.6719 37.1856 87.3935 37.6458 86.9957 38.1534C86.598 38.6572 86.045 39.2689 85.3366 39.9886L83.0241 42.4091V42.4943H88.2628V44H80.6037ZM101.588 42.0682L95.054 35.5341L96.1278 34.4602L102.662 40.9943L101.588 42.0682ZM96.1278 42.0682L95.054 40.9943L101.588 34.4602L102.662 35.5341L96.1278 42.0682ZM113.382 44.1591C112.67 44.1591 112.03 44.0227 111.462 43.75C110.897 43.4735 110.446 43.0947 110.109 42.6136C109.772 42.1326 109.592 41.5833 109.57 40.9659H111.274C111.316 41.4659 111.537 41.8769 111.939 42.1989C112.34 42.5208 112.821 42.6818 113.382 42.6818C113.829 42.6818 114.225 42.5795 114.57 42.375C114.918 42.1667 115.191 41.8807 115.388 41.517C115.589 41.1534 115.689 40.7386 115.689 40.2727C115.689 39.7992 115.587 39.3769 115.382 39.0057C115.178 38.6345 114.895 38.3428 114.536 38.1307C114.179 37.9186 113.77 37.8106 113.308 37.8068C112.956 37.8068 112.602 37.8674 112.246 37.9886C111.89 38.1098 111.602 38.2689 111.382 38.4659L109.774 38.2273L110.428 32.3636H116.825V33.8693H111.888L111.518 37.125H111.587C111.814 36.9053 112.115 36.7216 112.49 36.5739C112.869 36.4261 113.274 36.3523 113.706 36.3523C114.414 36.3523 115.045 36.5208 115.598 36.858C116.155 37.1951 116.592 37.6553 116.911 38.2386C117.232 38.8182 117.392 39.4848 117.388 40.2386C117.392 40.9924 117.221 41.6648 116.876 42.2557C116.536 42.8466 116.062 43.3125 115.456 43.6534C114.854 43.9905 114.162 44.1591 113.382 44.1591ZM123.878 32.3636V44H122.116V34.125H122.048L119.264 35.9432V34.2614L122.168 32.3636H123.878ZM127.026 44V42.7273L130.963 38.6477C131.384 38.2045 131.73 37.8163 132.003 37.483C132.279 37.1458 132.486 36.8258 132.622 36.5227C132.759 36.2197 132.827 35.8977 132.827 35.5568C132.827 35.1705 132.736 34.8371 132.554 34.5568C132.372 34.2727 132.124 34.0549 131.81 33.9034C131.495 33.7481 131.141 33.6705 130.747 33.6705C130.33 33.6705 129.967 33.7557 129.656 33.9261C129.346 34.0966 129.107 34.3371 128.94 34.6477C128.774 34.9583 128.69 35.322 128.69 35.7386H127.014C127.014 35.0303 127.177 34.411 127.503 33.8807C127.829 33.3504 128.276 32.9394 128.844 32.6477C129.412 32.3523 130.058 32.2045 130.781 32.2045C131.512 32.2045 132.156 32.3504 132.713 32.642C133.274 32.9299 133.711 33.3239 134.026 33.8239C134.34 34.3201 134.497 34.8807 134.497 35.5057C134.497 35.9375 134.416 36.3598 134.253 36.7727C134.094 37.1856 133.815 37.6458 133.418 38.1534C133.02 38.6572 132.467 39.2689 131.759 39.9886L129.446 42.4091V42.4943H134.685V44H127.026Z" fill="#F1F1F1"/>
<g clip-path="url(#clip3_281_18880)">
<path d="M276 36L280 40L284 36" stroke="#F1F1F1" stroke-width="1.5" stroke-linecap="round" stroke-linejoin="round"/>
</g>
<defs>
<filter id="filter0_d_281_18880" x="10" y="149" width="306" height="170" filterUnits="userSpaceOnUse" color-interpolation-filters="sRGB">
<feFlood flood-opacity="0" result="BackgroundImageFix"/>
<feColorMatrix in="SourceAlpha" type="matrix" values="0 0 0 0 0 0 0 0 0 0 0 0 0 0 0 0 0 0 127 0" result="hardAlpha"/>
<feOffset dy="4"/>
<feGaussianBlur stdDeviation="5"/>
<feComposite in2="hardAlpha" operator="out"/>
<feColorMatrix type="matrix" values="0 0 0 0 0 0 0 0 0 0 0 0 0 0 0 0 0 0 0.35 0"/>
<feBlend mode="normal" in2="BackgroundImageFix" result="effect1_dropShadow_281_18880"/>
<feBlend mode="normal" in="SourceGraphic" in2="effect1_dropShadow_281_18880" result="shape"/>
</filter>
<clipPath id="clip0_281_18880">
<rect width="24" height="24" fill="white" transform="translate(34 113)"/>
</clipPath>
<clipPath id="clip1_281_18880">
<rect width="24" height="24" fill="white" transform="translate(268 113)"/>
</clipPath>
<clipPath id="clip2_281_18880">
<rect width="24" height="24" fill="white" transform="translate(34 26)"/>
</clipPath>
<clipPath id="clip3_281_18880">
<rect width="24" height="24" fill="white" transform="translate(268 26)"/>
</clipPath>
</defs>
</svg>
