<svg width="96" height="12" viewBox="0 0 96 12" fill="none" xmlns="http://www.w3.org/2000/svg">
<path d="M0.616477 2.14062V0.818182H8.49645V2.14062H5.3196V11H3.78835V2.14062H0.616477ZM12.3022 11.1541C11.5498 11.1541 10.9019 10.9934 10.3583 10.6719C9.81806 10.3471 9.40045 9.89134 9.10547 9.30469C8.8138 8.71473 8.66797 8.02367 8.66797 7.23153C8.66797 6.44934 8.8138 5.75994 9.10547 5.16335C9.40045 4.56676 9.81143 4.10109 10.3384 3.76633C10.8687 3.43158 11.4885 3.2642 12.1978 3.2642C12.6287 3.2642 13.0463 3.33546 13.4506 3.47798C13.855 3.6205 14.2179 3.84422 14.5394 4.14915C14.8609 4.45407 15.1145 4.85014 15.3001 5.33736C15.4857 5.82126 15.5785 6.40956 15.5785 7.10227V7.62926H9.50817V6.51562H14.1218C14.1218 6.12453 14.0423 5.77817 13.8832 5.47656C13.7241 5.17164 13.5004 4.93134 13.212 4.75568C12.927 4.58002 12.5922 4.49219 12.2077 4.49219C11.7901 4.49219 11.4255 4.59493 11.114 4.80043C10.8058 5.0026 10.5671 5.26776 10.3981 5.59588C10.2324 5.92069 10.1495 6.27367 10.1495 6.65483V7.52486C10.1495 8.03527 10.239 8.46946 10.418 8.82741C10.6003 9.18537 10.8538 9.45881 11.1786 9.64773C11.5034 9.83333 11.8829 9.92614 12.3171 9.92614C12.5988 9.92614 12.8557 9.88636 13.0877 9.80682C13.3197 9.72396 13.5202 9.60133 13.6893 9.43892C13.8583 9.27652 13.9876 9.07599 14.0771 8.83736L15.484 9.09091C15.3713 9.50521 15.1692 9.86813 14.8775 10.1797C14.5891 10.4879 14.2262 10.7282 13.7887 10.9006C13.3545 11.0696 12.859 11.1541 12.3022 11.1541ZM19.4501 11.169C18.9662 11.169 18.5287 11.0795 18.1376 10.9006C17.7465 10.7183 17.4366 10.4548 17.2079 10.1101C16.9825 9.76539 16.8699 9.3428 16.8699 8.84233C16.8699 8.41146 16.9527 8.05682 17.1184 7.77841C17.2842 7.5 17.5079 7.27959 17.7896 7.11719C18.0713 6.95478 18.3862 6.83215 18.7342 6.74929C19.0822 6.66643 19.4368 6.60346 19.7981 6.56037C20.2555 6.50734 20.6267 6.46425 20.9118 6.43111C21.1968 6.39465 21.4039 6.33665 21.5332 6.2571C21.6625 6.17756 21.7271 6.0483 21.7271 5.86932V5.83452C21.7271 5.40033 21.6045 5.06392 21.3592 4.82528C21.1172 4.58665 20.756 4.46733 20.2754 4.46733C19.7749 4.46733 19.3805 4.57836 19.0922 4.80043C18.8071 5.01918 18.6099 5.26278 18.5005 5.53125L17.1035 5.21307C17.2692 4.74905 17.5112 4.37453 17.8294 4.08949C18.1509 3.80114 18.5204 3.59233 18.938 3.46307C19.3556 3.33049 19.7948 3.2642 20.2555 3.2642C20.5604 3.2642 20.8836 3.30066 21.225 3.37358C21.5697 3.44318 21.8912 3.57244 22.1895 3.76136C22.4911 3.95028 22.738 4.22041 22.9302 4.57173C23.1225 4.91974 23.2186 5.37216 23.2186 5.92898V11H21.7669V9.95597H21.7072C21.6111 10.1482 21.4669 10.3371 21.2747 10.5227C21.0824 10.7083 20.8355 10.8625 20.5339 10.9851C20.2323 11.1077 19.871 11.169 19.4501 11.169ZM19.7733 9.97585C20.1842 9.97585 20.5356 9.89465 20.8272 9.73224C21.1222 9.56984 21.3459 9.35772 21.4984 9.09588C21.6542 8.83073 21.7321 8.54735 21.7321 8.24574V7.26136C21.679 7.31439 21.5763 7.36411 21.4238 7.41051C21.2747 7.4536 21.104 7.49171 20.9118 7.52486C20.7195 7.55469 20.5323 7.58286 20.35 7.60938C20.1677 7.63258 20.0152 7.65246 19.8926 7.66903C19.6042 7.70549 19.3407 7.76681 19.1021 7.85298C18.8668 7.93916 18.6779 8.06345 18.5353 8.22585C18.3961 8.38494 18.3265 8.59706 18.3265 8.86222C18.3265 9.23011 18.4624 9.50852 18.7342 9.69744C19.006 9.88305 19.3523 9.97585 19.7733 9.97585ZM25.1985 11V3.36364H26.6254V4.60653H26.7198C26.8789 4.18561 27.1391 3.85748 27.5004 3.62216C27.8616 3.38352 28.2942 3.2642 28.7979 3.2642C29.3084 3.2642 29.7359 3.38352 30.0806 3.62216C30.4286 3.8608 30.6855 4.18892 30.8512 4.60653H30.9308C31.113 4.19886 31.4031 3.87405 31.8008 3.6321C32.1985 3.38684 32.6725 3.2642 33.2227 3.2642C33.9154 3.2642 34.4805 3.4813 34.918 3.91548C35.3588 4.34967 35.5792 5.00426 35.5792 5.87926V11H34.0927V6.01847C34.0927 5.50142 33.9518 5.12689 33.6701 4.89489C33.3884 4.66288 33.052 4.54688 32.6609 4.54688C32.177 4.54688 31.8008 4.69602 31.5323 4.99432C31.2638 5.2893 31.1296 5.6688 31.1296 6.13281V11H29.6481V5.92401C29.6481 5.50971 29.5188 5.17661 29.2603 4.92472C29.0018 4.67282 28.6654 4.54688 28.2511 4.54688C27.9693 4.54688 27.7092 4.62145 27.4705 4.7706C27.2352 4.91643 27.0446 5.12026 26.8988 5.3821C26.7563 5.64394 26.685 5.94721 26.685 6.2919V11H25.1985ZM41.2766 11V3.36364H42.7035V4.60653H42.7979C42.957 4.18561 43.2172 3.85748 43.5785 3.62216C43.9397 3.38352 44.3723 3.2642 44.8761 3.2642C45.3865 3.2642 45.814 3.38352 46.1587 3.62216C46.5067 3.8608 46.7636 4.18892 46.9293 4.60653H47.0089C47.1912 4.19886 47.4812 3.87405 47.8789 3.6321C48.2766 3.38684 48.7506 3.2642 49.3008 3.2642C49.9935 3.2642 50.5586 3.4813 50.9961 3.91548C51.4369 4.34967 51.6573 5.00426 51.6573 5.87926V11H50.1708V6.01847C50.1708 5.50142 50.0299 5.12689 49.7482 4.89489C49.4665 4.66288 49.1301 4.54688 48.739 4.54688C48.2551 4.54688 47.8789 4.69602 47.6104 4.99432C47.342 5.2893 47.2077 5.6688 47.2077 6.13281V11H45.7262V5.92401C45.7262 5.50971 45.5969 5.17661 45.3384 4.92472C45.0799 4.67282 44.7435 4.54688 44.3292 4.54688C44.0475 4.54688 43.7873 4.62145 43.5487 4.7706C43.3133 4.91643 43.1228 5.12026 42.9769 5.3821C42.8344 5.64394 42.7631 5.94721 42.7631 6.2919V11H41.2766ZM56.9409 11.1541C56.1885 11.1541 55.5405 10.9934 54.997 10.6719C54.4567 10.3471 54.0391 9.89134 53.7441 9.30469C53.4525 8.71473 53.3066 8.02367 53.3066 7.23153C53.3066 6.44934 53.4525 5.75994 53.7441 5.16335C54.0391 4.56676 54.4501 4.10109 54.9771 3.76633C55.5074 3.43158 56.1272 3.2642 56.8365 3.2642C57.2673 3.2642 57.685 3.33546 58.0893 3.47798C58.4937 3.6205 58.8566 3.84422 59.1781 4.14915C59.4996 4.45407 59.7531 4.85014 59.9387 5.33736C60.1243 5.82126 60.2172 6.40956 60.2172 7.10227V7.62926H54.1468V6.51562H58.7605C58.7605 6.12453 58.6809 5.77817 58.5218 5.47656C58.3627 5.17164 58.139 4.93134 57.8507 4.75568C57.5656 4.58002 57.2309 4.49219 56.8464 4.49219C56.4288 4.49219 56.0642 4.59493 55.7527 4.80043C55.4444 5.0026 55.2058 5.26776 55.0368 5.59588C54.871 5.92069 54.7882 6.27367 54.7882 6.65483V7.52486C54.7882 8.03527 54.8777 8.46946 55.0566 8.82741C55.2389 9.18537 55.4925 9.45881 55.8173 9.64773C56.1421 9.83333 56.5216 9.92614 56.9558 9.92614C57.2375 9.92614 57.4944 9.88636 57.7264 9.80682C57.9584 9.72396 58.1589 9.60133 58.3279 9.43892C58.497 9.27652 58.6262 9.07599 58.7157 8.83736L60.1227 9.09091C60.01 9.50521 59.8078 9.86813 59.5162 10.1797C59.2278 10.4879 58.8649 10.7282 58.4274 10.9006C57.9932 11.0696 57.4977 11.1541 56.9409 11.1541ZM61.8665 11V3.36364H63.2933V4.60653H63.3878C63.5469 4.18561 63.8071 3.85748 64.1683 3.62216C64.5296 3.38352 64.9621 3.2642 65.4659 3.2642C65.9763 3.2642 66.4039 3.38352 66.7486 3.62216C67.0966 3.8608 67.3535 4.18892 67.5192 4.60653H67.5987C67.781 4.19886 68.071 3.87405 68.4688 3.6321C68.8665 3.38684 69.3404 3.2642 69.8906 3.2642C70.5833 3.2642 71.1484 3.4813 71.5859 3.91548C72.0268 4.34967 72.2472 5.00426 72.2472 5.87926V11H70.7607V6.01847C70.7607 5.50142 70.6198 5.12689 70.3381 4.89489C70.0563 4.66288 69.7199 4.54688 69.3288 4.54688C68.8449 4.54688 68.4688 4.69602 68.2003 4.99432C67.9318 5.2893 67.7976 5.6688 67.7976 6.13281V11H66.3161V5.92401C66.3161 5.50971 66.1868 5.17661 65.9283 4.92472C65.6697 4.67282 65.3333 4.54688 64.919 4.54688C64.6373 4.54688 64.3771 4.62145 64.1385 4.7706C63.9032 4.91643 63.7126 5.12026 63.5668 5.3821C63.4242 5.64394 63.353 5.94721 63.353 6.2919V11H61.8665ZM74.3588 11V0.818182H75.8453V4.60156H75.9348C76.021 4.44247 76.1453 4.25852 76.3077 4.04972C76.4701 3.84091 76.6955 3.65862 76.9838 3.50284C77.2722 3.34375 77.6534 3.2642 78.1273 3.2642C78.7438 3.2642 79.294 3.41998 79.7779 3.73153C80.2618 4.04309 80.6413 4.49219 80.9164 5.07884C81.1948 5.66548 81.334 6.37145 81.334 7.19673C81.334 8.02202 81.1964 8.72964 80.9213 9.3196C80.6462 9.90625 80.2684 10.3587 79.7878 10.6768C79.3072 10.9917 78.7587 11.1491 78.1422 11.1491C77.6782 11.1491 77.2987 11.0713 77.0037 10.9155C76.7121 10.7597 76.4834 10.5774 76.3176 10.3686C76.1519 10.1598 76.0243 9.9742 75.9348 9.81179H75.8105V11H74.3588ZM75.8155 7.18182C75.8155 7.71875 75.8934 8.18939 76.0492 8.59375C76.205 8.99811 76.4303 9.31463 76.7253 9.54332C77.0203 9.7687 77.3816 9.88139 77.8091 9.88139C78.2533 9.88139 78.6245 9.76373 78.9228 9.52841C79.2211 9.28977 79.4464 8.96662 79.5989 8.55895C79.7547 8.15128 79.8326 7.69223 79.8326 7.18182C79.8326 6.67803 79.7563 6.22562 79.6039 5.82457C79.4547 5.42353 79.2293 5.10701 78.9277 4.875C78.6294 4.64299 78.2566 4.52699 77.8091 4.52699C77.3783 4.52699 77.0137 4.63802 76.7154 4.86009C76.4204 5.08215 76.1967 5.39205 76.0442 5.78977C75.8917 6.1875 75.8155 6.65151 75.8155 7.18182ZM86.2944 11.1541C85.542 11.1541 84.8941 10.9934 84.3505 10.6719C83.8103 10.3471 83.3926 9.89134 83.0977 9.30469C82.806 8.71473 82.6602 8.02367 82.6602 7.23153C82.6602 6.44934 82.806 5.75994 83.0977 5.16335C83.3926 4.56676 83.8036 4.10109 84.3306 3.76633C84.8609 3.43158 85.4807 3.2642 86.19 3.2642C86.6209 3.2642 87.0385 3.33546 87.4428 3.47798C87.8472 3.6205 88.2101 3.84422 88.5316 4.14915C88.8531 4.45407 89.1067 4.85014 89.2923 5.33736C89.4779 5.82126 89.5707 6.40956 89.5707 7.10227V7.62926H83.5004V6.51562H88.114C88.114 6.12453 88.0344 5.77817 87.8754 5.47656C87.7163 5.17164 87.4925 4.93134 87.2042 4.75568C86.9192 4.58002 86.5844 4.49219 86.1999 4.49219C85.7823 4.49219 85.4177 4.59493 85.1062 4.80043C84.7979 5.0026 84.5593 5.26776 84.3903 5.59588C84.2246 5.92069 84.1417 6.27367 84.1417 6.65483V7.52486C84.1417 8.03527 84.2312 8.46946 84.4102 8.82741C84.5924 9.18537 84.846 9.45881 85.1708 9.64773C85.4956 9.83333 85.8751 9.92614 86.3093 9.92614C86.591 9.92614 86.8479 9.88636 87.0799 9.80682C87.3119 9.72396 87.5124 9.60133 87.6815 9.43892C87.8505 9.27652 87.9798 9.07599 88.0692 8.83736L89.4762 9.09091C89.3635 9.50521 89.1613 9.86813 88.8697 10.1797C88.5813 10.4879 88.2184 10.7282 87.7809 10.9006C87.3467 11.0696 86.8512 11.1541 86.2944 11.1541ZM91.22 11V3.36364H92.6568V4.5767H92.7363C92.8755 4.16572 93.1208 3.84257 93.4721 3.60724C93.8268 3.36861 94.2278 3.24929 94.6752 3.24929C94.7681 3.24929 94.8774 3.2526 95.0034 3.25923C95.1326 3.26586 95.2337 3.27415 95.3066 3.28409V4.70597C95.247 4.68939 95.1409 4.67116 94.9885 4.65128C94.836 4.62808 94.6835 4.61648 94.5311 4.61648C94.1797 4.61648 93.8665 4.69105 93.5914 4.8402C93.3197 4.98603 93.1042 5.18987 92.9451 5.4517C92.786 5.71023 92.7065 6.00521 92.7065 6.33665V11H91.22Z" fill="#344054"/>
</svg>
