<svg width="111" height="24" viewBox="0 0 111 24" fill="none" xmlns="http://www.w3.org/2000/svg">
<path d="M0.113636 18V0.545454H2.22727V16.125H10.3409V18H0.113636ZM13.3409 18V4.90909H15.3523V18H13.3409ZM14.3636 2.72727C13.9716 2.72727 13.6335 2.59375 13.3494 2.3267C13.071 2.05966 12.9318 1.73864 12.9318 1.36364C12.9318 0.988636 13.071 0.667614 13.3494 0.400568C13.6335 0.133523 13.9716 0 14.3636 0C14.7557 0 15.0909 0.133523 15.3693 0.400568C15.6534 0.667614 15.7955 0.988636 15.7955 1.36364C15.7955 1.73864 15.6534 2.05966 15.3693 2.3267C15.0909 2.59375 14.7557 2.72727 14.3636 2.72727ZM24.3203 23.1818C23.3487 23.1818 22.5135 23.0568 21.8146 22.8068C21.1158 22.5625 20.5334 22.2386 20.0675 21.8352C19.6072 21.4375 19.2408 21.0114 18.968 20.5568L20.5703 19.4318C20.7521 19.6705 20.9822 19.9432 21.2607 20.25C21.5391 20.5625 21.9197 20.8324 22.4027 21.0597C22.8913 21.2926 23.5305 21.4091 24.3203 21.4091C25.3771 21.4091 26.2493 21.1534 26.9368 20.642C27.6243 20.1307 27.968 19.3295 27.968 18.2386V15.5795H27.7976C27.6499 15.8182 27.4396 16.1136 27.1669 16.4659C26.8999 16.8125 26.5135 17.1222 26.0078 17.3949C25.5078 17.6619 24.8317 17.7955 23.9794 17.7955C22.9226 17.7955 21.9737 17.5455 21.1328 17.0455C20.2976 16.5455 19.6357 15.8182 19.147 14.8636C18.6641 13.9091 18.4226 12.75 18.4226 11.3864C18.4226 10.0455 18.6584 8.87784 19.13 7.88352C19.6016 6.88352 20.2578 6.1108 21.0987 5.56534C21.9396 5.0142 22.9112 4.73864 24.0135 4.73864C24.8658 4.73864 25.5419 4.88068 26.0419 5.16477C26.5476 5.44318 26.9339 5.76136 27.201 6.11932C27.4737 6.47159 27.6839 6.76136 27.8317 6.98864H28.0362V4.90909H29.9794V18.375C29.9794 19.5 29.7237 20.4148 29.2124 21.1193C28.7067 21.8295 28.0249 22.3494 27.1669 22.679C26.3146 23.0142 25.3658 23.1818 24.3203 23.1818ZM24.2521 15.9886C25.0589 15.9886 25.7408 15.804 26.2976 15.4347C26.8544 15.0653 27.2777 14.5341 27.5675 13.8409C27.8572 13.1477 28.0021 12.3182 28.0021 11.3523C28.0021 10.4091 27.8601 9.5767 27.576 8.85511C27.2919 8.13352 26.8714 7.56818 26.3146 7.15909C25.7578 6.75 25.0703 6.54545 24.2521 6.54545C23.3999 6.54545 22.6896 6.76136 22.1214 7.19318C21.5589 7.625 21.1357 8.20455 20.8516 8.93182C20.5732 9.65909 20.4339 10.4659 20.4339 11.3523C20.4339 12.2614 20.576 13.0653 20.8601 13.7642C21.1499 14.4574 21.576 15.0028 22.1385 15.4006C22.7067 15.7926 23.4112 15.9886 24.2521 15.9886ZM35.6726 10.125V18H33.6612V0.545454H35.6726V6.95455H35.843C36.1499 6.27841 36.6101 5.74148 37.2237 5.34375C37.843 4.94034 38.6669 4.73864 39.6953 4.73864C40.5874 4.73864 41.3686 4.91761 42.0391 5.27557C42.7095 5.62784 43.2294 6.17045 43.5987 6.90341C43.9737 7.63068 44.1612 8.55682 44.1612 9.68182V18H42.1499V9.81818C42.1499 8.77841 41.88 7.97443 41.3402 7.40625C40.8061 6.83239 40.0646 6.54545 39.1158 6.54545C38.4567 6.54545 37.8658 6.68466 37.343 6.96307C36.826 7.24148 36.4169 7.64773 36.1158 8.18182C35.8203 8.71591 35.6726 9.36364 35.6726 10.125ZM53.5341 4.90909V6.61364H46.75V4.90909H53.5341ZM48.7273 1.77273H50.7386V14.25C50.7386 14.8182 50.821 15.2443 50.9858 15.5284C51.1563 15.8068 51.3722 15.9943 51.6335 16.0909C51.9006 16.1818 52.1818 16.2273 52.4773 16.2273C52.6989 16.2273 52.8807 16.2159 53.0227 16.1932C53.1648 16.1648 53.2784 16.142 53.3636 16.125L53.7727 17.9318C53.6364 17.983 53.446 18.0341 53.2017 18.0852C52.9574 18.142 52.6477 18.1705 52.2727 18.1705C51.7045 18.1705 51.1477 18.0483 50.6023 17.804C50.0625 17.5597 49.6136 17.1875 49.2557 16.6875C48.9034 16.1875 48.7273 15.5568 48.7273 14.7955V1.77273ZM68.5938 23.1818C67.6222 23.1818 66.7869 23.0568 66.0881 22.8068C65.3892 22.5625 64.8068 22.2386 64.3409 21.8352C63.8807 21.4375 63.5142 21.0114 63.2415 20.5568L64.8438 19.4318C65.0256 19.6705 65.2557 19.9432 65.5341 20.25C65.8125 20.5625 66.1932 20.8324 66.6761 21.0597C67.1648 21.2926 67.804 21.4091 68.5938 21.4091C69.6506 21.4091 70.5227 21.1534 71.2102 20.642C71.8977 20.1307 72.2415 19.3295 72.2415 18.2386V15.5795H72.071C71.9233 15.8182 71.7131 16.1136 71.4403 16.4659C71.1733 16.8125 70.7869 17.1222 70.2812 17.3949C69.7812 17.6619 69.1051 17.7955 68.2528 17.7955C67.196 17.7955 66.2472 17.5455 65.4062 17.0455C64.571 16.5455 63.9091 15.8182 63.4205 14.8636C62.9375 13.9091 62.696 12.75 62.696 11.3864C62.696 10.0455 62.9318 8.87784 63.4034 7.88352C63.875 6.88352 64.5313 6.1108 65.3722 5.56534C66.2131 5.0142 67.1847 4.73864 68.2869 4.73864C69.1392 4.73864 69.8153 4.88068 70.3153 5.16477C70.821 5.44318 71.2074 5.76136 71.4744 6.11932C71.7472 6.47159 71.9574 6.76136 72.1051 6.98864H72.3097V4.90909H74.2528V18.375C74.2528 19.5 73.9972 20.4148 73.4858 21.1193C72.9801 21.8295 72.2983 22.3494 71.4403 22.679C70.5881 23.0142 69.6392 23.1818 68.5938 23.1818ZM68.5256 15.9886C69.3324 15.9886 70.0142 15.804 70.571 15.4347C71.1278 15.0653 71.5511 14.5341 71.8409 13.8409C72.1307 13.1477 72.2756 12.3182 72.2756 11.3523C72.2756 10.4091 72.1335 9.5767 71.8494 8.85511C71.5653 8.13352 71.1449 7.56818 70.5881 7.15909C70.0313 6.75 69.3438 6.54545 68.5256 6.54545C67.6733 6.54545 66.9631 6.76136 66.3949 7.19318C65.8324 7.625 65.4091 8.20455 65.125 8.93182C64.8466 9.65909 64.7074 10.4659 64.7074 11.3523C64.7074 12.2614 64.8494 13.0653 65.1335 13.7642C65.4233 14.4574 65.8494 15.0028 66.4119 15.4006C66.9801 15.7926 67.6847 15.9886 68.5256 15.9886ZM77.9347 18V4.90909H79.8778V6.88636H80.0142C80.2528 6.23864 80.6847 5.71307 81.3097 5.30966C81.9347 4.90625 82.6392 4.70454 83.4233 4.70454C83.571 4.70454 83.7557 4.70739 83.9773 4.71307C84.1989 4.71875 84.3665 4.72727 84.4801 4.73864V6.78409C84.4119 6.76705 84.2557 6.74148 84.0114 6.70739C83.7727 6.66761 83.5199 6.64773 83.2528 6.64773C82.6165 6.64773 82.0483 6.78125 81.5483 7.0483C81.054 7.30966 80.6619 7.6733 80.3722 8.1392C80.0881 8.59943 79.946 9.125 79.946 9.71591V18H77.9347ZM91.9545 18.2727C90.6932 18.2727 89.6051 17.9943 88.6903 17.4375C87.7812 16.875 87.0795 16.0909 86.5852 15.0852C86.0966 14.0739 85.8523 12.8977 85.8523 11.5568C85.8523 10.2159 86.0966 9.03409 86.5852 8.01136C87.0795 6.98295 87.767 6.18182 88.6477 5.60795C89.5341 5.02841 90.5682 4.73864 91.75 4.73864C92.4318 4.73864 93.1051 4.85227 93.7699 5.07954C94.4347 5.30682 95.0398 5.67614 95.5852 6.1875C96.1307 6.69318 96.5653 7.36364 96.8892 8.19886C97.2131 9.03409 97.375 10.0625 97.375 11.2841V12.1364H87.2841V10.3977H95.3295C95.3295 9.65909 95.1818 9 94.8864 8.42045C94.5966 7.84091 94.1818 7.38352 93.642 7.0483C93.108 6.71307 92.4773 6.54545 91.75 6.54545C90.9489 6.54545 90.2557 6.74432 89.6705 7.14205C89.0909 7.53409 88.6449 8.04545 88.3324 8.67614C88.0199 9.30682 87.8636 9.98295 87.8636 10.7045V11.8636C87.8636 12.8523 88.0341 13.6903 88.375 14.3778C88.7216 15.0597 89.2017 15.5795 89.8153 15.9375C90.429 16.2898 91.142 16.4659 91.9545 16.4659C92.483 16.4659 92.9602 16.392 93.3864 16.2443C93.8182 16.0909 94.1903 15.8636 94.5028 15.5625C94.8153 15.2557 95.0568 14.875 95.2273 14.4205L97.1705 14.9659C96.9659 15.625 96.6222 16.2045 96.1392 16.7045C95.6563 17.1989 95.0597 17.5852 94.3494 17.8636C93.6392 18.1364 92.8409 18.2727 91.9545 18.2727ZM101.332 22.9091C100.991 22.9091 100.687 22.8807 100.42 22.8239C100.153 22.7727 99.968 22.7216 99.8658 22.6705L100.377 20.8977C100.866 21.0227 101.298 21.0682 101.673 21.0341C102.048 21 102.38 20.8324 102.67 20.5312C102.965 20.2358 103.235 19.7557 103.479 19.0909L103.854 18.0682L99.0135 4.90909H101.195L104.809 15.3409H104.945L108.559 4.90909H110.741L105.184 19.9091C104.934 20.5852 104.624 21.1449 104.255 21.5881C103.886 22.0369 103.457 22.3693 102.968 22.5852C102.485 22.8011 101.94 22.9091 101.332 22.9091Z" fill="#F1F1F1"/>
</svg>
