<svg width="242" height="53" viewBox="0 0 242 53" fill="none" xmlns="http://www.w3.org/2000/svg">
<g filter="url(#filter0_dd_281_18334)">
<rect x="4" y="1" width="234" height="44" rx="4" fill="url(#paint0_linear_281_18334)"/>
<rect x="4.75" y="1.75" width="232.5" height="42.5" rx="3.25" stroke="url(#paint1_linear_281_18334)" stroke-width="1.5"/>
<path d="M103.479 28.5H101.848L105.512 18.3182H107.287L110.951 28.5H109.32L106.442 20.1676H106.362L103.479 28.5ZM103.752 24.5128H109.042V25.8054H103.752V24.5128ZM112.302 31.3636V20.8636H113.754V22.1016H113.878C113.964 21.9425 114.088 21.7585 114.251 21.5497C114.413 21.3409 114.639 21.1586 114.927 21.0028C115.215 20.8438 115.597 20.7642 116.07 20.7642C116.687 20.7642 117.237 20.92 117.721 21.2315C118.205 21.5431 118.584 21.9922 118.86 22.5788C119.138 23.1655 119.277 23.8714 119.277 24.6967C119.277 25.522 119.14 26.2296 118.865 26.8196C118.589 27.4062 118.212 27.8587 117.731 28.1768C117.25 28.4917 116.702 28.6491 116.085 28.6491C115.621 28.6491 115.242 28.5713 114.947 28.4155C114.655 28.2597 114.427 28.0774 114.261 27.8686C114.095 27.6598 113.968 27.4742 113.878 27.3118H113.789V31.3636H112.302ZM113.759 24.6818C113.759 25.2187 113.837 25.6894 113.992 26.0938C114.148 26.4981 114.374 26.8146 114.669 27.0433C114.963 27.2687 115.325 27.3814 115.752 27.3814C116.196 27.3814 116.568 27.2637 116.866 27.0284C117.164 26.7898 117.39 26.4666 117.542 26.0589C117.698 25.6513 117.776 25.1922 117.776 24.6818C117.776 24.178 117.7 23.7256 117.547 23.3246C117.398 22.9235 117.173 22.607 116.871 22.375C116.573 22.143 116.2 22.027 115.752 22.027C115.321 22.027 114.957 22.138 114.659 22.3601C114.364 22.5821 114.14 22.892 113.987 23.2898C113.835 23.6875 113.759 24.1515 113.759 24.6818ZM120.943 31.3636V20.8636H122.394V22.1016H122.519C122.605 21.9425 122.729 21.7585 122.892 21.5497C123.054 21.3409 123.279 21.1586 123.568 21.0028C123.856 20.8438 124.237 20.7642 124.711 20.7642C125.328 20.7642 125.878 20.92 126.362 21.2315C126.846 21.5431 127.225 21.9922 127.5 22.5788C127.779 23.1655 127.918 23.8714 127.918 24.6967C127.918 25.522 127.78 26.2296 127.505 26.8196C127.23 27.4062 126.852 27.8587 126.372 28.1768C125.891 28.4917 125.343 28.6491 124.726 28.6491C124.262 28.6491 123.883 28.5713 123.588 28.4155C123.296 28.2597 123.067 28.0774 122.901 27.8686C122.736 27.6598 122.608 27.4742 122.519 27.3118H122.429V31.3636H120.943ZM122.399 24.6818C122.399 25.2187 122.477 25.6894 122.633 26.0938C122.789 26.4981 123.014 26.8146 123.309 27.0433C123.604 27.2687 123.965 27.3814 124.393 27.3814C124.837 27.3814 125.208 27.2637 125.507 27.0284C125.805 26.7898 126.03 26.4666 126.183 26.0589C126.338 25.6513 126.416 25.1922 126.416 24.6818C126.416 24.178 126.34 23.7256 126.188 23.3246C126.039 22.9235 125.813 22.607 125.512 22.375C125.213 22.143 124.84 22.027 124.393 22.027C123.962 22.027 123.597 22.138 123.299 22.3601C123.004 22.5821 122.78 22.892 122.628 23.2898C122.476 23.6875 122.399 24.1515 122.399 24.6818ZM131.07 18.3182V28.5H129.583V18.3182H131.07ZM136.361 28.6541C135.608 28.6541 134.96 28.4934 134.417 28.1719C133.877 27.8471 133.459 27.3913 133.164 26.8047C132.872 26.2147 132.727 25.5237 132.727 24.7315C132.727 23.9493 132.872 23.2599 133.164 22.6634C133.459 22.0668 133.87 21.6011 134.397 21.2663C134.927 20.9316 135.547 20.7642 136.256 20.7642C136.687 20.7642 137.105 20.8355 137.509 20.978C137.914 21.1205 138.277 21.3442 138.598 21.6491C138.92 21.9541 139.173 22.3501 139.359 22.8374C139.544 23.3213 139.637 23.9096 139.637 24.6023V25.1293H133.567V24.0156H138.18C138.18 23.6245 138.101 23.2782 137.942 22.9766C137.783 22.6716 137.559 22.4313 137.271 22.2557C136.986 22.08 136.651 21.9922 136.266 21.9922C135.849 21.9922 135.484 22.0949 135.173 22.3004C134.864 22.5026 134.626 22.7678 134.457 23.0959C134.291 23.4207 134.208 23.7737 134.208 24.1548V25.0249C134.208 25.5353 134.298 25.9695 134.477 26.3274C134.659 26.6854 134.912 26.9588 135.237 27.1477C135.562 27.3333 135.942 27.4261 136.376 27.4261C136.657 27.4261 136.914 27.3864 137.146 27.3068C137.378 27.224 137.579 27.1013 137.748 26.9389C137.917 26.7765 138.046 26.576 138.136 26.3374L139.543 26.5909C139.43 27.0052 139.228 27.3681 138.936 27.6797C138.648 27.9879 138.285 28.2282 137.847 28.4006C137.413 28.5696 136.918 28.6541 136.361 28.6541Z" fill="#F1F1F1"/>
</g>
<defs>
<filter id="filter0_dd_281_18334" x="0" y="0" width="242" height="53" filterUnits="userSpaceOnUse" color-interpolation-filters="sRGB">
<feFlood flood-opacity="0" result="BackgroundImageFix"/>
<feColorMatrix in="SourceAlpha" type="matrix" values="0 0 0 0 0 0 0 0 0 0 0 0 0 0 0 0 0 0 127 0" result="hardAlpha"/>
<feOffset dy="4"/>
<feGaussianBlur stdDeviation="2"/>
<feComposite in2="hardAlpha" operator="out"/>
<feColorMatrix type="matrix" values="0 0 0 0 0 0 0 0 0 0.0392157 0 0 0 0 0.121569 0 0 0 0.2 0"/>
<feBlend mode="normal" in2="BackgroundImageFix" result="effect1_dropShadow_281_18334"/>
<feColorMatrix in="SourceAlpha" type="matrix" values="0 0 0 0 0 0 0 0 0 0 0 0 0 0 0 0 0 0 127 0" result="hardAlpha"/>
<feMorphology radius="1" operator="dilate" in="SourceAlpha" result="effect2_dropShadow_281_18334"/>
<feOffset/>
<feComposite in2="hardAlpha" operator="out"/>
<feColorMatrix type="matrix" values="0 0 0 0 0.0544985 0 0 0 0 0.263179 0 0 0 0 0.393604 0 0 0 1 0"/>
<feBlend mode="normal" in2="effect1_dropShadow_281_18334" result="effect2_dropShadow_281_18334"/>
<feBlend mode="normal" in="SourceGraphic" in2="effect2_dropShadow_281_18334" result="shape"/>
</filter>
<linearGradient id="paint0_linear_281_18334" x1="121" y1="1" x2="121" y2="45" gradientUnits="userSpaceOnUse">
<stop stop-color="#009DFF"/>
<stop offset="1" stop-color="#008AE0"/>
</linearGradient>
<linearGradient id="paint1_linear_281_18334" x1="120.743" y1="5.5" x2="121.715" y2="44.9824" gradientUnits="userSpaceOnUse">
<stop stop-color="#7BC0EB"/>
<stop offset="1" stop-color="#2083C1"/>
</linearGradient>
</defs>
</svg>
