<svg width="202" height="138" viewBox="0 0 202 138" fill="none" xmlns="http://www.w3.org/2000/svg">
<rect x="0.5" y="0.5" width="201" height="137" rx="4.5" stroke="#9747FF" stroke-dasharray="10 5"/>
<g filter="url(#filter0_dd_3_1395)">
<rect x="20" y="20" width="162" height="44" rx="4" fill="url(#paint0_linear_3_1395)"/>
<rect x="20.75" y="20.75" width="160.5" height="42.5" rx="3.25" stroke="url(#paint1_linear_3_1395)" stroke-width="1.5"/>
<g clip-path="url(#clip0_3_1395)">
<path d="M69 42C69 46.9706 64.9706 51 60 51C55.0294 51 51 46.9706 51 42C51 37.0294 55.0294 33 60 33" stroke="#F1F1F1" stroke-width="1.5" stroke-linecap="round" stroke-linejoin="round"/>
<path d="M59.119 38.522C59.3803 38.0354 59.9866 37.8528 60.4731 38.1141C60.6462 38.207 60.7881 38.3489 60.881 38.522L61.658 39.944C61.7501 40.113 61.889 40.2519 62.058 40.344L63.48 41.121C63.9666 41.3823 64.1492 41.9885 63.8879 42.4751C63.7949 42.6482 63.6531 42.79 63.48 42.883L62.058 43.66C61.889 43.752 61.7501 43.8909 61.658 44.06L60.881 45.482C60.6197 45.9685 60.0135 46.1512 59.5269 45.8899C59.3538 45.7969 59.2119 45.6551 59.119 45.482L58.342 44.06C58.2499 43.8909 58.1111 43.752 57.942 43.66L56.52 42.883C56.0334 42.6217 55.8508 42.0154 56.1121 41.5289C56.2051 41.3558 56.3469 41.2139 56.52 41.121L57.942 40.344C58.1111 40.2519 58.2499 40.113 58.342 39.944L59.119 38.522ZM66.339 32.392C66.5382 32.0269 66.9956 31.8925 67.3607 32.0917C67.4875 32.1609 67.5918 32.2651 67.661 32.392L68.244 33.458C68.313 33.5848 68.4172 33.6889 68.544 33.758L69.61 34.341C69.9751 34.5402 70.1095 34.9976 69.9103 35.3627C69.8411 35.4895 69.7369 35.5938 69.61 35.663L68.544 36.246C68.4172 36.315 68.313 36.4192 68.244 36.546L67.661 37.612C67.4618 37.977 67.0044 38.1115 66.6393 37.9123C66.5125 37.8431 66.4082 37.7388 66.339 37.612L65.756 36.546C65.687 36.4192 65.5828 36.315 65.456 36.246L64.39 35.663C64.0249 35.4638 63.8905 35.0064 64.0897 34.6413C64.1589 34.5144 64.2631 34.4102 64.39 34.341L65.456 33.758C65.5828 33.6889 65.687 33.5848 65.756 33.458L66.339 32.392Z" stroke="#F1F1F1" stroke-width="1.5"/>
</g>
<path d="M76.2614 48H74.3977L78.5852 36.3636H80.6136L84.8011 48H82.9375L79.6477 38.4773H79.5568L76.2614 48ZM76.5739 43.4432H82.6193V44.9205H76.5739V43.4432ZM88.044 36.3636V48H86.3452V36.3636H88.044ZM94.0057 48.1761C93.161 48.1761 92.4337 47.9848 91.8239 47.6023C91.2178 47.2159 90.7519 46.6837 90.4261 46.0057C90.1004 45.3277 89.9375 44.5511 89.9375 43.6761C89.9375 42.7898 90.1042 42.0076 90.4375 41.3295C90.7708 40.6477 91.2405 40.1155 91.8466 39.733C92.4527 39.3504 93.1667 39.1591 93.9886 39.1591C94.6515 39.1591 95.2424 39.2822 95.7614 39.5284C96.2803 39.7708 96.6989 40.1117 97.017 40.5511C97.339 40.9905 97.5303 41.5038 97.5909 42.0909H95.9375C95.8466 41.6818 95.6383 41.3295 95.3125 41.0341C94.9905 40.7386 94.5587 40.5909 94.017 40.5909C93.5436 40.5909 93.1288 40.7159 92.7727 40.9659C92.4205 41.2121 92.1458 41.5644 91.9489 42.0227C91.7519 42.4773 91.6534 43.0152 91.6534 43.6364C91.6534 44.2727 91.75 44.822 91.9432 45.2841C92.1364 45.7462 92.4091 46.1042 92.7614 46.358C93.1174 46.6117 93.536 46.7386 94.017 46.7386C94.339 46.7386 94.6307 46.6799 94.892 46.5625C95.1572 46.4413 95.3788 46.2689 95.5568 46.0455C95.7386 45.822 95.8655 45.553 95.9375 45.2386H97.5909C97.5303 45.803 97.3466 46.3068 97.0398 46.75C96.733 47.1932 96.322 47.5417 95.8068 47.7955C95.2955 48.0492 94.6951 48.1761 94.0057 48.1761ZM101.107 42.8182V48H99.4077V36.3636H101.084V40.6932H101.192C101.396 40.2235 101.709 39.8504 102.129 39.5739C102.55 39.2973 103.099 39.1591 103.777 39.1591C104.375 39.1591 104.898 39.2822 105.345 39.5284C105.796 39.7746 106.144 40.142 106.391 40.6307C106.641 41.1155 106.766 41.7216 106.766 42.4489V48H105.067V42.6534C105.067 42.0133 104.902 41.517 104.572 41.1648C104.243 40.8087 103.785 40.6307 103.197 40.6307C102.796 40.6307 102.436 40.7159 102.118 40.8864C101.804 41.0568 101.555 41.3068 101.374 41.6364C101.196 41.9621 101.107 42.3561 101.107 42.8182ZM112.794 48.1761C111.934 48.1761 111.194 47.9924 110.572 47.625C109.955 47.2538 109.478 46.733 109.141 46.0625C108.807 45.3883 108.641 44.5985 108.641 43.6932C108.641 42.7992 108.807 42.0114 109.141 41.3295C109.478 40.6477 109.947 40.1155 110.55 39.733C111.156 39.3504 111.864 39.1591 112.675 39.1591C113.167 39.1591 113.644 39.2405 114.107 39.4034C114.569 39.5663 114.983 39.822 115.351 40.1705C115.718 40.5189 116.008 40.9716 116.22 41.5284C116.432 42.0814 116.538 42.7538 116.538 43.5455V44.1477H109.601V42.875H114.874C114.874 42.428 114.783 42.0322 114.601 41.6875C114.419 41.339 114.163 41.0644 113.834 40.8636C113.508 40.6629 113.125 40.5625 112.686 40.5625C112.209 40.5625 111.792 40.6799 111.436 40.9148C111.084 41.1458 110.811 41.4489 110.618 41.8239C110.429 42.1951 110.334 42.5985 110.334 43.0341V44.0284C110.334 44.6117 110.436 45.108 110.641 45.517C110.849 45.9261 111.139 46.2386 111.51 46.4545C111.881 46.6667 112.315 46.7727 112.811 46.7727C113.133 46.7727 113.427 46.7273 113.692 46.6364C113.957 46.5417 114.186 46.4015 114.379 46.2159C114.572 46.0303 114.72 45.8011 114.822 45.5284L116.43 45.8182C116.302 46.2917 116.071 46.7064 115.737 47.0625C115.408 47.4148 114.993 47.6894 114.493 47.8864C113.997 48.0795 113.43 48.1761 112.794 48.1761ZM118.423 48V39.2727H120.054V40.6932H120.162C120.344 40.2121 120.641 39.8371 121.054 39.5682C121.467 39.2955 121.961 39.1591 122.537 39.1591C123.12 39.1591 123.609 39.2955 124.003 39.5682C124.401 39.8409 124.694 40.2159 124.884 40.6932H124.974C125.183 40.2273 125.514 39.8561 125.969 39.5795C126.423 39.2992 126.965 39.1591 127.594 39.1591C128.385 39.1591 129.031 39.4072 129.531 39.9034C130.035 40.3996 130.287 41.1477 130.287 42.1477V48H128.588V42.3068C128.588 41.7159 128.427 41.2879 128.105 41.0227C127.783 40.7576 127.399 40.625 126.952 40.625C126.399 40.625 125.969 40.7955 125.662 41.1364C125.355 41.4735 125.202 41.9072 125.202 42.4375V48H123.509V42.1989C123.509 41.7254 123.361 41.3447 123.065 41.0568C122.77 40.7689 122.385 40.625 121.912 40.625C121.59 40.625 121.293 40.7102 121.02 40.8807C120.751 41.0473 120.533 41.2803 120.366 41.5795C120.204 41.8788 120.122 42.2254 120.122 42.6193V48H118.423ZM132.564 48V39.2727H134.263V48H132.564ZM133.422 37.9261C133.126 37.9261 132.873 37.8277 132.661 37.6307C132.452 37.4299 132.348 37.1913 132.348 36.9148C132.348 36.6345 132.452 36.3958 132.661 36.1989C132.873 35.9981 133.126 35.8977 133.422 35.8977C133.717 35.8977 133.969 35.9981 134.178 36.1989C134.39 36.3958 134.496 36.6345 134.496 36.9148C134.496 37.1913 134.39 37.4299 134.178 37.6307C133.969 37.8277 133.717 37.9261 133.422 37.9261ZM136.366 48V46.8352L141.094 40.8295V40.75H136.52V39.2727H143.213V40.5114L138.668 46.4432V46.5227H143.372V48H136.366ZM148.888 48.1761C148.028 48.1761 147.287 47.9924 146.666 47.625C146.049 47.2538 145.571 46.733 145.234 46.0625C144.901 45.3883 144.734 44.5985 144.734 43.6932C144.734 42.7992 144.901 42.0114 145.234 41.3295C145.571 40.6477 146.041 40.1155 146.643 39.733C147.25 39.3504 147.958 39.1591 148.768 39.1591C149.261 39.1591 149.738 39.2405 150.2 39.4034C150.662 39.5663 151.077 39.822 151.445 40.1705C151.812 40.5189 152.102 40.9716 152.314 41.5284C152.526 42.0814 152.632 42.7538 152.632 43.5455V44.1477H145.695V42.875H150.967C150.967 42.428 150.876 42.0322 150.695 41.6875C150.513 41.339 150.257 41.0644 149.928 40.8636C149.602 40.6629 149.219 40.5625 148.78 40.5625C148.303 40.5625 147.886 40.6799 147.53 40.9148C147.178 41.1458 146.905 41.4489 146.712 41.8239C146.522 42.1951 146.428 42.5985 146.428 43.0341V44.0284C146.428 44.6117 146.53 45.108 146.734 45.517C146.943 45.9261 147.232 46.2386 147.604 46.4545C147.975 46.6667 148.409 46.7727 148.905 46.7727C149.227 46.7727 149.52 46.7273 149.786 46.6364C150.051 46.5417 150.28 46.4015 150.473 46.2159C150.666 46.0303 150.814 45.8011 150.916 45.5284L152.524 45.8182C152.395 46.2917 152.164 46.7064 151.831 47.0625C151.501 47.4148 151.087 47.6894 150.587 47.8864C150.09 48.0795 149.524 48.1761 148.888 48.1761Z" fill="#F1F1F1"/>
</g>
<g filter="url(#filter1_dd_3_1395)">
<rect x="20" y="74" width="162" height="44" rx="4" fill="#0074BC"/>
<g clip-path="url(#clip1_3_1395)">
<path d="M69 96C69 100.971 64.9706 105 60 105C55.0294 105 51 100.971 51 96C51 91.0294 55.0294 87 60 87" stroke="#F1F1F1" stroke-width="1.5" stroke-linecap="round" stroke-linejoin="round"/>
<path d="M59.119 92.522C59.3803 92.0354 59.9866 91.8528 60.4731 92.1141C60.6462 92.207 60.7881 92.3489 60.881 92.522L61.658 93.944C61.7501 94.113 61.889 94.2519 62.058 94.344L63.48 95.121C63.9666 95.3823 64.1492 95.9885 63.8879 96.4751C63.7949 96.6482 63.6531 96.79 63.48 96.883L62.058 97.66C61.889 97.752 61.7501 97.8909 61.658 98.06L60.881 99.482C60.6197 99.9685 60.0135 100.151 59.5269 99.8899C59.3538 99.7969 59.2119 99.6551 59.119 99.482L58.342 98.06C58.2499 97.8909 58.1111 97.752 57.942 97.66L56.52 96.883C56.0334 96.6217 55.8508 96.0154 56.1121 95.5289C56.2051 95.3558 56.3469 95.2139 56.52 95.121L57.942 94.344C58.1111 94.2519 58.2499 94.113 58.342 93.944L59.119 92.522ZM66.339 86.392C66.5382 86.0269 66.9956 85.8925 67.3607 86.0917C67.4875 86.1609 67.5918 86.2651 67.661 86.392L68.244 87.458C68.313 87.5848 68.4172 87.6889 68.544 87.758L69.61 88.341C69.9751 88.5402 70.1095 88.9976 69.9103 89.3627C69.8411 89.4895 69.7369 89.5938 69.61 89.663L68.544 90.246C68.4172 90.315 68.313 90.4192 68.244 90.546L67.661 91.612C67.4618 91.977 67.0044 92.1115 66.6393 91.9123C66.5125 91.8431 66.4082 91.7388 66.339 91.612L65.756 90.546C65.687 90.4192 65.5828 90.315 65.456 90.246L64.39 89.663C64.0249 89.4638 63.8905 89.0064 64.0897 88.6413C64.1589 88.5144 64.2631 88.4102 64.39 88.341L65.456 87.758C65.5828 87.6889 65.687 87.5848 65.756 87.458L66.339 86.392Z" stroke="#F1F1F1" stroke-width="1.5"/>
</g>
<path d="M76.2614 102H74.3977L78.5852 90.3636H80.6136L84.8011 102H82.9375L79.6477 92.4773H79.5568L76.2614 102ZM76.5739 97.4432H82.6193V98.9205H76.5739V97.4432ZM88.044 90.3636V102H86.3452V90.3636H88.044ZM94.0057 102.176C93.161 102.176 92.4337 101.985 91.8239 101.602C91.2178 101.216 90.7519 100.684 90.4261 100.006C90.1004 99.3277 89.9375 98.5511 89.9375 97.6761C89.9375 96.7898 90.1042 96.0076 90.4375 95.3295C90.7708 94.6477 91.2405 94.1155 91.8466 93.733C92.4527 93.3504 93.1667 93.1591 93.9886 93.1591C94.6515 93.1591 95.2424 93.2822 95.7614 93.5284C96.2803 93.7708 96.6989 94.1117 97.017 94.5511C97.339 94.9905 97.5303 95.5038 97.5909 96.0909H95.9375C95.8466 95.6818 95.6383 95.3295 95.3125 95.0341C94.9905 94.7386 94.5587 94.5909 94.017 94.5909C93.5436 94.5909 93.1288 94.7159 92.7727 94.9659C92.4205 95.2121 92.1458 95.5644 91.9489 96.0227C91.7519 96.4773 91.6534 97.0152 91.6534 97.6364C91.6534 98.2727 91.75 98.822 91.9432 99.2841C92.1364 99.7462 92.4091 100.104 92.7614 100.358C93.1174 100.612 93.536 100.739 94.017 100.739C94.339 100.739 94.6307 100.68 94.892 100.562C95.1572 100.441 95.3788 100.269 95.5568 100.045C95.7386 99.822 95.8655 99.553 95.9375 99.2386H97.5909C97.5303 99.803 97.3466 100.307 97.0398 100.75C96.733 101.193 96.322 101.542 95.8068 101.795C95.2955 102.049 94.6951 102.176 94.0057 102.176ZM101.107 96.8182V102H99.4077V90.3636H101.084V94.6932H101.192C101.396 94.2235 101.709 93.8504 102.129 93.5739C102.55 93.2973 103.099 93.1591 103.777 93.1591C104.375 93.1591 104.898 93.2822 105.345 93.5284C105.796 93.7746 106.144 94.142 106.391 94.6307C106.641 95.1155 106.766 95.7216 106.766 96.4489V102H105.067V96.6534C105.067 96.0133 104.902 95.517 104.572 95.1648C104.243 94.8087 103.785 94.6307 103.197 94.6307C102.796 94.6307 102.436 94.7159 102.118 94.8864C101.804 95.0568 101.555 95.3068 101.374 95.6364C101.196 95.9621 101.107 96.3561 101.107 96.8182ZM112.794 102.176C111.934 102.176 111.194 101.992 110.572 101.625C109.955 101.254 109.478 100.733 109.141 100.062C108.807 99.3883 108.641 98.5985 108.641 97.6932C108.641 96.7992 108.807 96.0114 109.141 95.3295C109.478 94.6477 109.947 94.1155 110.55 93.733C111.156 93.3504 111.864 93.1591 112.675 93.1591C113.167 93.1591 113.644 93.2405 114.107 93.4034C114.569 93.5663 114.983 93.822 115.351 94.1705C115.718 94.5189 116.008 94.9716 116.22 95.5284C116.432 96.0814 116.538 96.7538 116.538 97.5455V98.1477H109.601V96.875H114.874C114.874 96.428 114.783 96.0322 114.601 95.6875C114.419 95.339 114.163 95.0644 113.834 94.8636C113.508 94.6629 113.125 94.5625 112.686 94.5625C112.209 94.5625 111.792 94.6799 111.436 94.9148C111.084 95.1458 110.811 95.4489 110.618 95.8239C110.429 96.1951 110.334 96.5985 110.334 97.0341V98.0284C110.334 98.6117 110.436 99.108 110.641 99.517C110.849 99.9261 111.139 100.239 111.51 100.455C111.881 100.667 112.315 100.773 112.811 100.773C113.133 100.773 113.427 100.727 113.692 100.636C113.957 100.542 114.186 100.402 114.379 100.216C114.572 100.03 114.72 99.8011 114.822 99.5284L116.43 99.8182C116.302 100.292 116.071 100.706 115.737 101.062C115.408 101.415 114.993 101.689 114.493 101.886C113.997 102.08 113.43 102.176 112.794 102.176ZM118.423 102V93.2727H120.054V94.6932H120.162C120.344 94.2121 120.641 93.8371 121.054 93.5682C121.467 93.2955 121.961 93.1591 122.537 93.1591C123.12 93.1591 123.609 93.2955 124.003 93.5682C124.401 93.8409 124.694 94.2159 124.884 94.6932H124.974C125.183 94.2273 125.514 93.8561 125.969 93.5795C126.423 93.2992 126.965 93.1591 127.594 93.1591C128.385 93.1591 129.031 93.4072 129.531 93.9034C130.035 94.3996 130.287 95.1477 130.287 96.1477V102H128.588V96.3068C128.588 95.7159 128.427 95.2879 128.105 95.0227C127.783 94.7576 127.399 94.625 126.952 94.625C126.399 94.625 125.969 94.7955 125.662 95.1364C125.355 95.4735 125.202 95.9072 125.202 96.4375V102H123.509V96.1989C123.509 95.7254 123.361 95.3447 123.065 95.0568C122.77 94.7689 122.385 94.625 121.912 94.625C121.59 94.625 121.293 94.7102 121.02 94.8807C120.751 95.0473 120.533 95.2803 120.366 95.5795C120.204 95.8788 120.122 96.2254 120.122 96.6193V102H118.423ZM132.564 102V93.2727H134.263V102H132.564ZM133.422 91.9261C133.126 91.9261 132.873 91.8277 132.661 91.6307C132.452 91.4299 132.348 91.1913 132.348 90.9148C132.348 90.6345 132.452 90.3958 132.661 90.1989C132.873 89.9981 133.126 89.8977 133.422 89.8977C133.717 89.8977 133.969 89.9981 134.178 90.1989C134.39 90.3958 134.496 90.6345 134.496 90.9148C134.496 91.1913 134.39 91.4299 134.178 91.6307C133.969 91.8277 133.717 91.9261 133.422 91.9261ZM136.366 102V100.835L141.094 94.8295V94.75H136.52V93.2727H143.213V94.5114L138.668 100.443V100.523H143.372V102H136.366ZM148.888 102.176C148.028 102.176 147.287 101.992 146.666 101.625C146.049 101.254 145.571 100.733 145.234 100.062C144.901 99.3883 144.734 98.5985 144.734 97.6932C144.734 96.7992 144.901 96.0114 145.234 95.3295C145.571 94.6477 146.041 94.1155 146.643 93.733C147.25 93.3504 147.958 93.1591 148.768 93.1591C149.261 93.1591 149.738 93.2405 150.2 93.4034C150.662 93.5663 151.077 93.822 151.445 94.1705C151.812 94.5189 152.102 94.9716 152.314 95.5284C152.526 96.0814 152.632 96.7538 152.632 97.5455V98.1477H145.695V96.875H150.967C150.967 96.428 150.876 96.0322 150.695 95.6875C150.513 95.339 150.257 95.0644 149.928 94.8636C149.602 94.6629 149.219 94.5625 148.78 94.5625C148.303 94.5625 147.886 94.6799 147.53 94.9148C147.178 95.1458 146.905 95.4489 146.712 95.8239C146.522 96.1951 146.428 96.5985 146.428 97.0341V98.0284C146.428 98.6117 146.53 99.108 146.734 99.517C146.943 99.9261 147.232 100.239 147.604 100.455C147.975 100.667 148.409 100.773 148.905 100.773C149.227 100.773 149.52 100.727 149.786 100.636C150.051 100.542 150.28 100.402 150.473 100.216C150.666 100.03 150.814 99.8011 150.916 99.5284L152.524 99.8182C152.395 100.292 152.164 100.706 151.831 101.062C151.501 101.415 151.087 101.689 150.587 101.886C150.09 102.08 149.524 102.176 148.888 102.176Z" fill="#F1F1F1"/>
</g>
<defs>
<filter id="filter0_dd_3_1395" x="16" y="19" width="170" height="53" filterUnits="userSpaceOnUse" color-interpolation-filters="sRGB">
<feFlood flood-opacity="0" result="BackgroundImageFix"/>
<feColorMatrix in="SourceAlpha" type="matrix" values="0 0 0 0 0 0 0 0 0 0 0 0 0 0 0 0 0 0 127 0" result="hardAlpha"/>
<feOffset dy="4"/>
<feGaussianBlur stdDeviation="2"/>
<feComposite in2="hardAlpha" operator="out"/>
<feColorMatrix type="matrix" values="0 0 0 0 0 0 0 0 0 0.0392157 0 0 0 0 0.121569 0 0 0 0.2 0"/>
<feBlend mode="normal" in2="BackgroundImageFix" result="effect1_dropShadow_3_1395"/>
<feColorMatrix in="SourceAlpha" type="matrix" values="0 0 0 0 0 0 0 0 0 0 0 0 0 0 0 0 0 0 127 0" result="hardAlpha"/>
<feMorphology radius="1" operator="dilate" in="SourceAlpha" result="effect2_dropShadow_3_1395"/>
<feOffset/>
<feComposite in2="hardAlpha" operator="out"/>
<feColorMatrix type="matrix" values="0 0 0 0 0.0544985 0 0 0 0 0.263179 0 0 0 0 0.393604 0 0 0 1 0"/>
<feBlend mode="normal" in2="effect1_dropShadow_3_1395" result="effect2_dropShadow_3_1395"/>
<feBlend mode="normal" in="SourceGraphic" in2="effect2_dropShadow_3_1395" result="shape"/>
</filter>
<filter id="filter1_dd_3_1395" x="16" y="73" width="170" height="53" filterUnits="userSpaceOnUse" color-interpolation-filters="sRGB">
<feFlood flood-opacity="0" result="BackgroundImageFix"/>
<feColorMatrix in="SourceAlpha" type="matrix" values="0 0 0 0 0 0 0 0 0 0 0 0 0 0 0 0 0 0 127 0" result="hardAlpha"/>
<feOffset dy="4"/>
<feGaussianBlur stdDeviation="2"/>
<feComposite in2="hardAlpha" operator="out"/>
<feColorMatrix type="matrix" values="0 0 0 0 0 0 0 0 0 0.0392157 0 0 0 0 0.121569 0 0 0 0.2 0"/>
<feBlend mode="normal" in2="BackgroundImageFix" result="effect1_dropShadow_3_1395"/>
<feColorMatrix in="SourceAlpha" type="matrix" values="0 0 0 0 0 0 0 0 0 0 0 0 0 0 0 0 0 0 127 0" result="hardAlpha"/>
<feMorphology radius="1" operator="dilate" in="SourceAlpha" result="effect2_dropShadow_3_1395"/>
<feOffset/>
<feComposite in2="hardAlpha" operator="out"/>
<feColorMatrix type="matrix" values="0 0 0 0 0.0544985 0 0 0 0 0.263179 0 0 0 0 0.393604 0 0 0 1 0"/>
<feBlend mode="normal" in2="effect1_dropShadow_3_1395" result="effect2_dropShadow_3_1395"/>
<feBlend mode="normal" in="SourceGraphic" in2="effect2_dropShadow_3_1395" result="shape"/>
</filter>
<linearGradient id="paint0_linear_3_1395" x1="101" y1="20" x2="101" y2="64" gradientUnits="userSpaceOnUse">
<stop stop-color="#009DFF"/>
<stop offset="1" stop-color="#008AE0"/>
</linearGradient>
<linearGradient id="paint1_linear_3_1395" x1="100.822" y1="24.5" x2="102.225" y2="63.9565" gradientUnits="userSpaceOnUse">
<stop stop-color="#7BC0EB"/>
<stop offset="1" stop-color="#2083C1"/>
</linearGradient>
<clipPath id="clip0_3_1395">
<rect width="24" height="24" fill="white" transform="translate(48 30)"/>
</clipPath>
<clipPath id="clip1_3_1395">
<rect width="24" height="24" fill="white" transform="translate(48 84)"/>
</clipPath>
</defs>
</svg>
