<svg width="234" height="44" viewBox="0 0 234 44" fill="none" xmlns="http://www.w3.org/2000/svg">
<rect width="234" height="44" rx="4" fill="#334A5F"/>
<g clip-path="url(#clip0_281_18399)">
<path d="M120.2 16.25C123.724 16.25 125.75 18.9435 125.75 23C125.75 27.8301 121.832 31.7476 117 31.7476C112.169 31.7476 108.252 27.8319 108.25 23.0003C108.25 19.033 110.186 16.3704 113.567 16.254L113.8 16.25L113.867 16.253C114.756 16.3326 115.64 16.4616 116.515 16.6391L116.998 16.744L117.376 16.6616C118.105 16.5102 118.846 16.3923 119.617 16.3074L120.2 16.25ZM120.267 17.747C119.224 17.8404 118.189 18.006 117.17 18.2426C117.058 18.2685 116.942 18.2685 116.83 18.2426C116.015 18.0533 115.189 17.9094 114.358 17.8117L113.761 17.75L113.587 17.7545C111.202 17.856 109.83 19.6767 109.753 22.7277L109.75 23C109.751 27.0032 112.997 30.2476 117 30.2476C120.924 30.2476 124.12 27.1302 124.246 23.237L124.25 22.9976L124.247 22.7277C124.168 19.5875 122.718 17.7499 120.267 17.747Z" fill="#F1F1F1"/>
<path d="M122.249 11.25H120.405C118.247 11.2507 116.498 13.0006 116.499 15.1583V17C116.499 17.4142 116.835 17.75 117.249 17.75H119.091C121.249 17.7493 122.998 16.0002 122.999 13.8424V12C122.999 11.5858 122.663 11.25 122.249 11.25ZM121.498 12.749L121.499 13.8421L121.494 14.0004C121.412 15.2562 120.367 16.2496 119.091 16.25H117.998L117.999 15.1581C117.999 13.8285 119.076 12.7505 120.405 12.75L121.498 12.749Z" fill="#F1F1F1"/>
<path d="M114.749 13.25C116.482 13.25 117.898 14.6065 117.994 16.3156L117.999 16.5V17C117.999 17.4142 117.663 17.75 117.249 17.75C116.869 17.75 116.556 17.4678 116.506 17.1018L116.499 17V16.5C116.499 15.5818 115.792 14.8288 114.893 14.7558L114.749 14.75H114.249C113.835 14.75 113.499 14.4142 113.499 14C113.499 13.6203 113.781 13.3065 114.147 13.2568L114.249 13.25H114.749Z" fill="#F1F1F1"/>
</g>
<defs>
<clipPath id="clip0_281_18399">
<rect width="24" height="24" fill="white" transform="translate(105 10)"/>
</clipPath>
</defs>
</svg>
