<svg width="121" height="23" viewBox="0 0 121 23" fill="none" xmlns="http://www.w3.org/2000/svg">
<path d="M10.6591 4.90909C10.5568 4.04545 10.142 3.375 9.41477 2.89773C8.6875 2.42045 7.79545 2.18182 6.73864 2.18182C5.96591 2.18182 5.28977 2.30682 4.71023 2.55682C4.13636 2.80682 3.6875 3.15057 3.36364 3.58807C3.04545 4.02557 2.88636 4.52273 2.88636 5.07954C2.88636 5.54545 2.99716 5.94602 3.21875 6.28125C3.44602 6.6108 3.7358 6.88636 4.08807 7.10795C4.44034 7.32386 4.80966 7.50284 5.19602 7.64489C5.58239 7.78125 5.9375 7.89205 6.26136 7.97727L8.03409 8.45455C8.48864 8.57386 8.99432 8.73864 9.55114 8.94886C10.1136 9.15909 10.6506 9.44602 11.1619 9.80966C11.679 10.1676 12.1051 10.6278 12.4403 11.1903C12.7756 11.7528 12.9432 12.4432 12.9432 13.2614C12.9432 14.2045 12.696 15.0568 12.2017 15.8182C11.7131 16.5795 10.9972 17.1847 10.054 17.6335C9.11648 18.0824 7.97727 18.3068 6.63636 18.3068C5.38636 18.3068 4.30398 18.1051 3.3892 17.7017C2.48011 17.2983 1.7642 16.7358 1.24148 16.0142C0.724432 15.2926 0.431818 14.4545 0.363636 13.5H2.54545C2.60227 14.1591 2.82386 14.7045 3.21023 15.1364C3.60227 15.5625 4.09659 15.8807 4.69318 16.0909C5.29545 16.2955 5.94318 16.3977 6.63636 16.3977C7.44318 16.3977 8.16761 16.267 8.80966 16.0057C9.4517 15.7386 9.96023 15.3693 10.3352 14.8977C10.7102 14.4205 10.8977 13.8636 10.8977 13.2273C10.8977 12.6477 10.7358 12.1761 10.4119 11.8125C10.0881 11.4489 9.66193 11.1534 9.13352 10.9261C8.60511 10.6989 8.03409 10.5 7.42045 10.3295L5.27273 9.71591C3.90909 9.32386 2.82955 8.7642 2.03409 8.03693C1.23864 7.30966 0.840909 6.35795 0.840909 5.18182C0.840909 4.20454 1.10511 3.35227 1.63352 2.625C2.16761 1.89205 2.88352 1.32386 3.78125 0.920454C4.68466 0.511363 5.69318 0.306818 6.80682 0.306818C7.93182 0.306818 8.93182 0.508522 9.80682 0.911931C10.6818 1.30966 11.375 1.85511 11.8864 2.54829C12.4034 3.24148 12.6761 4.02841 12.7045 4.90909H10.6591ZM21.6342 18.2727C20.3729 18.2727 19.2848 17.9943 18.37 17.4375C17.4609 16.875 16.7592 16.0909 16.2649 15.0852C15.7763 14.0739 15.532 12.8977 15.532 11.5568C15.532 10.2159 15.7763 9.03409 16.2649 8.01136C16.7592 6.98295 17.4467 6.18182 18.3274 5.60795C19.2138 5.02841 20.2479 4.73864 21.4297 4.73864C22.1115 4.73864 22.7848 4.85227 23.4496 5.07954C24.1143 5.30682 24.7195 5.67614 25.2649 6.1875C25.8104 6.69318 26.245 7.36364 26.5689 8.19886C26.8928 9.03409 27.0547 10.0625 27.0547 11.2841V12.1364H16.9638V10.3977H25.0092C25.0092 9.65909 24.8615 9 24.5661 8.42045C24.2763 7.84091 23.8615 7.38352 23.3217 7.0483C22.7876 6.71307 22.157 6.54545 21.4297 6.54545C20.6286 6.54545 19.9354 6.74432 19.3501 7.14205C18.7706 7.53409 18.3246 8.04545 18.0121 8.67614C17.6996 9.30682 17.5433 9.98295 17.5433 10.7045V11.8636C17.5433 12.8523 17.7138 13.6903 18.0547 14.3778C18.4013 15.0597 18.8814 15.5795 19.495 15.9375C20.1087 16.2898 20.8217 16.4659 21.6342 16.4659C22.1626 16.4659 22.6399 16.392 23.0661 16.2443C23.4979 16.0909 23.87 15.8636 24.1825 15.5625C24.495 15.2557 24.7365 14.875 24.907 14.4205L26.8501 14.9659C26.6456 15.625 26.3018 16.2045 25.8189 16.7045C25.3359 17.1989 24.7393 17.5852 24.0291 17.8636C23.3189 18.1364 22.5206 18.2727 21.6342 18.2727ZM35.4325 18.2727C34.2053 18.2727 33.1484 17.983 32.2621 17.4034C31.3757 16.8239 30.6939 16.0256 30.2166 15.0085C29.7393 13.9915 29.5007 12.8295 29.5007 11.5227C29.5007 10.1932 29.745 9.01989 30.2337 8.00284C30.728 6.98011 31.4155 6.18182 32.2962 5.60795C33.1825 5.02841 34.2166 4.73864 35.3984 4.73864C36.3189 4.73864 37.1484 4.90909 37.8871 5.25C38.6257 5.59091 39.2308 6.06818 39.7024 6.68182C40.174 7.29545 40.4666 8.01136 40.5803 8.82955H38.5689C38.4155 8.23295 38.0746 7.70455 37.5462 7.24432C37.0234 6.77841 36.3189 6.54545 35.4325 6.54545C34.6484 6.54545 33.9609 6.75 33.37 7.15909C32.7848 7.5625 32.3274 8.13352 31.9979 8.87216C31.674 9.60511 31.5121 10.4659 31.5121 11.4545C31.5121 12.4659 31.6712 13.3466 31.9893 14.0966C32.3132 14.8466 32.7678 15.429 33.353 15.8438C33.9439 16.2585 34.6371 16.4659 35.4325 16.4659C35.9553 16.4659 36.4297 16.375 36.8558 16.1932C37.282 16.0114 37.6428 15.75 37.9382 15.4091C38.2337 15.0682 38.4439 14.6591 38.5689 14.1818H40.5803C40.4666 14.9545 40.1854 15.6506 39.7365 16.2699C39.2933 16.8835 38.7053 17.3722 37.9723 17.7358C37.245 18.0938 36.3984 18.2727 35.4325 18.2727ZM48.8388 18.2727C47.657 18.2727 46.62 17.9915 45.728 17.429C44.8416 16.8665 44.1484 16.0795 43.6484 15.0682C43.1541 14.0568 42.907 12.875 42.907 11.5227C42.907 10.1591 43.1541 8.96875 43.6484 7.9517C44.1484 6.93466 44.8416 6.14489 45.728 5.58239C46.62 5.01989 47.657 4.73864 48.8388 4.73864C50.0206 4.73864 51.0547 5.01989 51.9411 5.58239C52.8331 6.14489 53.5263 6.93466 54.0206 7.9517C54.5206 8.96875 54.7706 10.1591 54.7706 11.5227C54.7706 12.875 54.5206 14.0568 54.0206 15.0682C53.5263 16.0795 52.8331 16.8665 51.9411 17.429C51.0547 17.9915 50.0206 18.2727 48.8388 18.2727ZM48.8388 16.4659C49.7365 16.4659 50.4751 16.2358 51.0547 15.7756C51.6342 15.3153 52.0632 14.7102 52.3416 13.9602C52.62 13.2102 52.7592 12.3977 52.7592 11.5227C52.7592 10.6477 52.62 9.83239 52.3416 9.0767C52.0632 8.32102 51.6342 7.71023 51.0547 7.24432C50.4751 6.77841 49.7365 6.54545 48.8388 6.54545C47.9411 6.54545 47.2024 6.77841 46.6229 7.24432C46.0433 7.71023 45.6143 8.32102 45.3359 9.0767C45.0575 9.83239 44.9183 10.6477 44.9183 11.5227C44.9183 12.3977 45.0575 13.2102 45.3359 13.9602C45.6143 14.7102 46.0433 15.3153 46.6229 15.7756C47.2024 16.2358 47.9411 16.4659 48.8388 16.4659ZM59.8523 10.125V18H57.8409V4.90909H59.7841V6.95455H59.9545C60.2614 6.28977 60.7273 5.75568 61.3523 5.35227C61.9773 4.94318 62.7841 4.73864 63.7727 4.73864C64.6591 4.73864 65.4347 4.92045 66.0994 5.28409C66.7642 5.64205 67.2813 6.1875 67.6506 6.92045C68.0199 7.64773 68.2045 8.56818 68.2045 9.68182V18H66.1932V9.81818C66.1932 8.78977 65.9261 7.98864 65.392 7.41477C64.858 6.83523 64.125 6.54545 63.1932 6.54545C62.5511 6.54545 61.9773 6.68466 61.4716 6.96307C60.9716 7.24148 60.5767 7.64773 60.2869 8.18182C59.9972 8.71591 59.8523 9.36364 59.8523 10.125ZM76.8232 18.2727C75.7322 18.2727 74.7692 17.9972 73.9339 17.446C73.0987 16.8892 72.4453 16.1051 71.9737 15.0938C71.5021 14.0767 71.2663 12.875 71.2663 11.4886C71.2663 10.1136 71.5021 8.92045 71.9737 7.90909C72.4453 6.89773 73.1016 6.11648 73.9425 5.56534C74.7834 5.0142 75.755 4.73864 76.8572 4.73864C77.7095 4.73864 78.3828 4.88068 78.8771 5.16477C79.3771 5.44318 79.7578 5.76136 80.0192 6.11932C80.2862 6.47159 80.4936 6.76136 80.6413 6.98864H80.8118V0.545454H82.8232V18H80.88V15.9886H80.6413C80.4936 16.2273 80.2834 16.5284 80.0107 16.892C79.7379 17.25 79.3487 17.571 78.843 17.8551C78.3374 18.1335 77.6641 18.2727 76.8232 18.2727ZM77.0959 16.4659C77.9027 16.4659 78.5845 16.2557 79.1413 15.8352C79.6982 15.4091 80.1214 14.821 80.4112 14.071C80.701 13.3153 80.8459 12.4432 80.8459 11.4545C80.8459 10.4773 80.7038 9.62216 80.4197 8.8892C80.1357 8.15057 79.7152 7.5767 79.1584 7.16761C78.6016 6.75284 77.9141 6.54545 77.0959 6.54545C76.2436 6.54545 75.5334 6.7642 74.9652 7.2017C74.4027 7.63352 73.9794 8.22159 73.6953 8.96591C73.4169 9.70455 73.2777 10.5341 73.2777 11.4545C73.2777 12.3864 73.4197 13.233 73.7038 13.9943C73.9936 14.75 74.4197 15.3523 74.9822 15.8011C75.5504 16.2443 76.255 16.4659 77.0959 16.4659ZM90.6385 18.3068C89.8089 18.3068 89.0561 18.1506 88.38 17.8381C87.7038 17.5199 87.1669 17.0625 86.7692 16.4659C86.3714 15.8636 86.1726 15.1364 86.1726 14.2841C86.1726 13.5341 86.3203 12.9261 86.6158 12.4602C86.9112 11.9886 87.3061 11.6193 87.8004 11.3523C88.2947 11.0852 88.8402 10.8864 89.4368 10.7557C90.0391 10.6193 90.6442 10.5114 91.2521 10.4318C92.0476 10.3295 92.6925 10.2528 93.1868 10.2017C93.6868 10.1449 94.0504 10.0511 94.2777 9.92045C94.5107 9.78977 94.6271 9.5625 94.6271 9.23864V9.17045C94.6271 8.32955 94.397 7.67614 93.9368 7.21023C93.4822 6.74432 92.7919 6.51136 91.8658 6.51136C90.9055 6.51136 90.1527 6.72159 89.6072 7.14205C89.0618 7.5625 88.6783 8.01136 88.4567 8.48864L86.5476 7.80682C86.8885 7.01136 87.343 6.39205 87.9112 5.94886C88.4851 5.5 89.1101 5.1875 89.7862 5.01136C90.468 4.82955 91.1385 4.73864 91.7976 4.73864C92.218 4.73864 92.701 4.78977 93.2464 4.89204C93.7976 4.98864 94.3288 5.19034 94.8402 5.49716C95.3572 5.80398 95.7862 6.26705 96.1271 6.88636C96.468 7.50568 96.6385 8.33523 96.6385 9.375V18H94.6271V16.2273H94.5249C94.3885 16.5114 94.1612 16.8153 93.843 17.1392C93.5249 17.4631 93.1016 17.7386 92.5732 17.9659C92.0447 18.1932 91.3999 18.3068 90.6385 18.3068ZM90.9453 16.5C91.7408 16.5 92.4112 16.3438 92.9567 16.0312C93.5078 15.7188 93.9226 15.3153 94.201 14.821C94.4851 14.3267 94.6271 13.8068 94.6271 13.2614V11.4205C94.5419 11.5227 94.3544 11.6165 94.0646 11.7017C93.7805 11.7812 93.451 11.8523 93.076 11.9148C92.7067 11.9716 92.3459 12.0227 91.9936 12.0682C91.647 12.108 91.3658 12.142 91.1499 12.1705C90.6271 12.2386 90.1385 12.3494 89.6839 12.5028C89.2351 12.6506 88.8714 12.875 88.593 13.1761C88.3203 13.4716 88.1839 13.875 88.1839 14.3864C88.1839 15.0852 88.4425 15.6136 88.9595 15.9716C89.4822 16.3239 90.1442 16.5 90.9453 16.5ZM100.31 18V4.90909H102.253V6.88636H102.389C102.628 6.23864 103.06 5.71307 103.685 5.30966C104.31 4.90625 105.014 4.70454 105.798 4.70454C105.946 4.70454 106.131 4.70739 106.352 4.71307C106.574 4.71875 106.741 4.72727 106.855 4.73864V6.78409C106.787 6.76705 106.631 6.74148 106.386 6.70739C106.148 6.66761 105.895 6.64773 105.628 6.64773C104.991 6.64773 104.423 6.78125 103.923 7.0483C103.429 7.30966 103.037 7.6733 102.747 8.1392C102.463 8.59943 102.321 9.125 102.321 9.71591V18H100.31ZM110.933 22.9091C110.592 22.9091 110.288 22.8807 110.021 22.8239C109.754 22.7727 109.57 22.7216 109.467 22.6705L109.979 20.8977C110.467 21.0227 110.899 21.0682 111.274 21.0341C111.649 21 111.982 20.8324 112.271 20.5312C112.567 20.2358 112.837 19.7557 113.081 19.0909L113.456 18.0682L108.615 4.90909H110.797L114.411 15.3409H114.547L118.161 4.90909H120.342L114.786 19.9091C114.536 20.5852 114.226 21.1449 113.857 21.5881C113.487 22.0369 113.058 22.3693 112.57 22.5852C112.087 22.8011 111.541 22.9091 110.933 22.9091Z" fill="#F1F1F1"/>
</svg>
