<svg width="234" height="44" viewBox="0 0 234 44" fill="none" xmlns="http://www.w3.org/2000/svg">
<rect width="234" height="44" rx="4" fill="#334A5F"/>
<path d="M99.4787 27.5H97.848L101.512 17.3182H103.287L106.951 27.5H105.32L102.442 19.1676H102.362L99.4787 27.5ZM99.7521 23.5128H105.042V24.8054H99.7521V23.5128ZM108.302 30.3636V19.8636H109.754V21.1016H109.878C109.964 20.9425 110.088 20.7585 110.251 20.5497C110.413 20.3409 110.639 20.1586 110.927 20.0028C111.215 19.8438 111.597 19.7642 112.07 19.7642C112.687 19.7642 113.237 19.92 113.721 20.2315C114.205 20.5431 114.584 20.9922 114.86 21.5788C115.138 22.1655 115.277 22.8714 115.277 23.6967C115.277 24.522 115.14 25.2296 114.865 25.8196C114.589 26.4062 114.212 26.8587 113.731 27.1768C113.25 27.4917 112.702 27.6491 112.085 27.6491C111.621 27.6491 111.242 27.5713 110.947 27.4155C110.655 27.2597 110.427 27.0774 110.261 26.8686C110.095 26.6598 109.968 26.4742 109.878 26.3118H109.789V30.3636H108.302ZM109.759 23.6818C109.759 24.2187 109.837 24.6894 109.992 25.0938C110.148 25.4981 110.374 25.8146 110.669 26.0433C110.963 26.2687 111.325 26.3814 111.752 26.3814C112.196 26.3814 112.568 26.2637 112.866 26.0284C113.164 25.7898 113.39 25.4666 113.542 25.0589C113.698 24.6513 113.776 24.1922 113.776 23.6818C113.776 23.178 113.7 22.7256 113.547 22.3246C113.398 21.9235 113.173 21.607 112.871 21.375C112.573 21.143 112.2 21.027 111.752 21.027C111.321 21.027 110.957 21.138 110.659 21.3601C110.364 21.5821 110.14 21.892 109.987 22.2898C109.835 22.6875 109.759 23.1515 109.759 23.6818ZM116.943 30.3636V19.8636H118.394V21.1016H118.519C118.605 20.9425 118.729 20.7585 118.892 20.5497C119.054 20.3409 119.279 20.1586 119.568 20.0028C119.856 19.8438 120.237 19.7642 120.711 19.7642C121.328 19.7642 121.878 19.92 122.362 20.2315C122.846 20.5431 123.225 20.9922 123.5 21.5788C123.779 22.1655 123.918 22.8714 123.918 23.6967C123.918 24.522 123.78 25.2296 123.505 25.8196C123.23 26.4062 122.852 26.8587 122.372 27.1768C121.891 27.4917 121.343 27.6491 120.726 27.6491C120.262 27.6491 119.883 27.5713 119.588 27.4155C119.296 27.2597 119.067 27.0774 118.901 26.8686C118.736 26.6598 118.608 26.4742 118.519 26.3118H118.429V30.3636H116.943ZM118.399 23.6818C118.399 24.2187 118.477 24.6894 118.633 25.0938C118.789 25.4981 119.014 25.8146 119.309 26.0433C119.604 26.2687 119.965 26.3814 120.393 26.3814C120.837 26.3814 121.208 26.2637 121.507 26.0284C121.805 25.7898 122.03 25.4666 122.183 25.0589C122.338 24.6513 122.416 24.1922 122.416 23.6818C122.416 23.178 122.34 22.7256 122.188 22.3246C122.039 21.9235 121.813 21.607 121.512 21.375C121.213 21.143 120.84 21.027 120.393 21.027C119.962 21.027 119.597 21.138 119.299 21.3601C119.004 21.5821 118.78 21.892 118.628 22.2898C118.476 22.6875 118.399 23.1515 118.399 23.6818ZM127.07 17.3182V27.5H125.583V17.3182H127.07ZM132.361 27.6541C131.608 27.6541 130.96 27.4934 130.417 27.1719C129.877 26.8471 129.459 26.3913 129.164 25.8047C128.872 25.2147 128.727 24.5237 128.727 23.7315C128.727 22.9493 128.872 22.2599 129.164 21.6634C129.459 21.0668 129.87 20.6011 130.397 20.2663C130.927 19.9316 131.547 19.7642 132.256 19.7642C132.687 19.7642 133.105 19.8355 133.509 19.978C133.914 20.1205 134.277 20.3442 134.598 20.6491C134.92 20.9541 135.173 21.3501 135.359 21.8374C135.544 22.3213 135.637 22.9096 135.637 23.6023V24.1293H129.567V23.0156H134.18C134.18 22.6245 134.101 22.2782 133.942 21.9766C133.783 21.6716 133.559 21.4313 133.271 21.2557C132.986 21.08 132.651 20.9922 132.266 20.9922C131.849 20.9922 131.484 21.0949 131.173 21.3004C130.864 21.5026 130.626 21.7678 130.457 22.0959C130.291 22.4207 130.208 22.7737 130.208 23.1548V24.0249C130.208 24.5353 130.298 24.9695 130.477 25.3274C130.659 25.6854 130.912 25.9588 131.237 26.1477C131.562 26.3333 131.942 26.4261 132.376 26.4261C132.657 26.4261 132.914 26.3864 133.146 26.3068C133.378 26.224 133.579 26.1013 133.748 25.9389C133.917 25.7765 134.046 25.576 134.136 25.3374L135.543 25.5909C135.43 26.0052 135.228 26.3681 134.936 26.6797C134.648 26.9879 134.285 27.2282 133.847 27.4006C133.413 27.5696 132.918 27.6541 132.361 27.6541Z" fill="#F1F1F1"/>
</svg>
