<svg width="186" height="138" viewBox="0 0 186 138" fill="none" xmlns="http://www.w3.org/2000/svg">
<rect x="0.5" y="0.5" width="185" height="137" rx="4.5" stroke="#9747FF" stroke-dasharray="10 5"/>
<rect x="20" y="20" width="146" height="44" rx="4" fill="#334A5F"/>
<g clip-path="url(#clip0_3_1434)">
<path d="M50.778 37H45.222C43.9948 37 43 37.9948 43 39.222V44.778C43 46.0052 43.9948 47 45.222 47H50.778C52.0052 47 53 46.0052 53 44.778V39.221C52.9996 37.9942 52.0048 37.0001 50.778 37Z" stroke="#F1F1F1" stroke-width="1.5" stroke-linecap="round" stroke-linejoin="round"/>
<path d="M46.5299 40.1371C46.6385 40.2456 46.6386 40.4216 46.5301 40.5302C46.4215 40.6388 46.2455 40.6389 46.1369 40.5304C46.0283 40.4219 46.0282 40.2458 46.1368 40.1372C46.2455 40.0293 46.4211 40.0292 46.5299 40.1371Z" stroke="#F1F1F1" stroke-width="1.5" stroke-linecap="round" stroke-linejoin="round"/>
<path d="M46 51H50" stroke="#F1F1F1" stroke-width="1.5" stroke-linecap="round" stroke-linejoin="round"/>
<path d="M46 33H50" stroke="#F1F1F1" stroke-width="1.5" stroke-linecap="round" stroke-linejoin="round"/>
<path d="M39 40V44" stroke="#F1F1F1" stroke-width="1.5" stroke-linecap="round" stroke-linejoin="round"/>
<path d="M57 40V44" stroke="#F1F1F1" stroke-width="1.5" stroke-linecap="round" stroke-linejoin="round"/>
<path d="M43 51V51C40.7909 51 39 49.2091 39 47V47" stroke="#F1F1F1" stroke-width="1.5" stroke-linecap="round" stroke-linejoin="round"/>
<path d="M43 51V51C40.7909 51 39 49.2091 39 47V47" stroke="#F1F1F1" stroke-width="1.5" stroke-linecap="round" stroke-linejoin="round"/>
<path d="M53 33C55.2091 33 57 34.7909 57 37M39 37C39 34.7909 40.7909 33 43 33M57 47C57 49.2091 55.2091 51 53 51M53 41.5C52.7683 41.4648 52.5344 41.4461 52.3 41.444C49.637 41.4251 47.4628 43.5686 47.4439 46.2317C47.4421 46.4889 47.4608 46.7458 47.5 47" stroke="#F1F1F1" stroke-width="1.5" stroke-linecap="round" stroke-linejoin="round"/>
</g>
<path d="M68.2614 48H66.3977L70.5852 36.3636H72.6136L76.8011 48H74.9375L71.6477 38.4773H71.5568L68.2614 48ZM68.5739 43.4432H74.6193V44.9205H68.5739V43.4432ZM81.4716 48.1705C80.767 48.1705 80.1383 47.9905 79.5852 47.6307C79.036 47.267 78.6042 46.75 78.2898 46.0795C77.9792 45.4053 77.8239 44.5966 77.8239 43.6534C77.8239 42.7102 77.9811 41.9034 78.2955 41.233C78.6136 40.5625 79.0492 40.0492 79.6023 39.6932C80.1553 39.3371 80.7822 39.1591 81.483 39.1591C82.0246 39.1591 82.4602 39.25 82.7898 39.4318C83.1231 39.6098 83.3807 39.8182 83.5625 40.0568C83.7481 40.2955 83.892 40.5057 83.9943 40.6875H84.0966V36.3636H85.7955V48H84.1364V46.642H83.9943C83.892 46.8277 83.7443 47.0398 83.5511 47.2784C83.3617 47.517 83.1004 47.7254 82.767 47.9034C82.4337 48.0814 82.0019 48.1705 81.4716 48.1705ZM81.8466 46.7216C82.3352 46.7216 82.7481 46.5928 83.0852 46.3352C83.4261 46.0739 83.6837 45.7121 83.858 45.25C84.036 44.7879 84.125 44.25 84.125 43.6364C84.125 43.0303 84.0379 42.5 83.8636 42.0455C83.6894 41.5909 83.4337 41.2367 83.0966 40.983C82.7595 40.7292 82.3428 40.6023 81.8466 40.6023C81.3352 40.6023 80.9091 40.7348 80.5682 41C80.2273 41.2652 79.9697 41.6269 79.7955 42.0852C79.625 42.5436 79.5398 43.0606 79.5398 43.6364C79.5398 44.2197 79.6269 44.7443 79.8011 45.2102C79.9754 45.6761 80.233 46.0455 80.5739 46.3182C80.9186 46.5871 81.3428 46.7216 81.8466 46.7216ZM91.4872 48.1705C90.7827 48.1705 90.1539 47.9905 89.6009 47.6307C89.0516 47.267 88.6198 46.75 88.3054 46.0795C87.9948 45.4053 87.8395 44.5966 87.8395 43.6534C87.8395 42.7102 87.9967 41.9034 88.3111 41.233C88.6293 40.5625 89.0649 40.0492 89.6179 39.6932C90.1709 39.3371 90.7978 39.1591 91.4986 39.1591C92.0402 39.1591 92.4759 39.25 92.8054 39.4318C93.1387 39.6098 93.3963 39.8182 93.5781 40.0568C93.7637 40.2955 93.9077 40.5057 94.0099 40.6875H94.1122V36.3636H95.8111V48H94.152V46.642H94.0099C93.9077 46.8277 93.7599 47.0398 93.5668 47.2784C93.3774 47.517 93.116 47.7254 92.7827 47.9034C92.4493 48.0814 92.0175 48.1705 91.4872 48.1705ZM91.8622 46.7216C92.3509 46.7216 92.7637 46.5928 93.1009 46.3352C93.4418 46.0739 93.6993 45.7121 93.8736 45.25C94.0516 44.7879 94.1406 44.25 94.1406 43.6364C94.1406 43.0303 94.0535 42.5 93.8793 42.0455C93.705 41.5909 93.4493 41.2367 93.1122 40.983C92.7751 40.7292 92.3584 40.6023 91.8622 40.6023C91.3509 40.6023 90.9247 40.7348 90.5838 41C90.2429 41.2652 89.9853 41.6269 89.8111 42.0852C89.6406 42.5436 89.5554 43.0606 89.5554 43.6364C89.5554 44.2197 89.6425 44.7443 89.8168 45.2102C89.991 45.6761 90.2486 46.0455 90.5895 46.3182C90.9342 46.5871 91.3584 46.7216 91.8622 46.7216ZM102.47 48V39.2727H104.169V48H102.47ZM103.328 37.9261C103.033 37.9261 102.779 37.8277 102.567 37.6307C102.358 37.4299 102.254 37.1913 102.254 36.9148C102.254 36.6345 102.358 36.3958 102.567 36.1989C102.779 35.9981 103.033 35.8977 103.328 35.8977C103.624 35.8977 103.875 35.9981 104.084 36.1989C104.296 36.3958 104.402 36.6345 104.402 36.9148C104.402 37.1913 104.296 37.4299 104.084 37.6307C103.875 37.8277 103.624 37.9261 103.328 37.9261ZM106.455 48V39.2727H108.085V40.6932H108.193C108.375 40.2121 108.672 39.8371 109.085 39.5682C109.498 39.2955 109.992 39.1591 110.568 39.1591C111.152 39.1591 111.64 39.2955 112.034 39.5682C112.432 39.8409 112.725 40.2159 112.915 40.6932H113.006C113.214 40.2273 113.545 39.8561 114 39.5795C114.455 39.2992 114.996 39.1591 115.625 39.1591C116.417 39.1591 117.062 39.4072 117.562 39.9034C118.066 40.3996 118.318 41.1477 118.318 42.1477V48H116.619V42.3068C116.619 41.7159 116.458 41.2879 116.136 41.0227C115.814 40.7576 115.43 40.625 114.983 40.625C114.43 40.625 114 40.7955 113.693 41.1364C113.386 41.4735 113.233 41.9072 113.233 42.4375V48H111.54V42.1989C111.54 41.7254 111.392 41.3447 111.097 41.0568C110.801 40.7689 110.417 40.625 109.943 40.625C109.621 40.625 109.324 40.7102 109.051 40.8807C108.782 41.0473 108.564 41.2803 108.398 41.5795C108.235 41.8788 108.153 42.2254 108.153 42.6193V48H106.455ZM123.135 48.1932C122.582 48.1932 122.082 48.0909 121.635 47.8864C121.188 47.678 120.834 47.3769 120.572 46.983C120.315 46.589 120.186 46.1061 120.186 45.5341C120.186 45.0417 120.281 44.6364 120.47 44.3182C120.66 44 120.915 43.7481 121.237 43.5625C121.559 43.3769 121.919 43.2367 122.317 43.142C122.714 43.0473 123.12 42.9754 123.533 42.9261C124.055 42.8655 124.48 42.8163 124.805 42.7784C125.131 42.7367 125.368 42.6705 125.516 42.5795C125.663 42.4886 125.737 42.3409 125.737 42.1364V42.0966C125.737 41.6004 125.597 41.2159 125.317 40.9432C125.04 40.6705 124.627 40.5341 124.078 40.5341C123.506 40.5341 123.055 40.661 122.726 40.9148C122.4 41.1648 122.175 41.4432 122.05 41.75L120.453 41.3864C120.643 40.8561 120.919 40.428 121.283 40.1023C121.65 39.7727 122.072 39.5341 122.55 39.3864C123.027 39.2348 123.529 39.1591 124.055 39.1591C124.404 39.1591 124.773 39.2008 125.163 39.2841C125.557 39.3636 125.925 39.5114 126.266 39.7273C126.61 39.9432 126.893 40.2519 127.112 40.6534C127.332 41.0511 127.442 41.5682 127.442 42.2045V48H125.783V46.8068H125.714C125.605 47.0265 125.44 47.2424 125.22 47.4545C125 47.6667 124.718 47.8428 124.374 47.983C124.029 48.1231 123.616 48.1932 123.135 48.1932ZM123.504 46.8295C123.974 46.8295 124.375 46.7367 124.709 46.5511C125.046 46.3655 125.302 46.1231 125.476 45.8239C125.654 45.5208 125.743 45.197 125.743 44.8523V43.7273C125.682 43.7879 125.565 43.8447 125.391 43.8977C125.22 43.947 125.025 43.9905 124.805 44.0284C124.586 44.0625 124.372 44.0947 124.163 44.125C123.955 44.1515 123.781 44.1742 123.641 44.1932C123.311 44.2348 123.01 44.3049 122.737 44.4034C122.468 44.5019 122.252 44.6439 122.089 44.8295C121.93 45.0114 121.851 45.2538 121.851 45.5568C121.851 45.9773 122.006 46.2955 122.317 46.5114C122.627 46.7235 123.023 46.8295 123.504 46.8295ZM133.364 51.4545C132.67 51.4545 132.074 51.3636 131.574 51.1818C131.078 51 130.672 50.7595 130.358 50.4602C130.044 50.161 129.809 49.8333 129.653 49.4773L131.114 48.875C131.216 49.0417 131.352 49.2178 131.523 49.4034C131.697 49.5928 131.932 49.7538 132.227 49.8864C132.527 50.0189 132.911 50.0852 133.381 50.0852C134.025 50.0852 134.557 49.928 134.977 49.6136C135.398 49.303 135.608 48.8068 135.608 48.125V46.4091H135.5C135.398 46.5947 135.25 46.8011 135.057 47.0284C134.867 47.2557 134.606 47.4527 134.273 47.6193C133.939 47.786 133.506 47.8693 132.972 47.8693C132.282 47.8693 131.661 47.7083 131.108 47.3864C130.559 47.0606 130.123 46.5814 129.801 45.9489C129.483 45.3125 129.324 44.5303 129.324 43.6023C129.324 42.6742 129.481 41.8788 129.795 41.2159C130.114 40.553 130.549 40.0455 131.102 39.6932C131.655 39.3371 132.282 39.1591 132.983 39.1591C133.525 39.1591 133.962 39.25 134.295 39.4318C134.629 39.6098 134.888 39.8182 135.074 40.0568C135.263 40.2955 135.409 40.5057 135.511 40.6875H135.636V39.2727H137.301V48.1932C137.301 48.9432 137.127 49.5587 136.778 50.0398C136.43 50.5208 135.958 50.8769 135.364 51.108C134.773 51.339 134.106 51.4545 133.364 51.4545ZM133.347 46.4602C133.835 46.4602 134.248 46.3466 134.585 46.1193C134.926 45.8883 135.184 45.5587 135.358 45.1307C135.536 44.6989 135.625 44.1818 135.625 43.5795C135.625 42.9924 135.538 42.4754 135.364 42.0284C135.189 41.5814 134.934 41.233 134.597 40.983C134.259 40.7292 133.843 40.6023 133.347 40.6023C132.835 40.6023 132.409 40.7348 132.068 41C131.727 41.2614 131.47 41.6174 131.295 42.0682C131.125 42.5189 131.04 43.0227 131.04 43.5795C131.04 44.1515 131.127 44.6534 131.301 45.0852C131.475 45.517 131.733 45.8542 132.074 46.0966C132.419 46.339 132.843 46.4602 133.347 46.4602ZM143.341 48.1761C142.481 48.1761 141.741 47.9924 141.119 47.625C140.502 47.2538 140.025 46.733 139.688 46.0625C139.354 45.3883 139.188 44.5985 139.188 43.6932C139.188 42.7992 139.354 42.0114 139.688 41.3295C140.025 40.6477 140.494 40.1155 141.097 39.733C141.703 39.3504 142.411 39.1591 143.222 39.1591C143.714 39.1591 144.191 39.2405 144.653 39.4034C145.116 39.5663 145.53 39.822 145.898 40.1705C146.265 40.5189 146.555 40.9716 146.767 41.5284C146.979 42.0814 147.085 42.7538 147.085 43.5455V44.1477H140.148V42.875H145.42C145.42 42.428 145.33 42.0322 145.148 41.6875C144.966 41.339 144.71 41.0644 144.381 40.8636C144.055 40.6629 143.672 40.5625 143.233 40.5625C142.756 40.5625 142.339 40.6799 141.983 40.9148C141.631 41.1458 141.358 41.4489 141.165 41.8239C140.975 42.1951 140.881 42.5985 140.881 43.0341V44.0284C140.881 44.6117 140.983 45.108 141.188 45.517C141.396 45.9261 141.686 46.2386 142.057 46.4545C142.428 46.6667 142.862 46.7727 143.358 46.7727C143.68 46.7727 143.973 46.7273 144.239 46.6364C144.504 46.5417 144.733 46.4015 144.926 46.2159C145.119 46.0303 145.267 45.8011 145.369 45.5284L146.977 45.8182C146.848 46.2917 146.617 46.7064 146.284 47.0625C145.955 47.4148 145.54 47.6894 145.04 47.8864C144.544 48.0795 143.977 48.1761 143.341 48.1761Z" fill="#F1F1F1"/>
<rect x="20" y="74" width="146" height="44" rx="4" fill="#1A3144"/>
<g clip-path="url(#clip1_3_1434)">
<path d="M50.778 91H45.222C43.9948 91 43 91.9948 43 93.222V98.778C43 100.005 43.9948 101 45.222 101H50.778C52.0052 101 53 100.005 53 98.778V93.221C52.9996 91.9942 52.0048 91.0001 50.778 91Z" stroke="#F1F1F1" stroke-width="1.5" stroke-linecap="round" stroke-linejoin="round"/>
<path d="M46.5299 94.1371C46.6385 94.2456 46.6386 94.4216 46.5301 94.5302C46.4215 94.6388 46.2455 94.6389 46.1369 94.5304C46.0283 94.4219 46.0282 94.2458 46.1368 94.1372C46.2455 94.0293 46.4211 94.0292 46.5299 94.1371Z" stroke="#F1F1F1" stroke-width="1.5" stroke-linecap="round" stroke-linejoin="round"/>
<path d="M46 105H50" stroke="#F1F1F1" stroke-width="1.5" stroke-linecap="round" stroke-linejoin="round"/>
<path d="M46 87H50" stroke="#F1F1F1" stroke-width="1.5" stroke-linecap="round" stroke-linejoin="round"/>
<path d="M39 94V98" stroke="#F1F1F1" stroke-width="1.5" stroke-linecap="round" stroke-linejoin="round"/>
<path d="M57 94V98" stroke="#F1F1F1" stroke-width="1.5" stroke-linecap="round" stroke-linejoin="round"/>
<path d="M43 105V105C40.7909 105 39 103.209 39 101V101" stroke="#F1F1F1" stroke-width="1.5" stroke-linecap="round" stroke-linejoin="round"/>
<path d="M43 105V105C40.7909 105 39 103.209 39 101V101" stroke="#F1F1F1" stroke-width="1.5" stroke-linecap="round" stroke-linejoin="round"/>
<path d="M53 87C55.2091 87 57 88.7909 57 91M39 91C39 88.7909 40.7909 87 43 87M57 101C57 103.209 55.2091 105 53 105M53 95.5C52.7683 95.4648 52.5344 95.4461 52.3 95.444C49.637 95.4251 47.4628 97.5686 47.4439 100.232C47.4421 100.489 47.4608 100.746 47.5 101" stroke="#F1F1F1" stroke-width="1.5" stroke-linecap="round" stroke-linejoin="round"/>
</g>
<path d="M68.2614 102H66.3977L70.5852 90.3636H72.6136L76.8011 102H74.9375L71.6477 92.4773H71.5568L68.2614 102ZM68.5739 97.4432H74.6193V98.9205H68.5739V97.4432ZM81.4716 102.17C80.767 102.17 80.1383 101.991 79.5852 101.631C79.036 101.267 78.6042 100.75 78.2898 100.08C77.9792 99.4053 77.8239 98.5966 77.8239 97.6534C77.8239 96.7102 77.9811 95.9034 78.2955 95.233C78.6136 94.5625 79.0492 94.0492 79.6023 93.6932C80.1553 93.3371 80.7822 93.1591 81.483 93.1591C82.0246 93.1591 82.4602 93.25 82.7898 93.4318C83.1231 93.6098 83.3807 93.8182 83.5625 94.0568C83.7481 94.2955 83.892 94.5057 83.9943 94.6875H84.0966V90.3636H85.7955V102H84.1364V100.642H83.9943C83.892 100.828 83.7443 101.04 83.5511 101.278C83.3617 101.517 83.1004 101.725 82.767 101.903C82.4337 102.081 82.0019 102.17 81.4716 102.17ZM81.8466 100.722C82.3352 100.722 82.7481 100.593 83.0852 100.335C83.4261 100.074 83.6837 99.7121 83.858 99.25C84.036 98.7879 84.125 98.25 84.125 97.6364C84.125 97.0303 84.0379 96.5 83.8636 96.0455C83.6894 95.5909 83.4337 95.2367 83.0966 94.983C82.7595 94.7292 82.3428 94.6023 81.8466 94.6023C81.3352 94.6023 80.9091 94.7348 80.5682 95C80.2273 95.2652 79.9697 95.6269 79.7955 96.0852C79.625 96.5436 79.5398 97.0606 79.5398 97.6364C79.5398 98.2197 79.6269 98.7443 79.8011 99.2102C79.9754 99.6761 80.233 100.045 80.5739 100.318C80.9186 100.587 81.3428 100.722 81.8466 100.722ZM91.4872 102.17C90.7827 102.17 90.1539 101.991 89.6009 101.631C89.0516 101.267 88.6198 100.75 88.3054 100.08C87.9948 99.4053 87.8395 98.5966 87.8395 97.6534C87.8395 96.7102 87.9967 95.9034 88.3111 95.233C88.6293 94.5625 89.0649 94.0492 89.6179 93.6932C90.1709 93.3371 90.7978 93.1591 91.4986 93.1591C92.0402 93.1591 92.4759 93.25 92.8054 93.4318C93.1387 93.6098 93.3963 93.8182 93.5781 94.0568C93.7637 94.2955 93.9077 94.5057 94.0099 94.6875H94.1122V90.3636H95.8111V102H94.152V100.642H94.0099C93.9077 100.828 93.7599 101.04 93.5668 101.278C93.3774 101.517 93.116 101.725 92.7827 101.903C92.4493 102.081 92.0175 102.17 91.4872 102.17ZM91.8622 100.722C92.3509 100.722 92.7637 100.593 93.1009 100.335C93.4418 100.074 93.6993 99.7121 93.8736 99.25C94.0516 98.7879 94.1406 98.25 94.1406 97.6364C94.1406 97.0303 94.0535 96.5 93.8793 96.0455C93.705 95.5909 93.4493 95.2367 93.1122 94.983C92.7751 94.7292 92.3584 94.6023 91.8622 94.6023C91.3509 94.6023 90.9247 94.7348 90.5838 95C90.2429 95.2652 89.9853 95.6269 89.8111 96.0852C89.6406 96.5436 89.5554 97.0606 89.5554 97.6364C89.5554 98.2197 89.6425 98.7443 89.8168 99.2102C89.991 99.6761 90.2486 100.045 90.5895 100.318C90.9342 100.587 91.3584 100.722 91.8622 100.722ZM102.47 102V93.2727H104.169V102H102.47ZM103.328 91.9261C103.033 91.9261 102.779 91.8277 102.567 91.6307C102.358 91.4299 102.254 91.1913 102.254 90.9148C102.254 90.6345 102.358 90.3958 102.567 90.1989C102.779 89.9981 103.033 89.8977 103.328 89.8977C103.624 89.8977 103.875 89.9981 104.084 90.1989C104.296 90.3958 104.402 90.6345 104.402 90.9148C104.402 91.1913 104.296 91.4299 104.084 91.6307C103.875 91.8277 103.624 91.9261 103.328 91.9261ZM106.455 102V93.2727H108.085V94.6932H108.193C108.375 94.2121 108.672 93.8371 109.085 93.5682C109.498 93.2955 109.992 93.1591 110.568 93.1591C111.152 93.1591 111.64 93.2955 112.034 93.5682C112.432 93.8409 112.725 94.2159 112.915 94.6932H113.006C113.214 94.2273 113.545 93.8561 114 93.5795C114.455 93.2992 114.996 93.1591 115.625 93.1591C116.417 93.1591 117.062 93.4072 117.562 93.9034C118.066 94.3996 118.318 95.1477 118.318 96.1477V102H116.619V96.3068C116.619 95.7159 116.458 95.2879 116.136 95.0227C115.814 94.7576 115.43 94.625 114.983 94.625C114.43 94.625 114 94.7955 113.693 95.1364C113.386 95.4735 113.233 95.9072 113.233 96.4375V102H111.54V96.1989C111.54 95.7254 111.392 95.3447 111.097 95.0568C110.801 94.7689 110.417 94.625 109.943 94.625C109.621 94.625 109.324 94.7102 109.051 94.8807C108.782 95.0473 108.564 95.2803 108.398 95.5795C108.235 95.8788 108.153 96.2254 108.153 96.6193V102H106.455ZM123.135 102.193C122.582 102.193 122.082 102.091 121.635 101.886C121.188 101.678 120.834 101.377 120.572 100.983C120.315 100.589 120.186 100.106 120.186 99.5341C120.186 99.0417 120.281 98.6364 120.47 98.3182C120.66 98 120.915 97.7481 121.237 97.5625C121.559 97.3769 121.919 97.2367 122.317 97.142C122.714 97.0473 123.12 96.9754 123.533 96.9261C124.055 96.8655 124.48 96.8163 124.805 96.7784C125.131 96.7367 125.368 96.6705 125.516 96.5795C125.663 96.4886 125.737 96.3409 125.737 96.1364V96.0966C125.737 95.6004 125.597 95.2159 125.317 94.9432C125.04 94.6705 124.627 94.5341 124.078 94.5341C123.506 94.5341 123.055 94.661 122.726 94.9148C122.4 95.1648 122.175 95.4432 122.05 95.75L120.453 95.3864C120.643 94.8561 120.919 94.428 121.283 94.1023C121.65 93.7727 122.072 93.5341 122.55 93.3864C123.027 93.2348 123.529 93.1591 124.055 93.1591C124.404 93.1591 124.773 93.2008 125.163 93.2841C125.557 93.3636 125.925 93.5114 126.266 93.7273C126.61 93.9432 126.893 94.2519 127.112 94.6534C127.332 95.0511 127.442 95.5682 127.442 96.2045V102H125.783V100.807H125.714C125.605 101.027 125.44 101.242 125.22 101.455C125 101.667 124.718 101.843 124.374 101.983C124.029 102.123 123.616 102.193 123.135 102.193ZM123.504 100.83C123.974 100.83 124.375 100.737 124.709 100.551C125.046 100.366 125.302 100.123 125.476 99.8239C125.654 99.5208 125.743 99.197 125.743 98.8523V97.7273C125.682 97.7879 125.565 97.8447 125.391 97.8977C125.22 97.947 125.025 97.9905 124.805 98.0284C124.586 98.0625 124.372 98.0947 124.163 98.125C123.955 98.1515 123.781 98.1742 123.641 98.1932C123.311 98.2348 123.01 98.3049 122.737 98.4034C122.468 98.5019 122.252 98.6439 122.089 98.8295C121.93 99.0114 121.851 99.2538 121.851 99.5568C121.851 99.9773 122.006 100.295 122.317 100.511C122.627 100.723 123.023 100.83 123.504 100.83ZM133.364 105.455C132.67 105.455 132.074 105.364 131.574 105.182C131.078 105 130.672 104.759 130.358 104.46C130.044 104.161 129.809 103.833 129.653 103.477L131.114 102.875C131.216 103.042 131.352 103.218 131.523 103.403C131.697 103.593 131.932 103.754 132.227 103.886C132.527 104.019 132.911 104.085 133.381 104.085C134.025 104.085 134.557 103.928 134.977 103.614C135.398 103.303 135.608 102.807 135.608 102.125V100.409H135.5C135.398 100.595 135.25 100.801 135.057 101.028C134.867 101.256 134.606 101.453 134.273 101.619C133.939 101.786 133.506 101.869 132.972 101.869C132.282 101.869 131.661 101.708 131.108 101.386C130.559 101.061 130.123 100.581 129.801 99.9489C129.483 99.3125 129.324 98.5303 129.324 97.6023C129.324 96.6742 129.481 95.8788 129.795 95.2159C130.114 94.553 130.549 94.0455 131.102 93.6932C131.655 93.3371 132.282 93.1591 132.983 93.1591C133.525 93.1591 133.962 93.25 134.295 93.4318C134.629 93.6098 134.888 93.8182 135.074 94.0568C135.263 94.2955 135.409 94.5057 135.511 94.6875H135.636V93.2727H137.301V102.193C137.301 102.943 137.127 103.559 136.778 104.04C136.43 104.521 135.958 104.877 135.364 105.108C134.773 105.339 134.106 105.455 133.364 105.455ZM133.347 100.46C133.835 100.46 134.248 100.347 134.585 100.119C134.926 99.8883 135.184 99.5587 135.358 99.1307C135.536 98.6989 135.625 98.1818 135.625 97.5795C135.625 96.9924 135.538 96.4754 135.364 96.0284C135.189 95.5814 134.934 95.233 134.597 94.983C134.259 94.7292 133.843 94.6023 133.347 94.6023C132.835 94.6023 132.409 94.7348 132.068 95C131.727 95.2614 131.47 95.6174 131.295 96.0682C131.125 96.5189 131.04 97.0227 131.04 97.5795C131.04 98.1515 131.127 98.6534 131.301 99.0852C131.475 99.517 131.733 99.8542 132.074 100.097C132.419 100.339 132.843 100.46 133.347 100.46ZM143.341 102.176C142.481 102.176 141.741 101.992 141.119 101.625C140.502 101.254 140.025 100.733 139.688 100.062C139.354 99.3883 139.188 98.5985 139.188 97.6932C139.188 96.7992 139.354 96.0114 139.688 95.3295C140.025 94.6477 140.494 94.1155 141.097 93.733C141.703 93.3504 142.411 93.1591 143.222 93.1591C143.714 93.1591 144.191 93.2405 144.653 93.4034C145.116 93.5663 145.53 93.822 145.898 94.1705C146.265 94.5189 146.555 94.9716 146.767 95.5284C146.979 96.0814 147.085 96.7538 147.085 97.5455V98.1477H140.148V96.875H145.42C145.42 96.428 145.33 96.0322 145.148 95.6875C144.966 95.339 144.71 95.0644 144.381 94.8636C144.055 94.6629 143.672 94.5625 143.233 94.5625C142.756 94.5625 142.339 94.6799 141.983 94.9148C141.631 95.1458 141.358 95.4489 141.165 95.8239C140.975 96.1951 140.881 96.5985 140.881 97.0341V98.0284C140.881 98.6117 140.983 99.108 141.188 99.517C141.396 99.9261 141.686 100.239 142.057 100.455C142.428 100.667 142.862 100.773 143.358 100.773C143.68 100.773 143.973 100.727 144.239 100.636C144.504 100.542 144.733 100.402 144.926 100.216C145.119 100.03 145.267 99.8011 145.369 99.5284L146.977 99.8182C146.848 100.292 146.617 100.706 146.284 101.062C145.955 101.415 145.54 101.689 145.04 101.886C144.544 102.08 143.977 102.176 143.341 102.176Z" fill="#F1F1F1"/>
<defs>
<clipPath id="clip0_3_1434">
<rect width="24" height="24" fill="white" transform="translate(36 30)"/>
</clipPath>
<clipPath id="clip1_3_1434">
<rect width="24" height="24" fill="white" transform="translate(36 84)"/>
</clipPath>
</defs>
</svg>
