<svg width="234" height="44" viewBox="0 0 234 44" fill="none" xmlns="http://www.w3.org/2000/svg">
<rect width="234" height="44" rx="4" fill="#334A5F"/>
<g clip-path="url(#clip0_281_18377)">
<path d="M98.7 16.25C102.224 16.25 104.25 18.9435 104.25 23C104.25 27.8301 100.332 31.7476 95.5 31.7476C90.6686 31.7476 86.7516 27.8319 86.75 23.0003C86.75 19.033 88.6863 16.3704 92.0673 16.254L92.3 16.25L92.3669 16.253C93.2563 16.3326 94.1404 16.4616 95.0152 16.6391L95.498 16.744L95.8758 16.6616C96.6053 16.5102 97.3465 16.3923 98.1167 16.3074L98.7 16.25ZM98.7669 17.747C97.7242 17.8404 96.6893 18.006 95.6695 18.2426C95.558 18.2685 95.442 18.2685 95.3305 18.2426C94.5147 18.0533 93.6891 17.9094 92.8577 17.8117L92.261 17.75L92.0869 17.7545C89.7018 17.856 88.3298 19.6767 88.2534 22.7277L88.25 23C88.2513 27.0032 91.4969 30.2476 95.5 30.2476C99.424 30.2476 102.62 27.1302 102.746 23.237L102.75 22.9976L102.747 22.7277C102.668 19.5875 101.218 17.7499 98.7669 17.747Z" fill="#F1F1F1"/>
<path d="M100.749 11.25H98.9049C96.7469 11.2507 94.9983 13.0006 94.999 15.1583V17C94.999 17.4142 95.3348 17.75 95.749 17.75H97.5909C99.749 17.7493 101.498 16.0002 101.499 13.8424V12C101.499 11.5858 101.163 11.25 100.749 11.25ZM99.998 12.749L99.9989 13.8421L99.9938 14.0004C99.9118 15.2562 98.8673 16.2496 97.5907 16.25H96.498L96.499 15.1581C96.4986 13.8285 97.5758 12.7505 98.9052 12.75L99.998 12.749Z" fill="#F1F1F1"/>
<path d="M93.249 13.25C94.9821 13.25 96.3983 14.6065 96.4939 16.3156L96.499 16.5V17C96.499 17.4142 96.1632 17.75 95.749 17.75C95.3693 17.75 95.0555 17.4678 95.0059 17.1018L94.999 17V16.5C94.999 15.5818 94.2919 14.8288 93.3925 14.7558L93.249 14.75H92.749C92.3348 14.75 91.999 14.4142 91.999 14C91.999 13.6203 92.2812 13.3065 92.6473 13.2568L92.749 13.25H93.249Z" fill="#F1F1F1"/>
</g>
<path d="M113.479 27.5H111.848L115.512 17.3182H117.287L120.951 27.5H119.32L116.442 19.1676H116.362L113.479 27.5ZM113.752 23.5128H119.042V24.8054H113.752V23.5128ZM122.302 30.3636V19.8636H123.754V21.1016H123.878C123.964 20.9425 124.088 20.7585 124.251 20.5497C124.413 20.3409 124.639 20.1586 124.927 20.0028C125.215 19.8438 125.597 19.7642 126.07 19.7642C126.687 19.7642 127.237 19.92 127.721 20.2315C128.205 20.5431 128.584 20.9922 128.86 21.5788C129.138 22.1655 129.277 22.8714 129.277 23.6967C129.277 24.522 129.14 25.2296 128.865 25.8196C128.589 26.4062 128.212 26.8587 127.731 27.1768C127.25 27.4917 126.702 27.6491 126.085 27.6491C125.621 27.6491 125.242 27.5713 124.947 27.4155C124.655 27.2597 124.427 27.0774 124.261 26.8686C124.095 26.6598 123.968 26.4742 123.878 26.3118H123.789V30.3636H122.302ZM123.759 23.6818C123.759 24.2187 123.837 24.6894 123.992 25.0938C124.148 25.4981 124.374 25.8146 124.669 26.0433C124.963 26.2687 125.325 26.3814 125.752 26.3814C126.196 26.3814 126.568 26.2637 126.866 26.0284C127.164 25.7898 127.39 25.4666 127.542 25.0589C127.698 24.6513 127.776 24.1922 127.776 23.6818C127.776 23.178 127.7 22.7256 127.547 22.3246C127.398 21.9235 127.173 21.607 126.871 21.375C126.573 21.143 126.2 21.027 125.752 21.027C125.321 21.027 124.957 21.138 124.659 21.3601C124.364 21.5821 124.14 21.892 123.987 22.2898C123.835 22.6875 123.759 23.1515 123.759 23.6818ZM130.943 30.3636V19.8636H132.394V21.1016H132.519C132.605 20.9425 132.729 20.7585 132.892 20.5497C133.054 20.3409 133.279 20.1586 133.568 20.0028C133.856 19.8438 134.237 19.7642 134.711 19.7642C135.328 19.7642 135.878 19.92 136.362 20.2315C136.846 20.5431 137.225 20.9922 137.5 21.5788C137.779 22.1655 137.918 22.8714 137.918 23.6967C137.918 24.522 137.78 25.2296 137.505 25.8196C137.23 26.4062 136.852 26.8587 136.372 27.1768C135.891 27.4917 135.343 27.6491 134.726 27.6491C134.262 27.6491 133.883 27.5713 133.588 27.4155C133.296 27.2597 133.067 27.0774 132.901 26.8686C132.736 26.6598 132.608 26.4742 132.519 26.3118H132.429V30.3636H130.943ZM132.399 23.6818C132.399 24.2187 132.477 24.6894 132.633 25.0938C132.789 25.4981 133.014 25.8146 133.309 26.0433C133.604 26.2687 133.965 26.3814 134.393 26.3814C134.837 26.3814 135.208 26.2637 135.507 26.0284C135.805 25.7898 136.03 25.4666 136.183 25.0589C136.338 24.6513 136.416 24.1922 136.416 23.6818C136.416 23.178 136.34 22.7256 136.188 22.3246C136.039 21.9235 135.813 21.607 135.512 21.375C135.213 21.143 134.84 21.027 134.393 21.027C133.962 21.027 133.597 21.138 133.299 21.3601C133.004 21.5821 132.78 21.892 132.628 22.2898C132.476 22.6875 132.399 23.1515 132.399 23.6818ZM141.07 17.3182V27.5H139.583V17.3182H141.07ZM146.361 27.6541C145.608 27.6541 144.96 27.4934 144.417 27.1719C143.877 26.8471 143.459 26.3913 143.164 25.8047C142.872 25.2147 142.727 24.5237 142.727 23.7315C142.727 22.9493 142.872 22.2599 143.164 21.6634C143.459 21.0668 143.87 20.6011 144.397 20.2663C144.927 19.9316 145.547 19.7642 146.256 19.7642C146.687 19.7642 147.105 19.8355 147.509 19.978C147.914 20.1205 148.277 20.3442 148.598 20.6491C148.92 20.9541 149.173 21.3501 149.359 21.8374C149.544 22.3213 149.637 22.9096 149.637 23.6023V24.1293H143.567V23.0156H148.18C148.18 22.6245 148.101 22.2782 147.942 21.9766C147.783 21.6716 147.559 21.4313 147.271 21.2557C146.986 21.08 146.651 20.9922 146.266 20.9922C145.849 20.9922 145.484 21.0949 145.173 21.3004C144.864 21.5026 144.626 21.7678 144.457 22.0959C144.291 22.4207 144.208 22.7737 144.208 23.1548V24.0249C144.208 24.5353 144.298 24.9695 144.477 25.3274C144.659 25.6854 144.912 25.9588 145.237 26.1477C145.562 26.3333 145.942 26.4261 146.376 26.4261C146.657 26.4261 146.914 26.3864 147.146 26.3068C147.378 26.224 147.579 26.1013 147.748 25.9389C147.917 25.7765 148.046 25.576 148.136 25.3374L149.543 25.5909C149.43 26.0052 149.228 26.3681 148.936 26.6797C148.648 26.9879 148.285 27.2282 147.847 27.4006C147.413 27.5696 146.918 27.6541 146.361 27.6541Z" fill="#F1F1F1"/>
<defs>
<clipPath id="clip0_281_18377">
<rect width="24" height="24" fill="white" transform="translate(83.5 10)"/>
</clipPath>
</defs>
</svg>
