<svg width="219" height="138" viewBox="0 0 219 138" fill="none" xmlns="http://www.w3.org/2000/svg">
<rect x="0.5" y="0.5" width="218" height="137" rx="4.5" stroke="#9747FF" stroke-dasharray="10 5"/>
<g filter="url(#filter0_d_3_1544)">
<g clip-path="url(#clip0_3_1544)">
<rect width="93" height="44" transform="translate(20 20)" fill="#334A5F"/>
<path d="M34.3118 47H32.343L35.9276 36.8182H38.2045L41.794 47H39.8253L37.1058 38.9062H37.0263L34.3118 47ZM34.3764 43.0078H39.7457V44.4893H34.3764V43.0078ZM45.657 47.1342C45.0571 47.1342 44.5201 46.9801 44.0462 46.6719C43.5722 46.3636 43.1977 45.9162 42.9226 45.3295C42.6475 44.7429 42.5099 44.0303 42.5099 43.1918C42.5099 42.3433 42.6491 41.6274 42.9276 41.044C43.2093 40.4574 43.5888 40.0149 44.0661 39.7166C44.5433 39.415 45.0753 39.2642 45.6619 39.2642C46.1094 39.2642 46.4773 39.3404 46.7656 39.4929C47.054 39.642 47.2827 39.8227 47.4517 40.0348C47.6207 40.2436 47.7517 40.4408 47.8445 40.6264H47.919V36.8182H49.7237V47H47.9538V45.7969H47.8445C47.7517 45.9825 47.6174 46.1797 47.4418 46.3885C47.2661 46.594 47.0341 46.7696 46.7457 46.9155C46.4574 47.0613 46.0945 47.1342 45.657 47.1342ZM46.1591 45.6577C46.5402 45.6577 46.8651 45.5549 47.1335 45.3494C47.402 45.1406 47.6058 44.8506 47.745 44.4794C47.8842 44.1082 47.9538 43.6757 47.9538 43.1818C47.9538 42.688 47.8842 42.2588 47.745 41.8942C47.6091 41.5296 47.407 41.2462 47.1385 41.044C46.8733 40.8419 46.5469 40.7408 46.1591 40.7408C45.758 40.7408 45.4233 40.8452 45.1548 41.054C44.8864 41.2628 44.6842 41.5511 44.5483 41.919C44.4124 42.2869 44.3445 42.7079 44.3445 43.1818C44.3445 43.6591 44.4124 44.085 44.5483 44.4595C44.6875 44.8307 44.8913 45.1241 45.1598 45.3395C45.4316 45.5516 45.7647 45.6577 46.1591 45.6577ZM58.4625 39.3636L55.7431 47H53.7544L51.035 39.3636H52.954L54.709 45.0362H54.7885L56.5485 39.3636H58.4625ZM61.6866 47.1541C61.2027 47.1541 60.7669 47.0679 60.3791 46.8956C59.9946 46.7199 59.6897 46.4614 59.4643 46.12C59.2422 45.7786 59.1312 45.3577 59.1312 44.8572C59.1312 44.4264 59.2108 44.0701 59.3699 43.7884C59.5289 43.5066 59.746 43.2812 60.0211 43.1122C60.2962 42.9432 60.6061 42.8156 60.9508 42.7294C61.2988 42.6399 61.6584 42.5753 62.0297 42.5355C62.4771 42.4891 62.84 42.4477 63.1184 42.4112C63.3968 42.3714 63.599 42.3118 63.725 42.2322C63.8542 42.1494 63.9189 42.0218 63.9189 41.8494V41.8196C63.9189 41.4451 63.8078 41.1551 63.5858 40.9496C63.3637 40.7441 63.0439 40.6413 62.6262 40.6413C62.1854 40.6413 61.8358 40.7375 61.5772 40.9297C61.322 41.1219 61.1497 41.349 61.0602 41.6108L59.3798 41.3722C59.5124 40.9081 59.7311 40.5204 60.036 40.2088C60.341 39.8939 60.7138 39.6586 61.1547 39.5028C61.5955 39.3438 62.0827 39.2642 62.6163 39.2642C62.9842 39.2642 63.3504 39.3073 63.715 39.3935C64.0796 39.4796 64.4127 39.6222 64.7143 39.821C65.0159 40.0166 65.2579 40.2834 65.4402 40.6214C65.6258 40.9595 65.7186 41.3821 65.7186 41.8892V47H63.9885V45.951H63.9288C63.8194 46.1631 63.6653 46.362 63.4664 46.5476C63.2709 46.7299 63.024 46.8774 62.7257 46.9901C62.4307 47.0994 62.0843 47.1541 61.6866 47.1541ZM62.1539 45.8317C62.5152 45.8317 62.8284 45.7604 63.0936 45.6179C63.3587 45.4721 63.5626 45.2798 63.7051 45.0412C63.8509 44.8026 63.9238 44.5424 63.9238 44.2607V43.3608C63.8675 43.4072 63.7714 43.4503 63.6355 43.4901C63.5029 43.5298 63.3538 43.5646 63.188 43.5945C63.0223 43.6243 62.8583 43.6508 62.6958 43.674C62.5334 43.6972 62.3926 43.7171 62.2733 43.7337C62.0048 43.7701 61.7645 43.8298 61.5524 43.9126C61.3403 43.9955 61.1729 44.1115 61.0502 44.2607C60.9276 44.4065 60.8663 44.5954 60.8663 44.8274C60.8663 45.1589 60.9873 45.4091 61.2292 45.5781C61.4712 45.7472 61.7794 45.8317 62.1539 45.8317ZM69.3279 42.5256V47H67.5282V39.3636H69.2484V40.6612H69.3379C69.5136 40.2337 69.7936 39.8939 70.1781 39.642C70.5659 39.3902 71.0448 39.2642 71.6149 39.2642C72.1419 39.2642 72.6009 39.3769 72.992 39.6023C73.3864 39.8277 73.6913 40.1541 73.9068 40.5817C74.1255 41.0092 74.2333 41.5279 74.2299 42.1378V47H72.4302V42.4162C72.4302 41.9058 72.2976 41.5064 72.0325 41.218C71.7707 40.9297 71.4077 40.7855 70.9437 40.7855C70.6288 40.7855 70.3488 40.8551 70.1035 40.9943C69.8616 41.1302 69.671 41.3274 69.5318 41.5859C69.3959 41.8445 69.3279 42.1577 69.3279 42.5256ZM79.3904 47.1491C78.6281 47.1491 77.9735 46.9818 77.4267 46.647C76.8831 46.3123 76.4638 45.8499 76.1689 45.2599C75.8772 44.6667 75.7314 43.9839 75.7314 43.2116C75.7314 42.4361 75.8805 41.7517 76.1788 41.1584C76.4771 40.5618 76.898 40.0978 77.4416 39.7663C77.9885 39.4316 78.6348 39.2642 79.3805 39.2642C80.0003 39.2642 80.5488 39.3786 81.0261 39.6072C81.5067 39.8326 81.8895 40.1525 82.1745 40.5668C82.4596 40.9777 82.622 41.4583 82.6618 42.0085H80.9416C80.872 41.6406 80.7063 41.334 80.4444 41.0888C80.1859 40.8402 79.8395 40.7159 79.4054 40.7159C79.0375 40.7159 78.7143 40.8153 78.4359 41.0142C78.1575 41.2098 77.9404 41.4915 77.7846 41.8594C77.6322 42.2273 77.5559 42.6681 77.5559 43.1818C77.5559 43.7022 77.6322 44.1496 77.7846 44.5241C77.9371 44.8954 78.1509 45.1821 78.426 45.3842C78.7044 45.5831 79.0308 45.6825 79.4054 45.6825C79.6705 45.6825 79.9075 45.6328 80.1163 45.5334C80.3284 45.4306 80.5057 45.2831 80.6483 45.0909C80.7908 44.8987 80.8886 44.665 80.9416 44.3899H82.6618C82.6187 44.9302 82.4596 45.4091 82.1845 45.8267C81.9094 46.241 81.5349 46.5658 81.0609 46.8011C80.5869 47.0331 80.0301 47.1491 79.3904 47.1491ZM87.5202 47.1491C86.7546 47.1491 86.0934 46.9901 85.5366 46.6719C84.9831 46.3504 84.5572 45.8963 84.2589 45.3097C83.9606 44.7197 83.8114 44.0253 83.8114 43.2266C83.8114 42.4411 83.9606 41.7517 84.2589 41.1584C84.5605 40.5618 84.9814 40.0978 85.5217 39.7663C86.0619 39.4316 86.6966 39.2642 87.4258 39.2642C87.8964 39.2642 88.3406 39.3404 88.7582 39.4929C89.1791 39.642 89.5503 39.8741 89.8718 40.1889C90.1966 40.5038 90.4518 40.9048 90.6374 41.392C90.823 41.8759 90.9158 42.4527 90.9158 43.1222V43.674H84.6566V42.4609H89.1907C89.1874 42.1162 89.1128 41.8097 88.967 41.5412C88.8211 41.2694 88.6173 41.0556 88.3555 40.8999C88.0969 40.7441 87.7953 40.6662 87.4506 40.6662C87.0827 40.6662 86.7596 40.7557 86.4812 40.9347C86.2028 41.1103 85.9857 41.3423 85.8299 41.6307C85.6774 41.9157 85.5996 42.2289 85.5962 42.5703V43.6293C85.5962 44.0734 85.6774 44.4545 85.8398 44.7727C86.0022 45.0876 86.2293 45.3295 86.521 45.4986C86.8126 45.6643 87.154 45.7472 87.5451 45.7472C87.8069 45.7472 88.0439 45.7107 88.256 45.6378C88.4682 45.5616 88.6521 45.4505 88.8079 45.3047C88.9637 45.1589 89.0813 44.9782 89.1609 44.7628L90.8413 44.9517C90.7352 45.3958 90.533 45.7836 90.2347 46.1151C89.9397 46.4432 89.5619 46.6984 89.1012 46.8807C88.6405 47.0597 88.1135 47.1491 87.5202 47.1491ZM95.2722 47.1342C94.6723 47.1342 94.1354 46.9801 93.6614 46.6719C93.1874 46.3636 92.8129 45.9162 92.5378 45.3295C92.2627 44.7429 92.1252 44.0303 92.1252 43.1918C92.1252 42.3433 92.2644 41.6274 92.5428 41.044C92.8245 40.4574 93.204 40.0149 93.6813 39.7166C94.1586 39.415 94.6905 39.2642 95.2772 39.2642C95.7246 39.2642 96.0925 39.3404 96.3809 39.4929C96.6692 39.642 96.8979 39.8227 97.0669 40.0348C97.236 40.2436 97.3669 40.4408 97.4597 40.6264H97.5343V36.8182H99.339V47H97.5691V45.7969H97.4597C97.3669 45.9825 97.2327 46.1797 97.057 46.3885C96.8813 46.594 96.6493 46.7696 96.361 46.9155C96.0726 47.0613 95.7097 47.1342 95.2722 47.1342ZM95.7743 45.6577C96.1555 45.6577 96.4803 45.5549 96.7488 45.3494C97.0172 45.1406 97.2211 44.8506 97.3603 44.4794C97.4995 44.1082 97.5691 43.6757 97.5691 43.1818C97.5691 42.688 97.4995 42.2588 97.3603 41.8942C97.2244 41.5296 97.0222 41.2462 96.7537 41.044C96.4886 40.8419 96.1621 40.7408 95.7743 40.7408C95.3733 40.7408 95.0385 40.8452 94.7701 41.054C94.5016 41.2628 94.2994 41.5511 94.1635 41.919C94.0276 42.2869 93.9597 42.7079 93.9597 43.1818C93.9597 43.6591 94.0276 44.085 94.1635 44.4595C94.3027 44.8307 94.5066 45.1241 94.775 45.3395C95.0468 45.5516 95.3799 45.6577 95.7743 45.6577Z" fill="#F1F1F1"/>
<path d="M113 20H199V64H113V20Z" fill="#223B50"/>
<path d="M198.5 20V64H199.5V20H198.5Z" fill="#D0D5DD"/>
<path d="M126.004 47.5V37.3182H132.626V38.8643H127.849V41.6286H132.283V43.1747H127.849V45.9538H132.666V47.5H126.004ZM140.464 41.8821L138.824 42.0611C138.777 41.8954 138.696 41.7396 138.58 41.5938C138.467 41.4479 138.315 41.3303 138.123 41.2408C137.93 41.1513 137.695 41.1065 137.417 41.1065C137.042 41.1065 136.727 41.1877 136.472 41.3501C136.22 41.5125 136.096 41.723 136.099 41.9815C136.096 42.2036 136.177 42.3842 136.343 42.5234C136.512 42.6626 136.79 42.777 137.178 42.8665L138.48 43.1449C139.203 43.3007 139.74 43.5476 140.091 43.8857C140.446 44.2237 140.625 44.6662 140.628 45.2131C140.625 45.6937 140.484 46.1179 140.206 46.4858C139.931 46.8504 139.548 47.1354 139.057 47.3409C138.567 47.5464 138.003 47.6491 137.367 47.6491C136.432 47.6491 135.68 47.4536 135.11 47.0625C134.54 46.6681 134.2 46.1196 134.091 45.4169L135.846 45.2479C135.925 45.5926 136.094 45.8527 136.353 46.0284C136.611 46.2041 136.948 46.2919 137.362 46.2919C137.789 46.2919 138.132 46.2041 138.391 46.0284C138.653 45.8527 138.784 45.6357 138.784 45.3771C138.784 45.1584 138.699 44.9777 138.53 44.8352C138.364 44.6927 138.106 44.5833 137.755 44.5071L136.452 44.2337C135.72 44.0812 135.178 43.8243 134.826 43.4631C134.475 43.0985 134.301 42.6378 134.304 42.081C134.301 41.6103 134.429 41.2027 134.687 40.858C134.949 40.5099 135.312 40.2415 135.776 40.0526C136.243 39.8603 136.782 39.7642 137.392 39.7642C138.287 39.7642 138.991 39.9548 139.505 40.3359C140.022 40.7171 140.342 41.2325 140.464 41.8821ZM148.148 41.8821L146.507 42.0611C146.461 41.8954 146.379 41.7396 146.263 41.5938C146.151 41.4479 145.998 41.3303 145.806 41.2408C145.614 41.1513 145.379 41.1065 145.1 41.1065C144.726 41.1065 144.411 41.1877 144.156 41.3501C143.904 41.5125 143.779 41.723 143.783 41.9815C143.779 42.2036 143.861 42.3842 144.026 42.5234C144.195 42.6626 144.474 42.777 144.862 42.8665L146.164 43.1449C146.887 43.3007 147.424 43.5476 147.775 43.8857C148.129 44.2237 148.308 44.6662 148.312 45.2131C148.308 45.6937 148.168 46.1179 147.889 46.4858C147.614 46.8504 147.231 47.1354 146.741 47.3409C146.25 47.5464 145.687 47.6491 145.05 47.6491C144.116 47.6491 143.363 47.4536 142.793 47.0625C142.223 46.6681 141.884 46.1196 141.774 45.4169L143.529 45.2479C143.609 45.5926 143.778 45.8527 144.036 46.0284C144.295 46.2041 144.631 46.2919 145.045 46.2919C145.473 46.2919 145.816 46.2041 146.075 46.0284C146.336 45.8527 146.467 45.6357 146.467 45.3771C146.467 45.1584 146.383 44.9777 146.214 44.8352C146.048 44.6927 145.79 44.5833 145.438 44.5071L144.136 44.2337C143.403 44.0812 142.861 43.8243 142.51 43.4631C142.159 43.0985 141.985 42.6378 141.988 42.081C141.985 41.6103 142.112 41.2027 142.371 40.858C142.633 40.5099 142.996 40.2415 143.46 40.0526C143.927 39.8603 144.465 39.7642 145.075 39.7642C145.97 39.7642 146.674 39.9548 147.188 40.3359C147.705 40.7171 148.025 41.2325 148.148 41.8821ZM153.176 47.6491C152.411 47.6491 151.75 47.4901 151.193 47.1719C150.639 46.8504 150.213 46.3963 149.915 45.8097C149.617 45.2197 149.468 44.5253 149.468 43.7266C149.468 42.9411 149.617 42.2517 149.915 41.6584C150.217 41.0618 150.638 40.5978 151.178 40.2663C151.718 39.9316 152.353 39.7642 153.082 39.7642C153.553 39.7642 153.997 39.8404 154.414 39.9929C154.835 40.142 155.207 40.3741 155.528 40.6889C155.853 41.0038 156.108 41.4048 156.294 41.892C156.479 42.3759 156.572 42.9527 156.572 43.6222V44.174H150.313V42.9609H154.847C154.844 42.6162 154.769 42.3097 154.623 42.0412C154.477 41.7694 154.274 41.5556 154.012 41.3999C153.753 41.2441 153.452 41.1662 153.107 41.1662C152.739 41.1662 152.416 41.2557 152.137 41.4347C151.859 41.6103 151.642 41.8423 151.486 42.1307C151.334 42.4157 151.256 42.7289 151.252 43.0703V44.1293C151.252 44.5734 151.334 44.9545 151.496 45.2727C151.658 45.5876 151.886 45.8295 152.177 45.9986C152.469 46.1643 152.81 46.2472 153.201 46.2472C153.463 46.2472 153.7 46.2107 153.912 46.1378C154.124 46.0616 154.308 45.9505 154.464 45.8047C154.62 45.6589 154.738 45.4782 154.817 45.2628L156.498 45.4517C156.391 45.8958 156.189 46.2836 155.891 46.6151C155.596 46.9432 155.218 47.1984 154.757 47.3807C154.297 47.5597 153.77 47.6491 153.176 47.6491ZM159.894 43.0256V47.5H158.095V39.8636H159.815V41.1612H159.904C160.08 40.7337 160.36 40.3939 160.744 40.142C161.132 39.8902 161.611 39.7642 162.181 39.7642C162.708 39.7642 163.167 39.8769 163.558 40.1023C163.953 40.3277 164.258 40.6541 164.473 41.0817C164.692 41.5092 164.8 42.0279 164.796 42.6378V47.5H162.997V42.9162C162.997 42.4058 162.864 42.0064 162.599 41.718C162.337 41.4297 161.974 41.2855 161.51 41.2855C161.195 41.2855 160.915 41.3551 160.67 41.4943C160.428 41.6302 160.237 41.8274 160.098 42.0859C159.962 42.3445 159.894 42.6577 159.894 43.0256ZM170.439 39.8636V41.2557H166.049V39.8636H170.439ZM167.133 38.0341H168.933V45.2031C168.933 45.4451 168.969 45.6307 169.042 45.7599C169.118 45.8859 169.218 45.9721 169.34 46.0185C169.463 46.0649 169.599 46.0881 169.748 46.0881C169.861 46.0881 169.963 46.0798 170.056 46.0632C170.152 46.0466 170.225 46.0317 170.275 46.0185L170.578 47.4254C170.482 47.4586 170.345 47.495 170.166 47.5348C169.99 47.5746 169.775 47.5978 169.519 47.6044C169.069 47.6177 168.663 47.5497 168.301 47.4006C167.94 47.2481 167.653 47.0128 167.441 46.6946C167.232 46.3764 167.13 45.9787 167.133 45.5014V38.0341ZM171.944 47.5V39.8636H173.744V47.5H171.944ZM172.849 38.7798C172.564 38.7798 172.319 38.6854 172.113 38.4964C171.908 38.3042 171.805 38.0739 171.805 37.8054C171.805 37.5336 171.908 37.3033 172.113 37.1143C172.319 36.9221 172.564 36.826 172.849 36.826C173.137 36.826 173.383 36.9221 173.585 37.1143C173.79 37.3033 173.893 37.5336 173.893 37.8054C173.893 38.0739 173.79 38.3042 173.585 38.4964C173.383 38.6854 173.137 38.7798 172.849 38.7798ZM177.792 47.6541C177.308 47.6541 176.872 47.5679 176.485 47.3956C176.1 47.2199 175.795 46.9614 175.57 46.62C175.348 46.2786 175.237 45.8577 175.237 45.3572C175.237 44.9264 175.316 44.5701 175.475 44.2884C175.634 44.0066 175.852 43.7812 176.127 43.6122C176.402 43.4432 176.712 43.3156 177.056 43.2294C177.404 43.1399 177.764 43.0753 178.135 43.0355C178.583 42.9891 178.945 42.9477 179.224 42.9112C179.502 42.8714 179.704 42.8118 179.83 42.7322C179.96 42.6494 180.024 42.5218 180.024 42.3494V42.3196C180.024 41.9451 179.913 41.6551 179.691 41.4496C179.469 41.2441 179.149 41.1413 178.732 41.1413C178.291 41.1413 177.941 41.2375 177.683 41.4297C177.427 41.6219 177.255 41.849 177.166 42.1108L175.485 41.8722C175.618 41.4081 175.837 41.0204 176.142 40.7088C176.446 40.3939 176.819 40.1586 177.26 40.0028C177.701 39.8438 178.188 39.7642 178.722 39.7642C179.09 39.7642 179.456 39.8073 179.82 39.8935C180.185 39.9796 180.518 40.1222 180.82 40.321C181.121 40.5166 181.363 40.7834 181.546 41.1214C181.731 41.4595 181.824 41.8821 181.824 42.3892V47.5H180.094V46.451H180.034C179.925 46.6631 179.771 46.862 179.572 47.0476C179.376 47.2299 179.129 47.3774 178.831 47.4901C178.536 47.5994 178.19 47.6541 177.792 47.6541ZM178.259 46.3317C178.621 46.3317 178.934 46.2604 179.199 46.1179C179.464 45.9721 179.668 45.7798 179.811 45.5412C179.956 45.3026 180.029 45.0424 180.029 44.7607V43.8608C179.973 43.9072 179.877 43.9503 179.741 43.9901C179.608 44.0298 179.459 44.0646 179.294 44.0945C179.128 44.1243 178.964 44.1508 178.801 44.174C178.639 44.1972 178.498 44.2171 178.379 44.2337C178.11 44.2701 177.87 44.3298 177.658 44.4126C177.446 44.4955 177.278 44.6115 177.156 44.7607C177.033 44.9065 176.972 45.0954 176.972 45.3274C176.972 45.6589 177.093 45.9091 177.335 46.0781C177.577 46.2472 177.885 46.3317 178.259 46.3317ZM185.433 37.3182V47.5H183.634V37.3182H185.433Z" fill="#F1F1F1"/>
</g>
<rect x="21.5" y="21.5" width="176" height="41" rx="2.5" stroke="#334A5F" stroke-width="3" shape-rendering="crispEdges"/>
</g>
<g filter="url(#filter1_d_3_1544)">
<g clip-path="url(#clip1_3_1544)">
<rect width="93" height="44" transform="translate(20 74)" fill="#223B50"/>
<path d="M34.3118 101H32.343L35.9276 90.8182H38.2045L41.794 101H39.8253L37.1058 92.9062H37.0263L34.3118 101ZM34.3764 97.0078H39.7457V98.4893H34.3764V97.0078ZM45.657 101.134C45.0571 101.134 44.5201 100.98 44.0462 100.672C43.5722 100.364 43.1977 99.9162 42.9226 99.3295C42.6475 98.7429 42.5099 98.0303 42.5099 97.1918C42.5099 96.3433 42.6491 95.6274 42.9276 95.044C43.2093 94.4574 43.5888 94.0149 44.0661 93.7166C44.5433 93.415 45.0753 93.2642 45.6619 93.2642C46.1094 93.2642 46.4773 93.3404 46.7656 93.4929C47.054 93.642 47.2827 93.8227 47.4517 94.0348C47.6207 94.2436 47.7517 94.4408 47.8445 94.6264H47.919V90.8182H49.7237V101H47.9538V99.7969H47.8445C47.7517 99.9825 47.6174 100.18 47.4418 100.388C47.2661 100.594 47.0341 100.77 46.7457 100.915C46.4574 101.061 46.0945 101.134 45.657 101.134ZM46.1591 99.6577C46.5402 99.6577 46.8651 99.5549 47.1335 99.3494C47.402 99.1406 47.6058 98.8506 47.745 98.4794C47.8842 98.1082 47.9538 97.6757 47.9538 97.1818C47.9538 96.688 47.8842 96.2588 47.745 95.8942C47.6091 95.5296 47.407 95.2462 47.1385 95.044C46.8733 94.8419 46.5469 94.7408 46.1591 94.7408C45.758 94.7408 45.4233 94.8452 45.1548 95.054C44.8864 95.2628 44.6842 95.5511 44.5483 95.919C44.4124 96.2869 44.3445 96.7079 44.3445 97.1818C44.3445 97.6591 44.4124 98.085 44.5483 98.4595C44.6875 98.8307 44.8913 99.1241 45.1598 99.3395C45.4316 99.5516 45.7647 99.6577 46.1591 99.6577ZM58.4625 93.3636L55.7431 101H53.7544L51.035 93.3636H52.954L54.709 99.0362H54.7885L56.5485 93.3636H58.4625ZM61.6866 101.154C61.2027 101.154 60.7669 101.068 60.3791 100.896C59.9946 100.72 59.6897 100.461 59.4643 100.12C59.2422 99.7786 59.1312 99.3577 59.1312 98.8572C59.1312 98.4264 59.2108 98.0701 59.3699 97.7884C59.5289 97.5066 59.746 97.2812 60.0211 97.1122C60.2962 96.9432 60.6061 96.8156 60.9508 96.7294C61.2988 96.6399 61.6584 96.5753 62.0297 96.5355C62.4771 96.4891 62.84 96.4477 63.1184 96.4112C63.3968 96.3714 63.599 96.3118 63.725 96.2322C63.8542 96.1494 63.9189 96.0218 63.9189 95.8494V95.8196C63.9189 95.4451 63.8078 95.1551 63.5858 94.9496C63.3637 94.7441 63.0439 94.6413 62.6262 94.6413C62.1854 94.6413 61.8358 94.7375 61.5772 94.9297C61.322 95.1219 61.1497 95.349 61.0602 95.6108L59.3798 95.3722C59.5124 94.9081 59.7311 94.5204 60.036 94.2088C60.341 93.8939 60.7138 93.6586 61.1547 93.5028C61.5955 93.3438 62.0827 93.2642 62.6163 93.2642C62.9842 93.2642 63.3504 93.3073 63.715 93.3935C64.0796 93.4796 64.4127 93.6222 64.7143 93.821C65.0159 94.0166 65.2579 94.2834 65.4402 94.6214C65.6258 94.9595 65.7186 95.3821 65.7186 95.8892V101H63.9885V99.951H63.9288C63.8194 100.163 63.6653 100.362 63.4664 100.548C63.2709 100.73 63.024 100.877 62.7257 100.99C62.4307 101.099 62.0843 101.154 61.6866 101.154ZM62.1539 99.8317C62.5152 99.8317 62.8284 99.7604 63.0936 99.6179C63.3587 99.4721 63.5626 99.2798 63.7051 99.0412C63.8509 98.8026 63.9238 98.5424 63.9238 98.2607V97.3608C63.8675 97.4072 63.7714 97.4503 63.6355 97.4901C63.5029 97.5298 63.3538 97.5646 63.188 97.5945C63.0223 97.6243 62.8583 97.6508 62.6958 97.674C62.5334 97.6972 62.3926 97.7171 62.2733 97.7337C62.0048 97.7701 61.7645 97.8298 61.5524 97.9126C61.3403 97.9955 61.1729 98.1115 61.0502 98.2607C60.9276 98.4065 60.8663 98.5954 60.8663 98.8274C60.8663 99.1589 60.9873 99.4091 61.2292 99.5781C61.4712 99.7472 61.7794 99.8317 62.1539 99.8317ZM69.3279 96.5256V101H67.5282V93.3636H69.2484V94.6612H69.3379C69.5136 94.2337 69.7936 93.8939 70.1781 93.642C70.5659 93.3902 71.0448 93.2642 71.6149 93.2642C72.1419 93.2642 72.6009 93.3769 72.992 93.6023C73.3864 93.8277 73.6913 94.1541 73.9068 94.5817C74.1255 95.0092 74.2333 95.5279 74.2299 96.1378V101H72.4302V96.4162C72.4302 95.9058 72.2976 95.5064 72.0325 95.218C71.7707 94.9297 71.4077 94.7855 70.9437 94.7855C70.6288 94.7855 70.3488 94.8551 70.1035 94.9943C69.8616 95.1302 69.671 95.3274 69.5318 95.5859C69.3959 95.8445 69.3279 96.1577 69.3279 96.5256ZM79.3904 101.149C78.6281 101.149 77.9735 100.982 77.4267 100.647C76.8831 100.312 76.4638 99.8499 76.1689 99.2599C75.8772 98.6667 75.7314 97.9839 75.7314 97.2116C75.7314 96.4361 75.8805 95.7517 76.1788 95.1584C76.4771 94.5618 76.898 94.0978 77.4416 93.7663C77.9885 93.4316 78.6348 93.2642 79.3805 93.2642C80.0003 93.2642 80.5488 93.3786 81.0261 93.6072C81.5067 93.8326 81.8895 94.1525 82.1745 94.5668C82.4596 94.9777 82.622 95.4583 82.6618 96.0085H80.9416C80.872 95.6406 80.7063 95.334 80.4444 95.0888C80.1859 94.8402 79.8395 94.7159 79.4054 94.7159C79.0375 94.7159 78.7143 94.8153 78.4359 95.0142C78.1575 95.2098 77.9404 95.4915 77.7846 95.8594C77.6322 96.2273 77.5559 96.6681 77.5559 97.1818C77.5559 97.7022 77.6322 98.1496 77.7846 98.5241C77.9371 98.8954 78.1509 99.1821 78.426 99.3842C78.7044 99.5831 79.0308 99.6825 79.4054 99.6825C79.6705 99.6825 79.9075 99.6328 80.1163 99.5334C80.3284 99.4306 80.5057 99.2831 80.6483 99.0909C80.7908 98.8987 80.8886 98.665 80.9416 98.3899H82.6618C82.6187 98.9302 82.4596 99.4091 82.1845 99.8267C81.9094 100.241 81.5349 100.566 81.0609 100.801C80.5869 101.033 80.0301 101.149 79.3904 101.149ZM87.5202 101.149C86.7546 101.149 86.0934 100.99 85.5366 100.672C84.9831 100.35 84.5572 99.8963 84.2589 99.3097C83.9606 98.7197 83.8114 98.0253 83.8114 97.2266C83.8114 96.4411 83.9606 95.7517 84.2589 95.1584C84.5605 94.5618 84.9814 94.0978 85.5217 93.7663C86.0619 93.4316 86.6966 93.2642 87.4258 93.2642C87.8964 93.2642 88.3406 93.3404 88.7582 93.4929C89.1791 93.642 89.5503 93.8741 89.8718 94.1889C90.1966 94.5038 90.4518 94.9048 90.6374 95.392C90.823 95.8759 90.9158 96.4527 90.9158 97.1222V97.674H84.6566V96.4609H89.1907C89.1874 96.1162 89.1128 95.8097 88.967 95.5412C88.8211 95.2694 88.6173 95.0556 88.3555 94.8999C88.0969 94.7441 87.7953 94.6662 87.4506 94.6662C87.0827 94.6662 86.7596 94.7557 86.4812 94.9347C86.2028 95.1103 85.9857 95.3423 85.8299 95.6307C85.6774 95.9157 85.5996 96.2289 85.5962 96.5703V97.6293C85.5962 98.0734 85.6774 98.4545 85.8398 98.7727C86.0022 99.0876 86.2293 99.3295 86.521 99.4986C86.8126 99.6643 87.154 99.7472 87.5451 99.7472C87.8069 99.7472 88.0439 99.7107 88.256 99.6378C88.4682 99.5616 88.6521 99.4505 88.8079 99.3047C88.9637 99.1589 89.0813 98.9782 89.1609 98.7628L90.8413 98.9517C90.7352 99.3958 90.533 99.7836 90.2347 100.115C89.9397 100.443 89.5619 100.698 89.1012 100.881C88.6405 101.06 88.1135 101.149 87.5202 101.149ZM95.2722 101.134C94.6723 101.134 94.1354 100.98 93.6614 100.672C93.1874 100.364 92.8129 99.9162 92.5378 99.3295C92.2627 98.7429 92.1252 98.0303 92.1252 97.1918C92.1252 96.3433 92.2644 95.6274 92.5428 95.044C92.8245 94.4574 93.204 94.0149 93.6813 93.7166C94.1586 93.415 94.6905 93.2642 95.2772 93.2642C95.7246 93.2642 96.0925 93.3404 96.3809 93.4929C96.6692 93.642 96.8979 93.8227 97.0669 94.0348C97.236 94.2436 97.3669 94.4408 97.4597 94.6264H97.5343V90.8182H99.339V101H97.5691V99.7969H97.4597C97.3669 99.9825 97.2327 100.18 97.057 100.388C96.8813 100.594 96.6493 100.77 96.361 100.915C96.0726 101.061 95.7097 101.134 95.2722 101.134ZM95.7743 99.6577C96.1555 99.6577 96.4803 99.5549 96.7488 99.3494C97.0172 99.1406 97.2211 98.8506 97.3603 98.4794C97.4995 98.1082 97.5691 97.6757 97.5691 97.1818C97.5691 96.688 97.4995 96.2588 97.3603 95.8942C97.2244 95.5296 97.0222 95.2462 96.7537 95.044C96.4886 94.8419 96.1621 94.7408 95.7743 94.7408C95.3733 94.7408 95.0385 94.8452 94.7701 95.054C94.5016 95.2628 94.2994 95.5511 94.1635 95.919C94.0276 96.2869 93.9597 96.7079 93.9597 97.1818C93.9597 97.6591 94.0276 98.085 94.1635 98.4595C94.3027 98.8307 94.5066 99.1241 94.775 99.3395C95.0468 99.5516 95.3799 99.6577 95.7743 99.6577Z" fill="#F1F1F1"/>
<path d="M113 74H199V118H113V74Z" fill="#334A5F"/>
<path d="M198.5 74V118H199.5V74H198.5Z" fill="#D0D5DD"/>
<path d="M126.004 101.5V91.3182H132.626V92.8643H127.849V95.6286H132.283V97.1747H127.849V99.9538H132.666V101.5H126.004ZM140.464 95.8821L138.824 96.0611C138.777 95.8954 138.696 95.7396 138.58 95.5938C138.467 95.4479 138.315 95.3303 138.123 95.2408C137.93 95.1513 137.695 95.1065 137.417 95.1065C137.042 95.1065 136.727 95.1877 136.472 95.3501C136.22 95.5125 136.096 95.723 136.099 95.9815C136.096 96.2036 136.177 96.3842 136.343 96.5234C136.512 96.6626 136.79 96.777 137.178 96.8665L138.48 97.1449C139.203 97.3007 139.74 97.5476 140.091 97.8857C140.446 98.2237 140.625 98.6662 140.628 99.2131C140.625 99.6937 140.484 100.118 140.206 100.486C139.931 100.85 139.548 101.135 139.057 101.341C138.567 101.546 138.003 101.649 137.367 101.649C136.432 101.649 135.68 101.454 135.11 101.062C134.54 100.668 134.2 100.12 134.091 99.4169L135.846 99.2479C135.925 99.5926 136.094 99.8527 136.353 100.028C136.611 100.204 136.948 100.292 137.362 100.292C137.789 100.292 138.132 100.204 138.391 100.028C138.653 99.8527 138.784 99.6357 138.784 99.3771C138.784 99.1584 138.699 98.9777 138.53 98.8352C138.364 98.6927 138.106 98.5833 137.755 98.5071L136.452 98.2337C135.72 98.0812 135.178 97.8243 134.826 97.4631C134.475 97.0985 134.301 96.6378 134.304 96.081C134.301 95.6103 134.429 95.2027 134.687 94.858C134.949 94.5099 135.312 94.2415 135.776 94.0526C136.243 93.8603 136.782 93.7642 137.392 93.7642C138.287 93.7642 138.991 93.9548 139.505 94.3359C140.022 94.7171 140.342 95.2325 140.464 95.8821ZM148.148 95.8821L146.507 96.0611C146.461 95.8954 146.379 95.7396 146.263 95.5938C146.151 95.4479 145.998 95.3303 145.806 95.2408C145.614 95.1513 145.379 95.1065 145.1 95.1065C144.726 95.1065 144.411 95.1877 144.156 95.3501C143.904 95.5125 143.779 95.723 143.783 95.9815C143.779 96.2036 143.861 96.3842 144.026 96.5234C144.195 96.6626 144.474 96.777 144.862 96.8665L146.164 97.1449C146.887 97.3007 147.424 97.5476 147.775 97.8857C148.129 98.2237 148.308 98.6662 148.312 99.2131C148.308 99.6937 148.168 100.118 147.889 100.486C147.614 100.85 147.231 101.135 146.741 101.341C146.25 101.546 145.687 101.649 145.05 101.649C144.116 101.649 143.363 101.454 142.793 101.062C142.223 100.668 141.884 100.12 141.774 99.4169L143.529 99.2479C143.609 99.5926 143.778 99.8527 144.036 100.028C144.295 100.204 144.631 100.292 145.045 100.292C145.473 100.292 145.816 100.204 146.075 100.028C146.336 99.8527 146.467 99.6357 146.467 99.3771C146.467 99.1584 146.383 98.9777 146.214 98.8352C146.048 98.6927 145.79 98.5833 145.438 98.5071L144.136 98.2337C143.403 98.0812 142.861 97.8243 142.51 97.4631C142.159 97.0985 141.985 96.6378 141.988 96.081C141.985 95.6103 142.112 95.2027 142.371 94.858C142.633 94.5099 142.996 94.2415 143.46 94.0526C143.927 93.8603 144.465 93.7642 145.075 93.7642C145.97 93.7642 146.674 93.9548 147.188 94.3359C147.705 94.7171 148.025 95.2325 148.148 95.8821ZM153.176 101.649C152.411 101.649 151.75 101.49 151.193 101.172C150.639 100.85 150.213 100.396 149.915 99.8097C149.617 99.2197 149.468 98.5253 149.468 97.7266C149.468 96.9411 149.617 96.2517 149.915 95.6584C150.217 95.0618 150.638 94.5978 151.178 94.2663C151.718 93.9316 152.353 93.7642 153.082 93.7642C153.553 93.7642 153.997 93.8404 154.414 93.9929C154.835 94.142 155.207 94.3741 155.528 94.6889C155.853 95.0038 156.108 95.4048 156.294 95.892C156.479 96.3759 156.572 96.9527 156.572 97.6222V98.174H150.313V96.9609H154.847C154.844 96.6162 154.769 96.3097 154.623 96.0412C154.477 95.7694 154.274 95.5556 154.012 95.3999C153.753 95.2441 153.452 95.1662 153.107 95.1662C152.739 95.1662 152.416 95.2557 152.137 95.4347C151.859 95.6103 151.642 95.8423 151.486 96.1307C151.334 96.4157 151.256 96.7289 151.252 97.0703V98.1293C151.252 98.5734 151.334 98.9545 151.496 99.2727C151.658 99.5876 151.886 99.8295 152.177 99.9986C152.469 100.164 152.81 100.247 153.201 100.247C153.463 100.247 153.7 100.211 153.912 100.138C154.124 100.062 154.308 99.9505 154.464 99.8047C154.62 99.6589 154.738 99.4782 154.817 99.2628L156.498 99.4517C156.391 99.8958 156.189 100.284 155.891 100.615C155.596 100.943 155.218 101.198 154.757 101.381C154.297 101.56 153.77 101.649 153.176 101.649ZM159.894 97.0256V101.5H158.095V93.8636H159.815V95.1612H159.904C160.08 94.7337 160.36 94.3939 160.744 94.142C161.132 93.8902 161.611 93.7642 162.181 93.7642C162.708 93.7642 163.167 93.8769 163.558 94.1023C163.953 94.3277 164.258 94.6541 164.473 95.0817C164.692 95.5092 164.8 96.0279 164.796 96.6378V101.5H162.997V96.9162C162.997 96.4058 162.864 96.0064 162.599 95.718C162.337 95.4297 161.974 95.2855 161.51 95.2855C161.195 95.2855 160.915 95.3551 160.67 95.4943C160.428 95.6302 160.237 95.8274 160.098 96.0859C159.962 96.3445 159.894 96.6577 159.894 97.0256ZM170.439 93.8636V95.2557H166.049V93.8636H170.439ZM167.133 92.0341H168.933V99.2031C168.933 99.4451 168.969 99.6307 169.042 99.7599C169.118 99.8859 169.218 99.9721 169.34 100.018C169.463 100.065 169.599 100.088 169.748 100.088C169.861 100.088 169.963 100.08 170.056 100.063C170.152 100.047 170.225 100.032 170.275 100.018L170.578 101.425C170.482 101.459 170.345 101.495 170.166 101.535C169.99 101.575 169.775 101.598 169.519 101.604C169.069 101.618 168.663 101.55 168.301 101.401C167.94 101.248 167.653 101.013 167.441 100.695C167.232 100.376 167.13 99.9787 167.133 99.5014V92.0341ZM171.944 101.5V93.8636H173.744V101.5H171.944ZM172.849 92.7798C172.564 92.7798 172.319 92.6854 172.113 92.4964C171.908 92.3042 171.805 92.0739 171.805 91.8054C171.805 91.5336 171.908 91.3033 172.113 91.1143C172.319 90.9221 172.564 90.826 172.849 90.826C173.137 90.826 173.383 90.9221 173.585 91.1143C173.79 91.3033 173.893 91.5336 173.893 91.8054C173.893 92.0739 173.79 92.3042 173.585 92.4964C173.383 92.6854 173.137 92.7798 172.849 92.7798ZM177.792 101.654C177.308 101.654 176.872 101.568 176.485 101.396C176.1 101.22 175.795 100.961 175.57 100.62C175.348 100.279 175.237 99.8577 175.237 99.3572C175.237 98.9264 175.316 98.5701 175.475 98.2884C175.634 98.0066 175.852 97.7812 176.127 97.6122C176.402 97.4432 176.712 97.3156 177.056 97.2294C177.404 97.1399 177.764 97.0753 178.135 97.0355C178.583 96.9891 178.945 96.9477 179.224 96.9112C179.502 96.8714 179.704 96.8118 179.83 96.7322C179.96 96.6494 180.024 96.5218 180.024 96.3494V96.3196C180.024 95.9451 179.913 95.6551 179.691 95.4496C179.469 95.2441 179.149 95.1413 178.732 95.1413C178.291 95.1413 177.941 95.2375 177.683 95.4297C177.427 95.6219 177.255 95.849 177.166 96.1108L175.485 95.8722C175.618 95.4081 175.837 95.0204 176.142 94.7088C176.446 94.3939 176.819 94.1586 177.26 94.0028C177.701 93.8438 178.188 93.7642 178.722 93.7642C179.09 93.7642 179.456 93.8073 179.82 93.8935C180.185 93.9796 180.518 94.1222 180.82 94.321C181.121 94.5166 181.363 94.7834 181.546 95.1214C181.731 95.4595 181.824 95.8821 181.824 96.3892V101.5H180.094V100.451H180.034C179.925 100.663 179.771 100.862 179.572 101.048C179.376 101.23 179.129 101.377 178.831 101.49C178.536 101.599 178.19 101.654 177.792 101.654ZM178.259 100.332C178.621 100.332 178.934 100.26 179.199 100.118C179.464 99.9721 179.668 99.7798 179.811 99.5412C179.956 99.3026 180.029 99.0424 180.029 98.7607V97.8608C179.973 97.9072 179.877 97.9503 179.741 97.9901C179.608 98.0298 179.459 98.0646 179.294 98.0945C179.128 98.1243 178.964 98.1508 178.801 98.174C178.639 98.1972 178.498 98.2171 178.379 98.2337C178.11 98.2701 177.87 98.3298 177.658 98.4126C177.446 98.4955 177.278 98.6115 177.156 98.7607C177.033 98.9065 176.972 99.0954 176.972 99.3274C176.972 99.6589 177.093 99.9091 177.335 100.078C177.577 100.247 177.885 100.332 178.259 100.332ZM185.433 91.3182V101.5H183.634V91.3182H185.433Z" fill="#F1F1F1"/>
</g>
<rect x="21.5" y="75.5" width="176" height="41" rx="2.5" stroke="#334A5F" stroke-width="3" shape-rendering="crispEdges"/>
</g>
<defs>
<filter id="filter0_d_3_1544" x="18" y="19" width="183" height="48" filterUnits="userSpaceOnUse" color-interpolation-filters="sRGB">
<feFlood flood-opacity="0" result="BackgroundImageFix"/>
<feColorMatrix in="SourceAlpha" type="matrix" values="0 0 0 0 0 0 0 0 0 0 0 0 0 0 0 0 0 0 127 0" result="hardAlpha"/>
<feOffset dy="1"/>
<feGaussianBlur stdDeviation="1"/>
<feComposite in2="hardAlpha" operator="out"/>
<feColorMatrix type="matrix" values="0 0 0 0 0.0627451 0 0 0 0 0.0941176 0 0 0 0 0.156863 0 0 0 0.05 0"/>
<feBlend mode="normal" in2="BackgroundImageFix" result="effect1_dropShadow_3_1544"/>
<feBlend mode="normal" in="SourceGraphic" in2="effect1_dropShadow_3_1544" result="shape"/>
</filter>
<filter id="filter1_d_3_1544" x="18" y="73" width="183" height="48" filterUnits="userSpaceOnUse" color-interpolation-filters="sRGB">
<feFlood flood-opacity="0" result="BackgroundImageFix"/>
<feColorMatrix in="SourceAlpha" type="matrix" values="0 0 0 0 0 0 0 0 0 0 0 0 0 0 0 0 0 0 127 0" result="hardAlpha"/>
<feOffset dy="1"/>
<feGaussianBlur stdDeviation="1"/>
<feComposite in2="hardAlpha" operator="out"/>
<feColorMatrix type="matrix" values="0 0 0 0 0.0627451 0 0 0 0 0.0941176 0 0 0 0 0.156863 0 0 0 0.05 0"/>
<feBlend mode="normal" in2="BackgroundImageFix" result="effect1_dropShadow_3_1544"/>
<feBlend mode="normal" in="SourceGraphic" in2="effect1_dropShadow_3_1544" result="shape"/>
</filter>
<clipPath id="clip0_3_1544">
<rect x="20" y="20" width="179" height="44" rx="4" fill="white"/>
</clipPath>
<clipPath id="clip1_3_1544">
<rect x="20" y="74" width="179" height="44" rx="4" fill="white"/>
</clipPath>
</defs>
</svg>
