<svg width="398" height="17" viewBox="0 0 398 17" fill="none" xmlns="http://www.w3.org/2000/svg">
<path d="M0.278409 13V1.36364H4.53977C5.36553 1.36364 6.04924 1.5 6.59091 1.77273C7.13258 2.04167 7.53788 2.4072 7.80682 2.86932C8.07576 3.32765 8.21023 3.8447 8.21023 4.42045C8.21023 4.9053 8.12121 5.31439 7.94318 5.64773C7.76515 5.97727 7.52652 6.24242 7.22727 6.44318C6.93182 6.64015 6.60606 6.78409 6.25 6.875V6.98864C6.63636 7.00758 7.01326 7.13258 7.38068 7.36364C7.75189 7.59091 8.05871 7.91477 8.30114 8.33523C8.54356 8.75568 8.66477 9.26705 8.66477 9.86932C8.66477 10.464 8.52462 10.9981 8.24432 11.4716C7.9678 11.9413 7.53977 12.3144 6.96023 12.5909C6.38068 12.8636 5.64015 13 4.73864 13H0.278409ZM2.03409 11.4943H4.56818C5.40909 11.4943 6.01136 11.3314 6.375 11.0057C6.73864 10.6799 6.92045 10.2727 6.92045 9.78409C6.92045 9.41667 6.82765 9.07955 6.64205 8.77273C6.45644 8.46591 6.19129 8.22159 5.84659 8.03977C5.50568 7.85795 5.10038 7.76705 4.63068 7.76705H2.03409V11.4943ZM2.03409 6.39773H4.38636C4.7803 6.39773 5.13447 6.32197 5.44886 6.17045C5.76705 6.01894 6.01894 5.80682 6.20455 5.53409C6.39394 5.25758 6.48864 4.93182 6.48864 4.55682C6.48864 4.07576 6.32008 3.67235 5.98295 3.34659C5.64583 3.02083 5.12879 2.85795 4.43182 2.85795H2.03409V6.39773ZM16.1392 9.38068V4.27273H17.8438V13H16.1733V11.4886H16.0824C15.8816 11.9545 15.5597 12.3428 15.1165 12.6534C14.6771 12.9602 14.1297 13.1136 13.4744 13.1136C12.9138 13.1136 12.4176 12.9905 11.9858 12.7443C11.5578 12.4943 11.2206 12.125 10.9744 11.6364C10.732 11.1477 10.6108 10.5436 10.6108 9.82386V4.27273H12.3097V9.61932C12.3097 10.214 12.4744 10.6875 12.804 11.0398C13.1335 11.392 13.5616 11.5682 14.0881 11.5682C14.4063 11.5682 14.7225 11.4886 15.0369 11.3295C15.3551 11.1705 15.6184 10.9299 15.8267 10.608C16.0388 10.286 16.143 9.87689 16.1392 9.38068ZM24.2003 4.27273V5.63636H19.4332V4.27273H24.2003ZM20.7116 2.18182H22.4105V10.4375C22.4105 10.767 22.4598 11.0152 22.5582 11.1818C22.6567 11.3447 22.7836 11.4564 22.9389 11.517C23.098 11.5739 23.2704 11.6023 23.456 11.6023C23.5923 11.6023 23.7116 11.5928 23.8139 11.5739C23.9162 11.5549 23.9957 11.5398 24.0526 11.5284L24.3594 12.9318C24.2609 12.9697 24.1207 13.0076 23.9389 13.0455C23.7571 13.0871 23.5298 13.1098 23.2571 13.1136C22.8101 13.1212 22.3935 13.0417 22.0071 12.875C21.6207 12.7083 21.3082 12.4508 21.0696 12.1023C20.831 11.7538 20.7116 11.3163 20.7116 10.7898V2.18182ZM30.1534 4.27273V5.63636H25.3864V4.27273H30.1534ZM26.6648 2.18182H28.3636V10.4375C28.3636 10.767 28.4129 11.0152 28.5114 11.1818C28.6098 11.3447 28.7367 11.4564 28.892 11.517C29.0511 11.5739 29.2235 11.6023 29.4091 11.6023C29.5455 11.6023 29.6648 11.5928 29.767 11.5739C29.8693 11.5549 29.9489 11.5398 30.0057 11.5284L30.3125 12.9318C30.214 12.9697 30.0739 13.0076 29.892 13.0455C29.7102 13.0871 29.483 13.1098 29.2102 13.1136C28.7633 13.1212 28.3466 13.0417 27.9602 12.875C27.5739 12.7083 27.2614 12.4508 27.0227 12.1023C26.7841 11.7538 26.6648 11.3163 26.6648 10.7898V2.18182ZM35.6151 13.1761C34.7969 13.1761 34.0829 12.9886 33.473 12.6136C32.8632 12.2386 32.3897 11.714 32.0526 11.0398C31.7154 10.3655 31.5469 9.57765 31.5469 8.67614C31.5469 7.77083 31.7154 6.97917 32.0526 6.30114C32.3897 5.62311 32.8632 5.09659 33.473 4.72159C34.0829 4.34659 34.7969 4.15909 35.6151 4.15909C36.4332 4.15909 37.1473 4.34659 37.7571 4.72159C38.367 5.09659 38.8404 5.62311 39.1776 6.30114C39.5147 6.97917 39.6832 7.77083 39.6832 8.67614C39.6832 9.57765 39.5147 10.3655 39.1776 11.0398C38.8404 11.714 38.367 12.2386 37.7571 12.6136C37.1473 12.9886 36.4332 13.1761 35.6151 13.1761ZM35.6207 11.75C36.151 11.75 36.5904 11.6098 36.9389 11.3295C37.2874 11.0492 37.545 10.6761 37.7116 10.2102C37.8821 9.74432 37.9673 9.23106 37.9673 8.67045C37.9673 8.11364 37.8821 7.60227 37.7116 7.13636C37.545 6.66667 37.2874 6.28977 36.9389 6.00568C36.5904 5.72159 36.151 5.57955 35.6207 5.57955C35.0866 5.57955 34.6435 5.72159 34.2912 6.00568C33.9427 6.28977 33.6832 6.66667 33.5128 7.13636C33.3461 7.60227 33.2628 8.11364 33.2628 8.67045C33.2628 9.23106 33.3461 9.74432 33.5128 10.2102C33.6832 10.6761 33.9427 11.0492 34.2912 11.3295C34.6435 11.6098 35.0866 11.75 35.6207 11.75ZM43.2784 7.81818V13H41.5795V4.27273H43.2102V5.69318H43.3182C43.5189 5.23106 43.8333 4.85985 44.2614 4.57955C44.6932 4.29924 45.2367 4.15909 45.892 4.15909C46.4867 4.15909 47.0076 4.28409 47.4545 4.53409C47.9015 4.7803 48.2481 5.14773 48.4943 5.63636C48.7405 6.125 48.8636 6.72917 48.8636 7.44886V13H47.1648V7.65341C47.1648 7.02083 47 6.52652 46.6705 6.17045C46.3409 5.81061 45.8883 5.63068 45.3125 5.63068C44.9186 5.63068 44.5682 5.71591 44.2614 5.88636C43.9583 6.05682 43.7178 6.30682 43.5398 6.63636C43.3655 6.96212 43.2784 7.35606 43.2784 7.81818ZM59.4503 4.27273V5.63636H54.6832V4.27273H59.4503ZM55.9616 2.18182H57.6605V10.4375C57.6605 10.767 57.7098 11.0152 57.8082 11.1818C57.9067 11.3447 58.0336 11.4564 58.1889 11.517C58.348 11.5739 58.5204 11.6023 58.706 11.6023C58.8423 11.6023 58.9616 11.5928 59.0639 11.5739C59.1662 11.5549 59.2457 11.5398 59.3026 11.5284L59.6094 12.9318C59.5109 12.9697 59.3707 13.0076 59.1889 13.0455C59.0071 13.0871 58.7798 13.1098 58.5071 13.1136C58.0601 13.1212 57.6435 13.0417 57.2571 12.875C56.8707 12.7083 56.5582 12.4508 56.3196 12.1023C56.081 11.7538 55.9616 11.3163 55.9616 10.7898V2.18182ZM64.9972 13.1761C64.1373 13.1761 63.3968 12.9924 62.7756 12.625C62.1581 12.2538 61.6809 11.733 61.3438 11.0625C61.0104 10.3883 60.8438 9.59848 60.8438 8.69318C60.8438 7.79924 61.0104 7.01136 61.3438 6.32955C61.6809 5.64773 62.1506 5.11553 62.7528 4.73295C63.3589 4.35038 64.0672 4.15909 64.8778 4.15909C65.3703 4.15909 65.8475 4.24053 66.3097 4.40341C66.7718 4.56629 67.1866 4.82197 67.554 5.17045C67.9214 5.51894 68.2112 5.97159 68.4233 6.52841C68.6354 7.08144 68.7415 7.75379 68.7415 8.54545V9.14773H61.804V7.875H67.0767C67.0767 7.42803 66.9858 7.0322 66.804 6.6875C66.6222 6.33902 66.3665 6.06439 66.0369 5.86364C65.7112 5.66288 65.3286 5.5625 64.8892 5.5625C64.4119 5.5625 63.9953 5.67992 63.6392 5.91477C63.2869 6.14583 63.0142 6.44886 62.821 6.82386C62.6316 7.19508 62.5369 7.59848 62.5369 8.03409V9.02841C62.5369 9.61174 62.6392 10.108 62.8438 10.517C63.0521 10.9261 63.3419 11.2386 63.7131 11.4545C64.0843 11.6667 64.518 11.7727 65.0142 11.7727C65.3362 11.7727 65.6297 11.7273 65.8949 11.6364C66.16 11.5417 66.3892 11.4015 66.5824 11.2159C66.7756 11.0303 66.9233 10.8011 67.0256 10.5284L68.6335 10.8182C68.5047 11.2917 68.2737 11.7064 67.9403 12.0625C67.6108 12.4148 67.196 12.6894 66.696 12.8864C66.1998 13.0795 65.6335 13.1761 64.9972 13.1761ZM71.7642 4.27273L73.6903 7.67045L75.6335 4.27273H77.4915L74.7699 8.63636L77.5142 13H75.6562L73.6903 9.73864L71.7301 13H69.8665L72.5824 8.63636L69.9006 4.27273H71.7642ZM83.3097 4.27273V5.63636H78.5426V4.27273H83.3097ZM79.821 2.18182H81.5199V10.4375C81.5199 10.767 81.5691 11.0152 81.6676 11.1818C81.7661 11.3447 81.893 11.4564 82.0483 11.517C82.2074 11.5739 82.3797 11.6023 82.5653 11.6023C82.7017 11.6023 82.821 11.5928 82.9233 11.5739C83.0256 11.5549 83.1051 11.5398 83.1619 11.5284L83.4688 12.9318C83.3703 12.9697 83.2301 13.0076 83.0483 13.0455C82.8665 13.0871 82.6392 13.1098 82.3665 13.1136C81.9195 13.1212 81.5028 13.0417 81.1165 12.875C80.7301 12.7083 80.4176 12.4508 80.179 12.1023C79.9403 11.7538 79.821 11.3163 79.821 10.7898V2.18182ZM94.5653 6.44318V7.92045H89.4062V6.44318H94.5653ZM100.626 2.875V1.36364H109.632V2.875H106.001V13H104.251V2.875H100.626ZM113.185 7.81818V13H111.486V1.36364H113.162V5.69318H113.27C113.474 5.22348 113.787 4.85038 114.207 4.57386C114.628 4.29735 115.177 4.15909 115.855 4.15909C116.454 4.15909 116.976 4.2822 117.423 4.52841C117.874 4.77462 118.223 5.14205 118.469 5.63068C118.719 6.11553 118.844 6.72159 118.844 7.44886V13H117.145V7.65341C117.145 7.01326 116.98 6.51705 116.651 6.16477C116.321 5.80871 115.863 5.63068 115.276 5.63068C114.874 5.63068 114.514 5.71591 114.196 5.88636C113.882 6.05682 113.634 6.30682 113.452 6.63636C113.274 6.96212 113.185 7.35606 113.185 7.81818ZM124.872 13.1761C124.012 13.1761 123.272 12.9924 122.651 12.625C122.033 12.2538 121.556 11.733 121.219 11.0625C120.885 10.3883 120.719 9.59848 120.719 8.69318C120.719 7.79924 120.885 7.01136 121.219 6.32955C121.556 5.64773 122.026 5.11553 122.628 4.73295C123.234 4.35038 123.942 4.15909 124.753 4.15909C125.245 4.15909 125.723 4.24053 126.185 4.40341C126.647 4.56629 127.062 4.82197 127.429 5.17045C127.796 5.51894 128.086 5.97159 128.298 6.52841C128.51 7.08144 128.616 7.75379 128.616 8.54545V9.14773H121.679V7.875H126.952C126.952 7.42803 126.861 7.0322 126.679 6.6875C126.497 6.33902 126.241 6.06439 125.912 5.86364C125.586 5.66288 125.204 5.5625 124.764 5.5625C124.287 5.5625 123.87 5.67992 123.514 5.91477C123.162 6.14583 122.889 6.44886 122.696 6.82386C122.507 7.19508 122.412 7.59848 122.412 8.03409V9.02841C122.412 9.61174 122.514 10.108 122.719 10.517C122.927 10.9261 123.217 11.2386 123.588 11.4545C123.959 11.6667 124.393 11.7727 124.889 11.7727C125.211 11.7727 125.505 11.7273 125.77 11.6364C126.035 11.5417 126.264 11.4015 126.457 11.2159C126.651 11.0303 126.798 10.8011 126.901 10.5284L128.509 10.8182C128.38 11.2917 128.149 11.7064 127.815 12.0625C127.486 12.4148 127.071 12.6894 126.571 12.8864C126.075 13.0795 125.509 13.1761 124.872 13.1761ZM140.628 16.2727V11.642H140.526C140.423 11.8277 140.276 12.0398 140.082 12.2784C139.893 12.517 139.632 12.7254 139.298 12.9034C138.965 13.0814 138.533 13.1705 138.003 13.1705C137.298 13.1705 136.67 12.9905 136.116 12.6307C135.567 12.267 135.135 11.75 134.821 11.0795C134.51 10.4053 134.355 9.59659 134.355 8.65341C134.355 7.71023 134.512 6.90341 134.827 6.23295C135.145 5.5625 135.58 5.04924 136.134 4.69318C136.687 4.33712 137.313 4.15909 138.014 4.15909C138.556 4.15909 138.991 4.25 139.321 4.43182C139.654 4.60985 139.912 4.81818 140.094 5.05682C140.279 5.29545 140.423 5.50568 140.526 5.6875H140.668V4.27273H142.327V16.2727H140.628ZM138.378 11.7216C138.866 11.7216 139.279 11.5928 139.616 11.3352C139.957 11.0739 140.215 10.7121 140.389 10.25C140.567 9.78788 140.656 9.25 140.656 8.63636C140.656 8.0303 140.569 7.5 140.395 7.04545C140.221 6.59091 139.965 6.23674 139.628 5.98295C139.291 5.72917 138.874 5.60227 138.378 5.60227C137.866 5.60227 137.44 5.73485 137.099 6C136.759 6.26515 136.501 6.62689 136.327 7.08523C136.156 7.54356 136.071 8.06061 136.071 8.63636C136.071 9.2197 136.158 9.74432 136.332 10.2102C136.507 10.6761 136.764 11.0455 137.105 11.3182C137.45 11.5871 137.874 11.7216 138.378 11.7216ZM150.139 9.38068V4.27273H151.844V13H150.173V11.4886H150.082C149.882 11.9545 149.56 12.3428 149.116 12.6534C148.677 12.9602 148.13 13.1136 147.474 13.1136C146.914 13.1136 146.418 12.9905 145.986 12.7443C145.558 12.4943 145.221 12.125 144.974 11.6364C144.732 11.1477 144.611 10.5436 144.611 9.82386V4.27273H146.31V9.61932C146.31 10.214 146.474 10.6875 146.804 11.0398C147.134 11.392 147.562 11.5682 148.088 11.5682C148.406 11.5682 148.723 11.4886 149.037 11.3295C149.355 11.1705 149.618 10.9299 149.827 10.608C150.039 10.286 150.143 9.87689 150.139 9.38068ZM154.126 13V4.27273H155.825V13H154.126ZM154.984 2.92614C154.689 2.92614 154.435 2.82765 154.223 2.63068C154.015 2.42992 153.911 2.19129 153.911 1.91477C153.911 1.63447 154.015 1.39583 154.223 1.19886C154.435 0.998106 154.689 0.897727 154.984 0.897727C155.28 0.897727 155.532 0.998106 155.74 1.19886C155.952 1.39583 156.058 1.63447 156.058 1.91477C156.058 2.19129 155.952 2.42992 155.74 2.63068C155.532 2.82765 155.28 2.92614 154.984 2.92614ZM161.787 13.1761C160.942 13.1761 160.215 12.9848 159.605 12.6023C158.999 12.2159 158.533 11.6837 158.207 11.0057C157.882 10.3277 157.719 9.55114 157.719 8.67614C157.719 7.78977 157.885 7.00758 158.219 6.32955C158.552 5.64773 159.022 5.11553 159.628 4.73295C160.234 4.35038 160.948 4.15909 161.77 4.15909C162.433 4.15909 163.024 4.2822 163.543 4.52841C164.062 4.77083 164.48 5.11174 164.798 5.55114C165.12 5.99053 165.312 6.50379 165.372 7.09091H163.719C163.628 6.68182 163.42 6.32955 163.094 6.03409C162.772 5.73864 162.34 5.59091 161.798 5.59091C161.325 5.59091 160.91 5.71591 160.554 5.96591C160.202 6.21212 159.927 6.56439 159.73 7.02273C159.533 7.47727 159.435 8.01515 159.435 8.63636C159.435 9.27273 159.531 9.82197 159.724 10.2841C159.918 10.7462 160.19 11.1042 160.543 11.358C160.899 11.6117 161.317 11.7386 161.798 11.7386C162.12 11.7386 162.412 11.6799 162.673 11.5625C162.938 11.4413 163.16 11.2689 163.338 11.0455C163.52 10.822 163.647 10.553 163.719 10.2386H165.372C165.312 10.803 165.128 11.3068 164.821 11.75C164.514 12.1932 164.103 12.5417 163.588 12.7955C163.077 13.0492 162.476 13.1761 161.787 13.1761ZM168.751 10.0398L168.74 7.96591H169.036L172.513 4.27273H174.547L170.581 8.47727H170.314L168.751 10.0398ZM167.189 13V1.36364H168.888V13H167.189ZM172.7 13L169.575 8.85227L170.746 7.66477L174.786 13H172.7ZM184.483 4.27273V5.63636H179.551V4.27273H184.483ZM180.903 13V3.26136C180.903 2.71591 181.023 2.26326 181.261 1.90341C181.5 1.53977 181.816 1.26894 182.21 1.09091C182.604 0.90909 183.032 0.818181 183.494 0.818181C183.835 0.818181 184.127 0.84659 184.369 0.903409C184.612 0.956439 184.792 1.00568 184.909 1.05114L184.511 2.42614C184.432 2.40341 184.33 2.37689 184.205 2.34659C184.08 2.3125 183.928 2.29545 183.75 2.29545C183.337 2.29545 183.042 2.39773 182.864 2.60227C182.689 2.80682 182.602 3.10227 182.602 3.48864V13H180.903ZM189.568 13.1761C188.75 13.1761 188.036 12.9886 187.426 12.6136C186.816 12.2386 186.343 11.714 186.006 11.0398C185.669 10.3655 185.5 9.57765 185.5 8.67614C185.5 7.77083 185.669 6.97917 186.006 6.30114C186.343 5.62311 186.816 5.09659 187.426 4.72159C188.036 4.34659 188.75 4.15909 189.568 4.15909C190.386 4.15909 191.1 4.34659 191.71 4.72159C192.32 5.09659 192.794 5.62311 193.131 6.30114C193.468 6.97917 193.636 7.77083 193.636 8.67614C193.636 9.57765 193.468 10.3655 193.131 11.0398C192.794 11.714 192.32 12.2386 191.71 12.6136C191.1 12.9886 190.386 13.1761 189.568 13.1761ZM189.574 11.75C190.104 11.75 190.544 11.6098 190.892 11.3295C191.241 11.0492 191.498 10.6761 191.665 10.2102C191.835 9.74432 191.92 9.23106 191.92 8.67045C191.92 8.11364 191.835 7.60227 191.665 7.13636C191.498 6.66667 191.241 6.28977 190.892 6.00568C190.544 5.72159 190.104 5.57955 189.574 5.57955C189.04 5.57955 188.597 5.72159 188.244 6.00568C187.896 6.28977 187.636 6.66667 187.466 7.13636C187.299 7.60227 187.216 8.11364 187.216 8.67045C187.216 9.23106 187.299 9.74432 187.466 10.2102C187.636 10.6761 187.896 11.0492 188.244 11.3295C188.597 11.6098 189.04 11.75 189.574 11.75ZM196.53 4.27273L198.456 7.67045L200.399 4.27273H202.257L199.536 8.63636L202.28 13H200.422L198.456 9.73864L196.496 13H194.632L197.348 8.63636L194.666 4.27273H196.53ZM208.236 4.27273H209.935V13.5682C209.935 14.1515 209.829 14.6439 209.616 15.0455C209.408 15.447 209.098 15.7519 208.685 15.9602C208.276 16.1686 207.77 16.2727 207.168 16.2727C207.107 16.2727 207.05 16.2727 206.997 16.2727C206.94 16.2727 206.882 16.2708 206.821 16.267V14.8068C206.874 14.8068 206.921 14.8068 206.963 14.8068C207.001 14.8068 207.045 14.8068 207.094 14.8068C207.495 14.8068 207.785 14.6989 207.963 14.483C208.145 14.2708 208.236 13.9621 208.236 13.5568V4.27273ZM209.077 2.92614C208.781 2.92614 208.527 2.82765 208.315 2.63068C208.107 2.42992 208.003 2.19129 208.003 1.91477C208.003 1.63447 208.107 1.39583 208.315 1.19886C208.527 0.998106 208.781 0.897727 209.077 0.897727C209.372 0.897727 209.624 0.998106 209.832 1.19886C210.045 1.39583 210.151 1.63447 210.151 1.91477C210.151 2.19129 210.045 2.42992 209.832 2.63068C209.624 2.82765 209.372 2.92614 209.077 2.92614ZM217.749 9.38068V4.27273H219.453V13H217.783V11.4886H217.692C217.491 11.9545 217.169 12.3428 216.726 12.6534C216.286 12.9602 215.739 13.1136 215.084 13.1136C214.523 13.1136 214.027 12.9905 213.595 12.7443C213.167 12.4943 212.83 12.125 212.584 11.6364C212.341 11.1477 212.22 10.5436 212.22 9.82386V4.27273H213.919V9.61932C213.919 10.214 214.084 10.6875 214.413 11.0398C214.743 11.392 215.171 11.5682 215.697 11.5682C216.016 11.5682 216.332 11.4886 216.646 11.3295C216.964 11.1705 217.228 10.9299 217.436 10.608C217.648 10.286 217.752 9.87689 217.749 9.38068ZM221.736 13V4.27273H223.366V5.69318H223.474C223.656 5.21212 223.954 4.83712 224.366 4.56818C224.779 4.29545 225.274 4.15909 225.849 4.15909C226.433 4.15909 226.921 4.29545 227.315 4.56818C227.713 4.84091 228.007 5.21591 228.196 5.69318H228.287C228.495 5.22727 228.827 4.85606 229.281 4.57955C229.736 4.29924 230.277 4.15909 230.906 4.15909C231.698 4.15909 232.344 4.4072 232.844 4.90341C233.348 5.39962 233.599 6.14773 233.599 7.14773V13H231.901V7.30682C231.901 6.71591 231.74 6.28788 231.418 6.02273C231.096 5.75758 230.711 5.625 230.264 5.625C229.711 5.625 229.281 5.79545 228.974 6.13636C228.668 6.47348 228.514 6.9072 228.514 7.4375V13H226.821V7.19886C226.821 6.72538 226.673 6.3447 226.378 6.05682C226.082 5.76894 225.698 5.625 225.224 5.625C224.902 5.625 224.605 5.71023 224.332 5.88068C224.063 6.04735 223.846 6.2803 223.679 6.57955C223.516 6.87879 223.435 7.22538 223.435 7.61932V13H221.736ZM235.876 16.2727V4.27273H237.536V5.6875H237.678C237.776 5.50568 237.918 5.29545 238.104 5.05682C238.289 4.81818 238.547 4.60985 238.876 4.43182C239.206 4.25 239.642 4.15909 240.183 4.15909C240.888 4.15909 241.517 4.33712 242.07 4.69318C242.623 5.04924 243.056 5.5625 243.371 6.23295C243.689 6.90341 243.848 7.71023 243.848 8.65341C243.848 9.59659 243.691 10.4053 243.376 11.0795C243.062 11.75 242.63 12.267 242.081 12.6307C241.532 12.9905 240.905 13.1705 240.2 13.1705C239.67 13.1705 239.236 13.0814 238.899 12.9034C238.566 12.7254 238.304 12.517 238.115 12.2784C237.926 12.0398 237.78 11.8277 237.678 11.642H237.575V16.2727H235.876ZM237.541 8.63636C237.541 9.25 237.63 9.78788 237.808 10.25C237.986 10.7121 238.244 11.0739 238.581 11.3352C238.918 11.5928 239.331 11.7216 239.82 11.7216C240.327 11.7216 240.751 11.5871 241.092 11.3182C241.433 11.0455 241.691 10.6761 241.865 10.2102C242.043 9.74432 242.132 9.2197 242.132 8.63636C242.132 8.06061 242.045 7.54356 241.871 7.08523C241.7 6.62689 241.443 6.26515 241.098 6C240.757 5.73485 240.331 5.60227 239.82 5.60227C239.327 5.60227 238.911 5.72917 238.57 5.98295C238.232 6.23674 237.977 6.59091 237.803 7.04545C237.628 7.5 237.541 8.0303 237.541 8.63636ZM252.291 6.40341L250.751 6.67614C250.687 6.47917 250.585 6.29167 250.445 6.11364C250.308 5.93561 250.123 5.78977 249.888 5.67614C249.653 5.5625 249.359 5.50568 249.007 5.50568C248.526 5.50568 248.125 5.61364 247.803 5.82955C247.481 6.04167 247.32 6.31629 247.32 6.65341C247.32 6.94508 247.428 7.17992 247.643 7.35795C247.859 7.53598 248.208 7.68182 248.689 7.79545L250.075 8.11364C250.878 8.29924 251.477 8.58523 251.871 8.97159C252.265 9.35795 252.462 9.85985 252.462 10.4773C252.462 11 252.31 11.4659 252.007 11.875C251.708 12.2803 251.289 12.5985 250.751 12.8295C250.217 13.0606 249.598 13.1761 248.893 13.1761C247.916 13.1761 247.119 12.9678 246.501 12.5511C245.884 12.1307 245.505 11.5341 245.365 10.7614L247.007 10.5114C247.109 10.9394 247.32 11.2633 247.638 11.483C247.956 11.6989 248.371 11.8068 248.882 11.8068C249.439 11.8068 249.884 11.6913 250.217 11.4602C250.551 11.2254 250.717 10.9394 250.717 10.6023C250.717 10.3295 250.615 10.1004 250.411 9.91477C250.21 9.72917 249.901 9.58902 249.484 9.49432L248.007 9.17045C247.193 8.98485 246.59 8.68939 246.2 8.28409C245.814 7.87879 245.621 7.36553 245.621 6.74432C245.621 6.22917 245.765 5.77841 246.053 5.39205C246.34 5.00568 246.738 4.70455 247.246 4.48864C247.753 4.26894 248.335 4.15909 248.99 4.15909C249.933 4.15909 250.676 4.36364 251.217 4.77273C251.759 5.17803 252.117 5.72159 252.291 6.40341ZM262.24 13.1761C261.422 13.1761 260.708 12.9886 260.098 12.6136C259.488 12.2386 259.015 11.714 258.678 11.0398C258.34 10.3655 258.172 9.57765 258.172 8.67614C258.172 7.77083 258.34 6.97917 258.678 6.30114C259.015 5.62311 259.488 5.09659 260.098 4.72159C260.708 4.34659 261.422 4.15909 262.24 4.15909C263.058 4.15909 263.772 4.34659 264.382 4.72159C264.992 5.09659 265.465 5.62311 265.803 6.30114C266.14 6.97917 266.308 7.77083 266.308 8.67614C266.308 9.57765 266.14 10.3655 265.803 11.0398C265.465 11.714 264.992 12.2386 264.382 12.6136C263.772 12.9886 263.058 13.1761 262.24 13.1761ZM262.246 11.75C262.776 11.75 263.215 11.6098 263.564 11.3295C263.912 11.0492 264.17 10.6761 264.337 10.2102C264.507 9.74432 264.592 9.23106 264.592 8.67045C264.592 8.11364 264.507 7.60227 264.337 7.13636C264.17 6.66667 263.912 6.28977 263.564 6.00568C263.215 5.72159 262.776 5.57955 262.246 5.57955C261.712 5.57955 261.268 5.72159 260.916 6.00568C260.568 6.28977 260.308 6.66667 260.138 7.13636C259.971 7.60227 259.888 8.11364 259.888 8.67045C259.888 9.23106 259.971 9.74432 260.138 10.2102C260.308 10.6761 260.568 11.0492 260.916 11.3295C261.268 11.6098 261.712 11.75 262.246 11.75ZM275.374 4.27273L272.209 13H270.391L267.22 4.27273H269.044L271.254 10.9886H271.345L273.55 4.27273H275.374ZM280.435 13.1761C279.575 13.1761 278.834 12.9924 278.213 12.625C277.596 12.2538 277.118 11.733 276.781 11.0625C276.448 10.3883 276.281 9.59848 276.281 8.69318C276.281 7.79924 276.448 7.01136 276.781 6.32955C277.118 5.64773 277.588 5.11553 278.19 4.73295C278.796 4.35038 279.505 4.15909 280.315 4.15909C280.808 4.15909 281.285 4.24053 281.747 4.40341C282.209 4.56629 282.624 4.82197 282.991 5.17045C283.359 5.51894 283.649 5.97159 283.861 6.52841C284.073 7.08144 284.179 7.75379 284.179 8.54545V9.14773H277.241V7.875H282.514C282.514 7.42803 282.423 7.0322 282.241 6.6875C282.06 6.33902 281.804 6.06439 281.474 5.86364C281.149 5.66288 280.766 5.5625 280.327 5.5625C279.849 5.5625 279.433 5.67992 279.077 5.91477C278.724 6.14583 278.452 6.44886 278.259 6.82386C278.069 7.19508 277.974 7.59848 277.974 8.03409V9.02841C277.974 9.61174 278.077 10.108 278.281 10.517C278.49 10.9261 278.779 11.2386 279.151 11.4545C279.522 11.6667 279.955 11.7727 280.452 11.7727C280.774 11.7727 281.067 11.7273 281.332 11.6364C281.598 11.5417 281.827 11.4015 282.02 11.2159C282.213 11.0303 282.361 10.8011 282.463 10.5284L284.071 10.8182C283.942 11.2917 283.711 11.7064 283.378 12.0625C283.048 12.4148 282.634 12.6894 282.134 12.8864C281.637 13.0795 281.071 13.1761 280.435 13.1761ZM286.064 13V4.27273H287.706V5.65909H287.797C287.956 5.18939 288.236 4.82008 288.638 4.55114C289.043 4.27841 289.501 4.14205 290.013 4.14205C290.119 4.14205 290.244 4.14583 290.388 4.15341C290.536 4.16098 290.651 4.17045 290.734 4.18182V5.80682C290.666 5.78788 290.545 5.76705 290.371 5.74432C290.196 5.7178 290.022 5.70455 289.848 5.70455C289.446 5.70455 289.089 5.78977 288.774 5.96023C288.464 6.12689 288.217 6.35985 288.036 6.65909C287.854 6.95455 287.763 7.29167 287.763 7.67045V13H286.064ZM300.513 4.27273V5.63636H295.746V4.27273H300.513ZM297.024 2.18182H298.723V10.4375C298.723 10.767 298.772 11.0152 298.871 11.1818C298.969 11.3447 299.096 11.4564 299.251 11.517C299.411 11.5739 299.583 11.6023 299.768 11.6023C299.905 11.6023 300.024 11.5928 300.126 11.5739C300.229 11.5549 300.308 11.5398 300.365 11.5284L300.672 12.9318C300.573 12.9697 300.433 13.0076 300.251 13.0455C300.07 13.0871 299.842 13.1098 299.57 13.1136C299.123 13.1212 298.706 13.0417 298.32 12.875C297.933 12.7083 297.621 12.4508 297.382 12.1023C297.143 11.7538 297.024 11.3163 297.024 10.7898V2.18182ZM304.278 7.81818V13H302.58V1.36364H304.256V5.69318H304.364C304.568 5.22348 304.881 4.85038 305.301 4.57386C305.722 4.29735 306.271 4.15909 306.949 4.15909C307.547 4.15909 308.07 4.2822 308.517 4.52841C308.968 4.77462 309.316 5.14205 309.562 5.63068C309.812 6.11553 309.938 6.72159 309.938 7.44886V13H308.239V7.65341C308.239 7.01326 308.074 6.51705 307.744 6.16477C307.415 5.80871 306.956 5.63068 306.369 5.63068C305.968 5.63068 305.608 5.71591 305.29 5.88636C304.975 6.05682 304.727 6.30682 304.545 6.63636C304.367 6.96212 304.278 7.35606 304.278 7.81818ZM315.966 13.1761C315.106 13.1761 314.366 12.9924 313.744 12.625C313.127 12.2538 312.65 11.733 312.312 11.0625C311.979 10.3883 311.812 9.59848 311.812 8.69318C311.812 7.79924 311.979 7.01136 312.312 6.32955C312.65 5.64773 313.119 5.11553 313.722 4.73295C314.328 4.35038 315.036 4.15909 315.847 4.15909C316.339 4.15909 316.816 4.24053 317.278 4.40341C317.741 4.56629 318.155 4.82197 318.523 5.17045C318.89 5.51894 319.18 5.97159 319.392 6.52841C319.604 7.08144 319.71 7.75379 319.71 8.54545V9.14773H312.773V7.875H318.045C318.045 7.42803 317.955 7.0322 317.773 6.6875C317.591 6.33902 317.335 6.06439 317.006 5.86364C316.68 5.66288 316.297 5.5625 315.858 5.5625C315.381 5.5625 314.964 5.67992 314.608 5.91477C314.256 6.14583 313.983 6.44886 313.79 6.82386C313.6 7.19508 313.506 7.59848 313.506 8.03409V9.02841C313.506 9.61174 313.608 10.108 313.812 10.517C314.021 10.9261 314.311 11.2386 314.682 11.4545C315.053 11.6667 315.487 11.7727 315.983 11.7727C316.305 11.7727 316.598 11.7273 316.864 11.6364C317.129 11.5417 317.358 11.4015 317.551 11.2159C317.744 11.0303 317.892 10.8011 317.994 10.5284L319.602 10.8182C319.473 11.2917 319.242 11.7064 318.909 12.0625C318.58 12.4148 318.165 12.6894 317.665 12.8864C317.169 13.0795 316.602 13.1761 315.966 13.1761ZM327.528 1.36364V13H325.83V1.36364H327.528ZM332.354 13.1932C331.801 13.1932 331.301 13.0909 330.854 12.8864C330.407 12.678 330.053 12.3769 329.791 11.983C329.534 11.589 329.405 11.1061 329.405 10.5341C329.405 10.0417 329.5 9.63636 329.689 9.31818C329.878 9 330.134 8.74811 330.456 8.5625C330.778 8.37689 331.138 8.23674 331.536 8.14205C331.933 8.04735 332.339 7.97538 332.751 7.92614C333.274 7.86553 333.698 7.81629 334.024 7.77841C334.35 7.73674 334.587 7.67045 334.734 7.57955C334.882 7.48864 334.956 7.34091 334.956 7.13636V7.09659C334.956 6.60038 334.816 6.21591 334.536 5.94318C334.259 5.67045 333.846 5.53409 333.297 5.53409C332.725 5.53409 332.274 5.66098 331.945 5.91477C331.619 6.16477 331.393 6.44318 331.268 6.75L329.672 6.38636C329.861 5.85606 330.138 5.42803 330.501 5.10227C330.869 4.77273 331.291 4.53409 331.768 4.38636C332.246 4.23485 332.748 4.15909 333.274 4.15909C333.623 4.15909 333.992 4.20076 334.382 4.28409C334.776 4.36364 335.143 4.51136 335.484 4.72727C335.829 4.94318 336.111 5.25189 336.331 5.65341C336.551 6.05114 336.661 6.56818 336.661 7.20455V13H335.001V11.8068H334.933C334.823 12.0265 334.659 12.2424 334.439 12.4545C334.219 12.6667 333.937 12.8428 333.592 12.983C333.248 13.1231 332.835 13.1932 332.354 13.1932ZM332.723 11.8295C333.193 11.8295 333.594 11.7367 333.928 11.5511C334.265 11.3655 334.52 11.1231 334.695 10.8239C334.873 10.5208 334.962 10.197 334.962 9.85227V8.72727C334.901 8.78788 334.784 8.8447 334.609 8.89773C334.439 8.94697 334.244 8.99053 334.024 9.02841C333.804 9.0625 333.59 9.0947 333.382 9.125C333.174 9.15152 333 9.17424 332.859 9.19318C332.53 9.23485 332.229 9.30492 331.956 9.40341C331.687 9.50189 331.471 9.64394 331.308 9.82955C331.149 10.0114 331.07 10.2538 331.07 10.5568C331.07 10.9773 331.225 11.2955 331.536 11.5114C331.846 11.7235 332.242 11.8295 332.723 11.8295ZM338.741 13V11.8352L343.469 5.82955V5.75H338.895V4.27273H345.588V5.51136L341.043 11.4432V11.5227H345.747V13H338.741ZM348.825 16.2727C348.571 16.2727 348.34 16.2519 348.132 16.2102C347.924 16.1723 347.768 16.1307 347.666 16.0852L348.075 14.6932C348.386 14.7765 348.662 14.8125 348.905 14.8011C349.147 14.7898 349.361 14.6989 349.547 14.5284C349.736 14.358 349.903 14.0795 350.047 13.6932L350.257 13.1136L347.064 4.27273H348.882L351.092 11.0455H351.183L353.393 4.27273H355.217L351.621 14.1648C351.454 14.6193 351.242 15.0038 350.984 15.3182C350.727 15.6364 350.42 15.875 350.064 16.0341C349.708 16.1932 349.295 16.2727 348.825 16.2727ZM364.315 13.1705C363.611 13.1705 362.982 12.9905 362.429 12.6307C361.88 12.267 361.448 11.75 361.134 11.0795C360.823 10.4053 360.668 9.59659 360.668 8.65341C360.668 7.71023 360.825 6.90341 361.139 6.23295C361.457 5.5625 361.893 5.04924 362.446 4.69318C362.999 4.33712 363.626 4.15909 364.327 4.15909C364.868 4.15909 365.304 4.25 365.634 4.43182C365.967 4.60985 366.224 4.81818 366.406 5.05682C366.592 5.29545 366.736 5.50568 366.838 5.6875H366.94V1.36364H368.639V13H366.98V11.642H366.838C366.736 11.8277 366.588 12.0398 366.395 12.2784C366.205 12.517 365.944 12.7254 365.611 12.9034C365.277 13.0814 364.846 13.1705 364.315 13.1705ZM364.69 11.7216C365.179 11.7216 365.592 11.5928 365.929 11.3352C366.27 11.0739 366.527 10.7121 366.702 10.25C366.88 9.78788 366.969 9.25 366.969 8.63636C366.969 8.0303 366.882 7.5 366.707 7.04545C366.533 6.59091 366.277 6.23674 365.94 5.98295C365.603 5.72917 365.187 5.60227 364.69 5.60227C364.179 5.60227 363.753 5.73485 363.412 6C363.071 6.26515 362.813 6.62689 362.639 7.08523C362.469 7.54356 362.384 8.06061 362.384 8.63636C362.384 9.2197 362.471 9.74432 362.645 10.2102C362.819 10.6761 363.077 11.0455 363.418 11.3182C363.762 11.5871 364.187 11.7216 364.69 11.7216ZM374.74 13.1761C373.922 13.1761 373.208 12.9886 372.598 12.6136C371.988 12.2386 371.515 11.714 371.178 11.0398C370.84 10.3655 370.672 9.57765 370.672 8.67614C370.672 7.77083 370.84 6.97917 371.178 6.30114C371.515 5.62311 371.988 5.09659 372.598 4.72159C373.208 4.34659 373.922 4.15909 374.74 4.15909C375.558 4.15909 376.272 4.34659 376.882 4.72159C377.492 5.09659 377.965 5.62311 378.303 6.30114C378.64 6.97917 378.808 7.77083 378.808 8.67614C378.808 9.57765 378.64 10.3655 378.303 11.0398C377.965 11.714 377.492 12.2386 376.882 12.6136C376.272 12.9886 375.558 13.1761 374.74 13.1761ZM374.746 11.75C375.276 11.75 375.715 11.6098 376.064 11.3295C376.412 11.0492 376.67 10.6761 376.837 10.2102C377.007 9.74432 377.092 9.23106 377.092 8.67045C377.092 8.11364 377.007 7.60227 376.837 7.13636C376.67 6.66667 376.412 6.28977 376.064 6.00568C375.715 5.72159 375.276 5.57955 374.746 5.57955C374.212 5.57955 373.768 5.72159 373.416 6.00568C373.068 6.28977 372.808 6.66667 372.638 7.13636C372.471 7.60227 372.388 8.11364 372.388 8.67045C372.388 9.23106 372.471 9.74432 372.638 10.2102C372.808 10.6761 373.068 11.0492 373.416 11.3295C373.768 11.6098 374.212 11.75 374.746 11.75ZM384.364 16.4545C383.67 16.4545 383.074 16.3636 382.574 16.1818C382.078 16 381.672 15.7595 381.358 15.4602C381.044 15.161 380.809 14.8333 380.653 14.4773L382.114 13.875C382.216 14.0417 382.352 14.2178 382.523 14.4034C382.697 14.5928 382.932 14.7538 383.227 14.8864C383.527 15.0189 383.911 15.0852 384.381 15.0852C385.025 15.0852 385.557 14.928 385.977 14.6136C386.398 14.303 386.608 13.8068 386.608 13.125V11.4091H386.5C386.398 11.5947 386.25 11.8011 386.057 12.0284C385.867 12.2557 385.606 12.4527 385.273 12.6193C384.939 12.786 384.506 12.8693 383.972 12.8693C383.282 12.8693 382.661 12.7083 382.108 12.3864C381.559 12.0606 381.123 11.5814 380.801 10.9489C380.483 10.3125 380.324 9.5303 380.324 8.60227C380.324 7.67424 380.481 6.87879 380.795 6.21591C381.114 5.55303 381.549 5.04545 382.102 4.69318C382.655 4.33712 383.282 4.15909 383.983 4.15909C384.525 4.15909 384.962 4.25 385.295 4.43182C385.629 4.60985 385.888 4.81818 386.074 5.05682C386.263 5.29545 386.409 5.50568 386.511 5.6875H386.636V4.27273H388.301V13.1932C388.301 13.9432 388.127 14.5587 387.778 15.0398C387.43 15.5208 386.958 15.8769 386.364 16.108C385.773 16.339 385.106 16.4545 384.364 16.4545ZM384.347 11.4602C384.835 11.4602 385.248 11.3466 385.585 11.1193C385.926 10.8883 386.184 10.5587 386.358 10.1307C386.536 9.69886 386.625 9.18182 386.625 8.57955C386.625 7.99242 386.538 7.47538 386.364 7.02841C386.189 6.58144 385.934 6.23295 385.597 5.98295C385.259 5.72917 384.843 5.60227 384.347 5.60227C383.835 5.60227 383.409 5.73485 383.068 6C382.727 6.26136 382.47 6.61742 382.295 7.06818C382.125 7.51894 382.04 8.02273 382.04 8.57955C382.04 9.15152 382.127 9.65341 382.301 10.0852C382.475 10.517 382.733 10.8542 383.074 11.0966C383.419 11.339 383.843 11.4602 384.347 11.4602ZM397.119 6.40341L395.58 6.67614C395.515 6.47917 395.413 6.29167 395.273 6.11364C395.136 5.93561 394.951 5.78977 394.716 5.67614C394.481 5.5625 394.188 5.50568 393.835 5.50568C393.354 5.50568 392.953 5.61364 392.631 5.82955C392.309 6.04167 392.148 6.31629 392.148 6.65341C392.148 6.94508 392.256 7.17992 392.472 7.35795C392.688 7.53598 393.036 7.68182 393.517 7.79545L394.903 8.11364C395.706 8.29924 396.305 8.58523 396.699 8.97159C397.093 9.35795 397.29 9.85985 397.29 10.4773C397.29 11 397.138 11.4659 396.835 11.875C396.536 12.2803 396.117 12.5985 395.58 12.8295C395.045 13.0606 394.426 13.1761 393.722 13.1761C392.744 13.1761 391.947 12.9678 391.33 12.5511C390.712 12.1307 390.333 11.5341 390.193 10.7614L391.835 10.5114C391.938 10.9394 392.148 11.2633 392.466 11.483C392.784 11.6989 393.199 11.8068 393.71 11.8068C394.267 11.8068 394.712 11.6913 395.045 11.4602C395.379 11.2254 395.545 10.9394 395.545 10.6023C395.545 10.3295 395.443 10.1004 395.239 9.91477C395.038 9.72917 394.729 9.58902 394.312 9.49432L392.835 9.17045C392.021 8.98485 391.419 8.68939 391.028 8.28409C390.642 7.87879 390.449 7.36553 390.449 6.74432C390.449 6.22917 390.593 5.77841 390.881 5.39205C391.169 5.00568 391.566 4.70455 392.074 4.48864C392.581 4.26894 393.163 4.15909 393.818 4.15909C394.761 4.15909 395.504 4.36364 396.045 4.77273C396.587 5.17803 396.945 5.72159 397.119 6.40341Z" fill="#F1F1F1"/>
</svg>
