<svg width="312" height="15" viewBox="0 0 312 15" fill="none" xmlns="http://www.w3.org/2000/svg">
<path d="M0.00426134 11V0.818182H1.84872V9.45384H6.3331V11H0.00426134ZM10.0518 11.1541C9.56795 11.1541 9.1321 11.0679 8.74432 10.8956C8.35985 10.7199 8.05492 10.4614 7.82955 10.12C7.60748 9.77865 7.49645 9.35772 7.49645 8.85724C7.49645 8.42637 7.57599 8.07008 7.73509 7.78835C7.89418 7.50663 8.11127 7.28125 8.38636 7.11222C8.66146 6.94318 8.97135 6.81558 9.31605 6.7294C9.66406 6.63991 10.0237 6.57528 10.3949 6.53551C10.8423 6.48911 11.2053 6.44768 11.4837 6.41122C11.7621 6.37145 11.9643 6.31179 12.0902 6.23224C12.2195 6.14938 12.2841 6.02178 12.2841 5.84943V5.8196C12.2841 5.44508 12.1731 5.15507 11.951 4.94957C11.7289 4.74408 11.4091 4.64134 10.9915 4.64134C10.5507 4.64134 10.201 4.73745 9.94247 4.92969C9.68726 5.12192 9.51491 5.34896 9.42543 5.6108L7.74503 5.37216C7.8776 4.90814 8.09635 4.52036 8.40128 4.20881C8.7062 3.89394 9.07907 3.65862 9.51989 3.50284C9.9607 3.34375 10.4479 3.2642 10.9815 3.2642C11.3494 3.2642 11.7157 3.30729 12.0803 3.39347C12.4448 3.47964 12.7779 3.62216 13.0795 3.82102C13.3812 4.01657 13.6231 4.28338 13.8054 4.62145C13.991 4.95952 14.0838 5.3821 14.0838 5.8892V11H12.3537V9.95099H12.294C12.1847 10.1631 12.0305 10.362 11.8317 10.5476C11.6361 10.7299 11.3892 10.8774 11.0909 10.9901C10.7959 11.0994 10.4496 11.1541 10.0518 11.1541ZM10.5192 9.83168C10.8804 9.83168 11.1937 9.76042 11.4588 9.6179C11.724 9.47206 11.9278 9.27983 12.0703 9.04119C12.2161 8.80256 12.2891 8.54238 12.2891 8.26065V7.3608C12.2327 7.4072 12.1366 7.45028 12.0007 7.49006C11.8681 7.52983 11.719 7.56463 11.5533 7.59446C11.3875 7.62429 11.2235 7.6508 11.0611 7.67401C10.8987 7.69721 10.7578 7.71709 10.6385 7.73366C10.37 7.77012 10.1297 7.82978 9.91761 7.91264C9.70549 7.9955 9.53812 8.11151 9.41548 8.26065C9.29285 8.40649 9.23153 8.59541 9.23153 8.82741C9.23153 9.15885 9.35251 9.40909 9.59446 9.57812C9.83641 9.74716 10.1446 9.83168 10.5192 9.83168ZM15.973 11V0.818182H17.7727V4.62642H17.8473C17.9401 4.44081 18.071 4.24361 18.2401 4.0348C18.4091 3.82268 18.6378 3.64205 18.9261 3.4929C19.2145 3.34044 19.5824 3.2642 20.0298 3.2642C20.6198 3.2642 21.1518 3.41501 21.6257 3.71662C22.103 4.01491 22.4808 4.45739 22.7592 5.04403C23.041 5.62737 23.1818 6.34328 23.1818 7.19176C23.1818 8.0303 23.0443 8.7429 22.7692 9.32955C22.4941 9.91619 22.1196 10.3636 21.6456 10.6719C21.1716 10.9801 20.6347 11.1342 20.0348 11.1342C19.5973 11.1342 19.2344 11.0613 18.946 10.9155C18.6577 10.7696 18.4257 10.594 18.25 10.3885C18.0777 10.1797 17.9434 9.98248 17.8473 9.79688H17.7429V11H15.973ZM17.7379 7.18182C17.7379 7.67566 17.8075 8.10819 17.9467 8.4794C18.0893 8.85062 18.2931 9.14062 18.5582 9.34943C18.8267 9.55492 19.1515 9.65767 19.5327 9.65767C19.9304 9.65767 20.2635 9.55161 20.532 9.33949C20.8004 9.12405 21.0026 8.83073 21.1385 8.45952C21.2777 8.08499 21.3473 7.65909 21.3473 7.18182C21.3473 6.70786 21.2794 6.28693 21.1435 5.91903C21.0076 5.55114 20.8054 5.26278 20.5369 5.05398C20.2685 4.84517 19.9337 4.74077 19.5327 4.74077C19.1482 4.74077 18.8217 4.84186 18.5533 5.04403C18.2848 5.24621 18.081 5.52959 17.9418 5.89418C17.8059 6.25876 17.7379 6.68797 17.7379 7.18182ZM28.0925 11.1491C27.3269 11.1491 26.6657 10.9901 26.1088 10.6719C25.5553 10.3504 25.1294 9.89631 24.8311 9.30966C24.5328 8.7197 24.3837 8.02533 24.3837 7.22656C24.3837 6.44105 24.5328 5.75166 24.8311 5.15838C25.1328 4.56179 25.5537 4.09777 26.0939 3.76633C26.6342 3.43158 27.2689 3.2642 27.998 3.2642C28.4687 3.2642 28.9128 3.34044 29.3304 3.4929C29.7514 3.64205 30.1226 3.87405 30.4441 4.18892C30.7689 4.50379 31.0241 4.90483 31.2097 5.39205C31.3953 5.87595 31.4881 6.45265 31.4881 7.12216V7.67401H25.2289V6.46094H29.763C29.7596 6.11624 29.6851 5.80966 29.5392 5.54119C29.3934 5.26941 29.1896 5.05563 28.9277 4.89986C28.6692 4.74408 28.3676 4.66619 28.0229 4.66619C27.655 4.66619 27.3319 4.75568 27.0534 4.93466C26.775 5.11032 26.5579 5.34233 26.4022 5.63068C26.2497 5.91572 26.1718 6.22893 26.1685 6.57031V7.62926C26.1685 8.07339 26.2497 8.45455 26.4121 8.77273C26.5745 9.08759 26.8016 9.32955 27.0932 9.49858C27.3849 9.6643 27.7263 9.74716 28.1174 9.74716C28.3792 9.74716 28.6162 9.7107 28.8283 9.63778C29.0404 9.56155 29.2244 9.45052 29.3801 9.30469C29.5359 9.15885 29.6536 8.97822 29.7331 8.76278L31.4135 8.9517C31.3075 9.39583 31.1053 9.78362 30.807 10.1151C30.512 10.4432 30.1342 10.6984 29.6735 10.8807C29.2128 11.0597 28.6858 11.1491 28.0925 11.1491ZM34.8104 0.818182V11H33.0107V0.818182H34.8104ZM44.7623 5.16832V6.64986H40.1784V5.16832H44.7623ZM49.7599 2.36435V0.818182H57.8835V2.36435H54.7365V11H52.907V2.36435H49.7599ZM61.1697 6.52557V11H59.37V0.818182H61.13V4.66122H61.2195C61.3984 4.23035 61.6752 3.89062 62.0497 3.64205C62.4276 3.39015 62.9081 3.2642 63.4915 3.2642C64.0218 3.2642 64.4841 3.37524 64.8786 3.5973C65.273 3.81937 65.5779 4.14418 65.7933 4.57173C66.0121 4.99929 66.1214 5.52131 66.1214 6.13778V11H64.3217V6.41619C64.3217 5.90246 64.1892 5.50308 63.924 5.21804C63.6622 4.92969 63.2943 4.78551 62.8203 4.78551C62.5021 4.78551 62.2171 4.85511 61.9652 4.99432C61.7166 5.13021 61.5211 5.32741 61.3786 5.58594C61.2393 5.84446 61.1697 6.15767 61.1697 6.52557ZM71.3366 11.1491C70.571 11.1491 69.9098 10.9901 69.353 10.6719C68.7995 10.3504 68.3736 9.89631 68.0753 9.30966C67.777 8.7197 67.6278 8.02533 67.6278 7.22656C67.6278 6.44105 67.777 5.75166 68.0753 5.15838C68.3769 4.56179 68.7978 4.09777 69.3381 3.76633C69.8783 3.43158 70.513 3.2642 71.2422 3.2642C71.7128 3.2642 72.157 3.34044 72.5746 3.4929C72.9955 3.64205 73.3667 3.87405 73.6882 4.18892C74.013 4.50379 74.2682 4.90483 74.4538 5.39205C74.6394 5.87595 74.7322 6.45265 74.7322 7.12216V7.67401H68.473V6.46094H73.0071C73.0038 6.11624 72.9292 5.80966 72.7834 5.54119C72.6375 5.26941 72.4337 5.05563 72.1719 4.89986C71.9134 4.74408 71.6117 4.66619 71.267 4.66619C70.8991 4.66619 70.576 4.75568 70.2976 4.93466C70.0192 5.11032 69.8021 5.34233 69.6463 5.63068C69.4938 5.91572 69.416 6.22893 69.4126 6.57031V7.62926C69.4126 8.07339 69.4938 8.45455 69.6562 8.77273C69.8187 9.08759 70.0457 9.32955 70.3374 9.49858C70.629 9.6643 70.9704 9.74716 71.3615 9.74716C71.6233 9.74716 71.8603 9.7107 72.0724 9.63778C72.2846 9.56155 72.4685 9.45052 72.6243 9.30469C72.7801 9.15885 72.8977 8.97822 72.9773 8.76278L74.6577 8.9517C74.5516 9.39583 74.3494 9.78362 74.0511 10.1151C73.7562 10.4432 73.3783 10.6984 72.9176 10.8807C72.4569 11.0597 71.9299 11.1491 71.3366 11.1491ZM84.8233 13.8636V9.79688H84.7488C84.656 9.98248 84.5217 10.1797 84.3461 10.3885C84.1704 10.594 83.9384 10.7696 83.65 10.9155C83.3617 11.0613 82.9988 11.1342 82.5613 11.1342C81.9614 11.1342 81.4244 10.9801 80.9505 10.6719C80.4765 10.3636 80.102 9.91619 79.8269 9.32955C79.5518 8.7429 79.4142 8.0303 79.4142 7.19176C79.4142 6.34328 79.5534 5.62737 79.8319 5.04403C80.1136 4.45739 80.4931 4.01491 80.9703 3.71662C81.4476 3.41501 81.9796 3.2642 82.5662 3.2642C83.0137 3.2642 83.3816 3.34044 83.6699 3.4929C83.9583 3.64205 84.187 3.82268 84.356 4.0348C84.525 4.24361 84.656 4.44081 84.7488 4.62642H84.8581V3.36364H86.628V13.8636H84.8233ZM83.0634 9.65767C83.4445 9.65767 83.7694 9.55492 84.0378 9.34943C84.3063 9.14062 84.5101 8.85062 84.6493 8.4794C84.7885 8.10819 84.8581 7.67566 84.8581 7.18182C84.8581 6.68797 84.7885 6.25876 84.6493 5.89418C84.5134 5.52959 84.3113 5.24621 84.0428 5.04403C83.7776 4.84186 83.4512 4.74077 83.0634 4.74077C82.6623 4.74077 82.3276 4.84517 82.0591 5.05398C81.7907 5.26278 81.5885 5.55114 81.4526 5.91903C81.3167 6.28693 81.2488 6.70786 81.2488 7.18182C81.2488 7.65909 81.3167 8.08499 81.4526 8.45952C81.5918 8.83073 81.7956 9.12405 82.0641 9.33949C82.3359 9.55161 82.669 9.65767 83.0634 9.65767ZM93.3446 7.78835V3.36364H95.1444V11H93.3993V9.64276H93.3198C93.1474 10.0703 92.8641 10.42 92.4696 10.6918C92.0785 10.9635 91.5963 11.0994 91.0229 11.0994C90.5224 11.0994 90.08 10.9884 89.6955 10.7663C89.3143 10.541 89.016 10.2145 88.8006 9.78693C88.5852 9.35606 88.4775 8.8357 88.4775 8.22585V3.36364H90.2772V7.94744C90.2772 8.43134 90.4097 8.81581 90.6749 9.10085C90.94 9.38589 91.2881 9.52841 91.7189 9.52841C91.9841 9.52841 92.2409 9.46378 92.4895 9.33452C92.7381 9.20526 92.9419 9.01302 93.101 8.75781C93.2634 8.49929 93.3446 8.17614 93.3446 7.78835ZM96.995 11V3.36364H98.7947V11H96.995ZM97.8999 2.27983C97.6148 2.27983 97.3696 2.18537 97.1641 1.99645C96.9586 1.80421 96.8558 1.57386 96.8558 1.3054C96.8558 1.03362 96.9586 0.803267 97.1641 0.614346C97.3696 0.422111 97.6148 0.325994 97.8999 0.325994C98.1882 0.325994 98.4335 0.422111 98.6357 0.614346C98.8411 0.803267 98.9439 1.03362 98.9439 1.3054C98.9439 1.57386 98.8411 1.80421 98.6357 1.99645C98.4335 2.18537 98.1882 2.27983 97.8999 2.27983ZM103.976 11.1491C103.214 11.1491 102.559 10.9818 102.013 10.647C101.469 10.3123 101.05 9.84991 100.755 9.25994C100.463 8.66667 100.317 7.9839 100.317 7.21165C100.317 6.43608 100.466 5.75166 100.765 5.15838C101.063 4.56179 101.484 4.09777 102.028 3.76633C102.574 3.43158 103.221 3.2642 103.966 3.2642C104.586 3.2642 105.135 3.37855 105.612 3.60724C106.093 3.83262 106.475 4.15246 106.76 4.56676C107.046 4.97775 107.208 5.45833 107.248 6.00852H105.528C105.458 5.64062 105.292 5.33404 105.03 5.08878C104.772 4.8402 104.425 4.71591 103.991 4.71591C103.623 4.71591 103.3 4.81534 103.022 5.0142C102.743 5.20975 102.526 5.49148 102.371 5.85938C102.218 6.22727 102.142 6.66809 102.142 7.18182C102.142 7.70218 102.218 8.14962 102.371 8.52415C102.523 8.89536 102.737 9.18205 103.012 9.38423C103.29 9.5831 103.617 9.68253 103.991 9.68253C104.256 9.68253 104.493 9.63281 104.702 9.53338C104.914 9.43063 105.092 9.28314 105.234 9.09091C105.377 8.89867 105.474 8.66501 105.528 8.38991H107.248C107.205 8.93016 107.046 9.40909 106.77 9.8267C106.495 10.241 106.121 10.5658 105.647 10.8011C105.173 11.0331 104.616 11.1491 103.976 11.1491ZM110.366 8.60369L110.361 6.43111H110.65L113.394 3.36364H115.497L112.121 7.12216H111.748L110.366 8.60369ZM108.725 11V0.818182H110.525V11H108.725ZM113.518 11L111.032 7.52486L112.245 6.2571L115.671 11H113.518ZM124.037 3.36364V4.75568H119.523V3.36364H124.037ZM120.651 11V2.64276C120.651 2.12902 120.757 1.70147 120.969 1.36008C121.185 1.0187 121.473 0.763494 121.834 0.59446C122.196 0.425426 122.597 0.340908 123.037 0.340908C123.349 0.340908 123.626 0.365767 123.868 0.415483C124.11 0.465199 124.289 0.509943 124.405 0.549716L124.047 1.94176C123.97 1.91856 123.874 1.89536 123.758 1.87216C123.642 1.84564 123.513 1.83239 123.371 1.83239C123.036 1.83239 122.799 1.91359 122.66 2.07599C122.524 2.23508 122.456 2.46378 122.456 2.76207V11H120.651ZM128.49 11.1491C127.744 11.1491 127.098 10.9851 126.551 10.657C126.004 10.3288 125.58 9.86979 125.278 9.27983C124.98 8.68987 124.831 8.00047 124.831 7.21165C124.831 6.42282 124.98 5.73177 125.278 5.13849C125.58 4.54522 126.004 4.08452 126.551 3.75639C127.098 3.42827 127.744 3.2642 128.49 3.2642C129.236 3.2642 129.882 3.42827 130.429 3.75639C130.976 4.08452 131.398 4.54522 131.697 5.13849C131.998 5.73177 132.149 6.42282 132.149 7.21165C132.149 8.00047 131.998 8.68987 131.697 9.27983C131.398 9.86979 130.976 10.3288 130.429 10.657C129.882 10.9851 129.236 11.1491 128.49 11.1491ZM128.5 9.70739C128.904 9.70739 129.242 9.59635 129.514 9.37429C129.786 9.14891 129.988 8.8473 130.121 8.46946C130.257 8.09162 130.325 7.67069 130.325 7.20668C130.325 6.73935 130.257 6.31676 130.121 5.93892C129.988 5.55777 129.786 5.2545 129.514 5.02912C129.242 4.80374 128.904 4.69105 128.5 4.69105C128.086 4.69105 127.741 4.80374 127.466 5.02912C127.194 5.2545 126.99 5.55777 126.854 5.93892C126.722 6.31676 126.656 6.73935 126.656 7.20668C126.656 7.67069 126.722 8.09162 126.854 8.46946C126.99 8.8473 127.194 9.14891 127.466 9.37429C127.741 9.59635 128.086 9.70739 128.5 9.70739ZM134.861 3.36364L136.402 6.18253L137.968 3.36364H139.873L137.571 7.18182L139.912 11H138.018L136.402 8.25071L134.801 11H132.892L135.219 7.18182L132.952 3.36364H134.861ZM144.737 3.36364H146.537V11.4375C146.537 11.9877 146.433 12.4418 146.224 12.7997C146.015 13.1577 145.713 13.4245 145.319 13.6001C144.924 13.7758 144.446 13.8636 143.882 13.8636C143.816 13.8636 143.754 13.862 143.698 13.8587C143.642 13.8587 143.58 13.857 143.514 13.8537V12.3871C143.564 12.3904 143.609 12.392 143.648 12.392C143.688 12.3954 143.73 12.397 143.773 12.397C144.117 12.397 144.364 12.3125 144.513 12.1435C144.663 11.9777 144.737 11.7341 144.737 11.4126V3.36364ZM145.632 2.27983C145.344 2.27983 145.097 2.18537 144.891 1.99645C144.689 1.80421 144.588 1.57386 144.588 1.3054C144.588 1.03362 144.689 0.803267 144.891 0.614346C145.097 0.422111 145.344 0.325994 145.632 0.325994C145.917 0.325994 146.161 0.422111 146.363 0.614346C146.568 0.803267 146.671 1.03362 146.671 1.3054C146.671 1.57386 146.568 1.80421 146.363 1.99645C146.161 2.18537 145.917 2.27983 145.632 2.27983ZM153.255 7.78835V3.36364H155.055V11H153.309V9.64276H153.23C153.058 10.0703 152.774 10.42 152.38 10.6918C151.989 10.9635 151.506 11.0994 150.933 11.0994C150.433 11.0994 149.99 10.9884 149.606 10.7663C149.224 10.541 148.926 10.2145 148.711 9.78693C148.495 9.35606 148.388 8.8357 148.388 8.22585V3.36364H150.187V7.94744C150.187 8.43134 150.32 8.81581 150.585 9.10085C150.85 9.38589 151.198 9.52841 151.629 9.52841C151.894 9.52841 152.151 9.46378 152.4 9.33452C152.648 9.20526 152.852 9.01302 153.011 8.75781C153.174 8.49929 153.255 8.17614 153.255 7.78835ZM156.905 11V3.36364H158.625V4.66122H158.715C158.874 4.22372 159.137 3.88234 159.505 3.63707C159.873 3.38849 160.312 3.2642 160.823 3.2642C161.34 3.2642 161.776 3.39015 162.13 3.64205C162.488 3.89062 162.74 4.23035 162.886 4.66122H162.966C163.135 4.23698 163.42 3.89891 163.821 3.64702C164.225 3.39181 164.704 3.2642 165.257 3.2642C165.96 3.2642 166.533 3.48627 166.978 3.9304C167.422 4.37453 167.644 5.02249 167.644 5.87429V11H165.839V6.1527C165.839 5.67874 165.713 5.33239 165.461 5.11364C165.209 4.89157 164.901 4.78054 164.537 4.78054C164.102 4.78054 163.763 4.91643 163.517 5.18821C163.275 5.45668 163.154 5.80634 163.154 6.23722V11H161.39V6.07812C161.39 5.68371 161.27 5.36884 161.032 5.13352C160.796 4.8982 160.488 4.78054 160.107 4.78054C159.848 4.78054 159.613 4.84683 159.401 4.9794C159.189 5.10866 159.02 5.29261 158.894 5.53125C158.768 5.76657 158.705 6.04167 158.705 6.35653V11H156.905ZM169.47 13.8636V3.36364H171.24V4.62642H171.344C171.437 4.44081 171.568 4.24361 171.737 4.0348C171.906 3.82268 172.134 3.64205 172.423 3.4929C172.711 3.34044 173.079 3.2642 173.526 3.2642C174.116 3.2642 174.648 3.41501 175.122 3.71662C175.6 4.01491 175.977 4.45739 176.256 5.04403C176.538 5.62737 176.678 6.34328 176.678 7.19176C176.678 8.0303 176.541 8.7429 176.266 9.32955C175.991 9.91619 175.616 10.3636 175.142 10.6719C174.668 10.9801 174.131 11.1342 173.531 11.1342C173.094 11.1342 172.731 11.0613 172.443 10.9155C172.154 10.7696 171.922 10.594 171.747 10.3885C171.574 10.1797 171.44 9.98248 171.344 9.79688H171.269V13.8636H169.47ZM171.235 7.18182C171.235 7.67566 171.304 8.10819 171.443 8.4794C171.586 8.85062 171.79 9.14062 172.055 9.34943C172.323 9.55492 172.648 9.65767 173.029 9.65767C173.427 9.65767 173.76 9.55161 174.029 9.33949C174.297 9.12405 174.499 8.83073 174.635 8.45952C174.774 8.08499 174.844 7.65909 174.844 7.18182C174.844 6.70786 174.776 6.28693 174.64 5.91903C174.504 5.55114 174.302 5.26278 174.034 5.05398C173.765 4.84517 173.43 4.74077 173.029 4.74077C172.645 4.74077 172.318 4.84186 172.05 5.04403C171.781 5.24621 171.578 5.52959 171.438 5.89418C171.302 6.25876 171.235 6.68797 171.235 7.18182ZM184.255 5.3821L182.615 5.56108C182.568 5.39536 182.487 5.23958 182.371 5.09375C182.258 4.94792 182.106 4.83026 181.914 4.74077C181.721 4.65128 181.486 4.60653 181.208 4.60653C180.833 4.60653 180.518 4.68774 180.263 4.85014C180.011 5.01255 179.887 5.22301 179.89 5.48153C179.887 5.7036 179.968 5.88423 180.134 6.02344C180.303 6.16264 180.581 6.27699 180.969 6.36648L182.271 6.64489C182.994 6.80066 183.531 7.04759 183.882 7.38565C184.237 7.72372 184.416 8.16619 184.419 8.71307C184.416 9.19366 184.275 9.6179 183.997 9.9858C183.722 10.3504 183.339 10.6354 182.848 10.8409C182.358 11.0464 181.794 11.1491 181.158 11.1491C180.223 11.1491 179.471 10.9536 178.901 10.5625C178.331 10.1681 177.991 9.61955 177.882 8.9169L179.637 8.74787C179.716 9.09257 179.885 9.35275 180.144 9.52841C180.402 9.70407 180.739 9.7919 181.153 9.7919C181.58 9.7919 181.923 9.70407 182.182 9.52841C182.444 9.35275 182.575 9.13565 182.575 8.87713C182.575 8.65838 182.49 8.47775 182.321 8.33523C182.155 8.19271 181.897 8.08333 181.546 8.0071L180.243 7.73366C179.511 7.5812 178.969 7.32434 178.617 6.96307C178.266 6.59848 178.092 6.13778 178.095 5.58097C178.092 5.11032 178.22 4.70265 178.478 4.35795C178.74 4.00994 179.103 3.74148 179.567 3.55256C180.034 3.36032 180.573 3.2642 181.183 3.2642C182.078 3.2642 182.782 3.45478 183.296 3.83594C183.813 4.21709 184.133 4.73248 184.255 5.3821ZM192.707 11.1491C191.961 11.1491 191.315 10.9851 190.768 10.657C190.221 10.3288 189.797 9.86979 189.495 9.27983C189.197 8.68987 189.048 8.00047 189.048 7.21165C189.048 6.42282 189.197 5.73177 189.495 5.13849C189.797 4.54522 190.221 4.08452 190.768 3.75639C191.315 3.42827 191.961 3.2642 192.707 3.2642C193.453 3.2642 194.099 3.42827 194.646 3.75639C195.193 4.08452 195.615 4.54522 195.914 5.13849C196.215 5.73177 196.366 6.42282 196.366 7.21165C196.366 8.00047 196.215 8.68987 195.914 9.27983C195.615 9.86979 195.193 10.3288 194.646 10.657C194.099 10.9851 193.453 11.1491 192.707 11.1491ZM192.717 9.70739C193.121 9.70739 193.459 9.59635 193.731 9.37429C194.003 9.14891 194.205 8.8473 194.338 8.46946C194.473 8.09162 194.541 7.67069 194.541 7.20668C194.541 6.73935 194.473 6.31676 194.338 5.93892C194.205 5.55777 194.003 5.2545 193.731 5.02912C193.459 4.80374 193.121 4.69105 192.717 4.69105C192.302 4.69105 191.958 4.80374 191.683 5.02912C191.411 5.2545 191.207 5.55777 191.071 5.93892C190.939 6.31676 190.872 6.73935 190.872 7.20668C190.872 7.67069 190.939 8.09162 191.071 8.46946C191.207 8.8473 191.411 9.14891 191.683 9.37429C191.958 9.59635 192.302 9.70739 192.717 9.70739ZM204.455 3.36364L201.735 11H199.747L197.027 3.36364H198.946L200.701 9.03622H200.781L202.541 3.36364H204.455ZM208.821 11.1491C208.055 11.1491 207.394 10.9901 206.837 10.6719C206.284 10.3504 205.858 9.89631 205.56 9.30966C205.261 8.7197 205.112 8.02533 205.112 7.22656C205.112 6.44105 205.261 5.75166 205.56 5.15838C205.861 4.56179 206.282 4.09777 206.822 3.76633C207.363 3.43158 207.997 3.2642 208.727 3.2642C209.197 3.2642 209.641 3.34044 210.059 3.4929C210.48 3.64205 210.851 3.87405 211.173 4.18892C211.497 4.50379 211.753 4.90483 211.938 5.39205C212.124 5.87595 212.217 6.45265 212.217 7.12216V7.67401H205.957V6.46094H210.491C210.488 6.11624 210.414 5.80966 210.268 5.54119C210.122 5.26941 209.918 5.05563 209.656 4.89986C209.398 4.74408 209.096 4.66619 208.751 4.66619C208.384 4.66619 208.06 4.75568 207.782 4.93466C207.504 5.11032 207.286 5.34233 207.131 5.63068C206.978 5.91572 206.9 6.22893 206.897 6.57031V7.62926C206.897 8.07339 206.978 8.45455 207.141 8.77273C207.303 9.08759 207.53 9.32955 207.822 9.49858C208.113 9.6643 208.455 9.74716 208.846 9.74716C209.108 9.74716 209.345 9.7107 209.557 9.63778C209.769 9.56155 209.953 9.45052 210.109 9.30469C210.264 9.15885 210.382 8.97822 210.462 8.76278L212.142 8.9517C212.036 9.39583 211.834 9.78362 211.536 10.1151C211.241 10.4432 210.863 10.6984 210.402 10.8807C209.941 11.0597 209.414 11.1491 208.821 11.1491ZM213.739 11V3.36364H215.484V4.63636H215.564C215.703 4.19555 215.942 3.85582 216.28 3.61719C216.621 3.37524 217.01 3.25426 217.448 3.25426C217.547 3.25426 217.658 3.25923 217.781 3.26918C217.907 3.2758 218.011 3.2874 218.094 3.30398V4.95952C218.018 4.933 217.897 4.9098 217.731 4.88991C217.569 4.86671 217.412 4.85511 217.259 4.85511C216.931 4.85511 216.636 4.92637 216.374 5.06889C216.116 5.2081 215.912 5.40199 215.763 5.65057C215.613 5.89915 215.539 6.18584 215.539 6.51065V11H213.739ZM226.576 3.36364V4.75568H222.186V3.36364H226.576ZM223.27 1.53409H225.069V8.70312C225.069 8.94508 225.106 9.13068 225.179 9.25994C225.255 9.38589 225.354 9.47206 225.477 9.51847C225.6 9.56487 225.736 9.58807 225.885 9.58807C225.997 9.58807 226.1 9.57978 226.193 9.56321C226.289 9.54664 226.362 9.53172 226.412 9.51847L226.715 10.9254C226.619 10.9586 226.481 10.995 226.302 11.0348C226.127 11.0746 225.911 11.0978 225.656 11.1044C225.205 11.1177 224.799 11.0497 224.438 10.9006C224.077 10.7481 223.79 10.5128 223.578 10.1946C223.369 9.87642 223.266 9.47869 223.27 9.00142V1.53409ZM230.045 6.52557V11H228.245V0.818182H230.005V4.66122H230.094C230.273 4.23035 230.55 3.89062 230.925 3.64205C231.303 3.39015 231.783 3.2642 232.366 3.2642C232.897 3.2642 233.359 3.37524 233.754 3.5973C234.148 3.81937 234.453 4.14418 234.668 4.57173C234.887 4.99929 234.996 5.52131 234.996 6.13778V11H233.197V6.41619C233.197 5.90246 233.064 5.50308 232.799 5.21804C232.537 4.92969 232.169 4.78551 231.695 4.78551C231.377 4.78551 231.092 4.85511 230.84 4.99432C230.592 5.13021 230.396 5.32741 230.254 5.58594C230.114 5.84446 230.045 6.15767 230.045 6.52557ZM240.212 11.1491C239.446 11.1491 238.785 10.9901 238.228 10.6719C237.674 10.3504 237.249 9.89631 236.95 9.30966C236.652 8.7197 236.503 8.02533 236.503 7.22656C236.503 6.44105 236.652 5.75166 236.95 5.15838C237.252 4.56179 237.673 4.09777 238.213 3.76633C238.753 3.43158 239.388 3.2642 240.117 3.2642C240.588 3.2642 241.032 3.34044 241.45 3.4929C241.871 3.64205 242.242 3.87405 242.563 4.18892C242.888 4.50379 243.143 4.90483 243.329 5.39205C243.514 5.87595 243.607 6.45265 243.607 7.12216V7.67401H237.348V6.46094H241.882C241.879 6.11624 241.804 5.80966 241.658 5.54119C241.513 5.26941 241.309 5.05563 241.047 4.89986C240.788 4.74408 240.487 4.66619 240.142 4.66619C239.774 4.66619 239.451 4.75568 239.173 4.93466C238.894 5.11032 238.677 5.34233 238.521 5.63068C238.369 5.91572 238.291 6.22893 238.288 6.57031V7.62926C238.288 8.07339 238.369 8.45455 238.531 8.77273C238.694 9.08759 238.921 9.32955 239.212 9.49858C239.504 9.6643 239.845 9.74716 240.237 9.74716C240.498 9.74716 240.735 9.7107 240.947 9.63778C241.16 9.56155 241.344 9.45052 241.499 9.30469C241.655 9.15885 241.773 8.97822 241.852 8.76278L243.533 8.9517C243.427 9.39583 243.224 9.78362 242.926 10.1151C242.631 10.4432 242.253 10.6984 241.793 10.8807C241.332 11.0597 240.805 11.1491 240.212 11.1491ZM250.402 0.818182V11H248.602V0.818182H250.402ZM254.45 11.1541C253.966 11.1541 253.531 11.0679 253.143 10.8956C252.758 10.7199 252.453 10.4614 252.228 10.12C252.006 9.77865 251.895 9.35772 251.895 8.85724C251.895 8.42637 251.974 8.07008 252.134 7.78835C252.293 7.50663 252.51 7.28125 252.785 7.11222C253.06 6.94318 253.37 6.81558 253.714 6.7294C254.063 6.63991 254.422 6.57528 254.793 6.53551C255.241 6.48911 255.604 6.44768 255.882 6.41122C256.161 6.37145 256.363 6.31179 256.489 6.23224C256.618 6.14938 256.683 6.02178 256.683 5.84943V5.8196C256.683 5.44508 256.571 5.15507 256.349 4.94957C256.127 4.74408 255.808 4.64134 255.39 4.64134C254.949 4.64134 254.599 4.73745 254.341 4.92969C254.086 5.12192 253.913 5.34896 253.824 5.6108L252.143 5.37216C252.276 4.90814 252.495 4.52036 252.8 4.20881C253.105 3.89394 253.478 3.65862 253.918 3.50284C254.359 3.34375 254.846 3.2642 255.38 3.2642C255.748 3.2642 256.114 3.30729 256.479 3.39347C256.843 3.47964 257.176 3.62216 257.478 3.82102C257.78 4.01657 258.022 4.28338 258.204 4.62145C258.389 4.95952 258.482 5.3821 258.482 5.8892V11H256.752V9.95099H256.692C256.583 10.1631 256.429 10.362 256.23 10.5476C256.035 10.7299 255.788 10.8774 255.489 10.9901C255.194 11.0994 254.848 11.1541 254.45 11.1541ZM254.918 9.83168C255.279 9.83168 255.592 9.76042 255.857 9.6179C256.122 9.47206 256.326 9.27983 256.469 9.04119C256.615 8.80256 256.688 8.54238 256.688 8.26065V7.3608C256.631 7.4072 256.535 7.45028 256.399 7.49006C256.267 7.52983 256.117 7.56463 255.952 7.59446C255.786 7.62429 255.622 7.6508 255.46 7.67401C255.297 7.69721 255.156 7.71709 255.037 7.73366C254.768 7.77012 254.528 7.82978 254.316 7.91264C254.104 7.9955 253.937 8.11151 253.814 8.26065C253.691 8.40649 253.63 8.59541 253.63 8.82741C253.63 9.15885 253.751 9.40909 253.993 9.57812C254.235 9.74716 254.543 9.83168 254.918 9.83168ZM260.192 11V9.85653L264.13 4.91974V4.85511H260.322V3.36364H266.332V4.59162L262.584 9.44389V9.50852H266.462V11H260.192ZM269.272 13.8636C269.027 13.8636 268.8 13.8438 268.591 13.804C268.385 13.7675 268.221 13.7244 268.099 13.6747L268.516 12.2727C268.778 12.349 269.012 12.3854 269.217 12.3821C269.423 12.3788 269.603 12.3142 269.759 12.1882C269.918 12.0656 270.052 11.8601 270.162 11.5717L270.316 11.1591L267.547 3.36364H269.456L271.216 9.13068H271.295L273.06 3.36364H274.974L271.917 11.9247C271.774 12.3291 271.585 12.6754 271.35 12.9638C271.115 13.2554 270.826 13.4775 270.485 13.63C270.147 13.7857 269.742 13.8636 269.272 13.8636ZM282.526 11.1342C281.926 11.1342 281.389 10.9801 280.915 10.6719C280.441 10.3636 280.067 9.91619 279.792 9.32955C279.517 8.7429 279.379 8.0303 279.379 7.19176C279.379 6.34328 279.518 5.62737 279.797 5.04403C280.078 4.45739 280.458 4.01491 280.935 3.71662C281.412 3.41501 281.944 3.2642 282.531 3.2642C282.979 3.2642 283.346 3.34044 283.635 3.4929C283.923 3.64205 284.152 3.82268 284.321 4.0348C284.49 4.24361 284.621 4.44081 284.714 4.62642H284.788V0.818182H286.593V11H284.823V9.79688H284.714C284.621 9.98248 284.487 10.1797 284.311 10.3885C284.135 10.594 283.903 10.7696 283.615 10.9155C283.327 11.0613 282.964 11.1342 282.526 11.1342ZM283.028 9.65767C283.409 9.65767 283.734 9.55492 284.003 9.34943C284.271 9.14062 284.475 8.85062 284.614 8.4794C284.753 8.10819 284.823 7.67566 284.823 7.18182C284.823 6.68797 284.753 6.25876 284.614 5.89418C284.478 5.52959 284.276 5.24621 284.008 5.04403C283.742 4.84186 283.416 4.74077 283.028 4.74077C282.627 4.74077 282.292 4.84517 282.024 5.05398C281.756 5.26278 281.553 5.55114 281.417 5.91903C281.282 6.28693 281.214 6.70786 281.214 7.18182C281.214 7.65909 281.282 8.08499 281.417 8.45952C281.557 8.83073 281.76 9.12405 282.029 9.33949C282.301 9.55161 282.634 9.65767 283.028 9.65767ZM291.842 11.1491C291.096 11.1491 290.45 10.9851 289.903 10.657C289.356 10.3288 288.932 9.86979 288.63 9.27983C288.332 8.68987 288.183 8.00047 288.183 7.21165C288.183 6.42282 288.332 5.73177 288.63 5.13849C288.932 4.54522 289.356 4.08452 289.903 3.75639C290.45 3.42827 291.096 3.2642 291.842 3.2642C292.587 3.2642 293.234 3.42827 293.781 3.75639C294.327 4.08452 294.75 4.54522 295.048 5.13849C295.35 5.73177 295.501 6.42282 295.501 7.21165C295.501 8.00047 295.35 8.68987 295.048 9.27983C294.75 9.86979 294.327 10.3288 293.781 10.657C293.234 10.9851 292.587 11.1491 291.842 11.1491ZM291.852 9.70739C292.256 9.70739 292.594 9.59635 292.866 9.37429C293.138 9.14891 293.34 8.8473 293.472 8.46946C293.608 8.09162 293.676 7.67069 293.676 7.20668C293.676 6.73935 293.608 6.31676 293.472 5.93892C293.34 5.55777 293.138 5.2545 292.866 5.02912C292.594 4.80374 292.256 4.69105 291.852 4.69105C291.437 4.69105 291.093 4.80374 290.817 5.02912C290.546 5.2545 290.342 5.55777 290.206 5.93892C290.073 6.31676 290.007 6.73935 290.007 7.20668C290.007 7.67069 290.073 8.09162 290.206 8.46946C290.342 8.8473 290.546 9.14891 290.817 9.37429C291.093 9.59635 291.437 9.70739 291.852 9.70739ZM300.349 14.0227C299.703 14.0227 299.148 13.9349 298.684 13.7592C298.22 13.5869 297.847 13.3549 297.565 13.0632C297.283 12.7715 297.088 12.4484 296.979 12.0938L298.599 11.701C298.672 11.8501 298.778 11.9976 298.917 12.1435C299.057 12.2926 299.244 12.4152 299.479 12.5114C299.718 12.6108 300.018 12.6605 300.379 12.6605C300.89 12.6605 301.312 12.5362 301.647 12.2876C301.982 12.0424 302.149 11.638 302.149 11.0746V9.62784H302.059C301.967 9.81345 301.831 10.004 301.652 10.1996C301.476 10.3951 301.242 10.5592 300.951 10.6918C300.662 10.8243 300.3 10.8906 299.862 10.8906C299.275 10.8906 298.743 10.7531 298.266 10.478C297.792 10.1996 297.414 9.78527 297.133 9.23509C296.854 8.68158 296.715 7.98887 296.715 7.15696C296.715 6.31842 296.854 5.6108 297.133 5.03409C297.414 4.45407 297.794 4.01491 298.271 3.71662C298.748 3.41501 299.28 3.2642 299.867 3.2642C300.314 3.2642 300.682 3.34044 300.971 3.4929C301.262 3.64205 301.494 3.82268 301.667 4.0348C301.839 4.24361 301.97 4.44081 302.059 4.62642H302.159V3.36364H303.934V11.1243C303.934 11.7772 303.778 12.3175 303.466 12.745C303.155 13.1726 302.729 13.4924 302.189 13.7045C301.648 13.9167 301.035 14.0227 300.349 14.0227ZM300.364 9.47869C300.745 9.47869 301.07 9.38589 301.339 9.20028C301.607 9.01468 301.811 8.74787 301.95 8.39986C302.089 8.05185 302.159 7.63423 302.159 7.14702C302.159 6.66643 302.089 6.2455 301.95 5.88423C301.814 5.52296 301.612 5.2429 301.344 5.04403C301.078 4.84186 300.752 4.74077 300.364 4.74077C299.963 4.74077 299.628 4.84517 299.36 5.05398C299.091 5.26278 298.889 5.54948 298.753 5.91406C298.617 6.27533 298.55 6.68632 298.55 7.14702C298.55 7.61435 298.617 8.02367 298.753 8.375C298.893 8.72301 299.096 8.99479 299.365 9.19034C299.637 9.38258 299.97 9.47869 300.364 9.47869ZM311.814 5.3821L310.173 5.56108C310.127 5.39536 310.046 5.23958 309.93 5.09375C309.817 4.94792 309.664 4.83026 309.472 4.74077C309.28 4.65128 309.045 4.60653 308.766 4.60653C308.392 4.60653 308.077 4.68774 307.822 4.85014C307.57 5.01255 307.445 5.22301 307.449 5.48153C307.445 5.7036 307.527 5.88423 307.692 6.02344C307.861 6.16264 308.14 6.27699 308.528 6.36648L309.83 6.64489C310.553 6.80066 311.09 7.04759 311.441 7.38565C311.796 7.72372 311.974 8.16619 311.978 8.71307C311.974 9.19366 311.834 9.6179 311.555 9.9858C311.28 10.3504 310.897 10.6354 310.407 10.8409C309.916 11.0464 309.353 11.1491 308.716 11.1491C307.782 11.1491 307.029 10.9536 306.459 10.5625C305.889 10.1681 305.55 9.61955 305.44 8.9169L307.195 8.74787C307.275 9.09257 307.444 9.35275 307.702 9.52841C307.961 9.70407 308.297 9.7919 308.711 9.7919C309.139 9.7919 309.482 9.70407 309.741 9.52841C310.002 9.35275 310.133 9.13565 310.133 8.87713C310.133 8.65838 310.049 8.47775 309.88 8.33523C309.714 8.19271 309.456 8.08333 309.104 8.0071L307.802 7.73366C307.069 7.5812 306.527 7.32434 306.176 6.96307C305.825 6.59848 305.651 6.13778 305.654 5.58097C305.651 5.11032 305.778 4.70265 306.037 4.35795C306.299 4.00994 306.662 3.74148 307.126 3.55256C307.593 3.36032 308.131 3.2642 308.741 3.2642C309.636 3.2642 310.34 3.45478 310.854 3.83594C311.371 4.21709 311.691 4.73248 311.814 5.3821Z" fill="#F1F1F1"/>
</svg>
