<svg width="64" height="19" viewBox="0 0 64 19" fill="none" xmlns="http://www.w3.org/2000/svg">
<path d="M5.28409 18L0.511364 0.545454H2.65909L6.30682 14.7614H6.47727L10.1932 0.545454H12.5795L16.2955 14.7614H16.4659L20.1136 0.545454H22.2614L17.4886 18H15.3068L11.4545 4.09091H11.3182L7.46591 18H5.28409ZM26.6335 10.125V18H24.6222V0.545454H26.6335V6.95455H26.804C27.1108 6.27841 27.571 5.74148 28.1847 5.34375C28.804 4.94034 29.6278 4.73864 30.6562 4.73864C31.5483 4.73864 32.3295 4.91761 33 5.27557C33.6705 5.62784 34.1903 6.17045 34.5597 6.90341C34.9347 7.63068 35.1222 8.55682 35.1222 9.68182V18H33.1108V9.81818C33.1108 8.77841 32.8409 7.97443 32.3011 7.40625C31.767 6.83239 31.0256 6.54545 30.0767 6.54545C29.4176 6.54545 28.8267 6.68466 28.304 6.96307C27.7869 7.24148 27.3778 7.64773 27.0767 8.18182C26.7813 8.71591 26.6335 9.36364 26.6335 10.125ZM38.8018 18V4.90909H40.8132V18H38.8018ZM39.8246 2.72727C39.4325 2.72727 39.0945 2.59375 38.8104 2.3267C38.532 2.05966 38.3928 1.73864 38.3928 1.36364C38.3928 0.988636 38.532 0.667614 38.8104 0.400568C39.0945 0.133523 39.4325 0 39.8246 0C40.2166 0 40.5518 0.133523 40.8303 0.400568C41.1143 0.667614 41.2564 0.988636 41.2564 1.36364C41.2564 1.73864 41.1143 2.05966 40.8303 2.3267C40.5518 2.59375 40.2166 2.72727 39.8246 2.72727ZM50.1903 4.90909V6.61364H43.4062V4.90909H50.1903ZM45.3835 1.77273H47.3949V14.25C47.3949 14.8182 47.4773 15.2443 47.642 15.5284C47.8125 15.8068 48.0284 15.9943 48.2898 16.0909C48.5568 16.1818 48.8381 16.2273 49.1335 16.2273C49.3551 16.2273 49.5369 16.2159 49.679 16.1932C49.821 16.1648 49.9347 16.142 50.0199 16.125L50.429 17.9318C50.2926 17.983 50.1023 18.0341 49.858 18.0852C49.6136 18.142 49.304 18.1705 48.929 18.1705C48.3608 18.1705 47.804 18.0483 47.2585 17.804C46.7188 17.5597 46.2699 17.1875 45.9119 16.6875C45.5597 16.1875 45.3835 15.5568 45.3835 14.7955V1.77273ZM58.5639 18.2727C57.3026 18.2727 56.2145 17.9943 55.2997 17.4375C54.3906 16.875 53.6889 16.0909 53.1946 15.0852C52.706 14.0739 52.4616 12.8977 52.4616 11.5568C52.4616 10.2159 52.706 9.03409 53.1946 8.01136C53.6889 6.98295 54.3764 6.18182 55.2571 5.60795C56.1435 5.02841 57.1776 4.73864 58.3594 4.73864C59.0412 4.73864 59.7145 4.85227 60.3793 5.07954C61.044 5.30682 61.6491 5.67614 62.1946 6.1875C62.7401 6.69318 63.1747 7.36364 63.4986 8.19886C63.8224 9.03409 63.9844 10.0625 63.9844 11.2841V12.1364H53.8935V10.3977H61.9389C61.9389 9.65909 61.7912 9 61.4957 8.42045C61.206 7.84091 60.7912 7.38352 60.2514 7.0483C59.7173 6.71307 59.0866 6.54545 58.3594 6.54545C57.5582 6.54545 56.8651 6.74432 56.2798 7.14205C55.7003 7.53409 55.2543 8.04545 54.9418 8.67614C54.6293 9.30682 54.473 9.98295 54.473 10.7045V11.8636C54.473 12.8523 54.6435 13.6903 54.9844 14.3778C55.331 15.0597 55.8111 15.5795 56.4247 15.9375C57.0384 16.2898 57.7514 16.4659 58.5639 16.4659C59.0923 16.4659 59.5696 16.392 59.9957 16.2443C60.4276 16.0909 60.7997 15.8636 61.1122 15.5625C61.4247 15.2557 61.6662 14.875 61.8366 14.4205L63.7798 14.9659C63.5753 15.625 63.2315 16.2045 62.7486 16.7045C62.2656 17.1989 61.669 17.5852 60.9588 17.8636C60.2486 18.1364 59.4503 18.2727 58.5639 18.2727Z" fill="#F1F1F1"/>
</svg>
